<?xml version="1.0" encoding="utf-8" standalone="no"?>
<!DOCTYPE svg PUBLIC "-//W3C//DTD SVG 1.1//EN"
  "http://www.w3.org/Graphics/SVG/1.1/DTD/svg11.dtd">
<svg xmlns:xlink="http://www.w3.org/1999/xlink" width="460.8pt" height="345.6pt" viewBox="0 0 460.8 345.6" xmlns="http://www.w3.org/2000/svg" version="1.1">
 <metadata>
  <rdf:RDF xmlns:dc="http://purl.org/dc/elements/1.1/" xmlns:cc="http://creativecommons.org/ns#" xmlns:rdf="http://www.w3.org/1999/02/22-rdf-syntax-ns#">
   <cc:Work>
    <dc:type rdf:resource="http://purl.org/dc/dcmitype/StillImage"/>
    <dc:date>2022-09-22T08:54:55.191034</dc:date>
    <dc:format>image/svg+xml</dc:format>
    <dc:creator>
     <cc:Agent>
      <dc:title>Matplotlib v3.5.3, https://matplotlib.org/</dc:title>
     </cc:Agent>
    </dc:creator>
   </cc:Work>
  </rdf:RDF>
 </metadata>
 <defs>
  <style type="text/css">*{stroke-linejoin: round; stroke-linecap: butt}</style>
 </defs>
 <g id="figure_1">
  <g id="patch_1">
   <path d="M 0 345.6 
L 460.8 345.6 
L 460.8 0 
L 0 0 
z
" style="fill: #ffffff"/>
  </g>
  <g id="axes_1">
   <g id="patch_2">
    <path d="M 57.6 307.584 
L 414.72 307.584 
L 414.72 41.472 
L 57.6 41.472 
z
" style="fill: #ffffff"/>
   </g>
   <g id="matplotlib.axis_1">
    <g id="xtick_1">
     <g id="line2d_1">
      <path d="M 73.832727 307.584 
L 73.832727 41.472 
" clip-path="url(#p577e91c874)" style="fill: none; stroke: #b0b0b0; stroke-width: 0.8; stroke-linecap: square"/>
     </g>
     <g id="line2d_2">
      <defs>
       <path id="m93efaf340c" d="M 0 0 
L 0 3.5 
" style="stroke: #000000; stroke-width: 0.8"/>
      </defs>
      <g>
       <use xlink:href="#m93efaf340c" x="73.832727" y="307.584" style="stroke: #000000; stroke-width: 0.8"/>
      </g>
     </g>
     <g id="text_1">
      <!-- 0 -->
      <g transform="translate(70.651477 322.182437)scale(0.1 -0.1)">
       <defs>
        <path id="DejaVuSans-30" d="M 2034 4250 
Q 1547 4250 1301 3770 
Q 1056 3291 1056 2328 
Q 1056 1369 1301 889 
Q 1547 409 2034 409 
Q 2525 409 2770 889 
Q 3016 1369 3016 2328 
Q 3016 3291 2770 3770 
Q 2525 4250 2034 4250 
z
M 2034 4750 
Q 2819 4750 3233 4129 
Q 3647 3509 3647 2328 
Q 3647 1150 3233 529 
Q 2819 -91 2034 -91 
Q 1250 -91 836 529 
Q 422 1150 422 2328 
Q 422 3509 836 4129 
Q 1250 4750 2034 4750 
z
" transform="scale(0.015625)"/>
       </defs>
       <use xlink:href="#DejaVuSans-30"/>
      </g>
     </g>
    </g>
    <g id="xtick_2">
     <g id="line2d_3">
      <path d="M 128.032151 307.584 
L 128.032151 41.472 
" clip-path="url(#p577e91c874)" style="fill: none; stroke: #b0b0b0; stroke-width: 0.8; stroke-linecap: square"/>
     </g>
     <g id="line2d_4">
      <g>
       <use xlink:href="#m93efaf340c" x="128.032151" y="307.584" style="stroke: #000000; stroke-width: 0.8"/>
      </g>
     </g>
     <g id="text_2">
      <!-- 100 -->
      <g transform="translate(118.488401 322.182437)scale(0.1 -0.1)">
       <defs>
        <path id="DejaVuSans-31" d="M 794 531 
L 1825 531 
L 1825 4091 
L 703 3866 
L 703 4441 
L 1819 4666 
L 2450 4666 
L 2450 531 
L 3481 531 
L 3481 0 
L 794 0 
L 794 531 
z
" transform="scale(0.015625)"/>
       </defs>
       <use xlink:href="#DejaVuSans-31"/>
       <use xlink:href="#DejaVuSans-30" x="63.623047"/>
       <use xlink:href="#DejaVuSans-30" x="127.246094"/>
      </g>
     </g>
    </g>
    <g id="xtick_3">
     <g id="line2d_5">
      <path d="M 182.231574 307.584 
L 182.231574 41.472 
" clip-path="url(#p577e91c874)" style="fill: none; stroke: #b0b0b0; stroke-width: 0.8; stroke-linecap: square"/>
     </g>
     <g id="line2d_6">
      <g>
       <use xlink:href="#m93efaf340c" x="182.231574" y="307.584" style="stroke: #000000; stroke-width: 0.8"/>
      </g>
     </g>
     <g id="text_3">
      <!-- 200 -->
      <g transform="translate(172.687824 322.182437)scale(0.1 -0.1)">
       <defs>
        <path id="DejaVuSans-32" d="M 1228 531 
L 3431 531 
L 3431 0 
L 469 0 
L 469 531 
Q 828 903 1448 1529 
Q 2069 2156 2228 2338 
Q 2531 2678 2651 2914 
Q 2772 3150 2772 3378 
Q 2772 3750 2511 3984 
Q 2250 4219 1831 4219 
Q 1534 4219 1204 4116 
Q 875 4013 500 3803 
L 500 4441 
Q 881 4594 1212 4672 
Q 1544 4750 1819 4750 
Q 2544 4750 2975 4387 
Q 3406 4025 3406 3419 
Q 3406 3131 3298 2873 
Q 3191 2616 2906 2266 
Q 2828 2175 2409 1742 
Q 1991 1309 1228 531 
z
" transform="scale(0.015625)"/>
       </defs>
       <use xlink:href="#DejaVuSans-32"/>
       <use xlink:href="#DejaVuSans-30" x="63.623047"/>
       <use xlink:href="#DejaVuSans-30" x="127.246094"/>
      </g>
     </g>
    </g>
    <g id="xtick_4">
     <g id="line2d_7">
      <path d="M 236.430997 307.584 
L 236.430997 41.472 
" clip-path="url(#p577e91c874)" style="fill: none; stroke: #b0b0b0; stroke-width: 0.8; stroke-linecap: square"/>
     </g>
     <g id="line2d_8">
      <g>
       <use xlink:href="#m93efaf340c" x="236.430997" y="307.584" style="stroke: #000000; stroke-width: 0.8"/>
      </g>
     </g>
     <g id="text_4">
      <!-- 300 -->
      <g transform="translate(226.887247 322.182437)scale(0.1 -0.1)">
       <defs>
        <path id="DejaVuSans-33" d="M 2597 2516 
Q 3050 2419 3304 2112 
Q 3559 1806 3559 1356 
Q 3559 666 3084 287 
Q 2609 -91 1734 -91 
Q 1441 -91 1130 -33 
Q 819 25 488 141 
L 488 750 
Q 750 597 1062 519 
Q 1375 441 1716 441 
Q 2309 441 2620 675 
Q 2931 909 2931 1356 
Q 2931 1769 2642 2001 
Q 2353 2234 1838 2234 
L 1294 2234 
L 1294 2753 
L 1863 2753 
Q 2328 2753 2575 2939 
Q 2822 3125 2822 3475 
Q 2822 3834 2567 4026 
Q 2313 4219 1838 4219 
Q 1578 4219 1281 4162 
Q 984 4106 628 3988 
L 628 4550 
Q 988 4650 1302 4700 
Q 1616 4750 1894 4750 
Q 2613 4750 3031 4423 
Q 3450 4097 3450 3541 
Q 3450 3153 3228 2886 
Q 3006 2619 2597 2516 
z
" transform="scale(0.015625)"/>
       </defs>
       <use xlink:href="#DejaVuSans-33"/>
       <use xlink:href="#DejaVuSans-30" x="63.623047"/>
       <use xlink:href="#DejaVuSans-30" x="127.246094"/>
      </g>
     </g>
    </g>
    <g id="xtick_5">
     <g id="line2d_9">
      <path d="M 290.63042 307.584 
L 290.63042 41.472 
" clip-path="url(#p577e91c874)" style="fill: none; stroke: #b0b0b0; stroke-width: 0.8; stroke-linecap: square"/>
     </g>
     <g id="line2d_10">
      <g>
       <use xlink:href="#m93efaf340c" x="290.63042" y="307.584" style="stroke: #000000; stroke-width: 0.8"/>
      </g>
     </g>
     <g id="text_5">
      <!-- 400 -->
      <g transform="translate(281.08667 322.182437)scale(0.1 -0.1)">
       <defs>
        <path id="DejaVuSans-34" d="M 2419 4116 
L 825 1625 
L 2419 1625 
L 2419 4116 
z
M 2253 4666 
L 3047 4666 
L 3047 1625 
L 3713 1625 
L 3713 1100 
L 3047 1100 
L 3047 0 
L 2419 0 
L 2419 1100 
L 313 1100 
L 313 1709 
L 2253 4666 
z
" transform="scale(0.015625)"/>
       </defs>
       <use xlink:href="#DejaVuSans-34"/>
       <use xlink:href="#DejaVuSans-30" x="63.623047"/>
       <use xlink:href="#DejaVuSans-30" x="127.246094"/>
      </g>
     </g>
    </g>
    <g id="xtick_6">
     <g id="line2d_11">
      <path d="M 344.829844 307.584 
L 344.829844 41.472 
" clip-path="url(#p577e91c874)" style="fill: none; stroke: #b0b0b0; stroke-width: 0.8; stroke-linecap: square"/>
     </g>
     <g id="line2d_12">
      <g>
       <use xlink:href="#m93efaf340c" x="344.829844" y="307.584" style="stroke: #000000; stroke-width: 0.8"/>
      </g>
     </g>
     <g id="text_6">
      <!-- 500 -->
      <g transform="translate(335.286094 322.182437)scale(0.1 -0.1)">
       <defs>
        <path id="DejaVuSans-35" d="M 691 4666 
L 3169 4666 
L 3169 4134 
L 1269 4134 
L 1269 2991 
Q 1406 3038 1543 3061 
Q 1681 3084 1819 3084 
Q 2600 3084 3056 2656 
Q 3513 2228 3513 1497 
Q 3513 744 3044 326 
Q 2575 -91 1722 -91 
Q 1428 -91 1123 -41 
Q 819 9 494 109 
L 494 744 
Q 775 591 1075 516 
Q 1375 441 1709 441 
Q 2250 441 2565 725 
Q 2881 1009 2881 1497 
Q 2881 1984 2565 2268 
Q 2250 2553 1709 2553 
Q 1456 2553 1204 2497 
Q 953 2441 691 2322 
L 691 4666 
z
" transform="scale(0.015625)"/>
       </defs>
       <use xlink:href="#DejaVuSans-35"/>
       <use xlink:href="#DejaVuSans-30" x="63.623047"/>
       <use xlink:href="#DejaVuSans-30" x="127.246094"/>
      </g>
     </g>
    </g>
    <g id="xtick_7">
     <g id="line2d_13">
      <path d="M 399.029267 307.584 
L 399.029267 41.472 
" clip-path="url(#p577e91c874)" style="fill: none; stroke: #b0b0b0; stroke-width: 0.8; stroke-linecap: square"/>
     </g>
     <g id="line2d_14">
      <g>
       <use xlink:href="#m93efaf340c" x="399.029267" y="307.584" style="stroke: #000000; stroke-width: 0.8"/>
      </g>
     </g>
     <g id="text_7">
      <!-- 600 -->
      <g transform="translate(389.485517 322.182437)scale(0.1 -0.1)">
       <defs>
        <path id="DejaVuSans-36" d="M 2113 2584 
Q 1688 2584 1439 2293 
Q 1191 2003 1191 1497 
Q 1191 994 1439 701 
Q 1688 409 2113 409 
Q 2538 409 2786 701 
Q 3034 994 3034 1497 
Q 3034 2003 2786 2293 
Q 2538 2584 2113 2584 
z
M 3366 4563 
L 3366 3988 
Q 3128 4100 2886 4159 
Q 2644 4219 2406 4219 
Q 1781 4219 1451 3797 
Q 1122 3375 1075 2522 
Q 1259 2794 1537 2939 
Q 1816 3084 2150 3084 
Q 2853 3084 3261 2657 
Q 3669 2231 3669 1497 
Q 3669 778 3244 343 
Q 2819 -91 2113 -91 
Q 1303 -91 875 529 
Q 447 1150 447 2328 
Q 447 3434 972 4092 
Q 1497 4750 2381 4750 
Q 2619 4750 2861 4703 
Q 3103 4656 3366 4563 
z
" transform="scale(0.015625)"/>
       </defs>
       <use xlink:href="#DejaVuSans-36"/>
       <use xlink:href="#DejaVuSans-30" x="63.623047"/>
       <use xlink:href="#DejaVuSans-30" x="127.246094"/>
      </g>
     </g>
    </g>
    <g id="text_8">
     <!-- Generations -->
     <g transform="translate(205.662344 335.860562)scale(0.1 -0.1)">
      <defs>
       <path id="DejaVuSans-47" d="M 3809 666 
L 3809 1919 
L 2778 1919 
L 2778 2438 
L 4434 2438 
L 4434 434 
Q 4069 175 3628 42 
Q 3188 -91 2688 -91 
Q 1594 -91 976 548 
Q 359 1188 359 2328 
Q 359 3472 976 4111 
Q 1594 4750 2688 4750 
Q 3144 4750 3555 4637 
Q 3966 4525 4313 4306 
L 4313 3634 
Q 3963 3931 3569 4081 
Q 3175 4231 2741 4231 
Q 1884 4231 1454 3753 
Q 1025 3275 1025 2328 
Q 1025 1384 1454 906 
Q 1884 428 2741 428 
Q 3075 428 3337 486 
Q 3600 544 3809 666 
z
" transform="scale(0.015625)"/>
       <path id="DejaVuSans-65" d="M 3597 1894 
L 3597 1613 
L 953 1613 
Q 991 1019 1311 708 
Q 1631 397 2203 397 
Q 2534 397 2845 478 
Q 3156 559 3463 722 
L 3463 178 
Q 3153 47 2828 -22 
Q 2503 -91 2169 -91 
Q 1331 -91 842 396 
Q 353 884 353 1716 
Q 353 2575 817 3079 
Q 1281 3584 2069 3584 
Q 2775 3584 3186 3129 
Q 3597 2675 3597 1894 
z
M 3022 2063 
Q 3016 2534 2758 2815 
Q 2500 3097 2075 3097 
Q 1594 3097 1305 2825 
Q 1016 2553 972 2059 
L 3022 2063 
z
" transform="scale(0.015625)"/>
       <path id="DejaVuSans-6e" d="M 3513 2113 
L 3513 0 
L 2938 0 
L 2938 2094 
Q 2938 2591 2744 2837 
Q 2550 3084 2163 3084 
Q 1697 3084 1428 2787 
Q 1159 2491 1159 1978 
L 1159 0 
L 581 0 
L 581 3500 
L 1159 3500 
L 1159 2956 
Q 1366 3272 1645 3428 
Q 1925 3584 2291 3584 
Q 2894 3584 3203 3211 
Q 3513 2838 3513 2113 
z
" transform="scale(0.015625)"/>
       <path id="DejaVuSans-72" d="M 2631 2963 
Q 2534 3019 2420 3045 
Q 2306 3072 2169 3072 
Q 1681 3072 1420 2755 
Q 1159 2438 1159 1844 
L 1159 0 
L 581 0 
L 581 3500 
L 1159 3500 
L 1159 2956 
Q 1341 3275 1631 3429 
Q 1922 3584 2338 3584 
Q 2397 3584 2469 3576 
Q 2541 3569 2628 3553 
L 2631 2963 
z
" transform="scale(0.015625)"/>
       <path id="DejaVuSans-61" d="M 2194 1759 
Q 1497 1759 1228 1600 
Q 959 1441 959 1056 
Q 959 750 1161 570 
Q 1363 391 1709 391 
Q 2188 391 2477 730 
Q 2766 1069 2766 1631 
L 2766 1759 
L 2194 1759 
z
M 3341 1997 
L 3341 0 
L 2766 0 
L 2766 531 
Q 2569 213 2275 61 
Q 1981 -91 1556 -91 
Q 1019 -91 701 211 
Q 384 513 384 1019 
Q 384 1609 779 1909 
Q 1175 2209 1959 2209 
L 2766 2209 
L 2766 2266 
Q 2766 2663 2505 2880 
Q 2244 3097 1772 3097 
Q 1472 3097 1187 3025 
Q 903 2953 641 2809 
L 641 3341 
Q 956 3463 1253 3523 
Q 1550 3584 1831 3584 
Q 2591 3584 2966 3190 
Q 3341 2797 3341 1997 
z
" transform="scale(0.015625)"/>
       <path id="DejaVuSans-74" d="M 1172 4494 
L 1172 3500 
L 2356 3500 
L 2356 3053 
L 1172 3053 
L 1172 1153 
Q 1172 725 1289 603 
Q 1406 481 1766 481 
L 2356 481 
L 2356 0 
L 1766 0 
Q 1100 0 847 248 
Q 594 497 594 1153 
L 594 3053 
L 172 3053 
L 172 3500 
L 594 3500 
L 594 4494 
L 1172 4494 
z
" transform="scale(0.015625)"/>
       <path id="DejaVuSans-69" d="M 603 3500 
L 1178 3500 
L 1178 0 
L 603 0 
L 603 3500 
z
M 603 4863 
L 1178 4863 
L 1178 4134 
L 603 4134 
L 603 4863 
z
" transform="scale(0.015625)"/>
       <path id="DejaVuSans-6f" d="M 1959 3097 
Q 1497 3097 1228 2736 
Q 959 2375 959 1747 
Q 959 1119 1226 758 
Q 1494 397 1959 397 
Q 2419 397 2687 759 
Q 2956 1122 2956 1747 
Q 2956 2369 2687 2733 
Q 2419 3097 1959 3097 
z
M 1959 3584 
Q 2709 3584 3137 3096 
Q 3566 2609 3566 1747 
Q 3566 888 3137 398 
Q 2709 -91 1959 -91 
Q 1206 -91 779 398 
Q 353 888 353 1747 
Q 353 2609 779 3096 
Q 1206 3584 1959 3584 
z
" transform="scale(0.015625)"/>
       <path id="DejaVuSans-73" d="M 2834 3397 
L 2834 2853 
Q 2591 2978 2328 3040 
Q 2066 3103 1784 3103 
Q 1356 3103 1142 2972 
Q 928 2841 928 2578 
Q 928 2378 1081 2264 
Q 1234 2150 1697 2047 
L 1894 2003 
Q 2506 1872 2764 1633 
Q 3022 1394 3022 966 
Q 3022 478 2636 193 
Q 2250 -91 1575 -91 
Q 1294 -91 989 -36 
Q 684 19 347 128 
L 347 722 
Q 666 556 975 473 
Q 1284 391 1588 391 
Q 1994 391 2212 530 
Q 2431 669 2431 922 
Q 2431 1156 2273 1281 
Q 2116 1406 1581 1522 
L 1381 1569 
Q 847 1681 609 1914 
Q 372 2147 372 2553 
Q 372 3047 722 3315 
Q 1072 3584 1716 3584 
Q 2034 3584 2315 3537 
Q 2597 3491 2834 3397 
z
" transform="scale(0.015625)"/>
      </defs>
      <use xlink:href="#DejaVuSans-47"/>
      <use xlink:href="#DejaVuSans-65" x="77.490234"/>
      <use xlink:href="#DejaVuSans-6e" x="139.013672"/>
      <use xlink:href="#DejaVuSans-65" x="202.392578"/>
      <use xlink:href="#DejaVuSans-72" x="263.916016"/>
      <use xlink:href="#DejaVuSans-61" x="305.029297"/>
      <use xlink:href="#DejaVuSans-74" x="366.308594"/>
      <use xlink:href="#DejaVuSans-69" x="405.517578"/>
      <use xlink:href="#DejaVuSans-6f" x="433.300781"/>
      <use xlink:href="#DejaVuSans-6e" x="494.482422"/>
      <use xlink:href="#DejaVuSans-73" x="557.861328"/>
     </g>
    </g>
   </g>
   <g id="matplotlib.axis_2">
    <g id="ytick_1">
     <g id="line2d_15">
      <path d="M 57.6 293.917972 
L 414.72 293.917972 
" clip-path="url(#p577e91c874)" style="fill: none; stroke: #b0b0b0; stroke-width: 0.8; stroke-linecap: square"/>
     </g>
     <g id="line2d_16">
      <defs>
       <path id="m0f0fdaac96" d="M 0 0 
L -3.5 0 
" style="stroke: #000000; stroke-width: 0.8"/>
      </defs>
      <g>
       <use xlink:href="#m0f0fdaac96" x="57.6" y="293.917972" style="stroke: #000000; stroke-width: 0.8"/>
      </g>
     </g>
     <g id="text_9">
      <!-- 0 -->
      <g transform="translate(44.2375 297.717191)scale(0.1 -0.1)">
       <use xlink:href="#DejaVuSans-30"/>
      </g>
     </g>
    </g>
    <g id="ytick_2">
     <g id="line2d_17">
      <path d="M 57.6 259.084643 
L 414.72 259.084643 
" clip-path="url(#p577e91c874)" style="fill: none; stroke: #b0b0b0; stroke-width: 0.8; stroke-linecap: square"/>
     </g>
     <g id="line2d_18">
      <g>
       <use xlink:href="#m0f0fdaac96" x="57.6" y="259.084643" style="stroke: #000000; stroke-width: 0.8"/>
      </g>
     </g>
     <g id="text_10">
      <!-- 20 -->
      <g transform="translate(37.875 262.883862)scale(0.1 -0.1)">
       <use xlink:href="#DejaVuSans-32"/>
       <use xlink:href="#DejaVuSans-30" x="63.623047"/>
      </g>
     </g>
    </g>
    <g id="ytick_3">
     <g id="line2d_19">
      <path d="M 57.6 224.251313 
L 414.72 224.251313 
" clip-path="url(#p577e91c874)" style="fill: none; stroke: #b0b0b0; stroke-width: 0.8; stroke-linecap: square"/>
     </g>
     <g id="line2d_20">
      <g>
       <use xlink:href="#m0f0fdaac96" x="57.6" y="224.251313" style="stroke: #000000; stroke-width: 0.8"/>
      </g>
     </g>
     <g id="text_11">
      <!-- 40 -->
      <g transform="translate(37.875 228.050532)scale(0.1 -0.1)">
       <use xlink:href="#DejaVuSans-34"/>
       <use xlink:href="#DejaVuSans-30" x="63.623047"/>
      </g>
     </g>
    </g>
    <g id="ytick_4">
     <g id="line2d_21">
      <path d="M 57.6 189.417984 
L 414.72 189.417984 
" clip-path="url(#p577e91c874)" style="fill: none; stroke: #b0b0b0; stroke-width: 0.8; stroke-linecap: square"/>
     </g>
     <g id="line2d_22">
      <g>
       <use xlink:href="#m0f0fdaac96" x="57.6" y="189.417984" style="stroke: #000000; stroke-width: 0.8"/>
      </g>
     </g>
     <g id="text_12">
      <!-- 60 -->
      <g transform="translate(37.875 193.217203)scale(0.1 -0.1)">
       <use xlink:href="#DejaVuSans-36"/>
       <use xlink:href="#DejaVuSans-30" x="63.623047"/>
      </g>
     </g>
    </g>
    <g id="ytick_5">
     <g id="line2d_23">
      <path d="M 57.6 154.584655 
L 414.72 154.584655 
" clip-path="url(#p577e91c874)" style="fill: none; stroke: #b0b0b0; stroke-width: 0.8; stroke-linecap: square"/>
     </g>
     <g id="line2d_24">
      <g>
       <use xlink:href="#m0f0fdaac96" x="57.6" y="154.584655" style="stroke: #000000; stroke-width: 0.8"/>
      </g>
     </g>
     <g id="text_13">
      <!-- 80 -->
      <g transform="translate(37.875 158.383874)scale(0.1 -0.1)">
       <defs>
        <path id="DejaVuSans-38" d="M 2034 2216 
Q 1584 2216 1326 1975 
Q 1069 1734 1069 1313 
Q 1069 891 1326 650 
Q 1584 409 2034 409 
Q 2484 409 2743 651 
Q 3003 894 3003 1313 
Q 3003 1734 2745 1975 
Q 2488 2216 2034 2216 
z
M 1403 2484 
Q 997 2584 770 2862 
Q 544 3141 544 3541 
Q 544 4100 942 4425 
Q 1341 4750 2034 4750 
Q 2731 4750 3128 4425 
Q 3525 4100 3525 3541 
Q 3525 3141 3298 2862 
Q 3072 2584 2669 2484 
Q 3125 2378 3379 2068 
Q 3634 1759 3634 1313 
Q 3634 634 3220 271 
Q 2806 -91 2034 -91 
Q 1263 -91 848 271 
Q 434 634 434 1313 
Q 434 1759 690 2068 
Q 947 2378 1403 2484 
z
M 1172 3481 
Q 1172 3119 1398 2916 
Q 1625 2713 2034 2713 
Q 2441 2713 2670 2916 
Q 2900 3119 2900 3481 
Q 2900 3844 2670 4047 
Q 2441 4250 2034 4250 
Q 1625 4250 1398 4047 
Q 1172 3844 1172 3481 
z
" transform="scale(0.015625)"/>
       </defs>
       <use xlink:href="#DejaVuSans-38"/>
       <use xlink:href="#DejaVuSans-30" x="63.623047"/>
      </g>
     </g>
    </g>
    <g id="ytick_6">
     <g id="line2d_25">
      <path d="M 57.6 119.751326 
L 414.72 119.751326 
" clip-path="url(#p577e91c874)" style="fill: none; stroke: #b0b0b0; stroke-width: 0.8; stroke-linecap: square"/>
     </g>
     <g id="line2d_26">
      <g>
       <use xlink:href="#m0f0fdaac96" x="57.6" y="119.751326" style="stroke: #000000; stroke-width: 0.8"/>
      </g>
     </g>
     <g id="text_14">
      <!-- 100 -->
      <g transform="translate(31.5125 123.550544)scale(0.1 -0.1)">
       <use xlink:href="#DejaVuSans-31"/>
       <use xlink:href="#DejaVuSans-30" x="63.623047"/>
       <use xlink:href="#DejaVuSans-30" x="127.246094"/>
      </g>
     </g>
    </g>
    <g id="ytick_7">
     <g id="line2d_27">
      <path d="M 57.6 84.917996 
L 414.72 84.917996 
" clip-path="url(#p577e91c874)" style="fill: none; stroke: #b0b0b0; stroke-width: 0.8; stroke-linecap: square"/>
     </g>
     <g id="line2d_28">
      <g>
       <use xlink:href="#m0f0fdaac96" x="57.6" y="84.917996" style="stroke: #000000; stroke-width: 0.8"/>
      </g>
     </g>
     <g id="text_15">
      <!-- 120 -->
      <g transform="translate(31.5125 88.717215)scale(0.1 -0.1)">
       <use xlink:href="#DejaVuSans-31"/>
       <use xlink:href="#DejaVuSans-32" x="63.623047"/>
       <use xlink:href="#DejaVuSans-30" x="127.246094"/>
      </g>
     </g>
    </g>
    <g id="ytick_8">
     <g id="line2d_29">
      <path d="M 57.6 50.084667 
L 414.72 50.084667 
" clip-path="url(#p577e91c874)" style="fill: none; stroke: #b0b0b0; stroke-width: 0.8; stroke-linecap: square"/>
     </g>
     <g id="line2d_30">
      <g>
       <use xlink:href="#m0f0fdaac96" x="57.6" y="50.084667" style="stroke: #000000; stroke-width: 0.8"/>
      </g>
     </g>
     <g id="text_16">
      <!-- 140 -->
      <g transform="translate(31.5125 53.883886)scale(0.1 -0.1)">
       <use xlink:href="#DejaVuSans-31"/>
       <use xlink:href="#DejaVuSans-34" x="63.623047"/>
       <use xlink:href="#DejaVuSans-30" x="127.246094"/>
      </g>
     </g>
    </g>
    <g id="text_17">
     <!-- Fitness -->
     <g transform="translate(25.432812 191.845187)rotate(-90)scale(0.1 -0.1)">
      <defs>
       <path id="DejaVuSans-46" d="M 628 4666 
L 3309 4666 
L 3309 4134 
L 1259 4134 
L 1259 2759 
L 3109 2759 
L 3109 2228 
L 1259 2228 
L 1259 0 
L 628 0 
L 628 4666 
z
" transform="scale(0.015625)"/>
      </defs>
      <use xlink:href="#DejaVuSans-46"/>
      <use xlink:href="#DejaVuSans-69" x="50.269531"/>
      <use xlink:href="#DejaVuSans-74" x="78.052734"/>
      <use xlink:href="#DejaVuSans-6e" x="117.261719"/>
      <use xlink:href="#DejaVuSans-65" x="180.640625"/>
      <use xlink:href="#DejaVuSans-73" x="242.164062"/>
      <use xlink:href="#DejaVuSans-73" x="294.263672"/>
     </g>
    </g>
   </g>
   <g id="line2d_31">
    <path d="M 73.832727 280.913529 
L 74.374722 278.846752 
L 74.916716 279.322807 
L 75.45871 276.721918 
L 76.000704 278.591307 
L 76.542698 274.12103 
L 77.084693 275.258919 
L 77.626687 273.958474 
L 78.168681 275.920752 
L 78.710675 276.721918 
L 79.25267 270.707364 
L 80.336658 270.486753 
L 80.878652 269.62753 
L 81.420647 269.720419 
L 81.962641 271.798808 
L 82.504635 267.676864 
L 83.046629 267.723308 
L 83.588623 267.898176 
L 84.130618 266.782809 
L 84.672612 267.954454 
L 85.214606 264.321331 
L 85.7566 267.781286 
L 86.298595 268.061823 
L 86.840589 265.162942 
L 87.382583 260.489587 
L 87.924577 264.112253 
L 88.466572 262.50992 
L 89.008566 262.240683 
L 89.55056 260.592528 
L 90.092554 259.306734 
L 90.634548 259.92664 
L 91.176543 261.801642 
L 91.718537 264.344709 
L 92.260531 264.147087 
L 93.34452 254.816983 
L 93.886514 255.984476 
L 94.428508 260.710967 
L 94.970502 256.201089 
L 95.512497 257.923532 
L 96.054491 258.620198 
L 96.596485 259.645717 
L 97.138479 261.279143 
L 97.680474 258.585365 
L 98.222468 261.279143 
L 98.764462 257.702921 
L 99.306456 257.052699 
L 99.84845 258.771143 
L 100.390445 255.70581 
L 100.932439 256.22831 
L 101.474433 255.38216 
L 102.016427 253.602485 
L 102.558422 249.575144 
L 103.100416 250.843872 
L 103.64241 248.237217 
L 104.184404 249.616523 
L 104.726399 251.737348 
L 105.268393 251.748882 
L 105.810387 251.549033 
L 106.352381 253.731921 
L 106.894375 249.493866 
L 107.43637 250.691914 
L 107.978364 249.574227 
L 108.520358 246.649144 
L 109.062352 250.633469 
L 109.604347 251.870849 
L 110.146341 250.785427 
L 110.688335 252.106366 
L 111.230329 254.055725 
L 111.772324 255.102032 
L 112.314318 252.176422 
L 112.856312 250.306176 
L 113.398306 247.276144 
L 113.940301 258.887254 
L 114.482295 252.698532 
L 115.024289 252.953977 
L 115.566283 252.861088 
L 116.108277 255.171699 
L 116.650272 248.552821 
L 117.192266 248.367588 
L 117.73426 245.290644 
L 118.276254 245.708644 
L 118.818249 248.460477 
L 119.360243 247.296675 
L 119.902237 244.770682 
L 120.444231 249.923477 
L 120.986226 245.220978 
L 121.52822 245.820296 
L 122.612208 244.932161 
L 123.154202 243.686466 
L 123.696197 244.43619 
L 124.238191 245.866432 
L 124.780185 243.0497 
L 125.322179 243.432867 
L 125.864174 242.933589 
L 126.406168 244.356457 
L 126.948162 246.788478 
L 127.490156 243.175864 
L 128.032151 243.769589 
L 128.574145 246.277589 
L 129.116139 247.403866 
L 129.658133 245.302255 
L 130.200127 241.540256 
L 130.742122 247.519977 
L 131.284116 247.357422 
L 131.82611 245.813144 
L 132.368104 245.4532 
L 132.910099 246.1847 
L 133.452093 245.813144 
L 133.994087 247.6477 
L 134.536081 244.9307 
L 135.62007 244.373367 
L 136.162064 244.477867 
L 137.246053 243.096145 
L 137.788047 245.209367 
L 138.330041 246.010533 
L 138.872035 243.084534 
L 139.414029 245.023589 
L 139.956024 245.418367 
L 140.498018 243.620047 
L 141.040012 243.666803 
L 141.582006 241.249978 
L 142.124001 244.117922 
L 142.665995 244.707128 
L 143.207989 250.144088 
L 143.749983 248.123755 
L 144.291978 241.656367 
L 144.833972 246.3937 
L 145.375966 244.884256 
L 145.91796 248.6927 
L 146.459954 247.262072 
L 147.001949 250.353088 
L 147.543943 247.781344 
L 148.085937 243.014867 
L 148.627931 247.566422 
L 149.169926 246.567866 
L 149.71192 248.390811 
L 150.253914 241.784089 
L 150.795908 245.940867 
L 151.337903 244.824018 
L 151.879897 242.544578 
L 152.421891 251.217921 
L 152.963885 249.679644 
L 153.505879 250.538866 
L 154.047874 249.586755 
L 154.589868 249.006199 
L 155.131862 248.112144 
L 155.673856 242.948276 
L 156.215851 248.263088 
L 156.757845 245.5577 
L 157.299839 241.876978 
L 157.841833 242.00247 
L 158.383828 237.824701 
L 158.925822 236.304568 
L 159.467816 245.093256 
L 160.551805 237.389791 
L 161.093799 236.675201 
L 161.635793 239.972756 
L 162.177787 236.627526 
L 162.719781 240.171781 
L 163.261776 232.959646 
L 163.80377 236.710034 
L 164.345764 239.310923 
L 164.887758 231.87543 
L 165.429753 233.00609 
L 165.971747 229.02348 
L 166.513741 228.115276 
L 167.055735 228.582257 
L 167.59773 234.283312 
L 168.139724 233.586646 
L 168.681718 235.154146 
L 169.223712 234.736146 
L 169.765706 239.188122 
L 170.307701 234.329757 
L 170.849695 233.040924 
L 171.391689 235.854734 
L 171.933683 235.889336 
L 172.475678 231.56865 
L 173.017672 232.506813 
L 173.559666 230.950924 
L 174.10166 226.61998 
L 174.643655 225.957913 
L 175.185649 232.153102 
L 175.727643 235.484478 
L 176.269637 229.153355 
L 176.811632 221.010199 
L 177.353626 224.401258 
L 177.89562 226.339006 
L 178.437614 229.395035 
L 178.979608 225.537108 
L 179.521603 226.236813 
L 180.063597 226.178758 
L 180.605591 224.262925 
L 181.147585 225.373461 
L 181.68958 229.254221 
L 182.231574 235.874034 
L 182.773568 225.307924 
L 183.315562 230.950924 
L 183.857557 225.47048 
L 184.399551 229.371112 
L 184.941545 227.885591 
L 185.483539 222.602536 
L 186.025533 214.254148 
L 186.567528 222.811536 
L 187.109522 228.454535 
L 187.651516 222.428369 
L 188.19351 218.585092 
L 188.735505 223.020536 
L 189.277499 223.043758 
L 189.819493 222.486425 
L 190.361487 218.225148 
L 190.903482 215.127749 
L 191.98747 219.757814 
L 192.529464 218.334261 
L 193.071458 216.36191 
L 193.613453 222.68266 
L 194.155447 216.6618 
L 194.697441 220.222258 
L 195.239435 220.664173 
L 195.78143 219.258536 
L 196.323424 219.827481 
L 196.865418 213.278815 
L 197.407412 220.510822 
L 197.949407 220.019882 
L 198.491401 219.178272 
L 199.033395 226.875424 
L 199.575389 223.055369 
L 200.117384 218.334261 
L 200.659378 222.823147 
L 201.201372 224.032163 
L 201.743366 232.302196 
L 202.28536 236.640368 
L 202.827355 231.12509 
L 203.369349 238.784424 
L 203.911343 237.307967 
L 204.453337 236.66507 
L 204.995332 234.794825 
L 205.537326 234.306535 
L 206.07932 235.670186 
L 206.621314 241.935034 
L 207.163309 235.566301 
L 207.705303 233.94659 
L 208.247297 236.582312 
L 208.789291 234.609039 
L 209.331285 239.845034 
L 209.87328 240.410749 
L 210.957268 231.884254 
L 211.499262 235.765015 
L 212.041257 238.277534 
L 212.583251 237.371868 
L 213.125245 229.557052 
L 213.667239 229.067197 
L 214.209234 228.899602 
L 215.293222 231.64759 
L 215.835216 229.627257 
L 216.377211 226.729389 
L 216.919205 226.627362 
L 217.461199 228.571105 
L 218.003193 226.86958 
L 218.545187 230.947315 
L 219.087182 224.004185 
L 219.629176 227.722957 
L 220.17117 228.245535 
L 220.713164 229.696924 
L 221.255159 230.521313 
L 221.797153 229.360971 
L 222.339147 221.317365 
L 222.881141 218.780844 
L 223.96513 227.490813 
L 224.507124 217.482036 
L 225.049118 223.900642 
L 225.591112 225.805955 
L 226.133107 226.004669 
L 227.759089 231.194757 
L 228.301084 229.791917 
L 228.843078 229.035091 
L 229.385072 223.868147 
L 229.927066 223.853886 
L 230.469061 226.039117 
L 231.011055 231.810146 
L 231.553049 219.467536 
L 232.095043 216.378981 
L 232.637037 221.829128 
L 233.179032 222.02521 
L 233.721026 227.676975 
L 234.26302 223.916821 
L 234.805014 226.132313 
L 235.347009 224.742253 
L 235.889003 229.649326 
L 236.430997 229.187957 
L 236.972991 227.324843 
L 237.514986 223.112969 
L 238.05698 226.073719 
L 238.598974 227.24698 
L 239.140968 217.737481 
L 239.682963 217.904167 
L 240.224957 223.222678 
L 240.766951 219.973126 
L 241.308945 222.881203 
L 241.850939 222.509647 
L 242.392934 224.847147 
L 242.934928 223.345647 
L 243.476922 222.391967 
L 244.018916 227.014758 
L 244.560911 221.371758 
L 245.102905 224.940967 
L 245.644899 220.942147 
L 246.186893 218.543825 
L 246.728888 222.062462 
L 247.270882 224.62789 
L 248.35487 231.441572 
L 249.438859 225.122147 
L 249.980853 235.084479 
L 250.522847 230.300702 
L 251.064841 227.746181 
L 251.606836 231.194757 
L 252.14883 230.224411 
L 252.690824 240.994534 
L 253.232818 242.271756 
L 253.774813 242.345942 
L 254.316807 237.693706 
L 254.858801 234.747757 
L 255.400795 238.718756 
L 255.942789 235.072868 
L 256.484784 238.266468 
L 257.026778 230.428424 
L 257.568772 230.080091 
L 258.110766 235.185749 
L 258.652761 235.174215 
L 259.194755 234.109146 
L 259.736749 229.780228 
L 260.278743 234.643257 
L 260.820738 233.412479 
L 261.362732 234.225257 
L 261.904726 240.872117 
L 262.44672 239.983983 
L 262.988715 239.43034 
L 263.530709 233.830479 
L 264.072703 240.599756 
L 264.614697 236.094645 
L 265.156691 253.743532 
L 265.698686 247.670922 
L 266.24068 243.023906 
L 266.782674 243.245998 
L 267.324668 244.227877 
L 267.866663 241.434197 
L 268.408657 232.831924 
L 268.950651 232.704201 
L 269.492645 237.123497 
L 270.03464 231.506335 
L 270.576634 230.828396 
L 271.118628 230.985757 
L 271.660622 230.300702 
L 272.202616 230.756611 
L 272.744611 230.823202 
L 273.828599 240.611367 
L 274.370593 243.1542 
L 274.912588 240.204978 
L 275.454582 239.026643 
L 275.996576 235.525701 
L 276.53857 234.829034 
L 277.080565 227.220329 
L 277.622559 224.077147 
L 278.164553 222.521336 
L 279.248542 235.566301 
L 279.790536 229.254221 
L 280.33253 233.403829 
L 280.874524 231.194601 
L 281.416518 223.986027 
L 281.958513 230.745077 
L 282.500507 231.956169 
L 283.042501 231.206368 
L 283.584495 235.595368 
L 284.12649 220.814425 
L 284.668484 221.247231 
L 285.210478 231.508257 
L 285.752472 233.351809 
L 286.294467 234.724534 
L 286.836461 233.087368 
L 287.378455 236.222368 
L 287.920449 227.492428 
L 288.462443 216.913092 
L 289.004438 225.02279 
L 289.546432 223.08628 
L 290.088426 231.241202 
L 290.63042 225.889172 
L 291.172415 226.359647 
L 291.714409 229.865896 
L 292.256403 227.494021 
L 292.798397 223.008925 
L 293.340392 224.228091 
L 293.882386 223.167097 
L 294.42438 231.183146 
L 294.966374 222.322622 
L 295.508368 225.93414 
L 296.050363 224.496783 
L 296.592357 228.70352 
L 297.134351 225.220188 
L 297.676345 228.78666 
L 298.21834 229.252721 
L 299.302328 241.518033 
L 299.844322 235.905283 
L 300.386317 242.290826 
L 300.928311 243.47885 
L 301.470305 239.799435 
L 302.012299 244.753884 
L 302.554294 236.651979 
L 303.096288 242.2137 
L 303.638282 235.683191 
L 304.180276 237.487979 
L 304.72227 240.239812 
L 305.806259 232.773868 
L 306.348253 233.05192 
L 306.890247 237.953961 
L 307.432242 231.136702 
L 307.974236 240.076256 
L 308.51623 243.008603 
L 309.058224 234.930479 
L 309.600219 239.517195 
L 310.142213 240.008135 
L 310.684207 244.064231 
L 311.226201 243.879436 
L 311.768195 238.85092 
L 312.31019 231.638785 
L 312.852184 230.282856 
L 313.394178 231.895943 
L 313.936172 234.537666 
L 314.478167 240.924867 
L 315.020161 236.101706 
L 315.562155 236.605534 
L 316.104149 230.834813 
L 316.646144 232.936424 
L 317.188138 230.416813 
L 317.730132 227.031059 
L 318.272126 233.05192 
L 318.814121 231.101868 
L 319.356115 232.613619 
L 319.898109 233.772423 
L 320.440103 226.387758 
L 320.982097 238.804164 
L 321.524092 238.428478 
L 322.066086 238.406737 
L 322.60808 238.904534 
L 323.150074 233.725979 
L 323.692069 223.701929 
L 324.234063 220.838115 
L 325.318051 229.580121 
L 325.860046 234.268818 
L 326.40204 236.97709 
L 326.944034 224.669313 
L 327.486028 230.700187 
L 328.028022 233.871947 
L 328.570017 235.625462 
L 329.112011 228.687856 
L 329.654005 237.892419 
L 330.195999 227.571 
L 330.737994 235.807506 
L 331.279988 234.644021 
L 331.821982 232.123646 
L 332.363976 236.650595 
L 332.905971 236.030479 
L 333.447965 236.892813 
L 333.989959 243.692077 
L 334.531953 237.902213 
L 335.073947 241.6446 
L 335.615942 238.288453 
L 336.157936 238.254312 
L 336.69993 240.4372 
L 337.241924 236.085418 
L 337.783919 239.450256 
L 338.325913 241.749256 
L 338.867907 241.010528 
L 339.951896 245.451201 
L 340.49389 246.194019 
L 341.035884 236.293034 
L 341.577878 239.21328 
L 342.119873 241.013392 
L 342.661867 247.531589 
L 343.203861 245.958706 
L 343.745855 239.80027 
L 344.287849 247.496755 
L 344.829844 244.566859 
L 345.371838 243.955367 
L 345.913832 241.022062 
L 346.455826 245.093256 
L 346.997821 245.969544 
L 347.539815 243.155892 
L 348.081809 244.152756 
L 348.623803 243.223867 
L 349.165798 246.612441 
L 349.707792 245.522867 
L 350.249786 240.657812 
L 350.79178 242.310875 
L 351.333774 249.047144 
L 351.875769 249.148962 
L 352.417763 248.205033 
L 352.959757 246.102353 
L 353.501751 248.127139 
L 354.043746 243.836411 
L 354.58574 243.559589 
L 355.127734 245.428132 
L 355.669728 249.575144 
L 356.211723 248.309533 
L 356.753717 250.260199 
L 357.295711 250.249434 
L 357.837705 249.873682 
L 358.379699 247.833477 
L 358.921694 248.485686 
L 359.463688 250.86725 
L 360.005682 245.569311 
L 360.547676 242.96246 
L 361.089671 242.96246 
L 361.631665 243.646606 
L 362.173659 239.786978 
L 362.715653 242.863922 
L 363.257648 239.435372 
L 363.799642 240.170145 
L 364.341636 242.626479 
L 364.88363 243.536521 
L 365.425625 236.174131 
L 365.967619 235.174215 
L 366.509613 238.382034 
L 367.051607 236.837756 
L 367.593601 240.820367 
L 368.135596 246.533033 
L 368.67759 240.8552 
L 369.219584 237.413169 
L 369.761578 239.392201 
L 370.303573 239.575641 
L 370.845567 240.588145 
L 371.387561 239.384204 
L 371.929555 239.926312 
L 372.47155 243.235478 
L 373.013544 243.61726 
L 373.555538 254.266032 
L 374.097532 250.282798 
L 374.639526 252.80763 
L 375.181521 253.098385 
L 375.723515 248.460477 
L 376.265509 250.575024 
L 376.807503 250.10131 
L 377.349498 248.91923 
L 378.97548 242.738022 
L 379.517475 245.128394 
L 380.059469 241.609923 
L 381.143457 250.710329 
L 381.685452 248.895302 
L 382.227446 244.733311 
L 382.76944 246.730422 
L 383.311434 249.658461 
L 383.853428 246.811154 
L 384.395423 251.139781 
L 384.937417 250.987624 
L 385.479411 247.8281 
L 386.021405 248.088922 
L 386.5634 254.055725 
L 387.105394 255.507798 
L 387.647388 252.376873 
L 388.189382 252.32838 
L 388.731377 254.677876 
L 389.273371 251.10781 
L 389.815365 248.554436 
L 390.357359 249.575144 
L 390.899353 248.123755 
L 391.441348 251.841156 
L 391.983342 249.347675 
L 392.525336 249.752606 
L 393.06733 247.746277 
L 394.151319 244.765573 
L 394.693313 246.811154 
L 395.235307 245.724074 
L 395.777302 248.207878 
L 396.319296 245.151311 
L 396.86129 248.309533 
L 397.403284 249.032071 
L 397.945278 248.181811 
L 398.487273 246.716457 
L 398.487273 246.716457 
" clip-path="url(#p577e91c874)" style="fill: none; stroke: #0000ff; stroke-width: 1.5; stroke-linecap: square"/>
   </g>
   <g id="line2d_32">
    <path d="M 73.832727 293.26286 
L 74.374722 291.903423 
L 74.916716 293.102416 
L 75.45871 289.810009 
L 77.084693 293.65841 
L 77.626687 292.629951 
L 78.168681 292.506766 
L 78.710675 294.164453 
L 79.25267 292.953926 
L 79.794664 292.246234 
L 80.336658 288.915073 
L 80.878652 291.439228 
L 81.420647 290.617656 
L 81.962641 291.658643 
L 83.046629 291.554567 
L 83.588623 290.960098 
L 84.130618 290.979038 
L 84.672612 290.227438 
L 85.214606 289.805704 
L 85.7566 291.607615 
L 86.298595 290.672197 
L 86.840589 292.694169 
L 87.382583 291.185569 
L 87.924577 290.18963 
L 88.466572 290.235745 
L 89.008566 289.665778 
L 89.55056 289.587471 
L 90.092554 287.787815 
L 90.634548 290.905897 
L 91.176543 290.275256 
L 91.718537 293.368293 
L 92.260531 291.383503 
L 92.802525 290.533215 
L 93.34452 285.241929 
L 93.886514 285.697715 
L 94.428508 290.592933 
L 94.970502 285.196197 
L 95.512497 288.212286 
L 96.054491 288.712692 
L 96.596485 289.499031 
L 97.138479 294.216709 
L 97.680474 290.903698 
L 98.222468 295.025209 
L 98.764462 290.296629 
L 99.306456 291.681313 
L 99.84845 295.488 
L 100.390445 293.238745 
L 100.932439 294.177609 
L 101.474433 291.553874 
L 102.016427 290.689261 
L 102.558422 287.666644 
L 103.100416 287.598843 
L 103.64241 286.762186 
L 104.184404 289.420863 
L 104.726399 294.939221 
L 105.268393 287.106878 
L 105.810387 286.469045 
L 106.352381 291.942933 
L 106.894375 285.058989 
L 107.43637 287.514079 
L 107.978364 287.982905 
L 108.520358 285.514477 
L 109.062352 289.293092 
L 109.604347 289.325166 
L 110.146341 288.935631 
L 110.688335 287.957346 
L 111.230329 286.631023 
L 112.314318 282.37293 
L 112.856312 279.364397 
L 113.398306 280.367116 
L 113.940301 286.250482 
L 114.482295 279.320911 
L 115.024289 281.968781 
L 115.566283 281.713478 
L 116.108277 283.793687 
L 116.650272 278.616164 
L 117.192266 277.567904 
L 117.73426 274.187979 
L 118.276254 274.471864 
L 118.818249 278.724574 
L 119.360243 276.04645 
L 119.902237 275.367609 
L 120.444231 279.549853 
L 120.986226 274.117165 
L 121.52822 276.795666 
L 122.070214 274.610203 
L 122.612208 275.118883 
L 123.154202 274.570407 
L 123.696197 274.508209 
L 124.238191 274.877627 
L 124.780185 272.778878 
L 125.322179 273.732515 
L 125.864174 271.267954 
L 126.406168 272.135668 
L 126.948162 276.310781 
L 127.490156 270.775806 
L 128.032151 270.136752 
L 128.574145 275.868248 
L 129.116139 274.357562 
L 130.200127 265.507086 
L 130.742122 273.996577 
L 131.284116 272.060996 
L 131.82611 271.830843 
L 132.368104 271.062012 
L 132.910099 270.789376 
L 133.452093 269.878135 
L 133.994087 273.842592 
L 134.536081 269.219546 
L 135.078076 268.33565 
L 135.62007 270.213137 
L 136.162064 267.492293 
L 136.704058 269.227302 
L 137.246053 269.133579 
L 137.788047 275.177785 
L 138.330041 275.570841 
L 138.872035 270.721209 
L 139.956024 273.347903 
L 140.498018 272.664276 
L 141.040012 273.408826 
L 141.582006 268.433875 
L 142.124001 274.826024 
L 142.665995 274.573319 
L 143.207989 281.061271 
L 143.749983 277.886416 
L 144.291978 269.853079 
L 144.833972 279.112524 
L 145.375966 276.720557 
L 145.91796 281.788894 
L 146.459954 279.038251 
L 147.001949 281.440728 
L 147.543943 280.212517 
L 148.085937 273.97093 
L 148.627931 279.271632 
L 149.169926 279.469162 
L 149.71192 280.084055 
L 150.253914 274.183871 
L 150.795908 275.791076 
L 151.337903 275.672154 
L 151.879897 274.866874 
L 152.421891 283.369793 
L 152.963885 281.316669 
L 153.505879 280.99121 
L 154.047874 282.198011 
L 154.589868 280.430668 
L 155.131862 280.52945 
L 155.673856 276.702415 
L 156.215851 278.096357 
L 156.757845 273.596847 
L 157.299839 274.556582 
L 157.841833 274.923238 
L 158.383828 272.953036 
L 158.925822 272.158445 
L 159.467816 280.206689 
L 160.00981 276.357382 
L 160.551805 269.163882 
L 161.093799 271.950242 
L 161.635793 278.660207 
L 162.177787 274.238909 
L 162.719781 278.281211 
L 163.261776 273.707197 
L 163.80377 278.058989 
L 164.345764 279.956675 
L 164.887758 272.7028 
L 165.429753 271.763522 
L 165.971747 272.418329 
L 166.513741 270.073516 
L 167.055735 269.411485 
L 167.59773 277.264818 
L 168.139724 272.230861 
L 168.681718 276.745311 
L 169.223712 274.424476 
L 169.765706 280.693648 
L 170.307701 275.625785 
L 170.849695 275.854442 
L 171.391689 278.807577 
L 171.933683 276.935879 
L 172.475678 273.199778 
L 173.017672 275.323681 
L 174.10166 270.821393 
L 174.643655 269.72481 
L 175.185649 275.368127 
L 175.727643 276.462263 
L 176.269637 272.62525 
L 176.811632 263.636828 
L 177.353626 270.122517 
L 177.89562 270.122914 
L 178.437614 273.152748 
L 178.979608 270.115584 
L 179.521603 273.586243 
L 180.605591 268.682134 
L 181.147585 270.16092 
L 181.68958 273.472696 
L 182.231574 280.259541 
L 182.773568 267.087061 
L 183.315562 277.2158 
L 183.857557 268.568074 
L 184.399551 272.868205 
L 185.483539 267.178214 
L 186.025533 258.497701 
L 186.567528 266.919273 
L 187.109522 273.345038 
L 187.651516 264.200942 
L 188.19351 262.652666 
L 188.735505 266.011858 
L 189.277499 268.061461 
L 189.819493 266.523609 
L 190.903482 259.187312 
L 191.98747 263.691683 
L 192.529464 262.139755 
L 193.071458 261.291982 
L 193.613453 268.293861 
L 194.155447 261.690814 
L 194.697441 265.900932 
L 195.239435 266.465017 
L 195.78143 261.446989 
L 196.323424 264.335439 
L 196.865418 254.311111 
L 197.407412 265.284324 
L 197.949407 262.895199 
L 198.491401 261.702524 
L 199.033395 269.354831 
L 200.117384 261.398362 
L 200.659378 266.284418 
L 201.201372 268.455255 
L 201.743366 274.5709 
L 202.28536 278.337447 
L 202.827355 275.429099 
L 203.369349 279.010174 
L 203.911343 277.229924 
L 204.453337 276.156685 
L 204.995332 277.299373 
L 205.537326 272.934454 
L 206.07932 272.760122 
L 206.621314 276.040721 
L 207.163309 271.10644 
L 207.705303 269.313666 
L 208.247297 273.129386 
L 208.789291 271.918307 
L 209.331285 273.739335 
L 209.87328 276.165673 
L 210.415274 273.286572 
L 210.957268 267.174894 
L 211.499262 273.158117 
L 212.583251 275.027146 
L 213.125245 267.320449 
L 213.667239 267.427078 
L 214.209234 270.638865 
L 214.751228 271.156291 
L 215.293222 272.698703 
L 215.835216 269.730963 
L 216.377211 267.388342 
L 216.919205 269.91916 
L 217.461199 269.89138 
L 218.003193 269.448978 
L 218.545187 273.924555 
L 219.087182 265.715832 
L 219.629176 269.400768 
L 220.17117 269.724287 
L 220.713164 273.731496 
L 221.255159 272.950824 
L 221.797153 272.412283 
L 222.339147 262.401158 
L 222.881141 262.654388 
L 223.423136 267.287299 
L 223.96513 270.510106 
L 224.507124 261.318337 
L 225.049118 269.879955 
L 225.591112 268.625627 
L 226.133107 269.573439 
L 226.675101 269.013717 
L 227.217095 272.995525 
L 227.759089 274.338891 
L 228.301084 273.553969 
L 228.843078 274.066825 
L 229.385072 269.100925 
L 229.927066 269.430791 
L 230.469061 270.97998 
L 231.011055 276.434813 
L 231.553049 265.699377 
L 232.095043 262.459899 
L 232.637037 267.479607 
L 233.179032 266.773543 
L 233.721026 272.325202 
L 234.26302 268.881266 
L 234.805014 272.289879 
L 235.347009 273.484311 
L 236.430997 274.828075 
L 236.972991 275.744196 
L 237.514986 268.167754 
L 238.05698 272.214587 
L 238.598974 274.088902 
L 239.140968 260.562851 
L 239.682963 262.386946 
L 240.224957 270.87022 
L 240.766951 269.318089 
L 241.308945 269.231607 
L 241.850939 268.843649 
L 242.392934 271.087319 
L 242.934928 269.64154 
L 243.476922 267.076903 
L 244.018916 273.188823 
L 244.560911 269.274019 
L 245.102905 273.066705 
L 245.644899 264.544493 
L 246.186893 265.145806 
L 246.728888 271.404099 
L 247.270882 272.659197 
L 247.812876 272.66699 
L 248.35487 278.92817 
L 248.896864 273.243893 
L 249.438859 269.180801 
L 249.980853 281.355969 
L 250.522847 274.017893 
L 251.064841 273.070524 
L 251.606836 278.71938 
L 252.14883 276.759269 
L 252.690824 284.463582 
L 253.232818 285.981217 
L 253.774813 284.565953 
L 254.316807 281.240314 
L 254.858801 279.359333 
L 255.400795 284.595695 
L 255.942789 279.257032 
L 256.484784 281.86786 
L 257.026778 275.108686 
L 257.568772 275.954402 
L 258.110766 276.408488 
L 258.652761 274.248285 
L 259.194755 276.278019 
L 259.736749 272.260316 
L 260.278743 278.935684 
L 260.820738 275.015798 
L 261.362732 277.140002 
L 261.904726 282.596464 
L 262.44672 281.872514 
L 262.988715 282.200155 
L 263.530709 277.440379 
L 264.072703 282.458147 
L 264.614697 278.312966 
L 265.156691 288.183736 
L 265.698686 284.470559 
L 266.24068 279.915002 
L 267.324668 283.092952 
L 267.866663 283.616554 
L 268.408657 274.842371 
L 268.950651 274.199936 
L 269.492645 277.693819 
L 270.03464 272.217264 
L 270.576634 276.184469 
L 271.118628 274.696458 
L 271.660622 273.638784 
L 272.202616 276.01762 
L 272.744611 276.069067 
L 273.286605 278.171314 
L 273.828599 284.100002 
L 274.370593 286.62911 
L 274.912588 287.100386 
L 275.454582 285.688985 
L 275.996576 280.710539 
L 276.53857 281.142124 
L 277.080565 272.993522 
L 277.622559 269.857803 
L 278.164553 269.340237 
L 278.706547 276.087514 
L 279.248542 281.41776 
L 279.790536 277.550336 
L 280.33253 281.027498 
L 280.874524 279.384668 
L 281.416518 270.646601 
L 281.958513 279.452768 
L 282.500507 280.307659 
L 283.042501 278.344112 
L 283.584495 282.063054 
L 284.12649 265.805167 
L 284.668484 269.212392 
L 285.210478 278.722269 
L 285.752472 277.701068 
L 286.294467 282.685019 
L 286.836461 279.007111 
L 287.378455 279.278907 
L 287.920449 269.745112 
L 288.462443 257.575981 
L 289.004438 272.631164 
L 289.546432 270.316283 
L 290.088426 279.819643 
L 290.63042 274.639448 
L 291.172415 272.561187 
L 291.714409 280.690981 
L 292.256403 275.563306 
L 292.798397 271.635361 
L 293.340392 271.152343 
L 293.882386 271.265861 
L 294.42438 278.325168 
L 294.966374 269.261663 
L 295.508368 274.673229 
L 296.050363 271.435338 
L 296.592357 277.316962 
L 297.134351 273.449456 
L 297.676345 274.406737 
L 298.21834 276.7078 
L 298.760334 279.679611 
L 299.302328 281.362378 
L 299.844322 275.433281 
L 300.386317 284.862424 
L 300.928311 284.734091 
L 301.470305 279.740042 
L 302.012299 284.625066 
L 302.554294 277.358277 
L 303.096288 283.24323 
L 303.638282 279.424894 
L 304.180276 283.043795 
L 305.264265 280.100488 
L 305.806259 275.373737 
L 306.348253 275.805955 
L 306.890247 282.480656 
L 307.432242 275.409455 
L 307.974236 284.522692 
L 308.51623 285.94308 
L 309.058224 279.762784 
L 310.142213 282.93806 
L 310.684207 285.210606 
L 311.226201 285.811457 
L 311.768195 283.496571 
L 312.31019 272.881122 
L 312.852184 274.207646 
L 313.394178 277.776292 
L 313.936172 279.140772 
L 314.478167 288.374266 
L 315.020161 279.992494 
L 315.562155 282.006316 
L 316.104149 273.980767 
L 316.646144 275.188255 
L 317.188138 275.21191 
L 317.730132 270.034053 
L 318.272126 278.426448 
L 318.814121 275.97186 
L 319.898109 276.227982 
L 320.440103 270.097293 
L 320.982097 284.715724 
L 321.524092 284.16418 
L 322.60808 283.813052 
L 323.150074 279.950074 
L 323.692069 269.327035 
L 324.234063 268.356388 
L 324.776057 270.969346 
L 325.860046 281.276668 
L 326.40204 284.246549 
L 326.944034 272.261415 
L 327.486028 278.562179 
L 328.028022 282.694995 
L 328.570017 281.878741 
L 329.112011 273.817184 
L 329.654005 285.153159 
L 330.195999 276.509497 
L 330.737994 282.242644 
L 331.279988 282.079056 
L 331.821982 281.42223 
L 332.363976 285.869902 
L 332.905971 281.352456 
L 333.447965 282.742419 
L 333.989959 290.383356 
L 334.531953 283.201857 
L 335.073947 286.43611 
L 335.615942 285.109547 
L 336.157936 283.049522 
L 336.69993 284.560432 
L 337.241924 284.149744 
L 337.783919 284.127491 
L 338.325913 286.665046 
L 338.867907 286.942115 
L 339.409901 285.960023 
L 339.951896 289.773087 
L 340.49389 289.992169 
L 341.035884 278.144872 
L 341.577878 283.653906 
L 342.119873 283.225091 
L 342.661867 290.575501 
L 343.203861 286.864253 
L 343.745855 280.221678 
L 344.287849 293.925801 
L 344.829844 285.728142 
L 345.371838 286.091764 
L 345.913832 283.653204 
L 346.997821 286.197288 
L 347.539815 285.130648 
L 348.081809 285.123201 
L 348.623803 287.047069 
L 349.165798 287.336877 
L 349.707792 286.399541 
L 350.249786 282.926527 
L 350.79178 288.175086 
L 351.333774 291.791213 
L 351.875769 291.100883 
L 352.417763 289.436541 
L 352.959757 291.378117 
L 353.501751 289.477082 
L 354.043746 290.37249 
L 354.58574 289.096819 
L 355.127734 289.245554 
L 355.669728 291.638765 
L 356.211723 287.668311 
L 356.753717 286.640977 
L 357.295711 289.573168 
L 357.837705 288.889711 
L 358.379699 289.987386 
L 358.921694 285.745022 
L 359.463688 289.747787 
L 360.005682 284.204315 
L 360.547676 280.851007 
L 361.089671 281.511702 
L 361.631665 282.985603 
L 362.173659 281.33197 
L 362.715653 283.850549 
L 363.257648 279.90406 
L 363.799642 279.585218 
L 364.88363 285.498211 
L 365.425625 280.250774 
L 365.967619 280.00363 
L 366.509613 283.51799 
L 367.593601 278.139603 
L 368.135596 284.835599 
L 368.67759 280.715482 
L 369.219584 279.705289 
L 369.761578 279.283053 
L 370.303573 280.899508 
L 370.845567 280.803506 
L 371.387561 279.968492 
L 371.929555 281.807023 
L 372.47155 283.048592 
L 373.013544 287.339141 
L 373.555538 284.145921 
L 374.097532 279.175841 
L 374.639526 282.580059 
L 375.181521 281.911768 
L 375.723515 276.391472 
L 376.265509 278.168232 
L 376.807503 277.404474 
L 377.349498 277.091892 
L 377.891492 274.025375 
L 378.433486 271.706239 
L 378.97548 270.457825 
L 379.517475 273.698031 
L 380.059469 268.577022 
L 380.601463 275.191319 
L 381.143457 279.019567 
L 381.685452 279.049776 
L 382.227446 273.536831 
L 382.76944 275.758206 
L 383.311434 281.009719 
L 383.853428 277.960715 
L 384.395423 282.67412 
L 384.937417 281.457772 
L 385.479411 277.733372 
L 386.021405 278.070644 
L 386.5634 286.953801 
L 387.105394 287.969193 
L 387.647388 283.484271 
L 388.189382 283.910591 
L 388.731377 288.236911 
L 389.273371 283.276832 
L 389.815365 282.395278 
L 390.357359 278.490046 
L 391.441348 284.18409 
L 391.983342 279.931784 
L 392.525336 280.022934 
L 393.609325 276.791392 
L 394.151319 276.182933 
L 394.693313 278.197064 
L 395.235307 278.992411 
L 395.777302 281.92168 
L 396.319296 277.464562 
L 396.86129 279.77953 
L 397.403284 280.547951 
L 397.945278 280.788009 
L 398.487273 277.811581 
L 398.487273 277.811581 
" clip-path="url(#p577e91c874)" style="fill: none; stroke-dasharray: 9.6,2.4,1.5,2.4; stroke-dashoffset: 0; stroke: #008000; stroke-width: 1.5"/>
   </g>
   <g id="line2d_33">
    <path d="M 73.832727 268.564198 
L 74.374722 265.790081 
L 74.916716 265.543198 
L 75.45871 263.633828 
L 76.000704 266.057761 
L 76.542698 255.948159 
L 77.084693 256.859427 
L 77.626687 255.286998 
L 78.168681 259.334738 
L 78.710675 259.279384 
L 79.25267 248.460802 
L 79.794664 249.052382 
L 80.336658 252.058433 
L 80.878652 247.815833 
L 81.420647 248.823183 
L 81.962641 251.938973 
L 82.504635 243.793232 
L 83.046629 243.892049 
L 83.588623 244.836255 
L 84.130618 242.586579 
L 84.672612 245.68147 
L 85.214606 238.836958 
L 85.7566 243.954957 
L 86.298595 245.451449 
L 87.382583 229.793605 
L 87.924577 238.034877 
L 88.466572 234.784095 
L 89.008566 234.815587 
L 89.55056 231.597586 
L 90.092554 230.825654 
L 90.634548 228.947384 
L 91.176543 233.328029 
L 92.260531 236.91067 
L 92.802525 227.382318 
L 93.34452 224.392037 
L 93.886514 226.271238 
L 94.428508 230.829001 
L 94.970502 227.205981 
L 95.512497 227.634777 
L 96.054491 228.527705 
L 96.596485 229.792402 
L 97.138479 228.341576 
L 97.680474 226.267033 
L 98.222468 227.533076 
L 99.306456 222.424084 
L 99.84845 222.054286 
L 100.390445 218.172875 
L 100.932439 218.279011 
L 101.474433 219.210446 
L 102.016427 216.515708 
L 102.558422 211.483644 
L 103.100416 214.088901 
L 103.64241 209.712248 
L 104.184404 209.812183 
L 104.726399 208.535475 
L 105.268393 216.390886 
L 105.810387 216.62902 
L 106.352381 215.520909 
L 106.894375 213.928743 
L 107.43637 213.869749 
L 107.978364 211.16555 
L 108.520358 207.783811 
L 109.062352 211.973847 
L 109.604347 214.416531 
L 110.146341 212.635222 
L 110.688335 216.255386 
L 111.772324 225.664718 
L 112.314318 221.979914 
L 112.856312 221.247955 
L 113.398306 214.185172 
L 113.940301 231.524026 
L 114.482295 226.076154 
L 115.024289 223.939173 
L 115.566283 224.008697 
L 116.108277 226.54971 
L 116.650272 218.489477 
L 117.192266 219.167273 
L 117.73426 216.39331 
L 118.276254 216.945425 
L 118.818249 218.196381 
L 119.360243 218.5469 
L 119.902237 214.173755 
L 120.444231 220.297101 
L 120.986226 216.324791 
L 121.52822 214.844925 
L 122.070214 216.180085 
L 122.612208 214.745439 
L 123.154202 212.802524 
L 123.696197 214.364171 
L 124.238191 216.855238 
L 124.780185 213.320522 
L 125.322179 213.133218 
L 125.864174 214.599224 
L 126.406168 216.577245 
L 126.948162 217.266174 
L 127.490156 215.575922 
L 128.032151 217.402426 
L 128.574145 216.686929 
L 129.116139 220.450171 
L 129.658133 220.588639 
L 130.200127 217.573426 
L 130.742122 221.043378 
L 131.284116 222.653848 
L 131.82611 219.795445 
L 132.368104 219.844387 
L 132.910099 221.580024 
L 133.452093 221.748154 
L 133.994087 221.452807 
L 134.536081 220.641854 
L 135.078076 221.038083 
L 135.62007 218.533596 
L 136.162064 221.46344 
L 136.704058 218.381543 
L 137.246053 217.058711 
L 137.788047 215.240948 
L 138.330041 216.450226 
L 138.872035 215.447858 
L 139.414029 217.92656 
L 139.956024 217.48883 
L 140.498018 214.575818 
L 141.040012 213.924781 
L 141.582006 214.066081 
L 142.124001 213.409821 
L 142.665995 214.840937 
L 143.207989 219.226906 
L 143.749983 218.361095 
L 144.291978 213.459655 
L 144.833972 213.674876 
L 145.375966 213.047954 
L 145.91796 215.596505 
L 146.459954 215.485894 
L 147.001949 219.265448 
L 148.085937 212.058803 
L 148.627931 215.861211 
L 149.169926 213.66657 
L 149.71192 216.697566 
L 150.253914 209.384307 
L 150.795908 216.090657 
L 151.337903 213.975882 
L 151.879897 210.222283 
L 152.421891 219.066049 
L 152.963885 218.042619 
L 153.505879 220.086522 
L 154.047874 216.975499 
L 154.589868 217.581731 
L 155.131862 215.694838 
L 155.673856 209.194137 
L 156.215851 218.42982 
L 156.757845 217.518553 
L 157.299839 209.197374 
L 157.841833 209.081703 
L 158.383828 202.696365 
L 158.925822 200.450691 
L 159.467816 209.979822 
L 160.00981 206.72313 
L 160.551805 205.615699 
L 161.093799 201.40016 
L 161.635793 201.285305 
L 162.177787 199.016144 
L 162.719781 202.062352 
L 163.261776 192.212094 
L 164.345764 198.66517 
L 164.887758 191.048059 
L 165.429753 194.248658 
L 165.971747 185.62863 
L 166.513741 186.157035 
L 167.055735 187.75303 
L 168.139724 194.94243 
L 168.681718 193.56298 
L 169.223712 195.047815 
L 169.765706 197.682596 
L 170.307701 193.033729 
L 170.849695 190.227405 
L 171.391689 192.90189 
L 171.933683 194.842794 
L 172.475678 189.937523 
L 173.017672 189.689944 
L 173.559666 188.793127 
L 174.10166 182.418567 
L 174.643655 182.191016 
L 175.727643 194.506693 
L 176.811632 178.38357 
L 177.353626 178.68 
L 178.437614 185.637322 
L 178.979608 180.958631 
L 179.521603 178.887384 
L 180.063597 181.366276 
L 180.605591 179.843716 
L 181.147585 180.586002 
L 181.68958 185.035746 
L 182.231574 191.488528 
L 182.773568 183.528788 
L 183.315562 184.686048 
L 183.857557 182.372886 
L 184.399551 185.874018 
L 184.941545 185.981739 
L 186.025533 170.010595 
L 186.567528 178.703798 
L 187.109522 183.564033 
L 187.651516 180.655797 
L 188.19351 174.517518 
L 188.735505 180.029214 
L 189.277499 178.026055 
L 189.819493 178.44924 
L 190.361487 173.539434 
L 190.903482 171.068186 
L 191.445476 173.172947 
L 191.98747 175.823945 
L 192.529464 174.528767 
L 193.071458 171.431839 
L 193.613453 177.071459 
L 194.155447 171.632786 
L 194.697441 174.543584 
L 195.239435 174.863328 
L 195.78143 177.070084 
L 196.323424 175.319522 
L 196.865418 172.246518 
L 197.407412 175.737319 
L 197.949407 177.144566 
L 198.491401 176.654019 
L 199.033395 184.396018 
L 199.575389 180.469749 
L 200.117384 175.270161 
L 200.659378 179.361876 
L 201.201372 179.609072 
L 201.743366 190.033491 
L 202.28536 194.943288 
L 202.827355 186.821082 
L 203.369349 198.558675 
L 203.911343 197.38601 
L 204.453337 197.173456 
L 204.995332 192.290276 
L 206.07932 198.580251 
L 206.621314 207.829346 
L 207.163309 200.026162 
L 207.705303 198.579514 
L 208.247297 200.035238 
L 208.789291 197.29977 
L 209.331285 205.950733 
L 209.87328 204.655824 
L 210.415274 199.390386 
L 210.957268 196.593614 
L 211.499262 198.371912 
L 212.041257 202.515625 
L 212.583251 199.716589 
L 213.125245 191.793656 
L 213.667239 190.707315 
L 214.209234 187.160339 
L 214.751228 189.282557 
L 215.293222 190.596478 
L 215.835216 189.523552 
L 216.377211 186.070437 
L 216.919205 183.335564 
L 217.461199 187.250829 
L 218.003193 184.290182 
L 218.545187 187.970075 
L 219.087182 182.292539 
L 219.629176 186.045147 
L 220.17117 186.766783 
L 220.713164 185.662352 
L 221.255159 188.091801 
L 221.797153 186.309659 
L 222.881141 174.907301 
L 223.96513 184.47152 
L 224.507124 173.645736 
L 225.591112 182.986284 
L 226.133107 182.435899 
L 226.675101 186.594909 
L 227.217095 186.491212 
L 227.759089 188.050623 
L 228.843078 184.003357 
L 229.385072 178.635369 
L 229.927066 178.276982 
L 230.469061 181.098254 
L 231.011055 187.185479 
L 231.553049 173.235696 
L 232.095043 170.298063 
L 232.637037 176.178649 
L 233.179032 177.276876 
L 233.721026 183.028749 
L 234.26302 178.952377 
L 234.805014 179.974748 
L 235.347009 176.000195 
L 235.889003 185.162315 
L 236.430997 183.54784 
L 236.972991 178.905489 
L 237.514986 178.058184 
L 238.05698 179.932852 
L 238.598974 180.405057 
L 239.140968 174.912111 
L 239.682963 173.421387 
L 240.224957 175.575137 
L 240.766951 170.628163 
L 241.308945 176.530798 
L 241.850939 176.175645 
L 242.392934 178.606974 
L 242.934928 177.049754 
L 243.476922 177.70703 
L 244.018916 180.840692 
L 244.560911 173.469498 
L 245.102905 176.815228 
L 245.644899 177.339802 
L 246.186893 171.941845 
L 246.728888 172.720826 
L 247.270882 176.596583 
L 247.812876 182.943519 
L 248.35487 183.954973 
L 248.896864 183.300791 
L 249.438859 181.063493 
L 249.980853 188.812989 
L 250.522847 186.58351 
L 251.064841 182.421837 
L 251.606836 183.670135 
L 252.14883 183.689553 
L 252.690824 197.525485 
L 253.232818 198.562295 
L 253.774813 200.125931 
L 254.316807 194.147097 
L 254.858801 190.136181 
L 255.400795 192.841817 
L 255.942789 190.888703 
L 256.484784 194.665077 
L 257.026778 185.748161 
L 257.568772 184.205779 
L 258.110766 193.96301 
L 258.652761 196.100145 
L 259.736749 187.300139 
L 260.278743 190.35083 
L 260.820738 191.80916 
L 261.362732 191.310512 
L 261.904726 199.147771 
L 262.44672 198.095452 
L 262.988715 196.660526 
L 263.530709 190.220579 
L 264.072703 198.741366 
L 264.614697 193.876325 
L 265.156691 219.303329 
L 265.698686 210.871285 
L 266.24068 206.13281 
L 266.782674 205.075013 
L 267.324668 205.362802 
L 267.866663 199.251841 
L 268.408657 190.821476 
L 268.950651 191.208467 
L 269.492645 196.553175 
L 270.576634 185.472323 
L 271.118628 187.275056 
L 271.660622 186.962619 
L 272.202616 185.495602 
L 272.744611 185.577336 
L 273.286605 193.078178 
L 273.828599 197.122732 
L 274.370593 199.67929 
L 274.912588 193.30957 
L 275.454582 192.364301 
L 276.53857 188.515945 
L 277.080565 181.447136 
L 278.164553 175.702435 
L 279.248542 189.714842 
L 279.790536 180.958106 
L 280.33253 185.78016 
L 280.874524 183.004535 
L 281.416518 177.325452 
L 281.958513 182.037385 
L 282.500507 183.604679 
L 283.042501 184.068625 
L 283.584495 189.127682 
L 284.12649 175.823683 
L 284.668484 173.28207 
L 285.210478 184.294245 
L 285.752472 189.00255 
L 286.294467 186.76405 
L 286.836461 187.167625 
L 287.378455 193.165828 
L 288.462443 176.250203 
L 289.004438 177.414415 
L 289.546432 175.856276 
L 290.088426 182.66276 
L 290.63042 177.138896 
L 291.172415 180.158106 
L 291.714409 179.040812 
L 292.256403 179.424737 
L 292.798397 174.382488 
L 293.340392 177.30384 
L 293.882386 175.068334 
L 294.42438 184.041124 
L 294.966374 175.383582 
L 295.508368 177.195051 
L 296.050363 177.558228 
L 296.592357 180.090079 
L 297.134351 176.990919 
L 297.676345 183.166582 
L 298.21834 181.797641 
L 298.760334 190.704893 
L 299.302328 201.673689 
L 299.844322 196.377285 
L 300.386317 199.719227 
L 300.928311 202.223609 
L 301.470305 199.858829 
L 302.012299 204.882701 
L 302.554294 195.94568 
L 303.096288 201.18417 
L 303.638282 191.941489 
L 304.180276 191.932163 
L 304.72227 198.814957 
L 305.264265 192.181692 
L 305.806259 190.173999 
L 306.348253 190.297884 
L 306.890247 193.427266 
L 307.432242 186.863948 
L 307.974236 195.629821 
L 308.51623 200.074126 
L 309.058224 190.098174 
L 309.600219 197.679525 
L 310.142213 197.07821 
L 310.684207 202.917855 
L 311.226201 201.947415 
L 311.768195 194.205269 
L 312.852184 186.358066 
L 313.394178 186.015595 
L 314.478167 193.475468 
L 315.562155 191.204753 
L 316.104149 187.688858 
L 316.646144 190.684592 
L 317.188138 185.621716 
L 317.730132 184.028065 
L 318.272126 187.677391 
L 318.814121 186.231877 
L 319.356115 189.182587 
L 319.898109 191.316865 
L 320.440103 182.678223 
L 320.982097 192.892604 
L 321.524092 192.692777 
L 322.066086 192.864165 
L 322.60808 193.996016 
L 323.150074 187.501884 
L 323.692069 178.076823 
L 324.234063 173.319842 
L 324.776057 178.959343 
L 325.860046 187.260968 
L 326.40204 189.70763 
L 326.944034 177.077212 
L 327.486028 182.838194 
L 328.028022 185.048899 
L 328.570017 189.372182 
L 329.112011 183.558528 
L 329.654005 190.631679 
L 330.195999 178.632503 
L 330.737994 189.372368 
L 331.279988 187.208985 
L 331.821982 182.825062 
L 332.363976 187.431287 
L 332.905971 190.708501 
L 333.447965 191.043207 
L 333.989959 197.000798 
L 334.531953 192.602569 
L 335.073947 196.85309 
L 335.615942 191.467359 
L 336.157936 193.459102 
L 336.69993 196.313969 
L 337.241924 188.021092 
L 337.783919 194.773022 
L 338.325913 196.833466 
L 338.867907 195.07894 
L 339.409901 200.603821 
L 339.951896 201.129314 
L 340.49389 202.395869 
L 341.035884 194.441196 
L 341.577878 194.772654 
L 342.119873 198.801693 
L 342.661867 204.487676 
L 343.203861 205.053159 
L 343.745855 199.378862 
L 344.287849 201.067709 
L 344.829844 203.405577 
L 345.371838 201.818969 
L 345.913832 198.39092 
L 346.455826 205.108489 
L 346.997821 205.741799 
L 347.539815 201.181135 
L 348.081809 203.18231 
L 348.623803 199.400665 
L 349.165798 205.888005 
L 349.707792 204.646193 
L 350.249786 198.389096 
L 350.79178 196.446664 
L 351.333774 206.303075 
L 351.875769 207.19704 
L 352.417763 206.973524 
L 352.959757 200.826588 
L 353.501751 206.777195 
L 354.043746 197.300331 
L 354.58574 198.02236 
L 355.127734 201.610711 
L 355.669728 207.511523 
L 356.211723 208.950755 
L 356.753717 213.879422 
L 357.295711 210.9257 
L 357.837705 210.857653 
L 358.379699 205.679569 
L 358.921694 211.226349 
L 359.463688 211.986713 
L 360.005682 206.934307 
L 360.547676 205.073913 
L 361.089671 204.413218 
L 361.631665 204.307609 
L 362.173659 198.241986 
L 362.715653 201.877295 
L 363.257648 198.966685 
L 363.799642 200.755072 
L 364.341636 202.950665 
L 364.88363 201.574831 
L 365.425625 192.097487 
L 365.967619 190.3448 
L 366.509613 193.246078 
L 367.051607 192.902103 
L 367.593601 203.501131 
L 368.135596 208.230467 
L 369.219584 195.121048 
L 369.761578 199.501348 
L 370.303573 198.251773 
L 370.845567 200.372783 
L 371.387561 198.799915 
L 371.929555 198.0456 
L 372.47155 203.422364 
L 373.013544 199.89538 
L 373.555538 224.386143 
L 374.097532 221.389755 
L 374.639526 223.035202 
L 375.181521 224.285002 
L 375.723515 220.529483 
L 376.265509 222.981816 
L 376.807503 222.798147 
L 377.349498 220.746568 
L 377.891492 219.830715 
L 378.433486 218.435967 
L 378.97548 215.018219 
L 379.517475 216.558758 
L 380.059469 214.642823 
L 380.601463 217.879515 
L 381.143457 222.40109 
L 381.685452 218.740827 
L 382.227446 215.929791 
L 382.76944 217.702638 
L 383.311434 218.307204 
L 383.853428 215.661593 
L 384.395423 219.605442 
L 384.937417 220.517476 
L 385.479411 217.922829 
L 386.021405 218.107199 
L 386.5634 221.157649 
L 387.105394 223.046402 
L 387.647388 221.269475 
L 388.189382 220.746169 
L 388.731377 221.118841 
L 389.273371 218.938789 
L 389.815365 214.713593 
L 390.357359 220.660242 
L 390.899353 215.098436 
L 391.441348 219.498221 
L 391.983342 218.763566 
L 392.525336 219.482277 
L 393.06733 217.003089 
L 393.609325 215.691276 
L 394.151319 213.348212 
L 394.693313 215.425244 
L 395.235307 212.455737 
L 395.777302 214.494076 
L 396.319296 212.83806 
L 396.86129 216.839535 
L 397.403284 217.516191 
L 397.945278 215.575613 
L 398.487273 215.621333 
L 398.487273 215.621333 
" clip-path="url(#p577e91c874)" style="fill: none; stroke-dasharray: 9.6,2.4,1.5,2.4; stroke-dashoffset: 0; stroke: #008000; stroke-width: 1.5"/>
   </g>
   <g id="line2d_34">
    <path d="M 73.832727 210.317982 
L 74.374722 210.317982 
L 74.916716 206.834649 
L 76.000704 206.834649 
L 76.542698 189.417984 
L 77.084693 189.417984 
L 77.626687 187.676318 
L 78.710675 187.676318 
L 79.25267 156.326321 
L 86.298595 156.326321 
L 86.840589 109.301327 
L 96.596485 109.301327 
L 97.138479 53.568 
L 111.230329 53.568 
L 111.772324 149.359656 
L 112.856312 149.359656 
L 113.398306 147.617989 
L 116.108277 147.617989 
L 116.650272 111.042993 
L 127.490156 111.042993 
L 128.032151 145.876323 
L 135.078076 145.876323 
L 135.62007 137.16799 
L 140.498018 137.16799 
L 141.040012 133.684657 
L 144.291978 133.684657 
L 144.833972 121.492992 
L 155.673856 121.492992 
L 156.215851 131.942991 
L 156.757845 151.101322 
L 157.299839 123.234659 
L 161.093799 123.234659 
L 161.635793 102.334661 
L 173.559666 102.334661 
L 174.10166 135.426324 
L 174.643655 131.942991 
L 178.437614 131.942991 
L 178.979608 116.267993 
L 183.857557 116.267993 
L 184.399551 111.042993 
L 205.537326 111.042993 
L 206.07932 152.842988 
L 213.667239 152.842988 
L 214.209234 151.101322 
L 218.545187 151.101322 
L 219.087182 137.16799 
L 224.507124 137.16799 
L 225.049118 131.942991 
L 229.385072 131.942991 
L 229.927066 112.78466 
L 239.682963 112.78466 
L 240.224957 107.55966 
L 251.064841 107.55966 
L 251.606836 121.492992 
L 252.14883 121.492992 
L 252.690824 97.109662 
L 263.530709 97.109662 
L 264.072703 135.426324 
L 264.614697 135.426324 
L 265.156691 168.517987 
L 266.24068 168.517987 
L 266.782674 151.101322 
L 267.324668 151.101322 
L 267.866663 135.426324 
L 272.202616 135.426324 
L 272.744611 123.234659 
L 283.584495 123.234659 
L 284.12649 124.976325 
L 284.668484 116.267993 
L 289.004438 116.267993 
L 289.546432 95.367995 
L 300.386317 95.367995 
L 300.928311 154.584655 
L 301.470305 140.651323 
L 306.890247 140.651323 
L 307.432242 135.426324 
L 307.974236 135.426324 
L 308.51623 116.267993 
L 323.692069 116.267993 
L 324.234063 91.884662 
L 335.073947 91.884662 
L 335.615942 97.109662 
L 336.69993 97.109662 
L 337.241924 83.17633 
L 353.501751 83.17633 
L 354.043746 97.109662 
L 373.013544 97.109662 
L 373.555538 137.16799 
L 378.433486 137.16799 
L 378.97548 135.426324 
L 389.815365 135.426324 
L 390.357359 142.39299 
L 398.487273 142.39299 
L 398.487273 142.39299 
" clip-path="url(#p577e91c874)" style="fill: none; stroke: #ff0000; stroke-width: 1.5; stroke-linecap: square"/>
   </g>
   <g id="patch_3">
    <path d="M 57.6 307.584 
L 57.6 41.472 
" style="fill: none; stroke: #000000; stroke-width: 0.8; stroke-linejoin: miter; stroke-linecap: square"/>
   </g>
   <g id="patch_4">
    <path d="M 414.72 307.584 
L 414.72 41.472 
" style="fill: none; stroke: #000000; stroke-width: 0.8; stroke-linejoin: miter; stroke-linecap: square"/>
   </g>
   <g id="patch_5">
    <path d="M 57.6 307.584 
L 414.72 307.584 
" style="fill: none; stroke: #000000; stroke-width: 0.8; stroke-linejoin: miter; stroke-linecap: square"/>
   </g>
   <g id="patch_6">
    <path d="M 57.6 41.472 
L 414.72 41.472 
" style="fill: none; stroke: #000000; stroke-width: 0.8; stroke-linejoin: miter; stroke-linecap: square"/>
   </g>
   <g id="text_18">
    <!-- Population's average and best fitness -->
    <g transform="translate(123.529687 35.472)scale(0.12 -0.12)">
     <defs>
      <path id="DejaVuSans-50" d="M 1259 4147 
L 1259 2394 
L 2053 2394 
Q 2494 2394 2734 2622 
Q 2975 2850 2975 3272 
Q 2975 3691 2734 3919 
Q 2494 4147 2053 4147 
L 1259 4147 
z
M 628 4666 
L 2053 4666 
Q 2838 4666 3239 4311 
Q 3641 3956 3641 3272 
Q 3641 2581 3239 2228 
Q 2838 1875 2053 1875 
L 1259 1875 
L 1259 0 
L 628 0 
L 628 4666 
z
" transform="scale(0.015625)"/>
      <path id="DejaVuSans-70" d="M 1159 525 
L 1159 -1331 
L 581 -1331 
L 581 3500 
L 1159 3500 
L 1159 2969 
Q 1341 3281 1617 3432 
Q 1894 3584 2278 3584 
Q 2916 3584 3314 3078 
Q 3713 2572 3713 1747 
Q 3713 922 3314 415 
Q 2916 -91 2278 -91 
Q 1894 -91 1617 61 
Q 1341 213 1159 525 
z
M 3116 1747 
Q 3116 2381 2855 2742 
Q 2594 3103 2138 3103 
Q 1681 3103 1420 2742 
Q 1159 2381 1159 1747 
Q 1159 1113 1420 752 
Q 1681 391 2138 391 
Q 2594 391 2855 752 
Q 3116 1113 3116 1747 
z
" transform="scale(0.015625)"/>
      <path id="DejaVuSans-75" d="M 544 1381 
L 544 3500 
L 1119 3500 
L 1119 1403 
Q 1119 906 1312 657 
Q 1506 409 1894 409 
Q 2359 409 2629 706 
Q 2900 1003 2900 1516 
L 2900 3500 
L 3475 3500 
L 3475 0 
L 2900 0 
L 2900 538 
Q 2691 219 2414 64 
Q 2138 -91 1772 -91 
Q 1169 -91 856 284 
Q 544 659 544 1381 
z
M 1991 3584 
L 1991 3584 
z
" transform="scale(0.015625)"/>
      <path id="DejaVuSans-6c" d="M 603 4863 
L 1178 4863 
L 1178 0 
L 603 0 
L 603 4863 
z
" transform="scale(0.015625)"/>
      <path id="DejaVuSans-27" d="M 1147 4666 
L 1147 2931 
L 616 2931 
L 616 4666 
L 1147 4666 
z
" transform="scale(0.015625)"/>
      <path id="DejaVuSans-20" transform="scale(0.015625)"/>
      <path id="DejaVuSans-76" d="M 191 3500 
L 800 3500 
L 1894 563 
L 2988 3500 
L 3597 3500 
L 2284 0 
L 1503 0 
L 191 3500 
z
" transform="scale(0.015625)"/>
      <path id="DejaVuSans-67" d="M 2906 1791 
Q 2906 2416 2648 2759 
Q 2391 3103 1925 3103 
Q 1463 3103 1205 2759 
Q 947 2416 947 1791 
Q 947 1169 1205 825 
Q 1463 481 1925 481 
Q 2391 481 2648 825 
Q 2906 1169 2906 1791 
z
M 3481 434 
Q 3481 -459 3084 -895 
Q 2688 -1331 1869 -1331 
Q 1566 -1331 1297 -1286 
Q 1028 -1241 775 -1147 
L 775 -588 
Q 1028 -725 1275 -790 
Q 1522 -856 1778 -856 
Q 2344 -856 2625 -561 
Q 2906 -266 2906 331 
L 2906 616 
Q 2728 306 2450 153 
Q 2172 0 1784 0 
Q 1141 0 747 490 
Q 353 981 353 1791 
Q 353 2603 747 3093 
Q 1141 3584 1784 3584 
Q 2172 3584 2450 3431 
Q 2728 3278 2906 2969 
L 2906 3500 
L 3481 3500 
L 3481 434 
z
" transform="scale(0.015625)"/>
      <path id="DejaVuSans-64" d="M 2906 2969 
L 2906 4863 
L 3481 4863 
L 3481 0 
L 2906 0 
L 2906 525 
Q 2725 213 2448 61 
Q 2172 -91 1784 -91 
Q 1150 -91 751 415 
Q 353 922 353 1747 
Q 353 2572 751 3078 
Q 1150 3584 1784 3584 
Q 2172 3584 2448 3432 
Q 2725 3281 2906 2969 
z
M 947 1747 
Q 947 1113 1208 752 
Q 1469 391 1925 391 
Q 2381 391 2643 752 
Q 2906 1113 2906 1747 
Q 2906 2381 2643 2742 
Q 2381 3103 1925 3103 
Q 1469 3103 1208 2742 
Q 947 2381 947 1747 
z
" transform="scale(0.015625)"/>
      <path id="DejaVuSans-62" d="M 3116 1747 
Q 3116 2381 2855 2742 
Q 2594 3103 2138 3103 
Q 1681 3103 1420 2742 
Q 1159 2381 1159 1747 
Q 1159 1113 1420 752 
Q 1681 391 2138 391 
Q 2594 391 2855 752 
Q 3116 1113 3116 1747 
z
M 1159 2969 
Q 1341 3281 1617 3432 
Q 1894 3584 2278 3584 
Q 2916 3584 3314 3078 
Q 3713 2572 3713 1747 
Q 3713 922 3314 415 
Q 2916 -91 2278 -91 
Q 1894 -91 1617 61 
Q 1341 213 1159 525 
L 1159 0 
L 581 0 
L 581 4863 
L 1159 4863 
L 1159 2969 
z
" transform="scale(0.015625)"/>
      <path id="DejaVuSans-66" d="M 2375 4863 
L 2375 4384 
L 1825 4384 
Q 1516 4384 1395 4259 
Q 1275 4134 1275 3809 
L 1275 3500 
L 2222 3500 
L 2222 3053 
L 1275 3053 
L 1275 0 
L 697 0 
L 697 3053 
L 147 3053 
L 147 3500 
L 697 3500 
L 697 3744 
Q 697 4328 969 4595 
Q 1241 4863 1831 4863 
L 2375 4863 
z
" transform="scale(0.015625)"/>
     </defs>
     <use xlink:href="#DejaVuSans-50"/>
     <use xlink:href="#DejaVuSans-6f" x="56.677734"/>
     <use xlink:href="#DejaVuSans-70" x="117.859375"/>
     <use xlink:href="#DejaVuSans-75" x="181.335938"/>
     <use xlink:href="#DejaVuSans-6c" x="244.714844"/>
     <use xlink:href="#DejaVuSans-61" x="272.498047"/>
     <use xlink:href="#DejaVuSans-74" x="333.777344"/>
     <use xlink:href="#DejaVuSans-69" x="372.986328"/>
     <use xlink:href="#DejaVuSans-6f" x="400.769531"/>
     <use xlink:href="#DejaVuSans-6e" x="461.951172"/>
     <use xlink:href="#DejaVuSans-27" x="525.330078"/>
     <use xlink:href="#DejaVuSans-73" x="552.820312"/>
     <use xlink:href="#DejaVuSans-20" x="604.919922"/>
     <use xlink:href="#DejaVuSans-61" x="636.707031"/>
     <use xlink:href="#DejaVuSans-76" x="697.986328"/>
     <use xlink:href="#DejaVuSans-65" x="757.166016"/>
     <use xlink:href="#DejaVuSans-72" x="818.689453"/>
     <use xlink:href="#DejaVuSans-61" x="859.802734"/>
     <use xlink:href="#DejaVuSans-67" x="921.082031"/>
     <use xlink:href="#DejaVuSans-65" x="984.558594"/>
     <use xlink:href="#DejaVuSans-20" x="1046.082031"/>
     <use xlink:href="#DejaVuSans-61" x="1077.869141"/>
     <use xlink:href="#DejaVuSans-6e" x="1139.148438"/>
     <use xlink:href="#DejaVuSans-64" x="1202.527344"/>
     <use xlink:href="#DejaVuSans-20" x="1266.003906"/>
     <use xlink:href="#DejaVuSans-62" x="1297.791016"/>
     <use xlink:href="#DejaVuSans-65" x="1361.267578"/>
     <use xlink:href="#DejaVuSans-73" x="1422.791016"/>
     <use xlink:href="#DejaVuSans-74" x="1474.890625"/>
     <use xlink:href="#DejaVuSans-20" x="1514.099609"/>
     <use xlink:href="#DejaVuSans-66" x="1545.886719"/>
     <use xlink:href="#DejaVuSans-69" x="1581.091797"/>
     <use xlink:href="#DejaVuSans-74" x="1608.875"/>
     <use xlink:href="#DejaVuSans-6e" x="1648.083984"/>
     <use xlink:href="#DejaVuSans-65" x="1711.462891"/>
     <use xlink:href="#DejaVuSans-73" x="1772.986328"/>
     <use xlink:href="#DejaVuSans-73" x="1825.085938"/>
    </g>
   </g>
   <g id="legend_1">
    <g id="patch_7">
     <path d="M 64.6 108.1845 
L 137.540625 108.1845 
Q 139.540625 108.1845 139.540625 106.1845 
L 139.540625 48.472 
Q 139.540625 46.472 137.540625 46.472 
L 64.6 46.472 
Q 62.6 46.472 62.6 48.472 
L 62.6 106.1845 
Q 62.6 108.1845 64.6 108.1845 
z
" style="fill: #ffffff; opacity: 0.8; stroke: #cccccc; stroke-linejoin: miter"/>
    </g>
    <g id="line2d_35">
     <path d="M 66.6 54.570438 
L 76.6 54.570438 
L 86.6 54.570438 
" style="fill: none; stroke: #0000ff; stroke-width: 1.5; stroke-linecap: square"/>
    </g>
    <g id="text_19">
     <!-- average -->
     <g transform="translate(94.6 58.070438)scale(0.1 -0.1)">
      <use xlink:href="#DejaVuSans-61"/>
      <use xlink:href="#DejaVuSans-76" x="61.279297"/>
      <use xlink:href="#DejaVuSans-65" x="120.458984"/>
      <use xlink:href="#DejaVuSans-72" x="181.982422"/>
      <use xlink:href="#DejaVuSans-61" x="223.095703"/>
      <use xlink:href="#DejaVuSans-67" x="284.375"/>
      <use xlink:href="#DejaVuSans-65" x="347.851562"/>
     </g>
    </g>
    <g id="line2d_36">
     <path d="M 66.6 69.248563 
L 76.6 69.248563 
L 86.6 69.248563 
" style="fill: none; stroke-dasharray: 9.6,2.4,1.5,2.4; stroke-dashoffset: 0; stroke: #008000; stroke-width: 1.5"/>
    </g>
    <g id="text_20">
     <!-- -1 sd -->
     <g transform="translate(94.6 72.748563)scale(0.1 -0.1)">
      <defs>
       <path id="DejaVuSans-2d" d="M 313 2009 
L 1997 2009 
L 1997 1497 
L 313 1497 
L 313 2009 
z
" transform="scale(0.015625)"/>
      </defs>
      <use xlink:href="#DejaVuSans-2d"/>
      <use xlink:href="#DejaVuSans-31" x="36.083984"/>
      <use xlink:href="#DejaVuSans-20" x="99.707031"/>
      <use xlink:href="#DejaVuSans-73" x="131.494141"/>
      <use xlink:href="#DejaVuSans-64" x="183.59375"/>
     </g>
    </g>
    <g id="line2d_37">
     <path d="M 66.6 83.926688 
L 76.6 83.926688 
L 86.6 83.926688 
" style="fill: none; stroke-dasharray: 9.6,2.4,1.5,2.4; stroke-dashoffset: 0; stroke: #008000; stroke-width: 1.5"/>
    </g>
    <g id="text_21">
     <!-- +1 sd -->
     <g transform="translate(94.6 87.426688)scale(0.1 -0.1)">
      <defs>
       <path id="DejaVuSans-2b" d="M 2944 4013 
L 2944 2272 
L 4684 2272 
L 4684 1741 
L 2944 1741 
L 2944 0 
L 2419 0 
L 2419 1741 
L 678 1741 
L 678 2272 
L 2419 2272 
L 2419 4013 
L 2944 4013 
z
" transform="scale(0.015625)"/>
      </defs>
      <use xlink:href="#DejaVuSans-2b"/>
      <use xlink:href="#DejaVuSans-31" x="83.789062"/>
      <use xlink:href="#DejaVuSans-20" x="147.412109"/>
      <use xlink:href="#DejaVuSans-73" x="179.199219"/>
      <use xlink:href="#DejaVuSans-64" x="231.298828"/>
     </g>
    </g>
    <g id="line2d_38">
     <path d="M 66.6 98.604813 
L 76.6 98.604813 
L 86.6 98.604813 
" style="fill: none; stroke: #ff0000; stroke-width: 1.5; stroke-linecap: square"/>
    </g>
    <g id="text_22">
     <!-- best -->
     <g transform="translate(94.6 102.104813)scale(0.1 -0.1)">
      <use xlink:href="#DejaVuSans-62"/>
      <use xlink:href="#DejaVuSans-65" x="63.476562"/>
      <use xlink:href="#DejaVuSans-73" x="125"/>
      <use xlink:href="#DejaVuSans-74" x="177.099609"/>
     </g>
    </g>
   </g>
  </g>
 </g>
 <defs>
  <clipPath id="p577e91c874">
   <rect x="57.6" y="41.472" width="357.12" height="266.112"/>
  </clipPath>
 </defs>
</svg>
