<?xml version="1.0" encoding="UTF-8" standalone="no"?>
<!DOCTYPE svg PUBLIC "-//W3C//DTD SVG 1.1//EN"
 "http://www.w3.org/Graphics/SVG/1.1/DTD/svg11.dtd">
<!-- Generated by graphviz version 6.0.1 (20220911.1526)
 -->
<!-- Pages: 1 -->
<svg width="2223pt" height="323pt"
 viewBox="0.00 0.00 2223.18 323.24" xmlns="http://www.w3.org/2000/svg" xmlns:xlink="http://www.w3.org/1999/xlink">
<g id="graph0" class="graph" transform="scale(1 1) rotate(0) translate(4 319.24)">
<polygon fill="white" stroke="none" points="-4,4 -4,-319.24 2219.18,-319.24 2219.18,4 -4,4"/>
<!-- GHOST1 X -->
<g id="node1" class="node">
<title>GHOST1 X</title>
<ellipse fill="lightcoral" stroke="black" cx="558.75" cy="-146.31" rx="43.27" ry="43.27"/>
<text text-anchor="middle" x="558.75" y="-144.11" font-family="Times New Roman,serif" font-size="9.00">GHOST1 X</text>
</g>
<!-- DOWN -->
<g id="node23" class="node">
<title>DOWN</title>
<ellipse fill="lightblue" stroke="black" cx="896.75" cy="-31.82" rx="31.64" ry="31.64"/>
<text text-anchor="middle" x="896.75" y="-29.62" font-family="Times New Roman,serif" font-size="9.00">DOWN</text>
</g>
<!-- GHOST1 X&#45;&gt;DOWN -->
<g id="edge1" class="edge">
<title>GHOST1 X&#45;&gt;DOWN</title>
<path fill="none" stroke="red" stroke-width="0.32" d="M589.67,-115.8C597.64,-109.57 606.58,-103.68 615.75,-99.64 710.83,-57.74 749.27,-99.61 846.75,-63.64 855.17,-60.53 863.71,-55.92 871.29,-51.2"/>
</g>
<!-- RIGHT -->
<g id="node24" class="node">
<title>RIGHT</title>
<ellipse fill="lightblue" stroke="black" cx="805.75" cy="-31.82" rx="31.64" ry="31.64"/>
<text text-anchor="middle" x="805.75" y="-29.62" font-family="Times New Roman,serif" font-size="9.00">RIGHT</text>
</g>
<!-- GHOST1 X&#45;&gt;RIGHT -->
<g id="edge2" class="edge">
<title>GHOST1 X&#45;&gt;RIGHT</title>
<path fill="none" stroke="red" stroke-width="0.46" d="M590.56,-116.74C598.43,-110.56 607.1,-104.44 615.75,-99.64 668.33,-70.45 736.02,-50.32 774.79,-40.25"/>
</g>
<!-- LEFT -->
<g id="node25" class="node">
<title>LEFT</title>
<ellipse fill="lightblue" stroke="black" cx="1296.75" cy="-31.82" rx="26.74" ry="26.74"/>
<text text-anchor="middle" x="1296.75" y="-29.62" font-family="Times New Roman,serif" font-size="9.00">LEFT</text>
</g>
<!-- GHOST1 X&#45;&gt;LEFT -->
<g id="edge3" class="edge">
<title>GHOST1 X&#45;&gt;LEFT</title>
<path fill="none" stroke="green" stroke-width="0.29" d="M595.14,-123C611.04,-114.28 630.26,-105.08 648.75,-99.64 709.17,-81.86 1155.05,-44.43 1269.85,-35.01"/>
</g>
<!-- GHOST1 Y -->
<g id="node2" class="node">
<title>GHOST1 Y</title>
<ellipse fill="lightcoral" stroke="black" cx="208.75" cy="-146.31" rx="42.35" ry="42.35"/>
<text text-anchor="middle" x="208.75" y="-144.11" font-family="Times New Roman,serif" font-size="9.00">GHOST1 Y</text>
</g>
<!-- GHOST1 Y&#45;&gt;DOWN -->
<g id="edge4" class="edge">
<title>GHOST1 Y&#45;&gt;DOWN</title>
<path fill="none" stroke="red" stroke-width="0.17" d="M237.2,-114.49C244.29,-108.56 252.31,-103.12 260.75,-99.64 381.37,-49.92 722.38,-103.05 846.75,-63.64 855.4,-60.9 864.08,-56.34 871.72,-51.55"/>
</g>
<!-- GHOST1 Y&#45;&gt;RIGHT -->
<g id="edge5" class="edge">
<title>GHOST1 Y&#45;&gt;RIGHT</title>
<path fill="none" stroke="green" stroke-width="0.34" d="M237.36,-114.86C244.45,-108.92 252.42,-103.37 260.75,-99.64 353.72,-57.97 671.39,-39.3 773.71,-34.27"/>
</g>
<!-- GHOST2 X -->
<g id="node3" class="node">
<title>GHOST2 X</title>
<ellipse fill="lightcoral" stroke="black" cx="1088.75" cy="-146.31" rx="43.27" ry="43.27"/>
<text text-anchor="middle" x="1088.75" y="-144.11" font-family="Times New Roman,serif" font-size="9.00">GHOST2 X</text>
</g>
<!-- UP -->
<g id="node22" class="node">
<title>UP</title>
<ellipse fill="lightblue" stroke="black" cx="1451.75" cy="-31.82" rx="20.51" ry="20.51"/>
<text text-anchor="middle" x="1451.75" y="-29.62" font-family="Times New Roman,serif" font-size="9.00">UP</text>
</g>
<!-- GHOST2 X&#45;&gt;UP -->
<g id="edge6" class="edge">
<title>GHOST2 X&#45;&gt;UP</title>
<path fill="none" stroke="red" stroke-width="0.7" d="M1118.46,-115.03C1125.59,-109.15 1133.54,-103.59 1141.75,-99.64 1219.58,-62.16 1248.44,-82.48 1332.75,-63.64 1367.95,-55.77 1408.53,-44.86 1432.05,-38.35"/>
</g>
<!-- GHOST2 X&#45;&gt;DOWN -->
<g id="edge7" class="edge">
<title>GHOST2 X&#45;&gt;DOWN</title>
<path fill="none" stroke="red" stroke-width="0.18" d="M1057.97,-115.83C1051.24,-110.1 1043.97,-104.4 1036.75,-99.64 1000.89,-75.99 955.37,-55.87 926.14,-44.06"/>
</g>
<!-- GHOST2 X&#45;&gt;RIGHT -->
<g id="edge8" class="edge">
<title>GHOST2 X&#45;&gt;RIGHT</title>
<path fill="none" stroke="red" stroke-width="0.6" d="M1059.08,-114.61C1052.22,-108.9 1044.61,-103.52 1036.75,-99.64 963.2,-63.34 932.09,-93.63 855.75,-63.64 847.4,-60.36 838.88,-55.69 831.3,-50.98"/>
</g>
<!-- GHOST2 X&#45;&gt;LEFT -->
<g id="edge9" class="edge">
<title>GHOST2 X&#45;&gt;LEFT</title>
<path fill="none" stroke="green" stroke-width="0.43" d="M1119.75,-115.87C1126.69,-110.08 1134.23,-104.34 1141.75,-99.64 1184.48,-72.9 1239.76,-51.93 1271.44,-41.05"/>
</g>
<!-- GHOST2 Y -->
<g id="node4" class="node">
<title>GHOST2 Y</title>
<ellipse fill="lightcoral" stroke="black" cx="699.75" cy="-146.31" rx="42.35" ry="42.35"/>
<text text-anchor="middle" x="699.75" y="-144.11" font-family="Times New Roman,serif" font-size="9.00">GHOST2 Y</text>
</g>
<!-- GHOST2 Y&#45;&gt;DOWN -->
<g id="edge10" class="edge">
<title>GHOST2 Y&#45;&gt;DOWN</title>
<path fill="none" stroke="green" stroke-width="0.34" d="M729.3,-115.55C735.99,-109.78 743.33,-104.13 750.75,-99.64 789.73,-76.03 805.83,-83.69 846.75,-63.64 854.72,-59.74 863.04,-54.93 870.56,-50.28"/>
</g>
<!-- GHOST2 Y&#45;&gt;RIGHT -->
<g id="edge11" class="edge">
<title>GHOST2 Y&#45;&gt;RIGHT</title>
<path fill="none" stroke="red" stroke-width="0.2" d="M728.43,-114.87C745.97,-96.26 768.04,-72.84 784.11,-55.79"/>
</g>
<!-- GHOST2 Y&#45;&gt;LEFT -->
<g id="edge12" class="edge">
<title>GHOST2 Y&#45;&gt;LEFT</title>
<path fill="none" stroke="green" stroke-width="0.12" d="M728.01,-114.63C734.89,-108.77 742.63,-103.32 750.75,-99.64 798.52,-77.96 1166.6,-44.26 1269.88,-35.16"/>
</g>
<!-- GHOST3 X -->
<g id="node5" class="node">
<title>GHOST3 X</title>
<ellipse fill="lightcoral" stroke="black" cx="629.75" cy="-272.11" rx="43.27" ry="43.27"/>
<text text-anchor="middle" x="629.75" y="-269.91" font-family="Times New Roman,serif" font-size="9.00">GHOST3 X</text>
</g>
<!-- GHOST3 X&#45;&gt;DOWN -->
<g id="edge13" class="edge">
<title>GHOST3 X&#45;&gt;DOWN</title>
<path fill="none" stroke="green" stroke-width="0.1" d="M621.68,-229.44C616.79,-190.73 616.67,-134.03 648.75,-99.64 709.76,-34.23 763.23,-95.66 846.75,-63.64 855.13,-60.43 863.65,-55.78 871.24,-51.07"/>
</g>
<!-- GHOST3 X&#45;&gt;LEFT -->
<g id="edge14" class="edge">
<title>GHOST3 X&#45;&gt;LEFT</title>
<path fill="none" stroke="red" stroke-width="1.03" d="M672.91,-271.1C856.11,-270.6 1563.01,-264.06 1628.75,-192.98 1656.92,-162.52 1655.45,-131.39 1628.75,-99.64 1598.69,-63.91 1467.44,-73.23 1421.75,-63.64 1387.19,-56.38 1347.67,-46.34 1322.48,-39.72"/>
</g>
<!-- 825 -->
<g id="node27" class="node">
<title>825</title>
<ellipse fill="lightgreen" stroke="black" cx="126.75" cy="-146.31" rx="21.43" ry="21.43"/>
<text text-anchor="middle" x="126.75" y="-144.11" font-family="Times New Roman,serif" font-size="9.00">825</text>
</g>
<!-- GHOST3 X&#45;&gt;825 -->
<g id="edge65" class="edge">
<title>GHOST3 X&#45;&gt;825</title>
<path fill="none" stroke="green" stroke-width="0.34" d="M587.15,-264.51C472.75,-246.74 166.84,-198.8 157.75,-192.98 147.74,-186.57 140.15,-175.66 134.99,-166.1"/>
</g>
<!-- GHOST3 Y -->
<g id="node6" class="node">
<title>GHOST3 Y</title>
<ellipse fill="lightcoral" stroke="black" cx="1400.75" cy="-146.31" rx="42.35" ry="42.35"/>
<text text-anchor="middle" x="1400.75" y="-144.11" font-family="Times New Roman,serif" font-size="9.00">GHOST3 Y</text>
</g>
<!-- GHOST3 Y&#45;&gt;UP -->
<g id="edge15" class="edge">
<title>GHOST3 Y&#45;&gt;UP</title>
<path fill="none" stroke="red" stroke-width="0.23" d="M1418.02,-107.23C1426.68,-88.1 1436.78,-65.85 1443.65,-50.69"/>
</g>
<!-- GHOST3 Y&#45;&gt;RIGHT -->
<g id="edge16" class="edge">
<title>GHOST3 Y&#45;&gt;RIGHT</title>
<path fill="none" stroke="green" stroke-width="0.13" d="M1372.27,-114.56C1365.18,-108.63 1357.17,-103.17 1348.75,-99.64 1146.12,-14.74 1064.79,-131.21 855.75,-63.64 847.11,-60.85 838.44,-56.27 830.8,-51.49"/>
</g>
<!-- GHOST4 X -->
<g id="node7" class="node">
<title>GHOST4 X</title>
<ellipse fill="lightcoral" stroke="black" cx="984.75" cy="-146.31" rx="43.27" ry="43.27"/>
<text text-anchor="middle" x="984.75" y="-144.11" font-family="Times New Roman,serif" font-size="9.00">GHOST4 X</text>
</g>
<!-- GHOST4 X&#45;&gt;UP -->
<g id="edge17" class="edge">
<title>GHOST4 X&#45;&gt;UP</title>
<path fill="none" stroke="red" stroke-width="0.13" d="M1013.92,-114.39C1020.86,-108.62 1028.63,-103.27 1036.75,-99.64 1157.71,-45.5 1202.54,-88.31 1332.75,-63.64 1368.19,-56.93 1408.7,-45.65 1432.14,-38.75"/>
</g>
<!-- GHOST4 X&#45;&gt;DOWN -->
<g id="edge18" class="edge">
<title>GHOST4 X&#45;&gt;DOWN</title>
<path fill="none" stroke="green" stroke-width="0.29" d="M958.58,-111.86C944.9,-94.38 928.46,-73.35 915.96,-57.38"/>
</g>
<!-- GHOST4 X&#45;&gt;RIGHT -->
<g id="edge19" class="edge">
<title>GHOST4 X&#45;&gt;RIGHT</title>
<path fill="none" stroke="green" stroke-width="0.79" d="M954,-115.78C947.27,-110.06 939.99,-104.37 932.75,-99.64 901.13,-78.97 888.99,-81.58 855.75,-63.64 847.94,-59.43 839.67,-54.52 832.14,-49.87"/>
</g>
<!-- GHOST4 X&#45;&gt;LEFT -->
<g id="edge20" class="edge">
<title>GHOST4 X&#45;&gt;LEFT</title>
<path fill="none" stroke="green" stroke-width="0.26" d="M1014.59,-114.94C1021.43,-109.21 1028.99,-103.74 1036.75,-99.64 1115.25,-58.16 1220.89,-41.41 1269.81,-35.56"/>
</g>
<!-- GHOST4 Y -->
<g id="node8" class="node">
<title>GHOST4 Y</title>
<ellipse fill="lightcoral" stroke="black" cx="2142.75" cy="-146.31" rx="42.35" ry="42.35"/>
<text text-anchor="middle" x="2142.75" y="-144.11" font-family="Times New Roman,serif" font-size="9.00">GHOST4 Y</text>
</g>
<!-- GHOST4 Y&#45;&gt;UP -->
<g id="edge21" class="edge">
<title>GHOST4 Y&#45;&gt;UP</title>
<path fill="none" stroke="red" stroke-width="0.15" d="M2114.18,-114.75C2107.1,-108.81 2099.11,-103.3 2090.75,-99.64 1975.66,-49.28 1568.39,-35.81 1472.21,-33.3"/>
</g>
<!-- GHOST4 Y&#45;&gt;LEFT -->
<g id="edge22" class="edge">
<title>GHOST4 Y&#45;&gt;LEFT</title>
<path fill="none" stroke="red" stroke-width="0.4" d="M2114.32,-114.44C2107.22,-108.51 2099.2,-103.09 2090.75,-99.64 1952.89,-43.42 1569.01,-85.56 1421.75,-63.64 1386.82,-58.44 1347.39,-47.92 1322.32,-40.63"/>
</g>
<!-- GHOST5 X -->
<g id="node9" class="node">
<title>GHOST5 X</title>
<ellipse fill="lightcoral" stroke="black" cx="312.75" cy="-146.31" rx="43.27" ry="43.27"/>
<text text-anchor="middle" x="312.75" y="-144.11" font-family="Times New Roman,serif" font-size="9.00">GHOST5 X</text>
</g>
<!-- GHOST5 X&#45;&gt;DOWN -->
<g id="edge23" class="edge">
<title>GHOST5 X&#45;&gt;DOWN</title>
<path fill="none" stroke="red" stroke-width="0.25" d="M341.8,-114.1C348.75,-108.35 356.55,-103.08 364.75,-99.64 562.81,-16.46 642.4,-129.88 846.75,-63.64 855.38,-60.84 864.06,-56.26 871.7,-51.48"/>
</g>
<!-- GHOST5 X&#45;&gt;RIGHT -->
<g id="edge24" class="edge">
<title>GHOST5 X&#45;&gt;RIGHT</title>
<path fill="none" stroke="red" stroke-width="0.11" d="M342,-114.57C348.94,-108.79 356.69,-103.39 364.75,-99.64 438.12,-65.5 685.62,-42.57 774.03,-35.3"/>
</g>
<!-- GHOST5 Y -->
<g id="node10" class="node">
<title>GHOST5 Y</title>
<ellipse fill="lightcoral" stroke="black" cx="1192.75" cy="-146.31" rx="42.35" ry="42.35"/>
<text text-anchor="middle" x="1192.75" y="-144.11" font-family="Times New Roman,serif" font-size="9.00">GHOST5 Y</text>
</g>
<!-- GHOST5 Y&#45;&gt;UP -->
<g id="edge25" class="edge">
<title>GHOST5 Y&#45;&gt;UP</title>
<path fill="none" stroke="red" stroke-width="0.4" d="M1222.22,-115.78C1229.2,-109.85 1236.91,-104.09 1244.75,-99.64 1277.83,-80.85 1387.08,-50.24 1432.1,-38.06"/>
</g>
<!-- GHOST5 Y&#45;&gt;DOWN -->
<g id="edge26" class="edge">
<title>GHOST5 Y&#45;&gt;DOWN</title>
<path fill="none" stroke="red" stroke-width="0.49" d="M1163.42,-115.51C1156.43,-109.6 1148.68,-103.91 1140.75,-99.64 1070.37,-61.74 976.74,-43.96 928.48,-36.84"/>
</g>
<!-- GHOST5 Y&#45;&gt;RIGHT -->
<g id="edge27" class="edge">
<title>GHOST5 Y&#45;&gt;RIGHT</title>
<path fill="none" stroke="red" stroke-width="1.13" d="M1164.13,-114.89C1157.04,-108.94 1149.07,-103.39 1140.75,-99.64 1024.34,-47.21 976.15,-106.1 855.75,-63.64 847.29,-60.66 838.73,-56.08 831.15,-51.36"/>
</g>
<!-- GHOST5 Y&#45;&gt;LEFT -->
<g id="edge28" class="edge">
<title>GHOST5 Y&#45;&gt;LEFT</title>
<path fill="none" stroke="red" stroke-width="0.27" d="M1221.17,-114.57C1239.57,-94.67 1262.97,-69.35 1278.83,-52.21"/>
</g>
<!-- GHOST6 X -->
<g id="node11" class="node">
<title>GHOST6 X</title>
<ellipse fill="lightcoral" stroke="black" cx="416.75" cy="-146.31" rx="43.27" ry="43.27"/>
<text text-anchor="middle" x="416.75" y="-144.11" font-family="Times New Roman,serif" font-size="9.00">GHOST6 X</text>
</g>
<!-- GHOST6 X&#45;&gt;RIGHT -->
<g id="edge29" class="edge">
<title>GHOST6 X&#45;&gt;RIGHT</title>
<path fill="none" stroke="red" stroke-width="0.81" d="M447.8,-116.08C455.77,-109.85 464.67,-103.88 473.75,-99.64 576.56,-51.61 713.05,-38.02 774,-34.24"/>
</g>
<!-- GHOST6 X&#45;&gt;LEFT -->
<g id="edge30" class="edge">
<title>GHOST6 X&#45;&gt;LEFT</title>
<path fill="none" stroke="green" stroke-width="0.19" d="M453.09,-122.82C468.98,-114.07 488.21,-104.9 506.75,-99.64 691.67,-47.17 746.21,-79.86 937.75,-63.64 1061.79,-53.13 1209.92,-40.34 1269.73,-35.16"/>
</g>
<!-- GHOST6 Y -->
<g id="node12" class="node">
<title>GHOST6 Y</title>
<ellipse fill="lightcoral" stroke="black" cx="307.75" cy="-272.11" rx="42.35" ry="42.35"/>
<text text-anchor="middle" x="307.75" y="-269.91" font-family="Times New Roman,serif" font-size="9.00">GHOST6 Y</text>
</g>
<!-- GHOST6 Y&#45;&gt;UP -->
<g id="edge31" class="edge">
<title>GHOST6 Y&#45;&gt;UP</title>
<path fill="none" stroke="green" stroke-width="0.46" d="M349.17,-262.9C401.98,-252.83 496.23,-236.21 577.75,-228.98 622.47,-225.01 2162.36,-225.08 2193.75,-192.98 2222.75,-163.32 2221.74,-130.26 2193.75,-99.64 2143.68,-44.86 1587.05,-34.6 1472.35,-33.06"/>
</g>
<!-- GHOST6 Y&#45;&gt;DOWN -->
<g id="edge32" class="edge">
<title>GHOST6 Y&#45;&gt;DOWN</title>
<path fill="none" stroke="red" stroke-width="0.36" d="M348.83,-260.3C384.75,-248.94 436.14,-227.78 468.75,-192.98 499.37,-160.29 470.95,-126.56 506.75,-99.64 567.47,-53.97 774.84,-88.18 846.75,-63.64 855.24,-60.74 863.8,-56.19 871.38,-51.47"/>
</g>
<!-- GHOST6 Y&#45;&gt;RIGHT -->
<g id="edge33" class="edge">
<title>GHOST6 Y&#45;&gt;RIGHT</title>
<path fill="none" stroke="green" stroke-width="0.24" d="M265.16,-269.04C215.28,-264.05 134.69,-247.48 96.75,-192.98 73.05,-158.93 68.83,-130.32 96.75,-99.64 142.88,-48.95 641.07,-35.94 773.55,-33.37"/>
</g>
<!-- GHOST6 Y&#45;&gt;825 -->
<g id="edge63" class="edge">
<title>GHOST6 Y&#45;&gt;825</title>
<path fill="none" stroke="green" stroke-width="0.12" d="M268.17,-256.82C235.88,-243.76 190.43,-222.07 157.75,-192.98 149.02,-185.2 141.57,-174.47 136.16,-165.36"/>
</g>
<!-- GHOST7 X -->
<g id="node13" class="node">
<title>GHOST7 X</title>
<ellipse fill="lightcoral" stroke="black" cx="1296.75" cy="-146.31" rx="43.27" ry="43.27"/>
<text text-anchor="middle" x="1296.75" y="-144.11" font-family="Times New Roman,serif" font-size="9.00">GHOST7 X</text>
</g>
<!-- GHOST7 X&#45;&gt;UP -->
<g id="edge34" class="edge">
<title>GHOST7 X&#45;&gt;UP</title>
<path fill="none" stroke="red" stroke-width="0.13" d="M1328.42,-116.84C1335.31,-110.98 1342.67,-104.97 1349.75,-99.64 1378.33,-78.11 1413.62,-55.89 1434.32,-43.27"/>
</g>
<!-- GHOST7 X&#45;&gt;DOWN -->
<g id="edge35" class="edge">
<title>GHOST7 X&#45;&gt;DOWN</title>
<path fill="none" stroke="red" stroke-width="0.13" d="M1266.74,-114.82C1259.68,-109.02 1251.84,-103.56 1243.75,-99.64 1136.34,-47.66 991.84,-36.09 928.61,-33.54"/>
</g>
<!-- GHOST7 X&#45;&gt;RIGHT -->
<g id="edge36" class="edge">
<title>GHOST7 X&#45;&gt;RIGHT</title>
<path fill="none" stroke="green" stroke-width="0.43" d="M1267.3,-114.45C1260.15,-108.6 1252.13,-103.2 1243.75,-99.64 1084.36,-31.9 1020.01,-118.52 855.75,-63.64 847.24,-60.8 838.67,-56.27 831.09,-51.54"/>
</g>
<!-- GHOST7 X&#45;&gt;LEFT -->
<g id="edge37" class="edge">
<title>GHOST7 X&#45;&gt;LEFT</title>
<path fill="none" stroke="green" stroke-width="1.26" d="M1296.75,-103.1C1296.75,-88.26 1296.75,-72.03 1296.75,-58.91"/>
</g>
<!-- GHOST7 Y -->
<g id="node14" class="node">
<title>GHOST7 Y</title>
<ellipse fill="lightcoral" stroke="black" cx="1829.75" cy="-146.31" rx="42.35" ry="42.35"/>
<text text-anchor="middle" x="1829.75" y="-144.11" font-family="Times New Roman,serif" font-size="9.00">GHOST7 Y</text>
</g>
<!-- GHOST7 Y&#45;&gt;UP -->
<g id="edge38" class="edge">
<title>GHOST7 Y&#45;&gt;UP</title>
<path fill="none" stroke="red" stroke-width="0.35" d="M1800.98,-114.87C1794.18,-109.07 1786.61,-103.59 1778.75,-99.64 1672.37,-46.14 1526.06,-35.48 1472.48,-33.35"/>
</g>
<!-- GHOST7 Y&#45;&gt;DOWN -->
<g id="edge39" class="edge">
<title>GHOST7 Y&#45;&gt;DOWN</title>
<path fill="none" stroke="green" stroke-width="0.65" d="M1801.63,-114.31C1794.74,-108.47 1786.96,-103.11 1778.75,-99.64 1672.46,-54.72 1375.8,-72.51 1260.75,-63.64 1137.76,-54.16 991.54,-41.29 928.38,-35.66"/>
</g>
<!-- GHOST7 Y&#45;&gt;LEFT -->
<g id="edge40" class="edge">
<title>GHOST7 Y&#45;&gt;LEFT</title>
<path fill="none" stroke="green" stroke-width="0.14" d="M1801.55,-114.5C1794.66,-108.65 1786.9,-103.24 1778.75,-99.64 1632.84,-35.28 1578.89,-90.8 1421.75,-63.64 1386.95,-57.63 1347.49,-47.3 1322.38,-40.27"/>
</g>
<!-- GHOST8 X -->
<g id="node15" class="node">
<title>GHOST8 X</title>
<ellipse fill="lightcoral" stroke="black" cx="2038.75" cy="-146.31" rx="43.27" ry="43.27"/>
<text text-anchor="middle" x="2038.75" y="-144.11" font-family="Times New Roman,serif" font-size="9.00">GHOST8 X</text>
</g>
<!-- GHOST8 X&#45;&gt;UP -->
<g id="edge41" class="edge">
<title>GHOST8 X&#45;&gt;UP</title>
<path fill="none" stroke="red" stroke-width="0.18" d="M2009.57,-114.41C2002.62,-108.64 1994.86,-103.29 1986.75,-99.64 1891.88,-56.99 1558.5,-38.03 1472.25,-33.77"/>
</g>
<!-- GHOST8 X&#45;&gt;DOWN -->
<g id="edge42" class="edge">
<title>GHOST8 X&#45;&gt;DOWN</title>
<path fill="none" stroke="red" stroke-width="0.6" d="M2009.77,-113.95C2002.81,-108.2 1994.99,-102.98 1986.75,-99.64 1911.9,-69.3 1341.33,-69.05 1260.75,-63.64 1137.67,-55.38 991.5,-41.88 928.37,-35.87"/>
</g>
<!-- GHOST8 X&#45;&gt;LEFT -->
<g id="edge43" class="edge">
<title>GHOST8 X&#45;&gt;LEFT</title>
<path fill="none" stroke="red" stroke-width="0.22" d="M2009.73,-114.03C2002.78,-108.29 1994.97,-103.04 1986.75,-99.64 1870.49,-51.56 1546.1,-82.77 1421.75,-63.64 1386.84,-58.27 1347.41,-47.79 1322.33,-40.55"/>
</g>
<!-- GHOST8 Y -->
<g id="node16" class="node">
<title>GHOST8 Y</title>
<ellipse fill="lightcoral" stroke="black" cx="1503.75" cy="-146.31" rx="42.35" ry="42.35"/>
<text text-anchor="middle" x="1503.75" y="-144.11" font-family="Times New Roman,serif" font-size="9.00">GHOST8 Y</text>
</g>
<!-- GHOST8 Y&#45;&gt;UP -->
<g id="edge44" class="edge">
<title>GHOST8 Y&#45;&gt;UP</title>
<path fill="none" stroke="red" stroke-width="0.29" d="M1486.29,-107.54C1477.44,-88.39 1467.1,-66.03 1460.06,-50.79"/>
</g>
<!-- GHOST8 Y&#45;&gt;DOWN -->
<g id="edge45" class="edge">
<title>GHOST8 Y&#45;&gt;DOWN</title>
<path fill="none" stroke="red" stroke-width="0.5" d="M1475.14,-114.85C1468.06,-108.9 1460.09,-103.37 1451.75,-99.64 1403.74,-78.18 1039.17,-45.16 928.5,-35.54"/>
</g>
<!-- GHOST8 Y&#45;&gt;RIGHT -->
<g id="edge46" class="edge">
<title>GHOST8 Y&#45;&gt;RIGHT</title>
<path fill="none" stroke="red" stroke-width="0.42" d="M1475.3,-114.48C1468.21,-108.55 1460.19,-103.12 1451.75,-99.64 1329.05,-49.13 982.26,-103.66 855.75,-63.64 847.1,-60.9 838.42,-56.34 830.77,-51.56"/>
</g>
<!-- GHOST8 Y&#45;&gt;LEFT -->
<g id="edge47" class="edge">
<title>GHOST8 Y&#45;&gt;LEFT</title>
<path fill="none" stroke="red" stroke-width="0.4" d="M1473.67,-116.09C1466.78,-110.21 1459.26,-104.39 1451.75,-99.64 1409.15,-72.7 1353.82,-51.8 1322.1,-40.98"/>
</g>
<!-- PACMAN X -->
<g id="node17" class="node">
<title>PACMAN X</title>
<ellipse fill="lightcoral" stroke="black" cx="1722.75" cy="-146.31" rx="46.84" ry="46.84"/>
<text text-anchor="middle" x="1722.75" y="-144.11" font-family="Times New Roman,serif" font-size="9.00">PACMAN X</text>
</g>
<!-- PACMAN X&#45;&gt;UP -->
<g id="edge48" class="edge">
<title>PACMAN X&#45;&gt;UP</title>
<path fill="none" stroke="red" stroke-width="0.31" d="M1687.29,-115.67C1679.22,-109.83 1670.45,-104.12 1661.75,-99.64 1596.09,-65.85 1510.08,-45.03 1471.71,-36.83"/>
</g>
<!-- PACMAN X&#45;&gt;RIGHT -->
<g id="edge49" class="edge">
<title>PACMAN X&#45;&gt;RIGHT</title>
<path fill="none" stroke="red" stroke-width="0.4" d="M1682.95,-121.53C1666.71,-113.03 1647.39,-104.39 1628.75,-99.64 1462.11,-57.2 1020.06,-114.37 855.75,-63.64 847.08,-60.96 838.39,-56.42 830.75,-51.64"/>
</g>
<!-- PACMAN X&#45;&gt;LEFT -->
<g id="edge50" class="edge">
<title>PACMAN X&#45;&gt;LEFT</title>
<path fill="none" stroke="green" stroke-width="0.69" d="M1688.12,-114.84C1679.93,-108.97 1670.9,-103.46 1661.75,-99.64 1562.23,-58.06 1527.56,-84.57 1421.75,-63.64 1387.11,-56.79 1347.61,-46.65 1322.45,-39.9"/>
</g>
<!-- PACMAN Y -->
<g id="node18" class="node">
<title>PACMAN Y</title>
<ellipse fill="lightcoral" stroke="black" cx="805.75" cy="-146.31" rx="45.92" ry="45.92"/>
<text text-anchor="middle" x="805.75" y="-144.11" font-family="Times New Roman,serif" font-size="9.00">PACMAN Y</text>
</g>
<!-- PACMAN Y&#45;&gt;UP -->
<g id="edge51" class="edge">
<title>PACMAN Y&#45;&gt;UP</title>
<path fill="none" stroke="green" stroke-width="0.33" d="M837.91,-113.18C844.93,-107.79 852.7,-102.9 860.75,-99.64 958.26,-60.18 1228.98,-80.89 1332.75,-63.64 1368.33,-57.72 1408.79,-46.19 1432.19,-39.03"/>
</g>
<!-- PACMAN Y&#45;&gt;DOWN -->
<g id="edge52" class="edge">
<title>PACMAN Y&#45;&gt;DOWN</title>
<path fill="none" stroke="green" stroke-width="0.17" d="M834.29,-110.03C848.16,-92.89 864.47,-72.72 876.95,-57.29"/>
</g>
<!-- PACMAN Y&#45;&gt;RIGHT -->
<g id="edge53" class="edge">
<title>PACMAN Y&#45;&gt;RIGHT</title>
<path fill="none" stroke="red" stroke-width="0.89" d="M805.75,-100.2C805.75,-87.98 805.75,-75.02 805.75,-63.77"/>
</g>
<!-- PACMAN Y&#45;&gt;LEFT -->
<g id="edge54" class="edge">
<title>PACMAN Y&#45;&gt;LEFT</title>
<path fill="none" stroke="red" stroke-width="0.14" d="M838.11,-113.66C845.12,-108.23 852.82,-103.2 860.75,-99.64 1004.63,-34.95 1199.27,-31.1 1269.81,-32.07"/>
</g>
<!-- ND X -->
<g id="node19" class="node">
<title>ND X</title>
<ellipse fill="lightcoral" stroke="black" cx="1591.75" cy="-146.31" rx="27.65" ry="27.65"/>
<text text-anchor="middle" x="1591.75" y="-144.11" font-family="Times New Roman,serif" font-size="9.00">ND X</text>
</g>
<!-- ND X&#45;&gt;LEFT -->
<g id="edge55" class="edge">
<title>ND X&#45;&gt;LEFT</title>
<path fill="none" stroke="red" stroke-width="0.87" d="M1577.55,-122.2C1571.45,-113.99 1563.67,-105.38 1554.75,-99.64 1549.76,-96.43 1387.32,-55.51 1322.79,-39.34"/>
</g>
<!-- ND Y -->
<g id="node20" class="node">
<title>ND Y</title>
<ellipse fill="lightcoral" stroke="black" cx="896.75" cy="-146.31" rx="26.74" ry="26.74"/>
<text text-anchor="middle" x="896.75" y="-144.11" font-family="Times New Roman,serif" font-size="9.00">ND Y</text>
</g>
<!-- ND Y&#45;&gt;UP -->
<g id="edge56" class="edge">
<title>ND Y&#45;&gt;UP</title>
<path fill="none" stroke="red" stroke-width="0.14" d="M909.32,-122.37C915.26,-113.77 923.16,-104.83 932.75,-99.64 1011.22,-57.13 1244.81,-78.88 1332.75,-63.64 1368.29,-57.48 1408.76,-46.02 1432.17,-38.95"/>
</g>
<!-- ND Y&#45;&gt;DOWN -->
<g id="edge57" class="edge">
<title>ND Y&#45;&gt;DOWN</title>
<path fill="none" stroke="red" stroke-width="0.19" d="M896.75,-119.22C896.75,-102.73 896.75,-81.34 896.75,-63.97"/>
</g>
<!-- ND Y&#45;&gt;RIGHT -->
<g id="edge58" class="edge">
<title>ND Y&#45;&gt;RIGHT</title>
<path fill="none" stroke="green" stroke-width="0.64" d="M880.35,-124.32C874.24,-116.54 867.21,-107.66 860.75,-99.64 849.25,-85.36 836.22,-69.52 825.73,-56.84"/>
</g>
<!-- ND Y&#45;&gt;LEFT -->
<g id="edge59" class="edge">
<title>ND Y&#45;&gt;LEFT</title>
<path fill="none" stroke="red" stroke-width="0.15" d="M909.9,-122.33C915.84,-113.94 923.58,-105.16 932.75,-99.64 990.19,-65.02 1195.98,-42.43 1270,-35.27"/>
</g>
<!-- IN_INTERS -->
<g id="node21" class="node">
<title>IN_INTERS</title>
<ellipse fill="lightcoral" stroke="black" cx="1933.75" cy="-146.31" rx="43.68" ry="43.68"/>
<text text-anchor="middle" x="1933.75" y="-144.11" font-family="Times New Roman,serif" font-size="9.00">IN_INTERS</text>
</g>
<!-- IN_INTERS&#45;&gt;UP -->
<g id="edge60" class="edge">
<title>IN_INTERS&#45;&gt;UP</title>
<path fill="none" stroke="red" stroke-width="0.99" d="M1903.56,-114.36C1896.57,-108.67 1888.8,-103.36 1880.75,-99.64 1735.69,-32.61 1536.68,-30.77 1472.56,-32.12"/>
</g>
<!-- IN_INTERS&#45;&gt;DOWN -->
<g id="edge61" class="edge">
<title>IN_INTERS&#45;&gt;DOWN</title>
<path fill="none" stroke="green" stroke-width="0.85" d="M1904.11,-113.99C1897.02,-108.25 1889.08,-103.01 1880.75,-99.64 1752.82,-47.86 1398.41,-73.46 1260.75,-63.64 1137.71,-54.86 991.52,-41.63 928.37,-35.78"/>
</g>
<!-- IN_INTERS&#45;&gt;LEFT -->
<g id="edge62" class="edge">
<title>IN_INTERS&#45;&gt;LEFT</title>
<path fill="none" stroke="green" stroke-width="0.46" d="M1903.77,-113.89C1896.76,-108.23 1888.93,-103.05 1880.75,-99.64 1786.3,-60.29 1522.76,-79.94 1421.75,-63.64 1386.88,-58.01 1347.44,-47.59 1322.35,-40.44"/>
</g>
<!-- 1094 -->
<g id="node26" class="node">
<title>1094</title>
<ellipse fill="lightgreen" stroke="black" cx="24.75" cy="-146.31" rx="25" ry="25"/>
<text text-anchor="middle" x="24.75" y="-144.11" font-family="Times New Roman,serif" font-size="9.00">1094</text>
</g>
<!-- 1094&#45;&gt;RIGHT -->
<g id="edge67" class="edge">
<title>1094&#45;&gt;RIGHT</title>
<path fill="none" stroke="red" stroke-width="0.71" d="M37,-124.73C43.68,-115.43 52.82,-105.29 63.75,-99.64 190.29,-34.26 648.32,-31.92 773.78,-32.54"/>
</g>
<!-- 825&#45;&gt;DOWN -->
<g id="edge66" class="edge">
<title>825&#45;&gt;DOWN</title>
<path fill="none" stroke="red" stroke-width="0.47" d="M134.47,-126.53C139.56,-116.72 147.23,-105.57 157.75,-99.64 291.31,-24.35 700.38,-109.28 846.75,-63.64 855.41,-60.94 864.1,-56.39 871.74,-51.61"/>
</g>
<!-- 825&#45;&gt;RIGHT -->
<g id="edge64" class="edge">
<title>825&#45;&gt;RIGHT</title>
<path fill="none" stroke="green" stroke-width="0.14" d="M134.84,-126.27C139.96,-116.64 147.55,-105.73 157.75,-99.64 263.45,-36.48 658.16,-32.42 773.75,-32.62"/>
</g>
</g>
</svg>
