<?xml version="1.0" encoding="utf-8" standalone="no"?>
<!DOCTYPE svg PUBLIC "-//W3C//DTD SVG 1.1//EN"
  "http://www.w3.org/Graphics/SVG/1.1/DTD/svg11.dtd">
<svg xmlns:xlink="http://www.w3.org/1999/xlink" width="460.8pt" height="345.6pt" viewBox="0 0 460.8 345.6" xmlns="http://www.w3.org/2000/svg" version="1.1">
 <metadata>
  <rdf:RDF xmlns:dc="http://purl.org/dc/elements/1.1/" xmlns:cc="http://creativecommons.org/ns#" xmlns:rdf="http://www.w3.org/1999/02/22-rdf-syntax-ns#">
   <cc:Work>
    <dc:type rdf:resource="http://purl.org/dc/dcmitype/StillImage"/>
    <dc:date>2022-06-26T14:17:47.703114</dc:date>
    <dc:format>image/svg+xml</dc:format>
    <dc:creator>
     <cc:Agent>
      <dc:title>Matplotlib v3.5.2, https://matplotlib.org/</dc:title>
     </cc:Agent>
    </dc:creator>
   </cc:Work>
  </rdf:RDF>
 </metadata>
 <defs>
  <style type="text/css">*{stroke-linejoin: round; stroke-linecap: butt}</style>
 </defs>
 <g id="figure_1">
  <g id="patch_1">
   <path d="M 0 345.6 
L 460.8 345.6 
L 460.8 0 
L 0 0 
z
" style="fill: #ffffff"/>
  </g>
  <g id="axes_1">
   <g id="patch_2">
    <path d="M 57.6 307.584 
L 414.72 307.584 
L 414.72 41.472 
L 57.6 41.472 
z
" style="fill: #ffffff"/>
   </g>
   <g id="matplotlib.axis_1">
    <g id="xtick_1">
     <g id="line2d_1">
      <path d="M 73.832727 307.584 
L 73.832727 41.472 
" clip-path="url(#p4ee2f5a986)" style="fill: none; stroke: #b0b0b0; stroke-width: 0.8; stroke-linecap: square"/>
     </g>
     <g id="line2d_2">
      <defs>
       <path id="mbabb8d715d" d="M 0 0 
L 0 3.5 
" style="stroke: #000000; stroke-width: 0.8"/>
      </defs>
      <g>
       <use xlink:href="#mbabb8d715d" x="73.832727" y="307.584" style="stroke: #000000; stroke-width: 0.8"/>
      </g>
     </g>
     <g id="text_1">
      <!-- 0 -->
      <g transform="translate(70.651477 322.182437)scale(0.1 -0.1)">
       <defs>
        <path id="DejaVuSans-30" d="M 2034 4250 
Q 1547 4250 1301 3770 
Q 1056 3291 1056 2328 
Q 1056 1369 1301 889 
Q 1547 409 2034 409 
Q 2525 409 2770 889 
Q 3016 1369 3016 2328 
Q 3016 3291 2770 3770 
Q 2525 4250 2034 4250 
z
M 2034 4750 
Q 2819 4750 3233 4129 
Q 3647 3509 3647 2328 
Q 3647 1150 3233 529 
Q 2819 -91 2034 -91 
Q 1250 -91 836 529 
Q 422 1150 422 2328 
Q 422 3509 836 4129 
Q 1250 4750 2034 4750 
z
" transform="scale(0.015625)"/>
       </defs>
       <use xlink:href="#DejaVuSans-30"/>
      </g>
     </g>
    </g>
    <g id="xtick_2">
     <g id="line2d_3">
      <path d="M 114.618474 307.584 
L 114.618474 41.472 
" clip-path="url(#p4ee2f5a986)" style="fill: none; stroke: #b0b0b0; stroke-width: 0.8; stroke-linecap: square"/>
     </g>
     <g id="line2d_4">
      <g>
       <use xlink:href="#mbabb8d715d" x="114.618474" y="307.584" style="stroke: #000000; stroke-width: 0.8"/>
      </g>
     </g>
     <g id="text_2">
      <!-- 25 -->
      <g transform="translate(108.255974 322.182437)scale(0.1 -0.1)">
       <defs>
        <path id="DejaVuSans-32" d="M 1228 531 
L 3431 531 
L 3431 0 
L 469 0 
L 469 531 
Q 828 903 1448 1529 
Q 2069 2156 2228 2338 
Q 2531 2678 2651 2914 
Q 2772 3150 2772 3378 
Q 2772 3750 2511 3984 
Q 2250 4219 1831 4219 
Q 1534 4219 1204 4116 
Q 875 4013 500 3803 
L 500 4441 
Q 881 4594 1212 4672 
Q 1544 4750 1819 4750 
Q 2544 4750 2975 4387 
Q 3406 4025 3406 3419 
Q 3406 3131 3298 2873 
Q 3191 2616 2906 2266 
Q 2828 2175 2409 1742 
Q 1991 1309 1228 531 
z
" transform="scale(0.015625)"/>
        <path id="DejaVuSans-35" d="M 691 4666 
L 3169 4666 
L 3169 4134 
L 1269 4134 
L 1269 2991 
Q 1406 3038 1543 3061 
Q 1681 3084 1819 3084 
Q 2600 3084 3056 2656 
Q 3513 2228 3513 1497 
Q 3513 744 3044 326 
Q 2575 -91 1722 -91 
Q 1428 -91 1123 -41 
Q 819 9 494 109 
L 494 744 
Q 775 591 1075 516 
Q 1375 441 1709 441 
Q 2250 441 2565 725 
Q 2881 1009 2881 1497 
Q 2881 1984 2565 2268 
Q 2250 2553 1709 2553 
Q 1456 2553 1204 2497 
Q 953 2441 691 2322 
L 691 4666 
z
" transform="scale(0.015625)"/>
       </defs>
       <use xlink:href="#DejaVuSans-32"/>
       <use xlink:href="#DejaVuSans-35" x="63.623047"/>
      </g>
     </g>
    </g>
    <g id="xtick_3">
     <g id="line2d_5">
      <path d="M 155.404221 307.584 
L 155.404221 41.472 
" clip-path="url(#p4ee2f5a986)" style="fill: none; stroke: #b0b0b0; stroke-width: 0.8; stroke-linecap: square"/>
     </g>
     <g id="line2d_6">
      <g>
       <use xlink:href="#mbabb8d715d" x="155.404221" y="307.584" style="stroke: #000000; stroke-width: 0.8"/>
      </g>
     </g>
     <g id="text_3">
      <!-- 50 -->
      <g transform="translate(149.041721 322.182437)scale(0.1 -0.1)">
       <use xlink:href="#DejaVuSans-35"/>
       <use xlink:href="#DejaVuSans-30" x="63.623047"/>
      </g>
     </g>
    </g>
    <g id="xtick_4">
     <g id="line2d_7">
      <path d="M 196.189968 307.584 
L 196.189968 41.472 
" clip-path="url(#p4ee2f5a986)" style="fill: none; stroke: #b0b0b0; stroke-width: 0.8; stroke-linecap: square"/>
     </g>
     <g id="line2d_8">
      <g>
       <use xlink:href="#mbabb8d715d" x="196.189968" y="307.584" style="stroke: #000000; stroke-width: 0.8"/>
      </g>
     </g>
     <g id="text_4">
      <!-- 75 -->
      <g transform="translate(189.827468 322.182437)scale(0.1 -0.1)">
       <defs>
        <path id="DejaVuSans-37" d="M 525 4666 
L 3525 4666 
L 3525 4397 
L 1831 0 
L 1172 0 
L 2766 4134 
L 525 4134 
L 525 4666 
z
" transform="scale(0.015625)"/>
       </defs>
       <use xlink:href="#DejaVuSans-37"/>
       <use xlink:href="#DejaVuSans-35" x="63.623047"/>
      </g>
     </g>
    </g>
    <g id="xtick_5">
     <g id="line2d_9">
      <path d="M 236.975715 307.584 
L 236.975715 41.472 
" clip-path="url(#p4ee2f5a986)" style="fill: none; stroke: #b0b0b0; stroke-width: 0.8; stroke-linecap: square"/>
     </g>
     <g id="line2d_10">
      <g>
       <use xlink:href="#mbabb8d715d" x="236.975715" y="307.584" style="stroke: #000000; stroke-width: 0.8"/>
      </g>
     </g>
     <g id="text_5">
      <!-- 100 -->
      <g transform="translate(227.431965 322.182437)scale(0.1 -0.1)">
       <defs>
        <path id="DejaVuSans-31" d="M 794 531 
L 1825 531 
L 1825 4091 
L 703 3866 
L 703 4441 
L 1819 4666 
L 2450 4666 
L 2450 531 
L 3481 531 
L 3481 0 
L 794 0 
L 794 531 
z
" transform="scale(0.015625)"/>
       </defs>
       <use xlink:href="#DejaVuSans-31"/>
       <use xlink:href="#DejaVuSans-30" x="63.623047"/>
       <use xlink:href="#DejaVuSans-30" x="127.246094"/>
      </g>
     </g>
    </g>
    <g id="xtick_6">
     <g id="line2d_11">
      <path d="M 277.761462 307.584 
L 277.761462 41.472 
" clip-path="url(#p4ee2f5a986)" style="fill: none; stroke: #b0b0b0; stroke-width: 0.8; stroke-linecap: square"/>
     </g>
     <g id="line2d_12">
      <g>
       <use xlink:href="#mbabb8d715d" x="277.761462" y="307.584" style="stroke: #000000; stroke-width: 0.8"/>
      </g>
     </g>
     <g id="text_6">
      <!-- 125 -->
      <g transform="translate(268.217712 322.182437)scale(0.1 -0.1)">
       <use xlink:href="#DejaVuSans-31"/>
       <use xlink:href="#DejaVuSans-32" x="63.623047"/>
       <use xlink:href="#DejaVuSans-35" x="127.246094"/>
      </g>
     </g>
    </g>
    <g id="xtick_7">
     <g id="line2d_13">
      <path d="M 318.547209 307.584 
L 318.547209 41.472 
" clip-path="url(#p4ee2f5a986)" style="fill: none; stroke: #b0b0b0; stroke-width: 0.8; stroke-linecap: square"/>
     </g>
     <g id="line2d_14">
      <g>
       <use xlink:href="#mbabb8d715d" x="318.547209" y="307.584" style="stroke: #000000; stroke-width: 0.8"/>
      </g>
     </g>
     <g id="text_7">
      <!-- 150 -->
      <g transform="translate(309.003459 322.182437)scale(0.1 -0.1)">
       <use xlink:href="#DejaVuSans-31"/>
       <use xlink:href="#DejaVuSans-35" x="63.623047"/>
       <use xlink:href="#DejaVuSans-30" x="127.246094"/>
      </g>
     </g>
    </g>
    <g id="xtick_8">
     <g id="line2d_15">
      <path d="M 359.332956 307.584 
L 359.332956 41.472 
" clip-path="url(#p4ee2f5a986)" style="fill: none; stroke: #b0b0b0; stroke-width: 0.8; stroke-linecap: square"/>
     </g>
     <g id="line2d_16">
      <g>
       <use xlink:href="#mbabb8d715d" x="359.332956" y="307.584" style="stroke: #000000; stroke-width: 0.8"/>
      </g>
     </g>
     <g id="text_8">
      <!-- 175 -->
      <g transform="translate(349.789206 322.182437)scale(0.1 -0.1)">
       <use xlink:href="#DejaVuSans-31"/>
       <use xlink:href="#DejaVuSans-37" x="63.623047"/>
       <use xlink:href="#DejaVuSans-35" x="127.246094"/>
      </g>
     </g>
    </g>
    <g id="xtick_9">
     <g id="line2d_17">
      <path d="M 400.118703 307.584 
L 400.118703 41.472 
" clip-path="url(#p4ee2f5a986)" style="fill: none; stroke: #b0b0b0; stroke-width: 0.8; stroke-linecap: square"/>
     </g>
     <g id="line2d_18">
      <g>
       <use xlink:href="#mbabb8d715d" x="400.118703" y="307.584" style="stroke: #000000; stroke-width: 0.8"/>
      </g>
     </g>
     <g id="text_9">
      <!-- 200 -->
      <g transform="translate(390.574953 322.182437)scale(0.1 -0.1)">
       <use xlink:href="#DejaVuSans-32"/>
       <use xlink:href="#DejaVuSans-30" x="63.623047"/>
       <use xlink:href="#DejaVuSans-30" x="127.246094"/>
      </g>
     </g>
    </g>
    <g id="text_10">
     <!-- Generations -->
     <g transform="translate(205.662344 335.860562)scale(0.1 -0.1)">
      <defs>
       <path id="DejaVuSans-47" d="M 3809 666 
L 3809 1919 
L 2778 1919 
L 2778 2438 
L 4434 2438 
L 4434 434 
Q 4069 175 3628 42 
Q 3188 -91 2688 -91 
Q 1594 -91 976 548 
Q 359 1188 359 2328 
Q 359 3472 976 4111 
Q 1594 4750 2688 4750 
Q 3144 4750 3555 4637 
Q 3966 4525 4313 4306 
L 4313 3634 
Q 3963 3931 3569 4081 
Q 3175 4231 2741 4231 
Q 1884 4231 1454 3753 
Q 1025 3275 1025 2328 
Q 1025 1384 1454 906 
Q 1884 428 2741 428 
Q 3075 428 3337 486 
Q 3600 544 3809 666 
z
" transform="scale(0.015625)"/>
       <path id="DejaVuSans-65" d="M 3597 1894 
L 3597 1613 
L 953 1613 
Q 991 1019 1311 708 
Q 1631 397 2203 397 
Q 2534 397 2845 478 
Q 3156 559 3463 722 
L 3463 178 
Q 3153 47 2828 -22 
Q 2503 -91 2169 -91 
Q 1331 -91 842 396 
Q 353 884 353 1716 
Q 353 2575 817 3079 
Q 1281 3584 2069 3584 
Q 2775 3584 3186 3129 
Q 3597 2675 3597 1894 
z
M 3022 2063 
Q 3016 2534 2758 2815 
Q 2500 3097 2075 3097 
Q 1594 3097 1305 2825 
Q 1016 2553 972 2059 
L 3022 2063 
z
" transform="scale(0.015625)"/>
       <path id="DejaVuSans-6e" d="M 3513 2113 
L 3513 0 
L 2938 0 
L 2938 2094 
Q 2938 2591 2744 2837 
Q 2550 3084 2163 3084 
Q 1697 3084 1428 2787 
Q 1159 2491 1159 1978 
L 1159 0 
L 581 0 
L 581 3500 
L 1159 3500 
L 1159 2956 
Q 1366 3272 1645 3428 
Q 1925 3584 2291 3584 
Q 2894 3584 3203 3211 
Q 3513 2838 3513 2113 
z
" transform="scale(0.015625)"/>
       <path id="DejaVuSans-72" d="M 2631 2963 
Q 2534 3019 2420 3045 
Q 2306 3072 2169 3072 
Q 1681 3072 1420 2755 
Q 1159 2438 1159 1844 
L 1159 0 
L 581 0 
L 581 3500 
L 1159 3500 
L 1159 2956 
Q 1341 3275 1631 3429 
Q 1922 3584 2338 3584 
Q 2397 3584 2469 3576 
Q 2541 3569 2628 3553 
L 2631 2963 
z
" transform="scale(0.015625)"/>
       <path id="DejaVuSans-61" d="M 2194 1759 
Q 1497 1759 1228 1600 
Q 959 1441 959 1056 
Q 959 750 1161 570 
Q 1363 391 1709 391 
Q 2188 391 2477 730 
Q 2766 1069 2766 1631 
L 2766 1759 
L 2194 1759 
z
M 3341 1997 
L 3341 0 
L 2766 0 
L 2766 531 
Q 2569 213 2275 61 
Q 1981 -91 1556 -91 
Q 1019 -91 701 211 
Q 384 513 384 1019 
Q 384 1609 779 1909 
Q 1175 2209 1959 2209 
L 2766 2209 
L 2766 2266 
Q 2766 2663 2505 2880 
Q 2244 3097 1772 3097 
Q 1472 3097 1187 3025 
Q 903 2953 641 2809 
L 641 3341 
Q 956 3463 1253 3523 
Q 1550 3584 1831 3584 
Q 2591 3584 2966 3190 
Q 3341 2797 3341 1997 
z
" transform="scale(0.015625)"/>
       <path id="DejaVuSans-74" d="M 1172 4494 
L 1172 3500 
L 2356 3500 
L 2356 3053 
L 1172 3053 
L 1172 1153 
Q 1172 725 1289 603 
Q 1406 481 1766 481 
L 2356 481 
L 2356 0 
L 1766 0 
Q 1100 0 847 248 
Q 594 497 594 1153 
L 594 3053 
L 172 3053 
L 172 3500 
L 594 3500 
L 594 4494 
L 1172 4494 
z
" transform="scale(0.015625)"/>
       <path id="DejaVuSans-69" d="M 603 3500 
L 1178 3500 
L 1178 0 
L 603 0 
L 603 3500 
z
M 603 4863 
L 1178 4863 
L 1178 4134 
L 603 4134 
L 603 4863 
z
" transform="scale(0.015625)"/>
       <path id="DejaVuSans-6f" d="M 1959 3097 
Q 1497 3097 1228 2736 
Q 959 2375 959 1747 
Q 959 1119 1226 758 
Q 1494 397 1959 397 
Q 2419 397 2687 759 
Q 2956 1122 2956 1747 
Q 2956 2369 2687 2733 
Q 2419 3097 1959 3097 
z
M 1959 3584 
Q 2709 3584 3137 3096 
Q 3566 2609 3566 1747 
Q 3566 888 3137 398 
Q 2709 -91 1959 -91 
Q 1206 -91 779 398 
Q 353 888 353 1747 
Q 353 2609 779 3096 
Q 1206 3584 1959 3584 
z
" transform="scale(0.015625)"/>
       <path id="DejaVuSans-73" d="M 2834 3397 
L 2834 2853 
Q 2591 2978 2328 3040 
Q 2066 3103 1784 3103 
Q 1356 3103 1142 2972 
Q 928 2841 928 2578 
Q 928 2378 1081 2264 
Q 1234 2150 1697 2047 
L 1894 2003 
Q 2506 1872 2764 1633 
Q 3022 1394 3022 966 
Q 3022 478 2636 193 
Q 2250 -91 1575 -91 
Q 1294 -91 989 -36 
Q 684 19 347 128 
L 347 722 
Q 666 556 975 473 
Q 1284 391 1588 391 
Q 1994 391 2212 530 
Q 2431 669 2431 922 
Q 2431 1156 2273 1281 
Q 2116 1406 1581 1522 
L 1381 1569 
Q 847 1681 609 1914 
Q 372 2147 372 2553 
Q 372 3047 722 3315 
Q 1072 3584 1716 3584 
Q 2034 3584 2315 3537 
Q 2597 3491 2834 3397 
z
" transform="scale(0.015625)"/>
      </defs>
      <use xlink:href="#DejaVuSans-47"/>
      <use xlink:href="#DejaVuSans-65" x="77.490234"/>
      <use xlink:href="#DejaVuSans-6e" x="139.013672"/>
      <use xlink:href="#DejaVuSans-65" x="202.392578"/>
      <use xlink:href="#DejaVuSans-72" x="263.916016"/>
      <use xlink:href="#DejaVuSans-61" x="305.029297"/>
      <use xlink:href="#DejaVuSans-74" x="366.308594"/>
      <use xlink:href="#DejaVuSans-69" x="405.517578"/>
      <use xlink:href="#DejaVuSans-6f" x="433.300781"/>
      <use xlink:href="#DejaVuSans-6e" x="494.482422"/>
      <use xlink:href="#DejaVuSans-73" x="557.861328"/>
     </g>
    </g>
   </g>
   <g id="matplotlib.axis_2">
    <g id="ytick_1">
     <g id="line2d_19">
      <path d="M 57.6 266.726187 
L 414.72 266.726187 
" clip-path="url(#p4ee2f5a986)" style="fill: none; stroke: #b0b0b0; stroke-width: 0.8; stroke-linecap: square"/>
     </g>
     <g id="line2d_20">
      <defs>
       <path id="m784b44cdf5" d="M 0 0 
L -3.5 0 
" style="stroke: #000000; stroke-width: 0.8"/>
      </defs>
      <g>
       <use xlink:href="#m784b44cdf5" x="57.6" y="266.726187" style="stroke: #000000; stroke-width: 0.8"/>
      </g>
     </g>
     <g id="text_11">
      <!-- 0 -->
      <g transform="translate(44.2375 270.525406)scale(0.1 -0.1)">
       <use xlink:href="#DejaVuSans-30"/>
      </g>
     </g>
    </g>
    <g id="ytick_2">
     <g id="line2d_21">
      <path d="M 57.6 209.163546 
L 414.72 209.163546 
" clip-path="url(#p4ee2f5a986)" style="fill: none; stroke: #b0b0b0; stroke-width: 0.8; stroke-linecap: square"/>
     </g>
     <g id="line2d_22">
      <g>
       <use xlink:href="#m784b44cdf5" x="57.6" y="209.163546" style="stroke: #000000; stroke-width: 0.8"/>
      </g>
     </g>
     <g id="text_12">
      <!-- 20 -->
      <g transform="translate(37.875 212.962764)scale(0.1 -0.1)">
       <use xlink:href="#DejaVuSans-32"/>
       <use xlink:href="#DejaVuSans-30" x="63.623047"/>
      </g>
     </g>
    </g>
    <g id="ytick_3">
     <g id="line2d_23">
      <path d="M 57.6 151.600904 
L 414.72 151.600904 
" clip-path="url(#p4ee2f5a986)" style="fill: none; stroke: #b0b0b0; stroke-width: 0.8; stroke-linecap: square"/>
     </g>
     <g id="line2d_24">
      <g>
       <use xlink:href="#m784b44cdf5" x="57.6" y="151.600904" style="stroke: #000000; stroke-width: 0.8"/>
      </g>
     </g>
     <g id="text_13">
      <!-- 40 -->
      <g transform="translate(37.875 155.400123)scale(0.1 -0.1)">
       <defs>
        <path id="DejaVuSans-34" d="M 2419 4116 
L 825 1625 
L 2419 1625 
L 2419 4116 
z
M 2253 4666 
L 3047 4666 
L 3047 1625 
L 3713 1625 
L 3713 1100 
L 3047 1100 
L 3047 0 
L 2419 0 
L 2419 1100 
L 313 1100 
L 313 1709 
L 2253 4666 
z
" transform="scale(0.015625)"/>
       </defs>
       <use xlink:href="#DejaVuSans-34"/>
       <use xlink:href="#DejaVuSans-30" x="63.623047"/>
      </g>
     </g>
    </g>
    <g id="ytick_4">
     <g id="line2d_25">
      <path d="M 57.6 94.038262 
L 414.72 94.038262 
" clip-path="url(#p4ee2f5a986)" style="fill: none; stroke: #b0b0b0; stroke-width: 0.8; stroke-linecap: square"/>
     </g>
     <g id="line2d_26">
      <g>
       <use xlink:href="#m784b44cdf5" x="57.6" y="94.038262" style="stroke: #000000; stroke-width: 0.8"/>
      </g>
     </g>
     <g id="text_14">
      <!-- 60 -->
      <g transform="translate(37.875 97.837481)scale(0.1 -0.1)">
       <defs>
        <path id="DejaVuSans-36" d="M 2113 2584 
Q 1688 2584 1439 2293 
Q 1191 2003 1191 1497 
Q 1191 994 1439 701 
Q 1688 409 2113 409 
Q 2538 409 2786 701 
Q 3034 994 3034 1497 
Q 3034 2003 2786 2293 
Q 2538 2584 2113 2584 
z
M 3366 4563 
L 3366 3988 
Q 3128 4100 2886 4159 
Q 2644 4219 2406 4219 
Q 1781 4219 1451 3797 
Q 1122 3375 1075 2522 
Q 1259 2794 1537 2939 
Q 1816 3084 2150 3084 
Q 2853 3084 3261 2657 
Q 3669 2231 3669 1497 
Q 3669 778 3244 343 
Q 2819 -91 2113 -91 
Q 1303 -91 875 529 
Q 447 1150 447 2328 
Q 447 3434 972 4092 
Q 1497 4750 2381 4750 
Q 2619 4750 2861 4703 
Q 3103 4656 3366 4563 
z
" transform="scale(0.015625)"/>
       </defs>
       <use xlink:href="#DejaVuSans-36"/>
       <use xlink:href="#DejaVuSans-30" x="63.623047"/>
      </g>
     </g>
    </g>
    <g id="text_15">
     <!-- Fitness -->
     <g transform="translate(31.795312 191.845187)rotate(-90)scale(0.1 -0.1)">
      <defs>
       <path id="DejaVuSans-46" d="M 628 4666 
L 3309 4666 
L 3309 4134 
L 1259 4134 
L 1259 2759 
L 3109 2759 
L 3109 2228 
L 1259 2228 
L 1259 0 
L 628 0 
L 628 4666 
z
" transform="scale(0.015625)"/>
      </defs>
      <use xlink:href="#DejaVuSans-46"/>
      <use xlink:href="#DejaVuSans-69" x="50.269531"/>
      <use xlink:href="#DejaVuSans-74" x="78.052734"/>
      <use xlink:href="#DejaVuSans-6e" x="117.261719"/>
      <use xlink:href="#DejaVuSans-65" x="180.640625"/>
      <use xlink:href="#DejaVuSans-73" x="242.164062"/>
      <use xlink:href="#DejaVuSans-73" x="294.263672"/>
     </g>
    </g>
   </g>
   <g id="line2d_27">
    <path d="M 73.832727 259.665804 
L 75.464157 262.03827 
L 77.095587 258.831657 
L 78.727017 261.283428 
L 80.358447 258.153257 
L 81.989877 260.57174 
L 85.252736 259.629672 
L 86.884166 262.357496 
L 88.515596 258.762438 
L 90.147026 259.742548 
L 91.778456 260.487267 
L 93.409886 256.852001 
L 95.041316 260.019044 
L 96.672746 261.080235 
L 98.304175 258.686819 
L 99.935605 261.026721 
L 101.567035 258.436806 
L 103.198465 261.911845 
L 104.829895 258.557005 
L 106.461325 261.130429 
L 108.092755 259.567714 
L 109.724185 261.365032 
L 111.355614 259.634125 
L 112.987044 261.502367 
L 114.618474 259.76796 
L 116.249904 256.698515 
L 117.881334 258.525301 
L 119.512764 259.874866 
L 121.144194 259.69046 
L 122.775624 260.26675 
L 124.407053 259.460097 
L 127.669913 250.990646 
L 129.301343 256.363317 
L 130.932773 253.249566 
L 132.564203 251.995233 
L 134.195633 251.746257 
L 135.827063 252.351221 
L 137.458492 251.615776 
L 139.089922 248.987898 
L 140.721352 251.4064 
L 142.352782 249.914369 
L 143.984212 252.61521 
L 145.615642 255.005918 
L 147.247072 250.214432 
L 150.509931 251.685835 
L 152.141361 250.459886 
L 153.772791 250.179593 
L 155.404221 251.820448 
L 157.035651 249.428876 
L 158.667081 250.74748 
L 160.298511 247.928105 
L 161.929941 246.178025 
L 163.56137 248.968697 
L 165.1928 247.924472 
L 166.82423 248.420164 
L 168.45566 247.002589 
L 170.08709 247.908285 
L 171.71852 246.526248 
L 173.34995 245.976774 
L 174.98138 247.415806 
L 176.61281 247.066274 
L 178.244239 245.342551 
L 179.875669 248.938396 
L 181.507099 248.013041 
L 183.138529 246.710731 
L 184.769959 247.166561 
L 186.401389 247.205606 
L 188.032819 244.536335 
L 189.664249 246.904932 
L 191.295678 245.439435 
L 192.927108 248.732112 
L 194.558538 246.074914 
L 196.189968 245.305727 
L 197.821398 247.42306 
L 199.452828 248.041425 
L 201.084258 247.078008 
L 202.715688 249.11462 
L 204.347117 247.899235 
L 205.978547 248.86881 
L 207.609977 248.558744 
L 209.241407 246.93326 
L 210.872837 248.331484 
L 212.504267 245.562529 
L 214.135697 247.639327 
L 215.767127 246.807588 
L 219.029986 244.356662 
L 220.661416 246.227171 
L 222.292846 245.196384 
L 223.924276 246.512395 
L 225.555706 246.373407 
L 227.187136 249.177684 
L 228.818566 247.821548 
L 230.449995 248.583146 
L 232.081425 248.164733 
L 233.712855 246.454542 
L 235.344285 245.158982 
L 236.975715 247.622819 
L 238.607145 249.506018 
L 240.238575 245.69972 
L 241.870005 248.025563 
L 243.501434 245.565409 
L 245.132864 247.11585 
L 246.764294 247.071568 
L 248.395724 246.593322 
L 250.027154 246.2822 
L 251.658584 245.82741 
L 253.290014 247.24497 
L 254.921444 248.129334 
L 256.552873 244.80788 
L 258.184303 248.943809 
L 259.815733 247.780508 
L 261.447163 244.944875 
L 263.078593 246.899297 
L 264.710023 244.248477 
L 266.341453 243.321072 
L 267.972883 247.350786 
L 269.604312 245.130844 
L 271.235742 244.963734 
L 272.867172 244.988529 
L 274.498602 247.208296 
L 277.761462 244.711346 
L 279.392892 243.182581 
L 281.024322 245.246228 
L 282.655751 245.958579 
L 284.287181 245.672593 
L 285.918611 246.43543 
L 287.550041 246.030513 
L 289.181471 246.033822 
L 290.812901 245.535382 
L 292.444331 246.32299 
L 294.075761 248.429286 
L 295.70719 246.899715 
L 297.33862 243.349273 
L 298.97005 244.281715 
L 300.60148 247.383522 
L 302.23291 245.479254 
L 303.86434 247.06038 
L 305.49577 245.321826 
L 307.1272 248.828068 
L 308.75863 242.938142 
L 310.390059 244.464536 
L 312.021489 245.582433 
L 313.652919 248.326955 
L 315.284349 245.369512 
L 316.915779 246.468409 
L 320.178639 247.551994 
L 321.810069 246.272463 
L 323.441498 248.090153 
L 325.072928 246.840774 
L 326.704358 246.164677 
L 328.335788 246.163229 
L 329.967218 245.90198 
L 331.598648 243.790027 
L 333.230078 248.060242 
L 334.861508 245.651888 
L 336.492937 243.661323 
L 338.124367 243.313698 
L 339.755797 243.105658 
L 341.387227 244.389245 
L 343.018657 243.846086 
L 344.650087 245.010551 
L 346.281517 246.723707 
L 347.912947 247.345819 
L 349.544376 246.077769 
L 351.175806 246.38749 
L 352.807236 247.386127 
L 354.438666 243.847984 
L 356.070096 244.512057 
L 357.701526 244.007854 
L 359.332956 246.855413 
L 360.964386 245.281866 
L 362.595815 241.865056 
L 365.858675 245.343909 
L 367.490105 245.056321 
L 369.121535 244.597154 
L 370.752965 246.130061 
L 372.384395 245.000399 
L 374.015825 243.411278 
L 375.647254 247.921806 
L 377.278684 243.487498 
L 378.910114 247.216084 
L 380.541544 243.844153 
L 382.172974 245.311832 
L 383.804404 246.967198 
L 385.435834 245.308694 
L 387.067264 246.061202 
L 388.698693 243.175121 
L 390.330123 244.29919 
L 391.961553 246.189371 
L 393.592983 245.312967 
L 395.224413 242.296265 
L 396.855843 244.414648 
L 398.487273 242.116568 
L 398.487273 242.116568 
" clip-path="url(#p4ee2f5a986)" style="fill: none; stroke: #0000ff; stroke-width: 1.5; stroke-linecap: square"/>
   </g>
   <g id="line2d_28">
    <path d="M 73.832727 288.009183 
L 75.464157 288.775444 
L 77.095587 284.812213 
L 78.727017 292.351384 
L 80.358447 286.573385 
L 81.989877 287.497907 
L 83.621307 291.217296 
L 85.252736 290.45103 
L 86.884166 290.351131 
L 88.515596 288.500658 
L 90.147026 288.20172 
L 91.778456 288.651447 
L 93.409886 288.844473 
L 95.041316 289.301632 
L 96.672746 290.85052 
L 98.304175 288.735655 
L 99.935605 289.128945 
L 101.567035 290.927433 
L 103.198465 292.488054 
L 104.829895 288.060664 
L 106.461325 289.263888 
L 108.092755 287.411721 
L 109.724185 292.709813 
L 111.355614 286.378565 
L 112.987044 295.488 
L 114.618474 292.120395 
L 116.249904 285.309788 
L 117.881334 289.076737 
L 119.512764 286.63823 
L 121.144194 287.607744 
L 122.775624 286.55945 
L 124.407053 286.844991 
L 126.038483 281.121327 
L 127.669913 277.181086 
L 129.301343 281.794105 
L 130.932773 281.172839 
L 132.564203 280.135398 
L 134.195633 280.907488 
L 135.827063 278.210151 
L 137.458492 279.132665 
L 139.089922 273.806771 
L 140.721352 281.699022 
L 142.352782 276.634744 
L 145.615642 279.315374 
L 147.247072 274.134268 
L 148.878502 271.736222 
L 150.509931 273.135745 
L 152.141361 273.468735 
L 153.772791 271.862876 
L 155.404221 276.115809 
L 157.035651 271.758218 
L 158.667081 271.982693 
L 160.298511 271.041858 
L 161.929941 272.648908 
L 163.56137 272.355482 
L 165.1928 267.252207 
L 166.82423 269.605635 
L 168.45566 268.146756 
L 170.08709 269.201083 
L 171.71852 268.522095 
L 173.34995 267.397228 
L 174.98138 265.521743 
L 176.61281 268.715983 
L 178.244239 262.906268 
L 179.875669 271.40969 
L 181.507099 267.485244 
L 183.138529 266.505121 
L 184.769959 268.393892 
L 186.401389 268.529 
L 188.032819 265.578596 
L 189.664249 270.497048 
L 191.295678 270.706099 
L 192.927108 274.02927 
L 194.558538 268.477189 
L 197.821398 267.549313 
L 199.452828 269.06771 
L 201.084258 269.034736 
L 202.715688 269.306569 
L 204.347117 270.113904 
L 205.978547 267.567081 
L 207.609977 270.80044 
L 209.241407 266.942409 
L 210.872837 272.926451 
L 212.504267 269.248936 
L 214.135697 271.06724 
L 215.767127 266.774652 
L 217.398556 269.748432 
L 219.029986 267.090991 
L 220.661416 266.146974 
L 222.292846 267.22782 
L 223.924276 266.531987 
L 225.555706 264.11115 
L 227.187136 271.4651 
L 228.818566 267.819384 
L 230.449995 270.114906 
L 232.081425 269.439517 
L 233.712855 265.817787 
L 235.344285 266.118628 
L 236.975715 264.819871 
L 238.607145 267.703089 
L 240.238575 265.778764 
L 241.870005 265.442564 
L 243.501434 265.68986 
L 245.132864 269.470526 
L 246.764294 266.346381 
L 248.395724 267.279186 
L 250.027154 267.12438 
L 251.658584 265.672552 
L 253.290014 268.209869 
L 254.921444 268.114611 
L 256.552873 265.988318 
L 258.184303 271.69759 
L 261.447163 265.277791 
L 263.078593 268.186906 
L 264.710023 262.702053 
L 266.341453 262.98115 
L 267.972883 265.045486 
L 269.604312 263.789146 
L 271.235742 267.069136 
L 272.867172 268.027164 
L 274.498602 266.873182 
L 276.130032 268.626929 
L 277.761462 265.47643 
L 279.392892 263.569638 
L 281.024322 265.179072 
L 282.655751 262.900258 
L 284.287181 266.744174 
L 285.918611 268.955574 
L 287.550041 267.011311 
L 289.181471 269.587792 
L 290.812901 266.60716 
L 292.444331 269.152154 
L 294.075761 272.101389 
L 295.70719 267.677899 
L 297.33862 269.831573 
L 298.97005 265.627674 
L 300.60148 270.26734 
L 302.23291 271.72634 
L 303.86434 269.911026 
L 305.49577 268.854734 
L 307.1272 271.066832 
L 308.75863 269.358238 
L 310.390059 268.555099 
L 312.021489 270.092756 
L 313.652919 269.500386 
L 315.284349 267.827763 
L 316.915779 273.346768 
L 318.547209 268.656472 
L 320.178639 270.34036 
L 321.810069 268.396658 
L 323.441498 270.218826 
L 325.072928 268.527147 
L 326.704358 266.008142 
L 328.335788 266.553127 
L 329.967218 269.297963 
L 331.598648 263.849484 
L 333.230078 274.148495 
L 334.861508 265.201655 
L 336.492937 270.868364 
L 338.124367 265.907913 
L 339.755797 265.718051 
L 341.387227 265.119093 
L 343.018657 269.365636 
L 344.650087 265.921031 
L 346.281517 268.249818 
L 347.912947 268.68826 
L 349.544376 265.866148 
L 351.175806 269.127327 
L 352.807236 267.984367 
L 354.438666 265.984906 
L 356.070096 266.702188 
L 357.701526 264.452026 
L 359.332956 268.43817 
L 360.964386 265.927543 
L 362.595815 259.078511 
L 364.227245 268.148841 
L 365.858675 262.864398 
L 367.490105 263.037813 
L 369.121535 262.641638 
L 370.752965 266.05697 
L 372.384395 267.507444 
L 374.015825 264.495476 
L 375.647254 264.792936 
L 377.278684 270.348226 
L 378.910114 270.335265 
L 380.541544 267.927998 
L 382.172974 265.743948 
L 383.804404 268.806397 
L 385.435834 265.557753 
L 387.067264 263.941651 
L 388.698693 263.352649 
L 390.330123 261.600023 
L 393.592983 268.427511 
L 395.224413 264.095201 
L 396.855843 264.210717 
L 398.487273 261.519869 
L 398.487273 261.519869 
" clip-path="url(#p4ee2f5a986)" style="fill: none; stroke-dasharray: 9.6,2.4,1.5,2.4; stroke-dashoffset: 0; stroke: #008000; stroke-width: 1.5"/>
   </g>
   <g id="line2d_29">
    <path d="M 73.832727 231.322424 
L 75.464157 235.301096 
L 78.727017 230.215472 
L 80.358447 229.733129 
L 81.989877 233.645572 
L 83.621307 228.951743 
L 85.252736 228.808314 
L 86.884166 234.363861 
L 88.515596 229.024218 
L 90.147026 231.283377 
L 91.778456 232.323088 
L 93.409886 224.859529 
L 95.041316 230.736456 
L 96.672746 231.309951 
L 98.304175 228.637983 
L 99.935605 232.924498 
L 101.567035 225.946178 
L 103.198465 231.335636 
L 104.829895 229.053346 
L 106.461325 232.99697 
L 108.092755 231.723706 
L 109.724185 230.020251 
L 111.355614 232.889685 
L 112.987044 227.516733 
L 114.618474 227.415525 
L 116.249904 228.087242 
L 117.881334 227.973865 
L 119.512764 233.111501 
L 121.144194 231.773176 
L 122.775624 233.974051 
L 124.407053 232.075202 
L 126.038483 229.256393 
L 127.669913 224.800206 
L 129.301343 230.93253 
L 130.932773 225.326293 
L 132.564203 223.855068 
L 134.195633 222.585027 
L 135.827063 226.492292 
L 137.458492 224.098887 
L 139.089922 224.169025 
L 140.721352 221.113777 
L 142.352782 223.193994 
L 143.984212 227.285513 
L 145.615642 230.696462 
L 147.247072 226.294595 
L 148.878502 230.122548 
L 150.509931 230.235925 
L 152.141361 227.451037 
L 153.772791 228.496309 
L 155.404221 227.525086 
L 157.035651 227.099534 
L 158.667081 229.512267 
L 160.298511 224.814353 
L 161.929941 219.707141 
L 163.56137 225.581913 
L 165.1928 228.596737 
L 168.45566 225.858423 
L 170.08709 226.615488 
L 171.71852 224.5304 
L 173.34995 224.55632 
L 174.98138 229.30987 
L 176.61281 225.416565 
L 178.244239 227.778834 
L 179.875669 226.467102 
L 181.507099 228.540838 
L 183.138529 226.91634 
L 184.769959 225.93923 
L 186.401389 225.882212 
L 188.032819 223.494075 
L 189.664249 223.312816 
L 191.295678 220.172771 
L 192.927108 223.434953 
L 194.558538 223.672639 
L 196.189968 222.58796 
L 197.821398 227.296808 
L 199.452828 227.015141 
L 201.084258 225.121281 
L 202.715688 228.922671 
L 204.347117 225.684565 
L 205.978547 230.170539 
L 207.609977 226.317048 
L 209.241407 226.924111 
L 210.872837 223.736517 
L 212.504267 221.876122 
L 214.135697 224.211413 
L 215.767127 226.840523 
L 217.398556 221.428999 
L 219.029986 221.622332 
L 220.661416 226.307368 
L 222.292846 223.164948 
L 223.924276 226.492804 
L 225.555706 228.635664 
L 227.187136 226.890268 
L 228.818566 227.823712 
L 230.449995 227.051386 
L 232.081425 226.88995 
L 233.712855 227.091297 
L 235.344285 224.199336 
L 236.975715 230.425766 
L 238.607145 231.308946 
L 240.238575 225.620676 
L 241.870005 230.608563 
L 243.501434 225.440959 
L 245.132864 224.761175 
L 246.764294 227.796754 
L 248.395724 225.907458 
L 250.027154 225.44002 
L 251.658584 225.982267 
L 253.290014 226.280072 
L 254.921444 228.144057 
L 256.552873 223.627442 
L 258.184303 226.190029 
L 259.815733 227.050738 
L 261.447163 224.611959 
L 263.078593 225.611688 
L 264.710023 225.794901 
L 266.341453 223.660994 
L 267.972883 229.656086 
L 269.604312 226.472542 
L 271.235742 222.858331 
L 272.867172 221.949894 
L 274.498602 227.543409 
L 276.130032 223.401154 
L 277.761462 223.946262 
L 279.392892 222.795523 
L 281.024322 225.313384 
L 282.655751 229.0169 
L 284.287181 224.601012 
L 285.918611 223.915285 
L 287.550041 225.049716 
L 289.181471 222.479851 
L 290.812901 224.463604 
L 292.444331 223.493826 
L 295.70719 226.121531 
L 297.33862 216.866972 
L 298.97005 222.935756 
L 300.60148 224.499704 
L 302.23291 219.232169 
L 303.86434 224.209734 
L 305.49577 221.788917 
L 307.1272 226.589305 
L 308.75863 216.518047 
L 310.390059 220.373974 
L 312.021489 221.072109 
L 313.652919 227.153523 
L 315.284349 222.91126 
L 316.915779 219.59005 
L 318.547209 225.441226 
L 321.810069 224.148269 
L 323.441498 225.961479 
L 325.072928 225.154401 
L 326.704358 226.321211 
L 328.335788 225.773331 
L 329.967218 222.505997 
L 331.598648 223.730569 
L 333.230078 221.971988 
L 334.861508 226.102122 
L 336.492937 216.454282 
L 338.124367 220.719483 
L 339.755797 220.493266 
L 341.387227 223.659398 
L 343.018657 218.326536 
L 344.650087 224.100071 
L 346.281517 225.197596 
L 347.912947 226.003378 
L 349.544376 226.28939 
L 351.175806 223.647654 
L 352.807236 226.787887 
L 354.438666 221.711063 
L 356.070096 222.321927 
L 357.701526 223.563682 
L 359.332956 225.272655 
L 360.964386 224.63619 
L 362.595815 224.651601 
L 364.227245 219.142374 
L 365.858675 227.823421 
L 367.490105 227.074829 
L 369.121535 226.552671 
L 370.752965 226.203153 
L 372.384395 222.493353 
L 374.015825 222.32708 
L 375.647254 231.050675 
L 377.278684 216.62677 
L 378.910114 224.096903 
L 380.541544 219.760309 
L 382.172974 224.879715 
L 383.804404 225.127999 
L 385.435834 225.059635 
L 387.067264 228.180753 
L 388.698693 222.997592 
L 390.330123 226.998357 
L 391.961553 227.465247 
L 393.592983 222.198423 
L 395.224413 220.497328 
L 396.855843 224.618578 
L 398.487273 222.713268 
L 398.487273 222.713268 
" clip-path="url(#p4ee2f5a986)" style="fill: none; stroke-dasharray: 9.6,2.4,1.5,2.4; stroke-dashoffset: 0; stroke: #008000; stroke-width: 1.5"/>
   </g>
   <g id="line2d_30">
    <path d="M 73.832727 158.394537 
L 75.464157 185.042642 
L 77.095587 151.123532 
L 78.727017 145.053539 
L 80.358447 149.456941 
L 81.989877 153.353879 
L 83.621307 144.687234 
L 85.252736 132.866765 
L 86.884166 180.410219 
L 88.515596 97.992924 
L 90.147026 178.347509 
L 91.778456 165.763985 
L 93.409886 53.568 
L 95.041316 183.617064 
L 96.672746 120.847173 
L 98.304175 144.299587 
L 99.935605 207.800981 
L 101.567035 119.95732 
L 103.198465 133.26171 
L 104.829895 151.248554 
L 106.461325 145.658605 
L 108.092755 145.728061 
L 109.724185 169.839675 
L 111.355614 141.547144 
L 112.987044 123.27552 
L 114.618474 171.05111 
L 116.249904 132.978457 
L 117.881334 120.063819 
L 119.512764 159.421045 
L 121.144194 176.855197 
L 122.775624 160.344827 
L 124.407053 150.182952 
L 126.038483 145.246358 
L 127.669913 146.449953 
L 129.301343 184.566736 
L 130.932773 176.287918 
L 132.564203 156.923661 
L 134.195633 154.601031 
L 135.827063 171.057514 
L 137.458492 145.685605 
L 139.089922 152.547832 
L 140.721352 80.152086 
L 142.352782 177.78519 
L 143.984212 162.501949 
L 145.615642 198.489766 
L 147.247072 164.350019 
L 148.878502 217.087073 
L 150.509931 200.171487 
L 152.141361 175.628793 
L 153.772791 193.845964 
L 155.404221 190.610229 
L 157.035651 179.54402 
L 158.667081 191.609393 
L 160.298511 146.739028 
L 161.929941 153.940649 
L 163.56137 158.600468 
L 165.1928 181.15821 
L 166.82423 169.645006 
L 168.45566 174.222007 
L 170.08709 179.979473 
L 171.71852 151.751433 
L 173.34995 170.307737 
L 174.98138 186.133061 
L 176.61281 149.387822 
L 178.244239 194.046206 
L 179.875669 148.811345 
L 181.507099 184.48405 
L 183.138529 197.703372 
L 184.769959 172.370275 
L 188.032819 159.954781 
L 189.664249 86.502378 
L 191.295678 105.302207 
L 192.927108 93.466488 
L 194.558538 155.071064 
L 196.189968 123.912258 
L 197.821398 150.434516 
L 199.452828 165.015761 
L 201.084258 115.387939 
L 202.715688 178.863638 
L 204.347117 167.254253 
L 205.978547 210.485072 
L 207.609977 195.9357 
L 209.241407 186.62469 
L 210.872837 128.352744 
L 212.504267 145.391473 
L 214.135697 113.829946 
L 215.767127 181.984209 
L 217.398556 165.819075 
L 219.029986 136.298909 
L 220.661416 155.949422 
L 222.292846 177.152912 
L 223.924276 177.774141 
L 225.555706 186.727805 
L 227.187136 169.610311 
L 228.818566 175.938312 
L 230.449995 170.732703 
L 232.081425 177.64787 
L 233.712855 134.974734 
L 235.344285 154.180592 
L 236.975715 214.846314 
L 238.607145 193.658007 
L 240.238575 161.676316 
L 241.870005 199.218056 
L 243.501434 152.602047 
L 245.132864 141.746931 
L 246.764294 182.748603 
L 248.395724 147.542496 
L 250.027154 147.141212 
L 251.658584 110.700194 
L 253.290014 154.756356 
L 254.921444 177.147916 
L 256.552873 112.258552 
L 258.184303 170.928444 
L 259.815733 104.400059 
L 261.447163 153.564327 
L 263.078593 158.384543 
L 264.710023 175.284062 
L 266.341453 179.207449 
L 267.972883 194.941873 
L 269.604312 175.153983 
L 271.235742 167.748523 
L 272.867172 141.457527 
L 274.498602 203.668476 
L 276.130032 165.546311 
L 277.761462 167.043651 
L 279.392892 170.463192 
L 281.024322 174.665484 
L 282.655751 174.012192 
L 284.287181 158.00981 
L 285.918611 122.459367 
L 287.550041 143.085033 
L 289.181471 125.742152 
L 290.812901 184.430741 
L 292.444331 153.268577 
L 294.075761 172.25226 
L 295.70719 149.345649 
L 297.33862 87.918016 
L 298.97005 165.867028 
L 300.60148 141.197044 
L 302.23291 130.876064 
L 303.86434 178.339321 
L 305.49577 138.827329 
L 307.1272 186.476521 
L 308.75863 92.94886 
L 310.390059 129.909732 
L 312.021489 78.723392 
L 313.652919 173.932527 
L 315.284349 139.371943 
L 316.915779 100.456356 
L 318.547209 121.860532 
L 320.178639 125.319688 
L 321.810069 164.09901 
L 323.441498 153.706033 
L 325.072928 166.42007 
L 326.704358 174.140758 
L 328.335788 147.870968 
L 329.967218 114.165885 
L 331.598648 162.577993 
L 333.230078 145.940116 
L 334.861508 189.604476 
L 336.492937 106.794568 
L 338.124367 149.714132 
L 339.755797 152.618223 
L 341.387227 178.864349 
L 343.018657 93.82126 
L 344.650087 177.934659 
L 346.281517 136.573452 
L 347.912947 165.244557 
L 349.544376 136.393341 
L 351.175806 165.597147 
L 352.807236 156.730809 
L 354.438666 168.235024 
L 356.070096 167.082097 
L 357.701526 165.188577 
L 359.332956 164.5118 
L 360.964386 134.769483 
L 362.595815 170.148083 
L 364.227245 129.499385 
L 365.858675 140.308538 
L 367.490105 173.655369 
L 369.121535 171.135384 
L 370.752965 138.122063 
L 372.384395 174.387043 
L 374.015825 139.141292 
L 375.647254 198.300147 
L 377.278684 116.784089 
L 378.910114 166.240039 
L 380.541544 64.326454 
L 382.172974 148.203653 
L 383.804404 131.837908 
L 385.435834 156.853357 
L 387.067264 192.620447 
L 388.698693 146.701742 
L 390.330123 181.164842 
L 391.961553 164.392314 
L 393.592983 164.529268 
L 395.224413 136.689322 
L 396.855843 145.608761 
L 398.487273 166.981192 
L 398.487273 166.981192 
" clip-path="url(#p4ee2f5a986)" style="fill: none; stroke: #ff0000; stroke-width: 1.5; stroke-linecap: square"/>
   </g>
   <g id="patch_3">
    <path d="M 57.6 307.584 
L 57.6 41.472 
" style="fill: none; stroke: #000000; stroke-width: 0.8; stroke-linejoin: miter; stroke-linecap: square"/>
   </g>
   <g id="patch_4">
    <path d="M 414.72 307.584 
L 414.72 41.472 
" style="fill: none; stroke: #000000; stroke-width: 0.8; stroke-linejoin: miter; stroke-linecap: square"/>
   </g>
   <g id="patch_5">
    <path d="M 57.6 307.584 
L 414.72 307.584 
" style="fill: none; stroke: #000000; stroke-width: 0.8; stroke-linejoin: miter; stroke-linecap: square"/>
   </g>
   <g id="patch_6">
    <path d="M 57.6 41.472 
L 414.72 41.472 
" style="fill: none; stroke: #000000; stroke-width: 0.8; stroke-linejoin: miter; stroke-linecap: square"/>
   </g>
   <g id="text_16">
    <!-- Population's average and best fitness -->
    <g transform="translate(123.529687 35.472)scale(0.12 -0.12)">
     <defs>
      <path id="DejaVuSans-50" d="M 1259 4147 
L 1259 2394 
L 2053 2394 
Q 2494 2394 2734 2622 
Q 2975 2850 2975 3272 
Q 2975 3691 2734 3919 
Q 2494 4147 2053 4147 
L 1259 4147 
z
M 628 4666 
L 2053 4666 
Q 2838 4666 3239 4311 
Q 3641 3956 3641 3272 
Q 3641 2581 3239 2228 
Q 2838 1875 2053 1875 
L 1259 1875 
L 1259 0 
L 628 0 
L 628 4666 
z
" transform="scale(0.015625)"/>
      <path id="DejaVuSans-70" d="M 1159 525 
L 1159 -1331 
L 581 -1331 
L 581 3500 
L 1159 3500 
L 1159 2969 
Q 1341 3281 1617 3432 
Q 1894 3584 2278 3584 
Q 2916 3584 3314 3078 
Q 3713 2572 3713 1747 
Q 3713 922 3314 415 
Q 2916 -91 2278 -91 
Q 1894 -91 1617 61 
Q 1341 213 1159 525 
z
M 3116 1747 
Q 3116 2381 2855 2742 
Q 2594 3103 2138 3103 
Q 1681 3103 1420 2742 
Q 1159 2381 1159 1747 
Q 1159 1113 1420 752 
Q 1681 391 2138 391 
Q 2594 391 2855 752 
Q 3116 1113 3116 1747 
z
" transform="scale(0.015625)"/>
      <path id="DejaVuSans-75" d="M 544 1381 
L 544 3500 
L 1119 3500 
L 1119 1403 
Q 1119 906 1312 657 
Q 1506 409 1894 409 
Q 2359 409 2629 706 
Q 2900 1003 2900 1516 
L 2900 3500 
L 3475 3500 
L 3475 0 
L 2900 0 
L 2900 538 
Q 2691 219 2414 64 
Q 2138 -91 1772 -91 
Q 1169 -91 856 284 
Q 544 659 544 1381 
z
M 1991 3584 
L 1991 3584 
z
" transform="scale(0.015625)"/>
      <path id="DejaVuSans-6c" d="M 603 4863 
L 1178 4863 
L 1178 0 
L 603 0 
L 603 4863 
z
" transform="scale(0.015625)"/>
      <path id="DejaVuSans-27" d="M 1147 4666 
L 1147 2931 
L 616 2931 
L 616 4666 
L 1147 4666 
z
" transform="scale(0.015625)"/>
      <path id="DejaVuSans-20" transform="scale(0.015625)"/>
      <path id="DejaVuSans-76" d="M 191 3500 
L 800 3500 
L 1894 563 
L 2988 3500 
L 3597 3500 
L 2284 0 
L 1503 0 
L 191 3500 
z
" transform="scale(0.015625)"/>
      <path id="DejaVuSans-67" d="M 2906 1791 
Q 2906 2416 2648 2759 
Q 2391 3103 1925 3103 
Q 1463 3103 1205 2759 
Q 947 2416 947 1791 
Q 947 1169 1205 825 
Q 1463 481 1925 481 
Q 2391 481 2648 825 
Q 2906 1169 2906 1791 
z
M 3481 434 
Q 3481 -459 3084 -895 
Q 2688 -1331 1869 -1331 
Q 1566 -1331 1297 -1286 
Q 1028 -1241 775 -1147 
L 775 -588 
Q 1028 -725 1275 -790 
Q 1522 -856 1778 -856 
Q 2344 -856 2625 -561 
Q 2906 -266 2906 331 
L 2906 616 
Q 2728 306 2450 153 
Q 2172 0 1784 0 
Q 1141 0 747 490 
Q 353 981 353 1791 
Q 353 2603 747 3093 
Q 1141 3584 1784 3584 
Q 2172 3584 2450 3431 
Q 2728 3278 2906 2969 
L 2906 3500 
L 3481 3500 
L 3481 434 
z
" transform="scale(0.015625)"/>
      <path id="DejaVuSans-64" d="M 2906 2969 
L 2906 4863 
L 3481 4863 
L 3481 0 
L 2906 0 
L 2906 525 
Q 2725 213 2448 61 
Q 2172 -91 1784 -91 
Q 1150 -91 751 415 
Q 353 922 353 1747 
Q 353 2572 751 3078 
Q 1150 3584 1784 3584 
Q 2172 3584 2448 3432 
Q 2725 3281 2906 2969 
z
M 947 1747 
Q 947 1113 1208 752 
Q 1469 391 1925 391 
Q 2381 391 2643 752 
Q 2906 1113 2906 1747 
Q 2906 2381 2643 2742 
Q 2381 3103 1925 3103 
Q 1469 3103 1208 2742 
Q 947 2381 947 1747 
z
" transform="scale(0.015625)"/>
      <path id="DejaVuSans-62" d="M 3116 1747 
Q 3116 2381 2855 2742 
Q 2594 3103 2138 3103 
Q 1681 3103 1420 2742 
Q 1159 2381 1159 1747 
Q 1159 1113 1420 752 
Q 1681 391 2138 391 
Q 2594 391 2855 752 
Q 3116 1113 3116 1747 
z
M 1159 2969 
Q 1341 3281 1617 3432 
Q 1894 3584 2278 3584 
Q 2916 3584 3314 3078 
Q 3713 2572 3713 1747 
Q 3713 922 3314 415 
Q 2916 -91 2278 -91 
Q 1894 -91 1617 61 
Q 1341 213 1159 525 
L 1159 0 
L 581 0 
L 581 4863 
L 1159 4863 
L 1159 2969 
z
" transform="scale(0.015625)"/>
      <path id="DejaVuSans-66" d="M 2375 4863 
L 2375 4384 
L 1825 4384 
Q 1516 4384 1395 4259 
Q 1275 4134 1275 3809 
L 1275 3500 
L 2222 3500 
L 2222 3053 
L 1275 3053 
L 1275 0 
L 697 0 
L 697 3053 
L 147 3053 
L 147 3500 
L 697 3500 
L 697 3744 
Q 697 4328 969 4595 
Q 1241 4863 1831 4863 
L 2375 4863 
z
" transform="scale(0.015625)"/>
     </defs>
     <use xlink:href="#DejaVuSans-50"/>
     <use xlink:href="#DejaVuSans-6f" x="56.677734"/>
     <use xlink:href="#DejaVuSans-70" x="117.859375"/>
     <use xlink:href="#DejaVuSans-75" x="181.335938"/>
     <use xlink:href="#DejaVuSans-6c" x="244.714844"/>
     <use xlink:href="#DejaVuSans-61" x="272.498047"/>
     <use xlink:href="#DejaVuSans-74" x="333.777344"/>
     <use xlink:href="#DejaVuSans-69" x="372.986328"/>
     <use xlink:href="#DejaVuSans-6f" x="400.769531"/>
     <use xlink:href="#DejaVuSans-6e" x="461.951172"/>
     <use xlink:href="#DejaVuSans-27" x="525.330078"/>
     <use xlink:href="#DejaVuSans-73" x="552.820312"/>
     <use xlink:href="#DejaVuSans-20" x="604.919922"/>
     <use xlink:href="#DejaVuSans-61" x="636.707031"/>
     <use xlink:href="#DejaVuSans-76" x="697.986328"/>
     <use xlink:href="#DejaVuSans-65" x="757.166016"/>
     <use xlink:href="#DejaVuSans-72" x="818.689453"/>
     <use xlink:href="#DejaVuSans-61" x="859.802734"/>
     <use xlink:href="#DejaVuSans-67" x="921.082031"/>
     <use xlink:href="#DejaVuSans-65" x="984.558594"/>
     <use xlink:href="#DejaVuSans-20" x="1046.082031"/>
     <use xlink:href="#DejaVuSans-61" x="1077.869141"/>
     <use xlink:href="#DejaVuSans-6e" x="1139.148438"/>
     <use xlink:href="#DejaVuSans-64" x="1202.527344"/>
     <use xlink:href="#DejaVuSans-20" x="1266.003906"/>
     <use xlink:href="#DejaVuSans-62" x="1297.791016"/>
     <use xlink:href="#DejaVuSans-65" x="1361.267578"/>
     <use xlink:href="#DejaVuSans-73" x="1422.791016"/>
     <use xlink:href="#DejaVuSans-74" x="1474.890625"/>
     <use xlink:href="#DejaVuSans-20" x="1514.099609"/>
     <use xlink:href="#DejaVuSans-66" x="1545.886719"/>
     <use xlink:href="#DejaVuSans-69" x="1581.091797"/>
     <use xlink:href="#DejaVuSans-74" x="1608.875"/>
     <use xlink:href="#DejaVuSans-6e" x="1648.083984"/>
     <use xlink:href="#DejaVuSans-65" x="1711.462891"/>
     <use xlink:href="#DejaVuSans-73" x="1772.986328"/>
     <use xlink:href="#DejaVuSans-73" x="1825.085938"/>
    </g>
   </g>
   <g id="legend_1">
    <g id="patch_7">
     <path d="M 199.689687 108.1845 
L 272.630313 108.1845 
Q 274.630313 108.1845 274.630313 106.1845 
L 274.630313 48.472 
Q 274.630313 46.472 272.630313 46.472 
L 199.689687 46.472 
Q 197.689687 46.472 197.689687 48.472 
L 197.689687 106.1845 
Q 197.689687 108.1845 199.689687 108.1845 
z
" style="fill: #ffffff; opacity: 0.8; stroke: #cccccc; stroke-linejoin: miter"/>
    </g>
    <g id="line2d_31">
     <path d="M 201.689687 54.570438 
L 211.689687 54.570438 
L 221.689687 54.570438 
" style="fill: none; stroke: #0000ff; stroke-width: 1.5; stroke-linecap: square"/>
    </g>
    <g id="text_17">
     <!-- average -->
     <g transform="translate(229.689687 58.070438)scale(0.1 -0.1)">
      <use xlink:href="#DejaVuSans-61"/>
      <use xlink:href="#DejaVuSans-76" x="61.279297"/>
      <use xlink:href="#DejaVuSans-65" x="120.458984"/>
      <use xlink:href="#DejaVuSans-72" x="181.982422"/>
      <use xlink:href="#DejaVuSans-61" x="223.095703"/>
      <use xlink:href="#DejaVuSans-67" x="284.375"/>
      <use xlink:href="#DejaVuSans-65" x="347.851562"/>
     </g>
    </g>
    <g id="line2d_32">
     <path d="M 201.689687 69.248563 
L 211.689687 69.248563 
L 221.689687 69.248563 
" style="fill: none; stroke-dasharray: 9.6,2.4,1.5,2.4; stroke-dashoffset: 0; stroke: #008000; stroke-width: 1.5"/>
    </g>
    <g id="text_18">
     <!-- -1 sd -->
     <g transform="translate(229.689687 72.748563)scale(0.1 -0.1)">
      <defs>
       <path id="DejaVuSans-2d" d="M 313 2009 
L 1997 2009 
L 1997 1497 
L 313 1497 
L 313 2009 
z
" transform="scale(0.015625)"/>
      </defs>
      <use xlink:href="#DejaVuSans-2d"/>
      <use xlink:href="#DejaVuSans-31" x="36.083984"/>
      <use xlink:href="#DejaVuSans-20" x="99.707031"/>
      <use xlink:href="#DejaVuSans-73" x="131.494141"/>
      <use xlink:href="#DejaVuSans-64" x="183.59375"/>
     </g>
    </g>
    <g id="line2d_33">
     <path d="M 201.689687 83.926688 
L 211.689687 83.926688 
L 221.689687 83.926688 
" style="fill: none; stroke-dasharray: 9.6,2.4,1.5,2.4; stroke-dashoffset: 0; stroke: #008000; stroke-width: 1.5"/>
    </g>
    <g id="text_19">
     <!-- +1 sd -->
     <g transform="translate(229.689687 87.426688)scale(0.1 -0.1)">
      <defs>
       <path id="DejaVuSans-2b" d="M 2944 4013 
L 2944 2272 
L 4684 2272 
L 4684 1741 
L 2944 1741 
L 2944 0 
L 2419 0 
L 2419 1741 
L 678 1741 
L 678 2272 
L 2419 2272 
L 2419 4013 
L 2944 4013 
z
" transform="scale(0.015625)"/>
      </defs>
      <use xlink:href="#DejaVuSans-2b"/>
      <use xlink:href="#DejaVuSans-31" x="83.789062"/>
      <use xlink:href="#DejaVuSans-20" x="147.412109"/>
      <use xlink:href="#DejaVuSans-73" x="179.199219"/>
      <use xlink:href="#DejaVuSans-64" x="231.298828"/>
     </g>
    </g>
    <g id="line2d_34">
     <path d="M 201.689687 98.604813 
L 211.689687 98.604813 
L 221.689687 98.604813 
" style="fill: none; stroke: #ff0000; stroke-width: 1.5; stroke-linecap: square"/>
    </g>
    <g id="text_20">
     <!-- best -->
     <g transform="translate(229.689687 102.104813)scale(0.1 -0.1)">
      <use xlink:href="#DejaVuSans-62"/>
      <use xlink:href="#DejaVuSans-65" x="63.476562"/>
      <use xlink:href="#DejaVuSans-73" x="125"/>
      <use xlink:href="#DejaVuSans-74" x="177.099609"/>
     </g>
    </g>
   </g>
  </g>
 </g>
 <defs>
  <clipPath id="p4ee2f5a986">
   <rect x="57.6" y="41.472" width="357.12" height="266.112"/>
  </clipPath>
 </defs>
</svg>
