<?xml version="1.0" encoding="UTF-8" standalone="no"?>
<!DOCTYPE svg PUBLIC "-//W3C//DTD SVG 1.1//EN"
 "http://www.w3.org/Graphics/SVG/1.1/DTD/svg11.dtd">
<!-- Generated by graphviz version 4.0.0 (20220529.0937)
 -->
<!-- Pages: 1 -->
<svg width="1090pt" height="170pt"
 viewBox="0.00 0.00 1090.37 170.12" xmlns="http://www.w3.org/2000/svg" xmlns:xlink="http://www.w3.org/1999/xlink">
<g id="graph0" class="graph" transform="scale(1 1) rotate(0) translate(4 166.12)">
<polygon fill="white" stroke="transparent" points="-4,4 -4,-166.12 1086.37,-166.12 1086.37,4 -4,4"/>
<!-- &#45;1 -->
<g id="node1" class="node">
<title>&#45;1</title>
<polygon fill="lightgray" stroke="black" points="123.18,-95.91 99.18,-95.91 99.18,-77.91 123.18,-77.91 123.18,-95.91"/>
<text text-anchor="middle" x="111.18" y="-84.71" font-family="Times New Roman,serif" font-size="9.00">&#45;1</text>
</g>
<!-- 0 -->
<g id="node19" class="node">
<title>0</title>
<ellipse fill="lightblue" stroke="black" cx="433.18" cy="-14.85" rx="14.7" ry="14.7"/>
<text text-anchor="middle" x="433.18" y="-12.65" font-family="Times New Roman,serif" font-size="9.00">0</text>
</g>
<!-- &#45;1&#45;&gt;0 -->
<g id="edge1" class="edge">
<title>&#45;1&#45;&gt;0</title>
<path fill="none" stroke="red" stroke-width="0.55" d="M117.7,-77.58C121.47,-73.34 126.57,-68.51 132.18,-65.7 225.65,-18.78 354,-14.58 407.82,-15.12"/>
<polygon fill="red" stroke="red" stroke-width="0.55" points="408.07,-18.62 418.13,-15.29 408.19,-11.62 408.07,-18.62"/>
</g>
<!-- 2 -->
<g id="node21" class="node">
<title>2</title>
<ellipse fill="lightblue" stroke="black" cx="601.18" cy="-14.85" rx="14.7" ry="14.7"/>
<text text-anchor="middle" x="601.18" y="-12.65" font-family="Times New Roman,serif" font-size="9.00">2</text>
</g>
<!-- &#45;1&#45;&gt;2 -->
<g id="edge2" class="edge">
<title>&#45;1&#45;&gt;2</title>
<path fill="none" stroke="red" stroke-width="0.46" d="M117.27,-77.84C121.04,-73.46 126.29,-68.41 132.18,-65.7 207.83,-30.89 422.5,-39.65 505.18,-29.7 529.47,-26.78 557.11,-22.71 576.48,-19.74"/>
<polygon fill="red" stroke="red" stroke-width="0.46" points="577.22,-23.17 586.57,-18.18 576.15,-16.25 577.22,-23.17"/>
</g>
<!-- 3 -->
<g id="node22" class="node">
<title>3</title>
<ellipse fill="lightblue" stroke="black" cx="481.18" cy="-14.85" rx="14.7" ry="14.7"/>
<text text-anchor="middle" x="481.18" y="-12.65" font-family="Times New Roman,serif" font-size="9.00">3</text>
</g>
<!-- &#45;1&#45;&gt;3 -->
<g id="edge3" class="edge">
<title>&#45;1&#45;&gt;3</title>
<path fill="none" stroke="green" stroke-width="0.68" d="M117.28,-77.87C121.06,-73.5 126.31,-68.45 132.18,-65.7 263.77,-4.02 319.09,-74.98 457.18,-29.7 458.06,-29.41 458.94,-29.09 459.82,-28.74"/>
<polygon fill="green" stroke="green" stroke-width="0.68" points="461.53,-31.79 468.93,-24.21 458.42,-25.52 461.53,-31.79"/>
</g>
<!-- &#45;2 -->
<g id="node2" class="node">
<title>&#45;2</title>
<polygon fill="lightgray" stroke="black" points="574.18,-95.91 550.18,-95.91 550.18,-77.91 574.18,-77.91 574.18,-95.91"/>
<text text-anchor="middle" x="562.18" y="-84.71" font-family="Times New Roman,serif" font-size="9.00">&#45;2</text>
</g>
<!-- &#45;2&#45;&gt;0 -->
<g id="edge4" class="edge">
<title>&#45;2&#45;&gt;0</title>
<path fill="none" stroke="green" stroke-width="0.25" d="M554.98,-77.7C551.17,-73.71 546.24,-69.05 541.18,-65.7 507.33,-43.25 493.5,-47.88 457.18,-29.7 456.35,-29.28 455.51,-28.85 454.67,-28.41"/>
<polygon fill="green" stroke="green" stroke-width="0.25" points="456.17,-25.25 445.73,-23.47 452.78,-31.37 456.17,-25.25"/>
</g>
<!-- 1 -->
<g id="node20" class="node">
<title>1</title>
<ellipse fill="lightblue" stroke="black" cx="649.18" cy="-14.85" rx="14.7" ry="14.7"/>
<text text-anchor="middle" x="649.18" y="-12.65" font-family="Times New Roman,serif" font-size="9.00">1</text>
</g>
<!-- &#45;2&#45;&gt;1 -->
<g id="edge5" class="edge">
<title>&#45;2&#45;&gt;1</title>
<path fill="none" stroke="red" stroke-width="0.33" d="M570.15,-77.81C573.98,-74.02 578.71,-69.51 583.18,-65.7 597.91,-53.12 615.44,-39.96 628.73,-30.32"/>
<polygon fill="red" stroke="red" stroke-width="0.33" points="631.09,-32.94 637.16,-24.26 627,-27.25 631.09,-32.94"/>
</g>
<!-- &#45;2&#45;&gt;2 -->
<g id="edge6" class="edge">
<title>&#45;2&#45;&gt;2</title>
<path fill="none" stroke="green" stroke-width="0.36" d="M566.65,-77.87C572.15,-68 581.68,-50.88 589.34,-37.12"/>
<polygon fill="green" stroke="green" stroke-width="0.36" points="592.46,-38.7 594.27,-28.26 586.35,-35.3 592.46,-38.7"/>
</g>
<!-- &#45;2&#45;&gt;3 -->
<g id="edge7" class="edge">
<title>&#45;2&#45;&gt;3</title>
<path fill="none" stroke="red" stroke-width="0.1" d="M554.13,-77.9C550.28,-74.13 545.55,-69.61 541.18,-65.7 527.86,-53.78 512.33,-40.91 500.4,-31.22"/>
<polygon fill="red" stroke="red" stroke-width="0.1" points="502.42,-28.36 492.44,-24.8 498.03,-33.8 502.42,-28.36"/>
</g>
<!-- &#45;3 -->
<g id="node3" class="node">
<title>&#45;3</title>
<polygon fill="lightgray" stroke="black" points="616.18,-95.91 592.18,-95.91 592.18,-77.91 616.18,-77.91 616.18,-95.91"/>
<text text-anchor="middle" x="604.18" y="-84.71" font-family="Times New Roman,serif" font-size="9.00">&#45;3</text>
</g>
<!-- &#45;3&#45;&gt;0 -->
<g id="edge8" class="edge">
<title>&#45;3&#45;&gt;0</title>
<path fill="none" stroke="red" stroke-width="0.35" d="M597.52,-77.83C593.71,-73.67 588.62,-68.83 583.18,-65.7 532.7,-36.64 510.8,-52.42 457.18,-29.7 456.33,-29.34 455.47,-28.95 454.6,-28.55"/>
<polygon fill="red" stroke="red" stroke-width="0.35" points="456.06,-25.36 445.58,-23.78 452.79,-31.55 456.06,-25.36"/>
</g>
<!-- &#45;3&#45;&gt;1 -->
<g id="edge9" class="edge">
<title>&#45;3&#45;&gt;1</title>
<path fill="none" stroke="red" stroke-width="0.18" d="M609.34,-77.87C615.82,-67.79 627.16,-50.14 636.09,-36.23"/>
<polygon fill="red" stroke="red" stroke-width="0.18" points="639.07,-38.06 641.53,-27.76 633.18,-34.28 639.07,-38.06"/>
</g>
<!-- &#45;3&#45;&gt;2 -->
<g id="edge10" class="edge">
<title>&#45;3&#45;&gt;2</title>
<path fill="none" stroke="red" stroke-width="0.35" stroke-dasharray="1,5" d="M603.83,-77.87C603.44,-68.72 602.78,-53.33 602.22,-40.16"/>
<polygon fill="red" stroke="red" stroke-width="0.35" points="605.7,-39.66 601.78,-29.82 598.71,-39.96 605.7,-39.66"/>
</g>
<!-- &#45;3&#45;&gt;3 -->
<g id="edge11" class="edge">
<title>&#45;3&#45;&gt;3</title>
<path fill="none" stroke="red" stroke-width="0.32" d="M596.91,-77.81C593.08,-73.84 588.15,-69.18 583.18,-65.7 558.06,-48.12 525.81,-33.5 504.37,-24.73"/>
<polygon fill="red" stroke="red" stroke-width="0.32" points="505.37,-21.37 494.79,-20.91 502.78,-27.87 505.37,-21.37"/>
</g>
<!-- &#45;4 -->
<g id="node4" class="node">
<title>&#45;4</title>
<polygon fill="lightgray" stroke="black" points="490.18,-95.91 466.18,-95.91 466.18,-77.91 490.18,-77.91 490.18,-95.91"/>
<text text-anchor="middle" x="478.18" y="-84.71" font-family="Times New Roman,serif" font-size="9.00">&#45;4</text>
</g>
<!-- &#45;4&#45;&gt;0 -->
<g id="edge12" class="edge">
<title>&#45;4&#45;&gt;0</title>
<path fill="none" stroke="green" stroke-width="0.18" d="M473.02,-77.87C466.54,-67.79 455.2,-50.14 446.27,-36.23"/>
<polygon fill="green" stroke="green" stroke-width="0.18" points="449.18,-34.28 440.83,-27.76 443.29,-38.06 449.18,-34.28"/>
</g>
<!-- &#45;4&#45;&gt;1 -->
<g id="edge13" class="edge">
<title>&#45;4&#45;&gt;1</title>
<path fill="none" stroke="green" stroke-width="0.76" d="M484.83,-77.83C488.64,-73.67 493.74,-68.83 499.18,-65.7 549.65,-36.64 571.55,-52.42 625.18,-29.7 626.03,-29.34 626.89,-28.95 627.75,-28.55"/>
<polygon fill="green" stroke="green" stroke-width="0.76" points="629.57,-31.55 636.77,-23.78 626.3,-25.36 629.57,-31.55"/>
</g>
<!-- &#45;4&#45;&gt;2 -->
<g id="edge14" class="edge">
<title>&#45;4&#45;&gt;2</title>
<path fill="none" stroke="green" stroke-width="0.82" d="M485.45,-77.81C489.28,-73.84 494.2,-69.18 499.18,-65.7 524.3,-48.12 556.55,-33.5 577.99,-24.73"/>
<polygon fill="green" stroke="green" stroke-width="0.82" points="579.58,-27.87 587.57,-20.91 576.99,-21.37 579.58,-27.87"/>
</g>
<!-- &#45;4&#45;&gt;3 -->
<g id="edge15" class="edge">
<title>&#45;4&#45;&gt;3</title>
<path fill="none" stroke="green" stroke-width="0.27" d="M478.52,-77.87C478.92,-68.72 479.57,-53.33 480.14,-40.16"/>
<polygon fill="green" stroke="green" stroke-width="0.27" points="483.65,-39.96 480.58,-29.82 476.66,-39.66 483.65,-39.96"/>
</g>
<!-- &#45;5 -->
<g id="node5" class="node">
<title>&#45;5</title>
<polygon fill="lightgray" stroke="black" points="223.18,-162.12 199.18,-162.12 199.18,-144.12 223.18,-144.12 223.18,-162.12"/>
<text text-anchor="middle" x="211.18" y="-150.92" font-family="Times New Roman,serif" font-size="9.00">&#45;5</text>
</g>
<!-- &#45;5&#45;&gt;0 -->
<g id="edge16" class="edge">
<title>&#45;5&#45;&gt;0</title>
<path fill="none" stroke="red" stroke-width="0.26" d="M199.16,-151.41C159.41,-148.78 33.38,-138.17 9.18,-108.12 -2.65,-93.44 -3.35,-79.79 9.18,-65.7 35.87,-35.69 321.26,-20.76 408.19,-16.89"/>
<polygon fill="red" stroke="red" stroke-width="0.26" points="408.38,-20.39 418.22,-16.45 408.08,-13.39 408.38,-20.39"/>
</g>
<!-- &#45;5&#45;&gt;1 -->
<g id="edge17" class="edge">
<title>&#45;5&#45;&gt;1</title>
<path fill="none" stroke="green" stroke-width="0.5" d="M223.33,-151.9C319.03,-150.03 948.22,-136.68 975.18,-108.12 1063.17,-14.92 765.15,-13.53 674.52,-15.18"/>
<polygon fill="green" stroke="green" stroke-width="0.5" points="674.23,-11.69 664.31,-15.4 674.38,-18.68 674.23,-11.69"/>
</g>
<!-- &#45;5&#45;&gt;2 -->
<g id="edge18" class="edge">
<title>&#45;5&#45;&gt;2</title>
<path fill="none" stroke="green" stroke-width="0.21" d="M223.27,-152.2C304.41,-152.56 767.82,-152.64 809.18,-108.12 822.01,-94.31 821.16,-80.26 809.18,-65.7 756.22,-1.37 703.22,-58.92 625.18,-29.7 624.31,-29.37 623.44,-29.02 622.57,-28.64"/>
<polygon fill="green" stroke="green" stroke-width="0.21" points="623.99,-25.44 613.5,-24 620.8,-31.67 623.99,-25.44"/>
</g>
<!-- &#45;5&#45;&gt;3 -->
<g id="edge19" class="edge">
<title>&#45;5&#45;&gt;3</title>
<path fill="none" stroke="red" stroke-width="0.23" stroke-dasharray="1,5" d="M210.78,-143.99C210.41,-126.72 212.21,-86.27 235.18,-65.7 309.64,0.98 363.01,-63.23 457.18,-29.7 458.05,-29.39 458.93,-29.05 459.8,-28.68"/>
<polygon fill="red" stroke="red" stroke-width="0.23" points="461.55,-31.72 468.89,-24.08 458.39,-25.47 461.55,-31.72"/>
</g>
<!-- 530 -->
<g id="node23" class="node">
<title>530</title>
<ellipse fill="white" stroke="black" cx="162.18" cy="-86.91" rx="21.43" ry="21.43"/>
<text text-anchor="middle" x="162.18" y="-84.71" font-family="Times New Roman,serif" font-size="9.00">530</text>
</g>
<!-- &#45;5&#45;&gt;530 -->
<g id="edge68" class="edge">
<title>&#45;5&#45;&gt;530</title>
<path fill="none" stroke="green" stroke-width="0.3" d="M204.97,-143.99C198.94,-136.09 189.47,-123.67 180.97,-112.53"/>
<polygon fill="green" stroke="green" stroke-width="0.3" points="183.58,-110.18 174.73,-104.36 178.01,-114.43 183.58,-110.18"/>
</g>
<!-- &#45;6 -->
<g id="node6" class="node">
<title>&#45;6</title>
<polygon fill="lightgray" stroke="black" points="532.18,-95.91 508.18,-95.91 508.18,-77.91 532.18,-77.91 532.18,-95.91"/>
<text text-anchor="middle" x="520.18" y="-84.71" font-family="Times New Roman,serif" font-size="9.00">&#45;6</text>
</g>
<!-- &#45;6&#45;&gt;0 -->
<g id="edge20" class="edge">
<title>&#45;6&#45;&gt;0</title>
<path fill="none" stroke="red" stroke-width="1.03" d="M512.21,-77.81C508.37,-74.02 503.64,-69.51 499.18,-65.7 484.45,-53.12 466.92,-39.96 453.63,-30.32"/>
<polygon fill="red" stroke="red" stroke-width="1.03" points="455.36,-27.25 445.19,-24.26 451.27,-32.94 455.36,-27.25"/>
</g>
<!-- &#45;6&#45;&gt;1 -->
<g id="edge21" class="edge">
<title>&#45;6&#45;&gt;1</title>
<path fill="none" stroke="green" stroke-width="0.33" stroke-dasharray="1,5" d="M527.38,-77.7C531.19,-73.71 536.12,-69.05 541.18,-65.7 575.03,-43.25 588.86,-47.88 625.18,-29.7 626.01,-29.28 626.85,-28.85 627.69,-28.41"/>
<polygon fill="green" stroke="green" stroke-width="0.33" points="629.57,-31.37 636.63,-23.47 626.18,-25.25 629.57,-31.37"/>
</g>
<!-- &#45;6&#45;&gt;2 -->
<g id="edge22" class="edge">
<title>&#45;6&#45;&gt;2</title>
<path fill="none" stroke="red" stroke-width="0.25" d="M528.23,-77.9C532.08,-74.13 536.8,-69.61 541.18,-65.7 554.5,-53.78 570.03,-40.91 581.95,-31.22"/>
<polygon fill="red" stroke="red" stroke-width="0.25" points="584.33,-33.8 589.92,-24.8 579.94,-28.36 584.33,-33.8"/>
</g>
<!-- &#45;6&#45;&gt;3 -->
<g id="edge23" class="edge">
<title>&#45;6&#45;&gt;3</title>
<path fill="none" stroke="green" stroke-width="0.62" d="M515.71,-77.87C510.21,-68 500.68,-50.88 493.02,-37.12"/>
<polygon fill="green" stroke="green" stroke-width="0.62" points="496.01,-35.3 488.09,-28.26 489.89,-38.7 496.01,-35.3"/>
</g>
<!-- &#45;7 -->
<g id="node7" class="node">
<title>&#45;7</title>
<polygon fill="lightgray" stroke="black" points="966.18,-95.91 942.18,-95.91 942.18,-77.91 966.18,-77.91 966.18,-95.91"/>
<text text-anchor="middle" x="954.18" y="-84.71" font-family="Times New Roman,serif" font-size="9.00">&#45;7</text>
</g>
<!-- &#45;7&#45;&gt;1 -->
<g id="edge24" class="edge">
<title>&#45;7&#45;&gt;1</title>
<path fill="none" stroke="green" stroke-width="0.13" d="M947.65,-77.6C943.88,-73.37 938.77,-68.54 933.18,-65.7 845.86,-21.34 726.13,-15.67 674.53,-15.46"/>
<polygon fill="green" stroke="green" stroke-width="0.13" points="674.3,-11.96 664.31,-15.49 674.32,-18.96 674.3,-11.96"/>
</g>
<!-- &#45;7&#45;&gt;2 -->
<g id="edge25" class="edge">
<title>&#45;7&#45;&gt;2</title>
<path fill="none" stroke="red" stroke-width="0.33" d="M948.07,-77.88C944.29,-73.52 939.04,-68.47 933.18,-65.7 808.56,-6.83 756.01,-73.03 625.18,-29.7 624.3,-29.41 623.42,-29.08 622.54,-28.73"/>
<polygon fill="red" stroke="red" stroke-width="0.33" points="623.94,-25.52 613.43,-24.19 620.82,-31.78 623.94,-25.52"/>
</g>
<!-- &#45;8 -->
<g id="node8" class="node">
<title>&#45;8</title>
<polygon fill="lightgray" stroke="black" points="878.18,-162.12 854.18,-162.12 854.18,-144.12 878.18,-144.12 878.18,-162.12"/>
<text text-anchor="middle" x="866.18" y="-150.92" font-family="Times New Roman,serif" font-size="9.00">&#45;8</text>
</g>
<!-- &#45;8&#45;&gt;0 -->
<g id="edge26" class="edge">
<title>&#45;8&#45;&gt;0</title>
<path fill="none" stroke="red" stroke-width="0.34" stroke-dasharray="1,5" d="M854.05,-151.95C754.31,-150.43 72.37,-138.92 43.18,-108.12 30.21,-94.44 30.72,-79.85 43.18,-65.7 67.41,-38.18 325.67,-21.74 408.07,-17.17"/>
<polygon fill="red" stroke="red" stroke-width="0.34" points="408.27,-20.66 418.07,-16.62 407.89,-13.67 408.27,-20.66"/>
</g>
<!-- &#45;8&#45;&gt;1 -->
<g id="edge27" class="edge">
<title>&#45;8&#45;&gt;1</title>
<path fill="none" stroke="green" stroke-width="0.5" stroke-dasharray="1,5" d="M878.21,-151.48C918.61,-149.04 1048.27,-138.89 1073.18,-108.12 1085.05,-93.47 1085.71,-79.79 1073.18,-65.7 1046.49,-35.69 761.09,-20.76 674.17,-16.89"/>
<polygon fill="green" stroke="green" stroke-width="0.5" points="674.28,-13.39 664.14,-16.45 673.97,-20.39 674.28,-13.39"/>
</g>
<!-- &#45;8&#45;&gt;2 -->
<g id="edge28" class="edge">
<title>&#45;8&#45;&gt;2</title>
<path fill="none" stroke="green" stroke-width="0.24" d="M866.57,-144C866.93,-126.74 865.11,-86.31 842.18,-65.7 769.47,-0.35 717.22,-62.66 625.18,-29.7 624.31,-29.39 623.43,-29.04 622.56,-28.67"/>
<polygon fill="green" stroke="green" stroke-width="0.24" points="623.97,-25.47 613.47,-24.07 620.81,-31.71 623.97,-25.47"/>
</g>
<!-- &#45;8&#45;&gt;3 -->
<g id="edge29" class="edge">
<title>&#45;8&#45;&gt;3</title>
<path fill="none" stroke="green" stroke-width="0.48" d="M854.11,-152.19C773.11,-152.54 310.47,-152.57 269.18,-108.12 256.35,-94.31 257.16,-80.23 269.18,-65.7 323.38,-0.13 377.45,-59.37 457.18,-29.7 458.05,-29.38 458.92,-29.02 459.79,-28.65"/>
<polygon fill="green" stroke="green" stroke-width="0.48" points="461.55,-31.68 468.86,-24.01 458.37,-25.44 461.55,-31.68"/>
</g>
<!-- 499 -->
<g id="node24" class="node">
<title>499</title>
<ellipse fill="white" stroke="black" cx="1043.18" cy="-86.91" rx="21.43" ry="21.43"/>
<text text-anchor="middle" x="1043.18" y="-84.71" font-family="Times New Roman,serif" font-size="9.00">499</text>
</g>
<!-- &#45;8&#45;&gt;499 -->
<g id="edge66" class="edge">
<title>&#45;8&#45;&gt;499</title>
<path fill="none" stroke="green" stroke-width="0.41" d="M878.29,-149.35C903.21,-143.41 961.83,-128.39 1008.18,-108.12 1010.89,-106.94 1013.66,-105.6 1016.39,-104.18"/>
<polygon fill="green" stroke="green" stroke-width="0.41" points="1018.35,-107.09 1025.41,-99.2 1014.97,-100.97 1018.35,-107.09"/>
</g>
<!-- &#45;9 -->
<g id="node9" class="node">
<title>&#45;9</title>
<polygon fill="lightgray" stroke="black" points="658.18,-95.91 634.18,-95.91 634.18,-77.91 658.18,-77.91 658.18,-95.91"/>
<text text-anchor="middle" x="646.18" y="-84.71" font-family="Times New Roman,serif" font-size="9.00">&#45;9</text>
</g>
<!-- &#45;9&#45;&gt;0 -->
<g id="edge30" class="edge">
<title>&#45;9&#45;&gt;0</title>
<path fill="none" stroke="red" stroke-width="0.22" d="M639.61,-77.68C635.82,-73.48 630.72,-68.64 625.18,-65.7 557.76,-29.85 528.45,-57.12 457.18,-29.7 456.31,-29.37 455.44,-29.01 454.57,-28.62"/>
<polygon fill="red" stroke="red" stroke-width="0.22" points="456.01,-25.42 445.52,-23.95 452.8,-31.64 456.01,-25.42"/>
</g>
<!-- &#45;9&#45;&gt;1 -->
<g id="edge31" class="edge">
<title>&#45;9&#45;&gt;1</title>
<path fill="none" stroke="red" stroke-width="1.11" d="M646.52,-77.87C646.92,-68.72 647.57,-53.33 648.14,-40.16"/>
<polygon fill="red" stroke="red" stroke-width="1.11" points="651.65,-39.96 648.58,-29.82 644.66,-39.66 651.65,-39.96"/>
</g>
<!-- &#45;9&#45;&gt;2 -->
<g id="edge32" class="edge">
<title>&#45;9&#45;&gt;2</title>
<path fill="none" stroke="red" stroke-width="0.14" d="M641.02,-77.87C634.54,-67.79 623.2,-50.14 614.27,-36.23"/>
<polygon fill="red" stroke="red" stroke-width="0.14" points="617.18,-34.28 608.83,-27.76 611.29,-38.06 617.18,-34.28"/>
</g>
<!-- &#45;9&#45;&gt;3 -->
<g id="edge33" class="edge">
<title>&#45;9&#45;&gt;3</title>
<path fill="none" stroke="green" stroke-width="0.35" d="M639.08,-77.55C635.29,-73.51 630.36,-68.87 625.18,-65.7 586.61,-42.06 535.31,-27.76 505.51,-20.87"/>
<polygon fill="green" stroke="green" stroke-width="0.35" points="506.08,-17.41 495.56,-18.66 504.56,-24.24 506.08,-17.41"/>
</g>
<!-- &#45;10 -->
<g id="node10" class="node">
<title>&#45;10</title>
<polygon fill="lightgray" stroke="black" points="306.68,-95.91 277.68,-95.91 277.68,-77.91 306.68,-77.91 306.68,-95.91"/>
<text text-anchor="middle" x="292.18" y="-84.71" font-family="Times New Roman,serif" font-size="9.00">&#45;10</text>
</g>
<!-- &#45;10&#45;&gt;0 -->
<g id="edge34" class="edge">
<title>&#45;10&#45;&gt;0</title>
<path fill="none" stroke="red" stroke-width="0.42" d="M300.59,-77.76C304.99,-73.78 310.61,-69.12 316.18,-65.7 346.62,-46.98 385.35,-32 409.71,-23.52"/>
<polygon fill="red" stroke="red" stroke-width="0.42" points="410.86,-26.82 419.2,-20.29 408.61,-20.19 410.86,-26.82"/>
</g>
<!-- &#45;10&#45;&gt;1 -->
<g id="edge35" class="edge">
<title>&#45;10&#45;&gt;1</title>
<path fill="none" stroke="green" stroke-width="0.12" d="M299.38,-77.88C303.78,-73.52 309.78,-68.46 316.18,-65.7 443.09,-10.84 493.92,-73.15 625.18,-29.7 626.06,-29.41 626.94,-29.08 627.82,-28.73"/>
<polygon fill="green" stroke="green" stroke-width="0.12" points="629.54,-31.78 636.93,-24.2 626.42,-25.52 629.54,-31.78"/>
</g>
<!-- &#45;10&#45;&gt;3 -->
<g id="edge36" class="edge">
<title>&#45;10&#45;&gt;3</title>
<path fill="none" stroke="green" stroke-width="0.2" d="M299.95,-77.8C304.35,-73.63 310.17,-68.79 316.18,-65.7 373.7,-36.12 397.28,-54.09 457.18,-29.7 458.04,-29.35 458.9,-28.97 459.77,-28.58"/>
<polygon fill="green" stroke="green" stroke-width="0.2" points="461.56,-31.59 468.8,-23.85 458.32,-25.39 461.56,-31.59"/>
</g>
<!-- &#45;11 -->
<g id="node11" class="node">
<title>&#45;11</title>
<polygon fill="lightgray" stroke="black" points="705.68,-95.91 676.68,-95.91 676.68,-77.91 705.68,-77.91 705.68,-95.91"/>
<text text-anchor="middle" x="691.18" y="-84.71" font-family="Times New Roman,serif" font-size="9.00">&#45;11</text>
</g>
<!-- &#45;11&#45;&gt;0 -->
<g id="edge37" class="edge">
<title>&#45;11&#45;&gt;0</title>
<path fill="none" stroke="green" stroke-width="0.26" d="M683.5,-77.6C679.13,-73.38 673.31,-68.54 667.18,-65.7 581.3,-25.8 546.24,-61.86 457.18,-29.7 456.31,-29.38 455.43,-29.04 454.56,-28.67"/>
<polygon fill="green" stroke="green" stroke-width="0.26" points="455.98,-25.46 445.48,-24.06 452.81,-31.71 455.98,-25.46"/>
</g>
<!-- &#45;11&#45;&gt;1 -->
<g id="edge38" class="edge">
<title>&#45;11&#45;&gt;1</title>
<path fill="none" stroke="green" stroke-width="0.25" d="M686.36,-77.87C680.41,-67.95 670.06,-50.67 661.78,-36.87"/>
<polygon fill="green" stroke="green" stroke-width="0.25" points="664.61,-34.79 656.47,-28.01 658.61,-38.38 664.61,-34.79"/>
</g>
<!-- &#45;11&#45;&gt;2 -->
<g id="edge39" class="edge">
<title>&#45;11&#45;&gt;2</title>
<path fill="none" stroke="red" stroke-width="0.17" d="M681.47,-77.53C677.14,-73.85 671.95,-69.5 667.18,-65.7 652.04,-53.62 634.53,-40.43 621.36,-30.66"/>
<polygon fill="red" stroke="red" stroke-width="0.17" points="623.13,-27.61 613.01,-24.49 618.97,-33.25 623.13,-27.61"/>
</g>
<!-- &#45;11&#45;&gt;3 -->
<g id="edge40" class="edge">
<title>&#45;11&#45;&gt;3</title>
<path fill="none" stroke="red" stroke-width="0.54" d="M683.39,-77.82C678.99,-73.66 673.17,-68.82 667.18,-65.7 613.73,-37.81 543.28,-24.47 506.31,-19.03"/>
<polygon fill="red" stroke="red" stroke-width="0.54" points="506.35,-15.5 495.96,-17.59 505.38,-22.43 506.35,-15.5"/>
</g>
<!-- &#45;12 -->
<g id="node12" class="node">
<title>&#45;12</title>
<polygon fill="lightgray" stroke="black" points="752.68,-95.91 723.68,-95.91 723.68,-77.91 752.68,-77.91 752.68,-95.91"/>
<text text-anchor="middle" x="738.18" y="-84.71" font-family="Times New Roman,serif" font-size="9.00">&#45;12</text>
</g>
<!-- &#45;12&#45;&gt;0 -->
<g id="edge41" class="edge">
<title>&#45;12&#45;&gt;0</title>
<path fill="none" stroke="red" stroke-width="0.69" d="M730.92,-77.52C726.75,-73.27 721.17,-68.45 715.18,-65.7 609.93,-17.45 566.67,-67.33 457.18,-29.7 456.3,-29.4 455.42,-29.06 454.55,-28.7"/>
<polygon fill="red" stroke="red" stroke-width="0.69" points="455.96,-25.49 445.45,-24.14 452.82,-31.75 455.96,-25.49"/>
</g>
<!-- &#45;12&#45;&gt;1 -->
<g id="edge42" class="edge">
<title>&#45;12&#45;&gt;1</title>
<path fill="none" stroke="red" stroke-width="0.27" d="M729.35,-77.88C725.13,-74.11 719.96,-69.59 715.18,-65.7 700.17,-53.46 682.65,-40.28 669.44,-30.55"/>
<polygon fill="red" stroke="red" stroke-width="0.27" points="671.2,-27.5 661.06,-24.42 667.07,-33.15 671.2,-27.5"/>
</g>
<!-- &#45;12&#45;&gt;2 -->
<g id="edge43" class="edge">
<title>&#45;12&#45;&gt;2</title>
<path fill="none" stroke="red" stroke-width="0.24" d="M730.2,-77.69C726.01,-73.69 720.61,-69.04 715.18,-65.7 678.47,-43.15 663.93,-48.51 625.18,-29.7 624.35,-29.29 623.5,-28.87 622.65,-28.44"/>
<polygon fill="red" stroke="red" stroke-width="0.24" points="624.15,-25.27 613.7,-23.53 620.78,-31.4 624.15,-25.27"/>
</g>
<!-- &#45;12&#45;&gt;3 -->
<g id="edge44" class="edge">
<title>&#45;12&#45;&gt;3</title>
<path fill="none" stroke="green" stroke-width="0.11" d="M730.84,-77.69C726.65,-73.49 721.07,-68.66 715.18,-65.7 678.36,-47.21 558.08,-27.44 505.8,-19.48"/>
<polygon fill="green" stroke="green" stroke-width="0.11" points="506.15,-15.99 495.74,-17.96 505.1,-22.91 506.15,-15.99"/>
</g>
<!-- &#45;13 -->
<g id="node13" class="node">
<title>&#45;13</title>
<polygon fill="lightgray" stroke="black" points="799.68,-95.91 770.68,-95.91 770.68,-77.91 799.68,-77.91 799.68,-95.91"/>
<text text-anchor="middle" x="785.18" y="-84.71" font-family="Times New Roman,serif" font-size="9.00">&#45;13</text>
</g>
<!-- &#45;13&#45;&gt;0 -->
<g id="edge45" class="edge">
<title>&#45;13&#45;&gt;0</title>
<path fill="none" stroke="green" stroke-width="0.41" d="M778.34,-77.88C774.14,-73.52 768.39,-68.47 762.18,-65.7 637.5,-10.13 586.73,-72.69 457.18,-29.7 456.3,-29.41 455.42,-29.08 454.54,-28.73"/>
<polygon fill="green" stroke="green" stroke-width="0.41" points="455.94,-25.52 445.43,-24.19 452.82,-31.78 455.94,-25.52"/>
</g>
<!-- &#45;13&#45;&gt;1 -->
<g id="edge46" class="edge">
<title>&#45;13&#45;&gt;1</title>
<path fill="none" stroke="red" stroke-width="0.48" d="M777.15,-77.77C772.95,-73.79 767.56,-69.13 762.18,-65.7 733.21,-47.2 696.22,-32.33 672.61,-23.79"/>
<polygon fill="red" stroke="red" stroke-width="0.48" points="673.67,-20.45 663.08,-20.42 671.34,-27.05 673.67,-20.45"/>
</g>
<!-- &#45;13&#45;&gt;2 -->
<g id="edge47" class="edge">
<title>&#45;13&#45;&gt;2</title>
<path fill="none" stroke="red" stroke-width="0.4" d="M777.78,-77.8C773.58,-73.63 768,-68.79 762.18,-65.7 706.6,-36.13 683.4,-53.64 625.18,-29.7 624.32,-29.35 623.46,-28.97 622.59,-28.57"/>
<polygon fill="red" stroke="red" stroke-width="0.4" points="624.04,-25.38 613.56,-23.83 620.79,-31.58 624.04,-25.38"/>
</g>
<!-- &#45;13&#45;&gt;3 -->
<g id="edge48" class="edge">
<title>&#45;13&#45;&gt;3</title>
<path fill="none" stroke="green" stroke-width="0.1" d="M777.88,-77.61C773.7,-73.39 768.12,-68.56 762.18,-65.7 739.12,-54.61 570.34,-28.96 506,-19.47"/>
<polygon fill="green" stroke="green" stroke-width="0.1" points="506.33,-15.98 495.93,-17.99 505.32,-22.91 506.33,-15.98"/>
</g>
<!-- &#45;14 -->
<g id="node14" class="node">
<title>&#45;14</title>
<polygon fill="lightgray" stroke="black" points="353.68,-95.91 324.68,-95.91 324.68,-77.91 353.68,-77.91 353.68,-95.91"/>
<text text-anchor="middle" x="339.18" y="-84.71" font-family="Times New Roman,serif" font-size="9.00">&#45;14</text>
</g>
<!-- &#45;14&#45;&gt;0 -->
<g id="edge49" class="edge">
<title>&#45;14&#45;&gt;0</title>
<path fill="none" stroke="green" stroke-width="0.19" d="M348.38,-77.86C352.79,-74.08 358.18,-69.57 363.18,-65.7 379.43,-53.1 398.47,-39.62 412.59,-29.86"/>
<polygon fill="green" stroke="green" stroke-width="0.19" points="414.81,-32.58 421.07,-24.03 410.85,-26.81 414.81,-32.58"/>
</g>
<!-- &#45;14&#45;&gt;1 -->
<g id="edge50" class="edge">
<title>&#45;14&#45;&gt;1</title>
<path fill="none" stroke="green" stroke-width="0.12" d="M346.82,-77.52C351.18,-73.27 357.01,-68.44 363.18,-65.7 470.59,-17.96 513.98,-67.78 625.18,-29.7 626.06,-29.4 626.94,-29.07 627.81,-28.71"/>
<polygon fill="green" stroke="green" stroke-width="0.12" points="629.54,-31.75 636.91,-24.14 626.4,-25.5 629.54,-31.75"/>
</g>
<!-- &#45;14&#45;&gt;2 -->
<g id="edge51" class="edge">
<title>&#45;14&#45;&gt;2</title>
<path fill="none" stroke="red" stroke-width="0.56" d="M346.9,-77.69C351.29,-73.49 357.11,-68.66 363.18,-65.7 400.91,-47.32 523.57,-27.43 576.5,-19.45"/>
<polygon fill="red" stroke="red" stroke-width="0.56" points="577.02,-22.91 586.39,-17.98 575.99,-15.99 577.02,-22.91"/>
</g>
<!-- &#45;14&#45;&gt;3 -->
<g id="edge52" class="edge">
<title>&#45;14&#45;&gt;3</title>
<path fill="none" stroke="green" stroke-width="0.37" d="M347.54,-77.67C351.92,-73.67 357.55,-69.02 363.18,-65.7 401.71,-42.97 416.79,-48.94 457.18,-29.7 458.02,-29.3 458.86,-28.88 459.71,-28.45"/>
<polygon fill="green" stroke="green" stroke-width="0.37" points="461.57,-31.42 468.67,-23.56 458.22,-25.28 461.57,-31.42"/>
</g>
<!-- &#45;15 -->
<g id="node15" class="node">
<title>&#45;15</title>
<polygon fill="lightgray" stroke="black" points="400.68,-95.91 371.68,-95.91 371.68,-77.91 400.68,-77.91 400.68,-95.91"/>
<text text-anchor="middle" x="386.18" y="-84.71" font-family="Times New Roman,serif" font-size="9.00">&#45;15</text>
</g>
<!-- &#45;15&#45;&gt;0 -->
<g id="edge53" class="edge">
<title>&#45;15&#45;&gt;0</title>
<path fill="none" stroke="green" stroke-width="0.49" d="M391.57,-77.87C398.37,-67.73 410.32,-49.93 419.67,-35.99"/>
<polygon fill="green" stroke="green" stroke-width="0.49" points="422.69,-37.76 425.36,-27.51 416.88,-33.86 422.69,-37.76"/>
</g>
<!-- &#45;15&#45;&gt;1 -->
<g id="edge54" class="edge">
<title>&#45;15&#45;&gt;1</title>
<path fill="none" stroke="red" stroke-width="0.15" d="M393.85,-77.59C398.22,-73.36 404.05,-68.53 410.18,-65.7 498.13,-25.05 533.99,-62.43 625.18,-29.7 626.05,-29.39 626.93,-29.04 627.8,-28.67"/>
<polygon fill="red" stroke="red" stroke-width="0.15" points="629.55,-31.71 636.88,-24.07 626.38,-25.47 629.55,-31.71"/>
</g>
<!-- &#45;15&#45;&gt;2 -->
<g id="edge55" class="edge">
<title>&#45;15&#45;&gt;2</title>
<path fill="none" stroke="red" stroke-width="0.12" d="M393.96,-77.81C398.36,-73.64 404.18,-68.8 410.18,-65.7 465.58,-37.02 538.77,-23.92 576.43,-18.75"/>
<polygon fill="red" stroke="red" stroke-width="0.12" points="577.03,-22.2 586.5,-17.44 576.13,-15.26 577.03,-22.2"/>
</g>
<!-- &#45;15&#45;&gt;3 -->
<g id="edge56" class="edge">
<title>&#45;15&#45;&gt;3</title>
<path fill="none" stroke="red" stroke-width="0.31" d="M395.37,-77.85C399.77,-74.06 405.17,-69.55 410.18,-65.7 426.63,-53.04 445.94,-39.56 460.27,-29.82"/>
<polygon fill="red" stroke="red" stroke-width="0.31" points="462.56,-32.5 468.89,-24 458.64,-26.7 462.56,-32.5"/>
</g>
<!-- &#45;16 -->
<g id="node16" class="node">
<title>&#45;16</title>
<polygon fill="lightgray" stroke="black" points="923.68,-95.91 894.68,-95.91 894.68,-77.91 923.68,-77.91 923.68,-95.91"/>
<text text-anchor="middle" x="909.18" y="-84.71" font-family="Times New Roman,serif" font-size="9.00">&#45;16</text>
</g>
<!-- &#45;16&#45;&gt;1 -->
<g id="edge57" class="edge">
<title>&#45;16&#45;&gt;1</title>
<path fill="none" stroke="green" stroke-width="0.64" d="M899.56,-77.75C894.18,-73.57 887.16,-68.74 880.18,-65.7 809.26,-34.82 717.52,-22.39 674.08,-17.98"/>
<polygon fill="green" stroke="green" stroke-width="0.64" points="674.41,-14.49 664.12,-17.02 673.74,-21.46 674.41,-14.49"/>
</g>
<!-- &#45;16&#45;&gt;2 -->
<g id="edge58" class="edge">
<title>&#45;16&#45;&gt;2</title>
<path fill="none" stroke="green" stroke-width="0.4" d="M899.91,-77.76C894.51,-73.47 887.38,-68.53 880.18,-65.7 773.65,-23.83 733.39,-66.98 625.18,-29.7 624.3,-29.4 623.42,-29.06 622.55,-28.7"/>
<polygon fill="green" stroke="green" stroke-width="0.4" points="623.96,-25.49 613.45,-24.13 620.81,-31.75 623.96,-25.49"/>
</g>
<!-- &#45;16&#45;&gt;3 -->
<g id="edge59" class="edge">
<title>&#45;16&#45;&gt;3</title>
<path fill="none" stroke="red" stroke-width="0.26" d="M894.65,-82.74C875.22,-78.56 839.7,-71.1 809.18,-65.7 750.47,-55.31 572.21,-29.12 506.15,-19.48"/>
<polygon fill="red" stroke="red" stroke-width="0.26" points="506.26,-15.96 495.86,-17.98 505.25,-22.89 506.26,-15.96"/>
</g>
<!-- &#45;17 -->
<g id="node17" class="node">
<title>&#45;17</title>
<polygon fill="lightgray" stroke="black" points="80.68,-95.91 51.68,-95.91 51.68,-77.91 80.68,-77.91 80.68,-95.91"/>
<text text-anchor="middle" x="66.18" y="-84.71" font-family="Times New Roman,serif" font-size="9.00">&#45;17</text>
</g>
<!-- &#45;17&#45;&gt;0 -->
<g id="edge60" class="edge">
<title>&#45;17&#45;&gt;0</title>
<path fill="none" stroke="green" stroke-width="0.29" d="M73.83,-77.54C78.19,-73.29 84.02,-68.47 90.18,-65.7 147.38,-40.01 338.75,-23.11 407.94,-17.71"/>
<polygon fill="green" stroke="green" stroke-width="0.29" points="408.62,-21.17 418.32,-16.92 408.08,-14.19 408.62,-21.17"/>
</g>
<!-- &#45;17&#45;&gt;2 -->
<g id="edge61" class="edge">
<title>&#45;17&#45;&gt;2</title>
<path fill="none" stroke="red" stroke-width="0.12" d="M73.35,-77.81C77.74,-73.42 83.74,-68.37 90.18,-65.7 175.68,-30.23 413.22,-40.31 505.18,-29.7 529.48,-26.89 557.12,-22.81 576.48,-19.81"/>
<polygon fill="red" stroke="red" stroke-width="0.12" points="577.24,-23.23 586.57,-18.22 576.15,-16.31 577.24,-23.23"/>
</g>
<!-- &#45;18 -->
<g id="node18" class="node">
<title>&#45;18</title>
<polygon fill="lightgray" stroke="black" points="447.68,-95.91 418.68,-95.91 418.68,-77.91 447.68,-77.91 447.68,-95.91"/>
<text text-anchor="middle" x="433.18" y="-84.71" font-family="Times New Roman,serif" font-size="9.00">&#45;18</text>
</g>
<!-- &#45;18&#45;&gt;0 -->
<g id="edge62" class="edge">
<title>&#45;18&#45;&gt;0</title>
<path fill="none" stroke="green" stroke-width="0.28" d="M433.18,-77.87C433.18,-68.72 433.18,-53.33 433.18,-40.16"/>
<polygon fill="green" stroke="green" stroke-width="0.28" points="436.68,-39.82 433.18,-29.82 429.68,-39.82 436.68,-39.82"/>
</g>
<!-- &#45;18&#45;&gt;1 -->
<g id="edge63" class="edge">
<title>&#45;18&#45;&gt;1</title>
<path fill="none" stroke="red" stroke-width="0.14" d="M440.9,-77.7C445.29,-73.51 451.11,-68.67 457.18,-65.7 525.75,-32.1 553.91,-57.12 625.18,-29.7 626.04,-29.37 626.91,-29.01 627.78,-28.62"/>
<polygon fill="red" stroke="red" stroke-width="0.14" points="629.56,-31.64 636.84,-23.95 626.35,-25.42 629.56,-31.64"/>
</g>
<!-- &#45;18&#45;&gt;2 -->
<g id="edge64" class="edge">
<title>&#45;18&#45;&gt;2</title>
<path fill="none" stroke="green" stroke-width="0.55" d="M441.49,-77.59C445.87,-73.57 451.5,-68.93 457.18,-65.7 496.31,-43.47 547.02,-28.77 576.64,-21.41"/>
<polygon fill="green" stroke="green" stroke-width="0.55" points="577.64,-24.77 586.54,-19.03 576,-17.97 577.64,-24.77"/>
</g>
<!-- &#45;18&#45;&gt;3 -->
<g id="edge65" class="edge">
<title>&#45;18&#45;&gt;3</title>
<path fill="none" stroke="green" stroke-width="0.45" d="M438.69,-77.87C445.63,-67.73 457.83,-49.93 467.38,-35.99"/>
<polygon fill="green" stroke="green" stroke-width="0.45" points="470.43,-37.73 473.19,-27.51 464.65,-33.78 470.43,-37.73"/>
</g>
<!-- 530&#45;&gt;3 -->
<g id="edge69" class="edge">
<title>530&#45;&gt;3</title>
<path fill="none" stroke="green" stroke-width="0.2" d="M179.35,-74.23C184.84,-70.99 191.07,-67.79 197.18,-65.7 307.52,-27.82 346.83,-67.55 457.18,-29.7 458.05,-29.4 458.93,-29.06 459.81,-28.7"/>
<polygon fill="green" stroke="green" stroke-width="0.2" points="461.54,-31.75 468.91,-24.14 458.4,-25.5 461.54,-31.75"/>
</g>
<!-- 499&#45;&gt;1 -->
<g id="edge67" class="edge">
<title>499&#45;&gt;1</title>
<path fill="none" stroke="green" stroke-width="0.23" d="M1026.01,-74.24C1020.52,-71 1014.28,-67.8 1008.18,-65.7 887.98,-24.41 733.97,-17.24 674.33,-16.06"/>
<polygon fill="green" stroke="green" stroke-width="0.23" points="674.06,-12.55 664.01,-15.89 673.95,-19.55 674.06,-12.55"/>
</g>
</g>
</svg>
