<?xml version="1.0" encoding="UTF-8" standalone="no"?>
<!DOCTYPE svg PUBLIC "-//W3C//DTD SVG 1.1//EN"
 "http://www.w3.org/Graphics/SVG/1.1/DTD/svg11.dtd">
<!-- Generated by graphviz version 4.0.0 (20220529.0937)
 -->
<!-- Pages: 1 -->
<svg width="950pt" height="377pt"
 viewBox="0.00 0.00 950.18 376.98" xmlns="http://www.w3.org/2000/svg" xmlns:xlink="http://www.w3.org/1999/xlink">
<g id="graph0" class="graph" transform="scale(1 1) rotate(0) translate(4 372.98)">
<polygon fill="white" stroke="transparent" points="-4,4 -4,-372.98 946.18,-372.98 946.18,4 -4,4"/>
<!-- PACMAN CORR -->
<g id="node1" class="node">
<title>PACMAN CORR</title>
<ellipse fill="lightcoral" stroke="black" cx="751.81" cy="-160.45" rx="59.29" ry="59.29"/>
<text text-anchor="middle" x="751.81" y="-158.25" font-family="Times New Roman,serif" font-size="9.00">PACMAN CORR</text>
</g>
<!-- UP -->
<g id="node9" class="node">
<title>UP</title>
<ellipse fill="lightblue" stroke="black" cx="458.81" cy="-31.82" rx="20.51" ry="20.51"/>
<text text-anchor="middle" x="458.81" y="-29.62" font-family="Times New Roman,serif" font-size="9.00">UP</text>
</g>
<!-- PACMAN CORR&#45;&gt;UP -->
<g id="edge18" class="edge">
<title>PACMAN CORR&#45;&gt;UP</title>
<path fill="none" stroke="red" stroke-width="0.43" d="M701.51,-128.75C684.19,-118.8 664.45,-108.16 645.81,-99.64 586.54,-72.57 512.86,-49.05 478.35,-38.59"/>
</g>
<!-- DOWN -->
<g id="node10" class="node">
<title>DOWN</title>
<ellipse fill="lightblue" stroke="black" cx="698.81" cy="-31.82" rx="31.64" ry="31.64"/>
<text text-anchor="middle" x="698.81" y="-29.62" font-family="Times New Roman,serif" font-size="9.00">DOWN</text>
</g>
<!-- PACMAN CORR&#45;&gt;DOWN -->
<g id="edge1" class="edge">
<title>PACMAN CORR&#45;&gt;DOWN</title>
<path fill="none" stroke="red" stroke-width="0.29" d="M729.18,-105.38C722.88,-90.32 716.28,-74.55 710.85,-61.57"/>
</g>
<!-- LEFT -->
<g id="node12" class="node">
<title>LEFT</title>
<ellipse fill="lightblue" stroke="black" cx="810.81" cy="-31.82" rx="26.74" ry="26.74"/>
<text text-anchor="middle" x="810.81" y="-29.62" font-family="Times New Roman,serif" font-size="9.00">LEFT</text>
</g>
<!-- PACMAN CORR&#45;&gt;LEFT -->
<g id="edge2" class="edge">
<title>PACMAN CORR&#45;&gt;LEFT</title>
<path fill="none" stroke="red" stroke-width="0.14" d="M776.66,-106.11C784.72,-88.81 793.26,-70.49 799.78,-56.49"/>
</g>
<!-- ND CORR -->
<g id="node2" class="node">
<title>ND CORR</title>
<ellipse fill="lightcoral" stroke="black" cx="869.81" cy="-160.45" rx="40.11" ry="40.11"/>
<text text-anchor="middle" x="869.81" y="-158.25" font-family="Times New Roman,serif" font-size="9.00">ND CORR</text>
</g>
<!-- ND CORR&#45;&gt;DOWN -->
<g id="edge3" class="edge">
<title>ND CORR&#45;&gt;DOWN</title>
<path fill="none" stroke="green" stroke-width="0.75" d="M846.62,-127.32C838.78,-117.73 829.52,-107.65 819.81,-99.64 791.39,-76.21 753.55,-56.85 727.8,-45.11"/>
</g>
<!-- ND CORR&#45;&gt;LEFT -->
<g id="edge4" class="edge">
<title>ND CORR&#45;&gt;LEFT</title>
<path fill="none" stroke="green" stroke-width="0.23" d="M853.06,-123.5C843.05,-102 830.6,-75.3 821.82,-56.45"/>
</g>
<!-- ND DIST -->
<g id="node3" class="node">
<title>ND DIST</title>
<ellipse fill="lightcoral" stroke="black" cx="538.81" cy="-160.45" rx="37.45" ry="37.45"/>
<text text-anchor="middle" x="538.81" y="-158.25" font-family="Times New Roman,serif" font-size="9.00">ND DIST</text>
</g>
<!-- ND DIST&#45;&gt;UP -->
<g id="edge5" class="edge">
<title>ND DIST&#45;&gt;UP</title>
<path fill="none" stroke="red" stroke-width="0.39" d="M519.24,-128.47C503.51,-103.58 482.03,-69.57 469.36,-49.52"/>
</g>
<!-- RIGHT -->
<g id="node11" class="node">
<title>RIGHT</title>
<ellipse fill="lightblue" stroke="black" cx="226.81" cy="-31.82" rx="31.64" ry="31.64"/>
<text text-anchor="middle" x="226.81" y="-29.62" font-family="Times New Roman,serif" font-size="9.00">RIGHT</text>
</g>
<!-- ND DIST&#45;&gt;RIGHT -->
<g id="edge6" class="edge">
<title>ND DIST&#45;&gt;RIGHT</title>
<path fill="none" stroke="green" stroke-width="0.63" d="M520.36,-127.58C512.99,-117.31 503.65,-106.75 492.81,-99.64 418.56,-50.93 311.32,-37.73 258.56,-34.15"/>
</g>
<!-- ND DIST&#45;&gt;LEFT -->
<g id="edge7" class="edge">
<title>ND DIST&#45;&gt;LEFT</title>
<path fill="none" stroke="green" stroke-width="0.11" d="M557.49,-127.79C565.06,-117.41 574.67,-106.74 585.81,-99.64 645.09,-61.87 673.08,-85.72 739.81,-63.64 755.89,-58.32 773.34,-50.77 786.91,-44.48"/>
</g>
<!-- IN_INTERS -->
<g id="node4" class="node">
<title>IN_INTERS</title>
<ellipse fill="lightcoral" stroke="black" cx="733.81" cy="-313.12" rx="43.68" ry="43.68"/>
<text text-anchor="middle" x="733.81" y="-310.92" font-family="Times New Roman,serif" font-size="9.00">IN_INTERS</text>
</g>
<!-- MOVING UP -->
<g id="node5" class="node">
<title>MOVING UP</title>
<ellipse fill="lightcoral" stroke="black" cx="226.81" cy="-160.45" rx="48.58" ry="48.58"/>
<text text-anchor="middle" x="226.81" y="-158.25" font-family="Times New Roman,serif" font-size="9.00">MOVING UP</text>
</g>
<!-- MOVING UP&#45;&gt;UP -->
<g id="edge8" class="edge">
<title>MOVING UP&#45;&gt;UP</title>
<path fill="none" stroke="red" stroke-width="0.18" d="M257.67,-122.55C265.87,-114.25 275.16,-106.02 284.81,-99.64 335.44,-66.2 405.25,-45.9 438.98,-37.43"/>
</g>
<!-- MOVING UP&#45;&gt;RIGHT -->
<g id="edge9" class="edge">
<title>MOVING UP&#45;&gt;RIGHT</title>
<path fill="none" stroke="red" stroke-width="0.24" d="M226.81,-111.58C226.81,-95.61 226.81,-78.24 226.81,-63.89"/>
</g>
<!-- MOVING DOWN -->
<g id="node6" class="node">
<title>MOVING DOWN</title>
<ellipse fill="lightcoral" stroke="black" cx="60.81" cy="-160.45" rx="60.62" ry="60.62"/>
<text text-anchor="middle" x="60.81" y="-158.25" font-family="Times New Roman,serif" font-size="9.00">MOVING DOWN</text>
</g>
<!-- MOVING DOWN&#45;&gt;RIGHT -->
<g id="edge10" class="edge">
<title>MOVING DOWN&#45;&gt;RIGHT</title>
<path fill="none" stroke="red" stroke-width="0.55" d="M107.8,-121.51C117.03,-114.19 126.69,-106.62 135.81,-99.64 157.6,-82.96 182.77,-64.54 201.11,-51.27"/>
</g>
<!-- MOVING RIGHT -->
<g id="node7" class="node">
<title>MOVING RIGHT</title>
<ellipse fill="lightcoral" stroke="black" cx="354.81" cy="-160.45" rx="60.62" ry="60.62"/>
<text text-anchor="middle" x="354.81" y="-158.25" font-family="Times New Roman,serif" font-size="9.00">MOVING RIGHT</text>
</g>
<!-- MOVING RIGHT&#45;&gt;UP -->
<g id="edge11" class="edge">
<title>MOVING RIGHT&#45;&gt;UP</title>
<path fill="none" stroke="green" stroke-width="0.35" d="M392.95,-113.02C411.73,-90.15 433.12,-64.11 446.29,-48.07"/>
</g>
<!-- MOVING RIGHT&#45;&gt;DOWN -->
<g id="edge12" class="edge">
<title>MOVING RIGHT&#45;&gt;DOWN</title>
<path fill="none" stroke="red" stroke-width="0.3" d="M398.12,-117.16C406.5,-110.56 415.56,-104.37 424.81,-99.64 506.1,-58.03 614.37,-41.58 667.16,-35.72"/>
</g>
<!-- MOVING RIGHT&#45;&gt;RIGHT -->
<g id="edge13" class="edge">
<title>MOVING RIGHT&#45;&gt;RIGHT</title>
<path fill="none" stroke="green" stroke-width="0.38" d="M311.83,-116.93C290.77,-96.1 266.29,-71.88 249.02,-54.79"/>
</g>
<!-- MOVING LEFT -->
<g id="node8" class="node">
<title>MOVING LEFT</title>
<ellipse fill="lightcoral" stroke="black" cx="615.81" cy="-313.12" rx="55.72" ry="55.72"/>
<text text-anchor="middle" x="615.81" y="-310.92" font-family="Times New Roman,serif" font-size="9.00">MOVING LEFT</text>
</g>
<!-- MOVING LEFT&#45;&gt;DOWN -->
<g id="edge14" class="edge">
<title>MOVING LEFT&#45;&gt;DOWN</title>
<path fill="none" stroke="green" stroke-width="0.28" d="M633.5,-259.88C637.65,-247.27 641.98,-233.81 645.81,-221.26 662.84,-165.52 680.84,-99.89 690.87,-62.64"/>
</g>
<!-- MOVING LEFT&#45;&gt;RIGHT -->
<g id="edge15" class="edge">
<title>MOVING LEFT&#45;&gt;RIGHT</title>
<path fill="none" stroke="green" stroke-width="0.32" d="M559.67,-309.26C450.85,-302.42 217.61,-280.97 168.81,-221.26 134.61,-179.41 149.9,-150.28 168.81,-99.64 175.64,-81.36 189.96,-64.78 202.67,-52.7"/>
</g>
<!-- MOVING LEFT&#45;&gt;LEFT -->
<g id="edge16" class="edge">
<title>MOVING LEFT&#45;&gt;LEFT</title>
<path fill="none" stroke="red" stroke-width="0.39" d="M655.05,-273.25C663.05,-267.05 671.8,-261.35 680.81,-257.26 778.25,-213.1 849.05,-302.37 918.81,-221.26 954.06,-180.28 945.12,-146.86 918.81,-99.64 901.32,-68.25 862.32,-49.74 836.29,-40.44"/>
</g>
<!-- 1099 -->
<g id="node13" class="node">
<title>1099</title>
<ellipse fill="lightgreen" stroke="black" cx="458.81" cy="-160.45" rx="25" ry="25"/>
<text text-anchor="middle" x="458.81" y="-158.25" font-family="Times New Roman,serif" font-size="9.00">1099</text>
</g>
<!-- MOVING LEFT&#45;&gt;1099 -->
<g id="edge19" class="edge">
<title>MOVING LEFT&#45;&gt;1099</title>
<path fill="none" stroke="green" stroke-width="0.3" d="M567.96,-283.61C543.49,-267.44 514.4,-245.59 492.81,-221.26 482.82,-210 474.43,-195.34 468.48,-183.35"/>
</g>
<!-- 666 -->
<g id="node14" class="node">
<title>666</title>
<ellipse fill="lightgreen" stroke="black" cx="615.81" cy="-160.45" rx="21.43" ry="21.43"/>
<text text-anchor="middle" x="615.81" y="-158.25" font-family="Times New Roman,serif" font-size="9.00">666</text>
</g>
<!-- MOVING LEFT&#45;&gt;666 -->
<g id="edge17" class="edge">
<title>MOVING LEFT&#45;&gt;666</title>
<path fill="none" stroke="green" stroke-width="0.47" d="M615.81,-256.87C615.81,-230.67 615.81,-200.97 615.81,-181.76"/>
</g>
<!-- 1099&#45;&gt;UP -->
<g id="edge20" class="edge">
<title>1099&#45;&gt;UP</title>
<path fill="none" stroke="red" stroke-width="0.22" d="M458.81,-135.63C458.81,-111.56 458.81,-74.8 458.81,-52.38"/>
</g>
</g>
</svg>
