<?xml version="1.0" encoding="utf-8" standalone="no"?>
<!DOCTYPE svg PUBLIC "-//W3C//DTD SVG 1.1//EN"
  "http://www.w3.org/Graphics/SVG/1.1/DTD/svg11.dtd">
<svg xmlns:xlink="http://www.w3.org/1999/xlink" width="460.8pt" height="345.6pt" viewBox="0 0 460.8 345.6" xmlns="http://www.w3.org/2000/svg" version="1.1">
 <metadata>
  <rdf:RDF xmlns:dc="http://purl.org/dc/elements/1.1/" xmlns:cc="http://creativecommons.org/ns#" xmlns:rdf="http://www.w3.org/1999/02/22-rdf-syntax-ns#">
   <cc:Work>
    <dc:type rdf:resource="http://purl.org/dc/dcmitype/StillImage"/>
    <dc:date>2022-07-28T19:48:49.327956</dc:date>
    <dc:format>image/svg+xml</dc:format>
    <dc:creator>
     <cc:Agent>
      <dc:title>Matplotlib v3.5.2, https://matplotlib.org/</dc:title>
     </cc:Agent>
    </dc:creator>
   </cc:Work>
  </rdf:RDF>
 </metadata>
 <defs>
  <style type="text/css">*{stroke-linejoin: round; stroke-linecap: butt}</style>
 </defs>
 <g id="figure_1">
  <g id="patch_1">
   <path d="M 0 345.6 
L 460.8 345.6 
L 460.8 0 
L 0 0 
z
" style="fill: #ffffff"/>
  </g>
  <g id="axes_1">
   <g id="patch_2">
    <path d="M 57.6 307.584 
L 414.72 307.584 
L 414.72 41.472 
L 57.6 41.472 
z
" style="fill: #ffffff"/>
   </g>
   <g id="matplotlib.axis_1">
    <g id="xtick_1">
     <g id="line2d_1">
      <path d="M 73.832727 307.584 
L 73.832727 41.472 
" clip-path="url(#p7bd7f61d01)" style="fill: none; stroke: #b0b0b0; stroke-width: 0.8; stroke-linecap: square"/>
     </g>
     <g id="line2d_2">
      <defs>
       <path id="m97eadec9a7" d="M 0 0 
L 0 3.5 
" style="stroke: #000000; stroke-width: 0.8"/>
      </defs>
      <g>
       <use xlink:href="#m97eadec9a7" x="73.832727" y="307.584" style="stroke: #000000; stroke-width: 0.8"/>
      </g>
     </g>
     <g id="text_1">
      <!-- 0 -->
      <g transform="translate(70.651477 322.182437)scale(0.1 -0.1)">
       <defs>
        <path id="DejaVuSans-30" d="M 2034 4250 
Q 1547 4250 1301 3770 
Q 1056 3291 1056 2328 
Q 1056 1369 1301 889 
Q 1547 409 2034 409 
Q 2525 409 2770 889 
Q 3016 1369 3016 2328 
Q 3016 3291 2770 3770 
Q 2525 4250 2034 4250 
z
M 2034 4750 
Q 2819 4750 3233 4129 
Q 3647 3509 3647 2328 
Q 3647 1150 3233 529 
Q 2819 -91 2034 -91 
Q 1250 -91 836 529 
Q 422 1150 422 2328 
Q 422 3509 836 4129 
Q 1250 4750 2034 4750 
z
" transform="scale(0.015625)"/>
       </defs>
       <use xlink:href="#DejaVuSans-30"/>
      </g>
     </g>
    </g>
    <g id="xtick_2">
     <g id="line2d_3">
      <path d="M 114.618474 307.584 
L 114.618474 41.472 
" clip-path="url(#p7bd7f61d01)" style="fill: none; stroke: #b0b0b0; stroke-width: 0.8; stroke-linecap: square"/>
     </g>
     <g id="line2d_4">
      <g>
       <use xlink:href="#m97eadec9a7" x="114.618474" y="307.584" style="stroke: #000000; stroke-width: 0.8"/>
      </g>
     </g>
     <g id="text_2">
      <!-- 25 -->
      <g transform="translate(108.255974 322.182437)scale(0.1 -0.1)">
       <defs>
        <path id="DejaVuSans-32" d="M 1228 531 
L 3431 531 
L 3431 0 
L 469 0 
L 469 531 
Q 828 903 1448 1529 
Q 2069 2156 2228 2338 
Q 2531 2678 2651 2914 
Q 2772 3150 2772 3378 
Q 2772 3750 2511 3984 
Q 2250 4219 1831 4219 
Q 1534 4219 1204 4116 
Q 875 4013 500 3803 
L 500 4441 
Q 881 4594 1212 4672 
Q 1544 4750 1819 4750 
Q 2544 4750 2975 4387 
Q 3406 4025 3406 3419 
Q 3406 3131 3298 2873 
Q 3191 2616 2906 2266 
Q 2828 2175 2409 1742 
Q 1991 1309 1228 531 
z
" transform="scale(0.015625)"/>
        <path id="DejaVuSans-35" d="M 691 4666 
L 3169 4666 
L 3169 4134 
L 1269 4134 
L 1269 2991 
Q 1406 3038 1543 3061 
Q 1681 3084 1819 3084 
Q 2600 3084 3056 2656 
Q 3513 2228 3513 1497 
Q 3513 744 3044 326 
Q 2575 -91 1722 -91 
Q 1428 -91 1123 -41 
Q 819 9 494 109 
L 494 744 
Q 775 591 1075 516 
Q 1375 441 1709 441 
Q 2250 441 2565 725 
Q 2881 1009 2881 1497 
Q 2881 1984 2565 2268 
Q 2250 2553 1709 2553 
Q 1456 2553 1204 2497 
Q 953 2441 691 2322 
L 691 4666 
z
" transform="scale(0.015625)"/>
       </defs>
       <use xlink:href="#DejaVuSans-32"/>
       <use xlink:href="#DejaVuSans-35" x="63.623047"/>
      </g>
     </g>
    </g>
    <g id="xtick_3">
     <g id="line2d_5">
      <path d="M 155.404221 307.584 
L 155.404221 41.472 
" clip-path="url(#p7bd7f61d01)" style="fill: none; stroke: #b0b0b0; stroke-width: 0.8; stroke-linecap: square"/>
     </g>
     <g id="line2d_6">
      <g>
       <use xlink:href="#m97eadec9a7" x="155.404221" y="307.584" style="stroke: #000000; stroke-width: 0.8"/>
      </g>
     </g>
     <g id="text_3">
      <!-- 50 -->
      <g transform="translate(149.041721 322.182437)scale(0.1 -0.1)">
       <use xlink:href="#DejaVuSans-35"/>
       <use xlink:href="#DejaVuSans-30" x="63.623047"/>
      </g>
     </g>
    </g>
    <g id="xtick_4">
     <g id="line2d_7">
      <path d="M 196.189968 307.584 
L 196.189968 41.472 
" clip-path="url(#p7bd7f61d01)" style="fill: none; stroke: #b0b0b0; stroke-width: 0.8; stroke-linecap: square"/>
     </g>
     <g id="line2d_8">
      <g>
       <use xlink:href="#m97eadec9a7" x="196.189968" y="307.584" style="stroke: #000000; stroke-width: 0.8"/>
      </g>
     </g>
     <g id="text_4">
      <!-- 75 -->
      <g transform="translate(189.827468 322.182437)scale(0.1 -0.1)">
       <defs>
        <path id="DejaVuSans-37" d="M 525 4666 
L 3525 4666 
L 3525 4397 
L 1831 0 
L 1172 0 
L 2766 4134 
L 525 4134 
L 525 4666 
z
" transform="scale(0.015625)"/>
       </defs>
       <use xlink:href="#DejaVuSans-37"/>
       <use xlink:href="#DejaVuSans-35" x="63.623047"/>
      </g>
     </g>
    </g>
    <g id="xtick_5">
     <g id="line2d_9">
      <path d="M 236.975715 307.584 
L 236.975715 41.472 
" clip-path="url(#p7bd7f61d01)" style="fill: none; stroke: #b0b0b0; stroke-width: 0.8; stroke-linecap: square"/>
     </g>
     <g id="line2d_10">
      <g>
       <use xlink:href="#m97eadec9a7" x="236.975715" y="307.584" style="stroke: #000000; stroke-width: 0.8"/>
      </g>
     </g>
     <g id="text_5">
      <!-- 100 -->
      <g transform="translate(227.431965 322.182437)scale(0.1 -0.1)">
       <defs>
        <path id="DejaVuSans-31" d="M 794 531 
L 1825 531 
L 1825 4091 
L 703 3866 
L 703 4441 
L 1819 4666 
L 2450 4666 
L 2450 531 
L 3481 531 
L 3481 0 
L 794 0 
L 794 531 
z
" transform="scale(0.015625)"/>
       </defs>
       <use xlink:href="#DejaVuSans-31"/>
       <use xlink:href="#DejaVuSans-30" x="63.623047"/>
       <use xlink:href="#DejaVuSans-30" x="127.246094"/>
      </g>
     </g>
    </g>
    <g id="xtick_6">
     <g id="line2d_11">
      <path d="M 277.761462 307.584 
L 277.761462 41.472 
" clip-path="url(#p7bd7f61d01)" style="fill: none; stroke: #b0b0b0; stroke-width: 0.8; stroke-linecap: square"/>
     </g>
     <g id="line2d_12">
      <g>
       <use xlink:href="#m97eadec9a7" x="277.761462" y="307.584" style="stroke: #000000; stroke-width: 0.8"/>
      </g>
     </g>
     <g id="text_6">
      <!-- 125 -->
      <g transform="translate(268.217712 322.182437)scale(0.1 -0.1)">
       <use xlink:href="#DejaVuSans-31"/>
       <use xlink:href="#DejaVuSans-32" x="63.623047"/>
       <use xlink:href="#DejaVuSans-35" x="127.246094"/>
      </g>
     </g>
    </g>
    <g id="xtick_7">
     <g id="line2d_13">
      <path d="M 318.547209 307.584 
L 318.547209 41.472 
" clip-path="url(#p7bd7f61d01)" style="fill: none; stroke: #b0b0b0; stroke-width: 0.8; stroke-linecap: square"/>
     </g>
     <g id="line2d_14">
      <g>
       <use xlink:href="#m97eadec9a7" x="318.547209" y="307.584" style="stroke: #000000; stroke-width: 0.8"/>
      </g>
     </g>
     <g id="text_7">
      <!-- 150 -->
      <g transform="translate(309.003459 322.182437)scale(0.1 -0.1)">
       <use xlink:href="#DejaVuSans-31"/>
       <use xlink:href="#DejaVuSans-35" x="63.623047"/>
       <use xlink:href="#DejaVuSans-30" x="127.246094"/>
      </g>
     </g>
    </g>
    <g id="xtick_8">
     <g id="line2d_15">
      <path d="M 359.332956 307.584 
L 359.332956 41.472 
" clip-path="url(#p7bd7f61d01)" style="fill: none; stroke: #b0b0b0; stroke-width: 0.8; stroke-linecap: square"/>
     </g>
     <g id="line2d_16">
      <g>
       <use xlink:href="#m97eadec9a7" x="359.332956" y="307.584" style="stroke: #000000; stroke-width: 0.8"/>
      </g>
     </g>
     <g id="text_8">
      <!-- 175 -->
      <g transform="translate(349.789206 322.182437)scale(0.1 -0.1)">
       <use xlink:href="#DejaVuSans-31"/>
       <use xlink:href="#DejaVuSans-37" x="63.623047"/>
       <use xlink:href="#DejaVuSans-35" x="127.246094"/>
      </g>
     </g>
    </g>
    <g id="xtick_9">
     <g id="line2d_17">
      <path d="M 400.118703 307.584 
L 400.118703 41.472 
" clip-path="url(#p7bd7f61d01)" style="fill: none; stroke: #b0b0b0; stroke-width: 0.8; stroke-linecap: square"/>
     </g>
     <g id="line2d_18">
      <g>
       <use xlink:href="#m97eadec9a7" x="400.118703" y="307.584" style="stroke: #000000; stroke-width: 0.8"/>
      </g>
     </g>
     <g id="text_9">
      <!-- 200 -->
      <g transform="translate(390.574953 322.182437)scale(0.1 -0.1)">
       <use xlink:href="#DejaVuSans-32"/>
       <use xlink:href="#DejaVuSans-30" x="63.623047"/>
       <use xlink:href="#DejaVuSans-30" x="127.246094"/>
      </g>
     </g>
    </g>
    <g id="text_10">
     <!-- Generations -->
     <g transform="translate(205.662344 335.860562)scale(0.1 -0.1)">
      <defs>
       <path id="DejaVuSans-47" d="M 3809 666 
L 3809 1919 
L 2778 1919 
L 2778 2438 
L 4434 2438 
L 4434 434 
Q 4069 175 3628 42 
Q 3188 -91 2688 -91 
Q 1594 -91 976 548 
Q 359 1188 359 2328 
Q 359 3472 976 4111 
Q 1594 4750 2688 4750 
Q 3144 4750 3555 4637 
Q 3966 4525 4313 4306 
L 4313 3634 
Q 3963 3931 3569 4081 
Q 3175 4231 2741 4231 
Q 1884 4231 1454 3753 
Q 1025 3275 1025 2328 
Q 1025 1384 1454 906 
Q 1884 428 2741 428 
Q 3075 428 3337 486 
Q 3600 544 3809 666 
z
" transform="scale(0.015625)"/>
       <path id="DejaVuSans-65" d="M 3597 1894 
L 3597 1613 
L 953 1613 
Q 991 1019 1311 708 
Q 1631 397 2203 397 
Q 2534 397 2845 478 
Q 3156 559 3463 722 
L 3463 178 
Q 3153 47 2828 -22 
Q 2503 -91 2169 -91 
Q 1331 -91 842 396 
Q 353 884 353 1716 
Q 353 2575 817 3079 
Q 1281 3584 2069 3584 
Q 2775 3584 3186 3129 
Q 3597 2675 3597 1894 
z
M 3022 2063 
Q 3016 2534 2758 2815 
Q 2500 3097 2075 3097 
Q 1594 3097 1305 2825 
Q 1016 2553 972 2059 
L 3022 2063 
z
" transform="scale(0.015625)"/>
       <path id="DejaVuSans-6e" d="M 3513 2113 
L 3513 0 
L 2938 0 
L 2938 2094 
Q 2938 2591 2744 2837 
Q 2550 3084 2163 3084 
Q 1697 3084 1428 2787 
Q 1159 2491 1159 1978 
L 1159 0 
L 581 0 
L 581 3500 
L 1159 3500 
L 1159 2956 
Q 1366 3272 1645 3428 
Q 1925 3584 2291 3584 
Q 2894 3584 3203 3211 
Q 3513 2838 3513 2113 
z
" transform="scale(0.015625)"/>
       <path id="DejaVuSans-72" d="M 2631 2963 
Q 2534 3019 2420 3045 
Q 2306 3072 2169 3072 
Q 1681 3072 1420 2755 
Q 1159 2438 1159 1844 
L 1159 0 
L 581 0 
L 581 3500 
L 1159 3500 
L 1159 2956 
Q 1341 3275 1631 3429 
Q 1922 3584 2338 3584 
Q 2397 3584 2469 3576 
Q 2541 3569 2628 3553 
L 2631 2963 
z
" transform="scale(0.015625)"/>
       <path id="DejaVuSans-61" d="M 2194 1759 
Q 1497 1759 1228 1600 
Q 959 1441 959 1056 
Q 959 750 1161 570 
Q 1363 391 1709 391 
Q 2188 391 2477 730 
Q 2766 1069 2766 1631 
L 2766 1759 
L 2194 1759 
z
M 3341 1997 
L 3341 0 
L 2766 0 
L 2766 531 
Q 2569 213 2275 61 
Q 1981 -91 1556 -91 
Q 1019 -91 701 211 
Q 384 513 384 1019 
Q 384 1609 779 1909 
Q 1175 2209 1959 2209 
L 2766 2209 
L 2766 2266 
Q 2766 2663 2505 2880 
Q 2244 3097 1772 3097 
Q 1472 3097 1187 3025 
Q 903 2953 641 2809 
L 641 3341 
Q 956 3463 1253 3523 
Q 1550 3584 1831 3584 
Q 2591 3584 2966 3190 
Q 3341 2797 3341 1997 
z
" transform="scale(0.015625)"/>
       <path id="DejaVuSans-74" d="M 1172 4494 
L 1172 3500 
L 2356 3500 
L 2356 3053 
L 1172 3053 
L 1172 1153 
Q 1172 725 1289 603 
Q 1406 481 1766 481 
L 2356 481 
L 2356 0 
L 1766 0 
Q 1100 0 847 248 
Q 594 497 594 1153 
L 594 3053 
L 172 3053 
L 172 3500 
L 594 3500 
L 594 4494 
L 1172 4494 
z
" transform="scale(0.015625)"/>
       <path id="DejaVuSans-69" d="M 603 3500 
L 1178 3500 
L 1178 0 
L 603 0 
L 603 3500 
z
M 603 4863 
L 1178 4863 
L 1178 4134 
L 603 4134 
L 603 4863 
z
" transform="scale(0.015625)"/>
       <path id="DejaVuSans-6f" d="M 1959 3097 
Q 1497 3097 1228 2736 
Q 959 2375 959 1747 
Q 959 1119 1226 758 
Q 1494 397 1959 397 
Q 2419 397 2687 759 
Q 2956 1122 2956 1747 
Q 2956 2369 2687 2733 
Q 2419 3097 1959 3097 
z
M 1959 3584 
Q 2709 3584 3137 3096 
Q 3566 2609 3566 1747 
Q 3566 888 3137 398 
Q 2709 -91 1959 -91 
Q 1206 -91 779 398 
Q 353 888 353 1747 
Q 353 2609 779 3096 
Q 1206 3584 1959 3584 
z
" transform="scale(0.015625)"/>
       <path id="DejaVuSans-73" d="M 2834 3397 
L 2834 2853 
Q 2591 2978 2328 3040 
Q 2066 3103 1784 3103 
Q 1356 3103 1142 2972 
Q 928 2841 928 2578 
Q 928 2378 1081 2264 
Q 1234 2150 1697 2047 
L 1894 2003 
Q 2506 1872 2764 1633 
Q 3022 1394 3022 966 
Q 3022 478 2636 193 
Q 2250 -91 1575 -91 
Q 1294 -91 989 -36 
Q 684 19 347 128 
L 347 722 
Q 666 556 975 473 
Q 1284 391 1588 391 
Q 1994 391 2212 530 
Q 2431 669 2431 922 
Q 2431 1156 2273 1281 
Q 2116 1406 1581 1522 
L 1381 1569 
Q 847 1681 609 1914 
Q 372 2147 372 2553 
Q 372 3047 722 3315 
Q 1072 3584 1716 3584 
Q 2034 3584 2315 3537 
Q 2597 3491 2834 3397 
z
" transform="scale(0.015625)"/>
      </defs>
      <use xlink:href="#DejaVuSans-47"/>
      <use xlink:href="#DejaVuSans-65" x="77.490234"/>
      <use xlink:href="#DejaVuSans-6e" x="139.013672"/>
      <use xlink:href="#DejaVuSans-65" x="202.392578"/>
      <use xlink:href="#DejaVuSans-72" x="263.916016"/>
      <use xlink:href="#DejaVuSans-61" x="305.029297"/>
      <use xlink:href="#DejaVuSans-74" x="366.308594"/>
      <use xlink:href="#DejaVuSans-69" x="405.517578"/>
      <use xlink:href="#DejaVuSans-6f" x="433.300781"/>
      <use xlink:href="#DejaVuSans-6e" x="494.482422"/>
      <use xlink:href="#DejaVuSans-73" x="557.861328"/>
     </g>
    </g>
   </g>
   <g id="matplotlib.axis_2">
    <g id="ytick_1">
     <g id="line2d_19">
      <path d="M 57.6 282.25274 
L 414.72 282.25274 
" clip-path="url(#p7bd7f61d01)" style="fill: none; stroke: #b0b0b0; stroke-width: 0.8; stroke-linecap: square"/>
     </g>
     <g id="line2d_20">
      <defs>
       <path id="m38c2be6106" d="M 0 0 
L -3.5 0 
" style="stroke: #000000; stroke-width: 0.8"/>
      </defs>
      <g>
       <use xlink:href="#m38c2be6106" x="57.6" y="282.25274" style="stroke: #000000; stroke-width: 0.8"/>
      </g>
     </g>
     <g id="text_11">
      <!-- 0 -->
      <g transform="translate(44.2375 286.051959)scale(0.1 -0.1)">
       <use xlink:href="#DejaVuSans-30"/>
      </g>
     </g>
    </g>
    <g id="ytick_2">
     <g id="line2d_21">
      <path d="M 57.6 249.013679 
L 414.72 249.013679 
" clip-path="url(#p7bd7f61d01)" style="fill: none; stroke: #b0b0b0; stroke-width: 0.8; stroke-linecap: square"/>
     </g>
     <g id="line2d_22">
      <g>
       <use xlink:href="#m38c2be6106" x="57.6" y="249.013679" style="stroke: #000000; stroke-width: 0.8"/>
      </g>
     </g>
     <g id="text_12">
      <!-- 25 -->
      <g transform="translate(37.875 252.812898)scale(0.1 -0.1)">
       <use xlink:href="#DejaVuSans-32"/>
       <use xlink:href="#DejaVuSans-35" x="63.623047"/>
      </g>
     </g>
    </g>
    <g id="ytick_3">
     <g id="line2d_23">
      <path d="M 57.6 215.774618 
L 414.72 215.774618 
" clip-path="url(#p7bd7f61d01)" style="fill: none; stroke: #b0b0b0; stroke-width: 0.8; stroke-linecap: square"/>
     </g>
     <g id="line2d_24">
      <g>
       <use xlink:href="#m38c2be6106" x="57.6" y="215.774618" style="stroke: #000000; stroke-width: 0.8"/>
      </g>
     </g>
     <g id="text_13">
      <!-- 50 -->
      <g transform="translate(37.875 219.573837)scale(0.1 -0.1)">
       <use xlink:href="#DejaVuSans-35"/>
       <use xlink:href="#DejaVuSans-30" x="63.623047"/>
      </g>
     </g>
    </g>
    <g id="ytick_4">
     <g id="line2d_25">
      <path d="M 57.6 182.535557 
L 414.72 182.535557 
" clip-path="url(#p7bd7f61d01)" style="fill: none; stroke: #b0b0b0; stroke-width: 0.8; stroke-linecap: square"/>
     </g>
     <g id="line2d_26">
      <g>
       <use xlink:href="#m38c2be6106" x="57.6" y="182.535557" style="stroke: #000000; stroke-width: 0.8"/>
      </g>
     </g>
     <g id="text_14">
      <!-- 75 -->
      <g transform="translate(37.875 186.334776)scale(0.1 -0.1)">
       <use xlink:href="#DejaVuSans-37"/>
       <use xlink:href="#DejaVuSans-35" x="63.623047"/>
      </g>
     </g>
    </g>
    <g id="ytick_5">
     <g id="line2d_27">
      <path d="M 57.6 149.296496 
L 414.72 149.296496 
" clip-path="url(#p7bd7f61d01)" style="fill: none; stroke: #b0b0b0; stroke-width: 0.8; stroke-linecap: square"/>
     </g>
     <g id="line2d_28">
      <g>
       <use xlink:href="#m38c2be6106" x="57.6" y="149.296496" style="stroke: #000000; stroke-width: 0.8"/>
      </g>
     </g>
     <g id="text_15">
      <!-- 100 -->
      <g transform="translate(31.5125 153.095714)scale(0.1 -0.1)">
       <use xlink:href="#DejaVuSans-31"/>
       <use xlink:href="#DejaVuSans-30" x="63.623047"/>
       <use xlink:href="#DejaVuSans-30" x="127.246094"/>
      </g>
     </g>
    </g>
    <g id="ytick_6">
     <g id="line2d_29">
      <path d="M 57.6 116.057435 
L 414.72 116.057435 
" clip-path="url(#p7bd7f61d01)" style="fill: none; stroke: #b0b0b0; stroke-width: 0.8; stroke-linecap: square"/>
     </g>
     <g id="line2d_30">
      <g>
       <use xlink:href="#m38c2be6106" x="57.6" y="116.057435" style="stroke: #000000; stroke-width: 0.8"/>
      </g>
     </g>
     <g id="text_16">
      <!-- 125 -->
      <g transform="translate(31.5125 119.856653)scale(0.1 -0.1)">
       <use xlink:href="#DejaVuSans-31"/>
       <use xlink:href="#DejaVuSans-32" x="63.623047"/>
       <use xlink:href="#DejaVuSans-35" x="127.246094"/>
      </g>
     </g>
    </g>
    <g id="ytick_7">
     <g id="line2d_31">
      <path d="M 57.6 82.818374 
L 414.72 82.818374 
" clip-path="url(#p7bd7f61d01)" style="fill: none; stroke: #b0b0b0; stroke-width: 0.8; stroke-linecap: square"/>
     </g>
     <g id="line2d_32">
      <g>
       <use xlink:href="#m38c2be6106" x="57.6" y="82.818374" style="stroke: #000000; stroke-width: 0.8"/>
      </g>
     </g>
     <g id="text_17">
      <!-- 150 -->
      <g transform="translate(31.5125 86.617592)scale(0.1 -0.1)">
       <use xlink:href="#DejaVuSans-31"/>
       <use xlink:href="#DejaVuSans-35" x="63.623047"/>
       <use xlink:href="#DejaVuSans-30" x="127.246094"/>
      </g>
     </g>
    </g>
    <g id="ytick_8">
     <g id="line2d_33">
      <path d="M 57.6 49.579313 
L 414.72 49.579313 
" clip-path="url(#p7bd7f61d01)" style="fill: none; stroke: #b0b0b0; stroke-width: 0.8; stroke-linecap: square"/>
     </g>
     <g id="line2d_34">
      <g>
       <use xlink:href="#m38c2be6106" x="57.6" y="49.579313" style="stroke: #000000; stroke-width: 0.8"/>
      </g>
     </g>
     <g id="text_18">
      <!-- 175 -->
      <g transform="translate(31.5125 53.378531)scale(0.1 -0.1)">
       <use xlink:href="#DejaVuSans-31"/>
       <use xlink:href="#DejaVuSans-37" x="63.623047"/>
       <use xlink:href="#DejaVuSans-35" x="127.246094"/>
      </g>
     </g>
    </g>
    <g id="text_19">
     <!-- Fitness -->
     <g transform="translate(25.432812 191.845187)rotate(-90)scale(0.1 -0.1)">
      <defs>
       <path id="DejaVuSans-46" d="M 628 4666 
L 3309 4666 
L 3309 4134 
L 1259 4134 
L 1259 2759 
L 3109 2759 
L 3109 2228 
L 1259 2228 
L 1259 0 
L 628 0 
L 628 4666 
z
" transform="scale(0.015625)"/>
      </defs>
      <use xlink:href="#DejaVuSans-46"/>
      <use xlink:href="#DejaVuSans-69" x="50.269531"/>
      <use xlink:href="#DejaVuSans-74" x="78.052734"/>
      <use xlink:href="#DejaVuSans-6e" x="117.261719"/>
      <use xlink:href="#DejaVuSans-65" x="180.640625"/>
      <use xlink:href="#DejaVuSans-73" x="242.164062"/>
      <use xlink:href="#DejaVuSans-73" x="294.263672"/>
     </g>
    </g>
   </g>
   <g id="line2d_35">
    <path d="M 73.832727 258.320616 
L 75.464157 260.580872 
L 77.095587 260.580872 
L 78.727017 260.279505 
L 80.358447 261.334291 
L 81.989877 261.032923 
L 83.621307 261.786342 
L 85.252736 260.430188 
L 86.884166 261.032923 
L 88.515596 259.53495 
L 90.147026 260.270641 
L 91.778456 256.76946 
L 93.409886 257.646971 
L 95.041316 253.826695 
L 96.672746 250.52938 
L 98.304175 235.514188 
L 99.935605 229.407065 
L 101.567035 226.056567 
L 103.198465 221.341053 
L 104.829895 204.021286 
L 106.461325 213.833457 
L 108.092755 205.997902 
L 109.724185 217.9551 
L 111.355614 205.395167 
L 112.987044 204.180833 
L 114.618474 195.130945 
L 116.249904 196.923007 
L 117.881334 203.047556 
L 119.512764 193.154446 
L 121.144194 208.114225 
L 122.775624 189.369508 
L 124.407053 207.442693 
L 126.038483 198.35735 
L 127.669913 208.213839 
L 129.301343 198.383227 
L 130.932773 193.682749 
L 132.564203 216.129168 
L 134.195633 210.713417 
L 135.827063 190.160729 
L 137.458492 189.121323 
L 139.089922 185.974692 
L 140.721352 191.10287 
L 142.352782 193.278421 
L 143.984212 205.692836 
L 145.615642 192.309161 
L 147.247072 191.168729 
L 148.878502 199.846638 
L 150.509931 202.782383 
L 152.141361 188.585512 
L 153.772791 183.667482 
L 155.404221 186.346969 
L 157.035651 200.218737 
L 158.667081 189.502464 
L 160.298511 200.430749 
L 161.929941 195.699105 
L 163.56137 203.896027 
L 165.1928 197.512946 
L 166.82423 190.238155 
L 168.45566 193.420241 
L 170.08709 191.381579 
L 171.71852 196.779602 
L 173.34995 205.326772 
L 174.98138 191.603173 
L 176.61281 184.772039 
L 178.244239 196.885967 
L 179.875669 189.555646 
L 181.507099 187.667668 
L 183.138529 191.699722 
L 184.769959 187.006099 
L 186.401389 192.675686 
L 188.032819 174.380907 
L 189.664249 195.999592 
L 191.295678 188.261539 
L 192.927108 187.481529 
L 194.558538 185.531504 
L 196.189968 195.45004 
L 197.821398 182.703968 
L 199.452828 164.258505 
L 202.715688 172.191561 
L 204.347117 184.219669 
L 205.978547 180.479167 
L 207.609977 176.020701 
L 209.241407 177.722541 
L 210.872837 181.021088 
L 212.504267 182.720463 
L 214.135697 180.700761 
L 215.767127 184.980524 
L 217.398556 186.970347 
L 219.029986 190.847523 
L 220.661416 188.073933 
L 222.292846 172.466337 
L 223.924276 167.699049 
L 225.555706 179.001955 
L 227.187136 174.442953 
L 228.818566 177.014791 
L 230.449995 187.448774 
L 233.712855 166.059763 
L 235.344285 177.702418 
L 236.975715 175.468352 
L 238.607145 185.974692 
L 240.238575 193.260107 
L 241.870005 189.33207 
L 243.501434 183.873983 
L 245.132864 173.817553 
L 246.764294 181.682121 
L 248.395724 170.910869 
L 250.027154 191.22679 
L 251.658584 182.659649 
L 253.290014 185.351101 
L 254.921444 186.031161 
L 256.552873 170.819345 
L 258.184303 180.545675 
L 259.815733 181.960611 
L 261.447163 175.521892 
L 263.078593 185.779689 
L 264.710023 173.621242 
L 266.341453 177.749132 
L 267.972883 173.902148 
L 269.604312 183.677731 
L 271.235742 182.116165 
L 272.867172 167.289907 
L 274.498602 179.312909 
L 276.130032 185.917464 
L 277.761462 171.042426 
L 279.392892 175.584354 
L 281.024322 169.151882 
L 282.655751 174.049558 
L 284.287181 176.047292 
L 285.918611 170.569495 
L 287.550041 173.024753 
L 289.181471 174.46895 
L 290.812901 167.482054 
L 292.444331 179.796658 
L 294.075761 174.87102 
L 295.70719 177.580721 
L 297.33862 178.791789 
L 298.97005 186.867641 
L 300.60148 168.410071 
L 302.23291 174.620228 
L 303.86434 178.600409 
L 305.49577 165.594642 
L 307.1272 148.481031 
L 308.75863 164.878968 
L 310.390059 161.623565 
L 312.021489 162.982125 
L 316.915779 170.968364 
L 318.547209 168.993391 
L 320.178639 171.136775 
L 321.810069 174.144345 
L 323.441498 162.705833 
L 325.072928 169.572323 
L 326.704358 171.881447 
L 328.335788 174.927994 
L 329.967218 165.057534 
L 331.598648 170.737906 
L 333.230078 179.637111 
L 334.861508 185.177072 
L 336.492937 177.516679 
L 338.124367 176.937399 
L 339.755797 163.061899 
L 341.387227 179.920751 
L 343.018657 182.053702 
L 344.650087 177.112342 
L 346.281517 166.213428 
L 347.912947 163.85922 
L 349.544376 172.068599 
L 351.175806 160.642095 
L 352.807236 182.82303 
L 354.438666 180.541213 
L 356.070096 169.488117 
L 357.701526 177.965736 
L 359.332956 167.743074 
L 360.964386 167.785445 
L 362.595815 174.706883 
L 364.227245 177.120451 
L 365.858675 178.406915 
L 367.490105 172.665097 
L 369.121535 168.671369 
L 370.752965 170.840656 
L 372.384395 174.558182 
L 374.015825 182.376009 
L 375.647254 171.177043 
L 377.278684 176.239947 
L 378.910114 164.449986 
L 380.541544 171.31405 
L 382.172974 166.906594 
L 383.804404 165.706575 
L 385.435834 174.219099 
L 387.067264 173.130464 
L 388.698693 169.177886 
L 390.330123 163.507845 
L 391.961553 162.25973 
L 393.592983 177.243548 
L 395.224413 172.493861 
L 396.855843 174.323553 
L 398.487273 163.999892 
L 398.487273 163.999892 
" clip-path="url(#p7bd7f61d01)" style="fill: none; stroke: #0000ff; stroke-width: 1.5; stroke-linecap: square"/>
   </g>
   <g id="line2d_36">
    <path d="M 73.832727 258.320616 
L 75.464157 267.36164 
L 77.095587 267.36164 
L 78.727017 266.638644 
L 80.358447 269.017684 
L 81.989877 268.377886 
L 83.621307 269.930237 
L 85.252736 267.005251 
L 86.884166 268.377886 
L 88.515596 264.612733 
L 90.147026 272.298262 
L 91.778456 278.780534 
L 93.409886 284.38396 
L 95.041316 290.428616 
L 96.672746 295.488 
L 98.304175 292.429346 
L 99.935605 290.290415 
L 101.567035 288.410573 
L 103.198465 282.854144 
L 104.829895 269.736664 
L 106.461325 279.430467 
L 108.092755 271.271364 
L 109.724185 284.126766 
L 111.355614 272.900933 
L 112.987044 271.680912 
L 114.618474 264.472727 
L 116.249904 264.033335 
L 117.881334 273.739056 
L 119.512764 265.792633 
L 121.144194 279.162791 
L 122.775624 261.696243 
L 124.407053 278.582056 
L 126.038483 268.699748 
L 127.669913 279.137929 
L 129.301343 267.666955 
L 130.932773 265.87813 
L 132.564203 286.09139 
L 134.195633 282.765348 
L 135.827063 261.938462 
L 137.458492 260.28796 
L 139.089922 256.200629 
L 140.721352 263.007533 
L 142.352782 267.169488 
L 143.984212 277.348737 
L 145.615642 265.568442 
L 147.247072 266.019654 
L 148.878502 273.118277 
L 150.509931 274.98627 
L 152.141361 261.898584 
L 153.772791 257.783778 
L 155.404221 259.416583 
L 157.035651 274.993554 
L 158.667081 264.035269 
L 160.298511 271.444007 
L 161.929941 267.689864 
L 163.56137 275.384239 
L 165.1928 270.205379 
L 166.82423 264.361358 
L 168.45566 265.95611 
L 170.08709 264.603499 
L 171.71852 269.840938 
L 173.34995 276.932909 
L 174.98138 262.875834 
L 176.61281 256.684311 
L 178.244239 268.684193 
L 179.875669 263.006901 
L 181.507099 260.311116 
L 183.138529 264.349494 
L 184.769959 259.241213 
L 186.401389 266.776349 
L 188.032819 249.801781 
L 189.664249 273.138402 
L 191.295678 263.855233 
L 192.927108 265.64037 
L 194.558538 260.364839 
L 196.189968 269.546852 
L 197.821398 258.842333 
L 199.452828 235.746971 
L 201.084258 241.852324 
L 202.715688 247.287223 
L 204.347117 261.306574 
L 205.978547 255.427438 
L 207.609977 250.100877 
L 210.872837 257.405386 
L 212.504267 256.859727 
L 214.135697 254.906811 
L 215.767127 262.515709 
L 217.398556 263.946994 
L 219.029986 265.193067 
L 220.661416 263.652941 
L 222.292846 246.164939 
L 223.924276 240.462532 
L 225.555706 254.306338 
L 227.187136 248.921387 
L 228.818566 251.583213 
L 230.449995 264.11119 
L 233.712855 238.601168 
L 235.344285 251.966954 
L 236.975715 250.781608 
L 238.607145 262.149405 
L 240.238575 267.546018 
L 241.870005 263.136267 
L 243.501434 257.727237 
L 245.132864 247.393277 
L 246.764294 259.543256 
L 248.395724 245.318083 
L 250.027154 267.3734 
L 251.658584 255.699368 
L 253.290014 259.564895 
L 254.921444 260.507978 
L 256.552873 244.300998 
L 258.184303 257.039885 
L 259.815733 257.640342 
L 261.447163 251.38571 
L 263.078593 262.890716 
L 264.710023 248.176501 
L 266.341453 252.677653 
L 267.972883 249.578634 
L 269.604312 259.407277 
L 271.235742 257.152764 
L 272.867172 239.397423 
L 274.498602 254.322545 
L 276.130032 264.045063 
L 277.761462 245.675232 
L 279.392892 251.848287 
L 281.024322 242.212176 
L 282.655751 249.311049 
L 284.287181 251.091785 
L 285.918611 245.727611 
L 289.181471 249.881317 
L 290.812901 240.528897 
L 292.444331 253.351505 
L 294.075761 248.363898 
L 295.70719 252.992724 
L 297.33862 253.758397 
L 298.97005 262.87435 
L 300.60148 241.354066 
L 302.23291 249.561541 
L 303.86434 252.752835 
L 305.49577 237.978946 
L 307.1272 211.458852 
L 308.75863 236.62922 
L 310.390059 231.820461 
L 312.021489 234.100427 
L 313.652919 238.304031 
L 315.284349 241.857715 
L 316.915779 244.48964 
L 318.547209 242.986825 
L 320.178639 244.540077 
L 321.810069 250.67229 
L 323.441498 236.58632 
L 325.072928 243.594527 
L 326.704358 246.801218 
L 328.335788 250.378753 
L 329.967218 235.147025 
L 331.598648 243.192154 
L 333.230078 255.712573 
L 334.861508 262.084037 
L 336.492937 253.989837 
L 338.124367 253.147059 
L 339.755797 234.354079 
L 341.387227 257.062023 
L 343.018657 257.699888 
L 344.650087 252.195226 
L 346.281517 239.400121 
L 347.912947 237.334086 
L 349.544376 246.69969 
L 351.175806 231.141453 
L 352.807236 259.519019 
L 354.438666 257.036348 
L 356.070096 242.823482 
L 357.701526 253.274922 
L 359.332956 241.147168 
L 360.964386 242.912311 
L 362.595815 250.288267 
L 364.227245 252.226737 
L 365.858675 253.318235 
L 367.490105 247.905364 
L 369.121535 243.141954 
L 370.752965 245.74688 
L 372.384395 246.046532 
L 374.015825 256.682877 
L 375.647254 244.743382 
L 377.278684 250.502221 
L 378.910114 235.593952 
L 380.541544 245.404045 
L 382.172974 237.833662 
L 383.804404 237.127657 
L 385.435834 248.395565 
L 387.067264 248.959124 
L 388.698693 242.649068 
L 390.330123 232.15965 
L 391.961553 233.100394 
L 393.592983 251.377122 
L 395.224413 244.16228 
L 396.855843 248.072607 
L 398.487273 236.847334 
L 398.487273 236.847334 
" clip-path="url(#p7bd7f61d01)" style="fill: none; stroke-dasharray: 9.6,2.4,1.5,2.4; stroke-dashoffset: 0; stroke: #008000; stroke-width: 1.5"/>
   </g>
   <g id="line2d_37">
    <path d="M 73.832727 258.320616 
L 75.464157 253.800104 
L 77.095587 253.800104 
L 78.727017 253.920365 
L 80.358447 253.650897 
L 85.252736 253.855126 
L 86.884166 253.68796 
L 88.515596 254.457166 
L 90.147026 248.243019 
L 91.778456 234.758385 
L 93.409886 230.909982 
L 95.041316 217.224774 
L 96.672746 205.57076 
L 98.304175 178.59903 
L 99.935605 168.523714 
L 101.567035 163.702562 
L 103.198465 159.827961 
L 104.829895 138.305908 
L 106.461325 148.236446 
L 108.092755 140.72444 
L 109.724185 151.783434 
L 111.355614 137.889401 
L 112.987044 136.680755 
L 114.618474 125.789163 
L 116.249904 129.81268 
L 117.881334 132.356056 
L 119.512764 120.516259 
L 121.144194 137.065659 
L 122.775624 117.042772 
L 124.407053 136.30333 
L 126.038483 128.014952 
L 127.669913 137.28975 
L 129.301343 129.0995 
L 130.932773 121.487368 
L 132.564203 146.166946 
L 134.195633 138.661486 
L 135.827063 118.382997 
L 137.458492 117.954686 
L 139.089922 115.748755 
L 140.721352 119.198206 
L 142.352782 119.387355 
L 143.984212 134.036935 
L 145.615642 119.04988 
L 147.247072 116.317805 
L 148.878502 126.575 
L 150.509931 130.578497 
L 152.141361 115.27244 
L 153.772791 109.551186 
L 155.404221 113.277355 
L 157.035651 125.44392 
L 158.667081 114.969659 
L 160.298511 129.41749 
L 161.929941 123.708347 
L 163.56137 132.407815 
L 165.1928 124.820512 
L 166.82423 116.114952 
L 168.45566 120.884373 
L 170.08709 118.159659 
L 171.71852 123.718267 
L 173.34995 133.720636 
L 174.98138 120.330512 
L 176.61281 112.859767 
L 178.244239 125.087741 
L 179.875669 116.104392 
L 181.507099 115.024219 
L 183.138529 119.04995 
L 184.769959 114.770984 
L 186.401389 118.575024 
L 188.032819 98.960033 
L 189.664249 118.860783 
L 191.295678 112.667845 
L 192.927108 109.322688 
L 194.558538 110.69817 
L 196.189968 121.353228 
L 199.452828 92.77004 
L 201.084258 94.482514 
L 202.715688 97.095899 
L 204.347117 107.132765 
L 205.978547 105.530896 
L 207.609977 101.940525 
L 209.241407 101.680763 
L 210.872837 104.636791 
L 212.504267 108.581198 
L 214.135697 106.49471 
L 215.767127 107.445339 
L 217.398556 109.9937 
L 219.029986 116.501979 
L 220.661416 112.494925 
L 222.292846 98.767735 
L 223.924276 94.935565 
L 225.555706 103.697571 
L 227.187136 99.964519 
L 228.818566 102.446369 
L 230.449995 110.786359 
L 232.081425 101.668767 
L 233.712855 93.518357 
L 235.344285 103.437882 
L 236.975715 100.155097 
L 240.238575 118.974195 
L 241.870005 115.527873 
L 243.501434 110.020729 
L 245.132864 100.24183 
L 246.764294 103.820987 
L 248.395724 96.503655 
L 250.027154 115.080181 
L 251.658584 109.61993 
L 253.290014 111.137307 
L 254.921444 111.554344 
L 256.552873 97.337693 
L 258.184303 104.051464 
L 259.815733 106.28088 
L 261.447163 99.658074 
L 263.078593 108.668662 
L 264.710023 99.065983 
L 266.341453 102.820611 
L 267.972883 98.225662 
L 269.604312 107.948186 
L 271.235742 107.079565 
L 272.867172 95.182392 
L 274.498602 104.303272 
L 276.130032 107.789864 
L 277.761462 96.40962 
L 279.392892 99.320422 
L 281.024322 96.091588 
L 282.655751 98.788066 
L 284.287181 101.002799 
L 285.918611 95.411379 
L 287.550041 98.318686 
L 289.181471 99.056583 
L 290.812901 94.435212 
L 292.444331 106.241811 
L 294.075761 101.378143 
L 295.70719 102.168718 
L 297.33862 103.825181 
L 298.97005 110.860932 
L 300.60148 95.466077 
L 302.23291 99.678915 
L 303.86434 104.447982 
L 305.49577 93.210337 
L 307.1272 85.50321 
L 308.75863 93.128715 
L 310.390059 91.426668 
L 312.021489 91.863824 
L 313.652919 92.854377 
L 315.284349 94.122572 
L 316.915779 97.447087 
L 318.547209 94.999957 
L 320.178639 97.733472 
L 321.810069 97.6164 
L 323.441498 88.825345 
L 325.072928 95.550119 
L 326.704358 96.961676 
L 328.335788 99.477236 
L 329.967218 94.968043 
L 331.598648 98.283658 
L 333.230078 103.561648 
L 334.861508 108.270106 
L 336.492937 101.04352 
L 338.124367 100.727739 
L 339.755797 91.769718 
L 341.387227 102.779479 
L 343.018657 106.407516 
L 344.650087 102.029457 
L 346.281517 93.026735 
L 347.912947 90.384354 
L 349.544376 97.437507 
L 351.175806 90.142737 
L 352.807236 106.12704 
L 354.438666 104.046078 
L 356.070096 96.152753 
L 357.701526 102.656551 
L 359.332956 94.33898 
L 360.964386 92.658578 
L 362.595815 99.125499 
L 364.227245 102.014166 
L 365.858675 103.495596 
L 367.490105 97.424829 
L 369.121535 94.200785 
L 370.752965 95.934431 
L 372.384395 103.069832 
L 374.015825 108.069141 
L 375.647254 97.610704 
L 377.278684 101.977672 
L 378.910114 93.306019 
L 380.541544 97.224054 
L 382.172974 95.979527 
L 383.804404 94.285492 
L 385.435834 100.042633 
L 387.067264 97.301804 
L 388.698693 95.706704 
L 390.330123 94.856041 
L 391.961553 91.419065 
L 393.592983 103.109975 
L 395.224413 100.825443 
L 396.855843 100.5745 
L 398.487273 91.15245 
L 398.487273 91.15245 
" clip-path="url(#p7bd7f61d01)" style="fill: none; stroke-dasharray: 9.6,2.4,1.5,2.4; stroke-dashoffset: 0; stroke: #008000; stroke-width: 1.5"/>
   </g>
   <g id="line2d_38">
    <path d="M 73.832727 258.320616 
L 88.515596 258.320616 
L 90.147026 143.978246 
L 95.041316 143.978246 
L 96.672746 113.39831 
L 98.304175 113.39831 
L 99.935605 108.08006 
L 101.567035 113.39831 
L 103.198465 113.39831 
L 104.829895 62.874937 
L 106.461325 62.874937 
L 108.092755 113.39831 
L 109.724185 113.39831 
L 111.355614 62.874937 
L 114.618474 62.874937 
L 116.249904 77.500124 
L 117.881334 77.500124 
L 119.512764 104.091373 
L 121.144194 62.874937 
L 122.775624 62.874937 
L 124.407053 113.39831 
L 126.038483 113.39831 
L 127.669913 62.874937 
L 129.301343 53.568 
L 130.932773 113.39831 
L 132.564203 113.39831 
L 134.195633 62.874937 
L 135.827063 113.39831 
L 147.247072 113.39831 
L 148.878502 108.08006 
L 150.509931 113.39831 
L 155.404221 113.39831 
L 157.035651 108.08006 
L 158.667081 72.181874 
L 160.298511 108.08006 
L 161.929941 108.08006 
L 163.56137 81.488811 
L 165.1928 64.2045 
L 166.82423 113.39831 
L 168.45566 81.488811 
L 170.08709 113.39831 
L 192.927108 113.39831 
L 194.558538 108.08006 
L 196.189968 108.08006 
L 197.821398 113.39831 
L 204.347117 113.39831 
L 205.978547 88.136623 
L 207.609977 113.39831 
L 236.975715 113.39831 
L 238.607145 81.488811 
L 240.238575 81.488811 
L 241.870005 108.08006 
L 243.501434 93.454873 
L 245.132864 72.181874 
L 248.395724 72.181874 
L 250.027154 81.488811 
L 253.290014 81.488811 
L 254.921444 113.39831 
L 258.184303 113.39831 
L 259.815733 72.181874 
L 261.447163 108.08006 
L 263.078593 72.181874 
L 264.710023 81.488811 
L 266.341453 81.488811 
L 267.972883 72.181874 
L 269.604312 108.08006 
L 271.235742 108.08006 
L 272.867172 113.39831 
L 307.1272 113.39831 
L 308.75863 108.08006 
L 310.390059 81.488811 
L 315.284349 81.488811 
L 316.915779 72.181874 
L 318.547209 81.488811 
L 320.178639 72.181874 
L 325.072928 72.181874 
L 326.704358 113.39831 
L 347.912947 113.39831 
L 349.544376 93.454873 
L 351.175806 93.454873 
L 352.807236 108.08006 
L 354.438666 81.488811 
L 356.070096 72.181874 
L 357.701526 81.488811 
L 359.332956 72.181874 
L 362.595815 72.181874 
L 364.227245 81.488811 
L 365.858675 72.181874 
L 367.490105 81.488811 
L 369.121535 72.181874 
L 370.752965 72.181874 
L 372.384395 81.488811 
L 374.015825 113.39831 
L 393.592983 113.39831 
L 395.224413 108.08006 
L 398.487273 108.08006 
L 398.487273 108.08006 
" clip-path="url(#p7bd7f61d01)" style="fill: none; stroke: #ff0000; stroke-width: 1.5; stroke-linecap: square"/>
   </g>
   <g id="patch_3">
    <path d="M 57.6 307.584 
L 57.6 41.472 
" style="fill: none; stroke: #000000; stroke-width: 0.8; stroke-linejoin: miter; stroke-linecap: square"/>
   </g>
   <g id="patch_4">
    <path d="M 414.72 307.584 
L 414.72 41.472 
" style="fill: none; stroke: #000000; stroke-width: 0.8; stroke-linejoin: miter; stroke-linecap: square"/>
   </g>
   <g id="patch_5">
    <path d="M 57.6 307.584 
L 414.72 307.584 
" style="fill: none; stroke: #000000; stroke-width: 0.8; stroke-linejoin: miter; stroke-linecap: square"/>
   </g>
   <g id="patch_6">
    <path d="M 57.6 41.472 
L 414.72 41.472 
" style="fill: none; stroke: #000000; stroke-width: 0.8; stroke-linejoin: miter; stroke-linecap: square"/>
   </g>
   <g id="text_20">
    <!-- Population's average and best fitness -->
    <g transform="translate(123.529687 35.472)scale(0.12 -0.12)">
     <defs>
      <path id="DejaVuSans-50" d="M 1259 4147 
L 1259 2394 
L 2053 2394 
Q 2494 2394 2734 2622 
Q 2975 2850 2975 3272 
Q 2975 3691 2734 3919 
Q 2494 4147 2053 4147 
L 1259 4147 
z
M 628 4666 
L 2053 4666 
Q 2838 4666 3239 4311 
Q 3641 3956 3641 3272 
Q 3641 2581 3239 2228 
Q 2838 1875 2053 1875 
L 1259 1875 
L 1259 0 
L 628 0 
L 628 4666 
z
" transform="scale(0.015625)"/>
      <path id="DejaVuSans-70" d="M 1159 525 
L 1159 -1331 
L 581 -1331 
L 581 3500 
L 1159 3500 
L 1159 2969 
Q 1341 3281 1617 3432 
Q 1894 3584 2278 3584 
Q 2916 3584 3314 3078 
Q 3713 2572 3713 1747 
Q 3713 922 3314 415 
Q 2916 -91 2278 -91 
Q 1894 -91 1617 61 
Q 1341 213 1159 525 
z
M 3116 1747 
Q 3116 2381 2855 2742 
Q 2594 3103 2138 3103 
Q 1681 3103 1420 2742 
Q 1159 2381 1159 1747 
Q 1159 1113 1420 752 
Q 1681 391 2138 391 
Q 2594 391 2855 752 
Q 3116 1113 3116 1747 
z
" transform="scale(0.015625)"/>
      <path id="DejaVuSans-75" d="M 544 1381 
L 544 3500 
L 1119 3500 
L 1119 1403 
Q 1119 906 1312 657 
Q 1506 409 1894 409 
Q 2359 409 2629 706 
Q 2900 1003 2900 1516 
L 2900 3500 
L 3475 3500 
L 3475 0 
L 2900 0 
L 2900 538 
Q 2691 219 2414 64 
Q 2138 -91 1772 -91 
Q 1169 -91 856 284 
Q 544 659 544 1381 
z
M 1991 3584 
L 1991 3584 
z
" transform="scale(0.015625)"/>
      <path id="DejaVuSans-6c" d="M 603 4863 
L 1178 4863 
L 1178 0 
L 603 0 
L 603 4863 
z
" transform="scale(0.015625)"/>
      <path id="DejaVuSans-27" d="M 1147 4666 
L 1147 2931 
L 616 2931 
L 616 4666 
L 1147 4666 
z
" transform="scale(0.015625)"/>
      <path id="DejaVuSans-20" transform="scale(0.015625)"/>
      <path id="DejaVuSans-76" d="M 191 3500 
L 800 3500 
L 1894 563 
L 2988 3500 
L 3597 3500 
L 2284 0 
L 1503 0 
L 191 3500 
z
" transform="scale(0.015625)"/>
      <path id="DejaVuSans-67" d="M 2906 1791 
Q 2906 2416 2648 2759 
Q 2391 3103 1925 3103 
Q 1463 3103 1205 2759 
Q 947 2416 947 1791 
Q 947 1169 1205 825 
Q 1463 481 1925 481 
Q 2391 481 2648 825 
Q 2906 1169 2906 1791 
z
M 3481 434 
Q 3481 -459 3084 -895 
Q 2688 -1331 1869 -1331 
Q 1566 -1331 1297 -1286 
Q 1028 -1241 775 -1147 
L 775 -588 
Q 1028 -725 1275 -790 
Q 1522 -856 1778 -856 
Q 2344 -856 2625 -561 
Q 2906 -266 2906 331 
L 2906 616 
Q 2728 306 2450 153 
Q 2172 0 1784 0 
Q 1141 0 747 490 
Q 353 981 353 1791 
Q 353 2603 747 3093 
Q 1141 3584 1784 3584 
Q 2172 3584 2450 3431 
Q 2728 3278 2906 2969 
L 2906 3500 
L 3481 3500 
L 3481 434 
z
" transform="scale(0.015625)"/>
      <path id="DejaVuSans-64" d="M 2906 2969 
L 2906 4863 
L 3481 4863 
L 3481 0 
L 2906 0 
L 2906 525 
Q 2725 213 2448 61 
Q 2172 -91 1784 -91 
Q 1150 -91 751 415 
Q 353 922 353 1747 
Q 353 2572 751 3078 
Q 1150 3584 1784 3584 
Q 2172 3584 2448 3432 
Q 2725 3281 2906 2969 
z
M 947 1747 
Q 947 1113 1208 752 
Q 1469 391 1925 391 
Q 2381 391 2643 752 
Q 2906 1113 2906 1747 
Q 2906 2381 2643 2742 
Q 2381 3103 1925 3103 
Q 1469 3103 1208 2742 
Q 947 2381 947 1747 
z
" transform="scale(0.015625)"/>
      <path id="DejaVuSans-62" d="M 3116 1747 
Q 3116 2381 2855 2742 
Q 2594 3103 2138 3103 
Q 1681 3103 1420 2742 
Q 1159 2381 1159 1747 
Q 1159 1113 1420 752 
Q 1681 391 2138 391 
Q 2594 391 2855 752 
Q 3116 1113 3116 1747 
z
M 1159 2969 
Q 1341 3281 1617 3432 
Q 1894 3584 2278 3584 
Q 2916 3584 3314 3078 
Q 3713 2572 3713 1747 
Q 3713 922 3314 415 
Q 2916 -91 2278 -91 
Q 1894 -91 1617 61 
Q 1341 213 1159 525 
L 1159 0 
L 581 0 
L 581 4863 
L 1159 4863 
L 1159 2969 
z
" transform="scale(0.015625)"/>
      <path id="DejaVuSans-66" d="M 2375 4863 
L 2375 4384 
L 1825 4384 
Q 1516 4384 1395 4259 
Q 1275 4134 1275 3809 
L 1275 3500 
L 2222 3500 
L 2222 3053 
L 1275 3053 
L 1275 0 
L 697 0 
L 697 3053 
L 147 3053 
L 147 3500 
L 697 3500 
L 697 3744 
Q 697 4328 969 4595 
Q 1241 4863 1831 4863 
L 2375 4863 
z
" transform="scale(0.015625)"/>
     </defs>
     <use xlink:href="#DejaVuSans-50"/>
     <use xlink:href="#DejaVuSans-6f" x="56.677734"/>
     <use xlink:href="#DejaVuSans-70" x="117.859375"/>
     <use xlink:href="#DejaVuSans-75" x="181.335938"/>
     <use xlink:href="#DejaVuSans-6c" x="244.714844"/>
     <use xlink:href="#DejaVuSans-61" x="272.498047"/>
     <use xlink:href="#DejaVuSans-74" x="333.777344"/>
     <use xlink:href="#DejaVuSans-69" x="372.986328"/>
     <use xlink:href="#DejaVuSans-6f" x="400.769531"/>
     <use xlink:href="#DejaVuSans-6e" x="461.951172"/>
     <use xlink:href="#DejaVuSans-27" x="525.330078"/>
     <use xlink:href="#DejaVuSans-73" x="552.820312"/>
     <use xlink:href="#DejaVuSans-20" x="604.919922"/>
     <use xlink:href="#DejaVuSans-61" x="636.707031"/>
     <use xlink:href="#DejaVuSans-76" x="697.986328"/>
     <use xlink:href="#DejaVuSans-65" x="757.166016"/>
     <use xlink:href="#DejaVuSans-72" x="818.689453"/>
     <use xlink:href="#DejaVuSans-61" x="859.802734"/>
     <use xlink:href="#DejaVuSans-67" x="921.082031"/>
     <use xlink:href="#DejaVuSans-65" x="984.558594"/>
     <use xlink:href="#DejaVuSans-20" x="1046.082031"/>
     <use xlink:href="#DejaVuSans-61" x="1077.869141"/>
     <use xlink:href="#DejaVuSans-6e" x="1139.148438"/>
     <use xlink:href="#DejaVuSans-64" x="1202.527344"/>
     <use xlink:href="#DejaVuSans-20" x="1266.003906"/>
     <use xlink:href="#DejaVuSans-62" x="1297.791016"/>
     <use xlink:href="#DejaVuSans-65" x="1361.267578"/>
     <use xlink:href="#DejaVuSans-73" x="1422.791016"/>
     <use xlink:href="#DejaVuSans-74" x="1474.890625"/>
     <use xlink:href="#DejaVuSans-20" x="1514.099609"/>
     <use xlink:href="#DejaVuSans-66" x="1545.886719"/>
     <use xlink:href="#DejaVuSans-69" x="1581.091797"/>
     <use xlink:href="#DejaVuSans-74" x="1608.875"/>
     <use xlink:href="#DejaVuSans-6e" x="1648.083984"/>
     <use xlink:href="#DejaVuSans-65" x="1711.462891"/>
     <use xlink:href="#DejaVuSans-73" x="1772.986328"/>
     <use xlink:href="#DejaVuSans-73" x="1825.085938"/>
    </g>
   </g>
   <g id="legend_1">
    <g id="patch_7">
     <path d="M 64.6 108.1845 
L 137.540625 108.1845 
Q 139.540625 108.1845 139.540625 106.1845 
L 139.540625 48.472 
Q 139.540625 46.472 137.540625 46.472 
L 64.6 46.472 
Q 62.6 46.472 62.6 48.472 
L 62.6 106.1845 
Q 62.6 108.1845 64.6 108.1845 
z
" style="fill: #ffffff; opacity: 0.8; stroke: #cccccc; stroke-linejoin: miter"/>
    </g>
    <g id="line2d_39">
     <path d="M 66.6 54.570438 
L 76.6 54.570438 
L 86.6 54.570438 
" style="fill: none; stroke: #0000ff; stroke-width: 1.5; stroke-linecap: square"/>
    </g>
    <g id="text_21">
     <!-- average -->
     <g transform="translate(94.6 58.070438)scale(0.1 -0.1)">
      <use xlink:href="#DejaVuSans-61"/>
      <use xlink:href="#DejaVuSans-76" x="61.279297"/>
      <use xlink:href="#DejaVuSans-65" x="120.458984"/>
      <use xlink:href="#DejaVuSans-72" x="181.982422"/>
      <use xlink:href="#DejaVuSans-61" x="223.095703"/>
      <use xlink:href="#DejaVuSans-67" x="284.375"/>
      <use xlink:href="#DejaVuSans-65" x="347.851562"/>
     </g>
    </g>
    <g id="line2d_40">
     <path d="M 66.6 69.248563 
L 76.6 69.248563 
L 86.6 69.248563 
" style="fill: none; stroke-dasharray: 9.6,2.4,1.5,2.4; stroke-dashoffset: 0; stroke: #008000; stroke-width: 1.5"/>
    </g>
    <g id="text_22">
     <!-- -1 sd -->
     <g transform="translate(94.6 72.748563)scale(0.1 -0.1)">
      <defs>
       <path id="DejaVuSans-2d" d="M 313 2009 
L 1997 2009 
L 1997 1497 
L 313 1497 
L 313 2009 
z
" transform="scale(0.015625)"/>
      </defs>
      <use xlink:href="#DejaVuSans-2d"/>
      <use xlink:href="#DejaVuSans-31" x="36.083984"/>
      <use xlink:href="#DejaVuSans-20" x="99.707031"/>
      <use xlink:href="#DejaVuSans-73" x="131.494141"/>
      <use xlink:href="#DejaVuSans-64" x="183.59375"/>
     </g>
    </g>
    <g id="line2d_41">
     <path d="M 66.6 83.926688 
L 76.6 83.926688 
L 86.6 83.926688 
" style="fill: none; stroke-dasharray: 9.6,2.4,1.5,2.4; stroke-dashoffset: 0; stroke: #008000; stroke-width: 1.5"/>
    </g>
    <g id="text_23">
     <!-- +1 sd -->
     <g transform="translate(94.6 87.426688)scale(0.1 -0.1)">
      <defs>
       <path id="DejaVuSans-2b" d="M 2944 4013 
L 2944 2272 
L 4684 2272 
L 4684 1741 
L 2944 1741 
L 2944 0 
L 2419 0 
L 2419 1741 
L 678 1741 
L 678 2272 
L 2419 2272 
L 2419 4013 
L 2944 4013 
z
" transform="scale(0.015625)"/>
      </defs>
      <use xlink:href="#DejaVuSans-2b"/>
      <use xlink:href="#DejaVuSans-31" x="83.789062"/>
      <use xlink:href="#DejaVuSans-20" x="147.412109"/>
      <use xlink:href="#DejaVuSans-73" x="179.199219"/>
      <use xlink:href="#DejaVuSans-64" x="231.298828"/>
     </g>
    </g>
    <g id="line2d_42">
     <path d="M 66.6 98.604813 
L 76.6 98.604813 
L 86.6 98.604813 
" style="fill: none; stroke: #ff0000; stroke-width: 1.5; stroke-linecap: square"/>
    </g>
    <g id="text_24">
     <!-- best -->
     <g transform="translate(94.6 102.104813)scale(0.1 -0.1)">
      <use xlink:href="#DejaVuSans-62"/>
      <use xlink:href="#DejaVuSans-65" x="63.476562"/>
      <use xlink:href="#DejaVuSans-73" x="125"/>
      <use xlink:href="#DejaVuSans-74" x="177.099609"/>
     </g>
    </g>
   </g>
  </g>
 </g>
 <defs>
  <clipPath id="p7bd7f61d01">
   <rect x="57.6" y="41.472" width="357.12" height="266.112"/>
  </clipPath>
 </defs>
</svg>
