<?xml version="1.0" encoding="UTF-8" standalone="no"?>
<!DOCTYPE svg PUBLIC "-//W3C//DTD SVG 1.1//EN"
 "http://www.w3.org/Graphics/SVG/1.1/DTD/svg11.dtd">
<!-- Generated by graphviz version 4.0.0 (20220529.0937)
 -->
<!-- Pages: 1 -->
<svg width="2743pt" height="470pt"
 viewBox="0.00 0.00 2743.19 469.55" xmlns="http://www.w3.org/2000/svg" xmlns:xlink="http://www.w3.org/1999/xlink">
<g id="graph0" class="graph" transform="scale(1 1) rotate(0) translate(4 465.55)">
<polygon fill="white" stroke="transparent" points="-4,4 -4,-465.55 2739.19,-465.55 2739.19,4 -4,4"/>
<!-- GHOST1 DIST -->
<g id="node1" class="node">
<title>GHOST1 DIST</title>
<ellipse fill="lightcoral" stroke="black" cx="52.33" cy="-400.74" rx="52.15" ry="52.15"/>
<text text-anchor="middle" x="52.33" y="-398.54" font-family="Times New Roman,serif" font-size="9.00">GHOST1 DIST</text>
</g>
<!-- GHOST2 DIST -->
<g id="node2" class="node">
<title>GHOST2 DIST</title>
<ellipse fill="lightcoral" stroke="black" cx="175.33" cy="-400.74" rx="52.15" ry="52.15"/>
<text text-anchor="middle" x="175.33" y="-398.54" font-family="Times New Roman,serif" font-size="9.00">GHOST2 DIST</text>
</g>
<!-- GHOST3 DIST -->
<g id="node3" class="node">
<title>GHOST3 DIST</title>
<ellipse fill="lightcoral" stroke="black" cx="298.33" cy="-400.74" rx="52.15" ry="52.15"/>
<text text-anchor="middle" x="298.33" y="-398.54" font-family="Times New Roman,serif" font-size="9.00">GHOST3 DIST</text>
</g>
<!-- GHOST4 DIST -->
<g id="node4" class="node">
<title>GHOST4 DIST</title>
<ellipse fill="lightcoral" stroke="black" cx="272.33" cy="-251.61" rx="52.15" ry="52.15"/>
<text text-anchor="middle" x="272.33" y="-249.41" font-family="Times New Roman,serif" font-size="9.00">GHOST4 DIST</text>
</g>
<!-- 126 -->
<g id="node30" class="node">
<title>126</title>
<ellipse fill="lightgreen" stroke="black" cx="341.33" cy="-131.46" rx="21.43" ry="21.43"/>
<text text-anchor="middle" x="341.33" y="-129.26" font-family="Times New Roman,serif" font-size="9.00">126</text>
</g>
<!-- GHOST4 DIST&#45;&gt;126 -->
<g id="edge6" class="edge">
<title>GHOST4 DIST&#45;&gt;126</title>
<path fill="none" stroke="green" stroke-width="0.13" d="M298.41,-205.94C309.78,-186.47 322.46,-164.77 331.06,-150.03"/>
</g>
<!-- GHOST5 DIST -->
<g id="node5" class="node">
<title>GHOST5 DIST</title>
<ellipse fill="lightcoral" stroke="black" cx="659.33" cy="-400.74" rx="52.15" ry="52.15"/>
<text text-anchor="middle" x="659.33" y="-398.54" font-family="Times New Roman,serif" font-size="9.00">GHOST5 DIST</text>
</g>
<!-- GHOST6 DIST -->
<g id="node6" class="node">
<title>GHOST6 DIST</title>
<ellipse fill="lightcoral" stroke="black" cx="782.33" cy="-400.74" rx="52.15" ry="52.15"/>
<text text-anchor="middle" x="782.33" y="-398.54" font-family="Times New Roman,serif" font-size="9.00">GHOST6 DIST</text>
</g>
<!-- GHOST7 DIST -->
<g id="node7" class="node">
<title>GHOST7 DIST</title>
<ellipse fill="lightcoral" stroke="black" cx="905.33" cy="-400.74" rx="52.15" ry="52.15"/>
<text text-anchor="middle" x="905.33" y="-398.54" font-family="Times New Roman,serif" font-size="9.00">GHOST7 DIST</text>
</g>
<!-- GHOST8 DIST -->
<g id="node8" class="node">
<title>GHOST8 DIST</title>
<ellipse fill="lightcoral" stroke="black" cx="1028.33" cy="-400.74" rx="52.15" ry="52.15"/>
<text text-anchor="middle" x="1028.33" y="-398.54" font-family="Times New Roman,serif" font-size="9.00">GHOST8 DIST</text>
</g>
<!-- GHOST1 CORR -->
<g id="node9" class="node">
<title>GHOST1 CORR</title>
<ellipse fill="lightcoral" stroke="black" cx="1154.33" cy="-400.74" rx="55.72" ry="55.72"/>
<text text-anchor="middle" x="1154.33" y="-398.54" font-family="Times New Roman,serif" font-size="9.00">GHOST1 CORR</text>
</g>
<!-- GHOST2 CORR -->
<g id="node10" class="node">
<title>GHOST2 CORR</title>
<ellipse fill="lightcoral" stroke="black" cx="1284.33" cy="-400.74" rx="55.72" ry="55.72"/>
<text text-anchor="middle" x="1284.33" y="-398.54" font-family="Times New Roman,serif" font-size="9.00">GHOST2 CORR</text>
</g>
<!-- GHOST3 CORR -->
<g id="node11" class="node">
<title>GHOST3 CORR</title>
<ellipse fill="lightcoral" stroke="black" cx="1414.33" cy="-400.74" rx="55.72" ry="55.72"/>
<text text-anchor="middle" x="1414.33" y="-398.54" font-family="Times New Roman,serif" font-size="9.00">GHOST3 CORR</text>
</g>
<!-- GHOST4 CORR -->
<g id="node12" class="node">
<title>GHOST4 CORR</title>
<ellipse fill="lightcoral" stroke="black" cx="1544.33" cy="-400.74" rx="55.72" ry="55.72"/>
<text text-anchor="middle" x="1544.33" y="-398.54" font-family="Times New Roman,serif" font-size="9.00">GHOST4 CORR</text>
</g>
<!-- GHOST5 CORR -->
<g id="node13" class="node">
<title>GHOST5 CORR</title>
<ellipse fill="lightcoral" stroke="black" cx="1674.33" cy="-400.74" rx="55.72" ry="55.72"/>
<text text-anchor="middle" x="1674.33" y="-398.54" font-family="Times New Roman,serif" font-size="9.00">GHOST5 CORR</text>
</g>
<!-- GHOST6 CORR -->
<g id="node14" class="node">
<title>GHOST6 CORR</title>
<ellipse fill="lightcoral" stroke="black" cx="1804.33" cy="-400.74" rx="55.72" ry="55.72"/>
<text text-anchor="middle" x="1804.33" y="-398.54" font-family="Times New Roman,serif" font-size="9.00">GHOST6 CORR</text>
</g>
<!-- GHOST7 CORR -->
<g id="node15" class="node">
<title>GHOST7 CORR</title>
<ellipse fill="lightcoral" stroke="black" cx="1934.33" cy="-400.74" rx="55.72" ry="55.72"/>
<text text-anchor="middle" x="1934.33" y="-398.54" font-family="Times New Roman,serif" font-size="9.00">GHOST7 CORR</text>
</g>
<!-- GHOST8 CORR -->
<g id="node16" class="node">
<title>GHOST8 CORR</title>
<ellipse fill="lightcoral" stroke="black" cx="2064.33" cy="-400.74" rx="55.72" ry="55.72"/>
<text text-anchor="middle" x="2064.33" y="-398.54" font-family="Times New Roman,serif" font-size="9.00">GHOST8 CORR</text>
</g>
<!-- PACMAN CORR -->
<g id="node17" class="node">
<title>PACMAN CORR</title>
<ellipse fill="lightcoral" stroke="black" cx="2197.33" cy="-400.74" rx="59.29" ry="59.29"/>
<text text-anchor="middle" x="2197.33" y="-398.54" font-family="Times New Roman,serif" font-size="9.00">PACMAN CORR</text>
</g>
<!-- ND CORR -->
<g id="node18" class="node">
<title>ND CORR</title>
<ellipse fill="lightcoral" stroke="black" cx="409.33" cy="-400.74" rx="40.11" ry="40.11"/>
<text text-anchor="middle" x="409.33" y="-398.54" font-family="Times New Roman,serif" font-size="9.00">ND CORR</text>
</g>
<!-- UP -->
<g id="node25" class="node">
<title>UP</title>
<ellipse fill="lightblue" stroke="black" cx="468.33" cy="-251.61" rx="20.51" ry="20.51"/>
<text text-anchor="middle" x="468.33" y="-249.41" font-family="Times New Roman,serif" font-size="9.00">UP</text>
</g>
<!-- ND CORR&#45;&gt;UP -->
<g id="edge2" class="edge">
<title>ND CORR&#45;&gt;UP</title>
<path fill="none" stroke="green" stroke-width="0.21" d="M424.06,-362.99C435.8,-333.71 451.75,-293.95 460.95,-271"/>
</g>
<!-- ND DIST -->
<g id="node19" class="node">
<title>ND DIST</title>
<ellipse fill="lightcoral" stroke="black" cx="2312.33" cy="-400.74" rx="37.45" ry="37.45"/>
<text text-anchor="middle" x="2312.33" y="-398.54" font-family="Times New Roman,serif" font-size="9.00">ND DIST</text>
</g>
<!-- IN_INTERS -->
<g id="node20" class="node">
<title>IN_INTERS</title>
<ellipse fill="lightcoral" stroke="black" cx="386.33" cy="-251.61" rx="43.68" ry="43.68"/>
<text text-anchor="middle" x="386.33" y="-249.41" font-family="Times New Roman,serif" font-size="9.00">IN_INTERS</text>
</g>
<!-- LEFT -->
<g id="node28" class="node">
<title>LEFT</title>
<ellipse fill="lightblue" stroke="black" cx="431.33" cy="-131.46" rx="26.74" ry="26.74"/>
<text text-anchor="middle" x="431.33" y="-129.26" font-family="Times New Roman,serif" font-size="9.00">LEFT</text>
</g>
<!-- IN_INTERS&#45;&gt;LEFT -->
<g id="edge1" class="edge">
<title>IN_INTERS&#45;&gt;LEFT</title>
<path fill="none" stroke="green" stroke-width="0.13" d="M401.69,-210.28C408.46,-192.5 416.19,-172.19 422.06,-156.77"/>
</g>
<!-- IN_INTERS&#45;&gt;126 -->
<g id="edge11" class="edge">
<title>IN_INTERS&#45;&gt;126</title>
<path fill="none" stroke="red" stroke-width="0.17" d="M370.97,-210.28C363.38,-190.36 354.58,-167.26 348.55,-151.44"/>
</g>
<!-- MOVING UP -->
<g id="node21" class="node">
<title>MOVING UP</title>
<ellipse fill="lightcoral" stroke="black" cx="2416.33" cy="-400.74" rx="48.58" ry="48.58"/>
<text text-anchor="middle" x="2416.33" y="-398.54" font-family="Times New Roman,serif" font-size="9.00">MOVING UP</text>
</g>
<!-- MOVING DOWN -->
<g id="node22" class="node">
<title>MOVING DOWN</title>
<ellipse fill="lightcoral" stroke="black" cx="2544.33" cy="-400.74" rx="60.62" ry="60.62"/>
<text text-anchor="middle" x="2544.33" y="-398.54" font-family="Times New Roman,serif" font-size="9.00">MOVING DOWN</text>
</g>
<!-- MOVING RIGHT -->
<g id="node23" class="node">
<title>MOVING RIGHT</title>
<ellipse fill="lightcoral" stroke="black" cx="528.33" cy="-400.74" rx="60.62" ry="60.62"/>
<text text-anchor="middle" x="528.33" y="-398.54" font-family="Times New Roman,serif" font-size="9.00">MOVING RIGHT</text>
</g>
<!-- MOVING RIGHT&#45;&gt;UP -->
<g id="edge10" class="edge">
<title>MOVING RIGHT&#45;&gt;UP</title>
<path fill="none" stroke="red" stroke-width="0.22" d="M505.64,-344.12C495.09,-318.24 483.25,-289.2 475.79,-270.92"/>
</g>
<!-- 287 -->
<g id="node31" class="node">
<title>287</title>
<ellipse fill="lightgreen" stroke="black" cx="528.33" cy="-251.61" rx="21.43" ry="21.43"/>
<text text-anchor="middle" x="528.33" y="-249.41" font-family="Times New Roman,serif" font-size="9.00">287</text>
</g>
<!-- MOVING RIGHT&#45;&gt;287 -->
<g id="edge4" class="edge">
<title>MOVING RIGHT&#45;&gt;287</title>
<path fill="none" stroke="red" stroke-width="0.57" d="M528.33,-339.9C528.33,-316.03 528.33,-290.16 528.33,-272.83"/>
</g>
<!-- MOVING LEFT -->
<g id="node24" class="node">
<title>MOVING LEFT</title>
<ellipse fill="lightcoral" stroke="black" cx="2679.33" cy="-400.74" rx="55.72" ry="55.72"/>
<text text-anchor="middle" x="2679.33" y="-398.54" font-family="Times New Roman,serif" font-size="9.00">MOVING LEFT</text>
</g>
<!-- RIGHT -->
<g id="node27" class="node">
<title>RIGHT</title>
<ellipse fill="lightblue" stroke="black" cx="2678.33" cy="-131.46" rx="31.64" ry="31.64"/>
<text text-anchor="middle" x="2678.33" y="-129.26" font-family="Times New Roman,serif" font-size="9.00">RIGHT</text>
</g>
<!-- MOVING LEFT&#45;&gt;RIGHT -->
<g id="edge7" class="edge">
<title>MOVING LEFT&#45;&gt;RIGHT</title>
<path fill="none" stroke="green" stroke-width="0.14" d="M2675.29,-344.8C2674.48,-331.43 2673.74,-317.17 2673.33,-303.93 2671.87,-257.44 2671.59,-245.76 2673.33,-199.28 2673.76,-187.54 2674.64,-174.66 2675.53,-163.37"/>
</g>
<!-- 576 -->
<g id="node29" class="node">
<title>576</title>
<ellipse fill="lightgreen" stroke="black" cx="2703.33" cy="-251.61" rx="21.43" ry="21.43"/>
<text text-anchor="middle" x="2703.33" y="-249.41" font-family="Times New Roman,serif" font-size="9.00">576</text>
</g>
<!-- MOVING LEFT&#45;&gt;576 -->
<g id="edge8" class="edge">
<title>MOVING LEFT&#45;&gt;576</title>
<path fill="none" stroke="red" stroke-width="0.27" d="M2688.19,-345.37C2692.33,-319.99 2697.01,-291.34 2700.05,-272.68"/>
</g>
<!-- DOWN -->
<g id="node26" class="node">
<title>DOWN</title>
<ellipse fill="lightblue" stroke="black" cx="341.33" cy="-31.82" rx="31.64" ry="31.64"/>
<text text-anchor="middle" x="341.33" y="-29.62" font-family="Times New Roman,serif" font-size="9.00">DOWN</text>
</g>
<!-- 576&#45;&gt;RIGHT -->
<g id="edge9" class="edge">
<title>576&#45;&gt;RIGHT</title>
<path fill="none" stroke="green" stroke-width="0.19" d="M2699.08,-230.56C2695.16,-212 2689.26,-184.12 2684.75,-162.82"/>
</g>
<!-- 126&#45;&gt;DOWN -->
<g id="edge3" class="edge">
<title>126&#45;&gt;DOWN</title>
<path fill="none" stroke="green" stroke-width="0.2" d="M341.33,-110.23C341.33,-96.82 341.33,-78.98 341.33,-63.8"/>
</g>
<!-- 287&#45;&gt;LEFT -->
<g id="edge5" class="edge">
<title>287&#45;&gt;LEFT</title>
<path fill="none" stroke="red" stroke-width="0.22" d="M519.13,-232.3C513.67,-222.16 506.28,-209.57 498.33,-199.28 484.16,-180.95 465.28,-162.54 451.17,-149.7"/>
</g>
</g>
</svg>
