<?xml version="1.0" encoding="utf-8" standalone="no"?>
<!DOCTYPE svg PUBLIC "-//W3C//DTD SVG 1.1//EN"
  "http://www.w3.org/Graphics/SVG/1.1/DTD/svg11.dtd">
<svg xmlns:xlink="http://www.w3.org/1999/xlink" width="460.8pt" height="345.6pt" viewBox="0 0 460.8 345.6" xmlns="http://www.w3.org/2000/svg" version="1.1">
 <metadata>
  <rdf:RDF xmlns:dc="http://purl.org/dc/elements/1.1/" xmlns:cc="http://creativecommons.org/ns#" xmlns:rdf="http://www.w3.org/1999/02/22-rdf-syntax-ns#">
   <cc:Work>
    <dc:type rdf:resource="http://purl.org/dc/dcmitype/StillImage"/>
    <dc:date>2022-07-01T01:47:54.726902</dc:date>
    <dc:format>image/svg+xml</dc:format>
    <dc:creator>
     <cc:Agent>
      <dc:title>Matplotlib v3.5.2, https://matplotlib.org/</dc:title>
     </cc:Agent>
    </dc:creator>
   </cc:Work>
  </rdf:RDF>
 </metadata>
 <defs>
  <style type="text/css">*{stroke-linejoin: round; stroke-linecap: butt}</style>
 </defs>
 <g id="figure_1">
  <g id="patch_1">
   <path d="M 0 345.6 
L 460.8 345.6 
L 460.8 0 
L 0 0 
z
" style="fill: #ffffff"/>
  </g>
  <g id="axes_1">
   <g id="patch_2">
    <path d="M 57.6 307.584 
L 414.72 307.584 
L 414.72 41.472 
L 57.6 41.472 
z
" style="fill: #ffffff"/>
   </g>
   <g id="matplotlib.axis_1">
    <g id="xtick_1">
     <g id="line2d_1">
      <path d="M 73.832727 307.584 
L 73.832727 41.472 
" clip-path="url(#p898c5da872)" style="fill: none; stroke: #b0b0b0; stroke-width: 0.8; stroke-linecap: square"/>
     </g>
     <g id="line2d_2">
      <defs>
       <path id="mee92aab62b" d="M 0 0 
L 0 3.5 
" style="stroke: #000000; stroke-width: 0.8"/>
      </defs>
      <g>
       <use xlink:href="#mee92aab62b" x="73.832727" y="307.584" style="stroke: #000000; stroke-width: 0.8"/>
      </g>
     </g>
     <g id="text_1">
      <!-- 0 -->
      <g transform="translate(70.651477 322.182437)scale(0.1 -0.1)">
       <defs>
        <path id="DejaVuSans-30" d="M 2034 4250 
Q 1547 4250 1301 3770 
Q 1056 3291 1056 2328 
Q 1056 1369 1301 889 
Q 1547 409 2034 409 
Q 2525 409 2770 889 
Q 3016 1369 3016 2328 
Q 3016 3291 2770 3770 
Q 2525 4250 2034 4250 
z
M 2034 4750 
Q 2819 4750 3233 4129 
Q 3647 3509 3647 2328 
Q 3647 1150 3233 529 
Q 2819 -91 2034 -91 
Q 1250 -91 836 529 
Q 422 1150 422 2328 
Q 422 3509 836 4129 
Q 1250 4750 2034 4750 
z
" transform="scale(0.015625)"/>
       </defs>
       <use xlink:href="#DejaVuSans-30"/>
      </g>
     </g>
    </g>
    <g id="xtick_2">
     <g id="line2d_3">
      <path d="M 114.618474 307.584 
L 114.618474 41.472 
" clip-path="url(#p898c5da872)" style="fill: none; stroke: #b0b0b0; stroke-width: 0.8; stroke-linecap: square"/>
     </g>
     <g id="line2d_4">
      <g>
       <use xlink:href="#mee92aab62b" x="114.618474" y="307.584" style="stroke: #000000; stroke-width: 0.8"/>
      </g>
     </g>
     <g id="text_2">
      <!-- 25 -->
      <g transform="translate(108.255974 322.182437)scale(0.1 -0.1)">
       <defs>
        <path id="DejaVuSans-32" d="M 1228 531 
L 3431 531 
L 3431 0 
L 469 0 
L 469 531 
Q 828 903 1448 1529 
Q 2069 2156 2228 2338 
Q 2531 2678 2651 2914 
Q 2772 3150 2772 3378 
Q 2772 3750 2511 3984 
Q 2250 4219 1831 4219 
Q 1534 4219 1204 4116 
Q 875 4013 500 3803 
L 500 4441 
Q 881 4594 1212 4672 
Q 1544 4750 1819 4750 
Q 2544 4750 2975 4387 
Q 3406 4025 3406 3419 
Q 3406 3131 3298 2873 
Q 3191 2616 2906 2266 
Q 2828 2175 2409 1742 
Q 1991 1309 1228 531 
z
" transform="scale(0.015625)"/>
        <path id="DejaVuSans-35" d="M 691 4666 
L 3169 4666 
L 3169 4134 
L 1269 4134 
L 1269 2991 
Q 1406 3038 1543 3061 
Q 1681 3084 1819 3084 
Q 2600 3084 3056 2656 
Q 3513 2228 3513 1497 
Q 3513 744 3044 326 
Q 2575 -91 1722 -91 
Q 1428 -91 1123 -41 
Q 819 9 494 109 
L 494 744 
Q 775 591 1075 516 
Q 1375 441 1709 441 
Q 2250 441 2565 725 
Q 2881 1009 2881 1497 
Q 2881 1984 2565 2268 
Q 2250 2553 1709 2553 
Q 1456 2553 1204 2497 
Q 953 2441 691 2322 
L 691 4666 
z
" transform="scale(0.015625)"/>
       </defs>
       <use xlink:href="#DejaVuSans-32"/>
       <use xlink:href="#DejaVuSans-35" x="63.623047"/>
      </g>
     </g>
    </g>
    <g id="xtick_3">
     <g id="line2d_5">
      <path d="M 155.404221 307.584 
L 155.404221 41.472 
" clip-path="url(#p898c5da872)" style="fill: none; stroke: #b0b0b0; stroke-width: 0.8; stroke-linecap: square"/>
     </g>
     <g id="line2d_6">
      <g>
       <use xlink:href="#mee92aab62b" x="155.404221" y="307.584" style="stroke: #000000; stroke-width: 0.8"/>
      </g>
     </g>
     <g id="text_3">
      <!-- 50 -->
      <g transform="translate(149.041721 322.182437)scale(0.1 -0.1)">
       <use xlink:href="#DejaVuSans-35"/>
       <use xlink:href="#DejaVuSans-30" x="63.623047"/>
      </g>
     </g>
    </g>
    <g id="xtick_4">
     <g id="line2d_7">
      <path d="M 196.189968 307.584 
L 196.189968 41.472 
" clip-path="url(#p898c5da872)" style="fill: none; stroke: #b0b0b0; stroke-width: 0.8; stroke-linecap: square"/>
     </g>
     <g id="line2d_8">
      <g>
       <use xlink:href="#mee92aab62b" x="196.189968" y="307.584" style="stroke: #000000; stroke-width: 0.8"/>
      </g>
     </g>
     <g id="text_4">
      <!-- 75 -->
      <g transform="translate(189.827468 322.182437)scale(0.1 -0.1)">
       <defs>
        <path id="DejaVuSans-37" d="M 525 4666 
L 3525 4666 
L 3525 4397 
L 1831 0 
L 1172 0 
L 2766 4134 
L 525 4134 
L 525 4666 
z
" transform="scale(0.015625)"/>
       </defs>
       <use xlink:href="#DejaVuSans-37"/>
       <use xlink:href="#DejaVuSans-35" x="63.623047"/>
      </g>
     </g>
    </g>
    <g id="xtick_5">
     <g id="line2d_9">
      <path d="M 236.975715 307.584 
L 236.975715 41.472 
" clip-path="url(#p898c5da872)" style="fill: none; stroke: #b0b0b0; stroke-width: 0.8; stroke-linecap: square"/>
     </g>
     <g id="line2d_10">
      <g>
       <use xlink:href="#mee92aab62b" x="236.975715" y="307.584" style="stroke: #000000; stroke-width: 0.8"/>
      </g>
     </g>
     <g id="text_5">
      <!-- 100 -->
      <g transform="translate(227.431965 322.182437)scale(0.1 -0.1)">
       <defs>
        <path id="DejaVuSans-31" d="M 794 531 
L 1825 531 
L 1825 4091 
L 703 3866 
L 703 4441 
L 1819 4666 
L 2450 4666 
L 2450 531 
L 3481 531 
L 3481 0 
L 794 0 
L 794 531 
z
" transform="scale(0.015625)"/>
       </defs>
       <use xlink:href="#DejaVuSans-31"/>
       <use xlink:href="#DejaVuSans-30" x="63.623047"/>
       <use xlink:href="#DejaVuSans-30" x="127.246094"/>
      </g>
     </g>
    </g>
    <g id="xtick_6">
     <g id="line2d_11">
      <path d="M 277.761462 307.584 
L 277.761462 41.472 
" clip-path="url(#p898c5da872)" style="fill: none; stroke: #b0b0b0; stroke-width: 0.8; stroke-linecap: square"/>
     </g>
     <g id="line2d_12">
      <g>
       <use xlink:href="#mee92aab62b" x="277.761462" y="307.584" style="stroke: #000000; stroke-width: 0.8"/>
      </g>
     </g>
     <g id="text_6">
      <!-- 125 -->
      <g transform="translate(268.217712 322.182437)scale(0.1 -0.1)">
       <use xlink:href="#DejaVuSans-31"/>
       <use xlink:href="#DejaVuSans-32" x="63.623047"/>
       <use xlink:href="#DejaVuSans-35" x="127.246094"/>
      </g>
     </g>
    </g>
    <g id="xtick_7">
     <g id="line2d_13">
      <path d="M 318.547209 307.584 
L 318.547209 41.472 
" clip-path="url(#p898c5da872)" style="fill: none; stroke: #b0b0b0; stroke-width: 0.8; stroke-linecap: square"/>
     </g>
     <g id="line2d_14">
      <g>
       <use xlink:href="#mee92aab62b" x="318.547209" y="307.584" style="stroke: #000000; stroke-width: 0.8"/>
      </g>
     </g>
     <g id="text_7">
      <!-- 150 -->
      <g transform="translate(309.003459 322.182437)scale(0.1 -0.1)">
       <use xlink:href="#DejaVuSans-31"/>
       <use xlink:href="#DejaVuSans-35" x="63.623047"/>
       <use xlink:href="#DejaVuSans-30" x="127.246094"/>
      </g>
     </g>
    </g>
    <g id="xtick_8">
     <g id="line2d_15">
      <path d="M 359.332956 307.584 
L 359.332956 41.472 
" clip-path="url(#p898c5da872)" style="fill: none; stroke: #b0b0b0; stroke-width: 0.8; stroke-linecap: square"/>
     </g>
     <g id="line2d_16">
      <g>
       <use xlink:href="#mee92aab62b" x="359.332956" y="307.584" style="stroke: #000000; stroke-width: 0.8"/>
      </g>
     </g>
     <g id="text_8">
      <!-- 175 -->
      <g transform="translate(349.789206 322.182437)scale(0.1 -0.1)">
       <use xlink:href="#DejaVuSans-31"/>
       <use xlink:href="#DejaVuSans-37" x="63.623047"/>
       <use xlink:href="#DejaVuSans-35" x="127.246094"/>
      </g>
     </g>
    </g>
    <g id="xtick_9">
     <g id="line2d_17">
      <path d="M 400.118703 307.584 
L 400.118703 41.472 
" clip-path="url(#p898c5da872)" style="fill: none; stroke: #b0b0b0; stroke-width: 0.8; stroke-linecap: square"/>
     </g>
     <g id="line2d_18">
      <g>
       <use xlink:href="#mee92aab62b" x="400.118703" y="307.584" style="stroke: #000000; stroke-width: 0.8"/>
      </g>
     </g>
     <g id="text_9">
      <!-- 200 -->
      <g transform="translate(390.574953 322.182437)scale(0.1 -0.1)">
       <use xlink:href="#DejaVuSans-32"/>
       <use xlink:href="#DejaVuSans-30" x="63.623047"/>
       <use xlink:href="#DejaVuSans-30" x="127.246094"/>
      </g>
     </g>
    </g>
    <g id="text_10">
     <!-- Generations -->
     <g transform="translate(205.662344 335.860562)scale(0.1 -0.1)">
      <defs>
       <path id="DejaVuSans-47" d="M 3809 666 
L 3809 1919 
L 2778 1919 
L 2778 2438 
L 4434 2438 
L 4434 434 
Q 4069 175 3628 42 
Q 3188 -91 2688 -91 
Q 1594 -91 976 548 
Q 359 1188 359 2328 
Q 359 3472 976 4111 
Q 1594 4750 2688 4750 
Q 3144 4750 3555 4637 
Q 3966 4525 4313 4306 
L 4313 3634 
Q 3963 3931 3569 4081 
Q 3175 4231 2741 4231 
Q 1884 4231 1454 3753 
Q 1025 3275 1025 2328 
Q 1025 1384 1454 906 
Q 1884 428 2741 428 
Q 3075 428 3337 486 
Q 3600 544 3809 666 
z
" transform="scale(0.015625)"/>
       <path id="DejaVuSans-65" d="M 3597 1894 
L 3597 1613 
L 953 1613 
Q 991 1019 1311 708 
Q 1631 397 2203 397 
Q 2534 397 2845 478 
Q 3156 559 3463 722 
L 3463 178 
Q 3153 47 2828 -22 
Q 2503 -91 2169 -91 
Q 1331 -91 842 396 
Q 353 884 353 1716 
Q 353 2575 817 3079 
Q 1281 3584 2069 3584 
Q 2775 3584 3186 3129 
Q 3597 2675 3597 1894 
z
M 3022 2063 
Q 3016 2534 2758 2815 
Q 2500 3097 2075 3097 
Q 1594 3097 1305 2825 
Q 1016 2553 972 2059 
L 3022 2063 
z
" transform="scale(0.015625)"/>
       <path id="DejaVuSans-6e" d="M 3513 2113 
L 3513 0 
L 2938 0 
L 2938 2094 
Q 2938 2591 2744 2837 
Q 2550 3084 2163 3084 
Q 1697 3084 1428 2787 
Q 1159 2491 1159 1978 
L 1159 0 
L 581 0 
L 581 3500 
L 1159 3500 
L 1159 2956 
Q 1366 3272 1645 3428 
Q 1925 3584 2291 3584 
Q 2894 3584 3203 3211 
Q 3513 2838 3513 2113 
z
" transform="scale(0.015625)"/>
       <path id="DejaVuSans-72" d="M 2631 2963 
Q 2534 3019 2420 3045 
Q 2306 3072 2169 3072 
Q 1681 3072 1420 2755 
Q 1159 2438 1159 1844 
L 1159 0 
L 581 0 
L 581 3500 
L 1159 3500 
L 1159 2956 
Q 1341 3275 1631 3429 
Q 1922 3584 2338 3584 
Q 2397 3584 2469 3576 
Q 2541 3569 2628 3553 
L 2631 2963 
z
" transform="scale(0.015625)"/>
       <path id="DejaVuSans-61" d="M 2194 1759 
Q 1497 1759 1228 1600 
Q 959 1441 959 1056 
Q 959 750 1161 570 
Q 1363 391 1709 391 
Q 2188 391 2477 730 
Q 2766 1069 2766 1631 
L 2766 1759 
L 2194 1759 
z
M 3341 1997 
L 3341 0 
L 2766 0 
L 2766 531 
Q 2569 213 2275 61 
Q 1981 -91 1556 -91 
Q 1019 -91 701 211 
Q 384 513 384 1019 
Q 384 1609 779 1909 
Q 1175 2209 1959 2209 
L 2766 2209 
L 2766 2266 
Q 2766 2663 2505 2880 
Q 2244 3097 1772 3097 
Q 1472 3097 1187 3025 
Q 903 2953 641 2809 
L 641 3341 
Q 956 3463 1253 3523 
Q 1550 3584 1831 3584 
Q 2591 3584 2966 3190 
Q 3341 2797 3341 1997 
z
" transform="scale(0.015625)"/>
       <path id="DejaVuSans-74" d="M 1172 4494 
L 1172 3500 
L 2356 3500 
L 2356 3053 
L 1172 3053 
L 1172 1153 
Q 1172 725 1289 603 
Q 1406 481 1766 481 
L 2356 481 
L 2356 0 
L 1766 0 
Q 1100 0 847 248 
Q 594 497 594 1153 
L 594 3053 
L 172 3053 
L 172 3500 
L 594 3500 
L 594 4494 
L 1172 4494 
z
" transform="scale(0.015625)"/>
       <path id="DejaVuSans-69" d="M 603 3500 
L 1178 3500 
L 1178 0 
L 603 0 
L 603 3500 
z
M 603 4863 
L 1178 4863 
L 1178 4134 
L 603 4134 
L 603 4863 
z
" transform="scale(0.015625)"/>
       <path id="DejaVuSans-6f" d="M 1959 3097 
Q 1497 3097 1228 2736 
Q 959 2375 959 1747 
Q 959 1119 1226 758 
Q 1494 397 1959 397 
Q 2419 397 2687 759 
Q 2956 1122 2956 1747 
Q 2956 2369 2687 2733 
Q 2419 3097 1959 3097 
z
M 1959 3584 
Q 2709 3584 3137 3096 
Q 3566 2609 3566 1747 
Q 3566 888 3137 398 
Q 2709 -91 1959 -91 
Q 1206 -91 779 398 
Q 353 888 353 1747 
Q 353 2609 779 3096 
Q 1206 3584 1959 3584 
z
" transform="scale(0.015625)"/>
       <path id="DejaVuSans-73" d="M 2834 3397 
L 2834 2853 
Q 2591 2978 2328 3040 
Q 2066 3103 1784 3103 
Q 1356 3103 1142 2972 
Q 928 2841 928 2578 
Q 928 2378 1081 2264 
Q 1234 2150 1697 2047 
L 1894 2003 
Q 2506 1872 2764 1633 
Q 3022 1394 3022 966 
Q 3022 478 2636 193 
Q 2250 -91 1575 -91 
Q 1294 -91 989 -36 
Q 684 19 347 128 
L 347 722 
Q 666 556 975 473 
Q 1284 391 1588 391 
Q 1994 391 2212 530 
Q 2431 669 2431 922 
Q 2431 1156 2273 1281 
Q 2116 1406 1581 1522 
L 1381 1569 
Q 847 1681 609 1914 
Q 372 2147 372 2553 
Q 372 3047 722 3315 
Q 1072 3584 1716 3584 
Q 2034 3584 2315 3537 
Q 2597 3491 2834 3397 
z
" transform="scale(0.015625)"/>
      </defs>
      <use xlink:href="#DejaVuSans-47"/>
      <use xlink:href="#DejaVuSans-65" x="77.490234"/>
      <use xlink:href="#DejaVuSans-6e" x="139.013672"/>
      <use xlink:href="#DejaVuSans-65" x="202.392578"/>
      <use xlink:href="#DejaVuSans-72" x="263.916016"/>
      <use xlink:href="#DejaVuSans-61" x="305.029297"/>
      <use xlink:href="#DejaVuSans-74" x="366.308594"/>
      <use xlink:href="#DejaVuSans-69" x="405.517578"/>
      <use xlink:href="#DejaVuSans-6f" x="433.300781"/>
      <use xlink:href="#DejaVuSans-6e" x="494.482422"/>
      <use xlink:href="#DejaVuSans-73" x="557.861328"/>
     </g>
    </g>
   </g>
   <g id="matplotlib.axis_2">
    <g id="ytick_1">
     <g id="line2d_19">
      <path d="M 57.6 279.151832 
L 414.72 279.151832 
" clip-path="url(#p898c5da872)" style="fill: none; stroke: #b0b0b0; stroke-width: 0.8; stroke-linecap: square"/>
     </g>
     <g id="line2d_20">
      <defs>
       <path id="m2559d9e780" d="M 0 0 
L -3.5 0 
" style="stroke: #000000; stroke-width: 0.8"/>
      </defs>
      <g>
       <use xlink:href="#m2559d9e780" x="57.6" y="279.151832" style="stroke: #000000; stroke-width: 0.8"/>
      </g>
     </g>
     <g id="text_11">
      <!-- 0 -->
      <g transform="translate(44.2375 282.95105)scale(0.1 -0.1)">
       <use xlink:href="#DejaVuSans-30"/>
      </g>
     </g>
    </g>
    <g id="ytick_2">
     <g id="line2d_21">
      <path d="M 57.6 231.61234 
L 414.72 231.61234 
" clip-path="url(#p898c5da872)" style="fill: none; stroke: #b0b0b0; stroke-width: 0.8; stroke-linecap: square"/>
     </g>
     <g id="line2d_22">
      <g>
       <use xlink:href="#m2559d9e780" x="57.6" y="231.61234" style="stroke: #000000; stroke-width: 0.8"/>
      </g>
     </g>
     <g id="text_12">
      <!-- 20 -->
      <g transform="translate(37.875 235.411558)scale(0.1 -0.1)">
       <use xlink:href="#DejaVuSans-32"/>
       <use xlink:href="#DejaVuSans-30" x="63.623047"/>
      </g>
     </g>
    </g>
    <g id="ytick_3">
     <g id="line2d_23">
      <path d="M 57.6 184.072847 
L 414.72 184.072847 
" clip-path="url(#p898c5da872)" style="fill: none; stroke: #b0b0b0; stroke-width: 0.8; stroke-linecap: square"/>
     </g>
     <g id="line2d_24">
      <g>
       <use xlink:href="#m2559d9e780" x="57.6" y="184.072847" style="stroke: #000000; stroke-width: 0.8"/>
      </g>
     </g>
     <g id="text_13">
      <!-- 40 -->
      <g transform="translate(37.875 187.872066)scale(0.1 -0.1)">
       <defs>
        <path id="DejaVuSans-34" d="M 2419 4116 
L 825 1625 
L 2419 1625 
L 2419 4116 
z
M 2253 4666 
L 3047 4666 
L 3047 1625 
L 3713 1625 
L 3713 1100 
L 3047 1100 
L 3047 0 
L 2419 0 
L 2419 1100 
L 313 1100 
L 313 1709 
L 2253 4666 
z
" transform="scale(0.015625)"/>
       </defs>
       <use xlink:href="#DejaVuSans-34"/>
       <use xlink:href="#DejaVuSans-30" x="63.623047"/>
      </g>
     </g>
    </g>
    <g id="ytick_4">
     <g id="line2d_25">
      <path d="M 57.6 136.533355 
L 414.72 136.533355 
" clip-path="url(#p898c5da872)" style="fill: none; stroke: #b0b0b0; stroke-width: 0.8; stroke-linecap: square"/>
     </g>
     <g id="line2d_26">
      <g>
       <use xlink:href="#m2559d9e780" x="57.6" y="136.533355" style="stroke: #000000; stroke-width: 0.8"/>
      </g>
     </g>
     <g id="text_14">
      <!-- 60 -->
      <g transform="translate(37.875 140.332574)scale(0.1 -0.1)">
       <defs>
        <path id="DejaVuSans-36" d="M 2113 2584 
Q 1688 2584 1439 2293 
Q 1191 2003 1191 1497 
Q 1191 994 1439 701 
Q 1688 409 2113 409 
Q 2538 409 2786 701 
Q 3034 994 3034 1497 
Q 3034 2003 2786 2293 
Q 2538 2584 2113 2584 
z
M 3366 4563 
L 3366 3988 
Q 3128 4100 2886 4159 
Q 2644 4219 2406 4219 
Q 1781 4219 1451 3797 
Q 1122 3375 1075 2522 
Q 1259 2794 1537 2939 
Q 1816 3084 2150 3084 
Q 2853 3084 3261 2657 
Q 3669 2231 3669 1497 
Q 3669 778 3244 343 
Q 2819 -91 2113 -91 
Q 1303 -91 875 529 
Q 447 1150 447 2328 
Q 447 3434 972 4092 
Q 1497 4750 2381 4750 
Q 2619 4750 2861 4703 
Q 3103 4656 3366 4563 
z
" transform="scale(0.015625)"/>
       </defs>
       <use xlink:href="#DejaVuSans-36"/>
       <use xlink:href="#DejaVuSans-30" x="63.623047"/>
      </g>
     </g>
    </g>
    <g id="ytick_5">
     <g id="line2d_27">
      <path d="M 57.6 88.993863 
L 414.72 88.993863 
" clip-path="url(#p898c5da872)" style="fill: none; stroke: #b0b0b0; stroke-width: 0.8; stroke-linecap: square"/>
     </g>
     <g id="line2d_28">
      <g>
       <use xlink:href="#m2559d9e780" x="57.6" y="88.993863" style="stroke: #000000; stroke-width: 0.8"/>
      </g>
     </g>
     <g id="text_15">
      <!-- 80 -->
      <g transform="translate(37.875 92.793082)scale(0.1 -0.1)">
       <defs>
        <path id="DejaVuSans-38" d="M 2034 2216 
Q 1584 2216 1326 1975 
Q 1069 1734 1069 1313 
Q 1069 891 1326 650 
Q 1584 409 2034 409 
Q 2484 409 2743 651 
Q 3003 894 3003 1313 
Q 3003 1734 2745 1975 
Q 2488 2216 2034 2216 
z
M 1403 2484 
Q 997 2584 770 2862 
Q 544 3141 544 3541 
Q 544 4100 942 4425 
Q 1341 4750 2034 4750 
Q 2731 4750 3128 4425 
Q 3525 4100 3525 3541 
Q 3525 3141 3298 2862 
Q 3072 2584 2669 2484 
Q 3125 2378 3379 2068 
Q 3634 1759 3634 1313 
Q 3634 634 3220 271 
Q 2806 -91 2034 -91 
Q 1263 -91 848 271 
Q 434 634 434 1313 
Q 434 1759 690 2068 
Q 947 2378 1403 2484 
z
M 1172 3481 
Q 1172 3119 1398 2916 
Q 1625 2713 2034 2713 
Q 2441 2713 2670 2916 
Q 2900 3119 2900 3481 
Q 2900 3844 2670 4047 
Q 2441 4250 2034 4250 
Q 1625 4250 1398 4047 
Q 1172 3844 1172 3481 
z
" transform="scale(0.015625)"/>
       </defs>
       <use xlink:href="#DejaVuSans-38"/>
       <use xlink:href="#DejaVuSans-30" x="63.623047"/>
      </g>
     </g>
    </g>
    <g id="text_16">
     <!-- Fitness -->
     <g transform="translate(31.795312 191.845187)rotate(-90)scale(0.1 -0.1)">
      <defs>
       <path id="DejaVuSans-46" d="M 628 4666 
L 3309 4666 
L 3309 4134 
L 1259 4134 
L 1259 2759 
L 3109 2759 
L 3109 2228 
L 1259 2228 
L 1259 0 
L 628 0 
L 628 4666 
z
" transform="scale(0.015625)"/>
      </defs>
      <use xlink:href="#DejaVuSans-46"/>
      <use xlink:href="#DejaVuSans-69" x="50.269531"/>
      <use xlink:href="#DejaVuSans-74" x="78.052734"/>
      <use xlink:href="#DejaVuSans-6e" x="117.261719"/>
      <use xlink:href="#DejaVuSans-65" x="180.640625"/>
      <use xlink:href="#DejaVuSans-73" x="242.164062"/>
      <use xlink:href="#DejaVuSans-73" x="294.263672"/>
     </g>
    </g>
   </g>
   <g id="line2d_29">
    <path d="M 73.832727 278.031175 
L 75.464157 261.349349 
L 77.095587 256.572826 
L 78.727017 255.390324 
L 80.358447 256.75708 
L 81.989877 256.39748 
L 85.252736 258.774303 
L 86.884166 252.250522 
L 88.515596 258.072168 
L 90.147026 259.96496 
L 91.778456 257.527903 
L 93.409886 256.322815 
L 95.041316 257.533061 
L 96.672746 253.837792 
L 98.304175 255.187349 
L 99.935605 253.756734 
L 101.567035 256.84876 
L 103.198465 253.424561 
L 104.829895 256.049466 
L 106.461325 259.110062 
L 108.092755 256.789967 
L 109.724185 256.609722 
L 111.355614 252.607273 
L 112.987044 259.245988 
L 114.618474 256.464736 
L 116.249904 257.459699 
L 117.881334 255.836435 
L 119.512764 255.102141 
L 121.144194 255.275671 
L 122.775624 254.250359 
L 124.407053 256.912257 
L 126.038483 257.95652 
L 127.669913 255.073752 
L 129.301343 256.796802 
L 130.932773 259.168835 
L 132.564203 258.75683 
L 135.827063 256.390735 
L 137.458492 257.645545 
L 139.089922 258.411844 
L 140.721352 256.295418 
L 142.352782 258.289278 
L 143.984212 256.288257 
L 145.615642 258.580178 
L 147.247072 256.958161 
L 148.878502 256.36834 
L 150.509931 261.509428 
L 152.141361 255.339979 
L 153.772791 256.945441 
L 155.404221 254.262346 
L 157.035651 257.637935 
L 158.667081 258.409427 
L 160.298511 256.157266 
L 161.929941 253.39783 
L 163.56137 258.228776 
L 165.1928 257.692776 
L 166.82423 254.205856 
L 168.45566 256.885009 
L 170.08709 258.100085 
L 171.71852 257.882965 
L 173.34995 256.430711 
L 174.98138 259.37404 
L 176.61281 256.809161 
L 178.244239 255.634061 
L 179.875669 256.447982 
L 181.507099 257.067793 
L 183.138529 259.021111 
L 184.769959 255.51479 
L 186.401389 254.271409 
L 188.032819 253.947687 
L 189.664249 255.176586 
L 191.295678 256.925341 
L 192.927108 255.296758 
L 194.558538 254.23787 
L 196.189968 254.744502 
L 197.821398 257.0663 
L 199.452828 257.037982 
L 201.084258 254.501612 
L 202.715688 257.003424 
L 204.347117 257.662878 
L 205.978547 257.309796 
L 207.609977 256.196693 
L 210.872837 254.924877 
L 212.504267 254.951999 
L 214.135697 256.269942 
L 215.767127 255.426855 
L 217.398556 251.829157 
L 219.029986 256.209107 
L 220.661416 254.912574 
L 222.292846 256.669183 
L 223.924276 256.732359 
L 225.555706 256.435348 
L 227.187136 260.826877 
L 230.449995 256.017912 
L 232.081425 256.341011 
L 233.712855 254.53348 
L 235.344285 259.416646 
L 236.975715 255.588676 
L 238.607145 259.125185 
L 240.238575 258.51469 
L 241.870005 257.05969 
L 243.501434 253.348927 
L 245.132864 252.507528 
L 246.764294 256.658684 
L 248.395724 258.590289 
L 250.027154 255.416854 
L 251.658584 261.116569 
L 253.290014 258.427266 
L 254.921444 255.352434 
L 256.552873 258.115217 
L 258.184303 260.564904 
L 259.815733 256.353072 
L 261.447163 261.007426 
L 263.078593 259.797375 
L 264.710023 257.162579 
L 266.341453 257.968255 
L 267.972883 256.0055 
L 269.604312 257.843174 
L 271.235742 259.361496 
L 272.867172 258.686199 
L 274.498602 260.377412 
L 276.130032 259.325301 
L 277.761462 259.536513 
L 279.392892 257.809465 
L 281.024322 254.270567 
L 282.655751 255.517198 
L 284.287181 260.457469 
L 285.918611 257.114172 
L 287.550041 259.235015 
L 289.181471 259.020284 
L 290.812901 260.882945 
L 292.444331 258.303064 
L 294.075761 261.004251 
L 297.33862 259.640065 
L 298.97005 262.272867 
L 300.60148 258.287936 
L 302.23291 257.501826 
L 303.86434 258.664121 
L 305.49577 262.26058 
L 307.1272 257.776451 
L 308.75863 259.097206 
L 310.390059 258.212207 
L 312.021489 262.911386 
L 313.652919 256.173388 
L 315.284349 259.316223 
L 316.915779 258.777868 
L 318.547209 259.767164 
L 320.178639 260.523197 
L 321.810069 261.586257 
L 323.441498 259.428623 
L 325.072928 263.4104 
L 326.704358 258.830427 
L 328.335788 259.816101 
L 329.967218 258.44529 
L 331.598648 257.946424 
L 333.230078 260.552678 
L 334.861508 258.594639 
L 336.492937 258.32495 
L 338.124367 259.807578 
L 339.755797 260.278938 
L 341.387227 257.768232 
L 343.018657 259.288146 
L 344.650087 262.669343 
L 346.281517 260.010469 
L 347.912947 261.869875 
L 349.544376 256.669351 
L 351.175806 260.448252 
L 352.807236 259.424523 
L 354.438666 253.651029 
L 356.070096 259.80868 
L 359.332956 260.305733 
L 360.964386 261.929226 
L 362.595815 262.856412 
L 364.227245 260.848801 
L 365.858675 263.536677 
L 367.490105 258.963968 
L 369.121535 259.483657 
L 370.752965 259.718116 
L 372.384395 258.876016 
L 374.015825 261.523682 
L 375.647254 261.313202 
L 377.278684 260.049419 
L 378.910114 263.385223 
L 380.541544 259.643181 
L 382.172974 256.599037 
L 383.804404 258.954727 
L 385.435834 258.176792 
L 387.067264 260.524825 
L 388.698693 259.902546 
L 390.330123 259.695205 
L 391.961553 257.854386 
L 393.592983 259.699503 
L 395.224413 260.056448 
L 396.855843 256.485808 
L 398.487273 257.898017 
L 398.487273 257.898017 
" clip-path="url(#p898c5da872)" style="fill: none; stroke: #0000ff; stroke-width: 1.5; stroke-linecap: square"/>
   </g>
   <g id="line2d_30">
    <path d="M 73.832727 295.488 
L 75.464157 277.64244 
L 77.095587 272.880068 
L 78.727017 273.074306 
L 80.358447 276.107027 
L 81.989877 277.873169 
L 85.252736 280.146435 
L 86.884166 275.993589 
L 88.515596 281.633995 
L 90.147026 277.167932 
L 91.778456 278.767818 
L 93.409886 277.803959 
L 95.041316 278.091396 
L 96.672746 277.120404 
L 98.304175 277.203738 
L 99.935605 279.031536 
L 101.567035 282.296486 
L 103.198465 282.539528 
L 104.829895 280.886287 
L 106.461325 274.600078 
L 108.092755 282.058332 
L 109.724185 279.168051 
L 111.355614 279.644499 
L 112.987044 279.142506 
L 114.618474 276.61106 
L 116.249904 279.424323 
L 119.512764 276.940816 
L 121.144194 276.224632 
L 122.775624 275.354075 
L 124.407053 275.543389 
L 126.038483 277.058464 
L 127.669913 276.276128 
L 129.301343 276.299463 
L 130.932773 278.850061 
L 132.564203 279.619513 
L 134.195633 280.531697 
L 135.827063 277.559437 
L 137.458492 277.066174 
L 139.089922 282.327509 
L 140.721352 277.833644 
L 142.352782 279.594535 
L 143.984212 277.653239 
L 145.615642 277.976563 
L 147.247072 278.610903 
L 148.878502 276.886661 
L 150.509931 278.122031 
L 152.141361 274.470983 
L 153.772791 274.940356 
L 155.404221 276.843671 
L 157.035651 277.604993 
L 158.667081 276.118123 
L 160.298511 275.916734 
L 161.929941 275.456648 
L 163.56137 278.748076 
L 165.1928 278.830618 
L 166.82423 274.238258 
L 168.45566 277.280414 
L 170.08709 277.079147 
L 171.71852 278.28765 
L 173.34995 278.286497 
L 174.98138 279.450793 
L 176.61281 276.005648 
L 179.875669 280.24946 
L 181.507099 276.853132 
L 183.138529 277.55251 
L 184.769959 275.203616 
L 186.401389 281.513533 
L 188.032819 275.239468 
L 189.664249 274.996453 
L 191.295678 277.351537 
L 192.927108 277.938547 
L 194.558538 277.023286 
L 196.189968 276.855071 
L 197.821398 279.470215 
L 199.452828 279.112375 
L 201.084258 281.032766 
L 202.715688 277.932203 
L 204.347117 278.878642 
L 205.978547 276.988294 
L 207.609977 281.723811 
L 209.241407 278.173978 
L 210.872837 276.978281 
L 212.504267 280.137063 
L 214.135697 283.612529 
L 215.767127 277.999292 
L 217.398556 274.854371 
L 219.029986 277.766544 
L 220.661416 279.376143 
L 222.292846 276.316333 
L 223.924276 275.017687 
L 225.555706 279.887775 
L 227.187136 280.856571 
L 228.818566 275.489348 
L 232.081425 275.511887 
L 233.712855 273.506037 
L 235.344285 278.018598 
L 236.975715 276.342841 
L 238.607145 276.884919 
L 240.238575 278.7299 
L 241.870005 278.632221 
L 243.501434 277.295376 
L 245.132864 273.904618 
L 246.764294 274.748434 
L 248.395724 282.598343 
L 250.027154 278.39365 
L 253.290014 279.475537 
L 254.921444 281.286758 
L 256.552873 280.699386 
L 258.184303 287.675386 
L 259.815733 279.150869 
L 261.447163 281.591614 
L 263.078593 278.229466 
L 264.710023 275.61906 
L 266.341453 279.609895 
L 267.972883 275.597566 
L 269.604312 281.830057 
L 271.235742 280.465665 
L 272.867172 278.521516 
L 274.498602 281.304561 
L 276.130032 278.282344 
L 277.761462 279.733323 
L 279.392892 275.977468 
L 282.655751 285.144659 
L 284.287181 279.134493 
L 285.918611 283.596501 
L 287.550041 284.830427 
L 289.181471 280.159203 
L 290.812901 281.01055 
L 292.444331 282.815779 
L 294.075761 285.45525 
L 295.70719 285.3957 
L 297.33862 285.914667 
L 298.97005 287.111069 
L 300.60148 285.596383 
L 302.23291 278.695639 
L 303.86434 281.438592 
L 305.49577 284.432997 
L 307.1272 281.380301 
L 308.75863 281.754391 
L 310.390059 279.774497 
L 312.021489 281.813262 
L 313.652919 276.27179 
L 315.284349 279.685985 
L 316.915779 279.418243 
L 318.547209 284.571584 
L 320.178639 279.753271 
L 321.810069 286.326653 
L 323.441498 281.886507 
L 325.072928 286.211229 
L 326.704358 285.974846 
L 328.335788 283.115795 
L 329.967218 280.925796 
L 331.598648 276.20528 
L 333.230078 279.238797 
L 334.861508 276.622811 
L 336.492937 281.944641 
L 338.124367 283.298258 
L 339.755797 281.745506 
L 341.387227 280.471814 
L 343.018657 282.672861 
L 344.650087 280.710207 
L 346.281517 286.808406 
L 347.912947 283.65556 
L 349.544376 276.926109 
L 351.175806 287.182791 
L 352.807236 286.629237 
L 354.438666 280.035812 
L 356.070096 285.715069 
L 357.701526 280.100773 
L 359.332956 284.130754 
L 360.964386 282.091561 
L 362.595815 284.32308 
L 364.227245 280.838169 
L 365.858675 284.677747 
L 367.490105 280.032841 
L 369.121535 282.042304 
L 370.752965 277.993217 
L 372.384395 282.22447 
L 374.015825 285.07408 
L 375.647254 284.654325 
L 377.278684 283.898099 
L 378.910114 283.298925 
L 380.541544 284.171175 
L 382.172974 283.857599 
L 383.804404 281.267261 
L 385.435834 283.395386 
L 387.067264 284.71617 
L 388.698693 282.157645 
L 390.330123 287.543073 
L 391.961553 282.844827 
L 393.592983 281.059048 
L 395.224413 281.045585 
L 396.855843 276.647879 
L 398.487273 277.451007 
L 398.487273 277.451007 
" clip-path="url(#p898c5da872)" style="fill: none; stroke-dasharray: 9.6,2.4,1.5,2.4; stroke-dashoffset: 0; stroke: #008000; stroke-width: 1.5"/>
   </g>
   <g id="line2d_31">
    <path d="M 73.832727 260.574351 
L 75.464157 245.056258 
L 77.095587 240.265583 
L 78.727017 237.706343 
L 80.358447 237.407133 
L 81.989877 234.92179 
L 85.252736 237.402171 
L 86.884166 228.507455 
L 88.515596 234.510341 
L 90.147026 242.761988 
L 91.778456 236.287987 
L 93.409886 234.841671 
L 95.041316 236.974727 
L 96.672746 230.55518 
L 98.304175 233.170961 
L 99.935605 228.481933 
L 101.567035 231.401033 
L 103.198465 224.309593 
L 104.829895 231.212645 
L 106.461325 243.620046 
L 108.092755 231.521602 
L 109.724185 234.051394 
L 111.355614 225.570046 
L 112.987044 239.349469 
L 114.618474 236.318413 
L 116.249904 235.495076 
L 117.881334 233.512434 
L 119.512764 233.263467 
L 121.144194 234.32671 
L 122.775624 233.146643 
L 124.407053 238.281125 
L 126.038483 238.854575 
L 127.669913 233.871375 
L 129.301343 237.294141 
L 130.932773 239.487609 
L 132.564203 237.894147 
L 134.195633 234.659022 
L 135.827063 235.222032 
L 137.458492 238.224916 
L 139.089922 234.496178 
L 140.721352 234.757191 
L 142.352782 236.984021 
L 143.984212 234.923275 
L 145.615642 239.183794 
L 147.247072 235.305418 
L 148.878502 235.850019 
L 150.509931 244.896825 
L 152.141361 236.208974 
L 153.772791 238.950525 
L 155.404221 231.68102 
L 157.035651 237.670878 
L 158.667081 240.700731 
L 160.298511 236.397798 
L 161.929941 231.339011 
L 163.56137 237.709477 
L 165.1928 236.554933 
L 166.82423 234.173454 
L 168.45566 236.489603 
L 170.08709 239.121023 
L 171.71852 237.478279 
L 173.34995 234.574925 
L 174.98138 239.297286 
L 176.61281 237.612674 
L 178.244239 233.111864 
L 179.875669 232.646504 
L 181.507099 237.282454 
L 183.138529 240.489712 
L 184.769959 235.825964 
L 186.401389 227.029285 
L 188.032819 232.655905 
L 189.664249 235.35672 
L 191.295678 236.499144 
L 192.927108 232.65497 
L 194.558538 231.452454 
L 196.189968 232.633933 
L 197.821398 234.662385 
L 199.452828 234.963588 
L 201.084258 227.970457 
L 202.715688 236.074645 
L 204.347117 236.447115 
L 205.978547 237.631299 
L 207.609977 230.669574 
L 209.241407 233.041171 
L 210.872837 232.871474 
L 212.504267 229.766936 
L 214.135697 228.927356 
L 215.767127 232.854418 
L 217.398556 228.803943 
L 219.029986 234.651669 
L 220.661416 230.449005 
L 222.292846 237.022034 
L 223.924276 238.447031 
L 225.555706 232.982921 
L 227.187136 240.797182 
L 228.818566 241.54066 
L 230.449995 236.512602 
L 232.081425 237.170134 
L 233.712855 235.560922 
L 235.344285 240.814694 
L 236.975715 234.83451 
L 238.607145 241.365451 
L 240.238575 238.299481 
L 241.870005 235.48716 
L 243.501434 229.402477 
L 245.132864 231.110439 
L 246.764294 238.568934 
L 248.395724 234.582235 
L 250.027154 232.440057 
L 251.658584 243.343717 
L 253.290014 237.378995 
L 254.921444 229.418111 
L 256.552873 235.531048 
L 258.184303 233.454422 
L 259.815733 233.555275 
L 261.447163 240.423239 
L 263.078593 241.365284 
L 264.710023 238.706098 
L 266.341453 236.326614 
L 267.972883 236.413435 
L 269.604312 233.856291 
L 271.235742 238.257328 
L 274.498602 239.450262 
L 276.130032 240.368258 
L 277.761462 239.339702 
L 279.392892 239.641462 
L 281.024322 227.908943 
L 282.655751 225.889737 
L 284.287181 241.780445 
L 285.918611 230.631843 
L 287.550041 233.639603 
L 289.181471 237.881364 
L 290.812901 240.75534 
L 292.444331 233.790349 
L 294.075761 236.553251 
L 295.70719 235.267617 
L 297.33862 233.365462 
L 298.97005 237.434664 
L 300.60148 230.97949 
L 302.23291 236.308012 
L 303.86434 235.88965 
L 305.49577 240.088164 
L 307.1272 234.172601 
L 308.75863 236.440021 
L 310.390059 236.649917 
L 312.021489 244.009509 
L 313.652919 236.074987 
L 315.284349 238.946462 
L 316.915779 238.137493 
L 318.547209 234.962744 
L 320.178639 241.293124 
L 321.810069 236.84586 
L 323.441498 236.970738 
L 325.072928 240.609571 
L 326.704358 231.686008 
L 328.335788 236.516406 
L 329.967218 235.964785 
L 331.598648 239.687568 
L 333.230078 241.866559 
L 334.861508 240.566467 
L 336.492937 234.705258 
L 338.124367 236.316898 
L 339.755797 238.812369 
L 341.387227 235.06465 
L 343.018657 235.903432 
L 344.650087 244.628478 
L 346.281517 233.212533 
L 347.912947 240.084191 
L 349.544376 236.412592 
L 351.175806 233.713712 
L 352.807236 232.219809 
L 354.438666 227.266245 
L 356.070096 233.902292 
L 357.701526 240.048922 
L 359.332956 236.480712 
L 360.964386 241.766891 
L 362.595815 241.389743 
L 364.227245 240.859434 
L 365.858675 242.395608 
L 367.490105 237.895096 
L 369.121535 236.925009 
L 370.752965 241.443014 
L 372.384395 235.527562 
L 374.015825 237.973284 
L 375.647254 237.972079 
L 377.278684 236.200739 
L 378.910114 243.471522 
L 380.541544 235.115186 
L 382.172974 229.340475 
L 383.804404 236.642193 
L 385.435834 232.958198 
L 387.067264 236.333479 
L 388.698693 237.647446 
L 390.330123 231.847338 
L 391.961553 232.863945 
L 393.592983 238.339958 
L 395.224413 239.06731 
L 396.855843 236.323737 
L 398.487273 238.345026 
L 398.487273 238.345026 
" clip-path="url(#p898c5da872)" style="fill: none; stroke-dasharray: 9.6,2.4,1.5,2.4; stroke-dashoffset: 0; stroke: #008000; stroke-width: 1.5"/>
   </g>
   <g id="line2d_32">
    <path d="M 73.832727 239.56595 
L 75.464157 168.355211 
L 77.095587 153.490488 
L 80.358447 172.038233 
L 81.989877 183.153872 
L 83.621307 168.347077 
L 85.252736 162.839585 
L 86.884166 117.154721 
L 88.515596 143.142284 
L 90.147026 195.25297 
L 91.778456 123.370981 
L 93.409886 171.140794 
L 95.041316 189.260085 
L 96.672746 182.101624 
L 98.304175 163.255887 
L 99.935605 120.318179 
L 101.567035 160.538316 
L 103.198465 119.026614 
L 104.829895 115.27249 
L 106.461325 217.062867 
L 108.092755 93.94189 
L 109.724185 159.411252 
L 111.355614 142.585722 
L 112.987044 144.370892 
L 114.618474 162.44531 
L 116.249904 129.187375 
L 117.881334 137.768876 
L 119.512764 141.436253 
L 121.144194 137.78417 
L 122.775624 148.157588 
L 124.407053 171.362728 
L 126.038483 191.994962 
L 127.669913 137.790141 
L 129.301343 187.676252 
L 130.932773 174.20439 
L 132.564203 181.262931 
L 134.195633 156.63305 
L 135.827063 148.549724 
L 137.458492 189.824761 
L 139.089922 116.705257 
L 140.721352 178.822317 
L 142.352782 162.151265 
L 143.984212 139.625043 
L 145.615642 191.476913 
L 147.247072 173.075289 
L 148.878502 141.219986 
L 150.509931 177.639796 
L 152.141361 181.290358 
L 153.772791 170.764192 
L 155.404221 153.762982 
L 157.035651 106.078627 
L 158.667081 176.356546 
L 160.298511 160.897452 
L 161.929941 158.364774 
L 163.56137 175.866024 
L 165.1928 129.697356 
L 166.82423 156.186296 
L 168.45566 156.971874 
L 170.08709 166.315496 
L 171.71852 176.998981 
L 173.34995 126.714153 
L 174.98138 175.728436 
L 176.61281 182.025243 
L 178.244239 152.3434 
L 179.875669 156.436394 
L 181.507099 168.666592 
L 183.138529 168.281312 
L 184.769959 177.663217 
L 186.401389 91.010329 
L 188.032819 151.123478 
L 189.664249 172.418447 
L 191.295678 149.41657 
L 192.927108 160.388825 
L 194.558538 153.16861 
L 196.189968 180.578838 
L 197.821398 151.69709 
L 199.452828 158.622505 
L 201.084258 100.685874 
L 202.715688 158.213701 
L 204.347117 161.557897 
L 205.978547 161.362696 
L 207.609977 73.413287 
L 209.241407 152.940057 
L 210.872837 153.317328 
L 212.504267 142.93433 
L 214.135697 103.419831 
L 215.767127 128.424166 
L 217.398556 158.319836 
L 219.029986 173.452404 
L 220.661416 165.720413 
L 222.292846 169.521536 
L 223.924276 183.749423 
L 225.555706 145.32391 
L 227.187136 184.870058 
L 228.818566 181.464912 
L 230.449995 136.427168 
L 232.081425 180.8267 
L 235.344285 182.099985 
L 236.975715 171.93594 
L 238.607145 190.341849 
L 240.238575 185.499089 
L 241.870005 172.017681 
L 243.501434 150.385015 
L 245.132864 160.923374 
L 246.764294 198.182777 
L 248.395724 171.805196 
L 250.027154 136.238304 
L 251.658584 190.460947 
L 253.290014 178.523203 
L 254.921444 122.131178 
L 256.552873 168.138896 
L 258.184303 147.047787 
L 259.815733 120.829022 
L 261.447163 189.484314 
L 263.078593 167.853519 
L 264.710023 184.363735 
L 266.341453 182.285533 
L 267.972883 170.435511 
L 269.604312 129.826334 
L 271.235742 151.324841 
L 272.867172 177.117027 
L 274.498602 172.509377 
L 276.130032 170.886769 
L 277.761462 152.62424 
L 279.392892 195.649411 
L 281.024322 129.329304 
L 282.655751 53.568 
L 284.287181 189.965941 
L 285.918611 126.379218 
L 287.550041 155.768053 
L 289.181471 169.357558 
L 290.812901 177.198953 
L 294.075761 105.896239 
L 295.70719 175.730175 
L 297.33862 146.231431 
L 298.97005 164.451353 
L 300.60148 127.420571 
L 302.23291 182.78273 
L 303.86434 182.910634 
L 305.49577 169.331729 
L 307.1272 91.589298 
L 308.75863 183.89668 
L 310.390059 173.876315 
L 312.021489 186.255936 
L 313.652919 177.50777 
L 315.284349 178.497222 
L 316.915779 159.204382 
L 318.547209 153.193715 
L 320.178639 187.301775 
L 323.441498 182.688629 
L 325.072928 135.559187 
L 326.704358 143.492296 
L 328.335788 146.094641 
L 329.967218 136.245376 
L 331.598648 202.458554 
L 333.230078 169.177374 
L 334.861508 182.478839 
L 336.492937 160.891097 
L 338.124367 156.516331 
L 339.755797 193.120492 
L 341.387227 158.515177 
L 343.018657 189.425274 
L 344.650087 197.809128 
L 346.281517 105.350334 
L 347.912947 150.935303 
L 349.544376 173.384253 
L 351.175806 134.166457 
L 352.807236 150.345907 
L 354.438666 123.940236 
L 356.070096 121.040638 
L 357.701526 198.9293 
L 360.964386 153.058105 
L 362.595815 158.127773 
L 364.227245 201.578585 
L 365.858675 194.217582 
L 367.490105 167.848102 
L 369.121535 167.565913 
L 370.752965 205.55614 
L 372.384395 174.753639 
L 374.015825 172.085383 
L 375.647254 149.876774 
L 377.278684 161.815226 
L 378.910114 212.617267 
L 382.172974 110.977064 
L 383.804404 143.053486 
L 385.435834 133.989174 
L 387.067264 144.824729 
L 388.698693 146.246271 
L 390.330123 59.464882 
L 391.961553 150.880156 
L 393.592983 153.204577 
L 395.224413 156.527859 
L 396.855843 169.47134 
L 398.487273 180.410847 
L 398.487273 180.410847 
" clip-path="url(#p898c5da872)" style="fill: none; stroke: #ff0000; stroke-width: 1.5; stroke-linecap: square"/>
   </g>
   <g id="patch_3">
    <path d="M 57.6 307.584 
L 57.6 41.472 
" style="fill: none; stroke: #000000; stroke-width: 0.8; stroke-linejoin: miter; stroke-linecap: square"/>
   </g>
   <g id="patch_4">
    <path d="M 414.72 307.584 
L 414.72 41.472 
" style="fill: none; stroke: #000000; stroke-width: 0.8; stroke-linejoin: miter; stroke-linecap: square"/>
   </g>
   <g id="patch_5">
    <path d="M 57.6 307.584 
L 414.72 307.584 
" style="fill: none; stroke: #000000; stroke-width: 0.8; stroke-linejoin: miter; stroke-linecap: square"/>
   </g>
   <g id="patch_6">
    <path d="M 57.6 41.472 
L 414.72 41.472 
" style="fill: none; stroke: #000000; stroke-width: 0.8; stroke-linejoin: miter; stroke-linecap: square"/>
   </g>
   <g id="text_17">
    <!-- Population's average and best fitness -->
    <g transform="translate(123.529687 35.472)scale(0.12 -0.12)">
     <defs>
      <path id="DejaVuSans-50" d="M 1259 4147 
L 1259 2394 
L 2053 2394 
Q 2494 2394 2734 2622 
Q 2975 2850 2975 3272 
Q 2975 3691 2734 3919 
Q 2494 4147 2053 4147 
L 1259 4147 
z
M 628 4666 
L 2053 4666 
Q 2838 4666 3239 4311 
Q 3641 3956 3641 3272 
Q 3641 2581 3239 2228 
Q 2838 1875 2053 1875 
L 1259 1875 
L 1259 0 
L 628 0 
L 628 4666 
z
" transform="scale(0.015625)"/>
      <path id="DejaVuSans-70" d="M 1159 525 
L 1159 -1331 
L 581 -1331 
L 581 3500 
L 1159 3500 
L 1159 2969 
Q 1341 3281 1617 3432 
Q 1894 3584 2278 3584 
Q 2916 3584 3314 3078 
Q 3713 2572 3713 1747 
Q 3713 922 3314 415 
Q 2916 -91 2278 -91 
Q 1894 -91 1617 61 
Q 1341 213 1159 525 
z
M 3116 1747 
Q 3116 2381 2855 2742 
Q 2594 3103 2138 3103 
Q 1681 3103 1420 2742 
Q 1159 2381 1159 1747 
Q 1159 1113 1420 752 
Q 1681 391 2138 391 
Q 2594 391 2855 752 
Q 3116 1113 3116 1747 
z
" transform="scale(0.015625)"/>
      <path id="DejaVuSans-75" d="M 544 1381 
L 544 3500 
L 1119 3500 
L 1119 1403 
Q 1119 906 1312 657 
Q 1506 409 1894 409 
Q 2359 409 2629 706 
Q 2900 1003 2900 1516 
L 2900 3500 
L 3475 3500 
L 3475 0 
L 2900 0 
L 2900 538 
Q 2691 219 2414 64 
Q 2138 -91 1772 -91 
Q 1169 -91 856 284 
Q 544 659 544 1381 
z
M 1991 3584 
L 1991 3584 
z
" transform="scale(0.015625)"/>
      <path id="DejaVuSans-6c" d="M 603 4863 
L 1178 4863 
L 1178 0 
L 603 0 
L 603 4863 
z
" transform="scale(0.015625)"/>
      <path id="DejaVuSans-27" d="M 1147 4666 
L 1147 2931 
L 616 2931 
L 616 4666 
L 1147 4666 
z
" transform="scale(0.015625)"/>
      <path id="DejaVuSans-20" transform="scale(0.015625)"/>
      <path id="DejaVuSans-76" d="M 191 3500 
L 800 3500 
L 1894 563 
L 2988 3500 
L 3597 3500 
L 2284 0 
L 1503 0 
L 191 3500 
z
" transform="scale(0.015625)"/>
      <path id="DejaVuSans-67" d="M 2906 1791 
Q 2906 2416 2648 2759 
Q 2391 3103 1925 3103 
Q 1463 3103 1205 2759 
Q 947 2416 947 1791 
Q 947 1169 1205 825 
Q 1463 481 1925 481 
Q 2391 481 2648 825 
Q 2906 1169 2906 1791 
z
M 3481 434 
Q 3481 -459 3084 -895 
Q 2688 -1331 1869 -1331 
Q 1566 -1331 1297 -1286 
Q 1028 -1241 775 -1147 
L 775 -588 
Q 1028 -725 1275 -790 
Q 1522 -856 1778 -856 
Q 2344 -856 2625 -561 
Q 2906 -266 2906 331 
L 2906 616 
Q 2728 306 2450 153 
Q 2172 0 1784 0 
Q 1141 0 747 490 
Q 353 981 353 1791 
Q 353 2603 747 3093 
Q 1141 3584 1784 3584 
Q 2172 3584 2450 3431 
Q 2728 3278 2906 2969 
L 2906 3500 
L 3481 3500 
L 3481 434 
z
" transform="scale(0.015625)"/>
      <path id="DejaVuSans-64" d="M 2906 2969 
L 2906 4863 
L 3481 4863 
L 3481 0 
L 2906 0 
L 2906 525 
Q 2725 213 2448 61 
Q 2172 -91 1784 -91 
Q 1150 -91 751 415 
Q 353 922 353 1747 
Q 353 2572 751 3078 
Q 1150 3584 1784 3584 
Q 2172 3584 2448 3432 
Q 2725 3281 2906 2969 
z
M 947 1747 
Q 947 1113 1208 752 
Q 1469 391 1925 391 
Q 2381 391 2643 752 
Q 2906 1113 2906 1747 
Q 2906 2381 2643 2742 
Q 2381 3103 1925 3103 
Q 1469 3103 1208 2742 
Q 947 2381 947 1747 
z
" transform="scale(0.015625)"/>
      <path id="DejaVuSans-62" d="M 3116 1747 
Q 3116 2381 2855 2742 
Q 2594 3103 2138 3103 
Q 1681 3103 1420 2742 
Q 1159 2381 1159 1747 
Q 1159 1113 1420 752 
Q 1681 391 2138 391 
Q 2594 391 2855 752 
Q 3116 1113 3116 1747 
z
M 1159 2969 
Q 1341 3281 1617 3432 
Q 1894 3584 2278 3584 
Q 2916 3584 3314 3078 
Q 3713 2572 3713 1747 
Q 3713 922 3314 415 
Q 2916 -91 2278 -91 
Q 1894 -91 1617 61 
Q 1341 213 1159 525 
L 1159 0 
L 581 0 
L 581 4863 
L 1159 4863 
L 1159 2969 
z
" transform="scale(0.015625)"/>
      <path id="DejaVuSans-66" d="M 2375 4863 
L 2375 4384 
L 1825 4384 
Q 1516 4384 1395 4259 
Q 1275 4134 1275 3809 
L 1275 3500 
L 2222 3500 
L 2222 3053 
L 1275 3053 
L 1275 0 
L 697 0 
L 697 3053 
L 147 3053 
L 147 3500 
L 697 3500 
L 697 3744 
Q 697 4328 969 4595 
Q 1241 4863 1831 4863 
L 2375 4863 
z
" transform="scale(0.015625)"/>
     </defs>
     <use xlink:href="#DejaVuSans-50"/>
     <use xlink:href="#DejaVuSans-6f" x="56.677734"/>
     <use xlink:href="#DejaVuSans-70" x="117.859375"/>
     <use xlink:href="#DejaVuSans-75" x="181.335938"/>
     <use xlink:href="#DejaVuSans-6c" x="244.714844"/>
     <use xlink:href="#DejaVuSans-61" x="272.498047"/>
     <use xlink:href="#DejaVuSans-74" x="333.777344"/>
     <use xlink:href="#DejaVuSans-69" x="372.986328"/>
     <use xlink:href="#DejaVuSans-6f" x="400.769531"/>
     <use xlink:href="#DejaVuSans-6e" x="461.951172"/>
     <use xlink:href="#DejaVuSans-27" x="525.330078"/>
     <use xlink:href="#DejaVuSans-73" x="552.820312"/>
     <use xlink:href="#DejaVuSans-20" x="604.919922"/>
     <use xlink:href="#DejaVuSans-61" x="636.707031"/>
     <use xlink:href="#DejaVuSans-76" x="697.986328"/>
     <use xlink:href="#DejaVuSans-65" x="757.166016"/>
     <use xlink:href="#DejaVuSans-72" x="818.689453"/>
     <use xlink:href="#DejaVuSans-61" x="859.802734"/>
     <use xlink:href="#DejaVuSans-67" x="921.082031"/>
     <use xlink:href="#DejaVuSans-65" x="984.558594"/>
     <use xlink:href="#DejaVuSans-20" x="1046.082031"/>
     <use xlink:href="#DejaVuSans-61" x="1077.869141"/>
     <use xlink:href="#DejaVuSans-6e" x="1139.148438"/>
     <use xlink:href="#DejaVuSans-64" x="1202.527344"/>
     <use xlink:href="#DejaVuSans-20" x="1266.003906"/>
     <use xlink:href="#DejaVuSans-62" x="1297.791016"/>
     <use xlink:href="#DejaVuSans-65" x="1361.267578"/>
     <use xlink:href="#DejaVuSans-73" x="1422.791016"/>
     <use xlink:href="#DejaVuSans-74" x="1474.890625"/>
     <use xlink:href="#DejaVuSans-20" x="1514.099609"/>
     <use xlink:href="#DejaVuSans-66" x="1545.886719"/>
     <use xlink:href="#DejaVuSans-69" x="1581.091797"/>
     <use xlink:href="#DejaVuSans-74" x="1608.875"/>
     <use xlink:href="#DejaVuSans-6e" x="1648.083984"/>
     <use xlink:href="#DejaVuSans-65" x="1711.462891"/>
     <use xlink:href="#DejaVuSans-73" x="1772.986328"/>
     <use xlink:href="#DejaVuSans-73" x="1825.085938"/>
    </g>
   </g>
   <g id="legend_1">
    <g id="patch_7">
     <path d="M 64.6 108.1845 
L 137.540625 108.1845 
Q 139.540625 108.1845 139.540625 106.1845 
L 139.540625 48.472 
Q 139.540625 46.472 137.540625 46.472 
L 64.6 46.472 
Q 62.6 46.472 62.6 48.472 
L 62.6 106.1845 
Q 62.6 108.1845 64.6 108.1845 
z
" style="fill: #ffffff; opacity: 0.8; stroke: #cccccc; stroke-linejoin: miter"/>
    </g>
    <g id="line2d_33">
     <path d="M 66.6 54.570438 
L 76.6 54.570438 
L 86.6 54.570438 
" style="fill: none; stroke: #0000ff; stroke-width: 1.5; stroke-linecap: square"/>
    </g>
    <g id="text_18">
     <!-- average -->
     <g transform="translate(94.6 58.070438)scale(0.1 -0.1)">
      <use xlink:href="#DejaVuSans-61"/>
      <use xlink:href="#DejaVuSans-76" x="61.279297"/>
      <use xlink:href="#DejaVuSans-65" x="120.458984"/>
      <use xlink:href="#DejaVuSans-72" x="181.982422"/>
      <use xlink:href="#DejaVuSans-61" x="223.095703"/>
      <use xlink:href="#DejaVuSans-67" x="284.375"/>
      <use xlink:href="#DejaVuSans-65" x="347.851562"/>
     </g>
    </g>
    <g id="line2d_34">
     <path d="M 66.6 69.248563 
L 76.6 69.248563 
L 86.6 69.248563 
" style="fill: none; stroke-dasharray: 9.6,2.4,1.5,2.4; stroke-dashoffset: 0; stroke: #008000; stroke-width: 1.5"/>
    </g>
    <g id="text_19">
     <!-- -1 sd -->
     <g transform="translate(94.6 72.748563)scale(0.1 -0.1)">
      <defs>
       <path id="DejaVuSans-2d" d="M 313 2009 
L 1997 2009 
L 1997 1497 
L 313 1497 
L 313 2009 
z
" transform="scale(0.015625)"/>
      </defs>
      <use xlink:href="#DejaVuSans-2d"/>
      <use xlink:href="#DejaVuSans-31" x="36.083984"/>
      <use xlink:href="#DejaVuSans-20" x="99.707031"/>
      <use xlink:href="#DejaVuSans-73" x="131.494141"/>
      <use xlink:href="#DejaVuSans-64" x="183.59375"/>
     </g>
    </g>
    <g id="line2d_35">
     <path d="M 66.6 83.926688 
L 76.6 83.926688 
L 86.6 83.926688 
" style="fill: none; stroke-dasharray: 9.6,2.4,1.5,2.4; stroke-dashoffset: 0; stroke: #008000; stroke-width: 1.5"/>
    </g>
    <g id="text_20">
     <!-- +1 sd -->
     <g transform="translate(94.6 87.426688)scale(0.1 -0.1)">
      <defs>
       <path id="DejaVuSans-2b" d="M 2944 4013 
L 2944 2272 
L 4684 2272 
L 4684 1741 
L 2944 1741 
L 2944 0 
L 2419 0 
L 2419 1741 
L 678 1741 
L 678 2272 
L 2419 2272 
L 2419 4013 
L 2944 4013 
z
" transform="scale(0.015625)"/>
      </defs>
      <use xlink:href="#DejaVuSans-2b"/>
      <use xlink:href="#DejaVuSans-31" x="83.789062"/>
      <use xlink:href="#DejaVuSans-20" x="147.412109"/>
      <use xlink:href="#DejaVuSans-73" x="179.199219"/>
      <use xlink:href="#DejaVuSans-64" x="231.298828"/>
     </g>
    </g>
    <g id="line2d_36">
     <path d="M 66.6 98.604813 
L 76.6 98.604813 
L 86.6 98.604813 
" style="fill: none; stroke: #ff0000; stroke-width: 1.5; stroke-linecap: square"/>
    </g>
    <g id="text_21">
     <!-- best -->
     <g transform="translate(94.6 102.104813)scale(0.1 -0.1)">
      <use xlink:href="#DejaVuSans-62"/>
      <use xlink:href="#DejaVuSans-65" x="63.476562"/>
      <use xlink:href="#DejaVuSans-73" x="125"/>
      <use xlink:href="#DejaVuSans-74" x="177.099609"/>
     </g>
    </g>
   </g>
  </g>
 </g>
 <defs>
  <clipPath id="p898c5da872">
   <rect x="57.6" y="41.472" width="357.12" height="266.112"/>
  </clipPath>
 </defs>
</svg>
