<?xml version="1.0" encoding="UTF-8" standalone="no"?>
<!DOCTYPE svg PUBLIC "-//W3C//DTD SVG 1.1//EN"
 "http://www.w3.org/Graphics/SVG/1.1/DTD/svg11.dtd">
<!-- Generated by graphviz version 4.0.0 (20220529.0937)
 -->
<!-- Pages: 1 -->
<svg width="708pt" height="314pt"
 viewBox="0.00 0.00 707.75 313.99" xmlns="http://www.w3.org/2000/svg" xmlns:xlink="http://www.w3.org/1999/xlink">
<g id="graph0" class="graph" transform="scale(1 1) rotate(0) translate(4 309.99)">
<polygon fill="white" stroke="transparent" points="-4,4 -4,-309.99 703.75,-309.99 703.75,4 -4,4"/>
<!-- &#45;1 -->
<g id="node1" class="node">
<title>&#45;1</title>
<polygon fill="lightgray" stroke="black" points="117,-290.24 93,-290.24 93,-272.24 117,-272.24 117,-290.24"/>
<text text-anchor="middle" x="105" y="-279.04" font-family="Times New Roman,serif" font-size="9.00">&#45;1</text>
</g>
<!-- &#45;2 -->
<g id="node2" class="node">
<title>&#45;2</title>
<polygon fill="lightgray" stroke="black" points="313,-204.74 289,-204.74 289,-186.74 313,-186.74 313,-204.74"/>
<text text-anchor="middle" x="301" y="-193.54" font-family="Times New Roman,serif" font-size="9.00">&#45;2</text>
</g>
<!-- 4133 -->
<g id="node23" class="node">
<title>4133</title>
<ellipse fill="white" stroke="black" cx="164" cy="-110.25" rx="25" ry="25"/>
<text text-anchor="middle" x="164" y="-108.05" font-family="Times New Roman,serif" font-size="9.00">4133</text>
</g>
<!-- &#45;2&#45;&gt;4133 -->
<g id="edge6" class="edge">
<title>&#45;2&#45;&gt;4133</title>
<path fill="none" stroke="green" stroke-width="0.37" d="M295.03,-186.57C291.14,-181.63 285.73,-175.46 280,-170.99 254.23,-150.94 220.7,-134.53 196.33,-124.02"/>
<polygon fill="green" stroke="green" stroke-width="0.37" points="197.39,-120.67 186.82,-120.01 194.67,-127.12 197.39,-120.67"/>
</g>
<!-- 5064 -->
<g id="node25" class="node">
<title>5064</title>
<ellipse fill="white" stroke="black" cx="343" cy="-110.25" rx="25" ry="25"/>
<text text-anchor="middle" x="343" y="-108.05" font-family="Times New Roman,serif" font-size="9.00">5064</text>
</g>
<!-- &#45;2&#45;&gt;5064 -->
<g id="edge5" class="edge">
<title>&#45;2&#45;&gt;5064</title>
<path fill="none" stroke="red" stroke-width="0.37" d="M305.03,-186.74C310.21,-176.43 319.51,-157.94 327.61,-141.83"/>
<polygon fill="red" stroke="red" stroke-width="0.37" points="330.84,-143.21 332.21,-132.71 324.58,-140.07 330.84,-143.21"/>
</g>
<!-- &#45;3 -->
<g id="node3" class="node">
<title>&#45;3</title>
<polygon fill="lightgray" stroke="black" points="207,-290.24 183,-290.24 183,-272.24 207,-272.24 207,-290.24"/>
<text text-anchor="middle" x="195" y="-279.04" font-family="Times New Roman,serif" font-size="9.00">&#45;3</text>
</g>
<!-- &#45;4 -->
<g id="node4" class="node">
<title>&#45;4</title>
<polygon fill="lightgray" stroke="black" points="229,-204.74 205,-204.74 205,-186.74 229,-186.74 229,-204.74"/>
<text text-anchor="middle" x="217" y="-193.54" font-family="Times New Roman,serif" font-size="9.00">&#45;4</text>
</g>
<!-- 1 -->
<g id="node20" class="node">
<title>1</title>
<ellipse fill="lightblue" stroke="black" cx="260" cy="-110.25" rx="14.7" ry="14.7"/>
<text text-anchor="middle" x="260" y="-108.05" font-family="Times New Roman,serif" font-size="9.00">1</text>
</g>
<!-- &#45;4&#45;&gt;1 -->
<g id="edge8" class="edge">
<title>&#45;4&#45;&gt;1</title>
<path fill="none" stroke="red" stroke-width="0.13" d="M221.12,-186.74C227.47,-174.41 239.86,-150.35 248.95,-132.7"/>
<polygon fill="red" stroke="red" stroke-width="0.13" points="252.14,-134.15 253.61,-123.66 245.92,-130.95 252.14,-134.15"/>
</g>
<!-- 3 -->
<g id="node22" class="node">
<title>3</title>
<ellipse fill="lightblue" stroke="black" cx="107" cy="-24.75" rx="14.7" ry="14.7"/>
<text text-anchor="middle" x="107" y="-22.55" font-family="Times New Roman,serif" font-size="9.00">3</text>
</g>
<!-- &#45;4&#45;&gt;3 -->
<g id="edge14" class="edge">
<title>&#45;4&#45;&gt;3</title>
<path fill="none" stroke="red" stroke-width="0.47" d="M217.83,-186.71C219.41,-167.31 220.86,-117.19 198,-85.5 178.22,-58.08 158.18,-69.59 131,-49.5 128.61,-47.73 126.23,-45.74 123.95,-43.67"/>
<polygon fill="red" stroke="red" stroke-width="0.47" points="126.29,-41.07 116.69,-36.61 121.41,-46.09 126.29,-41.07"/>
</g>
<!-- &#45;5 -->
<g id="node5" class="node">
<title>&#45;5</title>
<polygon fill="lightgray" stroke="black" points="355,-204.74 331,-204.74 331,-186.74 355,-186.74 355,-204.74"/>
<text text-anchor="middle" x="343" y="-193.54" font-family="Times New Roman,serif" font-size="9.00">&#45;5</text>
</g>
<!-- &#45;5&#45;&gt;1 -->
<g id="edge4" class="edge">
<title>&#45;5&#45;&gt;1</title>
<path fill="none" stroke="red" stroke-width="0.12" stroke-dasharray="1,5" d="M336.16,-186.68C332.12,-182.02 326.87,-176.08 322,-170.99 307.75,-156.12 290.87,-139.94 278.33,-128.18"/>
<polygon fill="red" stroke="red" stroke-width="0.12" points="280.48,-125.4 270.78,-121.14 275.71,-130.52 280.48,-125.4"/>
</g>
<!-- &#45;5&#45;&gt;5064 -->
<g id="edge7" class="edge">
<title>&#45;5&#45;&gt;5064</title>
<path fill="none" stroke="red" stroke-width="0.24" d="M343,-186.74C343,-177.19 343,-160.6 343,-145.4"/>
<polygon fill="red" stroke="red" stroke-width="0.24" points="346.5,-145.2 343,-135.2 339.5,-145.2 346.5,-145.2"/>
</g>
<!-- &#45;6 -->
<g id="node6" class="node">
<title>&#45;6</title>
<polygon fill="lightgray" stroke="black" points="121,-119.25 97,-119.25 97,-101.25 121,-101.25 121,-119.25"/>
<text text-anchor="middle" x="109" y="-108.05" font-family="Times New Roman,serif" font-size="9.00">&#45;6</text>
</g>
<!-- &#45;6&#45;&gt;3 -->
<g id="edge2" class="edge">
<title>&#45;6&#45;&gt;3</title>
<path fill="none" stroke="red" stroke-width="0.57" d="M108.81,-101.24C108.53,-89.48 107.99,-67.04 107.57,-49.67"/>
<polygon fill="red" stroke="red" stroke-width="0.57" points="111.07,-49.56 107.33,-39.65 104.07,-49.73 111.07,-49.56"/>
</g>
<!-- &#45;7 -->
<g id="node7" class="node">
<title>&#45;7</title>
<polygon fill="lightgray" stroke="black" points="24,-204.74 0,-204.74 0,-186.74 24,-186.74 24,-204.74"/>
<text text-anchor="middle" x="12" y="-193.54" font-family="Times New Roman,serif" font-size="9.00">&#45;7</text>
</g>
<!-- &#45;7&#45;&gt;3 -->
<g id="edge1" class="edge">
<title>&#45;7&#45;&gt;3</title>
<path fill="none" stroke="green" stroke-width="0.47" d="M10.37,-186.66C6.95,-167.57 0.88,-118.81 20,-85.5 34.19,-60.78 63.25,-44.04 83.88,-34.71"/>
<polygon fill="green" stroke="green" stroke-width="0.47" points="85.4,-37.87 93.22,-30.72 82.65,-31.43 85.4,-37.87"/>
</g>
<!-- 5662 -->
<g id="node28" class="node">
<title>5662</title>
<ellipse fill="white" stroke="black" cx="54" cy="-110.25" rx="25" ry="25"/>
<text text-anchor="middle" x="54" y="-108.05" font-family="Times New Roman,serif" font-size="9.00">5662</text>
</g>
<!-- &#45;7&#45;&gt;5662 -->
<g id="edge11" class="edge">
<title>&#45;7&#45;&gt;5662</title>
<path fill="none" stroke="green" stroke-width="0.57" d="M16.03,-186.74C21.21,-176.43 30.51,-157.94 38.61,-141.83"/>
<polygon fill="green" stroke="green" stroke-width="0.57" points="41.84,-143.21 43.21,-132.71 35.58,-140.07 41.84,-143.21"/>
</g>
<!-- &#45;8 -->
<g id="node8" class="node">
<title>&#45;8</title>
<polygon fill="lightgray" stroke="black" points="397,-204.74 373,-204.74 373,-186.74 397,-186.74 397,-204.74"/>
<text text-anchor="middle" x="385" y="-193.54" font-family="Times New Roman,serif" font-size="9.00">&#45;8</text>
</g>
<!-- &#45;8&#45;&gt;5064 -->
<g id="edge18" class="edge">
<title>&#45;8&#45;&gt;5064</title>
<path fill="none" stroke="red" stroke-width="0.28" d="M380.97,-186.74C375.79,-176.43 366.49,-157.94 358.39,-141.83"/>
<polygon fill="red" stroke="red" stroke-width="0.28" points="361.42,-140.07 353.79,-132.71 355.16,-143.21 361.42,-140.07"/>
</g>
<!-- &#45;9 -->
<g id="node9" class="node">
<title>&#45;9</title>
<polygon fill="lightgray" stroke="black" points="271,-204.74 247,-204.74 247,-186.74 271,-186.74 271,-204.74"/>
<text text-anchor="middle" x="259" y="-193.54" font-family="Times New Roman,serif" font-size="9.00">&#45;9</text>
</g>
<!-- &#45;9&#45;&gt;1 -->
<g id="edge17" class="edge">
<title>&#45;9&#45;&gt;1</title>
<path fill="none" stroke="red" stroke-width="0.38" d="M259.1,-186.74C259.24,-174.97 259.51,-152.54 259.71,-135.17"/>
<polygon fill="red" stroke="red" stroke-width="0.38" points="263.21,-135.19 259.83,-125.15 256.21,-135.11 263.21,-135.19"/>
</g>
<!-- &#45;10 -->
<g id="node10" class="node">
<title>&#45;10</title>
<polygon fill="lightgray" stroke="black" points="254.5,-290.24 225.5,-290.24 225.5,-272.24 254.5,-272.24 254.5,-290.24"/>
<text text-anchor="middle" x="240" y="-279.04" font-family="Times New Roman,serif" font-size="9.00">&#45;10</text>
</g>
<!-- &#45;11 -->
<g id="node11" class="node">
<title>&#45;11</title>
<polygon fill="lightgray" stroke="black" points="301.5,-290.24 272.5,-290.24 272.5,-272.24 301.5,-272.24 301.5,-290.24"/>
<text text-anchor="middle" x="287" y="-279.04" font-family="Times New Roman,serif" font-size="9.00">&#45;11</text>
</g>
<!-- &#45;12 -->
<g id="node12" class="node">
<title>&#45;12</title>
<polygon fill="lightgray" stroke="black" points="81.5,-204.74 52.5,-204.74 52.5,-186.74 81.5,-186.74 81.5,-204.74"/>
<text text-anchor="middle" x="67" y="-193.54" font-family="Times New Roman,serif" font-size="9.00">&#45;12</text>
</g>
<!-- &#45;12&#45;&gt;4133 -->
<g id="edge3" class="edge">
<title>&#45;12&#45;&gt;4133</title>
<path fill="none" stroke="green" stroke-width="0.27" d="M74.43,-186.59C78.83,-181.89 84.58,-175.95 90,-170.99 104.88,-157.4 122.39,-143.19 136.64,-132.04"/>
<polygon fill="green" stroke="green" stroke-width="0.27" points="138.86,-134.75 144.61,-125.85 134.56,-129.22 138.86,-134.75"/>
</g>
<!-- &#45;13 -->
<g id="node13" class="node">
<title>&#45;13</title>
<polygon fill="lightgray" stroke="black" points="348.5,-290.24 319.5,-290.24 319.5,-272.24 348.5,-272.24 348.5,-290.24"/>
<text text-anchor="middle" x="334" y="-279.04" font-family="Times New Roman,serif" font-size="9.00">&#45;13</text>
</g>
<!-- &#45;14 -->
<g id="node14" class="node">
<title>&#45;14</title>
<polygon fill="lightgray" stroke="black" points="395.5,-290.24 366.5,-290.24 366.5,-272.24 395.5,-272.24 395.5,-290.24"/>
<text text-anchor="middle" x="381" y="-279.04" font-family="Times New Roman,serif" font-size="9.00">&#45;14</text>
</g>
<!-- &#45;15 -->
<g id="node15" class="node">
<title>&#45;15</title>
<polygon fill="lightgray" stroke="black" points="442.5,-290.24 413.5,-290.24 413.5,-272.24 442.5,-272.24 442.5,-290.24"/>
<text text-anchor="middle" x="428" y="-279.04" font-family="Times New Roman,serif" font-size="9.00">&#45;15</text>
</g>
<!-- &#45;16 -->
<g id="node16" class="node">
<title>&#45;16</title>
<polygon fill="lightgray" stroke="black" points="489.5,-290.24 460.5,-290.24 460.5,-272.24 489.5,-272.24 489.5,-290.24"/>
<text text-anchor="middle" x="475" y="-279.04" font-family="Times New Roman,serif" font-size="9.00">&#45;16</text>
</g>
<!-- &#45;17 -->
<g id="node17" class="node">
<title>&#45;17</title>
<polygon fill="lightgray" stroke="black" points="536.5,-290.24 507.5,-290.24 507.5,-272.24 536.5,-272.24 536.5,-290.24"/>
<text text-anchor="middle" x="522" y="-279.04" font-family="Times New Roman,serif" font-size="9.00">&#45;17</text>
</g>
<!-- &#45;18 -->
<g id="node18" class="node">
<title>&#45;18</title>
<polygon fill="lightgray" stroke="black" points="164.5,-290.24 135.5,-290.24 135.5,-272.24 164.5,-272.24 164.5,-290.24"/>
<text text-anchor="middle" x="150" y="-279.04" font-family="Times New Roman,serif" font-size="9.00">&#45;18</text>
</g>
<!-- &#45;18&#45;&gt;4133 -->
<g id="edge9" class="edge">
<title>&#45;18&#45;&gt;4133</title>
<path fill="none" stroke="red" stroke-width="0.43" stroke-dasharray="1,5" d="M151.29,-272.15C153.07,-260.68 156.25,-239.04 158,-220.49 160.37,-195.3 161.9,-166.75 162.82,-145.15"/>
<polygon fill="red" stroke="red" stroke-width="0.43" points="166.32,-145.29 163.23,-135.15 159.32,-145.01 166.32,-145.29"/>
</g>
<!-- 5739 -->
<g id="node26" class="node">
<title>5739</title>
<ellipse fill="white" stroke="black" cx="124" cy="-195.74" rx="25" ry="25"/>
<text text-anchor="middle" x="124" y="-193.54" font-family="Times New Roman,serif" font-size="9.00">5739</text>
</g>
<!-- &#45;18&#45;&gt;5739 -->
<g id="edge15" class="edge">
<title>&#45;18&#45;&gt;5739</title>
<path fill="none" stroke="green" stroke-width="0.33" d="M147.51,-272.24C144.44,-262.39 139.05,-245.07 134.2,-229.5"/>
<polygon fill="green" stroke="green" stroke-width="0.33" points="137.44,-228.13 131.12,-219.62 130.75,-230.21 137.44,-228.13"/>
</g>
<!-- 0 -->
<g id="node19" class="node">
<title>0</title>
<ellipse fill="lightblue" stroke="black" cx="569" cy="-281.24" rx="14.7" ry="14.7"/>
<text text-anchor="middle" x="569" y="-279.04" font-family="Times New Roman,serif" font-size="9.00">0</text>
</g>
<!-- 2 -->
<g id="node21" class="node">
<title>2</title>
<ellipse fill="lightblue" stroke="black" cx="617" cy="-281.24" rx="14.7" ry="14.7"/>
<text text-anchor="middle" x="617" y="-279.04" font-family="Times New Roman,serif" font-size="9.00">2</text>
</g>
<!-- 4133&#45;&gt;3 -->
<g id="edge13" class="edge">
<title>4133&#45;&gt;3</title>
<path fill="none" stroke="green" stroke-width="0.52" d="M150.49,-89.46C141.5,-76.29 129.74,-59.05 120.71,-45.83"/>
<polygon fill="green" stroke="green" stroke-width="0.52" points="123.49,-43.7 114.96,-37.41 117.71,-47.65 123.49,-43.7"/>
</g>
<!-- 5565 -->
<g id="node27" class="node">
<title>5565</title>
<ellipse fill="white" stroke="black" cx="165" cy="-24.75" rx="25" ry="25"/>
<text text-anchor="middle" x="165" y="-22.55" font-family="Times New Roman,serif" font-size="9.00">5565</text>
</g>
<!-- 4133&#45;&gt;5565 -->
<g id="edge10" class="edge">
<title>4133&#45;&gt;5565</title>
<path fill="none" stroke="green" stroke-width="0.44" d="M164.29,-85.1C164.38,-77.15 164.49,-68.17 164.59,-59.64"/>
<polygon fill="green" stroke="green" stroke-width="0.44" points="168.09,-59.6 164.71,-49.56 161.1,-59.51 168.09,-59.6"/>
</g>
<!-- 4648 -->
<g id="node24" class="node">
<title>4648</title>
<ellipse fill="white" stroke="black" cx="675" cy="-281.24" rx="25" ry="25"/>
<text text-anchor="middle" x="675" y="-279.04" font-family="Times New Roman,serif" font-size="9.00">4648</text>
</g>
<!-- 5739&#45;&gt;4133 -->
<g id="edge16" class="edge">
<title>5739&#45;&gt;4133</title>
<path fill="none" stroke="red" stroke-width="0.39" d="M134.51,-172.81C139.01,-163.41 144.35,-152.27 149.23,-142.07"/>
<polygon fill="red" stroke="red" stroke-width="0.39" points="152.4,-143.57 153.56,-133.04 146.08,-140.54 152.4,-143.57"/>
</g>
<!-- 5662&#45;&gt;3 -->
<g id="edge12" class="edge">
<title>5662&#45;&gt;3</title>
<path fill="none" stroke="green" stroke-width="0.44" d="M66.83,-89.03C75.01,-76.14 85.59,-59.47 93.84,-46.48"/>
<polygon fill="green" stroke="green" stroke-width="0.44" points="96.96,-48.09 99.37,-37.77 91.05,-44.34 96.96,-48.09"/>
</g>
</g>
</svg>
