<?xml version="1.0" encoding="utf-8" standalone="no"?>
<!DOCTYPE svg PUBLIC "-//W3C//DTD SVG 1.1//EN"
  "http://www.w3.org/Graphics/SVG/1.1/DTD/svg11.dtd">
<svg xmlns:xlink="http://www.w3.org/1999/xlink" width="460.8pt" height="345.6pt" viewBox="0 0 460.8 345.6" xmlns="http://www.w3.org/2000/svg" version="1.1">
 <metadata>
  <rdf:RDF xmlns:dc="http://purl.org/dc/elements/1.1/" xmlns:cc="http://creativecommons.org/ns#" xmlns:rdf="http://www.w3.org/1999/02/22-rdf-syntax-ns#">
   <cc:Work>
    <dc:type rdf:resource="http://purl.org/dc/dcmitype/StillImage"/>
    <dc:date>2022-08-10T10:16:18.833741</dc:date>
    <dc:format>image/svg+xml</dc:format>
    <dc:creator>
     <cc:Agent>
      <dc:title>Matplotlib v3.5.2, https://matplotlib.org/</dc:title>
     </cc:Agent>
    </dc:creator>
   </cc:Work>
  </rdf:RDF>
 </metadata>
 <defs>
  <style type="text/css">*{stroke-linejoin: round; stroke-linecap: butt}</style>
 </defs>
 <g id="figure_1">
  <g id="patch_1">
   <path d="M 0 345.6 
L 460.8 345.6 
L 460.8 0 
L 0 0 
z
" style="fill: #ffffff"/>
  </g>
  <g id="axes_1">
   <g id="patch_2">
    <path d="M 57.6 307.584 
L 414.72 307.584 
L 414.72 41.472 
L 57.6 41.472 
z
" style="fill: #ffffff"/>
   </g>
   <g id="matplotlib.axis_1">
    <g id="xtick_1">
     <g id="line2d_1">
      <path d="M 73.832727 307.584 
L 73.832727 41.472 
" clip-path="url(#p5422953087)" style="fill: none; stroke: #b0b0b0; stroke-width: 0.8; stroke-linecap: square"/>
     </g>
     <g id="line2d_2">
      <defs>
       <path id="m6588c84745" d="M 0 0 
L 0 3.5 
" style="stroke: #000000; stroke-width: 0.8"/>
      </defs>
      <g>
       <use xlink:href="#m6588c84745" x="73.832727" y="307.584" style="stroke: #000000; stroke-width: 0.8"/>
      </g>
     </g>
     <g id="text_1">
      <!-- 0 -->
      <g transform="translate(70.651477 322.182437)scale(0.1 -0.1)">
       <defs>
        <path id="DejaVuSans-30" d="M 2034 4250 
Q 1547 4250 1301 3770 
Q 1056 3291 1056 2328 
Q 1056 1369 1301 889 
Q 1547 409 2034 409 
Q 2525 409 2770 889 
Q 3016 1369 3016 2328 
Q 3016 3291 2770 3770 
Q 2525 4250 2034 4250 
z
M 2034 4750 
Q 2819 4750 3233 4129 
Q 3647 3509 3647 2328 
Q 3647 1150 3233 529 
Q 2819 -91 2034 -91 
Q 1250 -91 836 529 
Q 422 1150 422 2328 
Q 422 3509 836 4129 
Q 1250 4750 2034 4750 
z
" transform="scale(0.015625)"/>
       </defs>
       <use xlink:href="#DejaVuSans-30"/>
      </g>
     </g>
    </g>
    <g id="xtick_2">
     <g id="line2d_3">
      <path d="M 114.618474 307.584 
L 114.618474 41.472 
" clip-path="url(#p5422953087)" style="fill: none; stroke: #b0b0b0; stroke-width: 0.8; stroke-linecap: square"/>
     </g>
     <g id="line2d_4">
      <g>
       <use xlink:href="#m6588c84745" x="114.618474" y="307.584" style="stroke: #000000; stroke-width: 0.8"/>
      </g>
     </g>
     <g id="text_2">
      <!-- 25 -->
      <g transform="translate(108.255974 322.182437)scale(0.1 -0.1)">
       <defs>
        <path id="DejaVuSans-32" d="M 1228 531 
L 3431 531 
L 3431 0 
L 469 0 
L 469 531 
Q 828 903 1448 1529 
Q 2069 2156 2228 2338 
Q 2531 2678 2651 2914 
Q 2772 3150 2772 3378 
Q 2772 3750 2511 3984 
Q 2250 4219 1831 4219 
Q 1534 4219 1204 4116 
Q 875 4013 500 3803 
L 500 4441 
Q 881 4594 1212 4672 
Q 1544 4750 1819 4750 
Q 2544 4750 2975 4387 
Q 3406 4025 3406 3419 
Q 3406 3131 3298 2873 
Q 3191 2616 2906 2266 
Q 2828 2175 2409 1742 
Q 1991 1309 1228 531 
z
" transform="scale(0.015625)"/>
        <path id="DejaVuSans-35" d="M 691 4666 
L 3169 4666 
L 3169 4134 
L 1269 4134 
L 1269 2991 
Q 1406 3038 1543 3061 
Q 1681 3084 1819 3084 
Q 2600 3084 3056 2656 
Q 3513 2228 3513 1497 
Q 3513 744 3044 326 
Q 2575 -91 1722 -91 
Q 1428 -91 1123 -41 
Q 819 9 494 109 
L 494 744 
Q 775 591 1075 516 
Q 1375 441 1709 441 
Q 2250 441 2565 725 
Q 2881 1009 2881 1497 
Q 2881 1984 2565 2268 
Q 2250 2553 1709 2553 
Q 1456 2553 1204 2497 
Q 953 2441 691 2322 
L 691 4666 
z
" transform="scale(0.015625)"/>
       </defs>
       <use xlink:href="#DejaVuSans-32"/>
       <use xlink:href="#DejaVuSans-35" x="63.623047"/>
      </g>
     </g>
    </g>
    <g id="xtick_3">
     <g id="line2d_5">
      <path d="M 155.404221 307.584 
L 155.404221 41.472 
" clip-path="url(#p5422953087)" style="fill: none; stroke: #b0b0b0; stroke-width: 0.8; stroke-linecap: square"/>
     </g>
     <g id="line2d_6">
      <g>
       <use xlink:href="#m6588c84745" x="155.404221" y="307.584" style="stroke: #000000; stroke-width: 0.8"/>
      </g>
     </g>
     <g id="text_3">
      <!-- 50 -->
      <g transform="translate(149.041721 322.182437)scale(0.1 -0.1)">
       <use xlink:href="#DejaVuSans-35"/>
       <use xlink:href="#DejaVuSans-30" x="63.623047"/>
      </g>
     </g>
    </g>
    <g id="xtick_4">
     <g id="line2d_7">
      <path d="M 196.189968 307.584 
L 196.189968 41.472 
" clip-path="url(#p5422953087)" style="fill: none; stroke: #b0b0b0; stroke-width: 0.8; stroke-linecap: square"/>
     </g>
     <g id="line2d_8">
      <g>
       <use xlink:href="#m6588c84745" x="196.189968" y="307.584" style="stroke: #000000; stroke-width: 0.8"/>
      </g>
     </g>
     <g id="text_4">
      <!-- 75 -->
      <g transform="translate(189.827468 322.182437)scale(0.1 -0.1)">
       <defs>
        <path id="DejaVuSans-37" d="M 525 4666 
L 3525 4666 
L 3525 4397 
L 1831 0 
L 1172 0 
L 2766 4134 
L 525 4134 
L 525 4666 
z
" transform="scale(0.015625)"/>
       </defs>
       <use xlink:href="#DejaVuSans-37"/>
       <use xlink:href="#DejaVuSans-35" x="63.623047"/>
      </g>
     </g>
    </g>
    <g id="xtick_5">
     <g id="line2d_9">
      <path d="M 236.975715 307.584 
L 236.975715 41.472 
" clip-path="url(#p5422953087)" style="fill: none; stroke: #b0b0b0; stroke-width: 0.8; stroke-linecap: square"/>
     </g>
     <g id="line2d_10">
      <g>
       <use xlink:href="#m6588c84745" x="236.975715" y="307.584" style="stroke: #000000; stroke-width: 0.8"/>
      </g>
     </g>
     <g id="text_5">
      <!-- 100 -->
      <g transform="translate(227.431965 322.182437)scale(0.1 -0.1)">
       <defs>
        <path id="DejaVuSans-31" d="M 794 531 
L 1825 531 
L 1825 4091 
L 703 3866 
L 703 4441 
L 1819 4666 
L 2450 4666 
L 2450 531 
L 3481 531 
L 3481 0 
L 794 0 
L 794 531 
z
" transform="scale(0.015625)"/>
       </defs>
       <use xlink:href="#DejaVuSans-31"/>
       <use xlink:href="#DejaVuSans-30" x="63.623047"/>
       <use xlink:href="#DejaVuSans-30" x="127.246094"/>
      </g>
     </g>
    </g>
    <g id="xtick_6">
     <g id="line2d_11">
      <path d="M 277.761462 307.584 
L 277.761462 41.472 
" clip-path="url(#p5422953087)" style="fill: none; stroke: #b0b0b0; stroke-width: 0.8; stroke-linecap: square"/>
     </g>
     <g id="line2d_12">
      <g>
       <use xlink:href="#m6588c84745" x="277.761462" y="307.584" style="stroke: #000000; stroke-width: 0.8"/>
      </g>
     </g>
     <g id="text_6">
      <!-- 125 -->
      <g transform="translate(268.217712 322.182437)scale(0.1 -0.1)">
       <use xlink:href="#DejaVuSans-31"/>
       <use xlink:href="#DejaVuSans-32" x="63.623047"/>
       <use xlink:href="#DejaVuSans-35" x="127.246094"/>
      </g>
     </g>
    </g>
    <g id="xtick_7">
     <g id="line2d_13">
      <path d="M 318.547209 307.584 
L 318.547209 41.472 
" clip-path="url(#p5422953087)" style="fill: none; stroke: #b0b0b0; stroke-width: 0.8; stroke-linecap: square"/>
     </g>
     <g id="line2d_14">
      <g>
       <use xlink:href="#m6588c84745" x="318.547209" y="307.584" style="stroke: #000000; stroke-width: 0.8"/>
      </g>
     </g>
     <g id="text_7">
      <!-- 150 -->
      <g transform="translate(309.003459 322.182437)scale(0.1 -0.1)">
       <use xlink:href="#DejaVuSans-31"/>
       <use xlink:href="#DejaVuSans-35" x="63.623047"/>
       <use xlink:href="#DejaVuSans-30" x="127.246094"/>
      </g>
     </g>
    </g>
    <g id="xtick_8">
     <g id="line2d_15">
      <path d="M 359.332956 307.584 
L 359.332956 41.472 
" clip-path="url(#p5422953087)" style="fill: none; stroke: #b0b0b0; stroke-width: 0.8; stroke-linecap: square"/>
     </g>
     <g id="line2d_16">
      <g>
       <use xlink:href="#m6588c84745" x="359.332956" y="307.584" style="stroke: #000000; stroke-width: 0.8"/>
      </g>
     </g>
     <g id="text_8">
      <!-- 175 -->
      <g transform="translate(349.789206 322.182437)scale(0.1 -0.1)">
       <use xlink:href="#DejaVuSans-31"/>
       <use xlink:href="#DejaVuSans-37" x="63.623047"/>
       <use xlink:href="#DejaVuSans-35" x="127.246094"/>
      </g>
     </g>
    </g>
    <g id="xtick_9">
     <g id="line2d_17">
      <path d="M 400.118703 307.584 
L 400.118703 41.472 
" clip-path="url(#p5422953087)" style="fill: none; stroke: #b0b0b0; stroke-width: 0.8; stroke-linecap: square"/>
     </g>
     <g id="line2d_18">
      <g>
       <use xlink:href="#m6588c84745" x="400.118703" y="307.584" style="stroke: #000000; stroke-width: 0.8"/>
      </g>
     </g>
     <g id="text_9">
      <!-- 200 -->
      <g transform="translate(390.574953 322.182437)scale(0.1 -0.1)">
       <use xlink:href="#DejaVuSans-32"/>
       <use xlink:href="#DejaVuSans-30" x="63.623047"/>
       <use xlink:href="#DejaVuSans-30" x="127.246094"/>
      </g>
     </g>
    </g>
    <g id="text_10">
     <!-- Generations -->
     <g transform="translate(205.662344 335.860562)scale(0.1 -0.1)">
      <defs>
       <path id="DejaVuSans-47" d="M 3809 666 
L 3809 1919 
L 2778 1919 
L 2778 2438 
L 4434 2438 
L 4434 434 
Q 4069 175 3628 42 
Q 3188 -91 2688 -91 
Q 1594 -91 976 548 
Q 359 1188 359 2328 
Q 359 3472 976 4111 
Q 1594 4750 2688 4750 
Q 3144 4750 3555 4637 
Q 3966 4525 4313 4306 
L 4313 3634 
Q 3963 3931 3569 4081 
Q 3175 4231 2741 4231 
Q 1884 4231 1454 3753 
Q 1025 3275 1025 2328 
Q 1025 1384 1454 906 
Q 1884 428 2741 428 
Q 3075 428 3337 486 
Q 3600 544 3809 666 
z
" transform="scale(0.015625)"/>
       <path id="DejaVuSans-65" d="M 3597 1894 
L 3597 1613 
L 953 1613 
Q 991 1019 1311 708 
Q 1631 397 2203 397 
Q 2534 397 2845 478 
Q 3156 559 3463 722 
L 3463 178 
Q 3153 47 2828 -22 
Q 2503 -91 2169 -91 
Q 1331 -91 842 396 
Q 353 884 353 1716 
Q 353 2575 817 3079 
Q 1281 3584 2069 3584 
Q 2775 3584 3186 3129 
Q 3597 2675 3597 1894 
z
M 3022 2063 
Q 3016 2534 2758 2815 
Q 2500 3097 2075 3097 
Q 1594 3097 1305 2825 
Q 1016 2553 972 2059 
L 3022 2063 
z
" transform="scale(0.015625)"/>
       <path id="DejaVuSans-6e" d="M 3513 2113 
L 3513 0 
L 2938 0 
L 2938 2094 
Q 2938 2591 2744 2837 
Q 2550 3084 2163 3084 
Q 1697 3084 1428 2787 
Q 1159 2491 1159 1978 
L 1159 0 
L 581 0 
L 581 3500 
L 1159 3500 
L 1159 2956 
Q 1366 3272 1645 3428 
Q 1925 3584 2291 3584 
Q 2894 3584 3203 3211 
Q 3513 2838 3513 2113 
z
" transform="scale(0.015625)"/>
       <path id="DejaVuSans-72" d="M 2631 2963 
Q 2534 3019 2420 3045 
Q 2306 3072 2169 3072 
Q 1681 3072 1420 2755 
Q 1159 2438 1159 1844 
L 1159 0 
L 581 0 
L 581 3500 
L 1159 3500 
L 1159 2956 
Q 1341 3275 1631 3429 
Q 1922 3584 2338 3584 
Q 2397 3584 2469 3576 
Q 2541 3569 2628 3553 
L 2631 2963 
z
" transform="scale(0.015625)"/>
       <path id="DejaVuSans-61" d="M 2194 1759 
Q 1497 1759 1228 1600 
Q 959 1441 959 1056 
Q 959 750 1161 570 
Q 1363 391 1709 391 
Q 2188 391 2477 730 
Q 2766 1069 2766 1631 
L 2766 1759 
L 2194 1759 
z
M 3341 1997 
L 3341 0 
L 2766 0 
L 2766 531 
Q 2569 213 2275 61 
Q 1981 -91 1556 -91 
Q 1019 -91 701 211 
Q 384 513 384 1019 
Q 384 1609 779 1909 
Q 1175 2209 1959 2209 
L 2766 2209 
L 2766 2266 
Q 2766 2663 2505 2880 
Q 2244 3097 1772 3097 
Q 1472 3097 1187 3025 
Q 903 2953 641 2809 
L 641 3341 
Q 956 3463 1253 3523 
Q 1550 3584 1831 3584 
Q 2591 3584 2966 3190 
Q 3341 2797 3341 1997 
z
" transform="scale(0.015625)"/>
       <path id="DejaVuSans-74" d="M 1172 4494 
L 1172 3500 
L 2356 3500 
L 2356 3053 
L 1172 3053 
L 1172 1153 
Q 1172 725 1289 603 
Q 1406 481 1766 481 
L 2356 481 
L 2356 0 
L 1766 0 
Q 1100 0 847 248 
Q 594 497 594 1153 
L 594 3053 
L 172 3053 
L 172 3500 
L 594 3500 
L 594 4494 
L 1172 4494 
z
" transform="scale(0.015625)"/>
       <path id="DejaVuSans-69" d="M 603 3500 
L 1178 3500 
L 1178 0 
L 603 0 
L 603 3500 
z
M 603 4863 
L 1178 4863 
L 1178 4134 
L 603 4134 
L 603 4863 
z
" transform="scale(0.015625)"/>
       <path id="DejaVuSans-6f" d="M 1959 3097 
Q 1497 3097 1228 2736 
Q 959 2375 959 1747 
Q 959 1119 1226 758 
Q 1494 397 1959 397 
Q 2419 397 2687 759 
Q 2956 1122 2956 1747 
Q 2956 2369 2687 2733 
Q 2419 3097 1959 3097 
z
M 1959 3584 
Q 2709 3584 3137 3096 
Q 3566 2609 3566 1747 
Q 3566 888 3137 398 
Q 2709 -91 1959 -91 
Q 1206 -91 779 398 
Q 353 888 353 1747 
Q 353 2609 779 3096 
Q 1206 3584 1959 3584 
z
" transform="scale(0.015625)"/>
       <path id="DejaVuSans-73" d="M 2834 3397 
L 2834 2853 
Q 2591 2978 2328 3040 
Q 2066 3103 1784 3103 
Q 1356 3103 1142 2972 
Q 928 2841 928 2578 
Q 928 2378 1081 2264 
Q 1234 2150 1697 2047 
L 1894 2003 
Q 2506 1872 2764 1633 
Q 3022 1394 3022 966 
Q 3022 478 2636 193 
Q 2250 -91 1575 -91 
Q 1294 -91 989 -36 
Q 684 19 347 128 
L 347 722 
Q 666 556 975 473 
Q 1284 391 1588 391 
Q 1994 391 2212 530 
Q 2431 669 2431 922 
Q 2431 1156 2273 1281 
Q 2116 1406 1581 1522 
L 1381 1569 
Q 847 1681 609 1914 
Q 372 2147 372 2553 
Q 372 3047 722 3315 
Q 1072 3584 1716 3584 
Q 2034 3584 2315 3537 
Q 2597 3491 2834 3397 
z
" transform="scale(0.015625)"/>
      </defs>
      <use xlink:href="#DejaVuSans-47"/>
      <use xlink:href="#DejaVuSans-65" x="77.490234"/>
      <use xlink:href="#DejaVuSans-6e" x="139.013672"/>
      <use xlink:href="#DejaVuSans-65" x="202.392578"/>
      <use xlink:href="#DejaVuSans-72" x="263.916016"/>
      <use xlink:href="#DejaVuSans-61" x="305.029297"/>
      <use xlink:href="#DejaVuSans-74" x="366.308594"/>
      <use xlink:href="#DejaVuSans-69" x="405.517578"/>
      <use xlink:href="#DejaVuSans-6f" x="433.300781"/>
      <use xlink:href="#DejaVuSans-6e" x="494.482422"/>
      <use xlink:href="#DejaVuSans-73" x="557.861328"/>
     </g>
    </g>
   </g>
   <g id="matplotlib.axis_2">
    <g id="ytick_1">
     <g id="line2d_19">
      <path d="M 57.6 293.073213 
L 414.72 293.073213 
" clip-path="url(#p5422953087)" style="fill: none; stroke: #b0b0b0; stroke-width: 0.8; stroke-linecap: square"/>
     </g>
     <g id="line2d_20">
      <defs>
       <path id="m8db57fa88d" d="M 0 0 
L -3.5 0 
" style="stroke: #000000; stroke-width: 0.8"/>
      </defs>
      <g>
       <use xlink:href="#m8db57fa88d" x="57.6" y="293.073213" style="stroke: #000000; stroke-width: 0.8"/>
      </g>
     </g>
     <g id="text_11">
      <!-- 0 -->
      <g transform="translate(44.2375 296.872431)scale(0.1 -0.1)">
       <use xlink:href="#DejaVuSans-30"/>
      </g>
     </g>
    </g>
    <g id="ytick_2">
     <g id="line2d_21">
      <path d="M 57.6 260.264279 
L 414.72 260.264279 
" clip-path="url(#p5422953087)" style="fill: none; stroke: #b0b0b0; stroke-width: 0.8; stroke-linecap: square"/>
     </g>
     <g id="line2d_22">
      <g>
       <use xlink:href="#m8db57fa88d" x="57.6" y="260.264279" style="stroke: #000000; stroke-width: 0.8"/>
      </g>
     </g>
     <g id="text_12">
      <!-- 20 -->
      <g transform="translate(37.875 264.063498)scale(0.1 -0.1)">
       <use xlink:href="#DejaVuSans-32"/>
       <use xlink:href="#DejaVuSans-30" x="63.623047"/>
      </g>
     </g>
    </g>
    <g id="ytick_3">
     <g id="line2d_23">
      <path d="M 57.6 227.455346 
L 414.72 227.455346 
" clip-path="url(#p5422953087)" style="fill: none; stroke: #b0b0b0; stroke-width: 0.8; stroke-linecap: square"/>
     </g>
     <g id="line2d_24">
      <g>
       <use xlink:href="#m8db57fa88d" x="57.6" y="227.455346" style="stroke: #000000; stroke-width: 0.8"/>
      </g>
     </g>
     <g id="text_13">
      <!-- 40 -->
      <g transform="translate(37.875 231.254565)scale(0.1 -0.1)">
       <defs>
        <path id="DejaVuSans-34" d="M 2419 4116 
L 825 1625 
L 2419 1625 
L 2419 4116 
z
M 2253 4666 
L 3047 4666 
L 3047 1625 
L 3713 1625 
L 3713 1100 
L 3047 1100 
L 3047 0 
L 2419 0 
L 2419 1100 
L 313 1100 
L 313 1709 
L 2253 4666 
z
" transform="scale(0.015625)"/>
       </defs>
       <use xlink:href="#DejaVuSans-34"/>
       <use xlink:href="#DejaVuSans-30" x="63.623047"/>
      </g>
     </g>
    </g>
    <g id="ytick_4">
     <g id="line2d_25">
      <path d="M 57.6 194.646413 
L 414.72 194.646413 
" clip-path="url(#p5422953087)" style="fill: none; stroke: #b0b0b0; stroke-width: 0.8; stroke-linecap: square"/>
     </g>
     <g id="line2d_26">
      <g>
       <use xlink:href="#m8db57fa88d" x="57.6" y="194.646413" style="stroke: #000000; stroke-width: 0.8"/>
      </g>
     </g>
     <g id="text_14">
      <!-- 60 -->
      <g transform="translate(37.875 198.445632)scale(0.1 -0.1)">
       <defs>
        <path id="DejaVuSans-36" d="M 2113 2584 
Q 1688 2584 1439 2293 
Q 1191 2003 1191 1497 
Q 1191 994 1439 701 
Q 1688 409 2113 409 
Q 2538 409 2786 701 
Q 3034 994 3034 1497 
Q 3034 2003 2786 2293 
Q 2538 2584 2113 2584 
z
M 3366 4563 
L 3366 3988 
Q 3128 4100 2886 4159 
Q 2644 4219 2406 4219 
Q 1781 4219 1451 3797 
Q 1122 3375 1075 2522 
Q 1259 2794 1537 2939 
Q 1816 3084 2150 3084 
Q 2853 3084 3261 2657 
Q 3669 2231 3669 1497 
Q 3669 778 3244 343 
Q 2819 -91 2113 -91 
Q 1303 -91 875 529 
Q 447 1150 447 2328 
Q 447 3434 972 4092 
Q 1497 4750 2381 4750 
Q 2619 4750 2861 4703 
Q 3103 4656 3366 4563 
z
" transform="scale(0.015625)"/>
       </defs>
       <use xlink:href="#DejaVuSans-36"/>
       <use xlink:href="#DejaVuSans-30" x="63.623047"/>
      </g>
     </g>
    </g>
    <g id="ytick_5">
     <g id="line2d_27">
      <path d="M 57.6 161.83748 
L 414.72 161.83748 
" clip-path="url(#p5422953087)" style="fill: none; stroke: #b0b0b0; stroke-width: 0.8; stroke-linecap: square"/>
     </g>
     <g id="line2d_28">
      <g>
       <use xlink:href="#m8db57fa88d" x="57.6" y="161.83748" style="stroke: #000000; stroke-width: 0.8"/>
      </g>
     </g>
     <g id="text_15">
      <!-- 80 -->
      <g transform="translate(37.875 165.636698)scale(0.1 -0.1)">
       <defs>
        <path id="DejaVuSans-38" d="M 2034 2216 
Q 1584 2216 1326 1975 
Q 1069 1734 1069 1313 
Q 1069 891 1326 650 
Q 1584 409 2034 409 
Q 2484 409 2743 651 
Q 3003 894 3003 1313 
Q 3003 1734 2745 1975 
Q 2488 2216 2034 2216 
z
M 1403 2484 
Q 997 2584 770 2862 
Q 544 3141 544 3541 
Q 544 4100 942 4425 
Q 1341 4750 2034 4750 
Q 2731 4750 3128 4425 
Q 3525 4100 3525 3541 
Q 3525 3141 3298 2862 
Q 3072 2584 2669 2484 
Q 3125 2378 3379 2068 
Q 3634 1759 3634 1313 
Q 3634 634 3220 271 
Q 2806 -91 2034 -91 
Q 1263 -91 848 271 
Q 434 634 434 1313 
Q 434 1759 690 2068 
Q 947 2378 1403 2484 
z
M 1172 3481 
Q 1172 3119 1398 2916 
Q 1625 2713 2034 2713 
Q 2441 2713 2670 2916 
Q 2900 3119 2900 3481 
Q 2900 3844 2670 4047 
Q 2441 4250 2034 4250 
Q 1625 4250 1398 4047 
Q 1172 3844 1172 3481 
z
" transform="scale(0.015625)"/>
       </defs>
       <use xlink:href="#DejaVuSans-38"/>
       <use xlink:href="#DejaVuSans-30" x="63.623047"/>
      </g>
     </g>
    </g>
    <g id="ytick_6">
     <g id="line2d_29">
      <path d="M 57.6 129.028546 
L 414.72 129.028546 
" clip-path="url(#p5422953087)" style="fill: none; stroke: #b0b0b0; stroke-width: 0.8; stroke-linecap: square"/>
     </g>
     <g id="line2d_30">
      <g>
       <use xlink:href="#m8db57fa88d" x="57.6" y="129.028546" style="stroke: #000000; stroke-width: 0.8"/>
      </g>
     </g>
     <g id="text_16">
      <!-- 100 -->
      <g transform="translate(31.5125 132.827765)scale(0.1 -0.1)">
       <use xlink:href="#DejaVuSans-31"/>
       <use xlink:href="#DejaVuSans-30" x="63.623047"/>
       <use xlink:href="#DejaVuSans-30" x="127.246094"/>
      </g>
     </g>
    </g>
    <g id="ytick_7">
     <g id="line2d_31">
      <path d="M 57.6 96.219613 
L 414.72 96.219613 
" clip-path="url(#p5422953087)" style="fill: none; stroke: #b0b0b0; stroke-width: 0.8; stroke-linecap: square"/>
     </g>
     <g id="line2d_32">
      <g>
       <use xlink:href="#m8db57fa88d" x="57.6" y="96.219613" style="stroke: #000000; stroke-width: 0.8"/>
      </g>
     </g>
     <g id="text_17">
      <!-- 120 -->
      <g transform="translate(31.5125 100.018832)scale(0.1 -0.1)">
       <use xlink:href="#DejaVuSans-31"/>
       <use xlink:href="#DejaVuSans-32" x="63.623047"/>
       <use xlink:href="#DejaVuSans-30" x="127.246094"/>
      </g>
     </g>
    </g>
    <g id="ytick_8">
     <g id="line2d_33">
      <path d="M 57.6 63.41068 
L 414.72 63.41068 
" clip-path="url(#p5422953087)" style="fill: none; stroke: #b0b0b0; stroke-width: 0.8; stroke-linecap: square"/>
     </g>
     <g id="line2d_34">
      <g>
       <use xlink:href="#m8db57fa88d" x="57.6" y="63.41068" style="stroke: #000000; stroke-width: 0.8"/>
      </g>
     </g>
     <g id="text_18">
      <!-- 140 -->
      <g transform="translate(31.5125 67.209899)scale(0.1 -0.1)">
       <use xlink:href="#DejaVuSans-31"/>
       <use xlink:href="#DejaVuSans-34" x="63.623047"/>
       <use xlink:href="#DejaVuSans-30" x="127.246094"/>
      </g>
     </g>
    </g>
    <g id="text_19">
     <!-- Fitness -->
     <g transform="translate(25.432812 191.845187)rotate(-90)scale(0.1 -0.1)">
      <defs>
       <path id="DejaVuSans-46" d="M 628 4666 
L 3309 4666 
L 3309 4134 
L 1259 4134 
L 1259 2759 
L 3109 2759 
L 3109 2228 
L 1259 2228 
L 1259 0 
L 628 0 
L 628 4666 
z
" transform="scale(0.015625)"/>
      </defs>
      <use xlink:href="#DejaVuSans-46"/>
      <use xlink:href="#DejaVuSans-69" x="50.269531"/>
      <use xlink:href="#DejaVuSans-74" x="78.052734"/>
      <use xlink:href="#DejaVuSans-6e" x="117.261719"/>
      <use xlink:href="#DejaVuSans-65" x="180.640625"/>
      <use xlink:href="#DejaVuSans-73" x="242.164062"/>
      <use xlink:href="#DejaVuSans-73" x="294.263672"/>
     </g>
    </g>
   </g>
   <g id="line2d_35">
    <path d="M 73.832727 278.309193 
L 75.464157 281.021398 
L 77.095587 280.802672 
L 78.727017 280.299601 
L 80.358447 280.551136 
L 81.989877 280.474582 
L 83.621307 280.901098 
L 85.252736 281.130761 
L 86.884166 280.5402 
L 88.515596 280.408964 
L 90.147026 280.015257 
L 91.778456 280.376155 
L 93.409886 280.266792 
L 95.041316 280.343346 
L 96.672746 280.802672 
L 98.304175 280.551136 
L 99.935605 280.977652 
L 101.567035 280.474582 
L 109.724185 280.026193 
L 111.355614 278.516982 
L 112.987044 278.724772 
L 114.618474 279.599677 
L 116.249904 278.396683 
L 119.512764 268.619621 
L 121.144194 266.585467 
L 122.775624 261.806299 
L 124.407053 259.750273 
L 126.038483 261.332221 
L 127.669913 263.214881 
L 129.301343 264.00758 
L 130.932773 259.328454 
L 132.564203 259.592687 
L 134.195633 259.170648 
L 135.827063 256.042863 
L 137.458492 257.148532 
L 139.089922 254.605289 
L 140.721352 257.544881 
L 142.352782 257.956718 
L 143.984212 251.755829 
L 145.615642 249.535758 
L 147.247072 253.702493 
L 148.878502 253.72422 
L 150.509931 254.927359 
L 152.141361 258.197317 
L 153.772791 257.798177 
L 155.404221 252.696352 
L 157.035651 253.04191 
L 158.667081 250.850978 
L 160.298511 251.115211 
L 161.929941 253.008881 
L 163.56137 248.12057 
L 165.1928 246.09082 
L 166.82423 245.423705 
L 168.45566 251.383995 
L 170.08709 244.122284 
L 171.71852 245.981457 
L 173.34995 251.692674 
L 174.98138 250.476648 
L 176.61281 247.140706 
L 178.244239 246.865463 
L 179.875669 248.278082 
L 181.507099 248.604997 
L 183.138529 251.346415 
L 184.769959 248.116107 
L 186.401389 245.136939 
L 188.032819 246.298314 
L 189.664249 242.4743 
L 191.295678 242.152861 
L 192.927108 246.116803 
L 194.558538 243.316618 
L 196.189968 237.672356 
L 197.821398 247.412303 
L 199.452828 242.438092 
L 201.084258 242.011576 
L 202.715688 238.938473 
L 204.347117 238.025906 
L 205.978547 249.671991 
L 207.609977 243.751174 
L 209.241407 247.444895 
L 210.872837 247.91776 
L 212.504267 243.262299 
L 214.135697 244.872706 
L 215.767127 243.967737 
L 217.398556 248.346597 
L 219.029986 239.920582 
L 220.661416 247.284799 
L 222.292846 243.474473 
L 223.924276 241.136671 
L 225.555706 239.424131 
L 227.187136 243.01243 
L 228.818566 242.263111 
L 230.449995 239.273037 
L 232.081425 242.5303 
L 233.712855 240.708428 
L 235.344285 245.402484 
L 236.975715 242.591201 
L 238.607145 228.800512 
L 240.238575 244.147999 
L 241.870005 238.495109 
L 243.501434 239.927086 
L 245.132864 235.201296 
L 246.764294 232.355101 
L 248.395724 237.822523 
L 250.027154 231.312025 
L 251.658584 234.028069 
L 253.290014 223.70269 
L 254.921444 234.513584 
L 256.552873 228.031132 
L 258.184303 236.504962 
L 259.815733 231.822628 
L 261.447163 226.303774 
L 263.078593 226.171049 
L 264.710023 223.881128 
L 266.341453 219.616433 
L 267.972883 226.912152 
L 269.604312 228.759012 
L 271.235742 226.08471 
L 272.867172 227.903735 
L 274.498602 217.558704 
L 276.130032 219.585491 
L 277.761462 231.676762 
L 279.392892 222.201628 
L 281.024322 232.52778 
L 282.655751 226.181841 
L 284.287181 233.213205 
L 285.918611 230.920925 
L 287.550041 230.513049 
L 289.181471 227.689696 
L 290.812901 228.889379 
L 292.444331 232.494627 
L 294.075761 235.690171 
L 295.70719 223.89921 
L 297.33862 226.297384 
L 298.97005 228.098658 
L 300.60148 230.70343 
L 302.23291 228.070514 
L 303.86434 226.238591 
L 305.49577 237.848512 
L 307.1272 239.016589 
L 308.75863 233.00848 
L 310.390059 241.763083 
L 312.021489 227.042445 
L 313.652919 225.097883 
L 315.284349 219.904946 
L 316.915779 227.892799 
L 318.547209 229.657288 
L 320.178639 231.698635 
L 321.810069 233.224069 
L 323.441498 225.187346 
L 325.072928 233.640273 
L 326.704358 223.370744 
L 328.335788 221.495057 
L 329.967218 215.744078 
L 331.598648 221.976254 
L 333.230078 223.288612 
L 334.861508 228.997366 
L 336.492937 218.260211 
L 338.124367 220.774057 
L 339.755797 228.987154 
L 341.387227 221.800122 
L 343.018657 234.189811 
L 344.650087 224.239207 
L 346.281517 236.729338 
L 347.912947 229.481133 
L 349.544376 235.096084 
L 351.175806 224.251007 
L 354.438666 234.386505 
L 356.070096 230.030087 
L 357.701526 232.876425 
L 359.332956 234.159305 
L 360.964386 223.048013 
L 362.595815 222.290156 
L 364.227245 222.30124 
L 365.858675 214.01462 
L 367.490105 214.747353 
L 369.121535 206.477184 
L 370.752965 210.21436 
L 372.384395 210.985262 
L 374.015825 215.994239 
L 375.647254 215.450753 
L 377.278684 213.422877 
L 378.910114 208.05433 
L 380.541544 222.600064 
L 382.172974 211.827358 
L 383.804404 215.34885 
L 385.435834 224.36037 
L 387.067264 222.960522 
L 388.698693 218.174161 
L 390.330123 218.74251 
L 391.961553 220.85039 
L 393.592983 218.878783 
L 395.224413 213.164744 
L 396.855843 215.578512 
L 398.487273 211.783612 
L 398.487273 211.783612 
" clip-path="url(#p5422953087)" style="fill: none; stroke: #0000ff; stroke-width: 1.5; stroke-linecap: square"/>
   </g>
   <g id="line2d_36">
    <path d="M 73.832727 278.309193 
L 75.464157 286.086409 
L 77.095587 285.737554 
L 78.727017 284.650494 
L 80.358447 285.169381 
L 81.989877 285.096335 
L 83.621307 285.931576 
L 85.252736 286.339431 
L 86.884166 285.169555 
L 88.515596 284.943724 
L 90.147026 284.072967 
L 91.778456 284.982784 
L 93.409886 284.650998 
L 95.041316 284.884273 
L 96.672746 285.649518 
L 98.304175 285.284488 
L 99.935605 286.051724 
L 101.567035 285.002215 
L 103.198465 284.924013 
L 106.461325 284.548547 
L 108.092755 284.486056 
L 109.724185 286.467495 
L 111.355614 288.988973 
L 112.987044 289.886541 
L 114.618474 292.128204 
L 116.249904 293.920991 
L 117.881334 294.414368 
L 119.512764 294.266854 
L 121.144194 295.488 
L 122.775624 294.683093 
L 124.407053 291.099626 
L 126.038483 291.921917 
L 127.669913 292.437955 
L 129.301343 293.9915 
L 130.932773 290.611899 
L 134.195633 289.57379 
L 135.827063 286.81416 
L 137.458492 287.455179 
L 139.089922 285.43582 
L 140.721352 288.028024 
L 142.352782 287.859138 
L 143.984212 281.971762 
L 145.615642 279.5702 
L 147.247072 284.269083 
L 148.878502 284.022005 
L 150.509931 284.636621 
L 152.141361 288.705761 
L 153.772791 287.812817 
L 155.404221 283.593581 
L 157.035651 283.925402 
L 158.667081 281.378894 
L 160.298511 281.713912 
L 161.929941 284.018586 
L 163.56137 278.169376 
L 165.1928 275.595325 
L 166.82423 276.055336 
L 168.45566 282.93133 
L 170.08709 274.586387 
L 171.71852 277.849245 
L 173.34995 281.742502 
L 174.98138 280.890774 
L 176.61281 275.362085 
L 178.244239 275.811222 
L 179.875669 277.449724 
L 181.507099 277.162383 
L 183.138529 282.753204 
L 184.769959 278.897654 
L 186.401389 275.519831 
L 188.032819 275.566264 
L 189.664249 270.097038 
L 191.295678 271.249084 
L 192.927108 276.490557 
L 194.558538 272.522246 
L 196.189968 263.66374 
L 197.821398 279.232068 
L 199.452828 274.37287 
L 201.084258 275.663423 
L 202.715688 273.781105 
L 204.347117 275.436054 
L 205.978547 284.347341 
L 207.609977 277.299041 
L 209.241407 279.115313 
L 210.872837 280.314503 
L 212.504267 273.599173 
L 214.135697 276.895822 
L 215.767127 277.667192 
L 217.398556 281.29792 
L 219.029986 274.324326 
L 220.661416 278.881417 
L 222.292846 277.338985 
L 223.924276 276.647614 
L 225.555706 276.607459 
L 227.187136 280.549186 
L 228.818566 281.048926 
L 230.449995 279.367543 
L 232.081425 286.723868 
L 233.712855 284.028305 
L 235.344285 288.368091 
L 236.975715 285.02274 
L 238.607145 275.92297 
L 240.238575 288.493689 
L 241.870005 281.339658 
L 243.501434 282.682649 
L 245.132864 282.156488 
L 246.764294 281.203076 
L 248.395724 284.536319 
L 250.027154 282.736944 
L 251.658584 286.335942 
L 253.290014 275.550926 
L 254.921444 288.154539 
L 256.552873 285.604447 
L 258.184303 293.387452 
L 259.815733 286.224155 
L 263.078593 283.2784 
L 264.710023 280.385842 
L 266.341453 275.073974 
L 267.972883 285.335559 
L 269.604312 287.185041 
L 271.235742 283.135462 
L 272.867172 285.502461 
L 274.498602 275.650103 
L 276.130032 278.441794 
L 277.761462 289.490145 
L 279.392892 278.96995 
L 281.024322 288.305936 
L 282.655751 284.196626 
L 285.918611 288.845847 
L 289.181471 285.469726 
L 290.812901 286.112493 
L 292.444331 288.399934 
L 294.075761 288.70823 
L 295.70719 280.351721 
L 297.33862 283.141726 
L 298.97005 286.693756 
L 300.60148 287.725089 
L 302.23291 284.845142 
L 303.86434 284.727467 
L 305.49577 293.260363 
L 307.1272 290.576443 
L 308.75863 284.691002 
L 310.390059 293.800859 
L 312.021489 283.659027 
L 313.652919 283.261075 
L 315.284349 280.328256 
L 316.915779 287.362302 
L 318.547209 290.515255 
L 320.178639 290.514901 
L 321.810069 292.410027 
L 323.441498 285.213668 
L 325.072928 290.506066 
L 326.704358 281.76084 
L 328.335788 279.178914 
L 329.967218 274.446942 
L 331.598648 279.743842 
L 333.230078 282.425634 
L 334.861508 290.524462 
L 336.492937 276.638523 
L 338.124367 279.147225 
L 339.755797 285.537136 
L 341.387227 279.649449 
L 343.018657 287.729053 
L 344.650087 278.322866 
L 346.281517 292.777581 
L 347.912947 286.574975 
L 349.544376 290.052082 
L 351.175806 282.330646 
L 352.807236 288.503817 
L 354.438666 289.967135 
L 356.070096 287.27226 
L 357.701526 288.65768 
L 359.332956 291.326282 
L 360.964386 279.76514 
L 362.595815 281.897061 
L 364.227245 280.38375 
L 365.858675 273.166526 
L 367.490105 271.563732 
L 369.121535 266.924831 
L 370.752965 269.270098 
L 372.384395 269.955271 
L 374.015825 277.317902 
L 375.647254 277.440939 
L 377.278684 275.235609 
L 378.910114 269.830379 
L 380.541544 285.022125 
L 382.172974 275.256085 
L 383.804404 278.055316 
L 385.435834 286.645673 
L 387.067264 285.864876 
L 388.698693 281.111394 
L 390.330123 280.105615 
L 391.961553 281.817276 
L 393.592983 278.509199 
L 395.224413 273.135586 
L 396.855843 276.640065 
L 398.487273 273.716224 
L 398.487273 273.716224 
" clip-path="url(#p5422953087)" style="fill: none; stroke-dasharray: 9.6,2.4,1.5,2.4; stroke-dashoffset: 0; stroke: #008000; stroke-width: 1.5"/>
   </g>
   <g id="line2d_37">
    <path d="M 73.832727 278.309193 
L 75.464157 275.956386 
L 77.095587 275.867789 
L 80.358447 275.932891 
L 83.621307 275.870621 
L 86.884166 275.910845 
L 88.515596 275.874205 
L 90.147026 275.957547 
L 91.778456 275.769527 
L 93.409886 275.882586 
L 95.041316 275.802419 
L 96.672746 275.955825 
L 98.304175 275.817785 
L 101.567035 275.946949 
L 103.198465 275.85017 
L 104.829895 276.044123 
L 106.461325 275.831929 
L 108.092755 275.763184 
L 109.724185 273.584892 
L 111.355614 268.044992 
L 114.618474 267.071151 
L 116.249904 262.872375 
L 119.512764 242.972388 
L 121.144194 237.682934 
L 122.775624 228.929505 
L 124.407053 228.40092 
L 126.038483 230.742525 
L 127.669913 233.991807 
L 129.301343 234.023661 
L 130.932773 228.045009 
L 132.564203 229.05849 
L 134.195633 228.767507 
L 135.827063 225.271566 
L 137.458492 226.841884 
L 139.089922 223.774757 
L 140.721352 227.061738 
L 142.352782 228.054297 
L 143.984212 221.539896 
L 145.615642 219.501317 
L 147.247072 223.135902 
L 148.878502 223.426436 
L 150.509931 225.218098 
L 152.141361 227.688872 
L 153.772791 227.783537 
L 155.404221 221.799123 
L 157.035651 222.158418 
L 158.667081 220.323062 
L 160.298511 220.51651 
L 161.929941 221.999176 
L 163.56137 218.071764 
L 165.1928 216.586315 
L 166.82423 214.792074 
L 168.45566 219.836659 
L 170.08709 213.658181 
L 171.71852 214.11367 
L 173.34995 221.642845 
L 174.98138 220.062522 
L 176.61281 218.919327 
L 178.244239 217.919705 
L 179.875669 219.106441 
L 181.507099 220.047611 
L 183.138529 219.939626 
L 186.401389 214.754047 
L 188.032819 217.030365 
L 189.664249 214.851562 
L 191.295678 213.056639 
L 192.927108 215.743049 
L 194.558538 214.110991 
L 196.189968 211.680972 
L 197.821398 215.592538 
L 199.452828 210.503315 
L 201.084258 208.359729 
L 202.715688 204.09584 
L 204.347117 200.615758 
L 205.978547 214.996641 
L 207.609977 210.203306 
L 209.241407 215.774476 
L 210.872837 215.521016 
L 212.504267 212.925425 
L 214.135697 212.84959 
L 215.767127 210.268281 
L 217.398556 215.395275 
L 219.029986 205.516838 
L 220.661416 215.688181 
L 222.292846 209.609961 
L 223.924276 205.625728 
L 225.555706 202.240803 
L 227.187136 205.475674 
L 228.818566 203.477296 
L 230.449995 199.178532 
L 233.712855 197.388551 
L 235.344285 202.436877 
L 236.975715 200.159661 
L 238.607145 181.678055 
L 240.238575 199.80231 
L 241.870005 195.650559 
L 243.501434 197.171524 
L 245.132864 188.246104 
L 246.764294 183.507127 
L 248.395724 191.108726 
L 250.027154 179.887107 
L 251.658584 181.720196 
L 253.290014 171.854454 
L 254.921444 180.872628 
L 256.552873 170.457817 
L 258.184303 179.622473 
L 259.815733 177.421101 
L 261.447163 167.791036 
L 263.078593 169.063698 
L 264.710023 167.376414 
L 266.341453 164.158892 
L 267.972883 168.488745 
L 269.604312 170.332983 
L 271.235742 169.033958 
L 272.867172 170.305008 
L 274.498602 159.467305 
L 276.130032 160.729188 
L 277.761462 173.863379 
L 279.392892 165.433306 
L 281.024322 176.749624 
L 282.655751 168.167057 
L 284.287181 179.95421 
L 285.918611 172.996004 
L 287.550041 173.949262 
L 289.181471 169.909665 
L 290.812901 171.666265 
L 292.444331 176.58932 
L 294.075761 182.672112 
L 295.70719 167.446699 
L 297.33862 169.453041 
L 298.97005 169.503561 
L 300.60148 173.681772 
L 302.23291 171.295885 
L 303.86434 167.749715 
L 305.49577 182.43666 
L 307.1272 187.456735 
L 308.75863 181.325957 
L 310.390059 189.725306 
L 312.021489 170.425862 
L 313.652919 166.934691 
L 315.284349 159.481636 
L 316.915779 168.423295 
L 318.547209 168.79932 
L 320.178639 172.882369 
L 321.810069 174.038111 
L 323.441498 165.161024 
L 325.072928 176.774481 
L 326.704358 164.980648 
L 328.335788 163.811199 
L 329.967218 157.041213 
L 331.598648 164.208666 
L 333.230078 164.151589 
L 334.861508 167.47027 
L 336.492937 159.881899 
L 338.124367 162.400888 
L 339.755797 172.437172 
L 341.387227 163.950795 
L 343.018657 180.65057 
L 344.650087 170.155549 
L 346.281517 180.681095 
L 347.912947 172.38729 
L 349.544376 180.140087 
L 351.175806 166.171368 
L 352.807236 170.230963 
L 354.438666 178.805874 
L 356.070096 172.787914 
L 357.701526 177.09517 
L 359.332956 176.992328 
L 360.964386 166.330885 
L 362.595815 162.683251 
L 364.227245 164.21873 
L 365.858675 154.862713 
L 367.490105 157.930974 
L 369.121535 146.029537 
L 370.752965 151.158622 
L 372.384395 152.015253 
L 374.015825 154.670576 
L 375.647254 153.460567 
L 377.278684 151.610145 
L 378.910114 146.278281 
L 380.541544 160.178004 
L 382.172974 148.39863 
L 383.804404 152.642383 
L 385.435834 162.075067 
L 387.067264 160.056168 
L 388.698693 155.236928 
L 390.330123 157.379405 
L 391.961553 159.883504 
L 393.592983 159.248366 
L 395.224413 153.193901 
L 396.855843 154.516959 
L 398.487273 149.851001 
L 398.487273 149.851001 
" clip-path="url(#p5422953087)" style="fill: none; stroke-dasharray: 9.6,2.4,1.5,2.4; stroke-dashoffset: 0; stroke: #008000; stroke-width: 1.5"/>
   </g>
   <g id="line2d_38">
    <path d="M 73.832727 278.309193 
L 78.727017 278.309193 
L 80.358447 276.668746 
L 81.989877 278.309193 
L 83.621307 273.387853 
L 85.252736 278.309193 
L 90.147026 278.309193 
L 91.778456 270.106959 
L 93.409886 278.309193 
L 108.092755 278.309193 
L 109.724185 224.174453 
L 116.249904 224.174453 
L 117.881334 193.005966 
L 119.512764 193.005966 
L 121.144194 150.354353 
L 122.775624 150.354353 
L 124.407053 191.36552 
L 126.038483 217.612666 
L 127.669913 224.174453 
L 129.301343 196.28686 
L 132.564203 196.28686 
L 134.195633 224.174453 
L 135.827063 188.084626 
L 137.458492 204.489093 
L 139.089922 188.084626 
L 140.721352 202.848646 
L 142.352782 202.848646 
L 143.984212 188.084626 
L 145.615642 179.882393 
L 147.247072 188.084626 
L 148.878502 194.646413 
L 150.509931 224.174453 
L 152.141361 224.174453 
L 153.772791 188.084626 
L 155.404221 184.803733 
L 157.035651 209.410433 
L 158.667081 188.084626 
L 160.298511 129.028546 
L 161.929941 166.75882 
L 163.56137 188.084626 
L 165.1928 188.084626 
L 166.82423 140.511673 
L 168.45566 173.320606 
L 170.08709 151.9948 
L 171.71852 110.983633 
L 173.34995 181.52284 
L 174.98138 194.646413 
L 176.61281 215.972219 
L 178.244239 207.769986 
L 179.875669 219.253113 
L 181.507099 222.534006 
L 183.138529 143.792566 
L 184.769959 143.792566 
L 186.401389 193.005966 
L 189.664249 193.005966 
L 191.295678 168.399266 
L 192.927108 191.36552 
L 194.558538 158.556586 
L 196.189968 150.354353 
L 197.821398 145.433013 
L 199.452828 150.354353 
L 201.084258 143.792566 
L 202.715688 140.511673 
L 204.347117 135.590333 
L 205.978547 150.354353 
L 209.241407 150.354353 
L 210.872837 143.792566 
L 212.504267 150.354353 
L 214.135697 143.792566 
L 215.767127 145.433013 
L 217.398556 150.354353 
L 220.661416 150.354353 
L 222.292846 124.107206 
L 223.924276 145.433013 
L 225.555706 145.433013 
L 227.187136 143.792566 
L 228.818566 150.354353 
L 230.449995 145.433013 
L 232.081425 122.46676 
L 233.712855 135.590333 
L 235.344285 53.568 
L 236.975715 138.871226 
L 238.607145 125.747653 
L 240.238575 133.949886 
L 241.870005 145.433013 
L 243.501434 145.433013 
L 245.132864 125.747653 
L 246.764294 130.668993 
L 248.395724 142.15212 
L 250.027154 125.747653 
L 251.658584 137.23078 
L 253.290014 119.185866 
L 254.921444 140.511673 
L 256.552873 125.747653 
L 258.184303 145.433013 
L 259.815733 150.354353 
L 261.447163 89.657827 
L 263.078593 137.23078 
L 264.710023 143.792566 
L 266.341453 137.23078 
L 267.972883 143.792566 
L 269.604312 125.747653 
L 271.235742 124.107206 
L 272.867172 137.23078 
L 274.498602 124.107206 
L 276.130032 119.185866 
L 277.761462 119.185866 
L 279.392892 135.590333 
L 281.024322 137.23078 
L 282.655751 124.107206 
L 284.287181 143.792566 
L 285.918611 140.511673 
L 287.550041 143.792566 
L 289.181471 127.3881 
L 290.812901 140.511673 
L 292.444331 137.23078 
L 294.075761 143.792566 
L 295.70719 137.23078 
L 297.33862 143.792566 
L 298.97005 137.23078 
L 300.60148 127.3881 
L 302.23291 127.3881 
L 303.86434 137.23078 
L 307.1272 127.3881 
L 308.75863 137.23078 
L 310.390059 133.949886 
L 312.021489 135.590333 
L 313.652919 127.3881 
L 315.284349 91.298273 
L 316.915779 143.792566 
L 318.547209 137.23078 
L 320.178639 137.23078 
L 321.810069 127.3881 
L 323.441498 127.3881 
L 325.072928 145.433013 
L 326.704358 120.826313 
L 328.335788 127.3881 
L 329.967218 127.3881 
L 331.598648 137.23078 
L 333.230078 60.129787 
L 334.861508 112.62408 
L 336.492937 88.01738 
L 338.124367 88.01738 
L 339.755797 112.62408 
L 341.387227 112.62408 
L 343.018657 69.972467 
L 344.650087 114.264526 
L 346.281517 117.54542 
L 347.912947 106.062293 
L 349.544376 88.01738 
L 351.175806 112.62408 
L 352.807236 125.747653 
L 354.438666 135.590333 
L 356.070096 135.590333 
L 357.701526 124.107206 
L 359.332956 115.904973 
L 360.964386 127.3881 
L 362.595815 135.590333 
L 364.227245 137.23078 
L 365.858675 99.500507 
L 367.490105 135.590333 
L 369.121535 127.3881 
L 370.752965 127.3881 
L 372.384395 135.590333 
L 374.015825 125.747653 
L 375.647254 125.747653 
L 377.278684 101.140953 
L 378.910114 88.01738 
L 380.541544 119.185866 
L 382.172974 94.579167 
L 383.804404 125.747653 
L 385.435834 127.3881 
L 387.067264 115.904973 
L 388.698693 137.23078 
L 390.330123 127.3881 
L 391.961553 124.107206 
L 393.592983 127.3881 
L 395.224413 127.3881 
L 396.855843 137.23078 
L 398.487273 127.3881 
L 398.487273 127.3881 
" clip-path="url(#p5422953087)" style="fill: none; stroke: #ff0000; stroke-width: 1.5; stroke-linecap: square"/>
   </g>
   <g id="patch_3">
    <path d="M 57.6 307.584 
L 57.6 41.472 
" style="fill: none; stroke: #000000; stroke-width: 0.8; stroke-linejoin: miter; stroke-linecap: square"/>
   </g>
   <g id="patch_4">
    <path d="M 414.72 307.584 
L 414.72 41.472 
" style="fill: none; stroke: #000000; stroke-width: 0.8; stroke-linejoin: miter; stroke-linecap: square"/>
   </g>
   <g id="patch_5">
    <path d="M 57.6 307.584 
L 414.72 307.584 
" style="fill: none; stroke: #000000; stroke-width: 0.8; stroke-linejoin: miter; stroke-linecap: square"/>
   </g>
   <g id="patch_6">
    <path d="M 57.6 41.472 
L 414.72 41.472 
" style="fill: none; stroke: #000000; stroke-width: 0.8; stroke-linejoin: miter; stroke-linecap: square"/>
   </g>
   <g id="text_20">
    <!-- Population's average and best fitness -->
    <g transform="translate(123.529687 35.472)scale(0.12 -0.12)">
     <defs>
      <path id="DejaVuSans-50" d="M 1259 4147 
L 1259 2394 
L 2053 2394 
Q 2494 2394 2734 2622 
Q 2975 2850 2975 3272 
Q 2975 3691 2734 3919 
Q 2494 4147 2053 4147 
L 1259 4147 
z
M 628 4666 
L 2053 4666 
Q 2838 4666 3239 4311 
Q 3641 3956 3641 3272 
Q 3641 2581 3239 2228 
Q 2838 1875 2053 1875 
L 1259 1875 
L 1259 0 
L 628 0 
L 628 4666 
z
" transform="scale(0.015625)"/>
      <path id="DejaVuSans-70" d="M 1159 525 
L 1159 -1331 
L 581 -1331 
L 581 3500 
L 1159 3500 
L 1159 2969 
Q 1341 3281 1617 3432 
Q 1894 3584 2278 3584 
Q 2916 3584 3314 3078 
Q 3713 2572 3713 1747 
Q 3713 922 3314 415 
Q 2916 -91 2278 -91 
Q 1894 -91 1617 61 
Q 1341 213 1159 525 
z
M 3116 1747 
Q 3116 2381 2855 2742 
Q 2594 3103 2138 3103 
Q 1681 3103 1420 2742 
Q 1159 2381 1159 1747 
Q 1159 1113 1420 752 
Q 1681 391 2138 391 
Q 2594 391 2855 752 
Q 3116 1113 3116 1747 
z
" transform="scale(0.015625)"/>
      <path id="DejaVuSans-75" d="M 544 1381 
L 544 3500 
L 1119 3500 
L 1119 1403 
Q 1119 906 1312 657 
Q 1506 409 1894 409 
Q 2359 409 2629 706 
Q 2900 1003 2900 1516 
L 2900 3500 
L 3475 3500 
L 3475 0 
L 2900 0 
L 2900 538 
Q 2691 219 2414 64 
Q 2138 -91 1772 -91 
Q 1169 -91 856 284 
Q 544 659 544 1381 
z
M 1991 3584 
L 1991 3584 
z
" transform="scale(0.015625)"/>
      <path id="DejaVuSans-6c" d="M 603 4863 
L 1178 4863 
L 1178 0 
L 603 0 
L 603 4863 
z
" transform="scale(0.015625)"/>
      <path id="DejaVuSans-27" d="M 1147 4666 
L 1147 2931 
L 616 2931 
L 616 4666 
L 1147 4666 
z
" transform="scale(0.015625)"/>
      <path id="DejaVuSans-20" transform="scale(0.015625)"/>
      <path id="DejaVuSans-76" d="M 191 3500 
L 800 3500 
L 1894 563 
L 2988 3500 
L 3597 3500 
L 2284 0 
L 1503 0 
L 191 3500 
z
" transform="scale(0.015625)"/>
      <path id="DejaVuSans-67" d="M 2906 1791 
Q 2906 2416 2648 2759 
Q 2391 3103 1925 3103 
Q 1463 3103 1205 2759 
Q 947 2416 947 1791 
Q 947 1169 1205 825 
Q 1463 481 1925 481 
Q 2391 481 2648 825 
Q 2906 1169 2906 1791 
z
M 3481 434 
Q 3481 -459 3084 -895 
Q 2688 -1331 1869 -1331 
Q 1566 -1331 1297 -1286 
Q 1028 -1241 775 -1147 
L 775 -588 
Q 1028 -725 1275 -790 
Q 1522 -856 1778 -856 
Q 2344 -856 2625 -561 
Q 2906 -266 2906 331 
L 2906 616 
Q 2728 306 2450 153 
Q 2172 0 1784 0 
Q 1141 0 747 490 
Q 353 981 353 1791 
Q 353 2603 747 3093 
Q 1141 3584 1784 3584 
Q 2172 3584 2450 3431 
Q 2728 3278 2906 2969 
L 2906 3500 
L 3481 3500 
L 3481 434 
z
" transform="scale(0.015625)"/>
      <path id="DejaVuSans-64" d="M 2906 2969 
L 2906 4863 
L 3481 4863 
L 3481 0 
L 2906 0 
L 2906 525 
Q 2725 213 2448 61 
Q 2172 -91 1784 -91 
Q 1150 -91 751 415 
Q 353 922 353 1747 
Q 353 2572 751 3078 
Q 1150 3584 1784 3584 
Q 2172 3584 2448 3432 
Q 2725 3281 2906 2969 
z
M 947 1747 
Q 947 1113 1208 752 
Q 1469 391 1925 391 
Q 2381 391 2643 752 
Q 2906 1113 2906 1747 
Q 2906 2381 2643 2742 
Q 2381 3103 1925 3103 
Q 1469 3103 1208 2742 
Q 947 2381 947 1747 
z
" transform="scale(0.015625)"/>
      <path id="DejaVuSans-62" d="M 3116 1747 
Q 3116 2381 2855 2742 
Q 2594 3103 2138 3103 
Q 1681 3103 1420 2742 
Q 1159 2381 1159 1747 
Q 1159 1113 1420 752 
Q 1681 391 2138 391 
Q 2594 391 2855 752 
Q 3116 1113 3116 1747 
z
M 1159 2969 
Q 1341 3281 1617 3432 
Q 1894 3584 2278 3584 
Q 2916 3584 3314 3078 
Q 3713 2572 3713 1747 
Q 3713 922 3314 415 
Q 2916 -91 2278 -91 
Q 1894 -91 1617 61 
Q 1341 213 1159 525 
L 1159 0 
L 581 0 
L 581 4863 
L 1159 4863 
L 1159 2969 
z
" transform="scale(0.015625)"/>
      <path id="DejaVuSans-66" d="M 2375 4863 
L 2375 4384 
L 1825 4384 
Q 1516 4384 1395 4259 
Q 1275 4134 1275 3809 
L 1275 3500 
L 2222 3500 
L 2222 3053 
L 1275 3053 
L 1275 0 
L 697 0 
L 697 3053 
L 147 3053 
L 147 3500 
L 697 3500 
L 697 3744 
Q 697 4328 969 4595 
Q 1241 4863 1831 4863 
L 2375 4863 
z
" transform="scale(0.015625)"/>
     </defs>
     <use xlink:href="#DejaVuSans-50"/>
     <use xlink:href="#DejaVuSans-6f" x="56.677734"/>
     <use xlink:href="#DejaVuSans-70" x="117.859375"/>
     <use xlink:href="#DejaVuSans-75" x="181.335938"/>
     <use xlink:href="#DejaVuSans-6c" x="244.714844"/>
     <use xlink:href="#DejaVuSans-61" x="272.498047"/>
     <use xlink:href="#DejaVuSans-74" x="333.777344"/>
     <use xlink:href="#DejaVuSans-69" x="372.986328"/>
     <use xlink:href="#DejaVuSans-6f" x="400.769531"/>
     <use xlink:href="#DejaVuSans-6e" x="461.951172"/>
     <use xlink:href="#DejaVuSans-27" x="525.330078"/>
     <use xlink:href="#DejaVuSans-73" x="552.820312"/>
     <use xlink:href="#DejaVuSans-20" x="604.919922"/>
     <use xlink:href="#DejaVuSans-61" x="636.707031"/>
     <use xlink:href="#DejaVuSans-76" x="697.986328"/>
     <use xlink:href="#DejaVuSans-65" x="757.166016"/>
     <use xlink:href="#DejaVuSans-72" x="818.689453"/>
     <use xlink:href="#DejaVuSans-61" x="859.802734"/>
     <use xlink:href="#DejaVuSans-67" x="921.082031"/>
     <use xlink:href="#DejaVuSans-65" x="984.558594"/>
     <use xlink:href="#DejaVuSans-20" x="1046.082031"/>
     <use xlink:href="#DejaVuSans-61" x="1077.869141"/>
     <use xlink:href="#DejaVuSans-6e" x="1139.148438"/>
     <use xlink:href="#DejaVuSans-64" x="1202.527344"/>
     <use xlink:href="#DejaVuSans-20" x="1266.003906"/>
     <use xlink:href="#DejaVuSans-62" x="1297.791016"/>
     <use xlink:href="#DejaVuSans-65" x="1361.267578"/>
     <use xlink:href="#DejaVuSans-73" x="1422.791016"/>
     <use xlink:href="#DejaVuSans-74" x="1474.890625"/>
     <use xlink:href="#DejaVuSans-20" x="1514.099609"/>
     <use xlink:href="#DejaVuSans-66" x="1545.886719"/>
     <use xlink:href="#DejaVuSans-69" x="1581.091797"/>
     <use xlink:href="#DejaVuSans-74" x="1608.875"/>
     <use xlink:href="#DejaVuSans-6e" x="1648.083984"/>
     <use xlink:href="#DejaVuSans-65" x="1711.462891"/>
     <use xlink:href="#DejaVuSans-73" x="1772.986328"/>
     <use xlink:href="#DejaVuSans-73" x="1825.085938"/>
    </g>
   </g>
   <g id="legend_1">
    <g id="patch_7">
     <path d="M 64.6 108.1845 
L 137.540625 108.1845 
Q 139.540625 108.1845 139.540625 106.1845 
L 139.540625 48.472 
Q 139.540625 46.472 137.540625 46.472 
L 64.6 46.472 
Q 62.6 46.472 62.6 48.472 
L 62.6 106.1845 
Q 62.6 108.1845 64.6 108.1845 
z
" style="fill: #ffffff; opacity: 0.8; stroke: #cccccc; stroke-linejoin: miter"/>
    </g>
    <g id="line2d_39">
     <path d="M 66.6 54.570438 
L 76.6 54.570438 
L 86.6 54.570438 
" style="fill: none; stroke: #0000ff; stroke-width: 1.5; stroke-linecap: square"/>
    </g>
    <g id="text_21">
     <!-- average -->
     <g transform="translate(94.6 58.070438)scale(0.1 -0.1)">
      <use xlink:href="#DejaVuSans-61"/>
      <use xlink:href="#DejaVuSans-76" x="61.279297"/>
      <use xlink:href="#DejaVuSans-65" x="120.458984"/>
      <use xlink:href="#DejaVuSans-72" x="181.982422"/>
      <use xlink:href="#DejaVuSans-61" x="223.095703"/>
      <use xlink:href="#DejaVuSans-67" x="284.375"/>
      <use xlink:href="#DejaVuSans-65" x="347.851562"/>
     </g>
    </g>
    <g id="line2d_40">
     <path d="M 66.6 69.248563 
L 76.6 69.248563 
L 86.6 69.248563 
" style="fill: none; stroke-dasharray: 9.6,2.4,1.5,2.4; stroke-dashoffset: 0; stroke: #008000; stroke-width: 1.5"/>
    </g>
    <g id="text_22">
     <!-- -1 sd -->
     <g transform="translate(94.6 72.748563)scale(0.1 -0.1)">
      <defs>
       <path id="DejaVuSans-2d" d="M 313 2009 
L 1997 2009 
L 1997 1497 
L 313 1497 
L 313 2009 
z
" transform="scale(0.015625)"/>
      </defs>
      <use xlink:href="#DejaVuSans-2d"/>
      <use xlink:href="#DejaVuSans-31" x="36.083984"/>
      <use xlink:href="#DejaVuSans-20" x="99.707031"/>
      <use xlink:href="#DejaVuSans-73" x="131.494141"/>
      <use xlink:href="#DejaVuSans-64" x="183.59375"/>
     </g>
    </g>
    <g id="line2d_41">
     <path d="M 66.6 83.926688 
L 76.6 83.926688 
L 86.6 83.926688 
" style="fill: none; stroke-dasharray: 9.6,2.4,1.5,2.4; stroke-dashoffset: 0; stroke: #008000; stroke-width: 1.5"/>
    </g>
    <g id="text_23">
     <!-- +1 sd -->
     <g transform="translate(94.6 87.426688)scale(0.1 -0.1)">
      <defs>
       <path id="DejaVuSans-2b" d="M 2944 4013 
L 2944 2272 
L 4684 2272 
L 4684 1741 
L 2944 1741 
L 2944 0 
L 2419 0 
L 2419 1741 
L 678 1741 
L 678 2272 
L 2419 2272 
L 2419 4013 
L 2944 4013 
z
" transform="scale(0.015625)"/>
      </defs>
      <use xlink:href="#DejaVuSans-2b"/>
      <use xlink:href="#DejaVuSans-31" x="83.789062"/>
      <use xlink:href="#DejaVuSans-20" x="147.412109"/>
      <use xlink:href="#DejaVuSans-73" x="179.199219"/>
      <use xlink:href="#DejaVuSans-64" x="231.298828"/>
     </g>
    </g>
    <g id="line2d_42">
     <path d="M 66.6 98.604813 
L 76.6 98.604813 
L 86.6 98.604813 
" style="fill: none; stroke: #ff0000; stroke-width: 1.5; stroke-linecap: square"/>
    </g>
    <g id="text_24">
     <!-- best -->
     <g transform="translate(94.6 102.104813)scale(0.1 -0.1)">
      <use xlink:href="#DejaVuSans-62"/>
      <use xlink:href="#DejaVuSans-65" x="63.476562"/>
      <use xlink:href="#DejaVuSans-73" x="125"/>
      <use xlink:href="#DejaVuSans-74" x="177.099609"/>
     </g>
    </g>
   </g>
  </g>
 </g>
 <defs>
  <clipPath id="p5422953087">
   <rect x="57.6" y="41.472" width="357.12" height="266.112"/>
  </clipPath>
 </defs>
</svg>
