<?xml version="1.0" encoding="utf-8" standalone="no"?>
<!DOCTYPE svg PUBLIC "-//W3C//DTD SVG 1.1//EN"
  "http://www.w3.org/Graphics/SVG/1.1/DTD/svg11.dtd">
<svg xmlns:xlink="http://www.w3.org/1999/xlink" width="460.8pt" height="345.6pt" viewBox="0 0 460.8 345.6" xmlns="http://www.w3.org/2000/svg" version="1.1">
 <metadata>
  <rdf:RDF xmlns:dc="http://purl.org/dc/elements/1.1/" xmlns:cc="http://creativecommons.org/ns#" xmlns:rdf="http://www.w3.org/1999/02/22-rdf-syntax-ns#">
   <cc:Work>
    <dc:type rdf:resource="http://purl.org/dc/dcmitype/StillImage"/>
    <dc:date>2022-08-11T14:54:31.172239</dc:date>
    <dc:format>image/svg+xml</dc:format>
    <dc:creator>
     <cc:Agent>
      <dc:title>Matplotlib v3.5.2, https://matplotlib.org/</dc:title>
     </cc:Agent>
    </dc:creator>
   </cc:Work>
  </rdf:RDF>
 </metadata>
 <defs>
  <style type="text/css">*{stroke-linejoin: round; stroke-linecap: butt}</style>
 </defs>
 <g id="figure_1">
  <g id="patch_1">
   <path d="M 0 345.6 
L 460.8 345.6 
L 460.8 0 
L 0 0 
z
" style="fill: #ffffff"/>
  </g>
  <g id="axes_1">
   <g id="patch_2">
    <path d="M 57.6 307.584 
L 414.72 307.584 
L 414.72 41.472 
L 57.6 41.472 
z
" style="fill: #ffffff"/>
   </g>
   <g id="matplotlib.axis_1">
    <g id="xtick_1">
     <g id="line2d_1">
      <path d="M 73.832727 307.584 
L 73.832727 41.472 
" clip-path="url(#pcabe48953f)" style="fill: none; stroke: #b0b0b0; stroke-width: 0.8; stroke-linecap: square"/>
     </g>
     <g id="line2d_2">
      <defs>
       <path id="m3700e857a5" d="M 0 0 
L 0 3.5 
" style="stroke: #000000; stroke-width: 0.8"/>
      </defs>
      <g>
       <use xlink:href="#m3700e857a5" x="73.832727" y="307.584" style="stroke: #000000; stroke-width: 0.8"/>
      </g>
     </g>
     <g id="text_1">
      <!-- 0 -->
      <g transform="translate(70.651477 322.182437)scale(0.1 -0.1)">
       <defs>
        <path id="DejaVuSans-30" d="M 2034 4250 
Q 1547 4250 1301 3770 
Q 1056 3291 1056 2328 
Q 1056 1369 1301 889 
Q 1547 409 2034 409 
Q 2525 409 2770 889 
Q 3016 1369 3016 2328 
Q 3016 3291 2770 3770 
Q 2525 4250 2034 4250 
z
M 2034 4750 
Q 2819 4750 3233 4129 
Q 3647 3509 3647 2328 
Q 3647 1150 3233 529 
Q 2819 -91 2034 -91 
Q 1250 -91 836 529 
Q 422 1150 422 2328 
Q 422 3509 836 4129 
Q 1250 4750 2034 4750 
z
" transform="scale(0.015625)"/>
       </defs>
       <use xlink:href="#DejaVuSans-30"/>
      </g>
     </g>
    </g>
    <g id="xtick_2">
     <g id="line2d_3">
      <path d="M 128.122785 307.584 
L 128.122785 41.472 
" clip-path="url(#pcabe48953f)" style="fill: none; stroke: #b0b0b0; stroke-width: 0.8; stroke-linecap: square"/>
     </g>
     <g id="line2d_4">
      <g>
       <use xlink:href="#m3700e857a5" x="128.122785" y="307.584" style="stroke: #000000; stroke-width: 0.8"/>
      </g>
     </g>
     <g id="text_2">
      <!-- 50 -->
      <g transform="translate(121.760285 322.182437)scale(0.1 -0.1)">
       <defs>
        <path id="DejaVuSans-35" d="M 691 4666 
L 3169 4666 
L 3169 4134 
L 1269 4134 
L 1269 2991 
Q 1406 3038 1543 3061 
Q 1681 3084 1819 3084 
Q 2600 3084 3056 2656 
Q 3513 2228 3513 1497 
Q 3513 744 3044 326 
Q 2575 -91 1722 -91 
Q 1428 -91 1123 -41 
Q 819 9 494 109 
L 494 744 
Q 775 591 1075 516 
Q 1375 441 1709 441 
Q 2250 441 2565 725 
Q 2881 1009 2881 1497 
Q 2881 1984 2565 2268 
Q 2250 2553 1709 2553 
Q 1456 2553 1204 2497 
Q 953 2441 691 2322 
L 691 4666 
z
" transform="scale(0.015625)"/>
       </defs>
       <use xlink:href="#DejaVuSans-35"/>
       <use xlink:href="#DejaVuSans-30" x="63.623047"/>
      </g>
     </g>
    </g>
    <g id="xtick_3">
     <g id="line2d_5">
      <path d="M 182.412843 307.584 
L 182.412843 41.472 
" clip-path="url(#pcabe48953f)" style="fill: none; stroke: #b0b0b0; stroke-width: 0.8; stroke-linecap: square"/>
     </g>
     <g id="line2d_6">
      <g>
       <use xlink:href="#m3700e857a5" x="182.412843" y="307.584" style="stroke: #000000; stroke-width: 0.8"/>
      </g>
     </g>
     <g id="text_3">
      <!-- 100 -->
      <g transform="translate(172.869093 322.182437)scale(0.1 -0.1)">
       <defs>
        <path id="DejaVuSans-31" d="M 794 531 
L 1825 531 
L 1825 4091 
L 703 3866 
L 703 4441 
L 1819 4666 
L 2450 4666 
L 2450 531 
L 3481 531 
L 3481 0 
L 794 0 
L 794 531 
z
" transform="scale(0.015625)"/>
       </defs>
       <use xlink:href="#DejaVuSans-31"/>
       <use xlink:href="#DejaVuSans-30" x="63.623047"/>
       <use xlink:href="#DejaVuSans-30" x="127.246094"/>
      </g>
     </g>
    </g>
    <g id="xtick_4">
     <g id="line2d_7">
      <path d="M 236.702901 307.584 
L 236.702901 41.472 
" clip-path="url(#pcabe48953f)" style="fill: none; stroke: #b0b0b0; stroke-width: 0.8; stroke-linecap: square"/>
     </g>
     <g id="line2d_8">
      <g>
       <use xlink:href="#m3700e857a5" x="236.702901" y="307.584" style="stroke: #000000; stroke-width: 0.8"/>
      </g>
     </g>
     <g id="text_4">
      <!-- 150 -->
      <g transform="translate(227.159151 322.182437)scale(0.1 -0.1)">
       <use xlink:href="#DejaVuSans-31"/>
       <use xlink:href="#DejaVuSans-35" x="63.623047"/>
       <use xlink:href="#DejaVuSans-30" x="127.246094"/>
      </g>
     </g>
    </g>
    <g id="xtick_5">
     <g id="line2d_9">
      <path d="M 290.992958 307.584 
L 290.992958 41.472 
" clip-path="url(#pcabe48953f)" style="fill: none; stroke: #b0b0b0; stroke-width: 0.8; stroke-linecap: square"/>
     </g>
     <g id="line2d_10">
      <g>
       <use xlink:href="#m3700e857a5" x="290.992958" y="307.584" style="stroke: #000000; stroke-width: 0.8"/>
      </g>
     </g>
     <g id="text_5">
      <!-- 200 -->
      <g transform="translate(281.449208 322.182437)scale(0.1 -0.1)">
       <defs>
        <path id="DejaVuSans-32" d="M 1228 531 
L 3431 531 
L 3431 0 
L 469 0 
L 469 531 
Q 828 903 1448 1529 
Q 2069 2156 2228 2338 
Q 2531 2678 2651 2914 
Q 2772 3150 2772 3378 
Q 2772 3750 2511 3984 
Q 2250 4219 1831 4219 
Q 1534 4219 1204 4116 
Q 875 4013 500 3803 
L 500 4441 
Q 881 4594 1212 4672 
Q 1544 4750 1819 4750 
Q 2544 4750 2975 4387 
Q 3406 4025 3406 3419 
Q 3406 3131 3298 2873 
Q 3191 2616 2906 2266 
Q 2828 2175 2409 1742 
Q 1991 1309 1228 531 
z
" transform="scale(0.015625)"/>
       </defs>
       <use xlink:href="#DejaVuSans-32"/>
       <use xlink:href="#DejaVuSans-30" x="63.623047"/>
       <use xlink:href="#DejaVuSans-30" x="127.246094"/>
      </g>
     </g>
    </g>
    <g id="xtick_6">
     <g id="line2d_11">
      <path d="M 345.283016 307.584 
L 345.283016 41.472 
" clip-path="url(#pcabe48953f)" style="fill: none; stroke: #b0b0b0; stroke-width: 0.8; stroke-linecap: square"/>
     </g>
     <g id="line2d_12">
      <g>
       <use xlink:href="#m3700e857a5" x="345.283016" y="307.584" style="stroke: #000000; stroke-width: 0.8"/>
      </g>
     </g>
     <g id="text_6">
      <!-- 250 -->
      <g transform="translate(335.739266 322.182437)scale(0.1 -0.1)">
       <use xlink:href="#DejaVuSans-32"/>
       <use xlink:href="#DejaVuSans-35" x="63.623047"/>
       <use xlink:href="#DejaVuSans-30" x="127.246094"/>
      </g>
     </g>
    </g>
    <g id="xtick_7">
     <g id="line2d_13">
      <path d="M 399.573074 307.584 
L 399.573074 41.472 
" clip-path="url(#pcabe48953f)" style="fill: none; stroke: #b0b0b0; stroke-width: 0.8; stroke-linecap: square"/>
     </g>
     <g id="line2d_14">
      <g>
       <use xlink:href="#m3700e857a5" x="399.573074" y="307.584" style="stroke: #000000; stroke-width: 0.8"/>
      </g>
     </g>
     <g id="text_7">
      <!-- 300 -->
      <g transform="translate(390.029324 322.182437)scale(0.1 -0.1)">
       <defs>
        <path id="DejaVuSans-33" d="M 2597 2516 
Q 3050 2419 3304 2112 
Q 3559 1806 3559 1356 
Q 3559 666 3084 287 
Q 2609 -91 1734 -91 
Q 1441 -91 1130 -33 
Q 819 25 488 141 
L 488 750 
Q 750 597 1062 519 
Q 1375 441 1716 441 
Q 2309 441 2620 675 
Q 2931 909 2931 1356 
Q 2931 1769 2642 2001 
Q 2353 2234 1838 2234 
L 1294 2234 
L 1294 2753 
L 1863 2753 
Q 2328 2753 2575 2939 
Q 2822 3125 2822 3475 
Q 2822 3834 2567 4026 
Q 2313 4219 1838 4219 
Q 1578 4219 1281 4162 
Q 984 4106 628 3988 
L 628 4550 
Q 988 4650 1302 4700 
Q 1616 4750 1894 4750 
Q 2613 4750 3031 4423 
Q 3450 4097 3450 3541 
Q 3450 3153 3228 2886 
Q 3006 2619 2597 2516 
z
" transform="scale(0.015625)"/>
       </defs>
       <use xlink:href="#DejaVuSans-33"/>
       <use xlink:href="#DejaVuSans-30" x="63.623047"/>
       <use xlink:href="#DejaVuSans-30" x="127.246094"/>
      </g>
     </g>
    </g>
    <g id="text_8">
     <!-- Generations -->
     <g transform="translate(205.662344 335.860562)scale(0.1 -0.1)">
      <defs>
       <path id="DejaVuSans-47" d="M 3809 666 
L 3809 1919 
L 2778 1919 
L 2778 2438 
L 4434 2438 
L 4434 434 
Q 4069 175 3628 42 
Q 3188 -91 2688 -91 
Q 1594 -91 976 548 
Q 359 1188 359 2328 
Q 359 3472 976 4111 
Q 1594 4750 2688 4750 
Q 3144 4750 3555 4637 
Q 3966 4525 4313 4306 
L 4313 3634 
Q 3963 3931 3569 4081 
Q 3175 4231 2741 4231 
Q 1884 4231 1454 3753 
Q 1025 3275 1025 2328 
Q 1025 1384 1454 906 
Q 1884 428 2741 428 
Q 3075 428 3337 486 
Q 3600 544 3809 666 
z
" transform="scale(0.015625)"/>
       <path id="DejaVuSans-65" d="M 3597 1894 
L 3597 1613 
L 953 1613 
Q 991 1019 1311 708 
Q 1631 397 2203 397 
Q 2534 397 2845 478 
Q 3156 559 3463 722 
L 3463 178 
Q 3153 47 2828 -22 
Q 2503 -91 2169 -91 
Q 1331 -91 842 396 
Q 353 884 353 1716 
Q 353 2575 817 3079 
Q 1281 3584 2069 3584 
Q 2775 3584 3186 3129 
Q 3597 2675 3597 1894 
z
M 3022 2063 
Q 3016 2534 2758 2815 
Q 2500 3097 2075 3097 
Q 1594 3097 1305 2825 
Q 1016 2553 972 2059 
L 3022 2063 
z
" transform="scale(0.015625)"/>
       <path id="DejaVuSans-6e" d="M 3513 2113 
L 3513 0 
L 2938 0 
L 2938 2094 
Q 2938 2591 2744 2837 
Q 2550 3084 2163 3084 
Q 1697 3084 1428 2787 
Q 1159 2491 1159 1978 
L 1159 0 
L 581 0 
L 581 3500 
L 1159 3500 
L 1159 2956 
Q 1366 3272 1645 3428 
Q 1925 3584 2291 3584 
Q 2894 3584 3203 3211 
Q 3513 2838 3513 2113 
z
" transform="scale(0.015625)"/>
       <path id="DejaVuSans-72" d="M 2631 2963 
Q 2534 3019 2420 3045 
Q 2306 3072 2169 3072 
Q 1681 3072 1420 2755 
Q 1159 2438 1159 1844 
L 1159 0 
L 581 0 
L 581 3500 
L 1159 3500 
L 1159 2956 
Q 1341 3275 1631 3429 
Q 1922 3584 2338 3584 
Q 2397 3584 2469 3576 
Q 2541 3569 2628 3553 
L 2631 2963 
z
" transform="scale(0.015625)"/>
       <path id="DejaVuSans-61" d="M 2194 1759 
Q 1497 1759 1228 1600 
Q 959 1441 959 1056 
Q 959 750 1161 570 
Q 1363 391 1709 391 
Q 2188 391 2477 730 
Q 2766 1069 2766 1631 
L 2766 1759 
L 2194 1759 
z
M 3341 1997 
L 3341 0 
L 2766 0 
L 2766 531 
Q 2569 213 2275 61 
Q 1981 -91 1556 -91 
Q 1019 -91 701 211 
Q 384 513 384 1019 
Q 384 1609 779 1909 
Q 1175 2209 1959 2209 
L 2766 2209 
L 2766 2266 
Q 2766 2663 2505 2880 
Q 2244 3097 1772 3097 
Q 1472 3097 1187 3025 
Q 903 2953 641 2809 
L 641 3341 
Q 956 3463 1253 3523 
Q 1550 3584 1831 3584 
Q 2591 3584 2966 3190 
Q 3341 2797 3341 1997 
z
" transform="scale(0.015625)"/>
       <path id="DejaVuSans-74" d="M 1172 4494 
L 1172 3500 
L 2356 3500 
L 2356 3053 
L 1172 3053 
L 1172 1153 
Q 1172 725 1289 603 
Q 1406 481 1766 481 
L 2356 481 
L 2356 0 
L 1766 0 
Q 1100 0 847 248 
Q 594 497 594 1153 
L 594 3053 
L 172 3053 
L 172 3500 
L 594 3500 
L 594 4494 
L 1172 4494 
z
" transform="scale(0.015625)"/>
       <path id="DejaVuSans-69" d="M 603 3500 
L 1178 3500 
L 1178 0 
L 603 0 
L 603 3500 
z
M 603 4863 
L 1178 4863 
L 1178 4134 
L 603 4134 
L 603 4863 
z
" transform="scale(0.015625)"/>
       <path id="DejaVuSans-6f" d="M 1959 3097 
Q 1497 3097 1228 2736 
Q 959 2375 959 1747 
Q 959 1119 1226 758 
Q 1494 397 1959 397 
Q 2419 397 2687 759 
Q 2956 1122 2956 1747 
Q 2956 2369 2687 2733 
Q 2419 3097 1959 3097 
z
M 1959 3584 
Q 2709 3584 3137 3096 
Q 3566 2609 3566 1747 
Q 3566 888 3137 398 
Q 2709 -91 1959 -91 
Q 1206 -91 779 398 
Q 353 888 353 1747 
Q 353 2609 779 3096 
Q 1206 3584 1959 3584 
z
" transform="scale(0.015625)"/>
       <path id="DejaVuSans-73" d="M 2834 3397 
L 2834 2853 
Q 2591 2978 2328 3040 
Q 2066 3103 1784 3103 
Q 1356 3103 1142 2972 
Q 928 2841 928 2578 
Q 928 2378 1081 2264 
Q 1234 2150 1697 2047 
L 1894 2003 
Q 2506 1872 2764 1633 
Q 3022 1394 3022 966 
Q 3022 478 2636 193 
Q 2250 -91 1575 -91 
Q 1294 -91 989 -36 
Q 684 19 347 128 
L 347 722 
Q 666 556 975 473 
Q 1284 391 1588 391 
Q 1994 391 2212 530 
Q 2431 669 2431 922 
Q 2431 1156 2273 1281 
Q 2116 1406 1581 1522 
L 1381 1569 
Q 847 1681 609 1914 
Q 372 2147 372 2553 
Q 372 3047 722 3315 
Q 1072 3584 1716 3584 
Q 2034 3584 2315 3537 
Q 2597 3491 2834 3397 
z
" transform="scale(0.015625)"/>
      </defs>
      <use xlink:href="#DejaVuSans-47"/>
      <use xlink:href="#DejaVuSans-65" x="77.490234"/>
      <use xlink:href="#DejaVuSans-6e" x="139.013672"/>
      <use xlink:href="#DejaVuSans-65" x="202.392578"/>
      <use xlink:href="#DejaVuSans-72" x="263.916016"/>
      <use xlink:href="#DejaVuSans-61" x="305.029297"/>
      <use xlink:href="#DejaVuSans-74" x="366.308594"/>
      <use xlink:href="#DejaVuSans-69" x="405.517578"/>
      <use xlink:href="#DejaVuSans-6f" x="433.300781"/>
      <use xlink:href="#DejaVuSans-6e" x="494.482422"/>
      <use xlink:href="#DejaVuSans-73" x="557.861328"/>
     </g>
    </g>
   </g>
   <g id="matplotlib.axis_2">
    <g id="ytick_1">
     <g id="line2d_15">
      <path d="M 57.6 286.010431 
L 414.72 286.010431 
" clip-path="url(#pcabe48953f)" style="fill: none; stroke: #b0b0b0; stroke-width: 0.8; stroke-linecap: square"/>
     </g>
     <g id="line2d_16">
      <defs>
       <path id="m8cbb77e9d2" d="M 0 0 
L -3.5 0 
" style="stroke: #000000; stroke-width: 0.8"/>
      </defs>
      <g>
       <use xlink:href="#m8cbb77e9d2" x="57.6" y="286.010431" style="stroke: #000000; stroke-width: 0.8"/>
      </g>
     </g>
     <g id="text_9">
      <!-- 0 -->
      <g transform="translate(44.2375 289.80965)scale(0.1 -0.1)">
       <use xlink:href="#DejaVuSans-30"/>
      </g>
     </g>
    </g>
    <g id="ytick_2">
     <g id="line2d_17">
      <path d="M 57.6 256.399931 
L 414.72 256.399931 
" clip-path="url(#pcabe48953f)" style="fill: none; stroke: #b0b0b0; stroke-width: 0.8; stroke-linecap: square"/>
     </g>
     <g id="line2d_18">
      <g>
       <use xlink:href="#m8cbb77e9d2" x="57.6" y="256.399931" style="stroke: #000000; stroke-width: 0.8"/>
      </g>
     </g>
     <g id="text_10">
      <!-- 20 -->
      <g transform="translate(37.875 260.199149)scale(0.1 -0.1)">
       <use xlink:href="#DejaVuSans-32"/>
       <use xlink:href="#DejaVuSans-30" x="63.623047"/>
      </g>
     </g>
    </g>
    <g id="ytick_3">
     <g id="line2d_19">
      <path d="M 57.6 226.78943 
L 414.72 226.78943 
" clip-path="url(#pcabe48953f)" style="fill: none; stroke: #b0b0b0; stroke-width: 0.8; stroke-linecap: square"/>
     </g>
     <g id="line2d_20">
      <g>
       <use xlink:href="#m8cbb77e9d2" x="57.6" y="226.78943" style="stroke: #000000; stroke-width: 0.8"/>
      </g>
     </g>
     <g id="text_11">
      <!-- 40 -->
      <g transform="translate(37.875 230.588648)scale(0.1 -0.1)">
       <defs>
        <path id="DejaVuSans-34" d="M 2419 4116 
L 825 1625 
L 2419 1625 
L 2419 4116 
z
M 2253 4666 
L 3047 4666 
L 3047 1625 
L 3713 1625 
L 3713 1100 
L 3047 1100 
L 3047 0 
L 2419 0 
L 2419 1100 
L 313 1100 
L 313 1709 
L 2253 4666 
z
" transform="scale(0.015625)"/>
       </defs>
       <use xlink:href="#DejaVuSans-34"/>
       <use xlink:href="#DejaVuSans-30" x="63.623047"/>
      </g>
     </g>
    </g>
    <g id="ytick_4">
     <g id="line2d_21">
      <path d="M 57.6 197.178929 
L 414.72 197.178929 
" clip-path="url(#pcabe48953f)" style="fill: none; stroke: #b0b0b0; stroke-width: 0.8; stroke-linecap: square"/>
     </g>
     <g id="line2d_22">
      <g>
       <use xlink:href="#m8cbb77e9d2" x="57.6" y="197.178929" style="stroke: #000000; stroke-width: 0.8"/>
      </g>
     </g>
     <g id="text_12">
      <!-- 60 -->
      <g transform="translate(37.875 200.978148)scale(0.1 -0.1)">
       <defs>
        <path id="DejaVuSans-36" d="M 2113 2584 
Q 1688 2584 1439 2293 
Q 1191 2003 1191 1497 
Q 1191 994 1439 701 
Q 1688 409 2113 409 
Q 2538 409 2786 701 
Q 3034 994 3034 1497 
Q 3034 2003 2786 2293 
Q 2538 2584 2113 2584 
z
M 3366 4563 
L 3366 3988 
Q 3128 4100 2886 4159 
Q 2644 4219 2406 4219 
Q 1781 4219 1451 3797 
Q 1122 3375 1075 2522 
Q 1259 2794 1537 2939 
Q 1816 3084 2150 3084 
Q 2853 3084 3261 2657 
Q 3669 2231 3669 1497 
Q 3669 778 3244 343 
Q 2819 -91 2113 -91 
Q 1303 -91 875 529 
Q 447 1150 447 2328 
Q 447 3434 972 4092 
Q 1497 4750 2381 4750 
Q 2619 4750 2861 4703 
Q 3103 4656 3366 4563 
z
" transform="scale(0.015625)"/>
       </defs>
       <use xlink:href="#DejaVuSans-36"/>
       <use xlink:href="#DejaVuSans-30" x="63.623047"/>
      </g>
     </g>
    </g>
    <g id="ytick_5">
     <g id="line2d_23">
      <path d="M 57.6 167.568428 
L 414.72 167.568428 
" clip-path="url(#pcabe48953f)" style="fill: none; stroke: #b0b0b0; stroke-width: 0.8; stroke-linecap: square"/>
     </g>
     <g id="line2d_24">
      <g>
       <use xlink:href="#m8cbb77e9d2" x="57.6" y="167.568428" style="stroke: #000000; stroke-width: 0.8"/>
      </g>
     </g>
     <g id="text_13">
      <!-- 80 -->
      <g transform="translate(37.875 171.367647)scale(0.1 -0.1)">
       <defs>
        <path id="DejaVuSans-38" d="M 2034 2216 
Q 1584 2216 1326 1975 
Q 1069 1734 1069 1313 
Q 1069 891 1326 650 
Q 1584 409 2034 409 
Q 2484 409 2743 651 
Q 3003 894 3003 1313 
Q 3003 1734 2745 1975 
Q 2488 2216 2034 2216 
z
M 1403 2484 
Q 997 2584 770 2862 
Q 544 3141 544 3541 
Q 544 4100 942 4425 
Q 1341 4750 2034 4750 
Q 2731 4750 3128 4425 
Q 3525 4100 3525 3541 
Q 3525 3141 3298 2862 
Q 3072 2584 2669 2484 
Q 3125 2378 3379 2068 
Q 3634 1759 3634 1313 
Q 3634 634 3220 271 
Q 2806 -91 2034 -91 
Q 1263 -91 848 271 
Q 434 634 434 1313 
Q 434 1759 690 2068 
Q 947 2378 1403 2484 
z
M 1172 3481 
Q 1172 3119 1398 2916 
Q 1625 2713 2034 2713 
Q 2441 2713 2670 2916 
Q 2900 3119 2900 3481 
Q 2900 3844 2670 4047 
Q 2441 4250 2034 4250 
Q 1625 4250 1398 4047 
Q 1172 3844 1172 3481 
z
" transform="scale(0.015625)"/>
       </defs>
       <use xlink:href="#DejaVuSans-38"/>
       <use xlink:href="#DejaVuSans-30" x="63.623047"/>
      </g>
     </g>
    </g>
    <g id="ytick_6">
     <g id="line2d_25">
      <path d="M 57.6 137.957927 
L 414.72 137.957927 
" clip-path="url(#pcabe48953f)" style="fill: none; stroke: #b0b0b0; stroke-width: 0.8; stroke-linecap: square"/>
     </g>
     <g id="line2d_26">
      <g>
       <use xlink:href="#m8cbb77e9d2" x="57.6" y="137.957927" style="stroke: #000000; stroke-width: 0.8"/>
      </g>
     </g>
     <g id="text_14">
      <!-- 100 -->
      <g transform="translate(31.5125 141.757146)scale(0.1 -0.1)">
       <use xlink:href="#DejaVuSans-31"/>
       <use xlink:href="#DejaVuSans-30" x="63.623047"/>
       <use xlink:href="#DejaVuSans-30" x="127.246094"/>
      </g>
     </g>
    </g>
    <g id="ytick_7">
     <g id="line2d_27">
      <path d="M 57.6 108.347426 
L 414.72 108.347426 
" clip-path="url(#pcabe48953f)" style="fill: none; stroke: #b0b0b0; stroke-width: 0.8; stroke-linecap: square"/>
     </g>
     <g id="line2d_28">
      <g>
       <use xlink:href="#m8cbb77e9d2" x="57.6" y="108.347426" style="stroke: #000000; stroke-width: 0.8"/>
      </g>
     </g>
     <g id="text_15">
      <!-- 120 -->
      <g transform="translate(31.5125 112.146645)scale(0.1 -0.1)">
       <use xlink:href="#DejaVuSans-31"/>
       <use xlink:href="#DejaVuSans-32" x="63.623047"/>
       <use xlink:href="#DejaVuSans-30" x="127.246094"/>
      </g>
     </g>
    </g>
    <g id="ytick_8">
     <g id="line2d_29">
      <path d="M 57.6 78.736926 
L 414.72 78.736926 
" clip-path="url(#pcabe48953f)" style="fill: none; stroke: #b0b0b0; stroke-width: 0.8; stroke-linecap: square"/>
     </g>
     <g id="line2d_30">
      <g>
       <use xlink:href="#m8cbb77e9d2" x="57.6" y="78.736926" style="stroke: #000000; stroke-width: 0.8"/>
      </g>
     </g>
     <g id="text_16">
      <!-- 140 -->
      <g transform="translate(31.5125 82.536144)scale(0.1 -0.1)">
       <use xlink:href="#DejaVuSans-31"/>
       <use xlink:href="#DejaVuSans-34" x="63.623047"/>
       <use xlink:href="#DejaVuSans-30" x="127.246094"/>
      </g>
     </g>
    </g>
    <g id="ytick_9">
     <g id="line2d_31">
      <path d="M 57.6 49.126425 
L 414.72 49.126425 
" clip-path="url(#pcabe48953f)" style="fill: none; stroke: #b0b0b0; stroke-width: 0.8; stroke-linecap: square"/>
     </g>
     <g id="line2d_32">
      <g>
       <use xlink:href="#m8cbb77e9d2" x="57.6" y="49.126425" style="stroke: #000000; stroke-width: 0.8"/>
      </g>
     </g>
     <g id="text_17">
      <!-- 160 -->
      <g transform="translate(31.5125 52.925644)scale(0.1 -0.1)">
       <use xlink:href="#DejaVuSans-31"/>
       <use xlink:href="#DejaVuSans-36" x="63.623047"/>
       <use xlink:href="#DejaVuSans-30" x="127.246094"/>
      </g>
     </g>
    </g>
    <g id="text_18">
     <!-- Fitness -->
     <g transform="translate(25.432812 191.845187)rotate(-90)scale(0.1 -0.1)">
      <defs>
       <path id="DejaVuSans-46" d="M 628 4666 
L 3309 4666 
L 3309 4134 
L 1259 4134 
L 1259 2759 
L 3109 2759 
L 3109 2228 
L 1259 2228 
L 1259 0 
L 628 0 
L 628 4666 
z
" transform="scale(0.015625)"/>
      </defs>
      <use xlink:href="#DejaVuSans-46"/>
      <use xlink:href="#DejaVuSans-69" x="50.269531"/>
      <use xlink:href="#DejaVuSans-74" x="78.052734"/>
      <use xlink:href="#DejaVuSans-6e" x="117.261719"/>
      <use xlink:href="#DejaVuSans-65" x="180.640625"/>
      <use xlink:href="#DejaVuSans-73" x="242.164062"/>
      <use xlink:href="#DejaVuSans-73" x="294.263672"/>
     </g>
    </g>
   </g>
   <g id="line2d_33">
    <path d="M 73.832727 274.10701 
L 74.918528 270.504399 
L 76.00433 271.264402 
L 77.090131 267.513739 
L 78.175932 269.122576 
L 79.261733 266.812957 
L 80.347534 265.529835 
L 81.433335 268.303352 
L 82.519137 265.204119 
L 83.604938 266.043084 
L 84.690739 269.083095 
L 85.77654 265.332432 
L 86.862341 266.477371 
L 87.948142 263.003072 
L 89.033943 264.64152 
L 90.119745 263.743335 
L 91.205546 260.456569 
L 92.291347 258.048248 
L 93.377148 256.617074 
L 94.462949 257.258635 
L 95.54875 261.848263 
L 96.634552 256.281489 
L 97.720353 252.116278 
L 98.806154 253.340179 
L 99.891955 251.208223 
L 100.977756 255.353693 
L 102.063557 249.382242 
L 103.149358 252.501215 
L 105.320961 248.849253 
L 106.406762 247.536521 
L 107.492563 250.47783 
L 108.578364 249.431593 
L 109.664165 246.92457 
L 110.749967 246.085606 
L 112.921569 247.743794 
L 114.00737 249.796789 
L 115.093171 247.812885 
L 116.178972 248.326134 
L 117.264773 245.671059 
L 118.350575 244.466899 
L 119.436376 244.338587 
L 120.522177 246.776518 
L 121.607978 245.838852 
L 122.693779 246.095874 
L 123.77958 243.578584 
L 124.865382 244.042482 
L 125.951183 245.631578 
L 127.036984 240.39052 
L 128.122785 246.529764 
L 129.208586 246.411322 
L 130.294387 240.193116 
L 131.380189 246.413839 
L 132.46599 244.220145 
L 133.551791 243.0654 
L 134.637592 244.792614 
L 135.723393 240.716235 
L 136.809194 242.555551 
L 137.894995 241.731947 
L 138.980797 246.095084 
L 140.066598 244.251781 
L 141.152399 245.29109 
L 142.2382 247.51678 
L 143.324001 242.700139 
L 144.409802 243.104816 
L 145.495604 244.378067 
L 146.581405 244.802484 
L 147.667206 242.761452 
L 148.753007 241.357796 
L 149.838808 244.832095 
L 150.924609 243.637805 
L 153.096212 246.085606 
L 154.182013 246.746907 
L 155.267814 246.134957 
L 156.353615 241.663771 
L 157.439416 247.990548 
L 158.525217 246.374093 
L 159.611019 243.36144 
L 160.69682 243.840309 
L 161.782621 243.697026 
L 162.868422 246.830444 
L 163.954223 249.036786 
L 165.040024 243.33183 
L 166.125825 241.910525 
L 167.211627 243.894429 
L 168.297428 244.327193 
L 169.383229 241.969746 
L 170.46903 241.12405 
L 171.554831 240.893898 
L 172.640632 240.884028 
L 173.726434 246.174438 
L 174.812235 239.984982 
L 175.898036 242.344813 
L 176.983837 248.365615 
L 178.069638 242.081564 
L 179.155439 237.745315 
L 180.24124 240.163179 
L 181.327042 241.234552 
L 182.412843 240.844547 
L 183.498644 241.59468 
L 184.584445 234.682295 
L 185.670246 238.929735 
L 186.756047 244.53599 
L 187.841849 238.006123 
L 188.92765 243.598324 
L 190.013451 239.117268 
L 191.099252 242.897542 
L 192.185053 243.272609 
L 193.270854 240.998496 
L 194.356656 240.243328 
L 195.442457 246.815998 
L 196.528258 239.104261 
L 197.614059 238.984281 
L 198.69986 242.300626 
L 199.785661 240.874158 
L 200.871462 241.930266 
L 201.957264 241.555199 
L 203.043065 238.981404 
L 204.128866 241.187287 
L 205.214667 237.42947 
L 206.300468 238.505318 
L 207.386269 243.440401 
L 208.472071 241.663771 
L 209.557872 247.408208 
L 210.643673 243.369349 
L 211.729474 241.516242 
L 212.815275 236.868766 
L 213.901076 244.674172 
L 214.986877 242.463255 
L 216.072679 247.033142 
L 217.15848 241.762473 
L 218.244281 242.653599 
L 219.330082 239.393633 
L 220.415883 237.810027 
L 221.501684 239.364022 
L 222.587486 240.42013 
L 223.673287 233.570234 
L 224.759088 231.52711 
L 225.844889 239.344282 
L 226.93069 239.180133 
L 228.016491 237.044533 
L 229.102292 234.586862 
L 230.188094 239.265321 
L 231.273895 237.143235 
L 232.359696 238.505318 
L 233.445497 236.309892 
L 234.531298 241.202488 
L 235.617099 235.179072 
L 236.702901 238.908165 
L 237.788702 241.663771 
L 238.874503 235.435696 
L 239.960304 231.477759 
L 241.046105 238.288174 
L 243.217708 235.388241 
L 244.303509 235.319607 
L 245.38931 232.198281 
L 246.475111 232.32401 
L 247.560912 237.063677 
L 248.646713 235.006841 
L 249.732514 235.016777 
L 250.818316 233.935431 
L 251.904117 239.074846 
L 252.989918 232.309533 
L 254.075719 236.185829 
L 255.16152 237.626873 
L 256.247321 236.914631 
L 257.333123 234.241737 
L 258.418924 236.84713 
L 259.504725 236.521414 
L 260.590526 236.566857 
L 261.676327 234.774395 
L 262.762128 240.024727 
L 263.847929 235.850243 
L 264.933731 234.728621 
L 266.019532 238.998826 
L 267.105333 233.935431 
L 268.191134 238.265983 
L 269.276935 240.341169 
L 270.362736 237.380119 
L 271.448538 235.376475 
L 272.534339 239.90549 
L 273.62014 240.40039 
L 274.705941 234.778303 
L 275.791742 242.285592 
L 276.877543 236.914631 
L 277.963344 237.023932 
L 279.049146 237.913108 
L 280.134947 235.066459 
L 281.220748 237.84335 
L 282.306549 234.715174 
L 283.39235 237.378615 
L 284.478151 238.672591 
L 285.563953 236.456964 
L 286.649754 237.604126 
L 287.735555 240.133765 
L 288.821356 241.259094 
L 289.907157 238.206364 
L 290.992958 237.035447 
L 292.07876 231.338148 
L 293.164561 237.44921 
L 294.250362 236.568687 
L 295.336163 233.250794 
L 296.421964 238.396746 
L 297.507765 237.848654 
L 298.593566 241.173074 
L 300.765169 238.457144 
L 301.85097 236.968039 
L 302.936771 239.301318 
L 304.022572 242.241797 
L 305.108373 239.176489 
L 306.194175 237.46895 
L 307.279976 243.462725 
L 308.365777 244.506379 
L 310.537379 239.458352 
L 311.62318 240.829577 
L 312.708981 241.405888 
L 313.794783 243.015587 
L 314.880584 237.322024 
L 315.966385 235.662644 
L 317.052186 238.05129 
L 318.137987 237.389989 
L 319.223788 235.486289 
L 320.30959 233.965041 
L 321.395391 238.554669 
L 322.481192 236.689207 
L 323.566993 236.537048 
L 324.652794 239.985843 
L 325.738595 237.61018 
L 326.824396 236.28453 
L 327.910198 238.770897 
L 330.0818 235.623878 
L 331.167601 233.500494 
L 332.253402 237.133365 
L 333.339203 241.302471 
L 334.425005 232.986064 
L 335.510806 232.859582 
L 336.596607 236.189273 
L 337.682408 235.662644 
L 338.768209 235.554922 
L 339.85401 238.192414 
L 340.939811 233.963518 
L 342.025613 233.784662 
L 343.111414 230.91516 
L 344.197215 229.859052 
L 345.283016 234.655953 
L 346.368817 238.100641 
L 347.454618 237.004059 
L 348.54042 232.338947 
L 349.626221 233.343221 
L 350.712022 235.731409 
L 351.797823 233.140103 
L 352.883624 236.333881 
L 353.969425 237.025643 
L 355.055227 234.496004 
L 356.141028 234.839172 
L 357.226829 235.731801 
L 358.31263 237.699608 
L 359.398431 233.698547 
L 360.484232 235.049201 
L 361.570033 237.922978 
L 362.655835 232.760554 
L 363.741636 234.455043 
L 364.827437 234.201925 
L 365.913238 233.659066 
L 366.999039 237.143169 
L 368.08484 232.299728 
L 369.170642 231.951527 
L 370.256443 237.034663 
L 371.342244 233.079177 
L 372.428045 233.649196 
L 373.513846 236.0601 
L 374.599647 226.213118 
L 375.685448 231.349447 
L 376.77125 232.858602 
L 377.857051 233.593962 
L 378.942852 237.888465 
L 380.028653 238.513587 
L 381.114454 231.320433 
L 382.200255 230.095936 
L 383.286057 232.662179 
L 384.371858 228.743723 
L 385.457659 227.825797 
L 386.54346 229.819113 
L 387.629261 233.613572 
L 388.715062 227.416937 
L 389.800863 223.700917 
L 390.886665 228.289828 
L 391.972466 233.501143 
L 393.058267 227.593423 
L 394.144068 233.927325 
L 395.229869 222.989415 
L 396.31567 233.496506 
L 397.401472 228.846267 
L 398.487273 233.861938 
L 398.487273 233.861938 
" clip-path="url(#pcabe48953f)" style="fill: none; stroke: #0000ff; stroke-width: 1.5; stroke-linecap: square"/>
   </g>
   <g id="line2d_34">
    <path d="M 73.832727 291.964278 
L 74.918528 288.318913 
L 76.00433 289.306473 
L 77.090131 286.783894 
L 78.175932 291.772897 
L 79.261733 295.488 
L 80.347534 292.218965 
L 81.433335 292.283519 
L 82.519137 290.786396 
L 83.604938 290.917512 
L 84.690739 291.806408 
L 85.77654 292.43341 
L 86.862341 292.090994 
L 87.948142 293.054755 
L 89.033943 290.426139 
L 90.119745 290.635626 
L 91.205546 285.680261 
L 92.291347 289.131065 
L 93.377148 286.696829 
L 94.462949 285.429241 
L 95.54875 290.039637 
L 96.634552 289.116459 
L 97.720353 282.344692 
L 98.806154 283.830209 
L 99.891955 282.726718 
L 100.977756 285.363 
L 102.063557 275.769075 
L 104.23516 278.60169 
L 105.320961 276.680367 
L 106.406762 274.154141 
L 107.492563 279.454798 
L 108.578364 276.175491 
L 109.664165 275.978593 
L 110.749967 271.75492 
L 111.835768 273.601011 
L 112.921569 272.525228 
L 114.00737 275.711549 
L 115.093171 272.882332 
L 116.178972 272.58482 
L 117.264773 271.180201 
L 118.350575 272.314537 
L 119.436376 270.486736 
L 120.522177 273.564204 
L 121.607978 272.251832 
L 122.693779 279.047702 
L 123.77958 273.102015 
L 124.865382 273.686022 
L 125.951183 274.407083 
L 127.036984 269.034445 
L 128.122785 273.132931 
L 129.208586 275.137672 
L 130.294387 271.245477 
L 131.380189 278.808381 
L 132.46599 274.747765 
L 133.551791 280.080094 
L 134.637592 280.009646 
L 135.723393 273.993967 
L 136.809194 273.497606 
L 137.894995 271.015789 
L 138.980797 276.344284 
L 140.066598 276.261538 
L 141.152399 275.881009 
L 142.2382 280.229748 
L 143.324001 276.649146 
L 144.409802 276.697826 
L 145.495604 276.616782 
L 146.581405 276.788412 
L 147.667206 274.422059 
L 148.753007 274.128421 
L 149.838808 276.525654 
L 150.924609 275.922608 
L 152.01041 279.603607 
L 153.096212 279.045351 
L 154.182013 280.682367 
L 155.267814 278.828609 
L 156.353615 275.941827 
L 157.439416 282.139609 
L 158.525217 280.768602 
L 159.611019 277.04751 
L 160.69682 278.973458 
L 161.782621 276.78503 
L 162.868422 277.544867 
L 163.954223 282.634788 
L 165.040024 279.171443 
L 166.125825 277.206104 
L 167.211627 277.346667 
L 168.297428 281.947902 
L 169.383229 275.621742 
L 170.46903 278.11908 
L 171.554831 274.479611 
L 172.640632 280.105637 
L 173.726434 280.752584 
L 174.812235 274.524102 
L 175.898036 278.394608 
L 176.983837 284.331241 
L 178.069638 278.205611 
L 179.155439 277.103155 
L 180.24124 274.43533 
L 181.327042 279.198067 
L 182.412843 278.259672 
L 183.498644 276.798688 
L 184.584445 270.926672 
L 185.670246 270.23295 
L 186.756047 276.098148 
L 187.841849 271.784241 
L 188.92765 276.898022 
L 190.013451 270.563702 
L 191.099252 275.473095 
L 192.185053 274.919233 
L 193.270854 269.151169 
L 194.356656 273.701134 
L 195.442457 278.977463 
L 196.528258 272.731168 
L 197.614059 273.958407 
L 198.69986 273.992499 
L 199.785661 273.051994 
L 200.871462 277.658149 
L 201.957264 277.100936 
L 203.043065 274.889763 
L 204.128866 274.761814 
L 205.214667 271.460248 
L 206.300468 272.37104 
L 207.386269 275.291968 
L 208.472071 274.787559 
L 209.557872 279.135275 
L 210.643673 276.509526 
L 212.815275 272.385314 
L 213.901076 278.56387 
L 214.986877 276.536003 
L 216.072679 281.610929 
L 217.15848 271.200502 
L 218.244281 273.759504 
L 219.330082 268.216246 
L 220.415883 266.854596 
L 221.501684 269.093588 
L 222.587486 273.365631 
L 223.673287 267.244839 
L 224.759088 266.732074 
L 225.844889 271.264951 
L 226.93069 269.838444 
L 228.016491 270.644775 
L 229.102292 263.256426 
L 230.188094 268.577895 
L 231.273895 266.338496 
L 232.359696 272.344277 
L 233.445497 269.81317 
L 234.531298 272.71055 
L 235.617099 269.214693 
L 236.702901 272.605378 
L 237.788702 273.968333 
L 238.874503 266.273333 
L 239.960304 267.786326 
L 241.046105 272.424864 
L 243.217708 264.52367 
L 244.303509 267.285522 
L 245.38931 260.504323 
L 247.560912 266.470391 
L 248.646713 264.8097 
L 249.732514 264.018061 
L 250.818316 262.58464 
L 251.904117 270.235965 
L 252.989918 261.17779 
L 254.075719 269.138732 
L 255.16152 271.02393 
L 256.247321 267.205932 
L 257.333123 266.496226 
L 258.418924 268.977956 
L 259.504725 267.612603 
L 260.590526 266.941455 
L 261.676327 264.580614 
L 262.762128 272.076443 
L 263.847929 261.970174 
L 264.933731 262.360352 
L 266.019532 266.408372 
L 267.105333 261.311267 
L 268.191134 266.893816 
L 269.276935 268.441382 
L 271.448538 264.623497 
L 272.534339 271.097854 
L 273.62014 269.334307 
L 274.705941 263.711248 
L 275.791742 275.85693 
L 276.877543 267.954308 
L 277.963344 267.225675 
L 279.049146 268.871655 
L 280.134947 264.33165 
L 281.220748 269.552461 
L 282.306549 267.350431 
L 283.39235 272.714884 
L 284.478151 276.322686 
L 285.563953 271.796543 
L 286.649754 270.906838 
L 287.735555 275.488612 
L 288.821356 275.810098 
L 289.907157 273.961134 
L 290.992958 271.605381 
L 292.07876 264.961966 
L 293.164561 273.22077 
L 294.250362 269.945441 
L 295.336163 267.91925 
L 296.421964 274.390288 
L 297.507765 271.182069 
L 298.593566 276.2697 
L 299.679368 276.522241 
L 300.765169 274.423786 
L 301.85097 271.073143 
L 302.936771 275.369334 
L 304.022572 277.700203 
L 305.108373 273.848357 
L 306.194175 273.824242 
L 307.279976 275.768702 
L 308.365777 274.681217 
L 309.451578 272.910952 
L 310.537379 272.196311 
L 311.62318 273.577071 
L 312.708981 275.738394 
L 313.794783 278.209514 
L 314.880584 271.359421 
L 315.966385 269.639464 
L 317.052186 271.766066 
L 318.137987 272.102152 
L 319.223788 266.343362 
L 320.30959 271.123068 
L 321.395391 273.990817 
L 322.481192 273.328991 
L 323.566993 272.099487 
L 324.652794 274.444433 
L 325.738595 268.859972 
L 326.824396 268.769012 
L 327.910198 277.189941 
L 330.0818 270.372013 
L 331.167601 271.02512 
L 332.253402 276.444761 
L 333.339203 277.879799 
L 334.425005 274.017136 
L 335.510806 272.808435 
L 336.596607 274.348574 
L 337.682408 275.662571 
L 338.768209 275.513489 
L 339.85401 276.600667 
L 340.939811 274.133449 
L 342.025613 272.597197 
L 343.111414 274.978658 
L 344.197215 272.709821 
L 345.283016 279.018089 
L 346.368817 278.832853 
L 347.454618 278.040651 
L 348.54042 272.111332 
L 349.626221 272.071653 
L 350.712022 277.490302 
L 351.797823 271.135889 
L 352.883624 273.795763 
L 353.969425 272.125397 
L 355.055227 269.210419 
L 356.141028 270.785891 
L 357.226829 274.415507 
L 358.31263 273.765742 
L 359.398431 271.420925 
L 360.484232 270.340939 
L 361.570033 279.120156 
L 362.655835 268.962731 
L 363.741636 269.803767 
L 364.827437 271.038347 
L 365.913238 266.844974 
L 366.999039 271.822799 
L 368.08484 263.601849 
L 369.170642 268.406025 
L 370.256443 270.092733 
L 371.342244 266.37698 
L 372.428045 266.981913 
L 373.513846 270.941022 
L 374.599647 261.527987 
L 375.685448 268.802349 
L 376.77125 273.364602 
L 377.857051 274.636627 
L 378.942852 277.433419 
L 380.028653 275.427952 
L 381.114454 269.267611 
L 382.200255 268.103416 
L 383.286057 271.683838 
L 384.371858 271.230173 
L 385.457659 268.570015 
L 386.54346 274.040086 
L 387.629261 274.108181 
L 388.715062 269.609342 
L 389.800863 265.798086 
L 390.886665 271.512415 
L 391.972466 275.279474 
L 393.058267 270.18043 
L 394.144068 270.657219 
L 395.229869 269.079 
L 396.31567 277.161866 
L 397.401472 268.815 
L 398.487273 275.597509 
L 398.487273 275.597509 
" clip-path="url(#pcabe48953f)" style="fill: none; stroke-dasharray: 9.6,2.4,1.5,2.4; stroke-dashoffset: 0; stroke: #008000; stroke-width: 1.5"/>
   </g>
   <g id="line2d_35">
    <path d="M 73.832727 256.249742 
L 74.918528 252.689885 
L 76.00433 253.222331 
L 77.090131 248.243583 
L 78.175932 246.472254 
L 79.261733 238.137913 
L 80.347534 238.840705 
L 81.433335 244.323185 
L 82.519137 239.621842 
L 83.604938 241.168655 
L 84.690739 246.359782 
L 85.77654 238.231453 
L 86.862341 240.863748 
L 87.948142 232.95139 
L 89.033943 238.856901 
L 90.119745 236.851044 
L 91.205546 235.232877 
L 92.291347 226.965432 
L 93.377148 226.53732 
L 94.462949 229.088029 
L 95.54875 233.656889 
L 96.634552 223.446518 
L 97.720353 221.887864 
L 98.806154 222.850148 
L 99.891955 219.689727 
L 100.977756 225.344386 
L 102.063557 222.995409 
L 103.149358 227.753013 
L 104.23516 222.669816 
L 105.320961 221.018139 
L 106.406762 220.9189 
L 107.492563 221.500863 
L 108.578364 222.687695 
L 109.664165 217.870547 
L 110.749967 220.416292 
L 111.835768 220.109947 
L 112.921569 222.96236 
L 114.00737 223.882029 
L 115.093171 222.743438 
L 116.178972 224.067448 
L 118.350575 216.61926 
L 119.436376 218.190437 
L 120.522177 219.988832 
L 121.607978 219.425872 
L 122.693779 213.144046 
L 123.77958 214.055152 
L 124.865382 214.398941 
L 125.951183 216.856074 
L 127.036984 211.746595 
L 128.122785 219.926597 
L 129.208586 217.684971 
L 130.294387 209.140756 
L 131.380189 214.019296 
L 132.46599 213.692524 
L 133.551791 206.050707 
L 134.637592 209.575582 
L 135.723393 207.438504 
L 136.809194 211.613495 
L 137.894995 212.448105 
L 138.980797 215.845884 
L 140.066598 212.242025 
L 141.152399 214.701172 
L 142.2382 214.803812 
L 143.324001 208.751132 
L 144.409802 209.511806 
L 145.495604 212.139352 
L 146.581405 212.816556 
L 147.667206 211.100844 
L 148.753007 208.587171 
L 149.838808 213.138535 
L 150.924609 211.353002 
L 152.01041 210.080323 
L 153.096212 213.125861 
L 154.182013 212.811448 
L 155.267814 213.441305 
L 156.353615 207.385716 
L 157.439416 213.841488 
L 158.525217 211.979585 
L 159.611019 209.67537 
L 160.69682 208.707159 
L 161.782621 210.609021 
L 162.868422 216.116021 
L 163.954223 215.438784 
L 165.040024 207.492216 
L 166.125825 206.614947 
L 167.211627 210.442191 
L 168.297428 206.706484 
L 169.383229 208.317751 
L 170.46903 204.12902 
L 171.554831 207.308186 
L 172.640632 201.662419 
L 173.726434 211.596291 
L 174.812235 205.445862 
L 175.898036 206.295017 
L 176.983837 212.399989 
L 178.069638 205.957518 
L 179.155439 198.387475 
L 180.24124 205.891028 
L 181.327042 203.271038 
L 182.412843 203.429422 
L 183.498644 206.390672 
L 184.584445 198.437918 
L 185.670246 207.62652 
L 186.756047 212.973832 
L 187.841849 204.228005 
L 188.92765 210.298626 
L 190.013451 207.670834 
L 191.099252 210.32199 
L 193.270854 212.845822 
L 194.356656 206.785523 
L 195.442457 214.654534 
L 196.528258 205.477353 
L 197.614059 204.010155 
L 198.69986 210.608753 
L 199.785661 208.696322 
L 200.871462 206.202383 
L 201.957264 206.009463 
L 203.043065 203.073046 
L 204.128866 207.61276 
L 205.214667 203.398691 
L 206.300468 204.639596 
L 207.386269 211.588834 
L 208.472071 208.539984 
L 209.557872 215.681142 
L 210.643673 210.229172 
L 211.729474 208.637825 
L 212.815275 201.352218 
L 213.901076 210.784474 
L 214.986877 208.390506 
L 216.072679 212.455355 
L 217.15848 212.324444 
L 218.244281 211.547693 
L 219.330082 210.57102 
L 220.415883 208.765457 
L 221.501684 209.634457 
L 222.587486 207.474629 
L 223.673287 199.89563 
L 224.759088 196.322146 
L 225.844889 207.423613 
L 226.93069 208.521821 
L 228.016491 203.444291 
L 229.102292 205.917297 
L 230.188094 209.952746 
L 231.273895 207.947973 
L 232.359696 204.666359 
L 233.445497 202.806614 
L 234.531298 209.694426 
L 235.617099 201.14345 
L 237.788702 209.359209 
L 238.874503 204.598059 
L 239.960304 195.169193 
L 241.046105 204.151484 
L 242.131906 205.282817 
L 243.217708 206.252811 
L 244.303509 203.353692 
L 245.38931 203.892239 
L 246.475111 201.048103 
L 247.560912 207.656964 
L 248.646713 205.203981 
L 249.732514 206.015493 
L 250.818316 205.286221 
L 251.904117 207.913727 
L 252.989918 203.441276 
L 254.075719 203.232926 
L 255.16152 204.229816 
L 256.247321 206.62333 
L 257.333123 201.987248 
L 258.418924 204.716304 
L 260.590526 206.192259 
L 261.676327 204.968175 
L 262.762128 207.973012 
L 263.847929 209.730312 
L 264.933731 207.09689 
L 266.019532 211.58928 
L 267.105333 206.559594 
L 268.191134 209.63815 
L 269.276935 212.240956 
L 270.362736 208.127234 
L 271.448538 206.129453 
L 273.62014 211.466472 
L 274.705941 205.845358 
L 275.791742 208.714254 
L 276.877543 205.874954 
L 277.963344 206.822189 
L 279.049146 206.95456 
L 280.134947 205.801268 
L 281.220748 206.134239 
L 282.306549 202.079916 
L 283.39235 202.042347 
L 284.478151 201.022497 
L 285.563953 201.117385 
L 286.649754 204.301413 
L 287.735555 204.778917 
L 288.821356 206.70809 
L 289.907157 202.451595 
L 290.992958 202.465513 
L 292.07876 197.714331 
L 293.164561 201.67765 
L 294.250362 203.191933 
L 295.336163 198.582338 
L 296.421964 202.403204 
L 297.507765 204.515238 
L 298.593566 206.076447 
L 299.679368 203.255048 
L 300.765169 202.490501 
L 302.936771 203.233302 
L 304.022572 206.783391 
L 305.108373 204.504621 
L 306.194175 201.113659 
L 307.279976 211.156748 
L 308.365777 214.331542 
L 309.451578 210.85472 
L 310.537379 206.720393 
L 311.62318 208.082083 
L 312.708981 207.073383 
L 313.794783 207.82166 
L 314.880584 203.284627 
L 315.966385 201.685823 
L 317.052186 204.336515 
L 318.137987 202.677826 
L 319.223788 204.629215 
L 320.30959 196.807014 
L 321.395391 203.118521 
L 322.481192 200.049423 
L 323.566993 200.974608 
L 324.652794 205.527252 
L 325.738595 206.360388 
L 326.824396 203.800049 
L 327.910198 200.351854 
L 328.995999 200.771476 
L 330.0818 200.875744 
L 331.167601 195.975867 
L 332.253402 197.821968 
L 333.339203 204.725144 
L 334.425005 191.954993 
L 335.510806 192.910729 
L 336.596607 198.029972 
L 337.682408 195.662716 
L 338.768209 195.596356 
L 339.85401 199.784161 
L 340.939811 193.793586 
L 342.025613 194.972128 
L 343.111414 186.851661 
L 344.197215 187.008283 
L 345.283016 190.293817 
L 346.368817 197.368429 
L 347.454618 195.967466 
L 348.54042 192.566563 
L 349.626221 194.614788 
L 350.712022 193.972516 
L 351.797823 195.144317 
L 352.883624 198.872 
L 353.969425 201.925888 
L 355.055227 199.781589 
L 356.141028 198.892453 
L 357.226829 197.048095 
L 358.31263 201.633474 
L 359.398431 195.976168 
L 360.484232 199.757463 
L 361.570033 196.7258 
L 362.655835 196.558377 
L 363.741636 199.106319 
L 364.827437 197.365503 
L 365.913238 200.473157 
L 366.999039 202.463539 
L 368.08484 200.997608 
L 369.170642 195.497029 
L 370.256443 203.976593 
L 371.342244 199.781374 
L 372.428045 200.316479 
L 373.513846 201.179178 
L 374.599647 190.898249 
L 375.685448 193.896545 
L 376.77125 192.352601 
L 377.857051 192.551297 
L 378.942852 198.343511 
L 380.028653 201.599223 
L 381.114454 193.373254 
L 382.200255 192.088455 
L 383.286057 193.640521 
L 384.371858 186.257273 
L 385.457659 187.08158 
L 386.54346 185.598141 
L 387.629261 193.118962 
L 388.715062 185.224532 
L 389.800863 181.603748 
L 390.886665 185.06724 
L 391.972466 191.722812 
L 393.058267 185.006417 
L 394.144068 197.197431 
L 395.229869 176.899831 
L 396.31567 189.831146 
L 397.401472 188.877533 
L 398.487273 192.126367 
L 398.487273 192.126367 
" clip-path="url(#pcabe48953f)" style="fill: none; stroke-dasharray: 9.6,2.4,1.5,2.4; stroke-dashoffset: 0; stroke: #008000; stroke-width: 1.5"/>
   </g>
   <g id="line2d_36">
    <path d="M 73.832727 169.048953 
L 74.918528 169.048953 
L 76.00433 158.685278 
L 77.090131 158.685278 
L 78.175932 72.814826 
L 79.261733 69.853775 
L 100.977756 69.853775 
L 102.063557 129.074777 
L 111.835768 129.074777 
L 112.921569 137.957927 
L 117.264773 137.957927 
L 118.350575 127.594252 
L 121.607978 127.594252 
L 122.693779 118.711102 
L 143.324001 118.711102 
L 144.409802 66.892725 
L 184.584445 66.892725 
L 185.670246 111.308477 
L 190.013451 111.308477 
L 191.099252 120.191627 
L 200.871462 120.191627 
L 201.957264 114.269527 
L 211.729474 114.269527 
L 212.815275 99.464276 
L 231.273895 99.464276 
L 232.359696 92.061651 
L 234.531298 92.061651 
L 235.617099 89.100601 
L 239.960304 89.100601 
L 241.046105 53.568 
L 262.762128 53.568 
L 263.847929 148.321603 
L 264.933731 132.035827 
L 273.62014 132.035827 
L 274.705941 108.347426 
L 283.39235 108.347426 
L 284.478151 96.503226 
L 306.194175 96.503226 
L 307.279976 132.035827 
L 308.365777 134.996877 
L 319.223788 134.996877 
L 320.30959 89.100601 
L 339.85401 89.100601 
L 340.939811 81.697976 
L 342.025613 81.697976 
L 343.111414 74.295351 
L 364.827437 74.295351 
L 365.913238 75.775876 
L 369.170642 75.775876 
L 370.256443 112.789002 
L 375.685448 112.789002 
L 376.77125 100.944801 
L 385.457659 100.944801 
L 386.54346 92.061651 
L 394.144068 92.061651 
L 395.229869 75.775876 
L 398.487273 75.775876 
L 398.487273 75.775876 
" clip-path="url(#pcabe48953f)" style="fill: none; stroke: #ff0000; stroke-width: 1.5; stroke-linecap: square"/>
   </g>
   <g id="patch_3">
    <path d="M 57.6 307.584 
L 57.6 41.472 
" style="fill: none; stroke: #000000; stroke-width: 0.8; stroke-linejoin: miter; stroke-linecap: square"/>
   </g>
   <g id="patch_4">
    <path d="M 414.72 307.584 
L 414.72 41.472 
" style="fill: none; stroke: #000000; stroke-width: 0.8; stroke-linejoin: miter; stroke-linecap: square"/>
   </g>
   <g id="patch_5">
    <path d="M 57.6 307.584 
L 414.72 307.584 
" style="fill: none; stroke: #000000; stroke-width: 0.8; stroke-linejoin: miter; stroke-linecap: square"/>
   </g>
   <g id="patch_6">
    <path d="M 57.6 41.472 
L 414.72 41.472 
" style="fill: none; stroke: #000000; stroke-width: 0.8; stroke-linejoin: miter; stroke-linecap: square"/>
   </g>
   <g id="text_19">
    <!-- Population's average and best fitness -->
    <g transform="translate(123.529687 35.472)scale(0.12 -0.12)">
     <defs>
      <path id="DejaVuSans-50" d="M 1259 4147 
L 1259 2394 
L 2053 2394 
Q 2494 2394 2734 2622 
Q 2975 2850 2975 3272 
Q 2975 3691 2734 3919 
Q 2494 4147 2053 4147 
L 1259 4147 
z
M 628 4666 
L 2053 4666 
Q 2838 4666 3239 4311 
Q 3641 3956 3641 3272 
Q 3641 2581 3239 2228 
Q 2838 1875 2053 1875 
L 1259 1875 
L 1259 0 
L 628 0 
L 628 4666 
z
" transform="scale(0.015625)"/>
      <path id="DejaVuSans-70" d="M 1159 525 
L 1159 -1331 
L 581 -1331 
L 581 3500 
L 1159 3500 
L 1159 2969 
Q 1341 3281 1617 3432 
Q 1894 3584 2278 3584 
Q 2916 3584 3314 3078 
Q 3713 2572 3713 1747 
Q 3713 922 3314 415 
Q 2916 -91 2278 -91 
Q 1894 -91 1617 61 
Q 1341 213 1159 525 
z
M 3116 1747 
Q 3116 2381 2855 2742 
Q 2594 3103 2138 3103 
Q 1681 3103 1420 2742 
Q 1159 2381 1159 1747 
Q 1159 1113 1420 752 
Q 1681 391 2138 391 
Q 2594 391 2855 752 
Q 3116 1113 3116 1747 
z
" transform="scale(0.015625)"/>
      <path id="DejaVuSans-75" d="M 544 1381 
L 544 3500 
L 1119 3500 
L 1119 1403 
Q 1119 906 1312 657 
Q 1506 409 1894 409 
Q 2359 409 2629 706 
Q 2900 1003 2900 1516 
L 2900 3500 
L 3475 3500 
L 3475 0 
L 2900 0 
L 2900 538 
Q 2691 219 2414 64 
Q 2138 -91 1772 -91 
Q 1169 -91 856 284 
Q 544 659 544 1381 
z
M 1991 3584 
L 1991 3584 
z
" transform="scale(0.015625)"/>
      <path id="DejaVuSans-6c" d="M 603 4863 
L 1178 4863 
L 1178 0 
L 603 0 
L 603 4863 
z
" transform="scale(0.015625)"/>
      <path id="DejaVuSans-27" d="M 1147 4666 
L 1147 2931 
L 616 2931 
L 616 4666 
L 1147 4666 
z
" transform="scale(0.015625)"/>
      <path id="DejaVuSans-20" transform="scale(0.015625)"/>
      <path id="DejaVuSans-76" d="M 191 3500 
L 800 3500 
L 1894 563 
L 2988 3500 
L 3597 3500 
L 2284 0 
L 1503 0 
L 191 3500 
z
" transform="scale(0.015625)"/>
      <path id="DejaVuSans-67" d="M 2906 1791 
Q 2906 2416 2648 2759 
Q 2391 3103 1925 3103 
Q 1463 3103 1205 2759 
Q 947 2416 947 1791 
Q 947 1169 1205 825 
Q 1463 481 1925 481 
Q 2391 481 2648 825 
Q 2906 1169 2906 1791 
z
M 3481 434 
Q 3481 -459 3084 -895 
Q 2688 -1331 1869 -1331 
Q 1566 -1331 1297 -1286 
Q 1028 -1241 775 -1147 
L 775 -588 
Q 1028 -725 1275 -790 
Q 1522 -856 1778 -856 
Q 2344 -856 2625 -561 
Q 2906 -266 2906 331 
L 2906 616 
Q 2728 306 2450 153 
Q 2172 0 1784 0 
Q 1141 0 747 490 
Q 353 981 353 1791 
Q 353 2603 747 3093 
Q 1141 3584 1784 3584 
Q 2172 3584 2450 3431 
Q 2728 3278 2906 2969 
L 2906 3500 
L 3481 3500 
L 3481 434 
z
" transform="scale(0.015625)"/>
      <path id="DejaVuSans-64" d="M 2906 2969 
L 2906 4863 
L 3481 4863 
L 3481 0 
L 2906 0 
L 2906 525 
Q 2725 213 2448 61 
Q 2172 -91 1784 -91 
Q 1150 -91 751 415 
Q 353 922 353 1747 
Q 353 2572 751 3078 
Q 1150 3584 1784 3584 
Q 2172 3584 2448 3432 
Q 2725 3281 2906 2969 
z
M 947 1747 
Q 947 1113 1208 752 
Q 1469 391 1925 391 
Q 2381 391 2643 752 
Q 2906 1113 2906 1747 
Q 2906 2381 2643 2742 
Q 2381 3103 1925 3103 
Q 1469 3103 1208 2742 
Q 947 2381 947 1747 
z
" transform="scale(0.015625)"/>
      <path id="DejaVuSans-62" d="M 3116 1747 
Q 3116 2381 2855 2742 
Q 2594 3103 2138 3103 
Q 1681 3103 1420 2742 
Q 1159 2381 1159 1747 
Q 1159 1113 1420 752 
Q 1681 391 2138 391 
Q 2594 391 2855 752 
Q 3116 1113 3116 1747 
z
M 1159 2969 
Q 1341 3281 1617 3432 
Q 1894 3584 2278 3584 
Q 2916 3584 3314 3078 
Q 3713 2572 3713 1747 
Q 3713 922 3314 415 
Q 2916 -91 2278 -91 
Q 1894 -91 1617 61 
Q 1341 213 1159 525 
L 1159 0 
L 581 0 
L 581 4863 
L 1159 4863 
L 1159 2969 
z
" transform="scale(0.015625)"/>
      <path id="DejaVuSans-66" d="M 2375 4863 
L 2375 4384 
L 1825 4384 
Q 1516 4384 1395 4259 
Q 1275 4134 1275 3809 
L 1275 3500 
L 2222 3500 
L 2222 3053 
L 1275 3053 
L 1275 0 
L 697 0 
L 697 3053 
L 147 3053 
L 147 3500 
L 697 3500 
L 697 3744 
Q 697 4328 969 4595 
Q 1241 4863 1831 4863 
L 2375 4863 
z
" transform="scale(0.015625)"/>
     </defs>
     <use xlink:href="#DejaVuSans-50"/>
     <use xlink:href="#DejaVuSans-6f" x="56.677734"/>
     <use xlink:href="#DejaVuSans-70" x="117.859375"/>
     <use xlink:href="#DejaVuSans-75" x="181.335938"/>
     <use xlink:href="#DejaVuSans-6c" x="244.714844"/>
     <use xlink:href="#DejaVuSans-61" x="272.498047"/>
     <use xlink:href="#DejaVuSans-74" x="333.777344"/>
     <use xlink:href="#DejaVuSans-69" x="372.986328"/>
     <use xlink:href="#DejaVuSans-6f" x="400.769531"/>
     <use xlink:href="#DejaVuSans-6e" x="461.951172"/>
     <use xlink:href="#DejaVuSans-27" x="525.330078"/>
     <use xlink:href="#DejaVuSans-73" x="552.820312"/>
     <use xlink:href="#DejaVuSans-20" x="604.919922"/>
     <use xlink:href="#DejaVuSans-61" x="636.707031"/>
     <use xlink:href="#DejaVuSans-76" x="697.986328"/>
     <use xlink:href="#DejaVuSans-65" x="757.166016"/>
     <use xlink:href="#DejaVuSans-72" x="818.689453"/>
     <use xlink:href="#DejaVuSans-61" x="859.802734"/>
     <use xlink:href="#DejaVuSans-67" x="921.082031"/>
     <use xlink:href="#DejaVuSans-65" x="984.558594"/>
     <use xlink:href="#DejaVuSans-20" x="1046.082031"/>
     <use xlink:href="#DejaVuSans-61" x="1077.869141"/>
     <use xlink:href="#DejaVuSans-6e" x="1139.148438"/>
     <use xlink:href="#DejaVuSans-64" x="1202.527344"/>
     <use xlink:href="#DejaVuSans-20" x="1266.003906"/>
     <use xlink:href="#DejaVuSans-62" x="1297.791016"/>
     <use xlink:href="#DejaVuSans-65" x="1361.267578"/>
     <use xlink:href="#DejaVuSans-73" x="1422.791016"/>
     <use xlink:href="#DejaVuSans-74" x="1474.890625"/>
     <use xlink:href="#DejaVuSans-20" x="1514.099609"/>
     <use xlink:href="#DejaVuSans-66" x="1545.886719"/>
     <use xlink:href="#DejaVuSans-69" x="1581.091797"/>
     <use xlink:href="#DejaVuSans-74" x="1608.875"/>
     <use xlink:href="#DejaVuSans-6e" x="1648.083984"/>
     <use xlink:href="#DejaVuSans-65" x="1711.462891"/>
     <use xlink:href="#DejaVuSans-73" x="1772.986328"/>
     <use xlink:href="#DejaVuSans-73" x="1825.085938"/>
    </g>
   </g>
   <g id="legend_1">
    <g id="patch_7">
     <path d="M 64.6 205.38425 
L 137.540625 205.38425 
Q 139.540625 205.38425 139.540625 203.38425 
L 139.540625 145.67175 
Q 139.540625 143.67175 137.540625 143.67175 
L 64.6 143.67175 
Q 62.6 143.67175 62.6 145.67175 
L 62.6 203.38425 
Q 62.6 205.38425 64.6 205.38425 
z
" style="fill: #ffffff; opacity: 0.8; stroke: #cccccc; stroke-linejoin: miter"/>
    </g>
    <g id="line2d_37">
     <path d="M 66.6 151.770188 
L 76.6 151.770188 
L 86.6 151.770188 
" style="fill: none; stroke: #0000ff; stroke-width: 1.5; stroke-linecap: square"/>
    </g>
    <g id="text_20">
     <!-- average -->
     <g transform="translate(94.6 155.270188)scale(0.1 -0.1)">
      <use xlink:href="#DejaVuSans-61"/>
      <use xlink:href="#DejaVuSans-76" x="61.279297"/>
      <use xlink:href="#DejaVuSans-65" x="120.458984"/>
      <use xlink:href="#DejaVuSans-72" x="181.982422"/>
      <use xlink:href="#DejaVuSans-61" x="223.095703"/>
      <use xlink:href="#DejaVuSans-67" x="284.375"/>
      <use xlink:href="#DejaVuSans-65" x="347.851562"/>
     </g>
    </g>
    <g id="line2d_38">
     <path d="M 66.6 166.448313 
L 76.6 166.448313 
L 86.6 166.448313 
" style="fill: none; stroke-dasharray: 9.6,2.4,1.5,2.4; stroke-dashoffset: 0; stroke: #008000; stroke-width: 1.5"/>
    </g>
    <g id="text_21">
     <!-- -1 sd -->
     <g transform="translate(94.6 169.948313)scale(0.1 -0.1)">
      <defs>
       <path id="DejaVuSans-2d" d="M 313 2009 
L 1997 2009 
L 1997 1497 
L 313 1497 
L 313 2009 
z
" transform="scale(0.015625)"/>
      </defs>
      <use xlink:href="#DejaVuSans-2d"/>
      <use xlink:href="#DejaVuSans-31" x="36.083984"/>
      <use xlink:href="#DejaVuSans-20" x="99.707031"/>
      <use xlink:href="#DejaVuSans-73" x="131.494141"/>
      <use xlink:href="#DejaVuSans-64" x="183.59375"/>
     </g>
    </g>
    <g id="line2d_39">
     <path d="M 66.6 181.126438 
L 76.6 181.126438 
L 86.6 181.126438 
" style="fill: none; stroke-dasharray: 9.6,2.4,1.5,2.4; stroke-dashoffset: 0; stroke: #008000; stroke-width: 1.5"/>
    </g>
    <g id="text_22">
     <!-- +1 sd -->
     <g transform="translate(94.6 184.626438)scale(0.1 -0.1)">
      <defs>
       <path id="DejaVuSans-2b" d="M 2944 4013 
L 2944 2272 
L 4684 2272 
L 4684 1741 
L 2944 1741 
L 2944 0 
L 2419 0 
L 2419 1741 
L 678 1741 
L 678 2272 
L 2419 2272 
L 2419 4013 
L 2944 4013 
z
" transform="scale(0.015625)"/>
      </defs>
      <use xlink:href="#DejaVuSans-2b"/>
      <use xlink:href="#DejaVuSans-31" x="83.789062"/>
      <use xlink:href="#DejaVuSans-20" x="147.412109"/>
      <use xlink:href="#DejaVuSans-73" x="179.199219"/>
      <use xlink:href="#DejaVuSans-64" x="231.298828"/>
     </g>
    </g>
    <g id="line2d_40">
     <path d="M 66.6 195.804563 
L 76.6 195.804563 
L 86.6 195.804563 
" style="fill: none; stroke: #ff0000; stroke-width: 1.5; stroke-linecap: square"/>
    </g>
    <g id="text_23">
     <!-- best -->
     <g transform="translate(94.6 199.304563)scale(0.1 -0.1)">
      <use xlink:href="#DejaVuSans-62"/>
      <use xlink:href="#DejaVuSans-65" x="63.476562"/>
      <use xlink:href="#DejaVuSans-73" x="125"/>
      <use xlink:href="#DejaVuSans-74" x="177.099609"/>
     </g>
    </g>
   </g>
  </g>
 </g>
 <defs>
  <clipPath id="pcabe48953f">
   <rect x="57.6" y="41.472" width="357.12" height="266.112"/>
  </clipPath>
 </defs>
</svg>
