<?xml version="1.0" encoding="UTF-8" standalone="no"?>
<!DOCTYPE svg PUBLIC "-//W3C//DTD SVG 1.1//EN"
 "http://www.w3.org/Graphics/SVG/1.1/DTD/svg11.dtd">
<!-- Generated by graphviz version 4.0.0 (20220529.0937)
 -->
<!-- Pages: 1 -->
<svg width="2091pt" height="485pt"
 viewBox="0.00 0.00 2091.27 485.11" xmlns="http://www.w3.org/2000/svg" xmlns:xlink="http://www.w3.org/1999/xlink">
<g id="graph0" class="graph" transform="scale(1 1) rotate(0) translate(4 481.11)">
<polygon fill="white" stroke="transparent" points="-4,4 -4,-481.11 2087.27,-481.11 2087.27,4 -4,4"/>
<!-- GHOST1 X -->
<g id="node1" class="node">
<title>GHOST1 X</title>
<ellipse fill="lightcoral" stroke="black" cx="1106.43" cy="-416.3" rx="43.27" ry="43.27"/>
<text text-anchor="middle" x="1106.43" y="-414.1" font-family="Times New Roman,serif" font-size="9.00">GHOST1 X</text>
</g>
<!-- RIGHT -->
<g id="node28" class="node">
<title>RIGHT</title>
<ellipse fill="lightblue" stroke="black" cx="1312.43" cy="-258.68" rx="31.64" ry="31.64"/>
<text text-anchor="middle" x="1312.43" y="-256.48" font-family="Times New Roman,serif" font-size="9.00">RIGHT</text>
</g>
<!-- GHOST1 X&#45;&gt;RIGHT -->
<g id="edge1" class="edge">
<title>GHOST1 X&#45;&gt;RIGHT</title>
<path fill="none" stroke="red" stroke-width="0.18" d="M1131.52,-380.85C1139.59,-371.61 1149.13,-362.31 1159.43,-355.49 1201.25,-327.78 1225.59,-348.64 1266.43,-319.49 1278.58,-310.81 1289.03,-298 1296.89,-286.46"/>
</g>
<!-- GHOST1 Y -->
<g id="node2" class="node">
<title>GHOST1 Y</title>
<ellipse fill="lightcoral" stroke="black" cx="1578.43" cy="-258.68" rx="42.35" ry="42.35"/>
<text text-anchor="middle" x="1578.43" y="-256.48" font-family="Times New Roman,serif" font-size="9.00">GHOST1 Y</text>
</g>
<!-- LEFT -->
<g id="node29" class="node">
<title>LEFT</title>
<ellipse fill="lightblue" stroke="black" cx="1466.43" cy="-119.44" rx="26.74" ry="26.74"/>
<text text-anchor="middle" x="1466.43" y="-117.24" font-family="Times New Roman,serif" font-size="9.00">LEFT</text>
</g>
<!-- GHOST1 Y&#45;&gt;LEFT -->
<g id="edge2" class="edge">
<title>GHOST1 Y&#45;&gt;LEFT</title>
<path fill="none" stroke="green" stroke-width="0.26" d="M1551.88,-225.15C1530.54,-199 1501.21,-163.06 1483.05,-140.81"/>
</g>
<!-- GHOST2 X -->
<g id="node3" class="node">
<title>GHOST2 X</title>
<ellipse fill="lightcoral" stroke="black" cx="272.43" cy="-258.68" rx="43.27" ry="43.27"/>
<text text-anchor="middle" x="272.43" y="-256.48" font-family="Times New Roman,serif" font-size="9.00">GHOST2 X</text>
</g>
<!-- DOWN -->
<g id="node27" class="node">
<title>DOWN</title>
<ellipse fill="lightblue" stroke="black" cx="480.43" cy="-119.44" rx="31.64" ry="31.64"/>
<text text-anchor="middle" x="480.43" y="-117.24" font-family="Times New Roman,serif" font-size="9.00">DOWN</text>
</g>
<!-- GHOST2 X&#45;&gt;DOWN -->
<g id="edge3" class="edge">
<title>GHOST2 X&#45;&gt;DOWN</title>
<path fill="none" stroke="red" stroke-width="0.47" d="M297.84,-223.77C305.71,-214.65 314.85,-205.27 324.43,-197.87 364.02,-167.27 417.62,-143.87 450.57,-131.15"/>
</g>
<!-- GHOST2 Y -->
<g id="node4" class="node">
<title>GHOST2 Y</title>
<ellipse fill="lightcoral" stroke="black" cx="902.43" cy="-258.68" rx="42.35" ry="42.35"/>
<text text-anchor="middle" x="902.43" y="-256.48" font-family="Times New Roman,serif" font-size="9.00">GHOST2 Y</text>
</g>
<!-- GHOST2 Y&#45;&gt;DOWN -->
<g id="edge4" class="edge">
<title>GHOST2 Y&#45;&gt;DOWN</title>
<path fill="none" stroke="red" stroke-width="0.43" d="M879.23,-222.75C871.43,-213.38 861.99,-204.13 851.43,-197.87 739.79,-131.67 579.93,-121.51 512.44,-120.34"/>
</g>
<!-- GHOST2 Y&#45;&gt;LEFT -->
<g id="edge5" class="edge">
<title>GHOST2 Y&#45;&gt;LEFT</title>
<path fill="none" stroke="green" stroke-width="0.27" d="M934.73,-231.01C950.84,-219.06 971.17,-205.88 991.43,-197.87 1152.84,-134.02 1365.09,-122.81 1439.37,-120.85"/>
</g>
<!-- GHOST3 X -->
<g id="node5" class="node">
<title>GHOST3 X</title>
<ellipse fill="lightcoral" stroke="black" cx="1685.43" cy="-416.3" rx="43.27" ry="43.27"/>
<text text-anchor="middle" x="1685.43" y="-414.1" font-family="Times New Roman,serif" font-size="9.00">GHOST3 X</text>
</g>
<!-- GHOST3 X&#45;&gt;LEFT -->
<g id="edge6" class="edge">
<title>GHOST3 X&#45;&gt;LEFT</title>
<path fill="none" stroke="red" stroke-width="0.18" d="M1676.71,-373.75C1664,-314.53 1640.65,-211.47 1629.43,-197.87 1593.94,-154.85 1529,-134.22 1492.72,-125.64"/>
</g>
<!-- 5022 -->
<g id="node38" class="node">
<title>5022</title>
<ellipse fill="lightgreen" stroke="black" cx="1701.43" cy="-258.68" rx="25" ry="25"/>
<text text-anchor="middle" x="1701.43" y="-256.48" font-family="Times New Roman,serif" font-size="9.00">5022</text>
</g>
<!-- GHOST3 X&#45;&gt;5022 -->
<g id="edge38" class="edge">
<title>GHOST3 X&#45;&gt;5022</title>
<path fill="none" stroke="green" stroke-width="0.26" d="M1689.76,-373.18C1692.72,-344.38 1696.54,-307.24 1698.98,-283.44"/>
</g>
<!-- GHOST3 Y -->
<g id="node6" class="node">
<title>GHOST3 Y</title>
<ellipse fill="lightcoral" stroke="black" cx="42.43" cy="-416.3" rx="42.35" ry="42.35"/>
<text text-anchor="middle" x="42.43" y="-414.1" font-family="Times New Roman,serif" font-size="9.00">GHOST3 Y</text>
</g>
<!-- 6590 -->
<g id="node32" class="node">
<title>6590</title>
<ellipse fill="lightgreen" stroke="black" cx="42.43" cy="-258.68" rx="25" ry="25"/>
<text text-anchor="middle" x="42.43" y="-256.48" font-family="Times New Roman,serif" font-size="9.00">6590</text>
</g>
<!-- GHOST3 Y&#45;&gt;6590 -->
<g id="edge46" class="edge">
<title>GHOST3 Y&#45;&gt;6590</title>
<path fill="none" stroke="green" stroke-width="0.19" d="M42.43,-373.59C42.43,-344.78 42.43,-307.49 42.43,-283.57"/>
</g>
<!-- GHOST4 X -->
<g id="node7" class="node">
<title>GHOST4 X</title>
<ellipse fill="lightcoral" stroke="black" cx="376.43" cy="-258.68" rx="43.27" ry="43.27"/>
<text text-anchor="middle" x="376.43" y="-256.48" font-family="Times New Roman,serif" font-size="9.00">GHOST4 X</text>
</g>
<!-- GHOST4 X&#45;&gt;DOWN -->
<g id="edge7" class="edge">
<title>GHOST4 X&#45;&gt;DOWN</title>
<path fill="none" stroke="green" stroke-width="0.47" d="M402.13,-223.75C420.54,-199.46 444.91,-167.3 461.54,-145.36"/>
</g>
<!-- GHOST4 Y -->
<g id="node8" class="node">
<title>GHOST4 Y</title>
<ellipse fill="lightcoral" stroke="black" cx="1827.43" cy="-119.44" rx="42.35" ry="42.35"/>
<text text-anchor="middle" x="1827.43" y="-117.24" font-family="Times New Roman,serif" font-size="9.00">GHOST4 Y</text>
</g>
<!-- UP -->
<g id="node26" class="node">
<title>UP</title>
<ellipse fill="lightblue" stroke="black" cx="1132.43" cy="-20.51" rx="20.51" ry="20.51"/>
<text text-anchor="middle" x="1132.43" y="-18.31" font-family="Times New Roman,serif" font-size="9.00">UP</text>
</g>
<!-- GHOST4 Y&#45;&gt;UP -->
<g id="edge8" class="edge">
<title>GHOST4 Y&#45;&gt;UP</title>
<path fill="none" stroke="green" stroke-width="0.54" d="M1796.05,-90.62C1788.45,-85.24 1780.02,-80.27 1771.43,-77.01 1654.26,-32.67 1249.44,-23.4 1153.11,-21.8"/>
</g>
<!-- GHOST5 X -->
<g id="node9" class="node">
<title>GHOST5 X</title>
<ellipse fill="lightcoral" stroke="black" cx="1789.43" cy="-416.3" rx="43.27" ry="43.27"/>
<text text-anchor="middle" x="1789.43" y="-414.1" font-family="Times New Roman,serif" font-size="9.00">GHOST5 X</text>
</g>
<!-- GHOST5 X&#45;&gt;UP -->
<g id="edge9" class="edge">
<title>GHOST5 X&#45;&gt;UP</title>
<path fill="none" stroke="green" stroke-width="0.31" d="M1796.93,-373.42C1802.96,-326.23 1805.24,-249.4 1768.43,-197.87 1692.94,-92.21 1626.94,-113.85 1502.43,-77.01 1372.87,-38.68 1209.59,-25.99 1152.91,-22.59"/>
</g>
<!-- GHOST5 X&#45;&gt;RIGHT -->
<g id="edge10" class="edge">
<title>GHOST5 X&#45;&gt;RIGHT</title>
<path fill="none" stroke="green" stroke-width="0.16" d="M1766.08,-379.6C1758.14,-370.21 1748.44,-361.14 1737.43,-355.49 1584.93,-277.2 1501.18,-406.39 1353.43,-319.49 1341.16,-312.28 1331.74,-299.78 1325.04,-288.06"/>
</g>
<!-- GHOST5 X&#45;&gt;LEFT -->
<g id="edge11" class="edge">
<title>GHOST5 X&#45;&gt;LEFT</title>
<path fill="none" stroke="green" stroke-width="0.45" d="M1784,-373.04C1775.98,-317.1 1759.31,-222.65 1735.43,-197.87 1669.49,-129.46 1547.38,-120.38 1493.35,-119.91"/>
</g>
<!-- GHOST5 Y -->
<g id="node10" class="node">
<title>GHOST5 Y</title>
<ellipse fill="lightcoral" stroke="black" cx="1042.43" cy="-258.68" rx="42.35" ry="42.35"/>
<text text-anchor="middle" x="1042.43" y="-256.48" font-family="Times New Roman,serif" font-size="9.00">GHOST5 Y</text>
</g>
<!-- GHOST5 Y&#45;&gt;UP -->
<g id="edge12" class="edge">
<title>GHOST5 Y&#45;&gt;UP</title>
<path fill="none" stroke="green" stroke-width="0.18" d="M1057.29,-218.68C1076.96,-167.06 1110.85,-78.12 1125.43,-39.87"/>
</g>
<!-- GHOST5 Y&#45;&gt;LEFT -->
<g id="edge13" class="edge">
<title>GHOST5 Y&#45;&gt;LEFT</title>
<path fill="none" stroke="green" stroke-width="0.23" d="M1065.62,-222.74C1073.42,-213.37 1082.86,-204.12 1093.43,-197.87 1208.66,-129.62 1374.98,-120.89 1439.46,-120.23"/>
</g>
<!-- GHOST6 X -->
<g id="node11" class="node">
<title>GHOST6 X</title>
<ellipse fill="lightcoral" stroke="black" cx="689.43" cy="-258.68" rx="43.27" ry="43.27"/>
<text text-anchor="middle" x="689.43" y="-256.48" font-family="Times New Roman,serif" font-size="9.00">GHOST6 X</text>
</g>
<!-- GHOST6 X&#45;&gt;UP -->
<g id="edge14" class="edge">
<title>GHOST6 X&#45;&gt;UP</title>
<path fill="none" stroke="red" stroke-width="1.42" d="M715.55,-223.86C749.76,-182.14 813.88,-112.43 885.43,-77.01 963.22,-38.5 1067.99,-26.38 1111.81,-22.84"/>
</g>
<!-- GHOST6 X&#45;&gt;DOWN -->
<g id="edge15" class="edge">
<title>GHOST6 X&#45;&gt;DOWN</title>
<path fill="none" stroke="red" stroke-width="0.25" d="M661.96,-224.88C653.12,-215.48 642.89,-205.66 632.43,-197.87 593.36,-168.76 541.74,-145.09 509.83,-131.89"/>
</g>
<!-- GHOST6 Y -->
<g id="node12" class="node">
<title>GHOST6 Y</title>
<ellipse fill="lightcoral" stroke="black" cx="480.43" cy="-258.68" rx="42.35" ry="42.35"/>
<text text-anchor="middle" x="480.43" y="-256.48" font-family="Times New Roman,serif" font-size="9.00">GHOST6 Y</text>
</g>
<!-- GHOST6 Y&#45;&gt;DOWN -->
<g id="edge16" class="edge">
<title>GHOST6 Y&#45;&gt;DOWN</title>
<path fill="none" stroke="green" stroke-width="0.28" d="M480.43,-216.13C480.43,-195.3 480.43,-170.51 480.43,-151.38"/>
</g>
<!-- GHOST7 X -->
<g id="node13" class="node">
<title>GHOST7 X</title>
<ellipse fill="lightcoral" stroke="black" cx="1924.43" cy="-258.68" rx="43.27" ry="43.27"/>
<text text-anchor="middle" x="1924.43" y="-256.48" font-family="Times New Roman,serif" font-size="9.00">GHOST7 X</text>
</g>
<!-- GHOST7 X&#45;&gt;UP -->
<g id="edge17" class="edge">
<title>GHOST7 X&#45;&gt;UP</title>
<path fill="none" stroke="red" stroke-width="0.29" d="M1919.42,-215.77C1912.8,-168.12 1899.44,-94.64 1878.43,-77.01 1821.33,-29.13 1267.06,-22.49 1152.92,-21.63"/>
</g>
<!-- 5067 -->
<g id="node33" class="node">
<title>5067</title>
<ellipse fill="lightgreen" stroke="black" cx="1950.43" cy="-119.44" rx="25" ry="25"/>
<text text-anchor="middle" x="1950.43" y="-117.24" font-family="Times New Roman,serif" font-size="9.00">5067</text>
</g>
<!-- GHOST7 X&#45;&gt;5067 -->
<g id="edge40" class="edge">
<title>GHOST7 X&#45;&gt;5067</title>
<path fill="none" stroke="green" stroke-width="0.35" d="M1932.3,-216.13C1936.78,-192.46 1942.23,-163.68 1945.98,-143.9"/>
</g>
<!-- GHOST7 Y -->
<g id="node14" class="node">
<title>GHOST7 Y</title>
<ellipse fill="lightcoral" stroke="black" cx="1442.43" cy="-416.3" rx="42.35" ry="42.35"/>
<text text-anchor="middle" x="1442.43" y="-414.1" font-family="Times New Roman,serif" font-size="9.00">GHOST7 Y</text>
</g>
<!-- GHOST7 Y&#45;&gt;RIGHT -->
<g id="edge18" class="edge">
<title>GHOST7 Y&#45;&gt;RIGHT</title>
<path fill="none" stroke="green" stroke-width="0.28" d="M1415.78,-382.77C1408.11,-373.77 1399.6,-364.1 1391.43,-355.49 1375.41,-338.61 1368.53,-337.18 1353.43,-319.49 1344.6,-309.15 1335.92,-296.89 1328.84,-286.17"/>
</g>
<!-- GHOST7 Y&#45;&gt;LEFT -->
<g id="edge19" class="edge">
<title>GHOST7 Y&#45;&gt;LEFT</title>
<path fill="none" stroke="green" stroke-width="0.58" d="M1445.54,-373.6C1448.84,-329.82 1454.27,-258.99 1459.43,-197.87 1460.88,-180.65 1462.63,-161.29 1464.01,-146.24"/>
</g>
<!-- 2400 -->
<g id="node30" class="node">
<title>2400</title>
<ellipse fill="lightgreen" stroke="black" cx="1387.43" cy="-258.68" rx="25" ry="25"/>
<text text-anchor="middle" x="1387.43" y="-256.48" font-family="Times New Roman,serif" font-size="9.00">2400</text>
</g>
<!-- GHOST7 Y&#45;&gt;2400 -->
<g id="edge32" class="edge">
<title>GHOST7 Y&#45;&gt;2400</title>
<path fill="none" stroke="green" stroke-width="0.51" d="M1428.55,-376.03C1418.11,-346.49 1404.17,-307.05 1395.5,-282.51"/>
</g>
<!-- GHOST8 X -->
<g id="node15" class="node">
<title>GHOST8 X</title>
<ellipse fill="lightcoral" stroke="black" cx="717.43" cy="-416.3" rx="43.27" ry="43.27"/>
<text text-anchor="middle" x="717.43" y="-414.1" font-family="Times New Roman,serif" font-size="9.00">GHOST8 X</text>
</g>
<!-- GHOST8 X&#45;&gt;DOWN -->
<g id="edge20" class="edge">
<title>GHOST8 X&#45;&gt;DOWN</title>
<path fill="none" stroke="red" stroke-width="0.31" d="M687,-385.24C670.39,-367.42 650.6,-343.65 637.43,-319.49 610.31,-269.77 633.63,-243 599.43,-197.87 576.06,-167.02 536.59,-144.89 509.57,-132.38"/>
</g>
<!-- GHOST8 X&#45;&gt;RIGHT -->
<g id="edge21" class="edge">
<title>GHOST8 X&#45;&gt;RIGHT</title>
<path fill="none" stroke="red" stroke-width="0.48" d="M756.1,-396.76C786.47,-383.05 830.22,-365.15 870.43,-355.49 1028.07,-317.62 1082.48,-378.63 1233.43,-319.49 1254.89,-311.08 1275.53,-295.08 1290.33,-281.75"/>
</g>
<!-- GHOST8 Y -->
<g id="node16" class="node">
<title>GHOST8 Y</title>
<ellipse fill="lightcoral" stroke="black" cx="1210.43" cy="-416.3" rx="42.35" ry="42.35"/>
<text text-anchor="middle" x="1210.43" y="-414.1" font-family="Times New Roman,serif" font-size="9.00">GHOST8 Y</text>
</g>
<!-- GHOST8 Y&#45;&gt;RIGHT -->
<g id="edge22" class="edge">
<title>GHOST8 Y&#45;&gt;RIGHT</title>
<path fill="none" stroke="red" stroke-width="0.58" d="M1233.32,-380.37C1252.11,-351.7 1278.32,-311.72 1295.33,-285.77"/>
</g>
<!-- PACMAN X -->
<g id="node17" class="node">
<title>PACMAN X</title>
<ellipse fill="lightcoral" stroke="black" cx="149.43" cy="-416.3" rx="46.84" ry="46.84"/>
<text text-anchor="middle" x="149.43" y="-414.1" font-family="Times New Roman,serif" font-size="9.00">PACMAN X</text>
</g>
<!-- PACMAN X&#45;&gt;UP -->
<g id="edge23" class="edge">
<title>PACMAN X&#45;&gt;UP</title>
<path fill="none" stroke="green" stroke-width="0.14" d="M127.07,-375C104.45,-328.23 77.66,-250.77 114.43,-197.87 233.56,-26.46 977.55,-20.95 1111.71,-21.36"/>
</g>
<!-- PACMAN X&#45;&gt;DOWN -->
<g id="edge24" class="edge">
<title>PACMAN X&#45;&gt;DOWN</title>
<path fill="none" stroke="green" stroke-width="0.17" d="M164.64,-371.99C170.33,-355.58 176.77,-336.7 182.43,-319.49 200.09,-265.68 180.11,-237.64 220.43,-197.87 283.45,-135.68 394.13,-123.07 448.48,-120.76"/>
</g>
<!-- 4891 -->
<g id="node35" class="node">
<title>4891</title>
<ellipse fill="lightgreen" stroke="black" cx="148.43" cy="-258.68" rx="25" ry="25"/>
<text text-anchor="middle" x="148.43" y="-256.48" font-family="Times New Roman,serif" font-size="9.00">4891</text>
</g>
<!-- PACMAN X&#45;&gt;4891 -->
<g id="edge36" class="edge">
<title>PACMAN X&#45;&gt;4891</title>
<path fill="none" stroke="green" stroke-width="0.23" d="M149.13,-369.45C148.95,-341.3 148.73,-306.39 148.58,-283.6"/>
</g>
<!-- PACMAN Y -->
<g id="node18" class="node">
<title>PACMAN Y</title>
<ellipse fill="lightcoral" stroke="black" cx="796.43" cy="-258.68" rx="45.92" ry="45.92"/>
<text text-anchor="middle" x="796.43" y="-256.48" font-family="Times New Roman,serif" font-size="9.00">PACMAN Y</text>
</g>
<!-- PACMAN Y&#45;&gt;DOWN -->
<g id="edge25" class="edge">
<title>PACMAN Y&#45;&gt;DOWN</title>
<path fill="none" stroke="green" stroke-width="0.4" d="M768.92,-221.45C760.86,-212.73 751.48,-204.14 741.43,-197.87 667.04,-151.45 563.42,-131.65 511.98,-124.26"/>
</g>
<!-- 3773 -->
<g id="node37" class="node">
<title>3773</title>
<ellipse fill="lightgreen" stroke="black" cx="919.43" cy="-119.44" rx="25" ry="25"/>
<text text-anchor="middle" x="919.43" y="-117.24" font-family="Times New Roman,serif" font-size="9.00">3773</text>
</g>
<!-- PACMAN Y&#45;&gt;3773 -->
<g id="edge34" class="edge">
<title>PACMAN Y&#45;&gt;3773</title>
<path fill="none" stroke="red" stroke-width="0.13" d="M826.83,-223.75C851.02,-196.76 883.91,-160.06 903.29,-138.45"/>
</g>
<!-- ND X -->
<g id="node19" class="node">
<title>ND X</title>
<ellipse fill="lightcoral" stroke="black" cx="1878.43" cy="-416.3" rx="27.65" ry="27.65"/>
<text text-anchor="middle" x="1878.43" y="-414.1" font-family="Times New Roman,serif" font-size="9.00">ND X</text>
</g>
<!-- ND Y -->
<g id="node20" class="node">
<title>ND Y</title>
<ellipse fill="lightcoral" stroke="black" cx="1950.43" cy="-416.3" rx="26.74" ry="26.74"/>
<text text-anchor="middle" x="1950.43" y="-414.1" font-family="Times New Roman,serif" font-size="9.00">ND Y</text>
</g>
<!-- IN_INTERS -->
<g id="node21" class="node">
<title>IN_INTERS</title>
<ellipse fill="lightcoral" stroke="black" cx="2039.43" cy="-416.3" rx="43.68" ry="43.68"/>
<text text-anchor="middle" x="2039.43" y="-414.1" font-family="Times New Roman,serif" font-size="9.00">IN_INTERS</text>
</g>
<!-- MOVING UP -->
<g id="node22" class="node">
<title>MOVING UP</title>
<ellipse fill="lightcoral" stroke="black" cx="928.43" cy="-416.3" rx="48.58" ry="48.58"/>
<text text-anchor="middle" x="928.43" y="-414.1" font-family="Times New Roman,serif" font-size="9.00">MOVING UP</text>
</g>
<!-- MOVING UP&#45;&gt;UP -->
<g id="edge26" class="edge">
<title>MOVING UP&#45;&gt;UP</title>
<path fill="none" stroke="red" stroke-width="3.62" d="M941,-368.94C957.15,-309.84 984.01,-213.43 991.43,-197.87 1019.57,-138.81 1033.13,-126.91 1075.43,-77.01 1088.46,-61.63 1105.17,-45.74 1117.12,-34.92"/>
</g>
<!-- MOVING UP&#45;&gt;RIGHT -->
<g id="edge27" class="edge">
<title>MOVING UP&#45;&gt;RIGHT</title>
<path fill="none" stroke="green" stroke-width="0.67" d="M958,-377.02C966.3,-368.65 975.95,-360.73 986.43,-355.49 1098.61,-299.3 1157.64,-382 1266.43,-319.49 1279.49,-311.98 1290.1,-299.15 1297.82,-287.29"/>
</g>
<!-- MOVING UP&#45;&gt;LEFT -->
<g id="edge28" class="edge">
<title>MOVING UP&#45;&gt;LEFT</title>
<path fill="none" stroke="green" stroke-width="1.67" d="M958.06,-377.14C966.36,-368.77 976,-360.82 986.43,-355.49 1085.2,-304.97 1149.03,-391.49 1233.43,-319.49 1276.51,-282.73 1232.91,-239.39 1271.43,-197.87 1317,-148.73 1397.8,-130.23 1439.64,-123.71"/>
</g>
<!-- MOVING DOWN -->
<g id="node23" class="node">
<title>MOVING DOWN</title>
<ellipse fill="lightcoral" stroke="black" cx="1563.43" cy="-416.3" rx="60.62" ry="60.62"/>
<text text-anchor="middle" x="1563.43" y="-414.1" font-family="Times New Roman,serif" font-size="9.00">MOVING DOWN</text>
</g>
<!-- 6460 -->
<g id="node36" class="node">
<title>6460</title>
<ellipse fill="lightgreen" stroke="black" cx="1493.43" cy="-258.68" rx="25" ry="25"/>
<text text-anchor="middle" x="1493.43" y="-256.48" font-family="Times New Roman,serif" font-size="9.00">6460</text>
</g>
<!-- MOVING DOWN&#45;&gt;6460 -->
<g id="edge44" class="edge">
<title>MOVING DOWN&#45;&gt;6460</title>
<path fill="none" stroke="green" stroke-width="0.49" d="M1538.75,-360.43C1526.54,-333.3 1512.5,-302.09 1503.33,-281.68"/>
</g>
<!-- MOVING RIGHT -->
<g id="node24" class="node">
<title>MOVING RIGHT</title>
<ellipse fill="lightcoral" stroke="black" cx="1163.43" cy="-258.68" rx="60.62" ry="60.62"/>
<text text-anchor="middle" x="1163.43" y="-256.48" font-family="Times New Roman,serif" font-size="9.00">MOVING RIGHT</text>
</g>
<!-- MOVING RIGHT&#45;&gt;UP -->
<g id="edge29" class="edge">
<title>MOVING RIGHT&#45;&gt;UP</title>
<path fill="none" stroke="red" stroke-width="0.35" d="M1155.6,-198.08C1148.84,-146.56 1139.47,-75.18 1135,-41.12"/>
</g>
<!-- MOVING RIGHT&#45;&gt;LEFT -->
<g id="edge30" class="edge">
<title>MOVING RIGHT&#45;&gt;LEFT</title>
<path fill="none" stroke="green" stroke-width="0.11" d="M1208.47,-217.69C1217.95,-210.46 1228.2,-203.46 1238.43,-197.87 1306.84,-160.47 1396.58,-136.47 1440.26,-126.19"/>
</g>
<!-- MOVING LEFT -->
<g id="node25" class="node">
<title>MOVING LEFT</title>
<ellipse fill="lightcoral" stroke="black" cx="1326.43" cy="-416.3" rx="55.72" ry="55.72"/>
<text text-anchor="middle" x="1326.43" y="-414.1" font-family="Times New Roman,serif" font-size="9.00">MOVING LEFT</text>
</g>
<!-- MOVING LEFT&#45;&gt;RIGHT -->
<g id="edge31" class="edge">
<title>MOVING LEFT&#45;&gt;RIGHT</title>
<path fill="none" stroke="red" stroke-width="0.23" d="M1321.49,-360.43C1319.38,-336.98 1317,-310.47 1315.2,-290.54"/>
</g>
<!-- RIGHT&#45;&gt;3773 -->
<g id="edge43" class="edge">
<title>RIGHT&#45;&gt;3773</title>
<path fill="none" stroke="green" stroke-width="0.35" d="M1289.54,-236.34C1274.6,-223.47 1254.08,-207.71 1233.43,-197.87 1132.57,-149.78 998.78,-129.67 944.19,-123.09"/>
</g>
<!-- 2853 -->
<g id="node31" class="node">
<title>2853</title>
<ellipse fill="lightgreen" stroke="black" cx="1020.43" cy="-416.3" rx="25" ry="25"/>
<text text-anchor="middle" x="1020.43" y="-414.1" font-family="Times New Roman,serif" font-size="9.00">2853</text>
</g>
<!-- 2853&#45;&gt;RIGHT -->
<g id="edge33" class="edge">
<title>2853&#45;&gt;RIGHT</title>
<path fill="none" stroke="red" stroke-width="0.18" d="M1027.79,-392.57C1033.14,-379.68 1041.71,-364.4 1054.43,-355.49 1132.7,-300.66 1184.54,-368.76 1266.43,-319.49 1279.33,-311.72 1289.93,-298.86 1297.68,-287.05"/>
</g>
<!-- 6590&#45;&gt;DOWN -->
<g id="edge47" class="edge">
<title>6590&#45;&gt;DOWN</title>
<path fill="none" stroke="red" stroke-width="0.24" d="M58.78,-240.04C72.38,-226.45 92.93,-208.27 114.43,-197.87 229.01,-142.4 382.68,-126.48 448.42,-122.06"/>
</g>
<!-- 5067&#45;&gt;UP -->
<g id="edge41" class="edge">
<title>5067&#45;&gt;UP</title>
<path fill="none" stroke="green" stroke-width="0.15" d="M1936.78,-98.37C1930.13,-90.28 1921.42,-81.76 1911.43,-77.01 1841.08,-43.61 1269.56,-25.45 1153.1,-22.08"/>
</g>
<!-- 6028 -->
<g id="node34" class="node">
<title>6028</title>
<ellipse fill="lightgreen" stroke="black" cx="565.43" cy="-258.68" rx="25" ry="25"/>
<text text-anchor="middle" x="565.43" y="-256.48" font-family="Times New Roman,serif" font-size="9.00">6028</text>
</g>
<!-- 6028&#45;&gt;DOWN -->
<g id="edge42" class="edge">
<title>6028&#45;&gt;DOWN</title>
<path fill="none" stroke="red" stroke-width="0.67" d="M553.96,-236.72C547.52,-225.15 539.23,-210.6 531.43,-197.87 520.75,-180.43 508.11,-161.24 498.09,-146.33"/>
</g>
<!-- 4891&#45;&gt;DOWN -->
<g id="edge37" class="edge">
<title>4891&#45;&gt;DOWN</title>
<path fill="none" stroke="green" stroke-width="0.21" d="M157.83,-235.62C164.36,-222.81 174.26,-207.38 187.43,-197.87 268.67,-139.17 391.25,-124.95 448.65,-121.52"/>
</g>
<!-- 6460&#45;&gt;LEFT -->
<g id="edge45" class="edge">
<title>6460&#45;&gt;LEFT</title>
<path fill="none" stroke="red" stroke-width="0.22" d="M1488.78,-234.08C1483.96,-209.56 1476.43,-171.3 1471.47,-146.05"/>
</g>
<!-- 3773&#45;&gt;UP -->
<g id="edge35" class="edge">
<title>3773&#45;&gt;UP</title>
<path fill="none" stroke="red" stroke-width="0.26" d="M934.04,-99.04C940.74,-91.27 949.23,-82.8 958.43,-77.01 1008.6,-45.41 1078.31,-30.36 1112.25,-24.54"/>
</g>
<!-- 5022&#45;&gt;LEFT -->
<g id="edge39" class="edge">
<title>5022&#45;&gt;LEFT</title>
<path fill="none" stroke="red" stroke-width="0.51" d="M1691.46,-235.88C1684.77,-223.32 1674.91,-208.06 1662.43,-197.87 1610.7,-155.64 1533.11,-134.27 1492.83,-125.48"/>
</g>
</g>
</svg>
