<?xml version="1.0" encoding="utf-8" standalone="no"?>
<!DOCTYPE svg PUBLIC "-//W3C//DTD SVG 1.1//EN"
  "http://www.w3.org/Graphics/SVG/1.1/DTD/svg11.dtd">
<svg xmlns:xlink="http://www.w3.org/1999/xlink" width="460.8pt" height="345.6pt" viewBox="0 0 460.8 345.6" xmlns="http://www.w3.org/2000/svg" version="1.1">
 <metadata>
  <rdf:RDF xmlns:dc="http://purl.org/dc/elements/1.1/" xmlns:cc="http://creativecommons.org/ns#" xmlns:rdf="http://www.w3.org/1999/02/22-rdf-syntax-ns#">
   <cc:Work>
    <dc:type rdf:resource="http://purl.org/dc/dcmitype/StillImage"/>
    <dc:date>2022-08-10T21:03:27.982059</dc:date>
    <dc:format>image/svg+xml</dc:format>
    <dc:creator>
     <cc:Agent>
      <dc:title>Matplotlib v3.5.2, https://matplotlib.org/</dc:title>
     </cc:Agent>
    </dc:creator>
   </cc:Work>
  </rdf:RDF>
 </metadata>
 <defs>
  <style type="text/css">*{stroke-linejoin: round; stroke-linecap: butt}</style>
 </defs>
 <g id="figure_1">
  <g id="patch_1">
   <path d="M 0 345.6 
L 460.8 345.6 
L 460.8 0 
L 0 0 
z
" style="fill: #ffffff"/>
  </g>
  <g id="axes_1">
   <g id="patch_2">
    <path d="M 57.6 307.584 
L 414.72 307.584 
L 414.72 41.472 
L 57.6 41.472 
z
" style="fill: #ffffff"/>
   </g>
   <g id="matplotlib.axis_1">
    <g id="xtick_1">
     <g id="line2d_1">
      <path d="M 73.832727 307.584 
L 73.832727 41.472 
" clip-path="url(#p6db1081374)" style="fill: none; stroke: #b0b0b0; stroke-width: 0.8; stroke-linecap: square"/>
     </g>
     <g id="line2d_2">
      <defs>
       <path id="mffe5ae67b2" d="M 0 0 
L 0 3.5 
" style="stroke: #000000; stroke-width: 0.8"/>
      </defs>
      <g>
       <use xlink:href="#mffe5ae67b2" x="73.832727" y="307.584" style="stroke: #000000; stroke-width: 0.8"/>
      </g>
     </g>
     <g id="text_1">
      <!-- 0 -->
      <g transform="translate(70.651477 322.182437)scale(0.1 -0.1)">
       <defs>
        <path id="DejaVuSans-30" d="M 2034 4250 
Q 1547 4250 1301 3770 
Q 1056 3291 1056 2328 
Q 1056 1369 1301 889 
Q 1547 409 2034 409 
Q 2525 409 2770 889 
Q 3016 1369 3016 2328 
Q 3016 3291 2770 3770 
Q 2525 4250 2034 4250 
z
M 2034 4750 
Q 2819 4750 3233 4129 
Q 3647 3509 3647 2328 
Q 3647 1150 3233 529 
Q 2819 -91 2034 -91 
Q 1250 -91 836 529 
Q 422 1150 422 2328 
Q 422 3509 836 4129 
Q 1250 4750 2034 4750 
z
" transform="scale(0.015625)"/>
       </defs>
       <use xlink:href="#DejaVuSans-30"/>
      </g>
     </g>
    </g>
    <g id="xtick_2">
     <g id="line2d_3">
      <path d="M 114.618474 307.584 
L 114.618474 41.472 
" clip-path="url(#p6db1081374)" style="fill: none; stroke: #b0b0b0; stroke-width: 0.8; stroke-linecap: square"/>
     </g>
     <g id="line2d_4">
      <g>
       <use xlink:href="#mffe5ae67b2" x="114.618474" y="307.584" style="stroke: #000000; stroke-width: 0.8"/>
      </g>
     </g>
     <g id="text_2">
      <!-- 25 -->
      <g transform="translate(108.255974 322.182437)scale(0.1 -0.1)">
       <defs>
        <path id="DejaVuSans-32" d="M 1228 531 
L 3431 531 
L 3431 0 
L 469 0 
L 469 531 
Q 828 903 1448 1529 
Q 2069 2156 2228 2338 
Q 2531 2678 2651 2914 
Q 2772 3150 2772 3378 
Q 2772 3750 2511 3984 
Q 2250 4219 1831 4219 
Q 1534 4219 1204 4116 
Q 875 4013 500 3803 
L 500 4441 
Q 881 4594 1212 4672 
Q 1544 4750 1819 4750 
Q 2544 4750 2975 4387 
Q 3406 4025 3406 3419 
Q 3406 3131 3298 2873 
Q 3191 2616 2906 2266 
Q 2828 2175 2409 1742 
Q 1991 1309 1228 531 
z
" transform="scale(0.015625)"/>
        <path id="DejaVuSans-35" d="M 691 4666 
L 3169 4666 
L 3169 4134 
L 1269 4134 
L 1269 2991 
Q 1406 3038 1543 3061 
Q 1681 3084 1819 3084 
Q 2600 3084 3056 2656 
Q 3513 2228 3513 1497 
Q 3513 744 3044 326 
Q 2575 -91 1722 -91 
Q 1428 -91 1123 -41 
Q 819 9 494 109 
L 494 744 
Q 775 591 1075 516 
Q 1375 441 1709 441 
Q 2250 441 2565 725 
Q 2881 1009 2881 1497 
Q 2881 1984 2565 2268 
Q 2250 2553 1709 2553 
Q 1456 2553 1204 2497 
Q 953 2441 691 2322 
L 691 4666 
z
" transform="scale(0.015625)"/>
       </defs>
       <use xlink:href="#DejaVuSans-32"/>
       <use xlink:href="#DejaVuSans-35" x="63.623047"/>
      </g>
     </g>
    </g>
    <g id="xtick_3">
     <g id="line2d_5">
      <path d="M 155.404221 307.584 
L 155.404221 41.472 
" clip-path="url(#p6db1081374)" style="fill: none; stroke: #b0b0b0; stroke-width: 0.8; stroke-linecap: square"/>
     </g>
     <g id="line2d_6">
      <g>
       <use xlink:href="#mffe5ae67b2" x="155.404221" y="307.584" style="stroke: #000000; stroke-width: 0.8"/>
      </g>
     </g>
     <g id="text_3">
      <!-- 50 -->
      <g transform="translate(149.041721 322.182437)scale(0.1 -0.1)">
       <use xlink:href="#DejaVuSans-35"/>
       <use xlink:href="#DejaVuSans-30" x="63.623047"/>
      </g>
     </g>
    </g>
    <g id="xtick_4">
     <g id="line2d_7">
      <path d="M 196.189968 307.584 
L 196.189968 41.472 
" clip-path="url(#p6db1081374)" style="fill: none; stroke: #b0b0b0; stroke-width: 0.8; stroke-linecap: square"/>
     </g>
     <g id="line2d_8">
      <g>
       <use xlink:href="#mffe5ae67b2" x="196.189968" y="307.584" style="stroke: #000000; stroke-width: 0.8"/>
      </g>
     </g>
     <g id="text_4">
      <!-- 75 -->
      <g transform="translate(189.827468 322.182437)scale(0.1 -0.1)">
       <defs>
        <path id="DejaVuSans-37" d="M 525 4666 
L 3525 4666 
L 3525 4397 
L 1831 0 
L 1172 0 
L 2766 4134 
L 525 4134 
L 525 4666 
z
" transform="scale(0.015625)"/>
       </defs>
       <use xlink:href="#DejaVuSans-37"/>
       <use xlink:href="#DejaVuSans-35" x="63.623047"/>
      </g>
     </g>
    </g>
    <g id="xtick_5">
     <g id="line2d_9">
      <path d="M 236.975715 307.584 
L 236.975715 41.472 
" clip-path="url(#p6db1081374)" style="fill: none; stroke: #b0b0b0; stroke-width: 0.8; stroke-linecap: square"/>
     </g>
     <g id="line2d_10">
      <g>
       <use xlink:href="#mffe5ae67b2" x="236.975715" y="307.584" style="stroke: #000000; stroke-width: 0.8"/>
      </g>
     </g>
     <g id="text_5">
      <!-- 100 -->
      <g transform="translate(227.431965 322.182437)scale(0.1 -0.1)">
       <defs>
        <path id="DejaVuSans-31" d="M 794 531 
L 1825 531 
L 1825 4091 
L 703 3866 
L 703 4441 
L 1819 4666 
L 2450 4666 
L 2450 531 
L 3481 531 
L 3481 0 
L 794 0 
L 794 531 
z
" transform="scale(0.015625)"/>
       </defs>
       <use xlink:href="#DejaVuSans-31"/>
       <use xlink:href="#DejaVuSans-30" x="63.623047"/>
       <use xlink:href="#DejaVuSans-30" x="127.246094"/>
      </g>
     </g>
    </g>
    <g id="xtick_6">
     <g id="line2d_11">
      <path d="M 277.761462 307.584 
L 277.761462 41.472 
" clip-path="url(#p6db1081374)" style="fill: none; stroke: #b0b0b0; stroke-width: 0.8; stroke-linecap: square"/>
     </g>
     <g id="line2d_12">
      <g>
       <use xlink:href="#mffe5ae67b2" x="277.761462" y="307.584" style="stroke: #000000; stroke-width: 0.8"/>
      </g>
     </g>
     <g id="text_6">
      <!-- 125 -->
      <g transform="translate(268.217712 322.182437)scale(0.1 -0.1)">
       <use xlink:href="#DejaVuSans-31"/>
       <use xlink:href="#DejaVuSans-32" x="63.623047"/>
       <use xlink:href="#DejaVuSans-35" x="127.246094"/>
      </g>
     </g>
    </g>
    <g id="xtick_7">
     <g id="line2d_13">
      <path d="M 318.547209 307.584 
L 318.547209 41.472 
" clip-path="url(#p6db1081374)" style="fill: none; stroke: #b0b0b0; stroke-width: 0.8; stroke-linecap: square"/>
     </g>
     <g id="line2d_14">
      <g>
       <use xlink:href="#mffe5ae67b2" x="318.547209" y="307.584" style="stroke: #000000; stroke-width: 0.8"/>
      </g>
     </g>
     <g id="text_7">
      <!-- 150 -->
      <g transform="translate(309.003459 322.182437)scale(0.1 -0.1)">
       <use xlink:href="#DejaVuSans-31"/>
       <use xlink:href="#DejaVuSans-35" x="63.623047"/>
       <use xlink:href="#DejaVuSans-30" x="127.246094"/>
      </g>
     </g>
    </g>
    <g id="xtick_8">
     <g id="line2d_15">
      <path d="M 359.332956 307.584 
L 359.332956 41.472 
" clip-path="url(#p6db1081374)" style="fill: none; stroke: #b0b0b0; stroke-width: 0.8; stroke-linecap: square"/>
     </g>
     <g id="line2d_16">
      <g>
       <use xlink:href="#mffe5ae67b2" x="359.332956" y="307.584" style="stroke: #000000; stroke-width: 0.8"/>
      </g>
     </g>
     <g id="text_8">
      <!-- 175 -->
      <g transform="translate(349.789206 322.182437)scale(0.1 -0.1)">
       <use xlink:href="#DejaVuSans-31"/>
       <use xlink:href="#DejaVuSans-37" x="63.623047"/>
       <use xlink:href="#DejaVuSans-35" x="127.246094"/>
      </g>
     </g>
    </g>
    <g id="xtick_9">
     <g id="line2d_17">
      <path d="M 400.118703 307.584 
L 400.118703 41.472 
" clip-path="url(#p6db1081374)" style="fill: none; stroke: #b0b0b0; stroke-width: 0.8; stroke-linecap: square"/>
     </g>
     <g id="line2d_18">
      <g>
       <use xlink:href="#mffe5ae67b2" x="400.118703" y="307.584" style="stroke: #000000; stroke-width: 0.8"/>
      </g>
     </g>
     <g id="text_9">
      <!-- 200 -->
      <g transform="translate(390.574953 322.182437)scale(0.1 -0.1)">
       <use xlink:href="#DejaVuSans-32"/>
       <use xlink:href="#DejaVuSans-30" x="63.623047"/>
       <use xlink:href="#DejaVuSans-30" x="127.246094"/>
      </g>
     </g>
    </g>
    <g id="text_10">
     <!-- Generations -->
     <g transform="translate(205.662344 335.860562)scale(0.1 -0.1)">
      <defs>
       <path id="DejaVuSans-47" d="M 3809 666 
L 3809 1919 
L 2778 1919 
L 2778 2438 
L 4434 2438 
L 4434 434 
Q 4069 175 3628 42 
Q 3188 -91 2688 -91 
Q 1594 -91 976 548 
Q 359 1188 359 2328 
Q 359 3472 976 4111 
Q 1594 4750 2688 4750 
Q 3144 4750 3555 4637 
Q 3966 4525 4313 4306 
L 4313 3634 
Q 3963 3931 3569 4081 
Q 3175 4231 2741 4231 
Q 1884 4231 1454 3753 
Q 1025 3275 1025 2328 
Q 1025 1384 1454 906 
Q 1884 428 2741 428 
Q 3075 428 3337 486 
Q 3600 544 3809 666 
z
" transform="scale(0.015625)"/>
       <path id="DejaVuSans-65" d="M 3597 1894 
L 3597 1613 
L 953 1613 
Q 991 1019 1311 708 
Q 1631 397 2203 397 
Q 2534 397 2845 478 
Q 3156 559 3463 722 
L 3463 178 
Q 3153 47 2828 -22 
Q 2503 -91 2169 -91 
Q 1331 -91 842 396 
Q 353 884 353 1716 
Q 353 2575 817 3079 
Q 1281 3584 2069 3584 
Q 2775 3584 3186 3129 
Q 3597 2675 3597 1894 
z
M 3022 2063 
Q 3016 2534 2758 2815 
Q 2500 3097 2075 3097 
Q 1594 3097 1305 2825 
Q 1016 2553 972 2059 
L 3022 2063 
z
" transform="scale(0.015625)"/>
       <path id="DejaVuSans-6e" d="M 3513 2113 
L 3513 0 
L 2938 0 
L 2938 2094 
Q 2938 2591 2744 2837 
Q 2550 3084 2163 3084 
Q 1697 3084 1428 2787 
Q 1159 2491 1159 1978 
L 1159 0 
L 581 0 
L 581 3500 
L 1159 3500 
L 1159 2956 
Q 1366 3272 1645 3428 
Q 1925 3584 2291 3584 
Q 2894 3584 3203 3211 
Q 3513 2838 3513 2113 
z
" transform="scale(0.015625)"/>
       <path id="DejaVuSans-72" d="M 2631 2963 
Q 2534 3019 2420 3045 
Q 2306 3072 2169 3072 
Q 1681 3072 1420 2755 
Q 1159 2438 1159 1844 
L 1159 0 
L 581 0 
L 581 3500 
L 1159 3500 
L 1159 2956 
Q 1341 3275 1631 3429 
Q 1922 3584 2338 3584 
Q 2397 3584 2469 3576 
Q 2541 3569 2628 3553 
L 2631 2963 
z
" transform="scale(0.015625)"/>
       <path id="DejaVuSans-61" d="M 2194 1759 
Q 1497 1759 1228 1600 
Q 959 1441 959 1056 
Q 959 750 1161 570 
Q 1363 391 1709 391 
Q 2188 391 2477 730 
Q 2766 1069 2766 1631 
L 2766 1759 
L 2194 1759 
z
M 3341 1997 
L 3341 0 
L 2766 0 
L 2766 531 
Q 2569 213 2275 61 
Q 1981 -91 1556 -91 
Q 1019 -91 701 211 
Q 384 513 384 1019 
Q 384 1609 779 1909 
Q 1175 2209 1959 2209 
L 2766 2209 
L 2766 2266 
Q 2766 2663 2505 2880 
Q 2244 3097 1772 3097 
Q 1472 3097 1187 3025 
Q 903 2953 641 2809 
L 641 3341 
Q 956 3463 1253 3523 
Q 1550 3584 1831 3584 
Q 2591 3584 2966 3190 
Q 3341 2797 3341 1997 
z
" transform="scale(0.015625)"/>
       <path id="DejaVuSans-74" d="M 1172 4494 
L 1172 3500 
L 2356 3500 
L 2356 3053 
L 1172 3053 
L 1172 1153 
Q 1172 725 1289 603 
Q 1406 481 1766 481 
L 2356 481 
L 2356 0 
L 1766 0 
Q 1100 0 847 248 
Q 594 497 594 1153 
L 594 3053 
L 172 3053 
L 172 3500 
L 594 3500 
L 594 4494 
L 1172 4494 
z
" transform="scale(0.015625)"/>
       <path id="DejaVuSans-69" d="M 603 3500 
L 1178 3500 
L 1178 0 
L 603 0 
L 603 3500 
z
M 603 4863 
L 1178 4863 
L 1178 4134 
L 603 4134 
L 603 4863 
z
" transform="scale(0.015625)"/>
       <path id="DejaVuSans-6f" d="M 1959 3097 
Q 1497 3097 1228 2736 
Q 959 2375 959 1747 
Q 959 1119 1226 758 
Q 1494 397 1959 397 
Q 2419 397 2687 759 
Q 2956 1122 2956 1747 
Q 2956 2369 2687 2733 
Q 2419 3097 1959 3097 
z
M 1959 3584 
Q 2709 3584 3137 3096 
Q 3566 2609 3566 1747 
Q 3566 888 3137 398 
Q 2709 -91 1959 -91 
Q 1206 -91 779 398 
Q 353 888 353 1747 
Q 353 2609 779 3096 
Q 1206 3584 1959 3584 
z
" transform="scale(0.015625)"/>
       <path id="DejaVuSans-73" d="M 2834 3397 
L 2834 2853 
Q 2591 2978 2328 3040 
Q 2066 3103 1784 3103 
Q 1356 3103 1142 2972 
Q 928 2841 928 2578 
Q 928 2378 1081 2264 
Q 1234 2150 1697 2047 
L 1894 2003 
Q 2506 1872 2764 1633 
Q 3022 1394 3022 966 
Q 3022 478 2636 193 
Q 2250 -91 1575 -91 
Q 1294 -91 989 -36 
Q 684 19 347 128 
L 347 722 
Q 666 556 975 473 
Q 1284 391 1588 391 
Q 1994 391 2212 530 
Q 2431 669 2431 922 
Q 2431 1156 2273 1281 
Q 2116 1406 1581 1522 
L 1381 1569 
Q 847 1681 609 1914 
Q 372 2147 372 2553 
Q 372 3047 722 3315 
Q 1072 3584 1716 3584 
Q 2034 3584 2315 3537 
Q 2597 3491 2834 3397 
z
" transform="scale(0.015625)"/>
      </defs>
      <use xlink:href="#DejaVuSans-47"/>
      <use xlink:href="#DejaVuSans-65" x="77.490234"/>
      <use xlink:href="#DejaVuSans-6e" x="139.013672"/>
      <use xlink:href="#DejaVuSans-65" x="202.392578"/>
      <use xlink:href="#DejaVuSans-72" x="263.916016"/>
      <use xlink:href="#DejaVuSans-61" x="305.029297"/>
      <use xlink:href="#DejaVuSans-74" x="366.308594"/>
      <use xlink:href="#DejaVuSans-69" x="405.517578"/>
      <use xlink:href="#DejaVuSans-6f" x="433.300781"/>
      <use xlink:href="#DejaVuSans-6e" x="494.482422"/>
      <use xlink:href="#DejaVuSans-73" x="557.861328"/>
     </g>
    </g>
   </g>
   <g id="matplotlib.axis_2">
    <g id="ytick_1">
     <g id="line2d_19">
      <path d="M 57.6 286.972771 
L 414.72 286.972771 
" clip-path="url(#p6db1081374)" style="fill: none; stroke: #b0b0b0; stroke-width: 0.8; stroke-linecap: square"/>
     </g>
     <g id="line2d_20">
      <defs>
       <path id="m7e09d51de8" d="M 0 0 
L -3.5 0 
" style="stroke: #000000; stroke-width: 0.8"/>
      </defs>
      <g>
       <use xlink:href="#m7e09d51de8" x="57.6" y="286.972771" style="stroke: #000000; stroke-width: 0.8"/>
      </g>
     </g>
     <g id="text_11">
      <!-- 0 -->
      <g transform="translate(44.2375 290.771989)scale(0.1 -0.1)">
       <use xlink:href="#DejaVuSans-30"/>
      </g>
     </g>
    </g>
    <g id="ytick_2">
     <g id="line2d_21">
      <path d="M 57.6 254.098859 
L 414.72 254.098859 
" clip-path="url(#p6db1081374)" style="fill: none; stroke: #b0b0b0; stroke-width: 0.8; stroke-linecap: square"/>
     </g>
     <g id="line2d_22">
      <g>
       <use xlink:href="#m7e09d51de8" x="57.6" y="254.098859" style="stroke: #000000; stroke-width: 0.8"/>
      </g>
     </g>
     <g id="text_12">
      <!-- 20 -->
      <g transform="translate(37.875 257.898078)scale(0.1 -0.1)">
       <use xlink:href="#DejaVuSans-32"/>
       <use xlink:href="#DejaVuSans-30" x="63.623047"/>
      </g>
     </g>
    </g>
    <g id="ytick_3">
     <g id="line2d_23">
      <path d="M 57.6 221.224948 
L 414.72 221.224948 
" clip-path="url(#p6db1081374)" style="fill: none; stroke: #b0b0b0; stroke-width: 0.8; stroke-linecap: square"/>
     </g>
     <g id="line2d_24">
      <g>
       <use xlink:href="#m7e09d51de8" x="57.6" y="221.224948" style="stroke: #000000; stroke-width: 0.8"/>
      </g>
     </g>
     <g id="text_13">
      <!-- 40 -->
      <g transform="translate(37.875 225.024167)scale(0.1 -0.1)">
       <defs>
        <path id="DejaVuSans-34" d="M 2419 4116 
L 825 1625 
L 2419 1625 
L 2419 4116 
z
M 2253 4666 
L 3047 4666 
L 3047 1625 
L 3713 1625 
L 3713 1100 
L 3047 1100 
L 3047 0 
L 2419 0 
L 2419 1100 
L 313 1100 
L 313 1709 
L 2253 4666 
z
" transform="scale(0.015625)"/>
       </defs>
       <use xlink:href="#DejaVuSans-34"/>
       <use xlink:href="#DejaVuSans-30" x="63.623047"/>
      </g>
     </g>
    </g>
    <g id="ytick_4">
     <g id="line2d_25">
      <path d="M 57.6 188.351037 
L 414.72 188.351037 
" clip-path="url(#p6db1081374)" style="fill: none; stroke: #b0b0b0; stroke-width: 0.8; stroke-linecap: square"/>
     </g>
     <g id="line2d_26">
      <g>
       <use xlink:href="#m7e09d51de8" x="57.6" y="188.351037" style="stroke: #000000; stroke-width: 0.8"/>
      </g>
     </g>
     <g id="text_14">
      <!-- 60 -->
      <g transform="translate(37.875 192.150255)scale(0.1 -0.1)">
       <defs>
        <path id="DejaVuSans-36" d="M 2113 2584 
Q 1688 2584 1439 2293 
Q 1191 2003 1191 1497 
Q 1191 994 1439 701 
Q 1688 409 2113 409 
Q 2538 409 2786 701 
Q 3034 994 3034 1497 
Q 3034 2003 2786 2293 
Q 2538 2584 2113 2584 
z
M 3366 4563 
L 3366 3988 
Q 3128 4100 2886 4159 
Q 2644 4219 2406 4219 
Q 1781 4219 1451 3797 
Q 1122 3375 1075 2522 
Q 1259 2794 1537 2939 
Q 1816 3084 2150 3084 
Q 2853 3084 3261 2657 
Q 3669 2231 3669 1497 
Q 3669 778 3244 343 
Q 2819 -91 2113 -91 
Q 1303 -91 875 529 
Q 447 1150 447 2328 
Q 447 3434 972 4092 
Q 1497 4750 2381 4750 
Q 2619 4750 2861 4703 
Q 3103 4656 3366 4563 
z
" transform="scale(0.015625)"/>
       </defs>
       <use xlink:href="#DejaVuSans-36"/>
       <use xlink:href="#DejaVuSans-30" x="63.623047"/>
      </g>
     </g>
    </g>
    <g id="ytick_5">
     <g id="line2d_27">
      <path d="M 57.6 155.477125 
L 414.72 155.477125 
" clip-path="url(#p6db1081374)" style="fill: none; stroke: #b0b0b0; stroke-width: 0.8; stroke-linecap: square"/>
     </g>
     <g id="line2d_28">
      <g>
       <use xlink:href="#m7e09d51de8" x="57.6" y="155.477125" style="stroke: #000000; stroke-width: 0.8"/>
      </g>
     </g>
     <g id="text_15">
      <!-- 80 -->
      <g transform="translate(37.875 159.276344)scale(0.1 -0.1)">
       <defs>
        <path id="DejaVuSans-38" d="M 2034 2216 
Q 1584 2216 1326 1975 
Q 1069 1734 1069 1313 
Q 1069 891 1326 650 
Q 1584 409 2034 409 
Q 2484 409 2743 651 
Q 3003 894 3003 1313 
Q 3003 1734 2745 1975 
Q 2488 2216 2034 2216 
z
M 1403 2484 
Q 997 2584 770 2862 
Q 544 3141 544 3541 
Q 544 4100 942 4425 
Q 1341 4750 2034 4750 
Q 2731 4750 3128 4425 
Q 3525 4100 3525 3541 
Q 3525 3141 3298 2862 
Q 3072 2584 2669 2484 
Q 3125 2378 3379 2068 
Q 3634 1759 3634 1313 
Q 3634 634 3220 271 
Q 2806 -91 2034 -91 
Q 1263 -91 848 271 
Q 434 634 434 1313 
Q 434 1759 690 2068 
Q 947 2378 1403 2484 
z
M 1172 3481 
Q 1172 3119 1398 2916 
Q 1625 2713 2034 2713 
Q 2441 2713 2670 2916 
Q 2900 3119 2900 3481 
Q 2900 3844 2670 4047 
Q 2441 4250 2034 4250 
Q 1625 4250 1398 4047 
Q 1172 3844 1172 3481 
z
" transform="scale(0.015625)"/>
       </defs>
       <use xlink:href="#DejaVuSans-38"/>
       <use xlink:href="#DejaVuSans-30" x="63.623047"/>
      </g>
     </g>
    </g>
    <g id="ytick_6">
     <g id="line2d_29">
      <path d="M 57.6 122.603214 
L 414.72 122.603214 
" clip-path="url(#p6db1081374)" style="fill: none; stroke: #b0b0b0; stroke-width: 0.8; stroke-linecap: square"/>
     </g>
     <g id="line2d_30">
      <g>
       <use xlink:href="#m7e09d51de8" x="57.6" y="122.603214" style="stroke: #000000; stroke-width: 0.8"/>
      </g>
     </g>
     <g id="text_16">
      <!-- 100 -->
      <g transform="translate(31.5125 126.402433)scale(0.1 -0.1)">
       <use xlink:href="#DejaVuSans-31"/>
       <use xlink:href="#DejaVuSans-30" x="63.623047"/>
       <use xlink:href="#DejaVuSans-30" x="127.246094"/>
      </g>
     </g>
    </g>
    <g id="ytick_7">
     <g id="line2d_31">
      <path d="M 57.6 89.729303 
L 414.72 89.729303 
" clip-path="url(#p6db1081374)" style="fill: none; stroke: #b0b0b0; stroke-width: 0.8; stroke-linecap: square"/>
     </g>
     <g id="line2d_32">
      <g>
       <use xlink:href="#m7e09d51de8" x="57.6" y="89.729303" style="stroke: #000000; stroke-width: 0.8"/>
      </g>
     </g>
     <g id="text_17">
      <!-- 120 -->
      <g transform="translate(31.5125 93.528521)scale(0.1 -0.1)">
       <use xlink:href="#DejaVuSans-31"/>
       <use xlink:href="#DejaVuSans-32" x="63.623047"/>
       <use xlink:href="#DejaVuSans-30" x="127.246094"/>
      </g>
     </g>
    </g>
    <g id="ytick_8">
     <g id="line2d_33">
      <path d="M 57.6 56.855391 
L 414.72 56.855391 
" clip-path="url(#p6db1081374)" style="fill: none; stroke: #b0b0b0; stroke-width: 0.8; stroke-linecap: square"/>
     </g>
     <g id="line2d_34">
      <g>
       <use xlink:href="#m7e09d51de8" x="57.6" y="56.855391" style="stroke: #000000; stroke-width: 0.8"/>
      </g>
     </g>
     <g id="text_18">
      <!-- 140 -->
      <g transform="translate(31.5125 60.65461)scale(0.1 -0.1)">
       <use xlink:href="#DejaVuSans-31"/>
       <use xlink:href="#DejaVuSans-34" x="63.623047"/>
       <use xlink:href="#DejaVuSans-30" x="127.246094"/>
      </g>
     </g>
    </g>
    <g id="text_19">
     <!-- Fitness -->
     <g transform="translate(25.432812 191.845187)rotate(-90)scale(0.1 -0.1)">
      <defs>
       <path id="DejaVuSans-46" d="M 628 4666 
L 3309 4666 
L 3309 4134 
L 1259 4134 
L 1259 2759 
L 3109 2759 
L 3109 2228 
L 1259 2228 
L 1259 0 
L 628 0 
L 628 4666 
z
" transform="scale(0.015625)"/>
      </defs>
      <use xlink:href="#DejaVuSans-46"/>
      <use xlink:href="#DejaVuSans-69" x="50.269531"/>
      <use xlink:href="#DejaVuSans-74" x="78.052734"/>
      <use xlink:href="#DejaVuSans-6e" x="117.261719"/>
      <use xlink:href="#DejaVuSans-65" x="180.640625"/>
      <use xlink:href="#DejaVuSans-73" x="242.164062"/>
      <use xlink:href="#DejaVuSans-73" x="294.263672"/>
     </g>
    </g>
   </g>
   <g id="line2d_35">
    <path d="M 73.832727 197.726189 
L 75.464157 198.92786 
L 77.095587 203.374414 
L 78.727017 203.46871 
L 80.358447 204.17841 
L 81.989877 192.362951 
L 83.621307 196.733884 
L 85.252736 204.426379 
L 86.884166 208.300547 
L 88.515596 198.897164 
L 90.147026 199.353733 
L 91.778456 200.065107 
L 93.409886 208.086197 
L 95.041316 209.34307 
L 96.672746 208.9513 
L 98.304175 207.131369 
L 99.935605 200.971088 
L 101.567035 211.012119 
L 103.198465 208.486307 
L 104.829895 201.011935 
L 106.461325 204.688709 
L 108.092755 208.086415 
L 109.724185 210.259623 
L 111.355614 205.985386 
L 112.987044 215.362434 
L 114.618474 218.558025 
L 116.249904 213.598201 
L 117.881334 216.856468 
L 119.512764 216.381525 
L 121.144194 226.732961 
L 122.775624 195.907624 
L 124.407053 212.788762 
L 126.038483 212.392824 
L 127.669913 209.423214 
L 129.301343 209.829394 
L 130.932773 215.176148 
L 132.564203 221.291137 
L 134.195633 215.30329 
L 135.827063 214.485796 
L 137.458492 219.614126 
L 139.089922 214.286126 
L 140.721352 216.633558 
L 142.352782 210.113566 
L 143.984212 215.33412 
L 145.615642 215.256899 
L 147.247072 217.806061 
L 148.878502 226.696579 
L 150.509931 225.071196 
L 152.141361 209.849704 
L 153.772791 206.004327 
L 155.404221 215.559677 
L 157.035651 214.804607 
L 158.667081 215.695164 
L 160.298511 222.397451 
L 161.929941 210.711915 
L 163.56137 211.877799 
L 165.1928 210.230693 
L 166.82423 222.583736 
L 168.45566 218.266296 
L 170.08709 217.600109 
L 171.71852 222.400571 
L 173.34995 219.145836 
L 174.98138 213.992687 
L 176.61281 212.809227 
L 178.244239 218.014263 
L 179.875669 214.661197 
L 181.507099 216.955752 
L 183.138529 213.050302 
L 184.769959 209.588454 
L 186.401389 211.373733 
L 188.032819 211.199494 
L 189.664249 218.693657 
L 191.295678 209.817701 
L 192.927108 208.338375 
L 194.558538 216.589726 
L 196.189968 212.096959 
L 197.821398 221.780103 
L 199.452828 228.139427 
L 201.084258 219.723706 
L 202.715688 217.251777 
L 204.347117 216.523979 
L 205.978547 216.973255 
L 207.609977 209.861533 
L 209.241407 201.974956 
L 210.872837 206.762633 
L 212.504267 206.652318 
L 214.135697 211.781972 
L 215.767127 214.880283 
L 217.398556 216.721222 
L 219.029986 218.264119 
L 220.661416 213.920844 
L 222.292846 215.43914 
L 223.924276 222.485115 
L 225.555706 222.605652 
L 227.187136 209.817701 
L 228.818566 205.423555 
L 230.449995 219.139992 
L 232.081425 228.779416 
L 233.712855 219.362093 
L 235.344285 227.468785 
L 236.975715 229.169477 
L 238.607145 228.347629 
L 240.238575 219.912198 
L 241.870005 231.087121 
L 243.501434 224.950658 
L 245.132864 212.064085 
L 246.764294 219.077186 
L 248.395724 236.270241 
L 250.027154 222.09578 
L 251.658584 229.618753 
L 253.290014 225.957467 
L 254.921444 219.800412 
L 259.815733 234.451218 
L 261.447163 230.93371 
L 263.078593 224.359943 
L 264.710023 227.248155 
L 266.341453 218.386834 
L 267.972883 220.34831 
L 269.604312 220.425016 
L 271.235742 219.195149 
L 272.867172 222.295005 
L 274.498602 215.482971 
L 276.130032 221.531771 
L 277.761462 217.269121 
L 279.392892 219.175807 
L 281.024322 215.154232 
L 282.655751 216.260767 
L 284.287181 204.887947 
L 285.918611 204.876244 
L 287.550041 204.985236 
L 289.181471 203.819192 
L 290.812901 211.341147 
L 292.444331 208.754778 
L 294.075761 218.430665 
L 295.70719 210.735575 
L 297.33862 220.140109 
L 298.97005 220.56747 
L 300.60148 219.646565 
L 302.23291 222.934391 
L 303.86434 226.553169 
L 305.49577 214.528819 
L 307.1272 221.280106 
L 308.75863 208.521685 
L 312.021489 225.673884 
L 313.652919 217.352887 
L 315.284349 220.265206 
L 316.915779 215.874664 
L 318.547209 220.370226 
L 320.178639 215.011779 
L 321.810069 214.21475 
L 323.441498 210.025902 
L 325.072928 216.282903 
L 326.704358 214.275094 
L 328.335788 195.265516 
L 329.967218 210.56814 
L 331.598648 203.63414 
L 333.230078 206.170438 
L 334.861508 205.95273 
L 336.492937 200.314092 
L 338.124367 199.07889 
L 339.755797 198.894479 
L 341.387227 208.206879 
L 343.018657 207.052156 
L 346.281517 201.0543 
L 347.912947 211.633119 
L 349.544376 195.101146 
L 351.175806 202.162492 
L 352.807236 198.485345 
L 354.438666 212.283244 
L 356.070096 191.649459 
L 357.701526 195.786277 
L 359.332956 202.394154 
L 360.964386 210.519011 
L 362.595815 202.125205 
L 364.227245 200.59109 
L 365.858675 207.98772 
L 367.490105 207.494611 
L 369.121535 214.197874 
L 370.752965 205.747734 
L 372.384395 215.713089 
L 374.015825 208.294543 
L 375.647254 192.142494 
L 377.278684 208.228795 
L 378.910114 184.888318 
L 380.541544 200.350014 
L 382.172974 195.418928 
L 383.804404 206.727553 
L 385.435834 210.241578 
L 387.067264 201.213782 
L 388.698693 194.881693 
L 390.330123 186.365364 
L 391.961553 186.455308 
L 393.592983 193.682233 
L 395.224413 191.984469 
L 396.855843 186.433392 
L 398.487273 188.626824 
L 398.487273 188.626824 
" clip-path="url(#p6db1081374)" style="fill: none; stroke: #0000ff; stroke-width: 1.5; stroke-linecap: square"/>
   </g>
   <g id="line2d_36">
    <path d="M 73.832727 261.26764 
L 77.095587 268.750817 
L 78.727017 269.717208 
L 80.358447 269.039244 
L 81.989877 255.253524 
L 83.621307 261.584635 
L 85.252736 269.752852 
L 86.884166 271.853724 
L 88.515596 263.448516 
L 90.147026 265.423806 
L 91.778456 265.532987 
L 93.409886 273.516272 
L 95.041316 273.003541 
L 96.672746 272.790891 
L 98.304175 273.391432 
L 99.935605 264.422667 
L 101.567035 278.4062 
L 103.198465 274.371389 
L 104.829895 268.061946 
L 106.461325 268.610905 
L 108.092755 271.898247 
L 109.724185 275.46256 
L 111.355614 270.522195 
L 112.987044 278.367071 
L 114.618474 281.995018 
L 116.249904 276.916483 
L 117.881334 280.564293 
L 119.512764 280.255624 
L 121.144194 288.747851 
L 122.775624 256.249168 
L 124.407053 276.740081 
L 126.038483 275.656542 
L 127.669913 275.301873 
L 129.301343 275.316263 
L 130.932773 281.528081 
L 132.564203 284.246571 
L 134.195633 279.333012 
L 135.827063 278.314469 
L 137.458492 282.980234 
L 139.089922 275.171798 
L 140.721352 280.506391 
L 142.352782 271.79945 
L 143.984212 280.834675 
L 145.615642 278.897113 
L 147.247072 280.9786 
L 148.878502 289.16904 
L 150.509931 288.935719 
L 152.141361 275.94373 
L 153.772791 270.715693 
L 155.404221 280.023994 
L 157.035651 280.62419 
L 158.667081 280.913041 
L 160.298511 287.038333 
L 161.929941 276.187473 
L 163.56137 276.341725 
L 165.1928 272.641027 
L 166.82423 287.760289 
L 168.45566 283.261103 
L 170.08709 281.937379 
L 171.71852 286.567434 
L 173.34995 285.769194 
L 174.98138 281.552108 
L 176.61281 279.92541 
L 178.244239 284.091734 
L 179.875669 282.312397 
L 181.507099 283.80357 
L 183.138529 278.329631 
L 184.769959 274.992631 
L 186.401389 275.65729 
L 188.032819 277.780688 
L 189.664249 284.348169 
L 191.295678 274.45911 
L 192.927108 273.046024 
L 194.558538 283.234929 
L 196.189968 276.399017 
L 197.821398 286.927271 
L 199.452828 290.864107 
L 201.084258 282.032253 
L 202.715688 277.577528 
L 205.978547 279.794026 
L 207.609977 275.424711 
L 209.241407 267.204543 
L 210.872837 273.738645 
L 212.504267 270.298033 
L 214.135697 279.304035 
L 215.767127 282.099201 
L 217.398556 282.978107 
L 219.029986 282.705787 
L 220.661416 280.819157 
L 222.292846 279.635562 
L 223.924276 288.363869 
L 225.555706 286.528317 
L 227.187136 274.23889 
L 228.818566 268.394842 
L 230.449995 282.763188 
L 232.081425 290.527426 
L 233.712855 280.986332 
L 235.344285 288.38189 
L 236.975715 290.554678 
L 238.607145 286.910779 
L 240.238575 281.374129 
L 241.870005 293.33611 
L 243.501434 287.646435 
L 245.132864 270.981907 
L 246.764294 282.633021 
L 248.395724 292.593379 
L 250.027154 279.378058 
L 251.658584 289.983689 
L 254.921444 282.287848 
L 256.552873 286.986621 
L 259.815733 295.488 
L 261.447163 291.396196 
L 263.078593 286.450134 
L 264.710023 289.50056 
L 266.341453 279.820571 
L 267.972883 283.759085 
L 269.604312 280.741473 
L 271.235742 282.811437 
L 272.867172 287.166302 
L 274.498602 279.167 
L 276.130032 288.170573 
L 277.761462 282.092466 
L 279.392892 284.899227 
L 281.024322 281.167236 
L 282.655751 283.225269 
L 284.287181 273.124786 
L 285.918611 275.342229 
L 287.550041 276.877436 
L 289.181471 274.565096 
L 290.812901 281.106546 
L 292.444331 277.061931 
L 294.075761 289.669716 
L 295.70719 281.05974 
L 297.33862 286.138346 
L 298.97005 287.600968 
L 300.60148 286.920466 
L 302.23291 290.324007 
L 303.86434 292.446901 
L 305.49577 280.560942 
L 307.1272 287.418227 
L 308.75863 274.189161 
L 310.390059 281.691179 
L 312.021489 290.667734 
L 313.652919 283.349846 
L 315.284349 286.756787 
L 316.915779 282.683202 
L 318.547209 286.762702 
L 320.178639 284.187183 
L 321.810069 285.329806 
L 323.441498 279.016588 
L 325.072928 287.294229 
L 326.704358 285.635854 
L 328.335788 266.425524 
L 329.967218 282.501996 
L 331.598648 274.466113 
L 333.230078 279.502812 
L 334.861508 277.891992 
L 336.492937 273.823892 
L 338.124367 273.017107 
L 339.755797 274.789666 
L 341.387227 285.157237 
L 343.018657 281.871367 
L 344.650087 279.831933 
L 346.281517 275.498602 
L 347.912947 284.723956 
L 349.544376 269.446388 
L 351.175806 276.321084 
L 352.807236 274.049758 
L 354.438666 286.885896 
L 356.070096 266.715394 
L 357.701526 270.182802 
L 359.332956 277.351791 
L 360.964386 286.333059 
L 362.595815 274.44997 
L 364.227245 271.991463 
L 365.858675 280.587922 
L 367.490105 278.844919 
L 369.121535 284.552626 
L 370.752965 276.480908 
L 372.384395 284.858613 
L 374.015825 278.006271 
L 375.647254 262.425796 
L 377.278684 281.019669 
L 378.910114 253.386103 
L 380.541544 269.65987 
L 382.172974 265.638338 
L 383.804404 278.762955 
L 385.435834 280.272716 
L 387.067264 270.778508 
L 388.698693 264.010597 
L 390.330123 256.21922 
L 391.961553 258.271509 
L 393.592983 264.304284 
L 395.224413 266.917603 
L 396.855843 254.989598 
L 398.487273 260.497582 
L 398.487273 260.497582 
" clip-path="url(#p6db1081374)" style="fill: none; stroke-dasharray: 9.6,2.4,1.5,2.4; stroke-dashoffset: 0; stroke: #008000; stroke-width: 1.5"/>
   </g>
   <g id="line2d_37">
    <path d="M 73.832727 134.184738 
L 75.464157 132.748804 
L 77.095587 137.998012 
L 78.727017 137.220213 
L 80.358447 139.317576 
L 81.989877 129.472379 
L 83.621307 131.883133 
L 85.252736 139.099906 
L 86.884166 144.74737 
L 88.515596 134.345812 
L 90.147026 133.283661 
L 91.778456 134.597227 
L 93.409886 142.656122 
L 95.041316 145.682599 
L 96.672746 145.111709 
L 98.304175 140.871306 
L 99.935605 137.51951 
L 101.567035 143.618039 
L 103.198465 142.601225 
L 104.829895 133.961924 
L 106.461325 140.766512 
L 108.092755 144.274583 
L 109.724185 145.056687 
L 111.355614 141.448578 
L 112.987044 152.357796 
L 114.618474 155.121032 
L 116.249904 150.279918 
L 117.881334 153.148644 
L 119.512764 152.507426 
L 121.144194 164.718071 
L 122.775624 135.56608 
L 124.407053 148.837443 
L 126.038483 149.129105 
L 127.669913 143.544554 
L 129.301343 144.342526 
L 130.932773 148.824216 
L 132.564203 158.335703 
L 134.195633 151.273567 
L 135.827063 150.657123 
L 137.458492 156.248018 
L 139.089922 153.400453 
L 140.721352 152.760725 
L 142.352782 148.427682 
L 143.984212 149.833564 
L 145.615642 151.616685 
L 147.247072 154.633522 
L 148.878502 164.224117 
L 150.509931 161.206673 
L 152.141361 143.755678 
L 153.772791 141.292961 
L 155.404221 151.09536 
L 157.035651 148.985024 
L 158.667081 150.477288 
L 160.298511 157.756569 
L 161.929941 145.236357 
L 163.56137 147.413873 
L 165.1928 147.820358 
L 166.82423 157.407183 
L 168.45566 153.271489 
L 170.08709 153.26284 
L 171.71852 158.233709 
L 174.98138 146.433267 
L 176.61281 145.693043 
L 178.244239 151.936791 
L 179.875669 147.009998 
L 181.507099 150.107935 
L 183.138529 147.770973 
L 184.769959 144.184277 
L 186.401389 147.090175 
L 188.032819 144.618299 
L 189.664249 153.039144 
L 191.295678 145.176291 
L 192.927108 143.630725 
L 194.558538 149.944524 
L 196.189968 147.7949 
L 199.452828 165.414748 
L 201.084258 157.415159 
L 202.715688 156.926025 
L 204.347117 154.380973 
L 205.978547 154.152485 
L 207.609977 144.298354 
L 209.241407 136.745369 
L 212.504267 143.006603 
L 214.135697 144.259909 
L 215.767127 147.661365 
L 217.398556 150.464337 
L 219.029986 153.82245 
L 220.661416 147.02253 
L 222.292846 151.242717 
L 223.924276 156.60636 
L 225.555706 158.682987 
L 227.187136 145.396512 
L 228.818566 142.452268 
L 230.449995 155.516795 
L 232.081425 167.031407 
L 233.712855 157.737854 
L 235.344285 166.55568 
L 236.975715 167.784275 
L 238.607145 169.784478 
L 240.238575 158.450267 
L 241.870005 168.838133 
L 243.501434 162.254881 
L 245.132864 153.146262 
L 246.764294 155.52135 
L 248.395724 179.947104 
L 250.027154 164.813502 
L 251.658584 169.253817 
L 253.290014 165.90268 
L 254.921444 157.312976 
L 256.552873 162.235301 
L 259.815733 173.414437 
L 261.447163 170.471223 
L 263.078593 162.269753 
L 264.710023 164.995749 
L 266.341453 156.953096 
L 267.972883 156.937536 
L 269.604312 160.108559 
L 271.235742 155.578862 
L 272.867172 157.423707 
L 274.498602 151.798943 
L 276.130032 154.89297 
L 277.761462 152.445775 
L 279.392892 153.452388 
L 281.024322 149.141228 
L 282.655751 149.296264 
L 284.287181 136.651108 
L 285.918611 134.41026 
L 287.550041 133.093036 
L 289.181471 133.073287 
L 290.812901 141.575748 
L 292.444331 140.447624 
L 294.075761 147.191615 
L 295.70719 140.411409 
L 297.33862 154.141872 
L 298.97005 153.533972 
L 300.60148 152.372663 
L 302.23291 155.544776 
L 303.86434 160.659437 
L 305.49577 148.496696 
L 307.1272 155.141984 
L 308.75863 142.854209 
L 310.390059 153.073624 
L 312.021489 160.680034 
L 313.652919 151.355928 
L 315.284349 153.773626 
L 316.915779 149.066125 
L 318.547209 153.977751 
L 320.178639 145.836375 
L 321.810069 143.099694 
L 323.441498 141.035216 
L 325.072928 145.271578 
L 326.704358 142.914334 
L 328.335788 124.105508 
L 329.967218 138.634285 
L 331.598648 132.802166 
L 333.230078 132.838064 
L 334.861508 134.013469 
L 336.492937 126.804293 
L 338.124367 125.140672 
L 339.755797 122.999291 
L 341.387227 131.256521 
L 343.018657 132.232945 
L 344.650087 128.394261 
L 346.281517 126.609997 
L 347.912947 138.542283 
L 349.544376 120.755904 
L 351.175806 128.0039 
L 352.807236 122.920932 
L 354.438666 137.680593 
L 356.070096 116.583524 
L 357.701526 121.389752 
L 359.332956 127.436516 
L 360.964386 134.704963 
L 362.595815 129.800441 
L 364.227245 129.190716 
L 365.858675 135.387518 
L 367.490105 136.144303 
L 369.121535 143.843121 
L 370.752965 135.01456 
L 372.384395 146.567565 
L 374.015825 138.582815 
L 375.647254 121.859193 
L 377.278684 135.437921 
L 378.910114 116.390533 
L 380.541544 131.040158 
L 382.172974 125.199517 
L 383.804404 134.692151 
L 385.435834 140.21044 
L 387.067264 131.649055 
L 388.698693 125.752789 
L 390.330123 116.511508 
L 391.961553 114.639106 
L 393.592983 123.060183 
L 395.224413 117.051335 
L 396.855843 117.877185 
L 398.487273 116.756067 
L 398.487273 116.756067 
" clip-path="url(#p6db1081374)" style="fill: none; stroke-dasharray: 9.6,2.4,1.5,2.4; stroke-dashoffset: 0; stroke: #008000; stroke-width: 1.5"/>
   </g>
   <g id="line2d_38">
    <path d="M 73.832727 91.372998 
L 109.724185 91.372998 
L 112.987044 120.959518 
L 126.038483 120.959518 
L 127.669913 119.315823 
L 129.301343 119.315823 
L 130.932773 112.74104 
L 132.564203 112.74104 
L 134.195633 106.166258 
L 142.352782 106.166258 
L 143.984212 71.648651 
L 165.1928 71.648651 
L 166.82423 56.855391 
L 199.452828 56.855391 
L 201.084258 73.292347 
L 230.449995 73.292347 
L 232.081425 106.166258 
L 246.764294 106.166258 
L 248.395724 130.821692 
L 250.027154 119.315823 
L 251.658584 119.315823 
L 253.290014 111.097345 
L 254.921444 111.097345 
L 256.552873 109.453649 
L 259.815733 109.453649 
L 261.447163 106.166258 
L 263.078593 83.15452 
L 274.498602 83.15452 
L 276.130032 53.568 
L 308.75863 53.568 
L 310.390059 88.085607 
L 320.178639 88.085607 
L 321.810069 89.729303 
L 325.072928 89.729303 
L 326.704358 68.36126 
L 377.278684 68.36126 
L 378.910114 88.085607 
L 398.487273 88.085607 
L 398.487273 88.085607 
" clip-path="url(#p6db1081374)" style="fill: none; stroke: #ff0000; stroke-width: 1.5; stroke-linecap: square"/>
   </g>
   <g id="patch_3">
    <path d="M 57.6 307.584 
L 57.6 41.472 
" style="fill: none; stroke: #000000; stroke-width: 0.8; stroke-linejoin: miter; stroke-linecap: square"/>
   </g>
   <g id="patch_4">
    <path d="M 414.72 307.584 
L 414.72 41.472 
" style="fill: none; stroke: #000000; stroke-width: 0.8; stroke-linejoin: miter; stroke-linecap: square"/>
   </g>
   <g id="patch_5">
    <path d="M 57.6 307.584 
L 414.72 307.584 
" style="fill: none; stroke: #000000; stroke-width: 0.8; stroke-linejoin: miter; stroke-linecap: square"/>
   </g>
   <g id="patch_6">
    <path d="M 57.6 41.472 
L 414.72 41.472 
" style="fill: none; stroke: #000000; stroke-width: 0.8; stroke-linejoin: miter; stroke-linecap: square"/>
   </g>
   <g id="text_20">
    <!-- Population's average and best fitness -->
    <g transform="translate(123.529687 35.472)scale(0.12 -0.12)">
     <defs>
      <path id="DejaVuSans-50" d="M 1259 4147 
L 1259 2394 
L 2053 2394 
Q 2494 2394 2734 2622 
Q 2975 2850 2975 3272 
Q 2975 3691 2734 3919 
Q 2494 4147 2053 4147 
L 1259 4147 
z
M 628 4666 
L 2053 4666 
Q 2838 4666 3239 4311 
Q 3641 3956 3641 3272 
Q 3641 2581 3239 2228 
Q 2838 1875 2053 1875 
L 1259 1875 
L 1259 0 
L 628 0 
L 628 4666 
z
" transform="scale(0.015625)"/>
      <path id="DejaVuSans-70" d="M 1159 525 
L 1159 -1331 
L 581 -1331 
L 581 3500 
L 1159 3500 
L 1159 2969 
Q 1341 3281 1617 3432 
Q 1894 3584 2278 3584 
Q 2916 3584 3314 3078 
Q 3713 2572 3713 1747 
Q 3713 922 3314 415 
Q 2916 -91 2278 -91 
Q 1894 -91 1617 61 
Q 1341 213 1159 525 
z
M 3116 1747 
Q 3116 2381 2855 2742 
Q 2594 3103 2138 3103 
Q 1681 3103 1420 2742 
Q 1159 2381 1159 1747 
Q 1159 1113 1420 752 
Q 1681 391 2138 391 
Q 2594 391 2855 752 
Q 3116 1113 3116 1747 
z
" transform="scale(0.015625)"/>
      <path id="DejaVuSans-75" d="M 544 1381 
L 544 3500 
L 1119 3500 
L 1119 1403 
Q 1119 906 1312 657 
Q 1506 409 1894 409 
Q 2359 409 2629 706 
Q 2900 1003 2900 1516 
L 2900 3500 
L 3475 3500 
L 3475 0 
L 2900 0 
L 2900 538 
Q 2691 219 2414 64 
Q 2138 -91 1772 -91 
Q 1169 -91 856 284 
Q 544 659 544 1381 
z
M 1991 3584 
L 1991 3584 
z
" transform="scale(0.015625)"/>
      <path id="DejaVuSans-6c" d="M 603 4863 
L 1178 4863 
L 1178 0 
L 603 0 
L 603 4863 
z
" transform="scale(0.015625)"/>
      <path id="DejaVuSans-27" d="M 1147 4666 
L 1147 2931 
L 616 2931 
L 616 4666 
L 1147 4666 
z
" transform="scale(0.015625)"/>
      <path id="DejaVuSans-20" transform="scale(0.015625)"/>
      <path id="DejaVuSans-76" d="M 191 3500 
L 800 3500 
L 1894 563 
L 2988 3500 
L 3597 3500 
L 2284 0 
L 1503 0 
L 191 3500 
z
" transform="scale(0.015625)"/>
      <path id="DejaVuSans-67" d="M 2906 1791 
Q 2906 2416 2648 2759 
Q 2391 3103 1925 3103 
Q 1463 3103 1205 2759 
Q 947 2416 947 1791 
Q 947 1169 1205 825 
Q 1463 481 1925 481 
Q 2391 481 2648 825 
Q 2906 1169 2906 1791 
z
M 3481 434 
Q 3481 -459 3084 -895 
Q 2688 -1331 1869 -1331 
Q 1566 -1331 1297 -1286 
Q 1028 -1241 775 -1147 
L 775 -588 
Q 1028 -725 1275 -790 
Q 1522 -856 1778 -856 
Q 2344 -856 2625 -561 
Q 2906 -266 2906 331 
L 2906 616 
Q 2728 306 2450 153 
Q 2172 0 1784 0 
Q 1141 0 747 490 
Q 353 981 353 1791 
Q 353 2603 747 3093 
Q 1141 3584 1784 3584 
Q 2172 3584 2450 3431 
Q 2728 3278 2906 2969 
L 2906 3500 
L 3481 3500 
L 3481 434 
z
" transform="scale(0.015625)"/>
      <path id="DejaVuSans-64" d="M 2906 2969 
L 2906 4863 
L 3481 4863 
L 3481 0 
L 2906 0 
L 2906 525 
Q 2725 213 2448 61 
Q 2172 -91 1784 -91 
Q 1150 -91 751 415 
Q 353 922 353 1747 
Q 353 2572 751 3078 
Q 1150 3584 1784 3584 
Q 2172 3584 2448 3432 
Q 2725 3281 2906 2969 
z
M 947 1747 
Q 947 1113 1208 752 
Q 1469 391 1925 391 
Q 2381 391 2643 752 
Q 2906 1113 2906 1747 
Q 2906 2381 2643 2742 
Q 2381 3103 1925 3103 
Q 1469 3103 1208 2742 
Q 947 2381 947 1747 
z
" transform="scale(0.015625)"/>
      <path id="DejaVuSans-62" d="M 3116 1747 
Q 3116 2381 2855 2742 
Q 2594 3103 2138 3103 
Q 1681 3103 1420 2742 
Q 1159 2381 1159 1747 
Q 1159 1113 1420 752 
Q 1681 391 2138 391 
Q 2594 391 2855 752 
Q 3116 1113 3116 1747 
z
M 1159 2969 
Q 1341 3281 1617 3432 
Q 1894 3584 2278 3584 
Q 2916 3584 3314 3078 
Q 3713 2572 3713 1747 
Q 3713 922 3314 415 
Q 2916 -91 2278 -91 
Q 1894 -91 1617 61 
Q 1341 213 1159 525 
L 1159 0 
L 581 0 
L 581 4863 
L 1159 4863 
L 1159 2969 
z
" transform="scale(0.015625)"/>
      <path id="DejaVuSans-66" d="M 2375 4863 
L 2375 4384 
L 1825 4384 
Q 1516 4384 1395 4259 
Q 1275 4134 1275 3809 
L 1275 3500 
L 2222 3500 
L 2222 3053 
L 1275 3053 
L 1275 0 
L 697 0 
L 697 3053 
L 147 3053 
L 147 3500 
L 697 3500 
L 697 3744 
Q 697 4328 969 4595 
Q 1241 4863 1831 4863 
L 2375 4863 
z
" transform="scale(0.015625)"/>
     </defs>
     <use xlink:href="#DejaVuSans-50"/>
     <use xlink:href="#DejaVuSans-6f" x="56.677734"/>
     <use xlink:href="#DejaVuSans-70" x="117.859375"/>
     <use xlink:href="#DejaVuSans-75" x="181.335938"/>
     <use xlink:href="#DejaVuSans-6c" x="244.714844"/>
     <use xlink:href="#DejaVuSans-61" x="272.498047"/>
     <use xlink:href="#DejaVuSans-74" x="333.777344"/>
     <use xlink:href="#DejaVuSans-69" x="372.986328"/>
     <use xlink:href="#DejaVuSans-6f" x="400.769531"/>
     <use xlink:href="#DejaVuSans-6e" x="461.951172"/>
     <use xlink:href="#DejaVuSans-27" x="525.330078"/>
     <use xlink:href="#DejaVuSans-73" x="552.820312"/>
     <use xlink:href="#DejaVuSans-20" x="604.919922"/>
     <use xlink:href="#DejaVuSans-61" x="636.707031"/>
     <use xlink:href="#DejaVuSans-76" x="697.986328"/>
     <use xlink:href="#DejaVuSans-65" x="757.166016"/>
     <use xlink:href="#DejaVuSans-72" x="818.689453"/>
     <use xlink:href="#DejaVuSans-61" x="859.802734"/>
     <use xlink:href="#DejaVuSans-67" x="921.082031"/>
     <use xlink:href="#DejaVuSans-65" x="984.558594"/>
     <use xlink:href="#DejaVuSans-20" x="1046.082031"/>
     <use xlink:href="#DejaVuSans-61" x="1077.869141"/>
     <use xlink:href="#DejaVuSans-6e" x="1139.148438"/>
     <use xlink:href="#DejaVuSans-64" x="1202.527344"/>
     <use xlink:href="#DejaVuSans-20" x="1266.003906"/>
     <use xlink:href="#DejaVuSans-62" x="1297.791016"/>
     <use xlink:href="#DejaVuSans-65" x="1361.267578"/>
     <use xlink:href="#DejaVuSans-73" x="1422.791016"/>
     <use xlink:href="#DejaVuSans-74" x="1474.890625"/>
     <use xlink:href="#DejaVuSans-20" x="1514.099609"/>
     <use xlink:href="#DejaVuSans-66" x="1545.886719"/>
     <use xlink:href="#DejaVuSans-69" x="1581.091797"/>
     <use xlink:href="#DejaVuSans-74" x="1608.875"/>
     <use xlink:href="#DejaVuSans-6e" x="1648.083984"/>
     <use xlink:href="#DejaVuSans-65" x="1711.462891"/>
     <use xlink:href="#DejaVuSans-73" x="1772.986328"/>
     <use xlink:href="#DejaVuSans-73" x="1825.085938"/>
    </g>
   </g>
   <g id="legend_1">
    <g id="patch_7">
     <path d="M 64.6 108.1845 
L 137.540625 108.1845 
Q 139.540625 108.1845 139.540625 106.1845 
L 139.540625 48.472 
Q 139.540625 46.472 137.540625 46.472 
L 64.6 46.472 
Q 62.6 46.472 62.6 48.472 
L 62.6 106.1845 
Q 62.6 108.1845 64.6 108.1845 
z
" style="fill: #ffffff; opacity: 0.8; stroke: #cccccc; stroke-linejoin: miter"/>
    </g>
    <g id="line2d_39">
     <path d="M 66.6 54.570438 
L 76.6 54.570438 
L 86.6 54.570438 
" style="fill: none; stroke: #0000ff; stroke-width: 1.5; stroke-linecap: square"/>
    </g>
    <g id="text_21">
     <!-- average -->
     <g transform="translate(94.6 58.070438)scale(0.1 -0.1)">
      <use xlink:href="#DejaVuSans-61"/>
      <use xlink:href="#DejaVuSans-76" x="61.279297"/>
      <use xlink:href="#DejaVuSans-65" x="120.458984"/>
      <use xlink:href="#DejaVuSans-72" x="181.982422"/>
      <use xlink:href="#DejaVuSans-61" x="223.095703"/>
      <use xlink:href="#DejaVuSans-67" x="284.375"/>
      <use xlink:href="#DejaVuSans-65" x="347.851562"/>
     </g>
    </g>
    <g id="line2d_40">
     <path d="M 66.6 69.248563 
L 76.6 69.248563 
L 86.6 69.248563 
" style="fill: none; stroke-dasharray: 9.6,2.4,1.5,2.4; stroke-dashoffset: 0; stroke: #008000; stroke-width: 1.5"/>
    </g>
    <g id="text_22">
     <!-- -1 sd -->
     <g transform="translate(94.6 72.748563)scale(0.1 -0.1)">
      <defs>
       <path id="DejaVuSans-2d" d="M 313 2009 
L 1997 2009 
L 1997 1497 
L 313 1497 
L 313 2009 
z
" transform="scale(0.015625)"/>
      </defs>
      <use xlink:href="#DejaVuSans-2d"/>
      <use xlink:href="#DejaVuSans-31" x="36.083984"/>
      <use xlink:href="#DejaVuSans-20" x="99.707031"/>
      <use xlink:href="#DejaVuSans-73" x="131.494141"/>
      <use xlink:href="#DejaVuSans-64" x="183.59375"/>
     </g>
    </g>
    <g id="line2d_41">
     <path d="M 66.6 83.926688 
L 76.6 83.926688 
L 86.6 83.926688 
" style="fill: none; stroke-dasharray: 9.6,2.4,1.5,2.4; stroke-dashoffset: 0; stroke: #008000; stroke-width: 1.5"/>
    </g>
    <g id="text_23">
     <!-- +1 sd -->
     <g transform="translate(94.6 87.426688)scale(0.1 -0.1)">
      <defs>
       <path id="DejaVuSans-2b" d="M 2944 4013 
L 2944 2272 
L 4684 2272 
L 4684 1741 
L 2944 1741 
L 2944 0 
L 2419 0 
L 2419 1741 
L 678 1741 
L 678 2272 
L 2419 2272 
L 2419 4013 
L 2944 4013 
z
" transform="scale(0.015625)"/>
      </defs>
      <use xlink:href="#DejaVuSans-2b"/>
      <use xlink:href="#DejaVuSans-31" x="83.789062"/>
      <use xlink:href="#DejaVuSans-20" x="147.412109"/>
      <use xlink:href="#DejaVuSans-73" x="179.199219"/>
      <use xlink:href="#DejaVuSans-64" x="231.298828"/>
     </g>
    </g>
    <g id="line2d_42">
     <path d="M 66.6 98.604813 
L 76.6 98.604813 
L 86.6 98.604813 
" style="fill: none; stroke: #ff0000; stroke-width: 1.5; stroke-linecap: square"/>
    </g>
    <g id="text_24">
     <!-- best -->
     <g transform="translate(94.6 102.104813)scale(0.1 -0.1)">
      <use xlink:href="#DejaVuSans-62"/>
      <use xlink:href="#DejaVuSans-65" x="63.476562"/>
      <use xlink:href="#DejaVuSans-73" x="125"/>
      <use xlink:href="#DejaVuSans-74" x="177.099609"/>
     </g>
    </g>
   </g>
  </g>
 </g>
 <defs>
  <clipPath id="p6db1081374">
   <rect x="57.6" y="41.472" width="357.12" height="266.112"/>
  </clipPath>
 </defs>
</svg>
