<?xml version="1.0" encoding="utf-8" standalone="no"?>
<!DOCTYPE svg PUBLIC "-//W3C//DTD SVG 1.1//EN"
  "http://www.w3.org/Graphics/SVG/1.1/DTD/svg11.dtd">
<svg xmlns:xlink="http://www.w3.org/1999/xlink" width="460.8pt" height="345.6pt" viewBox="0 0 460.8 345.6" xmlns="http://www.w3.org/2000/svg" version="1.1">
 <metadata>
  <rdf:RDF xmlns:dc="http://purl.org/dc/elements/1.1/" xmlns:cc="http://creativecommons.org/ns#" xmlns:rdf="http://www.w3.org/1999/02/22-rdf-syntax-ns#">
   <cc:Work>
    <dc:type rdf:resource="http://purl.org/dc/dcmitype/StillImage"/>
    <dc:date>2022-08-15T08:06:21.103581</dc:date>
    <dc:format>image/svg+xml</dc:format>
    <dc:creator>
     <cc:Agent>
      <dc:title>Matplotlib v3.5.2, https://matplotlib.org/</dc:title>
     </cc:Agent>
    </dc:creator>
   </cc:Work>
  </rdf:RDF>
 </metadata>
 <defs>
  <style type="text/css">*{stroke-linejoin: round; stroke-linecap: butt}</style>
 </defs>
 <g id="figure_1">
  <g id="patch_1">
   <path d="M 0 345.6 
L 460.8 345.6 
L 460.8 0 
L 0 0 
z
" style="fill: #ffffff"/>
  </g>
  <g id="axes_1">
   <g id="patch_2">
    <path d="M 57.6 307.584 
L 414.72 307.584 
L 414.72 41.472 
L 57.6 41.472 
z
" style="fill: #ffffff"/>
   </g>
   <g id="matplotlib.axis_1">
    <g id="xtick_1">
     <g id="line2d_1">
      <path d="M 73.832727 307.584 
L 73.832727 41.472 
" clip-path="url(#p621d57e9fd)" style="fill: none; stroke: #b0b0b0; stroke-width: 0.8; stroke-linecap: square"/>
     </g>
     <g id="line2d_2">
      <defs>
       <path id="mf7a264707e" d="M 0 0 
L 0 3.5 
" style="stroke: #000000; stroke-width: 0.8"/>
      </defs>
      <g>
       <use xlink:href="#mf7a264707e" x="73.832727" y="307.584" style="stroke: #000000; stroke-width: 0.8"/>
      </g>
     </g>
     <g id="text_1">
      <!-- 0 -->
      <g transform="translate(70.651477 322.182437)scale(0.1 -0.1)">
       <defs>
        <path id="DejaVuSans-30" d="M 2034 4250 
Q 1547 4250 1301 3770 
Q 1056 3291 1056 2328 
Q 1056 1369 1301 889 
Q 1547 409 2034 409 
Q 2525 409 2770 889 
Q 3016 1369 3016 2328 
Q 3016 3291 2770 3770 
Q 2525 4250 2034 4250 
z
M 2034 4750 
Q 2819 4750 3233 4129 
Q 3647 3509 3647 2328 
Q 3647 1150 3233 529 
Q 2819 -91 2034 -91 
Q 1250 -91 836 529 
Q 422 1150 422 2328 
Q 422 3509 836 4129 
Q 1250 4750 2034 4750 
z
" transform="scale(0.015625)"/>
       </defs>
       <use xlink:href="#DejaVuSans-30"/>
      </g>
     </g>
    </g>
    <g id="xtick_2">
     <g id="line2d_3">
      <path d="M 114.618474 307.584 
L 114.618474 41.472 
" clip-path="url(#p621d57e9fd)" style="fill: none; stroke: #b0b0b0; stroke-width: 0.8; stroke-linecap: square"/>
     </g>
     <g id="line2d_4">
      <g>
       <use xlink:href="#mf7a264707e" x="114.618474" y="307.584" style="stroke: #000000; stroke-width: 0.8"/>
      </g>
     </g>
     <g id="text_2">
      <!-- 25 -->
      <g transform="translate(108.255974 322.182437)scale(0.1 -0.1)">
       <defs>
        <path id="DejaVuSans-32" d="M 1228 531 
L 3431 531 
L 3431 0 
L 469 0 
L 469 531 
Q 828 903 1448 1529 
Q 2069 2156 2228 2338 
Q 2531 2678 2651 2914 
Q 2772 3150 2772 3378 
Q 2772 3750 2511 3984 
Q 2250 4219 1831 4219 
Q 1534 4219 1204 4116 
Q 875 4013 500 3803 
L 500 4441 
Q 881 4594 1212 4672 
Q 1544 4750 1819 4750 
Q 2544 4750 2975 4387 
Q 3406 4025 3406 3419 
Q 3406 3131 3298 2873 
Q 3191 2616 2906 2266 
Q 2828 2175 2409 1742 
Q 1991 1309 1228 531 
z
" transform="scale(0.015625)"/>
        <path id="DejaVuSans-35" d="M 691 4666 
L 3169 4666 
L 3169 4134 
L 1269 4134 
L 1269 2991 
Q 1406 3038 1543 3061 
Q 1681 3084 1819 3084 
Q 2600 3084 3056 2656 
Q 3513 2228 3513 1497 
Q 3513 744 3044 326 
Q 2575 -91 1722 -91 
Q 1428 -91 1123 -41 
Q 819 9 494 109 
L 494 744 
Q 775 591 1075 516 
Q 1375 441 1709 441 
Q 2250 441 2565 725 
Q 2881 1009 2881 1497 
Q 2881 1984 2565 2268 
Q 2250 2553 1709 2553 
Q 1456 2553 1204 2497 
Q 953 2441 691 2322 
L 691 4666 
z
" transform="scale(0.015625)"/>
       </defs>
       <use xlink:href="#DejaVuSans-32"/>
       <use xlink:href="#DejaVuSans-35" x="63.623047"/>
      </g>
     </g>
    </g>
    <g id="xtick_3">
     <g id="line2d_5">
      <path d="M 155.404221 307.584 
L 155.404221 41.472 
" clip-path="url(#p621d57e9fd)" style="fill: none; stroke: #b0b0b0; stroke-width: 0.8; stroke-linecap: square"/>
     </g>
     <g id="line2d_6">
      <g>
       <use xlink:href="#mf7a264707e" x="155.404221" y="307.584" style="stroke: #000000; stroke-width: 0.8"/>
      </g>
     </g>
     <g id="text_3">
      <!-- 50 -->
      <g transform="translate(149.041721 322.182437)scale(0.1 -0.1)">
       <use xlink:href="#DejaVuSans-35"/>
       <use xlink:href="#DejaVuSans-30" x="63.623047"/>
      </g>
     </g>
    </g>
    <g id="xtick_4">
     <g id="line2d_7">
      <path d="M 196.189968 307.584 
L 196.189968 41.472 
" clip-path="url(#p621d57e9fd)" style="fill: none; stroke: #b0b0b0; stroke-width: 0.8; stroke-linecap: square"/>
     </g>
     <g id="line2d_8">
      <g>
       <use xlink:href="#mf7a264707e" x="196.189968" y="307.584" style="stroke: #000000; stroke-width: 0.8"/>
      </g>
     </g>
     <g id="text_4">
      <!-- 75 -->
      <g transform="translate(189.827468 322.182437)scale(0.1 -0.1)">
       <defs>
        <path id="DejaVuSans-37" d="M 525 4666 
L 3525 4666 
L 3525 4397 
L 1831 0 
L 1172 0 
L 2766 4134 
L 525 4134 
L 525 4666 
z
" transform="scale(0.015625)"/>
       </defs>
       <use xlink:href="#DejaVuSans-37"/>
       <use xlink:href="#DejaVuSans-35" x="63.623047"/>
      </g>
     </g>
    </g>
    <g id="xtick_5">
     <g id="line2d_9">
      <path d="M 236.975715 307.584 
L 236.975715 41.472 
" clip-path="url(#p621d57e9fd)" style="fill: none; stroke: #b0b0b0; stroke-width: 0.8; stroke-linecap: square"/>
     </g>
     <g id="line2d_10">
      <g>
       <use xlink:href="#mf7a264707e" x="236.975715" y="307.584" style="stroke: #000000; stroke-width: 0.8"/>
      </g>
     </g>
     <g id="text_5">
      <!-- 100 -->
      <g transform="translate(227.431965 322.182437)scale(0.1 -0.1)">
       <defs>
        <path id="DejaVuSans-31" d="M 794 531 
L 1825 531 
L 1825 4091 
L 703 3866 
L 703 4441 
L 1819 4666 
L 2450 4666 
L 2450 531 
L 3481 531 
L 3481 0 
L 794 0 
L 794 531 
z
" transform="scale(0.015625)"/>
       </defs>
       <use xlink:href="#DejaVuSans-31"/>
       <use xlink:href="#DejaVuSans-30" x="63.623047"/>
       <use xlink:href="#DejaVuSans-30" x="127.246094"/>
      </g>
     </g>
    </g>
    <g id="xtick_6">
     <g id="line2d_11">
      <path d="M 277.761462 307.584 
L 277.761462 41.472 
" clip-path="url(#p621d57e9fd)" style="fill: none; stroke: #b0b0b0; stroke-width: 0.8; stroke-linecap: square"/>
     </g>
     <g id="line2d_12">
      <g>
       <use xlink:href="#mf7a264707e" x="277.761462" y="307.584" style="stroke: #000000; stroke-width: 0.8"/>
      </g>
     </g>
     <g id="text_6">
      <!-- 125 -->
      <g transform="translate(268.217712 322.182437)scale(0.1 -0.1)">
       <use xlink:href="#DejaVuSans-31"/>
       <use xlink:href="#DejaVuSans-32" x="63.623047"/>
       <use xlink:href="#DejaVuSans-35" x="127.246094"/>
      </g>
     </g>
    </g>
    <g id="xtick_7">
     <g id="line2d_13">
      <path d="M 318.547209 307.584 
L 318.547209 41.472 
" clip-path="url(#p621d57e9fd)" style="fill: none; stroke: #b0b0b0; stroke-width: 0.8; stroke-linecap: square"/>
     </g>
     <g id="line2d_14">
      <g>
       <use xlink:href="#mf7a264707e" x="318.547209" y="307.584" style="stroke: #000000; stroke-width: 0.8"/>
      </g>
     </g>
     <g id="text_7">
      <!-- 150 -->
      <g transform="translate(309.003459 322.182437)scale(0.1 -0.1)">
       <use xlink:href="#DejaVuSans-31"/>
       <use xlink:href="#DejaVuSans-35" x="63.623047"/>
       <use xlink:href="#DejaVuSans-30" x="127.246094"/>
      </g>
     </g>
    </g>
    <g id="xtick_8">
     <g id="line2d_15">
      <path d="M 359.332956 307.584 
L 359.332956 41.472 
" clip-path="url(#p621d57e9fd)" style="fill: none; stroke: #b0b0b0; stroke-width: 0.8; stroke-linecap: square"/>
     </g>
     <g id="line2d_16">
      <g>
       <use xlink:href="#mf7a264707e" x="359.332956" y="307.584" style="stroke: #000000; stroke-width: 0.8"/>
      </g>
     </g>
     <g id="text_8">
      <!-- 175 -->
      <g transform="translate(349.789206 322.182437)scale(0.1 -0.1)">
       <use xlink:href="#DejaVuSans-31"/>
       <use xlink:href="#DejaVuSans-37" x="63.623047"/>
       <use xlink:href="#DejaVuSans-35" x="127.246094"/>
      </g>
     </g>
    </g>
    <g id="xtick_9">
     <g id="line2d_17">
      <path d="M 400.118703 307.584 
L 400.118703 41.472 
" clip-path="url(#p621d57e9fd)" style="fill: none; stroke: #b0b0b0; stroke-width: 0.8; stroke-linecap: square"/>
     </g>
     <g id="line2d_18">
      <g>
       <use xlink:href="#mf7a264707e" x="400.118703" y="307.584" style="stroke: #000000; stroke-width: 0.8"/>
      </g>
     </g>
     <g id="text_9">
      <!-- 200 -->
      <g transform="translate(390.574953 322.182437)scale(0.1 -0.1)">
       <use xlink:href="#DejaVuSans-32"/>
       <use xlink:href="#DejaVuSans-30" x="63.623047"/>
       <use xlink:href="#DejaVuSans-30" x="127.246094"/>
      </g>
     </g>
    </g>
    <g id="text_10">
     <!-- Generations -->
     <g transform="translate(205.662344 335.860562)scale(0.1 -0.1)">
      <defs>
       <path id="DejaVuSans-47" d="M 3809 666 
L 3809 1919 
L 2778 1919 
L 2778 2438 
L 4434 2438 
L 4434 434 
Q 4069 175 3628 42 
Q 3188 -91 2688 -91 
Q 1594 -91 976 548 
Q 359 1188 359 2328 
Q 359 3472 976 4111 
Q 1594 4750 2688 4750 
Q 3144 4750 3555 4637 
Q 3966 4525 4313 4306 
L 4313 3634 
Q 3963 3931 3569 4081 
Q 3175 4231 2741 4231 
Q 1884 4231 1454 3753 
Q 1025 3275 1025 2328 
Q 1025 1384 1454 906 
Q 1884 428 2741 428 
Q 3075 428 3337 486 
Q 3600 544 3809 666 
z
" transform="scale(0.015625)"/>
       <path id="DejaVuSans-65" d="M 3597 1894 
L 3597 1613 
L 953 1613 
Q 991 1019 1311 708 
Q 1631 397 2203 397 
Q 2534 397 2845 478 
Q 3156 559 3463 722 
L 3463 178 
Q 3153 47 2828 -22 
Q 2503 -91 2169 -91 
Q 1331 -91 842 396 
Q 353 884 353 1716 
Q 353 2575 817 3079 
Q 1281 3584 2069 3584 
Q 2775 3584 3186 3129 
Q 3597 2675 3597 1894 
z
M 3022 2063 
Q 3016 2534 2758 2815 
Q 2500 3097 2075 3097 
Q 1594 3097 1305 2825 
Q 1016 2553 972 2059 
L 3022 2063 
z
" transform="scale(0.015625)"/>
       <path id="DejaVuSans-6e" d="M 3513 2113 
L 3513 0 
L 2938 0 
L 2938 2094 
Q 2938 2591 2744 2837 
Q 2550 3084 2163 3084 
Q 1697 3084 1428 2787 
Q 1159 2491 1159 1978 
L 1159 0 
L 581 0 
L 581 3500 
L 1159 3500 
L 1159 2956 
Q 1366 3272 1645 3428 
Q 1925 3584 2291 3584 
Q 2894 3584 3203 3211 
Q 3513 2838 3513 2113 
z
" transform="scale(0.015625)"/>
       <path id="DejaVuSans-72" d="M 2631 2963 
Q 2534 3019 2420 3045 
Q 2306 3072 2169 3072 
Q 1681 3072 1420 2755 
Q 1159 2438 1159 1844 
L 1159 0 
L 581 0 
L 581 3500 
L 1159 3500 
L 1159 2956 
Q 1341 3275 1631 3429 
Q 1922 3584 2338 3584 
Q 2397 3584 2469 3576 
Q 2541 3569 2628 3553 
L 2631 2963 
z
" transform="scale(0.015625)"/>
       <path id="DejaVuSans-61" d="M 2194 1759 
Q 1497 1759 1228 1600 
Q 959 1441 959 1056 
Q 959 750 1161 570 
Q 1363 391 1709 391 
Q 2188 391 2477 730 
Q 2766 1069 2766 1631 
L 2766 1759 
L 2194 1759 
z
M 3341 1997 
L 3341 0 
L 2766 0 
L 2766 531 
Q 2569 213 2275 61 
Q 1981 -91 1556 -91 
Q 1019 -91 701 211 
Q 384 513 384 1019 
Q 384 1609 779 1909 
Q 1175 2209 1959 2209 
L 2766 2209 
L 2766 2266 
Q 2766 2663 2505 2880 
Q 2244 3097 1772 3097 
Q 1472 3097 1187 3025 
Q 903 2953 641 2809 
L 641 3341 
Q 956 3463 1253 3523 
Q 1550 3584 1831 3584 
Q 2591 3584 2966 3190 
Q 3341 2797 3341 1997 
z
" transform="scale(0.015625)"/>
       <path id="DejaVuSans-74" d="M 1172 4494 
L 1172 3500 
L 2356 3500 
L 2356 3053 
L 1172 3053 
L 1172 1153 
Q 1172 725 1289 603 
Q 1406 481 1766 481 
L 2356 481 
L 2356 0 
L 1766 0 
Q 1100 0 847 248 
Q 594 497 594 1153 
L 594 3053 
L 172 3053 
L 172 3500 
L 594 3500 
L 594 4494 
L 1172 4494 
z
" transform="scale(0.015625)"/>
       <path id="DejaVuSans-69" d="M 603 3500 
L 1178 3500 
L 1178 0 
L 603 0 
L 603 3500 
z
M 603 4863 
L 1178 4863 
L 1178 4134 
L 603 4134 
L 603 4863 
z
" transform="scale(0.015625)"/>
       <path id="DejaVuSans-6f" d="M 1959 3097 
Q 1497 3097 1228 2736 
Q 959 2375 959 1747 
Q 959 1119 1226 758 
Q 1494 397 1959 397 
Q 2419 397 2687 759 
Q 2956 1122 2956 1747 
Q 2956 2369 2687 2733 
Q 2419 3097 1959 3097 
z
M 1959 3584 
Q 2709 3584 3137 3096 
Q 3566 2609 3566 1747 
Q 3566 888 3137 398 
Q 2709 -91 1959 -91 
Q 1206 -91 779 398 
Q 353 888 353 1747 
Q 353 2609 779 3096 
Q 1206 3584 1959 3584 
z
" transform="scale(0.015625)"/>
       <path id="DejaVuSans-73" d="M 2834 3397 
L 2834 2853 
Q 2591 2978 2328 3040 
Q 2066 3103 1784 3103 
Q 1356 3103 1142 2972 
Q 928 2841 928 2578 
Q 928 2378 1081 2264 
Q 1234 2150 1697 2047 
L 1894 2003 
Q 2506 1872 2764 1633 
Q 3022 1394 3022 966 
Q 3022 478 2636 193 
Q 2250 -91 1575 -91 
Q 1294 -91 989 -36 
Q 684 19 347 128 
L 347 722 
Q 666 556 975 473 
Q 1284 391 1588 391 
Q 1994 391 2212 530 
Q 2431 669 2431 922 
Q 2431 1156 2273 1281 
Q 2116 1406 1581 1522 
L 1381 1569 
Q 847 1681 609 1914 
Q 372 2147 372 2553 
Q 372 3047 722 3315 
Q 1072 3584 1716 3584 
Q 2034 3584 2315 3537 
Q 2597 3491 2834 3397 
z
" transform="scale(0.015625)"/>
      </defs>
      <use xlink:href="#DejaVuSans-47"/>
      <use xlink:href="#DejaVuSans-65" x="77.490234"/>
      <use xlink:href="#DejaVuSans-6e" x="139.013672"/>
      <use xlink:href="#DejaVuSans-65" x="202.392578"/>
      <use xlink:href="#DejaVuSans-72" x="263.916016"/>
      <use xlink:href="#DejaVuSans-61" x="305.029297"/>
      <use xlink:href="#DejaVuSans-74" x="366.308594"/>
      <use xlink:href="#DejaVuSans-69" x="405.517578"/>
      <use xlink:href="#DejaVuSans-6f" x="433.300781"/>
      <use xlink:href="#DejaVuSans-6e" x="494.482422"/>
      <use xlink:href="#DejaVuSans-73" x="557.861328"/>
     </g>
    </g>
   </g>
   <g id="matplotlib.axis_2">
    <g id="ytick_1">
     <g id="line2d_19">
      <path d="M 57.6 288.420439 
L 414.72 288.420439 
" clip-path="url(#p621d57e9fd)" style="fill: none; stroke: #b0b0b0; stroke-width: 0.8; stroke-linecap: square"/>
     </g>
     <g id="line2d_20">
      <defs>
       <path id="m4355cd1551" d="M 0 0 
L -3.5 0 
" style="stroke: #000000; stroke-width: 0.8"/>
      </defs>
      <g>
       <use xlink:href="#m4355cd1551" x="57.6" y="288.420439" style="stroke: #000000; stroke-width: 0.8"/>
      </g>
     </g>
     <g id="text_11">
      <!-- 0 -->
      <g transform="translate(44.2375 292.219657)scale(0.1 -0.1)">
       <use xlink:href="#DejaVuSans-30"/>
      </g>
     </g>
    </g>
    <g id="ytick_2">
     <g id="line2d_21">
      <path d="M 57.6 256.467726 
L 414.72 256.467726 
" clip-path="url(#p621d57e9fd)" style="fill: none; stroke: #b0b0b0; stroke-width: 0.8; stroke-linecap: square"/>
     </g>
     <g id="line2d_22">
      <g>
       <use xlink:href="#m4355cd1551" x="57.6" y="256.467726" style="stroke: #000000; stroke-width: 0.8"/>
      </g>
     </g>
     <g id="text_12">
      <!-- 20 -->
      <g transform="translate(37.875 260.266945)scale(0.1 -0.1)">
       <use xlink:href="#DejaVuSans-32"/>
       <use xlink:href="#DejaVuSans-30" x="63.623047"/>
      </g>
     </g>
    </g>
    <g id="ytick_3">
     <g id="line2d_23">
      <path d="M 57.6 224.515013 
L 414.72 224.515013 
" clip-path="url(#p621d57e9fd)" style="fill: none; stroke: #b0b0b0; stroke-width: 0.8; stroke-linecap: square"/>
     </g>
     <g id="line2d_24">
      <g>
       <use xlink:href="#m4355cd1551" x="57.6" y="224.515013" style="stroke: #000000; stroke-width: 0.8"/>
      </g>
     </g>
     <g id="text_13">
      <!-- 40 -->
      <g transform="translate(37.875 228.314232)scale(0.1 -0.1)">
       <defs>
        <path id="DejaVuSans-34" d="M 2419 4116 
L 825 1625 
L 2419 1625 
L 2419 4116 
z
M 2253 4666 
L 3047 4666 
L 3047 1625 
L 3713 1625 
L 3713 1100 
L 3047 1100 
L 3047 0 
L 2419 0 
L 2419 1100 
L 313 1100 
L 313 1709 
L 2253 4666 
z
" transform="scale(0.015625)"/>
       </defs>
       <use xlink:href="#DejaVuSans-34"/>
       <use xlink:href="#DejaVuSans-30" x="63.623047"/>
      </g>
     </g>
    </g>
    <g id="ytick_4">
     <g id="line2d_25">
      <path d="M 57.6 192.5623 
L 414.72 192.5623 
" clip-path="url(#p621d57e9fd)" style="fill: none; stroke: #b0b0b0; stroke-width: 0.8; stroke-linecap: square"/>
     </g>
     <g id="line2d_26">
      <g>
       <use xlink:href="#m4355cd1551" x="57.6" y="192.5623" style="stroke: #000000; stroke-width: 0.8"/>
      </g>
     </g>
     <g id="text_14">
      <!-- 60 -->
      <g transform="translate(37.875 196.361519)scale(0.1 -0.1)">
       <defs>
        <path id="DejaVuSans-36" d="M 2113 2584 
Q 1688 2584 1439 2293 
Q 1191 2003 1191 1497 
Q 1191 994 1439 701 
Q 1688 409 2113 409 
Q 2538 409 2786 701 
Q 3034 994 3034 1497 
Q 3034 2003 2786 2293 
Q 2538 2584 2113 2584 
z
M 3366 4563 
L 3366 3988 
Q 3128 4100 2886 4159 
Q 2644 4219 2406 4219 
Q 1781 4219 1451 3797 
Q 1122 3375 1075 2522 
Q 1259 2794 1537 2939 
Q 1816 3084 2150 3084 
Q 2853 3084 3261 2657 
Q 3669 2231 3669 1497 
Q 3669 778 3244 343 
Q 2819 -91 2113 -91 
Q 1303 -91 875 529 
Q 447 1150 447 2328 
Q 447 3434 972 4092 
Q 1497 4750 2381 4750 
Q 2619 4750 2861 4703 
Q 3103 4656 3366 4563 
z
" transform="scale(0.015625)"/>
       </defs>
       <use xlink:href="#DejaVuSans-36"/>
       <use xlink:href="#DejaVuSans-30" x="63.623047"/>
      </g>
     </g>
    </g>
    <g id="ytick_5">
     <g id="line2d_27">
      <path d="M 57.6 160.609588 
L 414.72 160.609588 
" clip-path="url(#p621d57e9fd)" style="fill: none; stroke: #b0b0b0; stroke-width: 0.8; stroke-linecap: square"/>
     </g>
     <g id="line2d_28">
      <g>
       <use xlink:href="#m4355cd1551" x="57.6" y="160.609588" style="stroke: #000000; stroke-width: 0.8"/>
      </g>
     </g>
     <g id="text_15">
      <!-- 80 -->
      <g transform="translate(37.875 164.408806)scale(0.1 -0.1)">
       <defs>
        <path id="DejaVuSans-38" d="M 2034 2216 
Q 1584 2216 1326 1975 
Q 1069 1734 1069 1313 
Q 1069 891 1326 650 
Q 1584 409 2034 409 
Q 2484 409 2743 651 
Q 3003 894 3003 1313 
Q 3003 1734 2745 1975 
Q 2488 2216 2034 2216 
z
M 1403 2484 
Q 997 2584 770 2862 
Q 544 3141 544 3541 
Q 544 4100 942 4425 
Q 1341 4750 2034 4750 
Q 2731 4750 3128 4425 
Q 3525 4100 3525 3541 
Q 3525 3141 3298 2862 
Q 3072 2584 2669 2484 
Q 3125 2378 3379 2068 
Q 3634 1759 3634 1313 
Q 3634 634 3220 271 
Q 2806 -91 2034 -91 
Q 1263 -91 848 271 
Q 434 634 434 1313 
Q 434 1759 690 2068 
Q 947 2378 1403 2484 
z
M 1172 3481 
Q 1172 3119 1398 2916 
Q 1625 2713 2034 2713 
Q 2441 2713 2670 2916 
Q 2900 3119 2900 3481 
Q 2900 3844 2670 4047 
Q 2441 4250 2034 4250 
Q 1625 4250 1398 4047 
Q 1172 3844 1172 3481 
z
" transform="scale(0.015625)"/>
       </defs>
       <use xlink:href="#DejaVuSans-38"/>
       <use xlink:href="#DejaVuSans-30" x="63.623047"/>
      </g>
     </g>
    </g>
    <g id="ytick_6">
     <g id="line2d_29">
      <path d="M 57.6 128.656875 
L 414.72 128.656875 
" clip-path="url(#p621d57e9fd)" style="fill: none; stroke: #b0b0b0; stroke-width: 0.8; stroke-linecap: square"/>
     </g>
     <g id="line2d_30">
      <g>
       <use xlink:href="#m4355cd1551" x="57.6" y="128.656875" style="stroke: #000000; stroke-width: 0.8"/>
      </g>
     </g>
     <g id="text_16">
      <!-- 100 -->
      <g transform="translate(31.5125 132.456094)scale(0.1 -0.1)">
       <use xlink:href="#DejaVuSans-31"/>
       <use xlink:href="#DejaVuSans-30" x="63.623047"/>
       <use xlink:href="#DejaVuSans-30" x="127.246094"/>
      </g>
     </g>
    </g>
    <g id="ytick_7">
     <g id="line2d_31">
      <path d="M 57.6 96.704162 
L 414.72 96.704162 
" clip-path="url(#p621d57e9fd)" style="fill: none; stroke: #b0b0b0; stroke-width: 0.8; stroke-linecap: square"/>
     </g>
     <g id="line2d_32">
      <g>
       <use xlink:href="#m4355cd1551" x="57.6" y="96.704162" style="stroke: #000000; stroke-width: 0.8"/>
      </g>
     </g>
     <g id="text_17">
      <!-- 120 -->
      <g transform="translate(31.5125 100.503381)scale(0.1 -0.1)">
       <use xlink:href="#DejaVuSans-31"/>
       <use xlink:href="#DejaVuSans-32" x="63.623047"/>
       <use xlink:href="#DejaVuSans-30" x="127.246094"/>
      </g>
     </g>
    </g>
    <g id="ytick_8">
     <g id="line2d_33">
      <path d="M 57.6 64.751449 
L 414.72 64.751449 
" clip-path="url(#p621d57e9fd)" style="fill: none; stroke: #b0b0b0; stroke-width: 0.8; stroke-linecap: square"/>
     </g>
     <g id="line2d_34">
      <g>
       <use xlink:href="#m4355cd1551" x="57.6" y="64.751449" style="stroke: #000000; stroke-width: 0.8"/>
      </g>
     </g>
     <g id="text_18">
      <!-- 140 -->
      <g transform="translate(31.5125 68.550668)scale(0.1 -0.1)">
       <use xlink:href="#DejaVuSans-31"/>
       <use xlink:href="#DejaVuSans-34" x="63.623047"/>
       <use xlink:href="#DejaVuSans-30" x="127.246094"/>
      </g>
     </g>
    </g>
    <g id="text_19">
     <!-- Fitness -->
     <g transform="translate(25.432812 191.845187)rotate(-90)scale(0.1 -0.1)">
      <defs>
       <path id="DejaVuSans-46" d="M 628 4666 
L 3309 4666 
L 3309 4134 
L 1259 4134 
L 1259 2759 
L 3109 2759 
L 3109 2228 
L 1259 2228 
L 1259 0 
L 628 0 
L 628 4666 
z
" transform="scale(0.015625)"/>
      </defs>
      <use xlink:href="#DejaVuSans-46"/>
      <use xlink:href="#DejaVuSans-69" x="50.269531"/>
      <use xlink:href="#DejaVuSans-74" x="78.052734"/>
      <use xlink:href="#DejaVuSans-6e" x="117.261719"/>
      <use xlink:href="#DejaVuSans-65" x="180.640625"/>
      <use xlink:href="#DejaVuSans-73" x="242.164062"/>
      <use xlink:href="#DejaVuSans-73" x="294.263672"/>
     </g>
    </g>
   </g>
   <g id="line2d_35">
    <path d="M 73.832727 276.810953 
L 75.464157 273.59438 
L 77.095587 274.30799 
L 78.727017 272.870118 
L 80.358447 272.092602 
L 81.989877 271.922188 
L 83.621307 270.835796 
L 85.252736 269.440527 
L 86.884166 269.099698 
L 88.515596 268.929284 
L 91.778456 269.429876 
L 93.409886 268.993189 
L 95.041316 265.968332 
L 96.672746 266.447623 
L 98.304175 264.05117 
L 99.935605 266.788452 
L 101.567035 264.775431 
L 103.198465 264.498508 
L 104.829895 263.241701 
L 106.461325 263.273654 
L 108.092755 261.505604 
L 109.724185 261.249982 
L 111.355614 259.322168 
L 112.987044 263.188446 
L 114.618474 262.623948 
L 116.249904 261.399094 
L 117.881334 258.448794 
L 119.512764 259.769506 
L 121.144194 262.560043 
L 122.775624 260.866549 
L 124.407053 258.552058 
L 126.038483 258.715067 
L 127.669913 252.803815 
L 129.301343 255.903228 
L 130.932773 256.393663 
L 132.564203 259.822761 
L 134.195633 256.9824 
L 135.827063 257.831042 
L 137.458492 252.221661 
L 139.089922 251.834582 
L 140.721352 255.668908 
L 142.352782 251.983695 
L 143.984212 253.112691 
L 145.615642 258.310332 
L 147.247072 251.877186 
L 148.878502 258.204752 
L 150.509931 256.957667 
L 152.141361 255.860624 
L 153.772791 253.058007 
L 155.404221 258.601481 
L 157.035651 254.773589 
L 158.667081 257.841692 
L 161.929941 250.641681 
L 163.56137 250.045231 
L 165.1928 250.098485 
L 166.82423 254.323248 
L 168.45566 252.060825 
L 170.08709 255.775417 
L 171.71852 253.996716 
L 173.34995 248.607358 
L 174.98138 248.405485 
L 176.61281 249.235762 
L 178.244239 246.615639 
L 179.875669 251.310258 
L 181.507099 252.017935 
L 183.138529 248.86298 
L 184.769959 249.885467 
L 186.401389 251.664239 
L 188.032819 249.99254 
L 189.664249 250.577776 
L 191.295678 244.80816 
L 192.927108 248.287831 
L 194.558538 252.618389 
L 196.189968 253.883631 
L 197.821398 250.662983 
L 199.452828 246.776108 
L 201.084258 247.421511 
L 202.715688 242.856291 
L 204.347117 244.480168 
L 205.978547 244.437847 
L 207.609977 252.420382 
L 209.241407 250.39671 
L 210.872837 255.615653 
L 212.504267 250.034294 
L 214.135697 254.774232 
L 215.767127 256.63814 
L 217.398556 250.418012 
L 219.029986 251.142274 
L 220.661416 252.03695 
L 222.292846 249.583953 
L 223.924276 252.86772 
L 225.555706 251.855884 
L 227.187136 254.055402 
L 228.818566 255.949288 
L 230.449995 250.130085 
L 232.081425 253.981339 
L 233.712855 249.576591 
L 235.344285 250.023929 
L 236.975715 244.935124 
L 238.607145 251.184877 
L 240.238575 252.736335 
L 241.870005 253.954112 
L 243.501434 251.760026 
L 245.132864 253.776407 
L 246.764294 248.415213 
L 248.395724 249.65901 
L 250.027154 248.061375 
L 251.658584 246.232207 
L 253.290014 247.41093 
L 254.921444 251.43147 
L 256.552873 247.326287 
L 258.184303 245.230302 
L 259.815733 245.049956 
L 261.447163 242.568296 
L 263.078593 241.570567 
L 264.710023 242.046401 
L 266.341453 244.016819 
L 267.972883 250.763416 
L 269.604312 248.681915 
L 271.235742 245.870076 
L 272.867172 249.712622 
L 274.498602 245.838123 
L 276.130032 247.385864 
L 277.761462 247.578867 
L 279.392892 249.466007 
L 282.655751 245.838123 
L 284.287181 242.153339 
L 285.918611 236.838109 
L 287.550041 239.500835 
L 289.181471 241.189674 
L 290.812901 241.417998 
L 292.444331 244.560015 
L 294.075761 240.920265 
L 295.70719 247.135841 
L 297.33862 242.554541 
L 298.97005 241.348379 
L 300.60148 250.354107 
L 302.23291 241.300838 
L 303.86434 237.391956 
L 305.49577 239.426279 
L 307.1272 239.351723 
L 308.75863 241.151726 
L 310.390059 244.165931 
L 312.021489 242.642852 
L 313.652919 242.941077 
L 315.284349 235.560001 
L 316.915779 232.812068 
L 318.547209 242.877172 
L 320.178639 277.620422 
L 321.810069 274.989648 
L 323.441498 273.019231 
L 325.072928 271.293785 
L 326.704358 272.081951 
L 328.335788 271.315086 
L 329.967218 273.2429 
L 331.598648 271.698519 
L 333.230078 270.463014 
L 336.492937 272.241715 
L 338.124367 272.071301 
L 339.755797 271.229879 
L 341.387227 269.291415 
L 343.018657 273.040533 
L 344.650087 269.344669 
L 346.281517 269.387273 
L 347.912947 269.909167 
L 349.544376 269.696149 
L 351.175806 267.033423 
L 352.807236 268.780171 
L 354.438666 265.947031 
L 356.070096 277.812138 
L 357.701526 273.786096 
L 359.332956 272.209762 
L 360.964386 273.019231 
L 362.595815 273.647634 
L 364.227245 271.35769 
L 365.858675 273.743493 
L 367.490105 270.463014 
L 369.121535 271.666566 
L 370.752965 270.942305 
L 372.384395 270.65473 
L 374.015825 269.962422 
L 375.647254 268.151768 
L 377.278684 269.760054 
L 378.910114 267.800288 
L 380.541544 270.878399 
L 382.172974 266.1707 
L 383.804404 266.660641 
L 385.435834 267.992004 
L 387.067264 266.192001 
L 388.698693 267.363601 
L 390.330123 263.859453 
L 391.961553 260.847998 
L 393.592983 262.28312 
L 395.224413 262.699563 
L 396.855843 258.310332 
L 398.487273 260.213176 
L 398.487273 260.213176 
" clip-path="url(#p621d57e9fd)" style="fill: none; stroke: #0000ff; stroke-width: 1.5; stroke-linecap: square"/>
   </g>
   <g id="line2d_36">
    <path d="M 73.832727 286.30162 
L 75.464157 285.972527 
L 77.095587 285.130195 
L 78.727017 285.83713 
L 80.358447 287.280362 
L 81.989877 287.668421 
L 83.621307 286.824392 
L 85.252736 285.495422 
L 86.884166 287.285019 
L 88.515596 286.514891 
L 90.147026 287.727925 
L 91.778456 287.403608 
L 93.409886 284.73573 
L 95.041316 285.776254 
L 96.672746 287.428772 
L 98.304175 285.221449 
L 99.935605 287.121887 
L 101.567035 286.764841 
L 103.198465 287.767709 
L 104.829895 287.102826 
L 106.461325 287.26617 
L 108.092755 286.004353 
L 109.724185 290.402052 
L 111.355614 292.261157 
L 112.987044 289.602021 
L 114.618474 287.571213 
L 116.249904 289.357223 
L 117.881334 285.572664 
L 119.512764 289.116565 
L 121.144194 290.056949 
L 122.775624 290.468363 
L 124.407053 288.490807 
L 127.669913 286.54561 
L 129.301343 291.103042 
L 130.932773 294.240098 
L 132.564203 293.284107 
L 134.195633 291.959027 
L 135.827063 295.488 
L 137.458492 291.051825 
L 139.089922 289.512034 
L 140.721352 292.32957 
L 142.352782 289.517229 
L 143.984212 289.02492 
L 145.615642 290.827738 
L 147.247072 288.680783 
L 148.878502 289.784798 
L 150.509931 290.74754 
L 152.141361 290.34226 
L 153.772791 286.404089 
L 155.404221 290.884139 
L 157.035651 291.556358 
L 158.667081 289.464134 
L 160.298511 289.487317 
L 161.929941 282.216252 
L 163.56137 284.230387 
L 165.1928 287.145258 
L 166.82423 289.276605 
L 168.45566 288.228082 
L 170.08709 290.444928 
L 171.71852 293.38876 
L 173.34995 291.084249 
L 174.98138 287.37637 
L 176.61281 286.754786 
L 179.875669 288.607263 
L 181.507099 288.819019 
L 183.138529 285.996322 
L 184.769959 285.980682 
L 186.401389 289.148126 
L 188.032819 289.863238 
L 189.664249 289.180716 
L 191.295678 284.362604 
L 192.927108 290.329604 
L 194.558538 291.476884 
L 196.189968 289.164223 
L 197.821398 288.545668 
L 199.452828 286.633186 
L 201.084258 290.905185 
L 202.715688 285.93167 
L 204.347117 283.455624 
L 205.978547 285.683079 
L 207.609977 289.855849 
L 209.241407 287.686133 
L 210.872837 292.637467 
L 212.504267 290.271927 
L 214.135697 286.994879 
L 215.767127 291.164889 
L 217.398556 284.335877 
L 219.029986 286.73845 
L 222.292846 286.667591 
L 223.924276 292.15578 
L 225.555706 288.404879 
L 227.187136 285.087516 
L 228.818566 287.550679 
L 230.449995 287.779074 
L 232.081425 284.97681 
L 233.712855 288.085083 
L 235.344285 281.393192 
L 236.975715 282.156265 
L 238.607145 287.122777 
L 240.238575 287.066039 
L 241.870005 289.211025 
L 243.501434 287.79148 
L 245.132864 287.751223 
L 246.764294 281.615193 
L 248.395724 286.615626 
L 250.027154 283.243652 
L 251.658584 285.525425 
L 253.290014 289.812844 
L 254.921444 290.057479 
L 256.552873 287.788001 
L 258.184303 283.638907 
L 259.815733 287.657189 
L 261.447163 283.56864 
L 263.078593 282.546374 
L 264.710023 286.519231 
L 266.341453 286.405797 
L 267.972883 291.064565 
L 269.604312 289.202816 
L 272.867172 287.8795 
L 274.498602 286.887924 
L 276.130032 288.878212 
L 277.761462 285.568585 
L 279.392892 287.864888 
L 281.024322 289.194937 
L 282.655751 288.106376 
L 284.287181 287.695079 
L 285.918611 281.949688 
L 287.550041 285.590956 
L 290.812901 282.629265 
L 292.444331 286.195346 
L 294.075761 280.634541 
L 295.70719 289.084204 
L 297.33862 281.892494 
L 298.97005 282.735156 
L 300.60148 289.17183 
L 302.23291 281.370503 
L 303.86434 279.010791 
L 305.49577 283.86685 
L 307.1272 282.241158 
L 308.75863 286.356321 
L 310.390059 288.302236 
L 312.021489 281.45235 
L 313.652919 284.579711 
L 315.284349 282.315142 
L 316.915779 281.212675 
L 318.547209 286.580318 
L 320.178639 287.325634 
L 321.810069 290.09002 
L 323.441498 290.154229 
L 325.072928 289.937236 
L 326.704358 291.171878 
L 328.335788 291.015125 
L 329.967218 291.029352 
L 331.598648 289.911254 
L 333.230078 290.138103 
L 334.861508 287.938572 
L 336.492937 290.412011 
L 338.124367 289.451948 
L 339.755797 289.725394 
L 341.387227 290.712403 
L 343.018657 290.043206 
L 344.650087 287.388033 
L 346.281517 288.721469 
L 347.912947 288.302745 
L 349.544376 288.662643 
L 351.175806 287.38372 
L 352.807236 287.546823 
L 354.438666 284.482052 
L 356.070096 288.030813 
L 357.701526 286.438832 
L 359.332956 284.493058 
L 360.964386 287.286609 
L 362.595815 286.845222 
L 364.227245 288.137499 
L 365.858675 288.931831 
L 367.490105 286.592732 
L 369.121535 287.096492 
L 370.752965 286.073222 
L 372.384395 285.722188 
L 374.015825 287.815513 
L 375.647254 286.388284 
L 377.278684 290.586034 
L 378.910114 288.554263 
L 380.541544 289.802994 
L 382.172974 289.594527 
L 383.804404 287.719289 
L 385.435834 287.761058 
L 387.067264 285.292435 
L 388.698693 289.104027 
L 390.330123 285.604166 
L 391.961553 281.710618 
L 393.592983 286.416254 
L 395.224413 286.843472 
L 396.855843 283.88098 
L 398.487273 286.286716 
L 398.487273 286.286716 
" clip-path="url(#p621d57e9fd)" style="fill: none; stroke-dasharray: 9.6,2.4,1.5,2.4; stroke-dashoffset: 0; stroke: #008000; stroke-width: 1.5"/>
   </g>
   <g id="line2d_37">
    <path d="M 73.832727 267.320286 
L 75.464157 261.216233 
L 77.095587 263.485786 
L 78.727017 259.903107 
L 80.358447 256.904842 
L 81.989877 256.175954 
L 85.252736 253.385632 
L 86.884166 250.914378 
L 88.515596 251.343676 
L 90.147026 250.57798 
L 91.778456 251.456145 
L 93.409886 253.250648 
L 95.041316 246.160411 
L 96.672746 245.466474 
L 98.304175 242.880891 
L 99.935605 246.455017 
L 101.567035 242.786021 
L 103.198465 241.229307 
L 104.829895 239.380575 
L 106.461325 239.281138 
L 108.092755 237.006854 
L 109.724185 232.097912 
L 111.355614 226.38318 
L 112.987044 236.774872 
L 114.618474 237.676684 
L 116.249904 233.440966 
L 117.881334 231.324924 
L 119.512764 230.422447 
L 121.144194 235.063138 
L 122.775624 231.264735 
L 124.407053 228.61331 
L 126.038483 229.903772 
L 127.669913 219.062019 
L 129.301343 220.703414 
L 130.932773 218.547228 
L 132.564203 226.361415 
L 134.195633 222.005774 
L 135.827063 220.174083 
L 137.458492 213.391496 
L 139.089922 214.157131 
L 140.721352 219.008247 
L 142.352782 214.450161 
L 143.984212 217.200462 
L 145.615642 225.792926 
L 147.247072 215.073589 
L 148.878502 226.624707 
L 150.509931 223.167795 
L 153.772791 219.711925 
L 155.404221 226.318822 
L 157.035651 217.990819 
L 158.667081 226.219251 
L 160.298511 218.932151 
L 161.929941 219.06711 
L 163.56137 215.860074 
L 165.1928 213.051713 
L 166.82423 219.369892 
L 168.45566 215.893567 
L 170.08709 221.105906 
L 171.71852 214.604672 
L 173.34995 206.130468 
L 174.98138 209.4346 
L 176.61281 211.716738 
L 178.244239 205.585148 
L 179.875669 214.013252 
L 181.507099 215.216851 
L 183.138529 211.729639 
L 184.769959 213.790252 
L 186.401389 214.180351 
L 188.032819 210.121843 
L 189.664249 211.974836 
L 191.295678 205.253716 
L 192.927108 206.246058 
L 194.558538 213.759894 
L 196.189968 218.603038 
L 199.452828 206.91903 
L 201.084258 203.937836 
L 202.715688 199.780912 
L 204.347117 205.504713 
L 205.978547 203.192615 
L 207.609977 214.984916 
L 209.241407 213.107288 
L 210.872837 218.59384 
L 212.504267 209.79666 
L 214.135697 222.553585 
L 215.767127 222.111391 
L 217.398556 216.500148 
L 219.029986 215.546098 
L 220.661416 217.391629 
L 222.292846 212.500316 
L 223.924276 213.57966 
L 225.555706 215.306889 
L 227.187136 223.023288 
L 228.818566 224.347897 
L 230.449995 212.481096 
L 232.081425 222.985869 
L 233.712855 211.068098 
L 235.344285 218.654665 
L 236.975715 207.713983 
L 238.607145 215.246978 
L 240.238575 218.406632 
L 241.870005 218.6972 
L 243.501434 215.728573 
L 245.132864 219.801591 
L 246.764294 215.215234 
L 248.395724 212.702394 
L 250.027154 212.879098 
L 251.658584 206.938989 
L 253.290014 205.009016 
L 254.921444 212.805462 
L 256.552873 206.864574 
L 258.184303 206.821697 
L 259.815733 202.442724 
L 263.078593 200.59476 
L 264.710023 197.573572 
L 266.341453 201.62784 
L 267.972883 210.462267 
L 269.604312 208.161013 
L 271.235742 203.23249 
L 272.867172 211.545744 
L 274.498602 204.788322 
L 276.130032 205.893516 
L 277.761462 209.58915 
L 279.392892 211.067126 
L 281.024322 206.209702 
L 282.655751 203.569871 
L 284.287181 196.6116 
L 285.918611 191.72653 
L 287.550041 193.410715 
L 289.181471 198.308951 
L 290.812901 200.206732 
L 292.444331 202.924683 
L 294.075761 201.205989 
L 295.70719 205.187478 
L 297.33862 203.216589 
L 298.97005 199.961602 
L 300.60148 211.536384 
L 302.23291 201.231174 
L 303.86434 195.773122 
L 305.49577 194.985708 
L 307.1272 196.462288 
L 308.75863 195.94713 
L 312.021489 203.833354 
L 313.652919 201.302444 
L 315.284349 188.804859 
L 316.915779 184.41146 
L 318.547209 199.174026 
L 320.178639 267.915209 
L 321.810069 259.889276 
L 323.441498 255.884233 
L 325.072928 252.650333 
L 326.704358 252.992025 
L 328.335788 251.615048 
L 329.967218 255.456448 
L 331.598648 253.485784 
L 333.230078 250.787925 
L 334.861508 254.776808 
L 336.492937 254.071419 
L 338.124367 254.690653 
L 339.755797 252.734364 
L 341.387227 247.870426 
L 343.018657 256.037859 
L 344.650087 251.301305 
L 346.281517 250.053077 
L 347.912947 251.515589 
L 349.544376 250.729655 
L 351.175806 246.683126 
L 352.807236 250.01352 
L 354.438666 247.412009 
L 356.070096 267.593463 
L 357.701526 261.13336 
L 360.964386 258.751853 
L 362.595815 260.450047 
L 364.227245 254.577881 
L 365.858675 258.555154 
L 367.490105 254.333296 
L 369.121535 256.236641 
L 370.752965 255.811388 
L 372.384395 255.587273 
L 374.015825 252.10933 
L 375.647254 249.915252 
L 377.278684 248.934075 
L 378.910114 247.046313 
L 380.541544 251.953804 
L 382.172974 242.746872 
L 383.804404 245.601993 
L 385.435834 248.22295 
L 387.067264 247.091568 
L 388.698693 245.623175 
L 390.330123 242.114741 
L 391.961553 239.985379 
L 393.592983 238.149985 
L 395.224413 238.555654 
L 396.855843 232.739685 
L 398.487273 234.139636 
L 398.487273 234.139636 
" clip-path="url(#p621d57e9fd)" style="fill: none; stroke-dasharray: 9.6,2.4,1.5,2.4; stroke-dashoffset: 0; stroke: #008000; stroke-width: 1.5"/>
   </g>
   <g id="line2d_38">
    <path d="M 73.832727 245.284276 
L 75.464157 211.733928 
L 77.095587 211.733928 
L 78.727017 200.550479 
L 80.358447 197.355207 
L 81.989877 190.964665 
L 85.252736 190.964665 
L 86.884166 178.18358 
L 93.409886 178.18358 
L 95.041316 109.485247 
L 121.144194 109.485247 
L 122.775624 99.899433 
L 127.669913 99.899433 
L 129.301343 91.911255 
L 140.721352 91.911255 
L 142.352782 82.325441 
L 170.08709 82.325441 
L 171.71852 74.337263 
L 173.34995 53.568 
L 205.978547 53.568 
L 207.609977 58.360907 
L 225.555706 58.360907 
L 227.187136 122.266332 
L 228.818566 122.266332 
L 230.449995 99.899433 
L 235.344285 99.899433 
L 236.975715 96.704162 
L 241.870005 96.704162 
L 243.501434 75.934899 
L 282.655751 75.934899 
L 284.287181 82.325441 
L 285.918611 75.934899 
L 318.547209 75.934899 
L 320.178639 227.710284 
L 321.810069 131.852146 
L 354.438666 131.852146 
L 356.070096 218.124471 
L 357.701526 206.941021 
L 359.332956 206.941021 
L 360.964386 184.574122 
L 362.595815 184.574122 
L 364.227245 178.18358 
L 374.015825 178.18358 
L 375.647254 176.585944 
L 377.278684 171.793037 
L 378.910114 160.609588 
L 380.541544 160.609588 
L 382.172974 155.816681 
L 395.224413 155.816681 
L 396.855843 147.828503 
L 398.487273 147.828503 
L 398.487273 147.828503 
" clip-path="url(#p621d57e9fd)" style="fill: none; stroke: #ff0000; stroke-width: 1.5; stroke-linecap: square"/>
   </g>
   <g id="patch_3">
    <path d="M 57.6 307.584 
L 57.6 41.472 
" style="fill: none; stroke: #000000; stroke-width: 0.8; stroke-linejoin: miter; stroke-linecap: square"/>
   </g>
   <g id="patch_4">
    <path d="M 414.72 307.584 
L 414.72 41.472 
" style="fill: none; stroke: #000000; stroke-width: 0.8; stroke-linejoin: miter; stroke-linecap: square"/>
   </g>
   <g id="patch_5">
    <path d="M 57.6 307.584 
L 414.72 307.584 
" style="fill: none; stroke: #000000; stroke-width: 0.8; stroke-linejoin: miter; stroke-linecap: square"/>
   </g>
   <g id="patch_6">
    <path d="M 57.6 41.472 
L 414.72 41.472 
" style="fill: none; stroke: #000000; stroke-width: 0.8; stroke-linejoin: miter; stroke-linecap: square"/>
   </g>
   <g id="text_20">
    <!-- Population's average and best fitness -->
    <g transform="translate(123.529687 35.472)scale(0.12 -0.12)">
     <defs>
      <path id="DejaVuSans-50" d="M 1259 4147 
L 1259 2394 
L 2053 2394 
Q 2494 2394 2734 2622 
Q 2975 2850 2975 3272 
Q 2975 3691 2734 3919 
Q 2494 4147 2053 4147 
L 1259 4147 
z
M 628 4666 
L 2053 4666 
Q 2838 4666 3239 4311 
Q 3641 3956 3641 3272 
Q 3641 2581 3239 2228 
Q 2838 1875 2053 1875 
L 1259 1875 
L 1259 0 
L 628 0 
L 628 4666 
z
" transform="scale(0.015625)"/>
      <path id="DejaVuSans-70" d="M 1159 525 
L 1159 -1331 
L 581 -1331 
L 581 3500 
L 1159 3500 
L 1159 2969 
Q 1341 3281 1617 3432 
Q 1894 3584 2278 3584 
Q 2916 3584 3314 3078 
Q 3713 2572 3713 1747 
Q 3713 922 3314 415 
Q 2916 -91 2278 -91 
Q 1894 -91 1617 61 
Q 1341 213 1159 525 
z
M 3116 1747 
Q 3116 2381 2855 2742 
Q 2594 3103 2138 3103 
Q 1681 3103 1420 2742 
Q 1159 2381 1159 1747 
Q 1159 1113 1420 752 
Q 1681 391 2138 391 
Q 2594 391 2855 752 
Q 3116 1113 3116 1747 
z
" transform="scale(0.015625)"/>
      <path id="DejaVuSans-75" d="M 544 1381 
L 544 3500 
L 1119 3500 
L 1119 1403 
Q 1119 906 1312 657 
Q 1506 409 1894 409 
Q 2359 409 2629 706 
Q 2900 1003 2900 1516 
L 2900 3500 
L 3475 3500 
L 3475 0 
L 2900 0 
L 2900 538 
Q 2691 219 2414 64 
Q 2138 -91 1772 -91 
Q 1169 -91 856 284 
Q 544 659 544 1381 
z
M 1991 3584 
L 1991 3584 
z
" transform="scale(0.015625)"/>
      <path id="DejaVuSans-6c" d="M 603 4863 
L 1178 4863 
L 1178 0 
L 603 0 
L 603 4863 
z
" transform="scale(0.015625)"/>
      <path id="DejaVuSans-27" d="M 1147 4666 
L 1147 2931 
L 616 2931 
L 616 4666 
L 1147 4666 
z
" transform="scale(0.015625)"/>
      <path id="DejaVuSans-20" transform="scale(0.015625)"/>
      <path id="DejaVuSans-76" d="M 191 3500 
L 800 3500 
L 1894 563 
L 2988 3500 
L 3597 3500 
L 2284 0 
L 1503 0 
L 191 3500 
z
" transform="scale(0.015625)"/>
      <path id="DejaVuSans-67" d="M 2906 1791 
Q 2906 2416 2648 2759 
Q 2391 3103 1925 3103 
Q 1463 3103 1205 2759 
Q 947 2416 947 1791 
Q 947 1169 1205 825 
Q 1463 481 1925 481 
Q 2391 481 2648 825 
Q 2906 1169 2906 1791 
z
M 3481 434 
Q 3481 -459 3084 -895 
Q 2688 -1331 1869 -1331 
Q 1566 -1331 1297 -1286 
Q 1028 -1241 775 -1147 
L 775 -588 
Q 1028 -725 1275 -790 
Q 1522 -856 1778 -856 
Q 2344 -856 2625 -561 
Q 2906 -266 2906 331 
L 2906 616 
Q 2728 306 2450 153 
Q 2172 0 1784 0 
Q 1141 0 747 490 
Q 353 981 353 1791 
Q 353 2603 747 3093 
Q 1141 3584 1784 3584 
Q 2172 3584 2450 3431 
Q 2728 3278 2906 2969 
L 2906 3500 
L 3481 3500 
L 3481 434 
z
" transform="scale(0.015625)"/>
      <path id="DejaVuSans-64" d="M 2906 2969 
L 2906 4863 
L 3481 4863 
L 3481 0 
L 2906 0 
L 2906 525 
Q 2725 213 2448 61 
Q 2172 -91 1784 -91 
Q 1150 -91 751 415 
Q 353 922 353 1747 
Q 353 2572 751 3078 
Q 1150 3584 1784 3584 
Q 2172 3584 2448 3432 
Q 2725 3281 2906 2969 
z
M 947 1747 
Q 947 1113 1208 752 
Q 1469 391 1925 391 
Q 2381 391 2643 752 
Q 2906 1113 2906 1747 
Q 2906 2381 2643 2742 
Q 2381 3103 1925 3103 
Q 1469 3103 1208 2742 
Q 947 2381 947 1747 
z
" transform="scale(0.015625)"/>
      <path id="DejaVuSans-62" d="M 3116 1747 
Q 3116 2381 2855 2742 
Q 2594 3103 2138 3103 
Q 1681 3103 1420 2742 
Q 1159 2381 1159 1747 
Q 1159 1113 1420 752 
Q 1681 391 2138 391 
Q 2594 391 2855 752 
Q 3116 1113 3116 1747 
z
M 1159 2969 
Q 1341 3281 1617 3432 
Q 1894 3584 2278 3584 
Q 2916 3584 3314 3078 
Q 3713 2572 3713 1747 
Q 3713 922 3314 415 
Q 2916 -91 2278 -91 
Q 1894 -91 1617 61 
Q 1341 213 1159 525 
L 1159 0 
L 581 0 
L 581 4863 
L 1159 4863 
L 1159 2969 
z
" transform="scale(0.015625)"/>
      <path id="DejaVuSans-66" d="M 2375 4863 
L 2375 4384 
L 1825 4384 
Q 1516 4384 1395 4259 
Q 1275 4134 1275 3809 
L 1275 3500 
L 2222 3500 
L 2222 3053 
L 1275 3053 
L 1275 0 
L 697 0 
L 697 3053 
L 147 3053 
L 147 3500 
L 697 3500 
L 697 3744 
Q 697 4328 969 4595 
Q 1241 4863 1831 4863 
L 2375 4863 
z
" transform="scale(0.015625)"/>
     </defs>
     <use xlink:href="#DejaVuSans-50"/>
     <use xlink:href="#DejaVuSans-6f" x="56.677734"/>
     <use xlink:href="#DejaVuSans-70" x="117.859375"/>
     <use xlink:href="#DejaVuSans-75" x="181.335938"/>
     <use xlink:href="#DejaVuSans-6c" x="244.714844"/>
     <use xlink:href="#DejaVuSans-61" x="272.498047"/>
     <use xlink:href="#DejaVuSans-74" x="333.777344"/>
     <use xlink:href="#DejaVuSans-69" x="372.986328"/>
     <use xlink:href="#DejaVuSans-6f" x="400.769531"/>
     <use xlink:href="#DejaVuSans-6e" x="461.951172"/>
     <use xlink:href="#DejaVuSans-27" x="525.330078"/>
     <use xlink:href="#DejaVuSans-73" x="552.820312"/>
     <use xlink:href="#DejaVuSans-20" x="604.919922"/>
     <use xlink:href="#DejaVuSans-61" x="636.707031"/>
     <use xlink:href="#DejaVuSans-76" x="697.986328"/>
     <use xlink:href="#DejaVuSans-65" x="757.166016"/>
     <use xlink:href="#DejaVuSans-72" x="818.689453"/>
     <use xlink:href="#DejaVuSans-61" x="859.802734"/>
     <use xlink:href="#DejaVuSans-67" x="921.082031"/>
     <use xlink:href="#DejaVuSans-65" x="984.558594"/>
     <use xlink:href="#DejaVuSans-20" x="1046.082031"/>
     <use xlink:href="#DejaVuSans-61" x="1077.869141"/>
     <use xlink:href="#DejaVuSans-6e" x="1139.148438"/>
     <use xlink:href="#DejaVuSans-64" x="1202.527344"/>
     <use xlink:href="#DejaVuSans-20" x="1266.003906"/>
     <use xlink:href="#DejaVuSans-62" x="1297.791016"/>
     <use xlink:href="#DejaVuSans-65" x="1361.267578"/>
     <use xlink:href="#DejaVuSans-73" x="1422.791016"/>
     <use xlink:href="#DejaVuSans-74" x="1474.890625"/>
     <use xlink:href="#DejaVuSans-20" x="1514.099609"/>
     <use xlink:href="#DejaVuSans-66" x="1545.886719"/>
     <use xlink:href="#DejaVuSans-69" x="1581.091797"/>
     <use xlink:href="#DejaVuSans-74" x="1608.875"/>
     <use xlink:href="#DejaVuSans-6e" x="1648.083984"/>
     <use xlink:href="#DejaVuSans-65" x="1711.462891"/>
     <use xlink:href="#DejaVuSans-73" x="1772.986328"/>
     <use xlink:href="#DejaVuSans-73" x="1825.085938"/>
    </g>
   </g>
   <g id="legend_1">
    <g id="patch_7">
     <path d="M 334.779375 108.1845 
L 407.72 108.1845 
Q 409.72 108.1845 409.72 106.1845 
L 409.72 48.472 
Q 409.72 46.472 407.72 46.472 
L 334.779375 46.472 
Q 332.779375 46.472 332.779375 48.472 
L 332.779375 106.1845 
Q 332.779375 108.1845 334.779375 108.1845 
z
" style="fill: #ffffff; opacity: 0.8; stroke: #cccccc; stroke-linejoin: miter"/>
    </g>
    <g id="line2d_39">
     <path d="M 336.779375 54.570438 
L 346.779375 54.570438 
L 356.779375 54.570438 
" style="fill: none; stroke: #0000ff; stroke-width: 1.5; stroke-linecap: square"/>
    </g>
    <g id="text_21">
     <!-- average -->
     <g transform="translate(364.779375 58.070438)scale(0.1 -0.1)">
      <use xlink:href="#DejaVuSans-61"/>
      <use xlink:href="#DejaVuSans-76" x="61.279297"/>
      <use xlink:href="#DejaVuSans-65" x="120.458984"/>
      <use xlink:href="#DejaVuSans-72" x="181.982422"/>
      <use xlink:href="#DejaVuSans-61" x="223.095703"/>
      <use xlink:href="#DejaVuSans-67" x="284.375"/>
      <use xlink:href="#DejaVuSans-65" x="347.851562"/>
     </g>
    </g>
    <g id="line2d_40">
     <path d="M 336.779375 69.248563 
L 346.779375 69.248563 
L 356.779375 69.248563 
" style="fill: none; stroke-dasharray: 9.6,2.4,1.5,2.4; stroke-dashoffset: 0; stroke: #008000; stroke-width: 1.5"/>
    </g>
    <g id="text_22">
     <!-- -1 sd -->
     <g transform="translate(364.779375 72.748563)scale(0.1 -0.1)">
      <defs>
       <path id="DejaVuSans-2d" d="M 313 2009 
L 1997 2009 
L 1997 1497 
L 313 1497 
L 313 2009 
z
" transform="scale(0.015625)"/>
      </defs>
      <use xlink:href="#DejaVuSans-2d"/>
      <use xlink:href="#DejaVuSans-31" x="36.083984"/>
      <use xlink:href="#DejaVuSans-20" x="99.707031"/>
      <use xlink:href="#DejaVuSans-73" x="131.494141"/>
      <use xlink:href="#DejaVuSans-64" x="183.59375"/>
     </g>
    </g>
    <g id="line2d_41">
     <path d="M 336.779375 83.926688 
L 346.779375 83.926688 
L 356.779375 83.926688 
" style="fill: none; stroke-dasharray: 9.6,2.4,1.5,2.4; stroke-dashoffset: 0; stroke: #008000; stroke-width: 1.5"/>
    </g>
    <g id="text_23">
     <!-- +1 sd -->
     <g transform="translate(364.779375 87.426688)scale(0.1 -0.1)">
      <defs>
       <path id="DejaVuSans-2b" d="M 2944 4013 
L 2944 2272 
L 4684 2272 
L 4684 1741 
L 2944 1741 
L 2944 0 
L 2419 0 
L 2419 1741 
L 678 1741 
L 678 2272 
L 2419 2272 
L 2419 4013 
L 2944 4013 
z
" transform="scale(0.015625)"/>
      </defs>
      <use xlink:href="#DejaVuSans-2b"/>
      <use xlink:href="#DejaVuSans-31" x="83.789062"/>
      <use xlink:href="#DejaVuSans-20" x="147.412109"/>
      <use xlink:href="#DejaVuSans-73" x="179.199219"/>
      <use xlink:href="#DejaVuSans-64" x="231.298828"/>
     </g>
    </g>
    <g id="line2d_42">
     <path d="M 336.779375 98.604813 
L 346.779375 98.604813 
L 356.779375 98.604813 
" style="fill: none; stroke: #ff0000; stroke-width: 1.5; stroke-linecap: square"/>
    </g>
    <g id="text_24">
     <!-- best -->
     <g transform="translate(364.779375 102.104813)scale(0.1 -0.1)">
      <use xlink:href="#DejaVuSans-62"/>
      <use xlink:href="#DejaVuSans-65" x="63.476562"/>
      <use xlink:href="#DejaVuSans-73" x="125"/>
      <use xlink:href="#DejaVuSans-74" x="177.099609"/>
     </g>
    </g>
   </g>
  </g>
 </g>
 <defs>
  <clipPath id="p621d57e9fd">
   <rect x="57.6" y="41.472" width="357.12" height="266.112"/>
  </clipPath>
 </defs>
</svg>
