<?xml version="1.0" encoding="utf-8" standalone="no"?>
<!DOCTYPE svg PUBLIC "-//W3C//DTD SVG 1.1//EN"
  "http://www.w3.org/Graphics/SVG/1.1/DTD/svg11.dtd">
<svg xmlns:xlink="http://www.w3.org/1999/xlink" width="460.8pt" height="345.6pt" viewBox="0 0 460.8 345.6" xmlns="http://www.w3.org/2000/svg" version="1.1">
 <metadata>
  <rdf:RDF xmlns:dc="http://purl.org/dc/elements/1.1/" xmlns:cc="http://creativecommons.org/ns#" xmlns:rdf="http://www.w3.org/1999/02/22-rdf-syntax-ns#">
   <cc:Work>
    <dc:type rdf:resource="http://purl.org/dc/dcmitype/StillImage"/>
    <dc:date>2022-06-27T08:31:27.982361</dc:date>
    <dc:format>image/svg+xml</dc:format>
    <dc:creator>
     <cc:Agent>
      <dc:title>Matplotlib v3.5.2, https://matplotlib.org/</dc:title>
     </cc:Agent>
    </dc:creator>
   </cc:Work>
  </rdf:RDF>
 </metadata>
 <defs>
  <style type="text/css">*{stroke-linejoin: round; stroke-linecap: butt}</style>
 </defs>
 <g id="figure_1">
  <g id="patch_1">
   <path d="M 0 345.6 
L 460.8 345.6 
L 460.8 0 
L 0 0 
z
" style="fill: #ffffff"/>
  </g>
  <g id="axes_1">
   <g id="patch_2">
    <path d="M 57.6 307.584 
L 414.72 307.584 
L 414.72 41.472 
L 57.6 41.472 
z
" style="fill: #ffffff"/>
   </g>
   <g id="matplotlib.axis_1">
    <g id="xtick_1">
     <g id="line2d_1">
      <path d="M 73.832727 307.584 
L 73.832727 41.472 
" clip-path="url(#pc0306617c4)" style="fill: none; stroke: #b0b0b0; stroke-width: 0.8; stroke-linecap: square"/>
     </g>
     <g id="line2d_2">
      <defs>
       <path id="m670784c7a2" d="M 0 0 
L 0 3.5 
" style="stroke: #000000; stroke-width: 0.8"/>
      </defs>
      <g>
       <use xlink:href="#m670784c7a2" x="73.832727" y="307.584" style="stroke: #000000; stroke-width: 0.8"/>
      </g>
     </g>
     <g id="text_1">
      <!-- 0 -->
      <g transform="translate(70.651477 322.182437)scale(0.1 -0.1)">
       <defs>
        <path id="DejaVuSans-30" d="M 2034 4250 
Q 1547 4250 1301 3770 
Q 1056 3291 1056 2328 
Q 1056 1369 1301 889 
Q 1547 409 2034 409 
Q 2525 409 2770 889 
Q 3016 1369 3016 2328 
Q 3016 3291 2770 3770 
Q 2525 4250 2034 4250 
z
M 2034 4750 
Q 2819 4750 3233 4129 
Q 3647 3509 3647 2328 
Q 3647 1150 3233 529 
Q 2819 -91 2034 -91 
Q 1250 -91 836 529 
Q 422 1150 422 2328 
Q 422 3509 836 4129 
Q 1250 4750 2034 4750 
z
" transform="scale(0.015625)"/>
       </defs>
       <use xlink:href="#DejaVuSans-30"/>
      </g>
     </g>
    </g>
    <g id="xtick_2">
     <g id="line2d_3">
      <path d="M 114.618474 307.584 
L 114.618474 41.472 
" clip-path="url(#pc0306617c4)" style="fill: none; stroke: #b0b0b0; stroke-width: 0.8; stroke-linecap: square"/>
     </g>
     <g id="line2d_4">
      <g>
       <use xlink:href="#m670784c7a2" x="114.618474" y="307.584" style="stroke: #000000; stroke-width: 0.8"/>
      </g>
     </g>
     <g id="text_2">
      <!-- 25 -->
      <g transform="translate(108.255974 322.182437)scale(0.1 -0.1)">
       <defs>
        <path id="DejaVuSans-32" d="M 1228 531 
L 3431 531 
L 3431 0 
L 469 0 
L 469 531 
Q 828 903 1448 1529 
Q 2069 2156 2228 2338 
Q 2531 2678 2651 2914 
Q 2772 3150 2772 3378 
Q 2772 3750 2511 3984 
Q 2250 4219 1831 4219 
Q 1534 4219 1204 4116 
Q 875 4013 500 3803 
L 500 4441 
Q 881 4594 1212 4672 
Q 1544 4750 1819 4750 
Q 2544 4750 2975 4387 
Q 3406 4025 3406 3419 
Q 3406 3131 3298 2873 
Q 3191 2616 2906 2266 
Q 2828 2175 2409 1742 
Q 1991 1309 1228 531 
z
" transform="scale(0.015625)"/>
        <path id="DejaVuSans-35" d="M 691 4666 
L 3169 4666 
L 3169 4134 
L 1269 4134 
L 1269 2991 
Q 1406 3038 1543 3061 
Q 1681 3084 1819 3084 
Q 2600 3084 3056 2656 
Q 3513 2228 3513 1497 
Q 3513 744 3044 326 
Q 2575 -91 1722 -91 
Q 1428 -91 1123 -41 
Q 819 9 494 109 
L 494 744 
Q 775 591 1075 516 
Q 1375 441 1709 441 
Q 2250 441 2565 725 
Q 2881 1009 2881 1497 
Q 2881 1984 2565 2268 
Q 2250 2553 1709 2553 
Q 1456 2553 1204 2497 
Q 953 2441 691 2322 
L 691 4666 
z
" transform="scale(0.015625)"/>
       </defs>
       <use xlink:href="#DejaVuSans-32"/>
       <use xlink:href="#DejaVuSans-35" x="63.623047"/>
      </g>
     </g>
    </g>
    <g id="xtick_3">
     <g id="line2d_5">
      <path d="M 155.404221 307.584 
L 155.404221 41.472 
" clip-path="url(#pc0306617c4)" style="fill: none; stroke: #b0b0b0; stroke-width: 0.8; stroke-linecap: square"/>
     </g>
     <g id="line2d_6">
      <g>
       <use xlink:href="#m670784c7a2" x="155.404221" y="307.584" style="stroke: #000000; stroke-width: 0.8"/>
      </g>
     </g>
     <g id="text_3">
      <!-- 50 -->
      <g transform="translate(149.041721 322.182437)scale(0.1 -0.1)">
       <use xlink:href="#DejaVuSans-35"/>
       <use xlink:href="#DejaVuSans-30" x="63.623047"/>
      </g>
     </g>
    </g>
    <g id="xtick_4">
     <g id="line2d_7">
      <path d="M 196.189968 307.584 
L 196.189968 41.472 
" clip-path="url(#pc0306617c4)" style="fill: none; stroke: #b0b0b0; stroke-width: 0.8; stroke-linecap: square"/>
     </g>
     <g id="line2d_8">
      <g>
       <use xlink:href="#m670784c7a2" x="196.189968" y="307.584" style="stroke: #000000; stroke-width: 0.8"/>
      </g>
     </g>
     <g id="text_4">
      <!-- 75 -->
      <g transform="translate(189.827468 322.182437)scale(0.1 -0.1)">
       <defs>
        <path id="DejaVuSans-37" d="M 525 4666 
L 3525 4666 
L 3525 4397 
L 1831 0 
L 1172 0 
L 2766 4134 
L 525 4134 
L 525 4666 
z
" transform="scale(0.015625)"/>
       </defs>
       <use xlink:href="#DejaVuSans-37"/>
       <use xlink:href="#DejaVuSans-35" x="63.623047"/>
      </g>
     </g>
    </g>
    <g id="xtick_5">
     <g id="line2d_9">
      <path d="M 236.975715 307.584 
L 236.975715 41.472 
" clip-path="url(#pc0306617c4)" style="fill: none; stroke: #b0b0b0; stroke-width: 0.8; stroke-linecap: square"/>
     </g>
     <g id="line2d_10">
      <g>
       <use xlink:href="#m670784c7a2" x="236.975715" y="307.584" style="stroke: #000000; stroke-width: 0.8"/>
      </g>
     </g>
     <g id="text_5">
      <!-- 100 -->
      <g transform="translate(227.431965 322.182437)scale(0.1 -0.1)">
       <defs>
        <path id="DejaVuSans-31" d="M 794 531 
L 1825 531 
L 1825 4091 
L 703 3866 
L 703 4441 
L 1819 4666 
L 2450 4666 
L 2450 531 
L 3481 531 
L 3481 0 
L 794 0 
L 794 531 
z
" transform="scale(0.015625)"/>
       </defs>
       <use xlink:href="#DejaVuSans-31"/>
       <use xlink:href="#DejaVuSans-30" x="63.623047"/>
       <use xlink:href="#DejaVuSans-30" x="127.246094"/>
      </g>
     </g>
    </g>
    <g id="xtick_6">
     <g id="line2d_11">
      <path d="M 277.761462 307.584 
L 277.761462 41.472 
" clip-path="url(#pc0306617c4)" style="fill: none; stroke: #b0b0b0; stroke-width: 0.8; stroke-linecap: square"/>
     </g>
     <g id="line2d_12">
      <g>
       <use xlink:href="#m670784c7a2" x="277.761462" y="307.584" style="stroke: #000000; stroke-width: 0.8"/>
      </g>
     </g>
     <g id="text_6">
      <!-- 125 -->
      <g transform="translate(268.217712 322.182437)scale(0.1 -0.1)">
       <use xlink:href="#DejaVuSans-31"/>
       <use xlink:href="#DejaVuSans-32" x="63.623047"/>
       <use xlink:href="#DejaVuSans-35" x="127.246094"/>
      </g>
     </g>
    </g>
    <g id="xtick_7">
     <g id="line2d_13">
      <path d="M 318.547209 307.584 
L 318.547209 41.472 
" clip-path="url(#pc0306617c4)" style="fill: none; stroke: #b0b0b0; stroke-width: 0.8; stroke-linecap: square"/>
     </g>
     <g id="line2d_14">
      <g>
       <use xlink:href="#m670784c7a2" x="318.547209" y="307.584" style="stroke: #000000; stroke-width: 0.8"/>
      </g>
     </g>
     <g id="text_7">
      <!-- 150 -->
      <g transform="translate(309.003459 322.182437)scale(0.1 -0.1)">
       <use xlink:href="#DejaVuSans-31"/>
       <use xlink:href="#DejaVuSans-35" x="63.623047"/>
       <use xlink:href="#DejaVuSans-30" x="127.246094"/>
      </g>
     </g>
    </g>
    <g id="xtick_8">
     <g id="line2d_15">
      <path d="M 359.332956 307.584 
L 359.332956 41.472 
" clip-path="url(#pc0306617c4)" style="fill: none; stroke: #b0b0b0; stroke-width: 0.8; stroke-linecap: square"/>
     </g>
     <g id="line2d_16">
      <g>
       <use xlink:href="#m670784c7a2" x="359.332956" y="307.584" style="stroke: #000000; stroke-width: 0.8"/>
      </g>
     </g>
     <g id="text_8">
      <!-- 175 -->
      <g transform="translate(349.789206 322.182437)scale(0.1 -0.1)">
       <use xlink:href="#DejaVuSans-31"/>
       <use xlink:href="#DejaVuSans-37" x="63.623047"/>
       <use xlink:href="#DejaVuSans-35" x="127.246094"/>
      </g>
     </g>
    </g>
    <g id="xtick_9">
     <g id="line2d_17">
      <path d="M 400.118703 307.584 
L 400.118703 41.472 
" clip-path="url(#pc0306617c4)" style="fill: none; stroke: #b0b0b0; stroke-width: 0.8; stroke-linecap: square"/>
     </g>
     <g id="line2d_18">
      <g>
       <use xlink:href="#m670784c7a2" x="400.118703" y="307.584" style="stroke: #000000; stroke-width: 0.8"/>
      </g>
     </g>
     <g id="text_9">
      <!-- 200 -->
      <g transform="translate(390.574953 322.182437)scale(0.1 -0.1)">
       <use xlink:href="#DejaVuSans-32"/>
       <use xlink:href="#DejaVuSans-30" x="63.623047"/>
       <use xlink:href="#DejaVuSans-30" x="127.246094"/>
      </g>
     </g>
    </g>
    <g id="text_10">
     <!-- Generations -->
     <g transform="translate(205.662344 335.860562)scale(0.1 -0.1)">
      <defs>
       <path id="DejaVuSans-47" d="M 3809 666 
L 3809 1919 
L 2778 1919 
L 2778 2438 
L 4434 2438 
L 4434 434 
Q 4069 175 3628 42 
Q 3188 -91 2688 -91 
Q 1594 -91 976 548 
Q 359 1188 359 2328 
Q 359 3472 976 4111 
Q 1594 4750 2688 4750 
Q 3144 4750 3555 4637 
Q 3966 4525 4313 4306 
L 4313 3634 
Q 3963 3931 3569 4081 
Q 3175 4231 2741 4231 
Q 1884 4231 1454 3753 
Q 1025 3275 1025 2328 
Q 1025 1384 1454 906 
Q 1884 428 2741 428 
Q 3075 428 3337 486 
Q 3600 544 3809 666 
z
" transform="scale(0.015625)"/>
       <path id="DejaVuSans-65" d="M 3597 1894 
L 3597 1613 
L 953 1613 
Q 991 1019 1311 708 
Q 1631 397 2203 397 
Q 2534 397 2845 478 
Q 3156 559 3463 722 
L 3463 178 
Q 3153 47 2828 -22 
Q 2503 -91 2169 -91 
Q 1331 -91 842 396 
Q 353 884 353 1716 
Q 353 2575 817 3079 
Q 1281 3584 2069 3584 
Q 2775 3584 3186 3129 
Q 3597 2675 3597 1894 
z
M 3022 2063 
Q 3016 2534 2758 2815 
Q 2500 3097 2075 3097 
Q 1594 3097 1305 2825 
Q 1016 2553 972 2059 
L 3022 2063 
z
" transform="scale(0.015625)"/>
       <path id="DejaVuSans-6e" d="M 3513 2113 
L 3513 0 
L 2938 0 
L 2938 2094 
Q 2938 2591 2744 2837 
Q 2550 3084 2163 3084 
Q 1697 3084 1428 2787 
Q 1159 2491 1159 1978 
L 1159 0 
L 581 0 
L 581 3500 
L 1159 3500 
L 1159 2956 
Q 1366 3272 1645 3428 
Q 1925 3584 2291 3584 
Q 2894 3584 3203 3211 
Q 3513 2838 3513 2113 
z
" transform="scale(0.015625)"/>
       <path id="DejaVuSans-72" d="M 2631 2963 
Q 2534 3019 2420 3045 
Q 2306 3072 2169 3072 
Q 1681 3072 1420 2755 
Q 1159 2438 1159 1844 
L 1159 0 
L 581 0 
L 581 3500 
L 1159 3500 
L 1159 2956 
Q 1341 3275 1631 3429 
Q 1922 3584 2338 3584 
Q 2397 3584 2469 3576 
Q 2541 3569 2628 3553 
L 2631 2963 
z
" transform="scale(0.015625)"/>
       <path id="DejaVuSans-61" d="M 2194 1759 
Q 1497 1759 1228 1600 
Q 959 1441 959 1056 
Q 959 750 1161 570 
Q 1363 391 1709 391 
Q 2188 391 2477 730 
Q 2766 1069 2766 1631 
L 2766 1759 
L 2194 1759 
z
M 3341 1997 
L 3341 0 
L 2766 0 
L 2766 531 
Q 2569 213 2275 61 
Q 1981 -91 1556 -91 
Q 1019 -91 701 211 
Q 384 513 384 1019 
Q 384 1609 779 1909 
Q 1175 2209 1959 2209 
L 2766 2209 
L 2766 2266 
Q 2766 2663 2505 2880 
Q 2244 3097 1772 3097 
Q 1472 3097 1187 3025 
Q 903 2953 641 2809 
L 641 3341 
Q 956 3463 1253 3523 
Q 1550 3584 1831 3584 
Q 2591 3584 2966 3190 
Q 3341 2797 3341 1997 
z
" transform="scale(0.015625)"/>
       <path id="DejaVuSans-74" d="M 1172 4494 
L 1172 3500 
L 2356 3500 
L 2356 3053 
L 1172 3053 
L 1172 1153 
Q 1172 725 1289 603 
Q 1406 481 1766 481 
L 2356 481 
L 2356 0 
L 1766 0 
Q 1100 0 847 248 
Q 594 497 594 1153 
L 594 3053 
L 172 3053 
L 172 3500 
L 594 3500 
L 594 4494 
L 1172 4494 
z
" transform="scale(0.015625)"/>
       <path id="DejaVuSans-69" d="M 603 3500 
L 1178 3500 
L 1178 0 
L 603 0 
L 603 3500 
z
M 603 4863 
L 1178 4863 
L 1178 4134 
L 603 4134 
L 603 4863 
z
" transform="scale(0.015625)"/>
       <path id="DejaVuSans-6f" d="M 1959 3097 
Q 1497 3097 1228 2736 
Q 959 2375 959 1747 
Q 959 1119 1226 758 
Q 1494 397 1959 397 
Q 2419 397 2687 759 
Q 2956 1122 2956 1747 
Q 2956 2369 2687 2733 
Q 2419 3097 1959 3097 
z
M 1959 3584 
Q 2709 3584 3137 3096 
Q 3566 2609 3566 1747 
Q 3566 888 3137 398 
Q 2709 -91 1959 -91 
Q 1206 -91 779 398 
Q 353 888 353 1747 
Q 353 2609 779 3096 
Q 1206 3584 1959 3584 
z
" transform="scale(0.015625)"/>
       <path id="DejaVuSans-73" d="M 2834 3397 
L 2834 2853 
Q 2591 2978 2328 3040 
Q 2066 3103 1784 3103 
Q 1356 3103 1142 2972 
Q 928 2841 928 2578 
Q 928 2378 1081 2264 
Q 1234 2150 1697 2047 
L 1894 2003 
Q 2506 1872 2764 1633 
Q 3022 1394 3022 966 
Q 3022 478 2636 193 
Q 2250 -91 1575 -91 
Q 1294 -91 989 -36 
Q 684 19 347 128 
L 347 722 
Q 666 556 975 473 
Q 1284 391 1588 391 
Q 1994 391 2212 530 
Q 2431 669 2431 922 
Q 2431 1156 2273 1281 
Q 2116 1406 1581 1522 
L 1381 1569 
Q 847 1681 609 1914 
Q 372 2147 372 2553 
Q 372 3047 722 3315 
Q 1072 3584 1716 3584 
Q 2034 3584 2315 3537 
Q 2597 3491 2834 3397 
z
" transform="scale(0.015625)"/>
      </defs>
      <use xlink:href="#DejaVuSans-47"/>
      <use xlink:href="#DejaVuSans-65" x="77.490234"/>
      <use xlink:href="#DejaVuSans-6e" x="139.013672"/>
      <use xlink:href="#DejaVuSans-65" x="202.392578"/>
      <use xlink:href="#DejaVuSans-72" x="263.916016"/>
      <use xlink:href="#DejaVuSans-61" x="305.029297"/>
      <use xlink:href="#DejaVuSans-74" x="366.308594"/>
      <use xlink:href="#DejaVuSans-69" x="405.517578"/>
      <use xlink:href="#DejaVuSans-6f" x="433.300781"/>
      <use xlink:href="#DejaVuSans-6e" x="494.482422"/>
      <use xlink:href="#DejaVuSans-73" x="557.861328"/>
     </g>
    </g>
   </g>
   <g id="matplotlib.axis_2">
    <g id="ytick_1">
     <g id="line2d_19">
      <path d="M 57.6 278.91184 
L 414.72 278.91184 
" clip-path="url(#pc0306617c4)" style="fill: none; stroke: #b0b0b0; stroke-width: 0.8; stroke-linecap: square"/>
     </g>
     <g id="line2d_20">
      <defs>
       <path id="md5b73f53b8" d="M 0 0 
L -3.5 0 
" style="stroke: #000000; stroke-width: 0.8"/>
      </defs>
      <g>
       <use xlink:href="#md5b73f53b8" x="57.6" y="278.91184" style="stroke: #000000; stroke-width: 0.8"/>
      </g>
     </g>
     <g id="text_11">
      <!-- 0 -->
      <g transform="translate(44.2375 282.711059)scale(0.1 -0.1)">
       <use xlink:href="#DejaVuSans-30"/>
      </g>
     </g>
    </g>
    <g id="ytick_2">
     <g id="line2d_21">
      <path d="M 57.6 248.665288 
L 414.72 248.665288 
" clip-path="url(#pc0306617c4)" style="fill: none; stroke: #b0b0b0; stroke-width: 0.8; stroke-linecap: square"/>
     </g>
     <g id="line2d_22">
      <g>
       <use xlink:href="#md5b73f53b8" x="57.6" y="248.665288" style="stroke: #000000; stroke-width: 0.8"/>
      </g>
     </g>
     <g id="text_12">
      <!-- 10 -->
      <g transform="translate(37.875 252.464507)scale(0.1 -0.1)">
       <use xlink:href="#DejaVuSans-31"/>
       <use xlink:href="#DejaVuSans-30" x="63.623047"/>
      </g>
     </g>
    </g>
    <g id="ytick_3">
     <g id="line2d_23">
      <path d="M 57.6 218.418736 
L 414.72 218.418736 
" clip-path="url(#pc0306617c4)" style="fill: none; stroke: #b0b0b0; stroke-width: 0.8; stroke-linecap: square"/>
     </g>
     <g id="line2d_24">
      <g>
       <use xlink:href="#md5b73f53b8" x="57.6" y="218.418736" style="stroke: #000000; stroke-width: 0.8"/>
      </g>
     </g>
     <g id="text_13">
      <!-- 20 -->
      <g transform="translate(37.875 222.217955)scale(0.1 -0.1)">
       <use xlink:href="#DejaVuSans-32"/>
       <use xlink:href="#DejaVuSans-30" x="63.623047"/>
      </g>
     </g>
    </g>
    <g id="ytick_4">
     <g id="line2d_25">
      <path d="M 57.6 188.172184 
L 414.72 188.172184 
" clip-path="url(#pc0306617c4)" style="fill: none; stroke: #b0b0b0; stroke-width: 0.8; stroke-linecap: square"/>
     </g>
     <g id="line2d_26">
      <g>
       <use xlink:href="#md5b73f53b8" x="57.6" y="188.172184" style="stroke: #000000; stroke-width: 0.8"/>
      </g>
     </g>
     <g id="text_14">
      <!-- 30 -->
      <g transform="translate(37.875 191.971403)scale(0.1 -0.1)">
       <defs>
        <path id="DejaVuSans-33" d="M 2597 2516 
Q 3050 2419 3304 2112 
Q 3559 1806 3559 1356 
Q 3559 666 3084 287 
Q 2609 -91 1734 -91 
Q 1441 -91 1130 -33 
Q 819 25 488 141 
L 488 750 
Q 750 597 1062 519 
Q 1375 441 1716 441 
Q 2309 441 2620 675 
Q 2931 909 2931 1356 
Q 2931 1769 2642 2001 
Q 2353 2234 1838 2234 
L 1294 2234 
L 1294 2753 
L 1863 2753 
Q 2328 2753 2575 2939 
Q 2822 3125 2822 3475 
Q 2822 3834 2567 4026 
Q 2313 4219 1838 4219 
Q 1578 4219 1281 4162 
Q 984 4106 628 3988 
L 628 4550 
Q 988 4650 1302 4700 
Q 1616 4750 1894 4750 
Q 2613 4750 3031 4423 
Q 3450 4097 3450 3541 
Q 3450 3153 3228 2886 
Q 3006 2619 2597 2516 
z
" transform="scale(0.015625)"/>
       </defs>
       <use xlink:href="#DejaVuSans-33"/>
       <use xlink:href="#DejaVuSans-30" x="63.623047"/>
      </g>
     </g>
    </g>
    <g id="ytick_5">
     <g id="line2d_27">
      <path d="M 57.6 157.925632 
L 414.72 157.925632 
" clip-path="url(#pc0306617c4)" style="fill: none; stroke: #b0b0b0; stroke-width: 0.8; stroke-linecap: square"/>
     </g>
     <g id="line2d_28">
      <g>
       <use xlink:href="#md5b73f53b8" x="57.6" y="157.925632" style="stroke: #000000; stroke-width: 0.8"/>
      </g>
     </g>
     <g id="text_15">
      <!-- 40 -->
      <g transform="translate(37.875 161.724851)scale(0.1 -0.1)">
       <defs>
        <path id="DejaVuSans-34" d="M 2419 4116 
L 825 1625 
L 2419 1625 
L 2419 4116 
z
M 2253 4666 
L 3047 4666 
L 3047 1625 
L 3713 1625 
L 3713 1100 
L 3047 1100 
L 3047 0 
L 2419 0 
L 2419 1100 
L 313 1100 
L 313 1709 
L 2253 4666 
z
" transform="scale(0.015625)"/>
       </defs>
       <use xlink:href="#DejaVuSans-34"/>
       <use xlink:href="#DejaVuSans-30" x="63.623047"/>
      </g>
     </g>
    </g>
    <g id="ytick_6">
     <g id="line2d_29">
      <path d="M 57.6 127.67908 
L 414.72 127.67908 
" clip-path="url(#pc0306617c4)" style="fill: none; stroke: #b0b0b0; stroke-width: 0.8; stroke-linecap: square"/>
     </g>
     <g id="line2d_30">
      <g>
       <use xlink:href="#md5b73f53b8" x="57.6" y="127.67908" style="stroke: #000000; stroke-width: 0.8"/>
      </g>
     </g>
     <g id="text_16">
      <!-- 50 -->
      <g transform="translate(37.875 131.478299)scale(0.1 -0.1)">
       <use xlink:href="#DejaVuSans-35"/>
       <use xlink:href="#DejaVuSans-30" x="63.623047"/>
      </g>
     </g>
    </g>
    <g id="ytick_7">
     <g id="line2d_31">
      <path d="M 57.6 97.432528 
L 414.72 97.432528 
" clip-path="url(#pc0306617c4)" style="fill: none; stroke: #b0b0b0; stroke-width: 0.8; stroke-linecap: square"/>
     </g>
     <g id="line2d_32">
      <g>
       <use xlink:href="#md5b73f53b8" x="57.6" y="97.432528" style="stroke: #000000; stroke-width: 0.8"/>
      </g>
     </g>
     <g id="text_17">
      <!-- 60 -->
      <g transform="translate(37.875 101.231747)scale(0.1 -0.1)">
       <defs>
        <path id="DejaVuSans-36" d="M 2113 2584 
Q 1688 2584 1439 2293 
Q 1191 2003 1191 1497 
Q 1191 994 1439 701 
Q 1688 409 2113 409 
Q 2538 409 2786 701 
Q 3034 994 3034 1497 
Q 3034 2003 2786 2293 
Q 2538 2584 2113 2584 
z
M 3366 4563 
L 3366 3988 
Q 3128 4100 2886 4159 
Q 2644 4219 2406 4219 
Q 1781 4219 1451 3797 
Q 1122 3375 1075 2522 
Q 1259 2794 1537 2939 
Q 1816 3084 2150 3084 
Q 2853 3084 3261 2657 
Q 3669 2231 3669 1497 
Q 3669 778 3244 343 
Q 2819 -91 2113 -91 
Q 1303 -91 875 529 
Q 447 1150 447 2328 
Q 447 3434 972 4092 
Q 1497 4750 2381 4750 
Q 2619 4750 2861 4703 
Q 3103 4656 3366 4563 
z
" transform="scale(0.015625)"/>
       </defs>
       <use xlink:href="#DejaVuSans-36"/>
       <use xlink:href="#DejaVuSans-30" x="63.623047"/>
      </g>
     </g>
    </g>
    <g id="ytick_8">
     <g id="line2d_33">
      <path d="M 57.6 67.185977 
L 414.72 67.185977 
" clip-path="url(#pc0306617c4)" style="fill: none; stroke: #b0b0b0; stroke-width: 0.8; stroke-linecap: square"/>
     </g>
     <g id="line2d_34">
      <g>
       <use xlink:href="#md5b73f53b8" x="57.6" y="67.185977" style="stroke: #000000; stroke-width: 0.8"/>
      </g>
     </g>
     <g id="text_18">
      <!-- 70 -->
      <g transform="translate(37.875 70.985195)scale(0.1 -0.1)">
       <use xlink:href="#DejaVuSans-37"/>
       <use xlink:href="#DejaVuSans-30" x="63.623047"/>
      </g>
     </g>
    </g>
    <g id="text_19">
     <!-- Fitness -->
     <g transform="translate(31.795312 191.845187)rotate(-90)scale(0.1 -0.1)">
      <defs>
       <path id="DejaVuSans-46" d="M 628 4666 
L 3309 4666 
L 3309 4134 
L 1259 4134 
L 1259 2759 
L 3109 2759 
L 3109 2228 
L 1259 2228 
L 1259 0 
L 628 0 
L 628 4666 
z
" transform="scale(0.015625)"/>
      </defs>
      <use xlink:href="#DejaVuSans-46"/>
      <use xlink:href="#DejaVuSans-69" x="50.269531"/>
      <use xlink:href="#DejaVuSans-74" x="78.052734"/>
      <use xlink:href="#DejaVuSans-6e" x="117.261719"/>
      <use xlink:href="#DejaVuSans-65" x="180.640625"/>
      <use xlink:href="#DejaVuSans-73" x="242.164062"/>
      <use xlink:href="#DejaVuSans-73" x="294.263672"/>
     </g>
    </g>
   </g>
   <g id="line2d_35">
    <path d="M 73.832727 273.26627 
L 75.464157 270.72977 
L 77.095587 265.741913 
L 78.727017 267.558046 
L 81.989877 256.393978 
L 83.621307 261.826227 
L 85.252736 258.317448 
L 86.884166 263.405664 
L 88.515596 264.98131 
L 90.147026 262.488611 
L 91.778456 263.774414 
L 93.409886 262.67334 
L 95.041316 264.129238 
L 96.672746 265.110647 
L 98.304175 259.239838 
L 99.935605 256.829795 
L 101.567035 261.368818 
L 103.198465 262.280232 
L 104.829895 255.363607 
L 106.461325 255.989899 
L 108.092755 252.736085 
L 109.724185 253.672739 
L 111.355614 257.14599 
L 112.987044 258.974792 
L 114.618474 255.116442 
L 116.249904 252.914523 
L 117.881334 258.833352 
L 119.512764 254.997003 
L 121.144194 254.928901 
L 122.775624 257.281082 
L 124.407053 254.8929 
L 126.038483 256.245169 
L 127.669913 250.715561 
L 129.301343 257.964886 
L 130.932773 256.000441 
L 132.564203 253.059577 
L 134.195633 256.992439 
L 135.827063 257.441606 
L 137.458492 258.937784 
L 139.089922 251.023861 
L 140.721352 259.617684 
L 142.352782 255.058696 
L 143.984212 254.691929 
L 145.615642 260.596361 
L 147.247072 251.495021 
L 148.878502 253.49381 
L 150.509931 251.730331 
L 152.141361 255.403793 
L 153.772791 253.44131 
L 155.404221 247.379344 
L 157.035651 255.845435 
L 158.667081 259.186192 
L 160.298511 249.42807 
L 161.929941 255.177268 
L 163.56137 257.506842 
L 165.1928 255.636775 
L 166.82423 254.651189 
L 168.45566 253.348063 
L 170.08709 253.686018 
L 171.71852 255.946904 
L 173.34995 258.861553 
L 176.61281 257.019557 
L 178.244239 255.753097 
L 179.875669 252.405865 
L 181.507099 253.983178 
L 183.138529 257.47852 
L 184.769959 257.116218 
L 186.401389 255.426413 
L 188.032819 253.195145 
L 189.664249 254.664233 
L 191.295678 250.194663 
L 192.927108 256.984594 
L 196.189968 254.8279 
L 197.821398 255.231653 
L 199.452828 258.909958 
L 201.084258 257.204584 
L 202.715688 255.666496 
L 204.347117 258.50146 
L 205.978547 256.092329 
L 207.609977 259.236456 
L 209.241407 260.264195 
L 210.872837 257.247786 
L 212.504267 253.775595 
L 214.135697 253.179665 
L 215.767127 255.427317 
L 217.398556 254.505169 
L 219.029986 254.144364 
L 220.661416 256.491884 
L 222.292846 253.473647 
L 223.924276 252.044327 
L 225.555706 255.889491 
L 227.187136 254.923786 
L 228.818566 255.75938 
L 230.449995 257.904968 
L 232.081425 253.743662 
L 233.712855 252.743844 
L 235.344285 253.013777 
L 236.975715 255.217454 
L 238.607145 256.712198 
L 240.238575 253.296539 
L 241.870005 253.147107 
L 243.501434 252.850954 
L 245.132864 255.561085 
L 246.764294 254.101518 
L 248.395724 255.078368 
L 250.027154 260.2913 
L 251.658584 258.05762 
L 253.290014 254.779604 
L 254.921444 252.775188 
L 258.184303 259.649857 
L 259.815733 254.621183 
L 261.447163 253.000266 
L 263.078593 253.778922 
L 264.710023 252.625028 
L 266.341453 255.431437 
L 267.972883 256.190865 
L 269.604312 250.288645 
L 271.235742 258.235286 
L 272.867172 253.160598 
L 274.498602 250.623193 
L 276.130032 258.956617 
L 277.761462 253.705204 
L 279.392892 255.466299 
L 281.024322 256.507854 
L 282.655751 254.003712 
L 284.287181 254.087251 
L 285.918611 250.557429 
L 287.550041 257.253397 
L 289.181471 254.625802 
L 290.812901 253.435046 
L 292.444331 255.307182 
L 294.075761 256.373246 
L 295.70719 250.998093 
L 297.33862 251.814594 
L 298.97005 254.400751 
L 300.60148 255.430521 
L 302.23291 253.955584 
L 303.86434 254.559258 
L 305.49577 254.089301 
L 307.1272 252.486749 
L 310.390059 253.171025 
L 312.021489 253.588554 
L 313.652919 250.77988 
L 315.284349 250.469148 
L 316.915779 248.810089 
L 318.547209 255.376695 
L 320.178639 252.117752 
L 321.810069 251.000538 
L 323.441498 255.926043 
L 325.072928 253.728538 
L 326.704358 258.036745 
L 328.335788 257.531312 
L 329.967218 255.325081 
L 331.598648 254.118077 
L 333.230078 258.283112 
L 334.861508 256.233605 
L 336.492937 255.711112 
L 338.124367 259.175266 
L 339.755797 256.608897 
L 341.387227 254.647798 
L 343.018657 256.701311 
L 344.650087 253.971592 
L 346.281517 256.733158 
L 347.912947 256.855102 
L 349.544376 256.269596 
L 351.175806 255.266467 
L 352.807236 257.846259 
L 354.438666 253.022241 
L 356.070096 258.551646 
L 357.701526 254.987783 
L 359.332956 254.964467 
L 360.964386 258.281428 
L 362.595815 255.129486 
L 364.227245 259.212269 
L 365.858675 258.053989 
L 367.490105 257.64559 
L 369.121535 258.223933 
L 370.752965 257.477549 
L 372.384395 257.59058 
L 374.015825 255.969576 
L 375.647254 254.980574 
L 377.278684 258.652246 
L 378.910114 255.640439 
L 380.541544 258.367464 
L 382.172974 258.042185 
L 383.804404 256.543889 
L 385.435834 262.024092 
L 387.067264 255.456195 
L 388.698693 259.113386 
L 390.330123 260.33349 
L 391.961553 259.982703 
L 393.592983 257.112946 
L 395.224413 260.334599 
L 396.855843 258.439911 
L 398.487273 257.200105 
L 398.487273 257.200105 
" clip-path="url(#pc0306617c4)" style="fill: none; stroke: #0000ff; stroke-width: 1.5; stroke-linecap: square"/>
   </g>
   <g id="line2d_36">
    <path d="M 73.832727 292.432537 
L 75.464157 295.488 
L 77.095587 288.65971 
L 78.727017 289.415718 
L 80.358447 283.770168 
L 81.989877 277.54051 
L 83.621307 285.579562 
L 85.252736 280.238239 
L 86.884166 286.842579 
L 88.515596 290.780048 
L 90.147026 285.125239 
L 91.778456 288.194699 
L 93.409886 285.693295 
L 95.041316 287.736873 
L 96.672746 288.832579 
L 98.304175 282.034943 
L 99.935605 278.394171 
L 101.567035 284.83694 
L 103.198465 286.051363 
L 104.829895 278.300167 
L 106.461325 281.94644 
L 108.092755 279.409163 
L 109.724185 284.03841 
L 111.355614 279.400667 
L 112.987044 282.123253 
L 114.618474 275.381403 
L 116.249904 279.226999 
L 117.881334 281.596135 
L 119.512764 277.241222 
L 121.144194 274.367926 
L 122.775624 281.093284 
L 124.407053 276.746066 
L 126.038483 280.956399 
L 127.669913 276.313976 
L 129.301343 283.057525 
L 132.564203 273.89867 
L 134.195633 285.535479 
L 135.827063 286.043335 
L 137.458492 281.420821 
L 139.089922 275.968421 
L 140.721352 283.515732 
L 143.984212 281.794067 
L 145.615642 284.916403 
L 147.247072 279.214236 
L 148.878502 283.45233 
L 150.509931 282.706479 
L 152.141361 283.439941 
L 153.772791 279.656367 
L 155.404221 278.696315 
L 157.035651 284.067269 
L 158.667081 285.33051 
L 160.298511 279.017281 
L 161.929941 282.380971 
L 163.56137 283.523022 
L 165.1928 283.403412 
L 166.82423 286.437101 
L 168.45566 284.297175 
L 170.08709 284.656054 
L 171.71852 280.477613 
L 173.34995 282.716575 
L 174.98138 281.89519 
L 176.61281 278.9269 
L 178.244239 279.253768 
L 179.875669 277.684284 
L 181.507099 278.496472 
L 183.138529 286.777916 
L 186.401389 279.27391 
L 188.032819 281.539387 
L 189.664249 281.288802 
L 191.295678 276.548587 
L 192.927108 284.882439 
L 194.558538 280.455977 
L 196.189968 276.444794 
L 197.821398 279.331513 
L 199.452828 279.994022 
L 201.084258 281.199936 
L 202.715688 277.691349 
L 204.347117 281.26251 
L 205.978547 275.87675 
L 207.609977 283.253301 
L 209.241407 282.418137 
L 210.872837 277.715487 
L 212.504267 274.918692 
L 214.135697 274.447048 
L 215.767127 278.469446 
L 217.398556 277.954774 
L 219.029986 272.446166 
L 220.661416 277.975123 
L 222.292846 271.887626 
L 223.924276 273.223047 
L 225.555706 275.354721 
L 227.187136 277.271117 
L 228.818566 276.942921 
L 230.449995 279.082434 
L 232.081425 270.022337 
L 233.712855 272.509358 
L 235.344285 273.592405 
L 236.975715 275.881295 
L 238.607145 277.633289 
L 240.238575 274.609389 
L 241.870005 275.533593 
L 243.501434 278.280947 
L 245.132864 280.348529 
L 246.764294 278.468464 
L 248.395724 278.140419 
L 250.027154 282.547483 
L 251.658584 279.445464 
L 253.290014 281.203079 
L 254.921444 276.131138 
L 256.552873 279.575515 
L 258.184303 284.887268 
L 259.815733 280.812053 
L 261.447163 279.68146 
L 263.078593 274.557082 
L 264.710023 273.733751 
L 266.341453 280.705233 
L 267.972883 277.84914 
L 269.604312 278.530682 
L 271.235742 286.395616 
L 272.867172 282.188906 
L 274.498602 279.648024 
L 276.130032 286.619956 
L 277.761462 283.257476 
L 279.392892 282.343741 
L 281.024322 288.021079 
L 282.655751 280.989327 
L 284.287181 279.270154 
L 285.918611 279.283262 
L 287.550041 281.155739 
L 289.181471 278.542098 
L 290.812901 278.380384 
L 292.444331 280.233093 
L 294.075761 283.591832 
L 295.70719 276.327664 
L 297.33862 278.074162 
L 298.97005 276.329114 
L 300.60148 276.550723 
L 302.23291 275.13212 
L 303.86434 276.388287 
L 305.49577 280.438941 
L 307.1272 274.297511 
L 310.390059 279.476726 
L 312.021489 276.543297 
L 313.652919 279.594659 
L 315.284349 279.511466 
L 316.915779 276.419457 
L 318.547209 277.138675 
L 320.178639 278.384007 
L 321.810069 275.435216 
L 323.441498 278.535202 
L 325.072928 276.212555 
L 326.704358 278.493426 
L 328.335788 277.190047 
L 329.967218 274.794201 
L 331.598648 278.127955 
L 333.230078 279.447252 
L 334.861508 277.559739 
L 336.492937 280.288138 
L 338.124367 283.670735 
L 339.755797 278.248698 
L 341.387227 275.485009 
L 343.018657 278.641509 
L 344.650087 277.632348 
L 346.281517 277.015784 
L 347.912947 282.488347 
L 349.544376 278.958944 
L 351.175806 276.207934 
L 352.807236 277.965953 
L 354.438666 277.418484 
L 356.070096 279.753238 
L 357.701526 274.664764 
L 359.332956 273.593479 
L 360.964386 280.635655 
L 364.227245 278.986894 
L 365.858675 281.170729 
L 367.490105 278.608215 
L 370.752965 277.916219 
L 372.384395 279.825372 
L 374.015825 279.071653 
L 375.647254 281.160857 
L 377.278684 282.067005 
L 378.910114 282.610934 
L 380.541544 284.584268 
L 382.172974 279.732001 
L 383.804404 279.632333 
L 385.435834 282.909271 
L 387.067264 282.194163 
L 388.698693 283.403029 
L 390.330123 282.895983 
L 391.961553 284.25128 
L 393.592983 282.114169 
L 395.224413 283.469579 
L 396.855843 281.881042 
L 398.487273 282.065246 
L 398.487273 282.065246 
" clip-path="url(#pc0306617c4)" style="fill: none; stroke-dasharray: 9.6,2.4,1.5,2.4; stroke-dashoffset: 0; stroke: #008000; stroke-width: 1.5"/>
   </g>
   <g id="line2d_37">
    <path d="M 73.832727 254.100003 
L 75.464157 245.971539 
L 77.095587 242.824116 
L 78.727017 245.700374 
L 80.358447 240.232799 
L 81.989877 235.247446 
L 83.621307 238.072891 
L 85.252736 236.396658 
L 86.884166 239.968749 
L 88.515596 239.182573 
L 90.147026 239.851984 
L 91.778456 239.354128 
L 93.409886 239.653385 
L 96.672746 241.388715 
L 98.304175 236.444734 
L 99.935605 235.265418 
L 101.567035 237.900695 
L 103.198465 238.509101 
L 104.829895 232.427047 
L 106.461325 230.033357 
L 108.092755 226.063007 
L 109.724185 223.307068 
L 111.355614 234.891314 
L 112.987044 235.82633 
L 114.618474 234.851482 
L 116.249904 226.602048 
L 117.881334 236.070568 
L 119.512764 232.752785 
L 121.144194 235.489876 
L 122.775624 233.468879 
L 124.407053 233.039733 
L 126.038483 231.533939 
L 127.669913 225.117145 
L 129.301343 232.872248 
L 130.932773 233.382705 
L 132.564203 232.220485 
L 134.195633 228.449399 
L 135.827063 228.839878 
L 137.458492 236.454748 
L 139.089922 226.0793 
L 140.721352 235.719635 
L 142.352782 227.472968 
L 143.984212 227.589792 
L 145.615642 236.276318 
L 147.247072 223.775806 
L 148.878502 223.535291 
L 150.509931 220.754182 
L 152.141361 227.367645 
L 153.772791 227.226253 
L 155.404221 216.062372 
L 157.035651 227.623601 
L 158.667081 233.041874 
L 160.298511 219.838858 
L 161.929941 227.973565 
L 163.56137 231.490662 
L 165.1928 227.870138 
L 166.82423 222.865277 
L 168.45566 222.398951 
L 170.08709 222.715982 
L 171.71852 231.416194 
L 173.34995 235.006531 
L 174.98138 233.960886 
L 176.61281 235.112214 
L 178.244239 232.252425 
L 179.875669 227.127446 
L 181.507099 229.469884 
L 183.138529 228.179124 
L 184.769959 231.232066 
L 186.401389 231.578915 
L 188.032819 224.850903 
L 189.664249 228.039664 
L 191.295678 223.840738 
L 192.927108 229.086749 
L 194.558538 231.431377 
L 196.189968 233.211006 
L 197.821398 231.131792 
L 199.452828 237.825894 
L 201.084258 233.209232 
L 202.715688 233.641643 
L 204.347117 235.740411 
L 205.978547 236.307909 
L 207.609977 235.219611 
L 209.241407 238.110254 
L 210.872837 236.780085 
L 212.504267 232.632498 
L 214.135697 231.912281 
L 215.767127 232.385189 
L 217.398556 231.055563 
L 219.029986 235.842561 
L 220.661416 235.008645 
L 222.292846 235.059668 
L 223.924276 230.865608 
L 225.555706 236.424261 
L 227.187136 232.576455 
L 230.449995 236.727502 
L 232.081425 237.464987 
L 233.712855 232.97833 
L 235.344285 232.435149 
L 236.975715 234.553613 
L 238.607145 235.791107 
L 240.238575 231.983689 
L 241.870005 230.760621 
L 243.501434 227.420962 
L 245.132864 230.773641 
L 246.764294 229.734571 
L 248.395724 232.016318 
L 250.027154 238.035117 
L 251.658584 236.669776 
L 253.290014 228.356128 
L 254.921444 229.419237 
L 256.552873 232.609034 
L 258.184303 234.412446 
L 259.815733 228.430314 
L 261.447163 226.319071 
L 263.078593 233.000761 
L 266.341453 230.157641 
L 267.972883 234.53259 
L 269.604312 222.046608 
L 271.235742 230.074956 
L 272.867172 224.132289 
L 274.498602 221.598362 
L 276.130032 231.293278 
L 277.761462 224.152932 
L 279.392892 228.588858 
L 281.024322 224.994629 
L 284.287181 228.904348 
L 285.918611 221.831596 
L 287.550041 233.351054 
L 289.181471 230.709505 
L 290.812901 228.489708 
L 292.444331 230.38127 
L 294.075761 229.15466 
L 295.70719 225.668522 
L 297.33862 225.555025 
L 298.97005 232.472387 
L 300.60148 234.31032 
L 302.23291 232.779048 
L 303.86434 232.730228 
L 305.49577 227.739662 
L 307.1272 230.675987 
L 308.75863 228.611104 
L 310.390059 226.865324 
L 312.021489 230.633811 
L 313.652919 221.9651 
L 315.284349 221.426831 
L 316.915779 221.200721 
L 318.547209 233.614716 
L 320.178639 225.851497 
L 321.810069 226.565859 
L 323.441498 233.316883 
L 325.072928 231.24452 
L 326.704358 237.580064 
L 328.335788 237.872577 
L 329.967218 235.855962 
L 331.598648 230.108198 
L 333.230078 237.118971 
L 334.861508 234.907471 
L 336.492937 231.134086 
L 338.124367 234.679798 
L 339.755797 234.969096 
L 341.387227 233.810586 
L 343.018657 234.761112 
L 344.650087 230.310836 
L 346.281517 236.450531 
L 347.912947 231.221858 
L 349.544376 233.580248 
L 351.175806 234.324999 
L 352.807236 237.726566 
L 354.438666 228.625998 
L 356.070096 237.350053 
L 357.701526 235.310803 
L 359.332956 236.335455 
L 360.964386 235.9272 
L 362.595815 230.413864 
L 364.227245 239.437643 
L 365.858675 234.937248 
L 367.490105 236.682965 
L 369.121535 238.14084 
L 370.752965 237.03888 
L 372.384395 235.355789 
L 374.015825 232.867499 
L 375.647254 228.800291 
L 377.278684 235.237486 
L 378.910114 228.669944 
L 380.541544 232.15066 
L 382.172974 236.352368 
L 383.804404 233.455444 
L 385.435834 241.138912 
L 387.067264 228.718228 
L 388.698693 234.823744 
L 390.330123 237.770997 
L 391.961553 235.714126 
L 393.592983 232.111724 
L 395.224413 237.199618 
L 396.855843 234.99878 
L 398.487273 232.334965 
L 398.487273 232.334965 
" clip-path="url(#pc0306617c4)" style="fill: none; stroke-dasharray: 9.6,2.4,1.5,2.4; stroke-dashoffset: 0; stroke: #008000; stroke-width: 1.5"/>
   </g>
   <g id="line2d_38">
    <path d="M 73.832727 230.593972 
L 75.464157 208.109431 
L 77.095587 210.918865 
L 78.727017 217.085631 
L 80.358447 204.883028 
L 81.989877 183.486541 
L 83.621307 194.052161 
L 85.252736 206.33231 
L 86.884166 175.1438 
L 88.515596 184.142238 
L 90.147026 210.167549 
L 91.778456 145.575238 
L 93.409886 206.188233 
L 95.041316 196.714244 
L 96.672746 154.818569 
L 98.304175 175.465218 
L 99.935605 204.925439 
L 101.567035 184.791142 
L 103.198465 169.866667 
L 104.829895 183.876856 
L 106.461325 122.566085 
L 108.092755 112.417169 
L 109.724185 106.315451 
L 111.355614 158.568484 
L 112.987044 166.238777 
L 114.618474 193.897114 
L 116.249904 125.826229 
L 117.881334 183.228576 
L 119.512764 147.08711 
L 121.144194 198.95142 
L 122.775624 140.859404 
L 124.407053 177.421812 
L 126.038483 157.291942 
L 127.669913 146.606348 
L 129.301343 130.989332 
L 130.932773 188.26592 
L 132.564203 156.197084 
L 134.195633 131.024991 
L 135.827063 53.568 
L 137.458492 188.589699 
L 139.089922 99.665419 
L 140.721352 169.215165 
L 142.352782 128.999387 
L 145.615642 161.74606 
L 147.247072 130.203895 
L 148.878502 144.053136 
L 150.509931 97.566574 
L 152.141361 132.449714 
L 153.772791 152.577939 
L 155.404221 141.78422 
L 157.035651 166.465184 
L 158.667081 204.329287 
L 160.298511 124.354751 
L 161.929941 180.748131 
L 163.56137 201.855964 
L 165.1928 137.352083 
L 166.82423 125.270193 
L 168.45566 124.326254 
L 170.08709 58.631901 
L 171.71852 205.323236 
L 173.34995 205.941643 
L 174.98138 204.832054 
L 176.61281 206.24045 
L 178.244239 147.436861 
L 179.875669 112.969864 
L 181.507099 197.81734 
L 183.138529 145.08401 
L 184.769959 181.04256 
L 186.401389 163.080044 
L 188.032819 139.040795 
L 189.664249 97.765351 
L 191.295678 137.671798 
L 192.927108 133.962233 
L 194.558538 157.926317 
L 196.189968 155.649702 
L 197.821398 127.85789 
L 199.452828 205.861213 
L 201.084258 176.401861 
L 202.715688 128.868615 
L 204.347117 179.460979 
L 205.978547 198.366204 
L 207.609977 154.179602 
L 209.241407 206.744823 
L 212.504267 191.592875 
L 214.135697 193.660474 
L 215.767127 165.49006 
L 217.398556 169.420534 
L 219.029986 206.709581 
L 220.661416 186.871635 
L 222.292846 205.648668 
L 223.924276 148.89607 
L 225.555706 182.814874 
L 227.187136 149.869403 
L 228.818566 176.721484 
L 230.449995 208.404184 
L 232.081425 208.546054 
L 235.344285 147.638206 
L 236.975715 205.192406 
L 238.607145 188.150279 
L 240.238575 184.412539 
L 241.870005 125.611865 
L 243.501434 123.093368 
L 245.132864 143.145805 
L 246.764294 124.315533 
L 248.395724 167.076733 
L 251.658584 201.93601 
L 253.290014 151.381575 
L 254.921444 131.467549 
L 256.552873 182.166764 
L 258.184303 87.059743 
L 259.815733 101.668149 
L 261.447163 108.969553 
L 264.710023 181.288203 
L 266.341453 135.21501 
L 267.972883 195.480991 
L 269.604312 131.852991 
L 271.235742 129.034538 
L 272.867172 132.479002 
L 274.498602 144.829163 
L 276.130032 143.925495 
L 277.761462 129.34034 
L 279.392892 151.055829 
L 281.024322 100.80508 
L 282.655751 132.15078 
L 284.287181 183.848519 
L 285.918611 137.335441 
L 287.550041 172.324619 
L 289.181471 148.023465 
L 290.812901 150.203989 
L 294.075761 126.481542 
L 295.70719 126.469825 
L 297.33862 151.83112 
L 298.97005 190.814574 
L 300.60148 190.786484 
L 302.23291 154.107551 
L 303.86434 129.742787 
L 305.49577 129.936836 
L 307.1272 166.315272 
L 308.75863 154.55316 
L 310.390059 131.392325 
L 312.021489 189.087087 
L 313.652919 120.609508 
L 315.284349 60.106704 
L 316.915779 113.789558 
L 318.547209 174.51427 
L 320.178639 174.601676 
L 321.810069 147.947689 
L 323.441498 186.49154 
L 325.072928 172.817179 
L 326.704358 187.264742 
L 328.335788 207.309083 
L 329.967218 205.327942 
L 331.598648 140.818149 
L 333.230078 205.557774 
L 334.861508 184.502944 
L 336.492937 153.063438 
L 338.124367 205.199649 
L 339.755797 174.726243 
L 341.387227 179.403969 
L 343.018657 192.765544 
L 344.650087 122.006515 
L 346.281517 207.782006 
L 347.912947 158.606767 
L 349.544376 132.62426 
L 351.175806 191.859579 
L 352.807236 199.50955 
L 354.438666 98.40613 
L 356.070096 191.859459 
L 357.701526 188.439566 
L 359.332956 207.032935 
L 360.964386 207.263803 
L 362.595815 135.082438 
L 364.227245 198.174898 
L 365.858675 177.297727 
L 367.490105 186.020349 
L 369.121535 207.122804 
L 370.752965 207.905056 
L 372.384395 198.836409 
L 374.015825 136.318548 
L 375.647254 111.38784 
L 377.278684 183.282892 
L 378.910114 77.610456 
L 380.541544 167.466805 
L 382.172974 171.402454 
L 383.804404 206.562494 
L 385.435834 208.030954 
L 387.067264 153.404091 
L 388.698693 173.156256 
L 390.330123 196.312105 
L 391.961553 161.953215 
L 393.592983 177.835652 
L 395.224413 188.28956 
L 396.855843 188.352559 
L 398.487273 187.552322 
L 398.487273 187.552322 
" clip-path="url(#pc0306617c4)" style="fill: none; stroke: #ff0000; stroke-width: 1.5; stroke-linecap: square"/>
   </g>
   <g id="patch_3">
    <path d="M 57.6 307.584 
L 57.6 41.472 
" style="fill: none; stroke: #000000; stroke-width: 0.8; stroke-linejoin: miter; stroke-linecap: square"/>
   </g>
   <g id="patch_4">
    <path d="M 414.72 307.584 
L 414.72 41.472 
" style="fill: none; stroke: #000000; stroke-width: 0.8; stroke-linejoin: miter; stroke-linecap: square"/>
   </g>
   <g id="patch_5">
    <path d="M 57.6 307.584 
L 414.72 307.584 
" style="fill: none; stroke: #000000; stroke-width: 0.8; stroke-linejoin: miter; stroke-linecap: square"/>
   </g>
   <g id="patch_6">
    <path d="M 57.6 41.472 
L 414.72 41.472 
" style="fill: none; stroke: #000000; stroke-width: 0.8; stroke-linejoin: miter; stroke-linecap: square"/>
   </g>
   <g id="text_20">
    <!-- Population's average and best fitness -->
    <g transform="translate(123.529687 35.472)scale(0.12 -0.12)">
     <defs>
      <path id="DejaVuSans-50" d="M 1259 4147 
L 1259 2394 
L 2053 2394 
Q 2494 2394 2734 2622 
Q 2975 2850 2975 3272 
Q 2975 3691 2734 3919 
Q 2494 4147 2053 4147 
L 1259 4147 
z
M 628 4666 
L 2053 4666 
Q 2838 4666 3239 4311 
Q 3641 3956 3641 3272 
Q 3641 2581 3239 2228 
Q 2838 1875 2053 1875 
L 1259 1875 
L 1259 0 
L 628 0 
L 628 4666 
z
" transform="scale(0.015625)"/>
      <path id="DejaVuSans-70" d="M 1159 525 
L 1159 -1331 
L 581 -1331 
L 581 3500 
L 1159 3500 
L 1159 2969 
Q 1341 3281 1617 3432 
Q 1894 3584 2278 3584 
Q 2916 3584 3314 3078 
Q 3713 2572 3713 1747 
Q 3713 922 3314 415 
Q 2916 -91 2278 -91 
Q 1894 -91 1617 61 
Q 1341 213 1159 525 
z
M 3116 1747 
Q 3116 2381 2855 2742 
Q 2594 3103 2138 3103 
Q 1681 3103 1420 2742 
Q 1159 2381 1159 1747 
Q 1159 1113 1420 752 
Q 1681 391 2138 391 
Q 2594 391 2855 752 
Q 3116 1113 3116 1747 
z
" transform="scale(0.015625)"/>
      <path id="DejaVuSans-75" d="M 544 1381 
L 544 3500 
L 1119 3500 
L 1119 1403 
Q 1119 906 1312 657 
Q 1506 409 1894 409 
Q 2359 409 2629 706 
Q 2900 1003 2900 1516 
L 2900 3500 
L 3475 3500 
L 3475 0 
L 2900 0 
L 2900 538 
Q 2691 219 2414 64 
Q 2138 -91 1772 -91 
Q 1169 -91 856 284 
Q 544 659 544 1381 
z
M 1991 3584 
L 1991 3584 
z
" transform="scale(0.015625)"/>
      <path id="DejaVuSans-6c" d="M 603 4863 
L 1178 4863 
L 1178 0 
L 603 0 
L 603 4863 
z
" transform="scale(0.015625)"/>
      <path id="DejaVuSans-27" d="M 1147 4666 
L 1147 2931 
L 616 2931 
L 616 4666 
L 1147 4666 
z
" transform="scale(0.015625)"/>
      <path id="DejaVuSans-20" transform="scale(0.015625)"/>
      <path id="DejaVuSans-76" d="M 191 3500 
L 800 3500 
L 1894 563 
L 2988 3500 
L 3597 3500 
L 2284 0 
L 1503 0 
L 191 3500 
z
" transform="scale(0.015625)"/>
      <path id="DejaVuSans-67" d="M 2906 1791 
Q 2906 2416 2648 2759 
Q 2391 3103 1925 3103 
Q 1463 3103 1205 2759 
Q 947 2416 947 1791 
Q 947 1169 1205 825 
Q 1463 481 1925 481 
Q 2391 481 2648 825 
Q 2906 1169 2906 1791 
z
M 3481 434 
Q 3481 -459 3084 -895 
Q 2688 -1331 1869 -1331 
Q 1566 -1331 1297 -1286 
Q 1028 -1241 775 -1147 
L 775 -588 
Q 1028 -725 1275 -790 
Q 1522 -856 1778 -856 
Q 2344 -856 2625 -561 
Q 2906 -266 2906 331 
L 2906 616 
Q 2728 306 2450 153 
Q 2172 0 1784 0 
Q 1141 0 747 490 
Q 353 981 353 1791 
Q 353 2603 747 3093 
Q 1141 3584 1784 3584 
Q 2172 3584 2450 3431 
Q 2728 3278 2906 2969 
L 2906 3500 
L 3481 3500 
L 3481 434 
z
" transform="scale(0.015625)"/>
      <path id="DejaVuSans-64" d="M 2906 2969 
L 2906 4863 
L 3481 4863 
L 3481 0 
L 2906 0 
L 2906 525 
Q 2725 213 2448 61 
Q 2172 -91 1784 -91 
Q 1150 -91 751 415 
Q 353 922 353 1747 
Q 353 2572 751 3078 
Q 1150 3584 1784 3584 
Q 2172 3584 2448 3432 
Q 2725 3281 2906 2969 
z
M 947 1747 
Q 947 1113 1208 752 
Q 1469 391 1925 391 
Q 2381 391 2643 752 
Q 2906 1113 2906 1747 
Q 2906 2381 2643 2742 
Q 2381 3103 1925 3103 
Q 1469 3103 1208 2742 
Q 947 2381 947 1747 
z
" transform="scale(0.015625)"/>
      <path id="DejaVuSans-62" d="M 3116 1747 
Q 3116 2381 2855 2742 
Q 2594 3103 2138 3103 
Q 1681 3103 1420 2742 
Q 1159 2381 1159 1747 
Q 1159 1113 1420 752 
Q 1681 391 2138 391 
Q 2594 391 2855 752 
Q 3116 1113 3116 1747 
z
M 1159 2969 
Q 1341 3281 1617 3432 
Q 1894 3584 2278 3584 
Q 2916 3584 3314 3078 
Q 3713 2572 3713 1747 
Q 3713 922 3314 415 
Q 2916 -91 2278 -91 
Q 1894 -91 1617 61 
Q 1341 213 1159 525 
L 1159 0 
L 581 0 
L 581 4863 
L 1159 4863 
L 1159 2969 
z
" transform="scale(0.015625)"/>
      <path id="DejaVuSans-66" d="M 2375 4863 
L 2375 4384 
L 1825 4384 
Q 1516 4384 1395 4259 
Q 1275 4134 1275 3809 
L 1275 3500 
L 2222 3500 
L 2222 3053 
L 1275 3053 
L 1275 0 
L 697 0 
L 697 3053 
L 147 3053 
L 147 3500 
L 697 3500 
L 697 3744 
Q 697 4328 969 4595 
Q 1241 4863 1831 4863 
L 2375 4863 
z
" transform="scale(0.015625)"/>
     </defs>
     <use xlink:href="#DejaVuSans-50"/>
     <use xlink:href="#DejaVuSans-6f" x="56.677734"/>
     <use xlink:href="#DejaVuSans-70" x="117.859375"/>
     <use xlink:href="#DejaVuSans-75" x="181.335938"/>
     <use xlink:href="#DejaVuSans-6c" x="244.714844"/>
     <use xlink:href="#DejaVuSans-61" x="272.498047"/>
     <use xlink:href="#DejaVuSans-74" x="333.777344"/>
     <use xlink:href="#DejaVuSans-69" x="372.986328"/>
     <use xlink:href="#DejaVuSans-6f" x="400.769531"/>
     <use xlink:href="#DejaVuSans-6e" x="461.951172"/>
     <use xlink:href="#DejaVuSans-27" x="525.330078"/>
     <use xlink:href="#DejaVuSans-73" x="552.820312"/>
     <use xlink:href="#DejaVuSans-20" x="604.919922"/>
     <use xlink:href="#DejaVuSans-61" x="636.707031"/>
     <use xlink:href="#DejaVuSans-76" x="697.986328"/>
     <use xlink:href="#DejaVuSans-65" x="757.166016"/>
     <use xlink:href="#DejaVuSans-72" x="818.689453"/>
     <use xlink:href="#DejaVuSans-61" x="859.802734"/>
     <use xlink:href="#DejaVuSans-67" x="921.082031"/>
     <use xlink:href="#DejaVuSans-65" x="984.558594"/>
     <use xlink:href="#DejaVuSans-20" x="1046.082031"/>
     <use xlink:href="#DejaVuSans-61" x="1077.869141"/>
     <use xlink:href="#DejaVuSans-6e" x="1139.148438"/>
     <use xlink:href="#DejaVuSans-64" x="1202.527344"/>
     <use xlink:href="#DejaVuSans-20" x="1266.003906"/>
     <use xlink:href="#DejaVuSans-62" x="1297.791016"/>
     <use xlink:href="#DejaVuSans-65" x="1361.267578"/>
     <use xlink:href="#DejaVuSans-73" x="1422.791016"/>
     <use xlink:href="#DejaVuSans-74" x="1474.890625"/>
     <use xlink:href="#DejaVuSans-20" x="1514.099609"/>
     <use xlink:href="#DejaVuSans-66" x="1545.886719"/>
     <use xlink:href="#DejaVuSans-69" x="1581.091797"/>
     <use xlink:href="#DejaVuSans-74" x="1608.875"/>
     <use xlink:href="#DejaVuSans-6e" x="1648.083984"/>
     <use xlink:href="#DejaVuSans-65" x="1711.462891"/>
     <use xlink:href="#DejaVuSans-73" x="1772.986328"/>
     <use xlink:href="#DejaVuSans-73" x="1825.085938"/>
    </g>
   </g>
   <g id="legend_1">
    <g id="patch_7">
     <path d="M 334.779375 108.1845 
L 407.72 108.1845 
Q 409.72 108.1845 409.72 106.1845 
L 409.72 48.472 
Q 409.72 46.472 407.72 46.472 
L 334.779375 46.472 
Q 332.779375 46.472 332.779375 48.472 
L 332.779375 106.1845 
Q 332.779375 108.1845 334.779375 108.1845 
z
" style="fill: #ffffff; opacity: 0.8; stroke: #cccccc; stroke-linejoin: miter"/>
    </g>
    <g id="line2d_39">
     <path d="M 336.779375 54.570438 
L 346.779375 54.570438 
L 356.779375 54.570438 
" style="fill: none; stroke: #0000ff; stroke-width: 1.5; stroke-linecap: square"/>
    </g>
    <g id="text_21">
     <!-- average -->
     <g transform="translate(364.779375 58.070438)scale(0.1 -0.1)">
      <use xlink:href="#DejaVuSans-61"/>
      <use xlink:href="#DejaVuSans-76" x="61.279297"/>
      <use xlink:href="#DejaVuSans-65" x="120.458984"/>
      <use xlink:href="#DejaVuSans-72" x="181.982422"/>
      <use xlink:href="#DejaVuSans-61" x="223.095703"/>
      <use xlink:href="#DejaVuSans-67" x="284.375"/>
      <use xlink:href="#DejaVuSans-65" x="347.851562"/>
     </g>
    </g>
    <g id="line2d_40">
     <path d="M 336.779375 69.248563 
L 346.779375 69.248563 
L 356.779375 69.248563 
" style="fill: none; stroke-dasharray: 9.6,2.4,1.5,2.4; stroke-dashoffset: 0; stroke: #008000; stroke-width: 1.5"/>
    </g>
    <g id="text_22">
     <!-- -1 sd -->
     <g transform="translate(364.779375 72.748563)scale(0.1 -0.1)">
      <defs>
       <path id="DejaVuSans-2d" d="M 313 2009 
L 1997 2009 
L 1997 1497 
L 313 1497 
L 313 2009 
z
" transform="scale(0.015625)"/>
      </defs>
      <use xlink:href="#DejaVuSans-2d"/>
      <use xlink:href="#DejaVuSans-31" x="36.083984"/>
      <use xlink:href="#DejaVuSans-20" x="99.707031"/>
      <use xlink:href="#DejaVuSans-73" x="131.494141"/>
      <use xlink:href="#DejaVuSans-64" x="183.59375"/>
     </g>
    </g>
    <g id="line2d_41">
     <path d="M 336.779375 83.926688 
L 346.779375 83.926688 
L 356.779375 83.926688 
" style="fill: none; stroke-dasharray: 9.6,2.4,1.5,2.4; stroke-dashoffset: 0; stroke: #008000; stroke-width: 1.5"/>
    </g>
    <g id="text_23">
     <!-- +1 sd -->
     <g transform="translate(364.779375 87.426688)scale(0.1 -0.1)">
      <defs>
       <path id="DejaVuSans-2b" d="M 2944 4013 
L 2944 2272 
L 4684 2272 
L 4684 1741 
L 2944 1741 
L 2944 0 
L 2419 0 
L 2419 1741 
L 678 1741 
L 678 2272 
L 2419 2272 
L 2419 4013 
L 2944 4013 
z
" transform="scale(0.015625)"/>
      </defs>
      <use xlink:href="#DejaVuSans-2b"/>
      <use xlink:href="#DejaVuSans-31" x="83.789062"/>
      <use xlink:href="#DejaVuSans-20" x="147.412109"/>
      <use xlink:href="#DejaVuSans-73" x="179.199219"/>
      <use xlink:href="#DejaVuSans-64" x="231.298828"/>
     </g>
    </g>
    <g id="line2d_42">
     <path d="M 336.779375 98.604813 
L 346.779375 98.604813 
L 356.779375 98.604813 
" style="fill: none; stroke: #ff0000; stroke-width: 1.5; stroke-linecap: square"/>
    </g>
    <g id="text_24">
     <!-- best -->
     <g transform="translate(364.779375 102.104813)scale(0.1 -0.1)">
      <use xlink:href="#DejaVuSans-62"/>
      <use xlink:href="#DejaVuSans-65" x="63.476562"/>
      <use xlink:href="#DejaVuSans-73" x="125"/>
      <use xlink:href="#DejaVuSans-74" x="177.099609"/>
     </g>
    </g>
   </g>
  </g>
 </g>
 <defs>
  <clipPath id="pc0306617c4">
   <rect x="57.6" y="41.472" width="357.12" height="266.112"/>
  </clipPath>
 </defs>
</svg>
