<?xml version="1.0" encoding="UTF-8" standalone="no"?>
<!DOCTYPE svg PUBLIC "-//W3C//DTD SVG 1.1//EN"
 "http://www.w3.org/Graphics/SVG/1.1/DTD/svg11.dtd">
<!-- Generated by graphviz version 4.0.0 (20220529.0937)
 -->
<!-- Pages: 1 -->
<svg width="1066pt" height="402pt"
 viewBox="0.00 0.00 1066.43 402.32" xmlns="http://www.w3.org/2000/svg" xmlns:xlink="http://www.w3.org/1999/xlink">
<g id="graph0" class="graph" transform="scale(1 1) rotate(0) translate(4 398.32)">
<polygon fill="white" stroke="transparent" points="-4,4 -4,-398.32 1062.43,-398.32 1062.43,4 -4,4"/>
<!-- &#45;1 -->
<g id="node1" class="node">
<title>&#45;1</title>
<polygon fill="lightgray" stroke="black" points="55.85,-375.74 31.85,-375.74 31.85,-357.74 55.85,-357.74 55.85,-375.74"/>
<text text-anchor="middle" x="43.85" y="-364.54" font-family="Times New Roman,serif" font-size="9.00">&#45;1</text>
</g>
<!-- 3 -->
<g id="node22" class="node">
<title>3</title>
<ellipse fill="lightblue" stroke="black" cx="14.85" cy="-275.58" rx="14.7" ry="14.7"/>
<text text-anchor="middle" x="14.85" y="-273.38" font-family="Times New Roman,serif" font-size="9.00">3</text>
</g>
<!-- &#45;1&#45;&gt;3 -->
<g id="edge6" class="edge">
<title>&#45;1&#45;&gt;3</title>
<path fill="none" stroke="green" stroke-width="0.4" d="M41.17,-357.51C36.94,-344.49 28.54,-318.67 22.36,-299.68"/>
<polygon fill="green" stroke="green" stroke-width="0.4" points="25.62,-298.38 19.2,-289.96 18.96,-300.55 25.62,-298.38"/>
</g>
<!-- 8930 -->
<g id="node23" class="node">
<title>8930</title>
<ellipse fill="white" stroke="black" cx="72.85" cy="-275.58" rx="25" ry="25"/>
<text text-anchor="middle" x="72.85" y="-273.38" font-family="Times New Roman,serif" font-size="9.00">8930</text>
</g>
<!-- &#45;1&#45;&gt;8930 -->
<g id="edge4" class="edge">
<title>&#45;1&#45;&gt;8930</title>
<path fill="none" stroke="red" stroke-width="0.28" d="M46.53,-357.51C50.09,-346.56 56.6,-326.54 62.25,-309.16"/>
<polygon fill="red" stroke="red" stroke-width="0.28" points="65.69,-309.9 65.46,-299.31 59.03,-307.74 65.69,-309.9"/>
</g>
<!-- &#45;2 -->
<g id="node2" class="node">
<title>&#45;2</title>
<polygon fill="lightgray" stroke="black" points="146.85,-375.74 122.85,-375.74 122.85,-357.74 146.85,-357.74 146.85,-375.74"/>
<text text-anchor="middle" x="134.85" y="-364.54" font-family="Times New Roman,serif" font-size="9.00">&#45;2</text>
</g>
<!-- &#45;3 -->
<g id="node3" class="node">
<title>&#45;3</title>
<polygon fill="lightgray" stroke="black" points="227.85,-375.74 203.85,-375.74 203.85,-357.74 227.85,-357.74 227.85,-375.74"/>
<text text-anchor="middle" x="215.85" y="-364.54" font-family="Times New Roman,serif" font-size="9.00">&#45;3</text>
</g>
<!-- &#45;4 -->
<g id="node4" class="node">
<title>&#45;4</title>
<polygon fill="lightgray" stroke="black" points="175.85,-284.58 151.85,-284.58 151.85,-266.58 175.85,-266.58 175.85,-284.58"/>
<text text-anchor="middle" x="163.85" y="-273.38" font-family="Times New Roman,serif" font-size="9.00">&#45;4</text>
</g>
<!-- 1 -->
<g id="node20" class="node">
<title>1</title>
<ellipse fill="lightblue" stroke="black" cx="287.85" cy="-14.85" rx="14.7" ry="14.7"/>
<text text-anchor="middle" x="287.85" y="-12.65" font-family="Times New Roman,serif" font-size="9.00">1</text>
</g>
<!-- &#45;4&#45;&gt;1 -->
<g id="edge1" class="edge">
<title>&#45;4&#45;&gt;1</title>
<path fill="none" stroke="green" stroke-width="0.49" stroke-dasharray="1,5" d="M163.37,-266.45C162.02,-236.54 161.03,-130.92 208.85,-65.7 222.94,-46.48 246.89,-32.9 264.74,-24.81"/>
<polygon fill="green" stroke="green" stroke-width="0.49" points="266.34,-27.93 274.17,-20.79 263.6,-21.49 266.34,-27.93"/>
</g>
<!-- 13326 -->
<g id="node29" class="node">
<title>13326</title>
<ellipse fill="white" stroke="black" cx="221.85" cy="-184.43" rx="27.65" ry="27.65"/>
<text text-anchor="middle" x="221.85" y="-182.23" font-family="Times New Roman,serif" font-size="9.00">13326</text>
</g>
<!-- &#45;4&#45;&gt;13326 -->
<g id="edge12" class="edge">
<title>&#45;4&#45;&gt;13326</title>
<path fill="none" stroke="green" stroke-width="0.12" d="M169.2,-266.36C176.53,-255.09 190.09,-234.26 201.61,-216.55"/>
<polygon fill="green" stroke="green" stroke-width="0.12" points="204.54,-218.45 207.06,-208.16 198.68,-214.63 204.54,-218.45"/>
</g>
<!-- &#45;5 -->
<g id="node5" class="node">
<title>&#45;5</title>
<polygon fill="lightgray" stroke="black" points="331.85,-375.74 307.85,-375.74 307.85,-357.74 331.85,-357.74 331.85,-375.74"/>
<text text-anchor="middle" x="319.85" y="-364.54" font-family="Times New Roman,serif" font-size="9.00">&#45;5</text>
</g>
<!-- &#45;6 -->
<g id="node6" class="node">
<title>&#45;6</title>
<polygon fill="lightgray" stroke="black" points="373.85,-375.74 349.85,-375.74 349.85,-357.74 373.85,-357.74 373.85,-375.74"/>
<text text-anchor="middle" x="361.85" y="-364.54" font-family="Times New Roman,serif" font-size="9.00">&#45;6</text>
</g>
<!-- &#45;7 -->
<g id="node7" class="node">
<title>&#45;7</title>
<polygon fill="lightgray" stroke="black" points="415.85,-375.74 391.85,-375.74 391.85,-357.74 415.85,-357.74 415.85,-375.74"/>
<text text-anchor="middle" x="403.85" y="-364.54" font-family="Times New Roman,serif" font-size="9.00">&#45;7</text>
</g>
<!-- &#45;8 -->
<g id="node8" class="node">
<title>&#45;8</title>
<polygon fill="lightgray" stroke="black" points="289.85,-375.74 265.85,-375.74 265.85,-357.74 289.85,-357.74 289.85,-375.74"/>
<text text-anchor="middle" x="277.85" y="-364.54" font-family="Times New Roman,serif" font-size="9.00">&#45;8</text>
</g>
<!-- &#45;8&#45;&gt;1 -->
<g id="edge3" class="edge">
<title>&#45;8&#45;&gt;1</title>
<path fill="none" stroke="green" stroke-width="1.28" d="M279.31,-357.37C285.31,-321.99 307.18,-181.11 296.85,-65.7 296.09,-57.17 294.6,-47.92 293.06,-39.73"/>
<polygon fill="green" stroke="green" stroke-width="1.28" points="296.45,-38.84 291.04,-29.73 289.58,-40.22 296.45,-38.84"/>
</g>
<!-- 13540 -->
<g id="node24" class="node">
<title>13540</title>
<ellipse fill="white" stroke="black" cx="221.85" cy="-275.58" rx="27.65" ry="27.65"/>
<text text-anchor="middle" x="221.85" y="-273.38" font-family="Times New Roman,serif" font-size="9.00">13540</text>
</g>
<!-- &#45;8&#45;&gt;13540 -->
<g id="edge10" class="edge">
<title>&#45;8&#45;&gt;13540</title>
<path fill="none" stroke="green" stroke-width="0.31" d="M272.68,-357.51C265.67,-346.35 252.76,-325.79 241.7,-308.18"/>
<polygon fill="green" stroke="green" stroke-width="0.31" points="244.41,-305.92 236.13,-299.31 238.48,-309.64 244.41,-305.92"/>
</g>
<!-- &#45;8&#45;&gt;13326 -->
<g id="edge8" class="edge">
<title>&#45;8&#45;&gt;13326</title>
<path fill="none" stroke="green" stroke-width="0.25" stroke-dasharray="1,5" d="M277.57,-357.48C276.68,-337.9 273.07,-287.34 258.85,-248.01 254.87,-237.01 248.93,-225.78 242.96,-215.92"/>
<polygon fill="green" stroke="green" stroke-width="0.25" points="245.82,-213.9 237.53,-207.3 239.9,-217.63 245.82,-213.9"/>
</g>
<!-- &#45;9 -->
<g id="node9" class="node">
<title>&#45;9</title>
<polygon fill="lightgray" stroke="black" points="367.85,-102.28 343.85,-102.28 343.85,-84.28 367.85,-84.28 367.85,-102.28"/>
<text text-anchor="middle" x="355.85" y="-91.08" font-family="Times New Roman,serif" font-size="9.00">&#45;9</text>
</g>
<!-- &#45;9&#45;&gt;1 -->
<g id="edge5" class="edge">
<title>&#45;9&#45;&gt;1</title>
<path fill="none" stroke="red" stroke-width="0.48" d="M348.57,-84.1C338.01,-72.23 318.15,-49.91 304.02,-34.03"/>
<polygon fill="red" stroke="red" stroke-width="0.48" points="306.5,-31.55 297.24,-26.4 301.27,-36.2 306.5,-31.55"/>
</g>
<!-- &#45;10 -->
<g id="node10" class="node">
<title>&#45;10</title>
<polygon fill="lightgray" stroke="black" points="463.35,-375.74 434.35,-375.74 434.35,-357.74 463.35,-357.74 463.35,-375.74"/>
<text text-anchor="middle" x="448.85" y="-364.54" font-family="Times New Roman,serif" font-size="9.00">&#45;10</text>
</g>
<!-- &#45;11 -->
<g id="node11" class="node">
<title>&#45;11</title>
<polygon fill="lightgray" stroke="black" points="510.35,-375.74 481.35,-375.74 481.35,-357.74 510.35,-357.74 510.35,-375.74"/>
<text text-anchor="middle" x="495.85" y="-364.54" font-family="Times New Roman,serif" font-size="9.00">&#45;11</text>
</g>
<!-- 2 -->
<g id="node21" class="node">
<title>2</title>
<ellipse fill="lightblue" stroke="black" cx="495.85" cy="-275.58" rx="14.7" ry="14.7"/>
<text text-anchor="middle" x="495.85" y="-273.38" font-family="Times New Roman,serif" font-size="9.00">2</text>
</g>
<!-- &#45;11&#45;&gt;2 -->
<g id="edge16" class="edge">
<title>&#45;11&#45;&gt;2</title>
<path fill="none" stroke="red" stroke-width="0.34" d="M495.85,-357.51C495.85,-344.75 495.85,-319.71 495.85,-300.84"/>
<polygon fill="red" stroke="red" stroke-width="0.34" points="499.35,-300.59 495.85,-290.59 492.35,-300.59 499.35,-300.59"/>
</g>
<!-- &#45;12 -->
<g id="node12" class="node">
<title>&#45;12</title>
<polygon fill="lightgray" stroke="black" points="557.35,-375.74 528.35,-375.74 528.35,-357.74 557.35,-357.74 557.35,-375.74"/>
<text text-anchor="middle" x="542.85" y="-364.54" font-family="Times New Roman,serif" font-size="9.00">&#45;12</text>
</g>
<!-- &#45;13 -->
<g id="node13" class="node">
<title>&#45;13</title>
<polygon fill="lightgray" stroke="black" points="415.35,-102.28 386.35,-102.28 386.35,-84.28 415.35,-84.28 415.35,-102.28"/>
<text text-anchor="middle" x="400.85" y="-91.08" font-family="Times New Roman,serif" font-size="9.00">&#45;13</text>
</g>
<!-- &#45;13&#45;&gt;1 -->
<g id="edge7" class="edge">
<title>&#45;13&#45;&gt;1</title>
<path fill="none" stroke="green" stroke-width="0.16" d="M394.72,-84.19C390.19,-78.57 383.65,-71.13 376.85,-65.7 356.2,-49.22 329.39,-35.02 310.62,-26.04"/>
<polygon fill="green" stroke="green" stroke-width="0.16" points="311.9,-22.77 301.35,-21.72 308.94,-29.11 311.9,-22.77"/>
</g>
<!-- &#45;14 -->
<g id="node14" class="node">
<title>&#45;14</title>
<polygon fill="lightgray" stroke="black" points="604.35,-375.74 575.35,-375.74 575.35,-357.74 604.35,-357.74 604.35,-375.74"/>
<text text-anchor="middle" x="589.85" y="-364.54" font-family="Times New Roman,serif" font-size="9.00">&#45;14</text>
</g>
<!-- &#45;15 -->
<g id="node15" class="node">
<title>&#45;15</title>
<polygon fill="lightgray" stroke="black" points="651.35,-375.74 622.35,-375.74 622.35,-357.74 651.35,-357.74 651.35,-375.74"/>
<text text-anchor="middle" x="636.85" y="-364.54" font-family="Times New Roman,serif" font-size="9.00">&#45;15</text>
</g>
<!-- &#45;16 -->
<g id="node16" class="node">
<title>&#45;16</title>
<polygon fill="lightgray" stroke="black" points="698.35,-375.74 669.35,-375.74 669.35,-357.74 698.35,-357.74 698.35,-375.74"/>
<text text-anchor="middle" x="683.85" y="-364.54" font-family="Times New Roman,serif" font-size="9.00">&#45;16</text>
</g>
<!-- &#45;17 -->
<g id="node17" class="node">
<title>&#45;17</title>
<polygon fill="lightgray" stroke="black" points="745.35,-375.74 716.35,-375.74 716.35,-357.74 745.35,-357.74 745.35,-375.74"/>
<text text-anchor="middle" x="730.85" y="-364.54" font-family="Times New Roman,serif" font-size="9.00">&#45;17</text>
</g>
<!-- &#45;18 -->
<g id="node18" class="node">
<title>&#45;18</title>
<polygon fill="lightgray" stroke="black" points="792.35,-375.74 763.35,-375.74 763.35,-357.74 792.35,-357.74 792.35,-375.74"/>
<text text-anchor="middle" x="777.85" y="-364.54" font-family="Times New Roman,serif" font-size="9.00">&#45;18</text>
</g>
<!-- 0 -->
<g id="node19" class="node">
<title>0</title>
<ellipse fill="lightblue" stroke="black" cx="824.85" cy="-366.74" rx="14.7" ry="14.7"/>
<text text-anchor="middle" x="824.85" y="-364.54" font-family="Times New Roman,serif" font-size="9.00">0</text>
</g>
<!-- 10345 -->
<g id="node26" class="node">
<title>10345</title>
<ellipse fill="white" stroke="black" cx="36.85" cy="-184.43" rx="27.65" ry="27.65"/>
<text text-anchor="middle" x="36.85" y="-182.23" font-family="Times New Roman,serif" font-size="9.00">10345</text>
</g>
<!-- 8930&#45;&gt;10345 -->
<g id="edge2" class="edge">
<title>8930&#45;&gt;10345</title>
<path fill="none" stroke="green" stroke-width="0.11" stroke-dasharray="1,5" d="M63.76,-252.09C59.84,-242.37 55.16,-230.78 50.81,-220.02"/>
<polygon fill="green" stroke="green" stroke-width="0.11" points="53.94,-218.4 46.95,-210.43 47.44,-221.02 53.94,-218.4"/>
</g>
<!-- 11480 -->
<g id="node31" class="node">
<title>11480</title>
<ellipse fill="white" stroke="black" cx="109.85" cy="-184.43" rx="27.65" ry="27.65"/>
<text text-anchor="middle" x="109.85" y="-182.23" font-family="Times New Roman,serif" font-size="9.00">11480</text>
</g>
<!-- 8930&#45;&gt;11480 -->
<g id="edge13" class="edge">
<title>8930&#45;&gt;11480</title>
<path fill="none" stroke="red" stroke-width="0.47" d="M82,-252.55C86.1,-242.66 91.04,-230.76 95.61,-219.74"/>
<polygon fill="red" stroke="red" stroke-width="0.47" points="98.9,-220.94 99.5,-210.36 92.44,-218.26 98.9,-220.94"/>
</g>
<!-- 13540&#45;&gt;13326 -->
<g id="edge11" class="edge">
<title>13540&#45;&gt;13326</title>
<path fill="none" stroke="green" stroke-width="0.21" d="M221.85,-247.84C221.85,-239.81 221.85,-230.87 221.85,-222.31"/>
<polygon fill="green" stroke="green" stroke-width="0.21" points="225.35,-222.16 221.85,-212.16 218.35,-222.16 225.35,-222.16"/>
</g>
<!-- 12422 -->
<g id="node25" class="node">
<title>12422</title>
<ellipse fill="white" stroke="black" cx="884.85" cy="-366.74" rx="27.65" ry="27.65"/>
<text text-anchor="middle" x="884.85" y="-364.54" font-family="Times New Roman,serif" font-size="9.00">12422</text>
</g>
<!-- 11245 -->
<g id="node27" class="node">
<title>11245</title>
<ellipse fill="white" stroke="black" cx="957.85" cy="-366.74" rx="27.65" ry="27.65"/>
<text text-anchor="middle" x="957.85" y="-364.54" font-family="Times New Roman,serif" font-size="9.00">11245</text>
</g>
<!-- 12813 -->
<g id="node28" class="node">
<title>12813</title>
<ellipse fill="white" stroke="black" cx="1030.85" cy="-366.74" rx="27.65" ry="27.65"/>
<text text-anchor="middle" x="1030.85" y="-364.54" font-family="Times New Roman,serif" font-size="9.00">12813</text>
</g>
<!-- 13326&#45;&gt;1 -->
<g id="edge9" class="edge">
<title>13326&#45;&gt;1</title>
<path fill="none" stroke="red" stroke-width="0.24" stroke-dasharray="1,5" d="M215.76,-157.11C211.4,-132.19 208.53,-94.42 222.85,-65.7 231.7,-47.95 250.19,-34.75 265.2,-26.4"/>
<polygon fill="red" stroke="red" stroke-width="0.24" points="267.16,-29.33 274.42,-21.62 263.93,-23.12 267.16,-29.33"/>
</g>
<!-- 13909 -->
<g id="node30" class="node">
<title>13909</title>
<ellipse fill="white" stroke="black" cx="259.85" cy="-93.28" rx="27.65" ry="27.65"/>
<text text-anchor="middle" x="259.85" y="-91.08" font-family="Times New Roman,serif" font-size="9.00">13909</text>
</g>
<!-- 13326&#45;&gt;13909 -->
<g id="edge14" class="edge">
<title>13326&#45;&gt;13909</title>
<path fill="none" stroke="green" stroke-width="0.34" d="M232.43,-158.6C236.43,-149.22 241.04,-138.4 245.34,-128.33"/>
<polygon fill="green" stroke="green" stroke-width="0.34" points="248.62,-129.55 249.32,-118.98 242.18,-126.8 248.62,-129.55"/>
</g>
<!-- 13909&#45;&gt;1 -->
<g id="edge15" class="edge">
<title>13909&#45;&gt;1</title>
<path fill="none" stroke="red" stroke-width="0.36" d="M269.02,-67.25C272.4,-58.01 276.21,-47.61 279.52,-38.59"/>
<polygon fill="red" stroke="red" stroke-width="0.36" points="282.83,-39.72 282.99,-29.12 276.26,-37.31 282.83,-39.72"/>
</g>
</g>
</svg>
