<?xml version="1.0" encoding="utf-8" standalone="no"?>
<!DOCTYPE svg PUBLIC "-//W3C//DTD SVG 1.1//EN"
  "http://www.w3.org/Graphics/SVG/1.1/DTD/svg11.dtd">
<svg xmlns:xlink="http://www.w3.org/1999/xlink" width="460.8pt" height="345.6pt" viewBox="0 0 460.8 345.6" xmlns="http://www.w3.org/2000/svg" version="1.1">
 <metadata>
  <rdf:RDF xmlns:dc="http://purl.org/dc/elements/1.1/" xmlns:cc="http://creativecommons.org/ns#" xmlns:rdf="http://www.w3.org/1999/02/22-rdf-syntax-ns#">
   <cc:Work>
    <dc:type rdf:resource="http://purl.org/dc/dcmitype/StillImage"/>
    <dc:date>2022-07-26T12:58:20.589763</dc:date>
    <dc:format>image/svg+xml</dc:format>
    <dc:creator>
     <cc:Agent>
      <dc:title>Matplotlib v3.5.2, https://matplotlib.org/</dc:title>
     </cc:Agent>
    </dc:creator>
   </cc:Work>
  </rdf:RDF>
 </metadata>
 <defs>
  <style type="text/css">*{stroke-linejoin: round; stroke-linecap: butt}</style>
 </defs>
 <g id="figure_1">
  <g id="patch_1">
   <path d="M 0 345.6 
L 460.8 345.6 
L 460.8 0 
L 0 0 
z
" style="fill: #ffffff"/>
  </g>
  <g id="axes_1">
   <g id="patch_2">
    <path d="M 57.6 307.584 
L 414.72 307.584 
L 414.72 41.472 
L 57.6 41.472 
z
" style="fill: #ffffff"/>
   </g>
   <g id="matplotlib.axis_1">
    <g id="xtick_1">
     <g id="line2d_1">
      <path d="M 73.832727 307.584 
L 73.832727 41.472 
" clip-path="url(#p20ab3ba6da)" style="fill: none; stroke: #b0b0b0; stroke-width: 0.8; stroke-linecap: square"/>
     </g>
     <g id="line2d_2">
      <defs>
       <path id="meb96bd04bd" d="M 0 0 
L 0 3.5 
" style="stroke: #000000; stroke-width: 0.8"/>
      </defs>
      <g>
       <use xlink:href="#meb96bd04bd" x="73.832727" y="307.584" style="stroke: #000000; stroke-width: 0.8"/>
      </g>
     </g>
     <g id="text_1">
      <!-- 0 -->
      <g transform="translate(70.651477 322.182437)scale(0.1 -0.1)">
       <defs>
        <path id="DejaVuSans-30" d="M 2034 4250 
Q 1547 4250 1301 3770 
Q 1056 3291 1056 2328 
Q 1056 1369 1301 889 
Q 1547 409 2034 409 
Q 2525 409 2770 889 
Q 3016 1369 3016 2328 
Q 3016 3291 2770 3770 
Q 2525 4250 2034 4250 
z
M 2034 4750 
Q 2819 4750 3233 4129 
Q 3647 3509 3647 2328 
Q 3647 1150 3233 529 
Q 2819 -91 2034 -91 
Q 1250 -91 836 529 
Q 422 1150 422 2328 
Q 422 3509 836 4129 
Q 1250 4750 2034 4750 
z
" transform="scale(0.015625)"/>
       </defs>
       <use xlink:href="#DejaVuSans-30"/>
      </g>
     </g>
    </g>
    <g id="xtick_2">
     <g id="line2d_3">
      <path d="M 114.618474 307.584 
L 114.618474 41.472 
" clip-path="url(#p20ab3ba6da)" style="fill: none; stroke: #b0b0b0; stroke-width: 0.8; stroke-linecap: square"/>
     </g>
     <g id="line2d_4">
      <g>
       <use xlink:href="#meb96bd04bd" x="114.618474" y="307.584" style="stroke: #000000; stroke-width: 0.8"/>
      </g>
     </g>
     <g id="text_2">
      <!-- 25 -->
      <g transform="translate(108.255974 322.182437)scale(0.1 -0.1)">
       <defs>
        <path id="DejaVuSans-32" d="M 1228 531 
L 3431 531 
L 3431 0 
L 469 0 
L 469 531 
Q 828 903 1448 1529 
Q 2069 2156 2228 2338 
Q 2531 2678 2651 2914 
Q 2772 3150 2772 3378 
Q 2772 3750 2511 3984 
Q 2250 4219 1831 4219 
Q 1534 4219 1204 4116 
Q 875 4013 500 3803 
L 500 4441 
Q 881 4594 1212 4672 
Q 1544 4750 1819 4750 
Q 2544 4750 2975 4387 
Q 3406 4025 3406 3419 
Q 3406 3131 3298 2873 
Q 3191 2616 2906 2266 
Q 2828 2175 2409 1742 
Q 1991 1309 1228 531 
z
" transform="scale(0.015625)"/>
        <path id="DejaVuSans-35" d="M 691 4666 
L 3169 4666 
L 3169 4134 
L 1269 4134 
L 1269 2991 
Q 1406 3038 1543 3061 
Q 1681 3084 1819 3084 
Q 2600 3084 3056 2656 
Q 3513 2228 3513 1497 
Q 3513 744 3044 326 
Q 2575 -91 1722 -91 
Q 1428 -91 1123 -41 
Q 819 9 494 109 
L 494 744 
Q 775 591 1075 516 
Q 1375 441 1709 441 
Q 2250 441 2565 725 
Q 2881 1009 2881 1497 
Q 2881 1984 2565 2268 
Q 2250 2553 1709 2553 
Q 1456 2553 1204 2497 
Q 953 2441 691 2322 
L 691 4666 
z
" transform="scale(0.015625)"/>
       </defs>
       <use xlink:href="#DejaVuSans-32"/>
       <use xlink:href="#DejaVuSans-35" x="63.623047"/>
      </g>
     </g>
    </g>
    <g id="xtick_3">
     <g id="line2d_5">
      <path d="M 155.404221 307.584 
L 155.404221 41.472 
" clip-path="url(#p20ab3ba6da)" style="fill: none; stroke: #b0b0b0; stroke-width: 0.8; stroke-linecap: square"/>
     </g>
     <g id="line2d_6">
      <g>
       <use xlink:href="#meb96bd04bd" x="155.404221" y="307.584" style="stroke: #000000; stroke-width: 0.8"/>
      </g>
     </g>
     <g id="text_3">
      <!-- 50 -->
      <g transform="translate(149.041721 322.182437)scale(0.1 -0.1)">
       <use xlink:href="#DejaVuSans-35"/>
       <use xlink:href="#DejaVuSans-30" x="63.623047"/>
      </g>
     </g>
    </g>
    <g id="xtick_4">
     <g id="line2d_7">
      <path d="M 196.189968 307.584 
L 196.189968 41.472 
" clip-path="url(#p20ab3ba6da)" style="fill: none; stroke: #b0b0b0; stroke-width: 0.8; stroke-linecap: square"/>
     </g>
     <g id="line2d_8">
      <g>
       <use xlink:href="#meb96bd04bd" x="196.189968" y="307.584" style="stroke: #000000; stroke-width: 0.8"/>
      </g>
     </g>
     <g id="text_4">
      <!-- 75 -->
      <g transform="translate(189.827468 322.182437)scale(0.1 -0.1)">
       <defs>
        <path id="DejaVuSans-37" d="M 525 4666 
L 3525 4666 
L 3525 4397 
L 1831 0 
L 1172 0 
L 2766 4134 
L 525 4134 
L 525 4666 
z
" transform="scale(0.015625)"/>
       </defs>
       <use xlink:href="#DejaVuSans-37"/>
       <use xlink:href="#DejaVuSans-35" x="63.623047"/>
      </g>
     </g>
    </g>
    <g id="xtick_5">
     <g id="line2d_9">
      <path d="M 236.975715 307.584 
L 236.975715 41.472 
" clip-path="url(#p20ab3ba6da)" style="fill: none; stroke: #b0b0b0; stroke-width: 0.8; stroke-linecap: square"/>
     </g>
     <g id="line2d_10">
      <g>
       <use xlink:href="#meb96bd04bd" x="236.975715" y="307.584" style="stroke: #000000; stroke-width: 0.8"/>
      </g>
     </g>
     <g id="text_5">
      <!-- 100 -->
      <g transform="translate(227.431965 322.182437)scale(0.1 -0.1)">
       <defs>
        <path id="DejaVuSans-31" d="M 794 531 
L 1825 531 
L 1825 4091 
L 703 3866 
L 703 4441 
L 1819 4666 
L 2450 4666 
L 2450 531 
L 3481 531 
L 3481 0 
L 794 0 
L 794 531 
z
" transform="scale(0.015625)"/>
       </defs>
       <use xlink:href="#DejaVuSans-31"/>
       <use xlink:href="#DejaVuSans-30" x="63.623047"/>
       <use xlink:href="#DejaVuSans-30" x="127.246094"/>
      </g>
     </g>
    </g>
    <g id="xtick_6">
     <g id="line2d_11">
      <path d="M 277.761462 307.584 
L 277.761462 41.472 
" clip-path="url(#p20ab3ba6da)" style="fill: none; stroke: #b0b0b0; stroke-width: 0.8; stroke-linecap: square"/>
     </g>
     <g id="line2d_12">
      <g>
       <use xlink:href="#meb96bd04bd" x="277.761462" y="307.584" style="stroke: #000000; stroke-width: 0.8"/>
      </g>
     </g>
     <g id="text_6">
      <!-- 125 -->
      <g transform="translate(268.217712 322.182437)scale(0.1 -0.1)">
       <use xlink:href="#DejaVuSans-31"/>
       <use xlink:href="#DejaVuSans-32" x="63.623047"/>
       <use xlink:href="#DejaVuSans-35" x="127.246094"/>
      </g>
     </g>
    </g>
    <g id="xtick_7">
     <g id="line2d_13">
      <path d="M 318.547209 307.584 
L 318.547209 41.472 
" clip-path="url(#p20ab3ba6da)" style="fill: none; stroke: #b0b0b0; stroke-width: 0.8; stroke-linecap: square"/>
     </g>
     <g id="line2d_14">
      <g>
       <use xlink:href="#meb96bd04bd" x="318.547209" y="307.584" style="stroke: #000000; stroke-width: 0.8"/>
      </g>
     </g>
     <g id="text_7">
      <!-- 150 -->
      <g transform="translate(309.003459 322.182437)scale(0.1 -0.1)">
       <use xlink:href="#DejaVuSans-31"/>
       <use xlink:href="#DejaVuSans-35" x="63.623047"/>
       <use xlink:href="#DejaVuSans-30" x="127.246094"/>
      </g>
     </g>
    </g>
    <g id="xtick_8">
     <g id="line2d_15">
      <path d="M 359.332956 307.584 
L 359.332956 41.472 
" clip-path="url(#p20ab3ba6da)" style="fill: none; stroke: #b0b0b0; stroke-width: 0.8; stroke-linecap: square"/>
     </g>
     <g id="line2d_16">
      <g>
       <use xlink:href="#meb96bd04bd" x="359.332956" y="307.584" style="stroke: #000000; stroke-width: 0.8"/>
      </g>
     </g>
     <g id="text_8">
      <!-- 175 -->
      <g transform="translate(349.789206 322.182437)scale(0.1 -0.1)">
       <use xlink:href="#DejaVuSans-31"/>
       <use xlink:href="#DejaVuSans-37" x="63.623047"/>
       <use xlink:href="#DejaVuSans-35" x="127.246094"/>
      </g>
     </g>
    </g>
    <g id="xtick_9">
     <g id="line2d_17">
      <path d="M 400.118703 307.584 
L 400.118703 41.472 
" clip-path="url(#p20ab3ba6da)" style="fill: none; stroke: #b0b0b0; stroke-width: 0.8; stroke-linecap: square"/>
     </g>
     <g id="line2d_18">
      <g>
       <use xlink:href="#meb96bd04bd" x="400.118703" y="307.584" style="stroke: #000000; stroke-width: 0.8"/>
      </g>
     </g>
     <g id="text_9">
      <!-- 200 -->
      <g transform="translate(390.574953 322.182437)scale(0.1 -0.1)">
       <use xlink:href="#DejaVuSans-32"/>
       <use xlink:href="#DejaVuSans-30" x="63.623047"/>
       <use xlink:href="#DejaVuSans-30" x="127.246094"/>
      </g>
     </g>
    </g>
    <g id="text_10">
     <!-- Generations -->
     <g transform="translate(205.662344 335.860562)scale(0.1 -0.1)">
      <defs>
       <path id="DejaVuSans-47" d="M 3809 666 
L 3809 1919 
L 2778 1919 
L 2778 2438 
L 4434 2438 
L 4434 434 
Q 4069 175 3628 42 
Q 3188 -91 2688 -91 
Q 1594 -91 976 548 
Q 359 1188 359 2328 
Q 359 3472 976 4111 
Q 1594 4750 2688 4750 
Q 3144 4750 3555 4637 
Q 3966 4525 4313 4306 
L 4313 3634 
Q 3963 3931 3569 4081 
Q 3175 4231 2741 4231 
Q 1884 4231 1454 3753 
Q 1025 3275 1025 2328 
Q 1025 1384 1454 906 
Q 1884 428 2741 428 
Q 3075 428 3337 486 
Q 3600 544 3809 666 
z
" transform="scale(0.015625)"/>
       <path id="DejaVuSans-65" d="M 3597 1894 
L 3597 1613 
L 953 1613 
Q 991 1019 1311 708 
Q 1631 397 2203 397 
Q 2534 397 2845 478 
Q 3156 559 3463 722 
L 3463 178 
Q 3153 47 2828 -22 
Q 2503 -91 2169 -91 
Q 1331 -91 842 396 
Q 353 884 353 1716 
Q 353 2575 817 3079 
Q 1281 3584 2069 3584 
Q 2775 3584 3186 3129 
Q 3597 2675 3597 1894 
z
M 3022 2063 
Q 3016 2534 2758 2815 
Q 2500 3097 2075 3097 
Q 1594 3097 1305 2825 
Q 1016 2553 972 2059 
L 3022 2063 
z
" transform="scale(0.015625)"/>
       <path id="DejaVuSans-6e" d="M 3513 2113 
L 3513 0 
L 2938 0 
L 2938 2094 
Q 2938 2591 2744 2837 
Q 2550 3084 2163 3084 
Q 1697 3084 1428 2787 
Q 1159 2491 1159 1978 
L 1159 0 
L 581 0 
L 581 3500 
L 1159 3500 
L 1159 2956 
Q 1366 3272 1645 3428 
Q 1925 3584 2291 3584 
Q 2894 3584 3203 3211 
Q 3513 2838 3513 2113 
z
" transform="scale(0.015625)"/>
       <path id="DejaVuSans-72" d="M 2631 2963 
Q 2534 3019 2420 3045 
Q 2306 3072 2169 3072 
Q 1681 3072 1420 2755 
Q 1159 2438 1159 1844 
L 1159 0 
L 581 0 
L 581 3500 
L 1159 3500 
L 1159 2956 
Q 1341 3275 1631 3429 
Q 1922 3584 2338 3584 
Q 2397 3584 2469 3576 
Q 2541 3569 2628 3553 
L 2631 2963 
z
" transform="scale(0.015625)"/>
       <path id="DejaVuSans-61" d="M 2194 1759 
Q 1497 1759 1228 1600 
Q 959 1441 959 1056 
Q 959 750 1161 570 
Q 1363 391 1709 391 
Q 2188 391 2477 730 
Q 2766 1069 2766 1631 
L 2766 1759 
L 2194 1759 
z
M 3341 1997 
L 3341 0 
L 2766 0 
L 2766 531 
Q 2569 213 2275 61 
Q 1981 -91 1556 -91 
Q 1019 -91 701 211 
Q 384 513 384 1019 
Q 384 1609 779 1909 
Q 1175 2209 1959 2209 
L 2766 2209 
L 2766 2266 
Q 2766 2663 2505 2880 
Q 2244 3097 1772 3097 
Q 1472 3097 1187 3025 
Q 903 2953 641 2809 
L 641 3341 
Q 956 3463 1253 3523 
Q 1550 3584 1831 3584 
Q 2591 3584 2966 3190 
Q 3341 2797 3341 1997 
z
" transform="scale(0.015625)"/>
       <path id="DejaVuSans-74" d="M 1172 4494 
L 1172 3500 
L 2356 3500 
L 2356 3053 
L 1172 3053 
L 1172 1153 
Q 1172 725 1289 603 
Q 1406 481 1766 481 
L 2356 481 
L 2356 0 
L 1766 0 
Q 1100 0 847 248 
Q 594 497 594 1153 
L 594 3053 
L 172 3053 
L 172 3500 
L 594 3500 
L 594 4494 
L 1172 4494 
z
" transform="scale(0.015625)"/>
       <path id="DejaVuSans-69" d="M 603 3500 
L 1178 3500 
L 1178 0 
L 603 0 
L 603 3500 
z
M 603 4863 
L 1178 4863 
L 1178 4134 
L 603 4134 
L 603 4863 
z
" transform="scale(0.015625)"/>
       <path id="DejaVuSans-6f" d="M 1959 3097 
Q 1497 3097 1228 2736 
Q 959 2375 959 1747 
Q 959 1119 1226 758 
Q 1494 397 1959 397 
Q 2419 397 2687 759 
Q 2956 1122 2956 1747 
Q 2956 2369 2687 2733 
Q 2419 3097 1959 3097 
z
M 1959 3584 
Q 2709 3584 3137 3096 
Q 3566 2609 3566 1747 
Q 3566 888 3137 398 
Q 2709 -91 1959 -91 
Q 1206 -91 779 398 
Q 353 888 353 1747 
Q 353 2609 779 3096 
Q 1206 3584 1959 3584 
z
" transform="scale(0.015625)"/>
       <path id="DejaVuSans-73" d="M 2834 3397 
L 2834 2853 
Q 2591 2978 2328 3040 
Q 2066 3103 1784 3103 
Q 1356 3103 1142 2972 
Q 928 2841 928 2578 
Q 928 2378 1081 2264 
Q 1234 2150 1697 2047 
L 1894 2003 
Q 2506 1872 2764 1633 
Q 3022 1394 3022 966 
Q 3022 478 2636 193 
Q 2250 -91 1575 -91 
Q 1294 -91 989 -36 
Q 684 19 347 128 
L 347 722 
Q 666 556 975 473 
Q 1284 391 1588 391 
Q 1994 391 2212 530 
Q 2431 669 2431 922 
Q 2431 1156 2273 1281 
Q 2116 1406 1581 1522 
L 1381 1569 
Q 847 1681 609 1914 
Q 372 2147 372 2553 
Q 372 3047 722 3315 
Q 1072 3584 1716 3584 
Q 2034 3584 2315 3537 
Q 2597 3491 2834 3397 
z
" transform="scale(0.015625)"/>
      </defs>
      <use xlink:href="#DejaVuSans-47"/>
      <use xlink:href="#DejaVuSans-65" x="77.490234"/>
      <use xlink:href="#DejaVuSans-6e" x="139.013672"/>
      <use xlink:href="#DejaVuSans-65" x="202.392578"/>
      <use xlink:href="#DejaVuSans-72" x="263.916016"/>
      <use xlink:href="#DejaVuSans-61" x="305.029297"/>
      <use xlink:href="#DejaVuSans-74" x="366.308594"/>
      <use xlink:href="#DejaVuSans-69" x="405.517578"/>
      <use xlink:href="#DejaVuSans-6f" x="433.300781"/>
      <use xlink:href="#DejaVuSans-6e" x="494.482422"/>
      <use xlink:href="#DejaVuSans-73" x="557.861328"/>
     </g>
    </g>
   </g>
   <g id="matplotlib.axis_2">
    <g id="ytick_1">
     <g id="line2d_19">
      <path d="M 57.6 281.84661 
L 414.72 281.84661 
" clip-path="url(#p20ab3ba6da)" style="fill: none; stroke: #b0b0b0; stroke-width: 0.8; stroke-linecap: square"/>
     </g>
     <g id="line2d_20">
      <defs>
       <path id="m0d73478635" d="M 0 0 
L -3.5 0 
" style="stroke: #000000; stroke-width: 0.8"/>
      </defs>
      <g>
       <use xlink:href="#m0d73478635" x="57.6" y="281.84661" style="stroke: #000000; stroke-width: 0.8"/>
      </g>
     </g>
     <g id="text_11">
      <!-- 0 -->
      <g transform="translate(44.2375 285.645828)scale(0.1 -0.1)">
       <use xlink:href="#DejaVuSans-30"/>
      </g>
     </g>
    </g>
    <g id="ytick_2">
     <g id="line2d_21">
      <path d="M 57.6 250.830494 
L 414.72 250.830494 
" clip-path="url(#p20ab3ba6da)" style="fill: none; stroke: #b0b0b0; stroke-width: 0.8; stroke-linecap: square"/>
     </g>
     <g id="line2d_22">
      <g>
       <use xlink:href="#m0d73478635" x="57.6" y="250.830494" style="stroke: #000000; stroke-width: 0.8"/>
      </g>
     </g>
     <g id="text_12">
      <!-- 25 -->
      <g transform="translate(37.875 254.629713)scale(0.1 -0.1)">
       <use xlink:href="#DejaVuSans-32"/>
       <use xlink:href="#DejaVuSans-35" x="63.623047"/>
      </g>
     </g>
    </g>
    <g id="ytick_3">
     <g id="line2d_23">
      <path d="M 57.6 219.814379 
L 414.72 219.814379 
" clip-path="url(#p20ab3ba6da)" style="fill: none; stroke: #b0b0b0; stroke-width: 0.8; stroke-linecap: square"/>
     </g>
     <g id="line2d_24">
      <g>
       <use xlink:href="#m0d73478635" x="57.6" y="219.814379" style="stroke: #000000; stroke-width: 0.8"/>
      </g>
     </g>
     <g id="text_13">
      <!-- 50 -->
      <g transform="translate(37.875 223.613597)scale(0.1 -0.1)">
       <use xlink:href="#DejaVuSans-35"/>
       <use xlink:href="#DejaVuSans-30" x="63.623047"/>
      </g>
     </g>
    </g>
    <g id="ytick_4">
     <g id="line2d_25">
      <path d="M 57.6 188.798263 
L 414.72 188.798263 
" clip-path="url(#p20ab3ba6da)" style="fill: none; stroke: #b0b0b0; stroke-width: 0.8; stroke-linecap: square"/>
     </g>
     <g id="line2d_26">
      <g>
       <use xlink:href="#m0d73478635" x="57.6" y="188.798263" style="stroke: #000000; stroke-width: 0.8"/>
      </g>
     </g>
     <g id="text_14">
      <!-- 75 -->
      <g transform="translate(37.875 192.597482)scale(0.1 -0.1)">
       <use xlink:href="#DejaVuSans-37"/>
       <use xlink:href="#DejaVuSans-35" x="63.623047"/>
      </g>
     </g>
    </g>
    <g id="ytick_5">
     <g id="line2d_27">
      <path d="M 57.6 157.782148 
L 414.72 157.782148 
" clip-path="url(#p20ab3ba6da)" style="fill: none; stroke: #b0b0b0; stroke-width: 0.8; stroke-linecap: square"/>
     </g>
     <g id="line2d_28">
      <g>
       <use xlink:href="#m0d73478635" x="57.6" y="157.782148" style="stroke: #000000; stroke-width: 0.8"/>
      </g>
     </g>
     <g id="text_15">
      <!-- 100 -->
      <g transform="translate(31.5125 161.581367)scale(0.1 -0.1)">
       <use xlink:href="#DejaVuSans-31"/>
       <use xlink:href="#DejaVuSans-30" x="63.623047"/>
       <use xlink:href="#DejaVuSans-30" x="127.246094"/>
      </g>
     </g>
    </g>
    <g id="ytick_6">
     <g id="line2d_29">
      <path d="M 57.6 126.766032 
L 414.72 126.766032 
" clip-path="url(#p20ab3ba6da)" style="fill: none; stroke: #b0b0b0; stroke-width: 0.8; stroke-linecap: square"/>
     </g>
     <g id="line2d_30">
      <g>
       <use xlink:href="#m0d73478635" x="57.6" y="126.766032" style="stroke: #000000; stroke-width: 0.8"/>
      </g>
     </g>
     <g id="text_16">
      <!-- 125 -->
      <g transform="translate(31.5125 130.565251)scale(0.1 -0.1)">
       <use xlink:href="#DejaVuSans-31"/>
       <use xlink:href="#DejaVuSans-32" x="63.623047"/>
       <use xlink:href="#DejaVuSans-35" x="127.246094"/>
      </g>
     </g>
    </g>
    <g id="ytick_7">
     <g id="line2d_31">
      <path d="M 57.6 95.749917 
L 414.72 95.749917 
" clip-path="url(#p20ab3ba6da)" style="fill: none; stroke: #b0b0b0; stroke-width: 0.8; stroke-linecap: square"/>
     </g>
     <g id="line2d_32">
      <g>
       <use xlink:href="#m0d73478635" x="57.6" y="95.749917" style="stroke: #000000; stroke-width: 0.8"/>
      </g>
     </g>
     <g id="text_17">
      <!-- 150 -->
      <g transform="translate(31.5125 99.549136)scale(0.1 -0.1)">
       <use xlink:href="#DejaVuSans-31"/>
       <use xlink:href="#DejaVuSans-35" x="63.623047"/>
       <use xlink:href="#DejaVuSans-30" x="127.246094"/>
      </g>
     </g>
    </g>
    <g id="ytick_8">
     <g id="line2d_33">
      <path d="M 57.6 64.733802 
L 414.72 64.733802 
" clip-path="url(#p20ab3ba6da)" style="fill: none; stroke: #b0b0b0; stroke-width: 0.8; stroke-linecap: square"/>
     </g>
     <g id="line2d_34">
      <g>
       <use xlink:href="#m0d73478635" x="57.6" y="64.733802" style="stroke: #000000; stroke-width: 0.8"/>
      </g>
     </g>
     <g id="text_18">
      <!-- 175 -->
      <g transform="translate(31.5125 68.53302)scale(0.1 -0.1)">
       <use xlink:href="#DejaVuSans-31"/>
       <use xlink:href="#DejaVuSans-37" x="63.623047"/>
       <use xlink:href="#DejaVuSans-35" x="127.246094"/>
      </g>
     </g>
    </g>
    <g id="text_19">
     <!-- Fitness -->
     <g transform="translate(25.432812 191.845187)rotate(-90)scale(0.1 -0.1)">
      <defs>
       <path id="DejaVuSans-46" d="M 628 4666 
L 3309 4666 
L 3309 4134 
L 1259 4134 
L 1259 2759 
L 3109 2759 
L 3109 2228 
L 1259 2228 
L 1259 0 
L 628 0 
L 628 4666 
z
" transform="scale(0.015625)"/>
      </defs>
      <use xlink:href="#DejaVuSans-46"/>
      <use xlink:href="#DejaVuSans-69" x="50.269531"/>
      <use xlink:href="#DejaVuSans-74" x="78.052734"/>
      <use xlink:href="#DejaVuSans-6e" x="117.261719"/>
      <use xlink:href="#DejaVuSans-65" x="180.640625"/>
      <use xlink:href="#DejaVuSans-73" x="242.164062"/>
      <use xlink:href="#DejaVuSans-73" x="294.263672"/>
     </g>
    </g>
   </g>
   <g id="line2d_35">
    <path d="M 73.832727 259.515007 
L 75.464157 261.061677 
L 77.095587 262.88956 
L 78.727017 261.905315 
L 80.358447 261.202283 
L 81.989877 261.764709 
L 83.621307 261.483496 
L 85.252736 261.34289 
L 86.884166 262.186528 
L 88.515596 261.905315 
L 90.147026 262.045922 
L 91.778456 260.780464 
L 93.409886 261.764709 
L 95.041316 261.624102 
L 96.672746 262.103818 
L 98.304175 259.705239 
L 99.935605 255.743447 
L 101.567035 252.832067 
L 103.198465 242.145982 
L 104.829895 235.860049 
L 106.461325 238.002229 
L 108.092755 225.000273 
L 109.724185 226.034144 
L 111.355614 223.42879 
L 112.987044 233.50255 
L 114.618474 226.025928 
L 116.249904 209.268899 
L 117.881334 204.173986 
L 119.512764 199.699394 
L 121.144194 212.196821 
L 122.775624 217.945141 
L 124.407053 220.946779 
L 126.038483 216.508769 
L 127.669913 215.472123 
L 129.301343 203.61106 
L 130.932773 202.023535 
L 132.564203 209.123186 
L 134.195633 206.417082 
L 135.827063 215.678897 
L 137.458492 214.777855 
L 139.089922 220.647026 
L 140.721352 202.395728 
L 142.352782 208.632035 
L 143.984212 205.712385 
L 145.615642 218.408315 
L 147.247072 203.570972 
L 148.878502 210.079454 
L 150.509931 203.579188 
L 152.141361 221.270068 
L 153.772791 218.871489 
L 155.404221 205.855073 
L 157.035651 207.506527 
L 158.667081 210.686192 
L 160.298511 211.844675 
L 161.929941 214.446523 
L 163.56137 215.654084 
L 165.1928 209.930577 
L 166.82423 206.18383 
L 168.45566 224.512286 
L 170.08709 219.970486 
L 171.71852 224.527163 
L 173.34995 222.012568 
L 174.98138 218.407205 
L 176.61281 206.349249 
L 178.244239 212.154023 
L 179.875669 208.995958 
L 181.507099 199.15351 
L 183.138529 205.828178 
L 184.769959 194.587938 
L 186.401389 202.180683 
L 188.032819 212.941208 
L 189.664249 210.883381 
L 191.295678 195.46466 
L 192.927108 206.446638 
L 194.558538 196.40866 
L 196.189968 202.437083 
L 197.821398 194.058596 
L 199.452828 205.654488 
L 201.084258 204.480011 
L 202.715688 196.973372 
L 204.347117 209.716682 
L 205.978547 200.670657 
L 207.609977 200.525708 
L 209.241407 204.507618 
L 210.872837 195.502674 
L 212.504267 192.898142 
L 214.135697 203.00778 
L 215.767127 203.603837 
L 217.398556 206.895133 
L 220.661416 207.647791 
L 222.292846 200.347083 
L 223.924276 193.975887 
L 225.555706 194.639974 
L 227.187136 201.163629 
L 228.818566 195.522557 
L 230.449995 208.375635 
L 232.081425 205.1074 
L 233.712855 198.370124 
L 235.344285 207.325223 
L 236.975715 210.774215 
L 238.607145 205.083792 
L 240.238575 198.46702 
L 241.870005 197.706092 
L 243.501434 196.275215 
L 245.132864 194.689271 
L 246.764294 185.800733 
L 248.395724 187.171458 
L 250.027154 184.522175 
L 251.658584 190.237411 
L 253.290014 182.272473 
L 254.921444 171.817974 
L 256.552873 181.668692 
L 258.184303 180.593467 
L 259.815733 179.220487 
L 261.447163 191.221656 
L 263.078593 184.497362 
L 266.341453 180.039312 
L 267.972883 186.316974 
L 269.604312 186.447568 
L 271.235742 179.158781 
L 272.867172 169.695623 
L 274.498602 174.489495 
L 276.130032 182.24996 
L 277.761462 174.630102 
L 279.392892 187.731309 
L 281.024322 178.026839 
L 282.655751 186.667946 
L 284.287181 182.784013 
L 285.918611 183.794604 
L 287.550041 171.782535 
L 289.181471 176.441443 
L 290.812901 175.018837 
L 292.444331 194.763217 
L 294.075761 182.911446 
L 295.70719 175.092887 
L 297.33862 180.485944 
L 298.97005 178.914187 
L 300.60148 173.67067 
L 302.23291 180.496769 
L 303.86434 193.504442 
L 305.49577 194.885693 
L 307.1272 190.642688 
L 308.75863 194.199203 
L 310.390059 179.07988 
L 312.021489 168.046414 
L 313.652919 171.412806 
L 315.284349 181.436557 
L 316.915779 169.827082 
L 318.547209 192.64344 
L 320.178639 165.742257 
L 321.810069 162.71142 
L 323.441498 167.449184 
L 325.072928 177.27681 
L 326.704358 182.239389 
L 328.335788 176.75574 
L 329.967218 188.398593 
L 331.598648 177.003868 
L 333.230078 169.328414 
L 334.861508 170.056259 
L 336.492937 180.270899 
L 338.124367 177.715171 
L 339.755797 177.078307 
L 341.387227 176.697843 
L 343.018657 175.763224 
L 344.650087 181.313315 
L 346.281517 174.257908 
L 347.912947 170.320929 
L 349.544376 172.65323 
L 351.175806 163.860474 
L 352.807236 175.324863 
L 354.438666 168.741175 
L 356.070096 173.959825 
L 357.701526 174.173446 
L 359.332956 172.305961 
L 360.964386 173.532583 
L 362.595815 171.256699 
L 364.227245 175.548179 
L 365.858675 185.859018 
L 367.490105 180.188689 
L 369.121535 179.45596 
L 370.752965 172.470048 
L 372.384395 173.968041 
L 374.015825 180.767157 
L 375.647254 183.256717 
L 377.278684 175.151173 
L 378.910114 169.816401 
L 380.541544 183.645453 
L 382.172974 183.490605 
L 383.804404 172.893199 
L 385.435834 168.335898 
L 387.067264 173.422541 
L 388.698693 170.895186 
L 390.330123 164.831638 
L 391.961553 172.140542 
L 393.592983 174.781444 
L 395.224413 168.405681 
L 396.855843 157.182366 
L 398.487273 173.984474 
L 398.487273 173.984474 
" clip-path="url(#p20ab3ba6da)" style="fill: none; stroke: #0000ff; stroke-width: 1.5; stroke-linecap: square"/>
   </g>
   <g id="line2d_36">
    <path d="M 73.832727 259.515007 
L 75.464157 266.559728 
L 77.095587 270.621633 
L 78.727017 268.591145 
L 80.358447 266.924117 
L 81.989877 268.275255 
L 83.621307 267.618834 
L 85.252736 267.276746 
L 86.884166 269.201364 
L 88.515596 268.591145 
L 90.147026 268.899672 
L 91.778456 265.789289 
L 93.409886 268.275255 
L 95.041316 267.95139 
L 96.672746 271.938551 
L 98.304175 277.965761 
L 99.935605 286.79325 
L 101.567035 290.553591 
L 103.198465 294.771937 
L 104.829895 292.562017 
L 106.461325 293.201263 
L 108.092755 286.859245 
L 109.724185 289.365373 
L 111.355614 288.001601 
L 112.987044 295.488 
L 114.618474 286.216052 
L 116.249904 275.494342 
L 117.881334 272.18544 
L 119.512764 266.985594 
L 121.144194 280.162262 
L 122.775624 285.914012 
L 124.407053 284.700021 
L 126.038483 282.893369 
L 127.669913 281.824653 
L 129.301343 272.060356 
L 130.932773 273.034783 
L 132.564203 280.26565 
L 134.195633 275.549306 
L 135.827063 282.548862 
L 137.458492 282.443675 
L 139.089922 286.541326 
L 140.721352 270.811684 
L 142.352782 280.282169 
L 143.984212 272.871098 
L 145.615642 288.911238 
L 147.247072 273.456724 
L 148.878502 278.346742 
L 150.509931 274.999805 
L 152.141361 289.504432 
L 153.772791 284.522682 
L 155.404221 274.741833 
L 157.035651 279.605508 
L 158.667081 282.419744 
L 160.298511 280.835414 
L 161.929941 281.455039 
L 163.56137 284.669935 
L 165.1928 278.4322 
L 166.82423 276.340425 
L 168.45566 290.864792 
L 170.08709 288.376594 
L 171.71852 291.791267 
L 173.34995 286.864046 
L 174.98138 286.67598 
L 176.61281 277.616464 
L 178.244239 282.102785 
L 179.875669 280.415307 
L 181.507099 271.373377 
L 183.138529 279.35029 
L 184.769959 266.190033 
L 186.401389 272.688979 
L 188.032819 278.600676 
L 189.664249 278.625051 
L 191.295678 266.417609 
L 192.927108 273.950163 
L 194.558538 266.482387 
L 196.189968 273.303778 
L 197.821398 263.378209 
L 199.452828 276.422752 
L 201.084258 275.661633 
L 202.715688 266.59578 
L 204.347117 281.983923 
L 205.978547 271.028728 
L 207.609977 269.745711 
L 209.241407 274.145927 
L 210.872837 269.005142 
L 212.504267 264.776865 
L 214.135697 275.933708 
L 215.767127 275.11741 
L 217.398556 280.381267 
L 219.029986 277.676192 
L 220.661416 279.723114 
L 222.292846 271.039923 
L 223.924276 269.949104 
L 225.555706 265.148569 
L 227.187136 272.924468 
L 228.818566 265.986988 
L 230.449995 279.300713 
L 232.081425 276.131208 
L 233.712855 269.75954 
L 235.344285 279.075062 
L 236.975715 280.926766 
L 238.607145 275.275088 
L 240.238575 270.416607 
L 241.870005 270.222885 
L 243.501434 268.367798 
L 245.132864 263.205696 
L 246.764294 256.282132 
L 248.395724 256.160387 
L 250.027154 253.074429 
L 251.658584 260.115714 
L 253.290014 251.194635 
L 254.921444 241.307827 
L 256.552873 252.442031 
L 258.184303 252.623658 
L 259.815733 252.245904 
L 261.447163 266.862506 
L 263.078593 256.417473 
L 264.710023 254.377352 
L 266.341453 253.029045 
L 267.972883 261.775011 
L 269.604312 262.756125 
L 271.235742 251.331085 
L 272.867172 243.699224 
L 274.498602 247.862504 
L 276.130032 255.748542 
L 277.761462 249.078327 
L 279.392892 265.604537 
L 281.024322 252.354017 
L 282.655751 264.512889 
L 284.287181 256.818554 
L 285.918611 261.328128 
L 287.550041 244.003262 
L 289.181471 248.005725 
L 290.812901 250.732611 
L 292.444331 272.591895 
L 294.075761 258.514106 
L 295.70719 246.449168 
L 297.33862 253.659405 
L 298.97005 252.545687 
L 300.60148 244.621615 
L 302.23291 255.347286 
L 303.86434 268.691777 
L 305.49577 270.505921 
L 307.1272 267.202523 
L 308.75863 265.68763 
L 312.021489 237.482608 
L 313.652919 244.502763 
L 315.284349 256.118266 
L 316.915779 241.256925 
L 318.547209 267.00207 
L 320.178639 237.567175 
L 321.810069 232.037621 
L 323.441498 238.555871 
L 326.704358 257.645865 
L 328.335788 247.481558 
L 329.967218 262.163141 
L 331.598648 250.268563 
L 333.230078 241.841652 
L 334.861508 242.533856 
L 336.492937 252.409065 
L 338.124367 251.073215 
L 339.755797 248.108585 
L 341.387227 250.237403 
L 343.018657 247.909988 
L 344.650087 255.551715 
L 346.281517 248.309202 
L 347.912947 239.790551 
L 349.544376 245.169905 
L 351.175806 231.410661 
L 352.807236 250.404951 
L 354.438666 241.338205 
L 356.070096 248.160246 
L 357.701526 249.500146 
L 359.332956 248.726386 
L 360.964386 246.314935 
L 362.595815 246.268581 
L 364.227245 250.539691 
L 365.858675 260.193034 
L 367.490105 257.416285 
L 369.121535 256.570353 
L 370.752965 250.465484 
L 372.384395 251.313455 
L 374.015825 257.490195 
L 375.647254 258.351378 
L 377.278684 251.879795 
L 378.910114 244.093308 
L 380.541544 260.652846 
L 382.172974 263.027332 
L 383.804404 248.494255 
L 385.435834 242.038786 
L 387.067264 249.593526 
L 388.698693 248.553388 
L 390.330123 237.038673 
L 391.961553 246.299043 
L 393.592983 248.21976 
L 395.224413 244.29605 
L 396.855843 228.052795 
L 398.487273 251.07338 
L 398.487273 251.07338 
" clip-path="url(#p20ab3ba6da)" style="fill: none; stroke-dasharray: 9.6,2.4,1.5,2.4; stroke-dashoffset: 0; stroke: #008000; stroke-width: 1.5"/>
   </g>
   <g id="line2d_37">
    <path d="M 73.832727 259.515007 
L 75.464157 255.563625 
L 77.095587 255.157487 
L 78.727017 255.219485 
L 80.358447 255.48045 
L 81.989877 255.254162 
L 85.252736 255.409033 
L 86.884166 255.171692 
L 90.147026 255.192171 
L 91.778456 255.771639 
L 93.409886 255.254162 
L 95.041316 255.296815 
L 96.672746 252.269085 
L 98.304175 241.444716 
L 99.935605 224.693644 
L 101.567035 215.110544 
L 103.198465 189.520027 
L 104.829895 179.158081 
L 106.461325 182.803194 
L 108.092755 163.141301 
L 109.724185 162.702914 
L 111.355614 158.855979 
L 112.987044 171.517101 
L 114.618474 165.835805 
L 116.249904 143.043457 
L 117.881334 136.162532 
L 119.512764 132.413194 
L 121.144194 144.23138 
L 122.775624 149.97627 
L 124.407053 157.193537 
L 126.038483 150.124168 
L 127.669913 149.119592 
L 129.301343 135.161765 
L 130.932773 131.012287 
L 132.564203 137.980723 
L 134.195633 137.284859 
L 135.827063 148.808932 
L 137.458492 147.112034 
L 139.089922 154.752726 
L 140.721352 133.979773 
L 142.352782 136.981901 
L 143.984212 138.553671 
L 145.615642 147.905392 
L 147.247072 133.68522 
L 148.878502 141.812166 
L 150.509931 132.158572 
L 152.141361 153.035705 
L 153.772791 153.220296 
L 155.404221 136.968312 
L 157.035651 135.407546 
L 158.667081 138.952641 
L 160.298511 142.853936 
L 161.929941 147.438007 
L 163.56137 146.638233 
L 166.82423 136.027234 
L 168.45566 158.159781 
L 170.08709 151.564378 
L 171.71852 157.263059 
L 173.34995 157.16109 
L 174.98138 150.138429 
L 176.61281 135.082034 
L 178.244239 142.20526 
L 179.875669 137.576608 
L 181.507099 126.933644 
L 183.138529 132.306067 
L 184.769959 122.985843 
L 186.401389 131.672387 
L 188.032819 147.281739 
L 189.664249 143.141711 
L 191.295678 124.511712 
L 192.927108 138.943113 
L 194.558538 126.334934 
L 196.189968 131.570389 
L 197.821398 124.738984 
L 199.452828 134.886225 
L 201.084258 133.298389 
L 202.715688 127.350963 
L 204.347117 137.44944 
L 205.978547 130.312587 
L 207.609977 131.305705 
L 209.241407 134.869309 
L 210.872837 122.000206 
L 212.504267 121.019418 
L 214.135697 130.081851 
L 215.767127 132.090264 
L 217.398556 133.408999 
L 219.029986 136.976431 
L 220.661416 135.572467 
L 222.292846 129.654242 
L 223.924276 118.00267 
L 225.555706 124.131379 
L 227.187136 129.402789 
L 228.818566 125.058127 
L 230.449995 137.450557 
L 232.081425 134.083591 
L 233.712855 126.980708 
L 235.344285 135.575384 
L 236.975715 140.621664 
L 238.607145 134.892495 
L 240.238575 126.517434 
L 241.870005 125.189298 
L 243.501434 124.182632 
L 245.132864 126.172847 
L 246.764294 115.319334 
L 248.395724 118.182529 
L 250.027154 115.969921 
L 251.658584 120.359108 
L 253.290014 113.35031 
L 254.921444 102.328121 
L 256.552873 110.895354 
L 259.815733 106.19507 
L 261.447163 115.580806 
L 263.078593 112.577251 
L 264.710023 110.329793 
L 266.341453 107.04958 
L 267.972883 110.858938 
L 269.604312 110.139012 
L 271.235742 106.986477 
L 272.867172 95.692021 
L 274.498602 101.116487 
L 276.130032 108.751378 
L 277.761462 100.181877 
L 279.392892 109.85808 
L 281.024322 103.699661 
L 282.655751 108.823003 
L 284.287181 108.749471 
L 285.918611 106.26108 
L 287.550041 99.561807 
L 289.181471 104.877161 
L 290.812901 99.305064 
L 292.444331 116.934539 
L 294.075761 107.308787 
L 295.70719 103.736607 
L 297.33862 107.312484 
L 298.97005 105.282688 
L 300.60148 102.719724 
L 302.23291 105.646252 
L 303.86434 118.317107 
L 305.49577 119.265464 
L 307.1272 114.082854 
L 308.75863 122.710776 
L 310.390059 106.767515 
L 312.021489 98.61022 
L 313.652919 98.32285 
L 315.284349 106.754849 
L 316.915779 98.397239 
L 318.547209 118.28481 
L 320.178639 93.917339 
L 321.810069 93.385219 
L 323.441498 96.342497 
L 325.072928 106.574675 
L 326.704358 106.832913 
L 328.335788 106.029921 
L 329.967218 114.634045 
L 331.598648 103.739173 
L 333.230078 96.815176 
L 334.861508 97.578661 
L 336.492937 108.132733 
L 338.124367 104.357128 
L 339.755797 106.04803 
L 341.387227 103.158282 
L 343.018657 103.61646 
L 344.650087 107.074914 
L 346.281517 100.206615 
L 347.912947 100.851308 
L 349.544376 100.136555 
L 351.175806 96.310286 
L 352.807236 100.244775 
L 354.438666 96.144145 
L 356.070096 99.759404 
L 357.701526 98.846746 
L 359.332956 95.885536 
L 360.964386 100.750232 
L 362.595815 96.244816 
L 364.227245 100.556667 
L 365.858675 111.525002 
L 367.490105 102.961094 
L 369.121535 102.341566 
L 370.752965 94.474612 
L 372.384395 96.622628 
L 374.015825 104.044119 
L 375.647254 108.162057 
L 377.278684 98.42255 
L 378.910114 95.539493 
L 380.541544 106.638059 
L 382.172974 103.953877 
L 383.804404 97.292144 
L 385.435834 94.633011 
L 387.067264 97.251556 
L 388.698693 93.236985 
L 390.330123 92.624604 
L 391.961553 97.98204 
L 393.592983 101.343128 
L 395.224413 92.515312 
L 396.855843 86.311937 
L 398.487273 96.895568 
L 398.487273 96.895568 
" clip-path="url(#p20ab3ba6da)" style="fill: none; stroke-dasharray: 9.6,2.4,1.5,2.4; stroke-dashoffset: 0; stroke: #008000; stroke-width: 1.5"/>
   </g>
   <g id="line2d_38">
    <path d="M 73.832727 259.515007 
L 95.041316 259.515007 
L 96.672746 183.835685 
L 98.304175 124.284743 
L 109.724185 124.284743 
L 111.355614 119.322165 
L 114.618474 119.322165 
L 116.249904 94.509272 
L 157.035651 94.509272 
L 158.667081 68.455735 
L 161.929941 68.455735 
L 163.56137 54.808645 
L 183.138529 54.808645 
L 184.769959 62.252512 
L 186.401389 61.011868 
L 189.664249 61.011868 
L 191.295678 53.568 
L 235.344285 53.568 
L 236.975715 77.140248 
L 248.395724 77.140248 
L 250.027154 61.011868 
L 251.658584 77.140248 
L 253.290014 61.011868 
L 263.078593 61.011868 
L 264.710023 54.808645 
L 281.024322 54.808645 
L 282.655751 53.568 
L 310.390059 53.568 
L 312.021489 94.509272 
L 347.912947 94.509272 
L 349.544376 78.380892 
L 351.175806 68.455735 
L 352.807236 53.568 
L 398.487273 53.568 
L 398.487273 53.568 
" clip-path="url(#p20ab3ba6da)" style="fill: none; stroke: #ff0000; stroke-width: 1.5; stroke-linecap: square"/>
   </g>
   <g id="patch_3">
    <path d="M 57.6 307.584 
L 57.6 41.472 
" style="fill: none; stroke: #000000; stroke-width: 0.8; stroke-linejoin: miter; stroke-linecap: square"/>
   </g>
   <g id="patch_4">
    <path d="M 414.72 307.584 
L 414.72 41.472 
" style="fill: none; stroke: #000000; stroke-width: 0.8; stroke-linejoin: miter; stroke-linecap: square"/>
   </g>
   <g id="patch_5">
    <path d="M 57.6 307.584 
L 414.72 307.584 
" style="fill: none; stroke: #000000; stroke-width: 0.8; stroke-linejoin: miter; stroke-linecap: square"/>
   </g>
   <g id="patch_6">
    <path d="M 57.6 41.472 
L 414.72 41.472 
" style="fill: none; stroke: #000000; stroke-width: 0.8; stroke-linejoin: miter; stroke-linecap: square"/>
   </g>
   <g id="text_20">
    <!-- Population's average and best fitness -->
    <g transform="translate(123.529687 35.472)scale(0.12 -0.12)">
     <defs>
      <path id="DejaVuSans-50" d="M 1259 4147 
L 1259 2394 
L 2053 2394 
Q 2494 2394 2734 2622 
Q 2975 2850 2975 3272 
Q 2975 3691 2734 3919 
Q 2494 4147 2053 4147 
L 1259 4147 
z
M 628 4666 
L 2053 4666 
Q 2838 4666 3239 4311 
Q 3641 3956 3641 3272 
Q 3641 2581 3239 2228 
Q 2838 1875 2053 1875 
L 1259 1875 
L 1259 0 
L 628 0 
L 628 4666 
z
" transform="scale(0.015625)"/>
      <path id="DejaVuSans-70" d="M 1159 525 
L 1159 -1331 
L 581 -1331 
L 581 3500 
L 1159 3500 
L 1159 2969 
Q 1341 3281 1617 3432 
Q 1894 3584 2278 3584 
Q 2916 3584 3314 3078 
Q 3713 2572 3713 1747 
Q 3713 922 3314 415 
Q 2916 -91 2278 -91 
Q 1894 -91 1617 61 
Q 1341 213 1159 525 
z
M 3116 1747 
Q 3116 2381 2855 2742 
Q 2594 3103 2138 3103 
Q 1681 3103 1420 2742 
Q 1159 2381 1159 1747 
Q 1159 1113 1420 752 
Q 1681 391 2138 391 
Q 2594 391 2855 752 
Q 3116 1113 3116 1747 
z
" transform="scale(0.015625)"/>
      <path id="DejaVuSans-75" d="M 544 1381 
L 544 3500 
L 1119 3500 
L 1119 1403 
Q 1119 906 1312 657 
Q 1506 409 1894 409 
Q 2359 409 2629 706 
Q 2900 1003 2900 1516 
L 2900 3500 
L 3475 3500 
L 3475 0 
L 2900 0 
L 2900 538 
Q 2691 219 2414 64 
Q 2138 -91 1772 -91 
Q 1169 -91 856 284 
Q 544 659 544 1381 
z
M 1991 3584 
L 1991 3584 
z
" transform="scale(0.015625)"/>
      <path id="DejaVuSans-6c" d="M 603 4863 
L 1178 4863 
L 1178 0 
L 603 0 
L 603 4863 
z
" transform="scale(0.015625)"/>
      <path id="DejaVuSans-27" d="M 1147 4666 
L 1147 2931 
L 616 2931 
L 616 4666 
L 1147 4666 
z
" transform="scale(0.015625)"/>
      <path id="DejaVuSans-20" transform="scale(0.015625)"/>
      <path id="DejaVuSans-76" d="M 191 3500 
L 800 3500 
L 1894 563 
L 2988 3500 
L 3597 3500 
L 2284 0 
L 1503 0 
L 191 3500 
z
" transform="scale(0.015625)"/>
      <path id="DejaVuSans-67" d="M 2906 1791 
Q 2906 2416 2648 2759 
Q 2391 3103 1925 3103 
Q 1463 3103 1205 2759 
Q 947 2416 947 1791 
Q 947 1169 1205 825 
Q 1463 481 1925 481 
Q 2391 481 2648 825 
Q 2906 1169 2906 1791 
z
M 3481 434 
Q 3481 -459 3084 -895 
Q 2688 -1331 1869 -1331 
Q 1566 -1331 1297 -1286 
Q 1028 -1241 775 -1147 
L 775 -588 
Q 1028 -725 1275 -790 
Q 1522 -856 1778 -856 
Q 2344 -856 2625 -561 
Q 2906 -266 2906 331 
L 2906 616 
Q 2728 306 2450 153 
Q 2172 0 1784 0 
Q 1141 0 747 490 
Q 353 981 353 1791 
Q 353 2603 747 3093 
Q 1141 3584 1784 3584 
Q 2172 3584 2450 3431 
Q 2728 3278 2906 2969 
L 2906 3500 
L 3481 3500 
L 3481 434 
z
" transform="scale(0.015625)"/>
      <path id="DejaVuSans-64" d="M 2906 2969 
L 2906 4863 
L 3481 4863 
L 3481 0 
L 2906 0 
L 2906 525 
Q 2725 213 2448 61 
Q 2172 -91 1784 -91 
Q 1150 -91 751 415 
Q 353 922 353 1747 
Q 353 2572 751 3078 
Q 1150 3584 1784 3584 
Q 2172 3584 2448 3432 
Q 2725 3281 2906 2969 
z
M 947 1747 
Q 947 1113 1208 752 
Q 1469 391 1925 391 
Q 2381 391 2643 752 
Q 2906 1113 2906 1747 
Q 2906 2381 2643 2742 
Q 2381 3103 1925 3103 
Q 1469 3103 1208 2742 
Q 947 2381 947 1747 
z
" transform="scale(0.015625)"/>
      <path id="DejaVuSans-62" d="M 3116 1747 
Q 3116 2381 2855 2742 
Q 2594 3103 2138 3103 
Q 1681 3103 1420 2742 
Q 1159 2381 1159 1747 
Q 1159 1113 1420 752 
Q 1681 391 2138 391 
Q 2594 391 2855 752 
Q 3116 1113 3116 1747 
z
M 1159 2969 
Q 1341 3281 1617 3432 
Q 1894 3584 2278 3584 
Q 2916 3584 3314 3078 
Q 3713 2572 3713 1747 
Q 3713 922 3314 415 
Q 2916 -91 2278 -91 
Q 1894 -91 1617 61 
Q 1341 213 1159 525 
L 1159 0 
L 581 0 
L 581 4863 
L 1159 4863 
L 1159 2969 
z
" transform="scale(0.015625)"/>
      <path id="DejaVuSans-66" d="M 2375 4863 
L 2375 4384 
L 1825 4384 
Q 1516 4384 1395 4259 
Q 1275 4134 1275 3809 
L 1275 3500 
L 2222 3500 
L 2222 3053 
L 1275 3053 
L 1275 0 
L 697 0 
L 697 3053 
L 147 3053 
L 147 3500 
L 697 3500 
L 697 3744 
Q 697 4328 969 4595 
Q 1241 4863 1831 4863 
L 2375 4863 
z
" transform="scale(0.015625)"/>
     </defs>
     <use xlink:href="#DejaVuSans-50"/>
     <use xlink:href="#DejaVuSans-6f" x="56.677734"/>
     <use xlink:href="#DejaVuSans-70" x="117.859375"/>
     <use xlink:href="#DejaVuSans-75" x="181.335938"/>
     <use xlink:href="#DejaVuSans-6c" x="244.714844"/>
     <use xlink:href="#DejaVuSans-61" x="272.498047"/>
     <use xlink:href="#DejaVuSans-74" x="333.777344"/>
     <use xlink:href="#DejaVuSans-69" x="372.986328"/>
     <use xlink:href="#DejaVuSans-6f" x="400.769531"/>
     <use xlink:href="#DejaVuSans-6e" x="461.951172"/>
     <use xlink:href="#DejaVuSans-27" x="525.330078"/>
     <use xlink:href="#DejaVuSans-73" x="552.820312"/>
     <use xlink:href="#DejaVuSans-20" x="604.919922"/>
     <use xlink:href="#DejaVuSans-61" x="636.707031"/>
     <use xlink:href="#DejaVuSans-76" x="697.986328"/>
     <use xlink:href="#DejaVuSans-65" x="757.166016"/>
     <use xlink:href="#DejaVuSans-72" x="818.689453"/>
     <use xlink:href="#DejaVuSans-61" x="859.802734"/>
     <use xlink:href="#DejaVuSans-67" x="921.082031"/>
     <use xlink:href="#DejaVuSans-65" x="984.558594"/>
     <use xlink:href="#DejaVuSans-20" x="1046.082031"/>
     <use xlink:href="#DejaVuSans-61" x="1077.869141"/>
     <use xlink:href="#DejaVuSans-6e" x="1139.148438"/>
     <use xlink:href="#DejaVuSans-64" x="1202.527344"/>
     <use xlink:href="#DejaVuSans-20" x="1266.003906"/>
     <use xlink:href="#DejaVuSans-62" x="1297.791016"/>
     <use xlink:href="#DejaVuSans-65" x="1361.267578"/>
     <use xlink:href="#DejaVuSans-73" x="1422.791016"/>
     <use xlink:href="#DejaVuSans-74" x="1474.890625"/>
     <use xlink:href="#DejaVuSans-20" x="1514.099609"/>
     <use xlink:href="#DejaVuSans-66" x="1545.886719"/>
     <use xlink:href="#DejaVuSans-69" x="1581.091797"/>
     <use xlink:href="#DejaVuSans-74" x="1608.875"/>
     <use xlink:href="#DejaVuSans-6e" x="1648.083984"/>
     <use xlink:href="#DejaVuSans-65" x="1711.462891"/>
     <use xlink:href="#DejaVuSans-73" x="1772.986328"/>
     <use xlink:href="#DejaVuSans-73" x="1825.085938"/>
    </g>
   </g>
   <g id="legend_1">
    <g id="patch_7">
     <path d="M 64.6 108.1845 
L 137.540625 108.1845 
Q 139.540625 108.1845 139.540625 106.1845 
L 139.540625 48.472 
Q 139.540625 46.472 137.540625 46.472 
L 64.6 46.472 
Q 62.6 46.472 62.6 48.472 
L 62.6 106.1845 
Q 62.6 108.1845 64.6 108.1845 
z
" style="fill: #ffffff; opacity: 0.8; stroke: #cccccc; stroke-linejoin: miter"/>
    </g>
    <g id="line2d_39">
     <path d="M 66.6 54.570438 
L 76.6 54.570438 
L 86.6 54.570438 
" style="fill: none; stroke: #0000ff; stroke-width: 1.5; stroke-linecap: square"/>
    </g>
    <g id="text_21">
     <!-- average -->
     <g transform="translate(94.6 58.070438)scale(0.1 -0.1)">
      <use xlink:href="#DejaVuSans-61"/>
      <use xlink:href="#DejaVuSans-76" x="61.279297"/>
      <use xlink:href="#DejaVuSans-65" x="120.458984"/>
      <use xlink:href="#DejaVuSans-72" x="181.982422"/>
      <use xlink:href="#DejaVuSans-61" x="223.095703"/>
      <use xlink:href="#DejaVuSans-67" x="284.375"/>
      <use xlink:href="#DejaVuSans-65" x="347.851562"/>
     </g>
    </g>
    <g id="line2d_40">
     <path d="M 66.6 69.248563 
L 76.6 69.248563 
L 86.6 69.248563 
" style="fill: none; stroke-dasharray: 9.6,2.4,1.5,2.4; stroke-dashoffset: 0; stroke: #008000; stroke-width: 1.5"/>
    </g>
    <g id="text_22">
     <!-- -1 sd -->
     <g transform="translate(94.6 72.748563)scale(0.1 -0.1)">
      <defs>
       <path id="DejaVuSans-2d" d="M 313 2009 
L 1997 2009 
L 1997 1497 
L 313 1497 
L 313 2009 
z
" transform="scale(0.015625)"/>
      </defs>
      <use xlink:href="#DejaVuSans-2d"/>
      <use xlink:href="#DejaVuSans-31" x="36.083984"/>
      <use xlink:href="#DejaVuSans-20" x="99.707031"/>
      <use xlink:href="#DejaVuSans-73" x="131.494141"/>
      <use xlink:href="#DejaVuSans-64" x="183.59375"/>
     </g>
    </g>
    <g id="line2d_41">
     <path d="M 66.6 83.926688 
L 76.6 83.926688 
L 86.6 83.926688 
" style="fill: none; stroke-dasharray: 9.6,2.4,1.5,2.4; stroke-dashoffset: 0; stroke: #008000; stroke-width: 1.5"/>
    </g>
    <g id="text_23">
     <!-- +1 sd -->
     <g transform="translate(94.6 87.426688)scale(0.1 -0.1)">
      <defs>
       <path id="DejaVuSans-2b" d="M 2944 4013 
L 2944 2272 
L 4684 2272 
L 4684 1741 
L 2944 1741 
L 2944 0 
L 2419 0 
L 2419 1741 
L 678 1741 
L 678 2272 
L 2419 2272 
L 2419 4013 
L 2944 4013 
z
" transform="scale(0.015625)"/>
      </defs>
      <use xlink:href="#DejaVuSans-2b"/>
      <use xlink:href="#DejaVuSans-31" x="83.789062"/>
      <use xlink:href="#DejaVuSans-20" x="147.412109"/>
      <use xlink:href="#DejaVuSans-73" x="179.199219"/>
      <use xlink:href="#DejaVuSans-64" x="231.298828"/>
     </g>
    </g>
    <g id="line2d_42">
     <path d="M 66.6 98.604813 
L 76.6 98.604813 
L 86.6 98.604813 
" style="fill: none; stroke: #ff0000; stroke-width: 1.5; stroke-linecap: square"/>
    </g>
    <g id="text_24">
     <!-- best -->
     <g transform="translate(94.6 102.104813)scale(0.1 -0.1)">
      <use xlink:href="#DejaVuSans-62"/>
      <use xlink:href="#DejaVuSans-65" x="63.476562"/>
      <use xlink:href="#DejaVuSans-73" x="125"/>
      <use xlink:href="#DejaVuSans-74" x="177.099609"/>
     </g>
    </g>
   </g>
  </g>
 </g>
 <defs>
  <clipPath id="p20ab3ba6da">
   <rect x="57.6" y="41.472" width="357.12" height="266.112"/>
  </clipPath>
 </defs>
</svg>
