<?xml version="1.0" encoding="UTF-8" standalone="no"?>
<!DOCTYPE svg PUBLIC "-//W3C//DTD SVG 1.1//EN"
 "http://www.w3.org/Graphics/SVG/1.1/DTD/svg11.dtd">
<!-- Generated by graphviz version 4.0.0 (20220529.0937)
 -->
<!-- Pages: 1 -->
<svg width="948pt" height="229pt"
 viewBox="0.00 0.00 948.24 229.26" xmlns="http://www.w3.org/2000/svg" xmlns:xlink="http://www.w3.org/1999/xlink">
<g id="graph0" class="graph" transform="scale(1 1) rotate(0) translate(4 225.26)">
<polygon fill="white" stroke="transparent" points="-4,4 -4,-225.26 944.24,-225.26 944.24,4 -4,4"/>
<!-- PACMAN CORR -->
<g id="node1" class="node">
<title>PACMAN CORR</title>
<ellipse fill="lightcoral" stroke="black" cx="59.4" cy="-160.45" rx="59.29" ry="59.29"/>
<text text-anchor="middle" x="59.4" y="-158.25" font-family="Times New Roman,serif" font-size="9.00">PACMAN CORR</text>
</g>
<!-- UP -->
<g id="node9" class="node">
<title>UP</title>
<ellipse fill="lightblue" stroke="black" cx="278.4" cy="-31.82" rx="20.51" ry="20.51"/>
<text text-anchor="middle" x="278.4" y="-29.62" font-family="Times New Roman,serif" font-size="9.00">UP</text>
</g>
<!-- PACMAN CORR&#45;&gt;UP -->
<g id="edge1" class="edge">
<title>PACMAN CORR&#45;&gt;UP</title>
<path fill="none" stroke="red" stroke-width="0.22" d="M101.72,-118.76C109.9,-111.91 118.66,-105.23 127.4,-99.64 171.35,-71.53 229.13,-49.61 258.86,-39.29"/>
</g>
<!-- DOWN -->
<g id="node10" class="node">
<title>DOWN</title>
<ellipse fill="lightblue" stroke="black" cx="348.4" cy="-31.82" rx="31.64" ry="31.64"/>
<text text-anchor="middle" x="348.4" y="-29.62" font-family="Times New Roman,serif" font-size="9.00">DOWN</text>
</g>
<!-- PACMAN CORR&#45;&gt;DOWN -->
<g id="edge2" class="edge">
<title>PACMAN CORR&#45;&gt;DOWN</title>
<path fill="none" stroke="green" stroke-width="0.14" d="M100.42,-117.42C108.79,-110.63 117.95,-104.31 127.4,-99.64 200.93,-63.31 233.72,-97.56 308.4,-63.64 314.14,-61.03 319.82,-57.45 325.02,-53.65"/>
</g>
<!-- ND CORR -->
<g id="node2" class="node">
<title>ND CORR</title>
<ellipse fill="lightcoral" stroke="black" cx="664.4" cy="-160.45" rx="40.11" ry="40.11"/>
<text text-anchor="middle" x="664.4" y="-158.25" font-family="Times New Roman,serif" font-size="9.00">ND CORR</text>
</g>
<!-- ND CORR&#45;&gt;DOWN -->
<g id="edge3" class="edge">
<title>ND CORR&#45;&gt;DOWN</title>
<path fill="none" stroke="green" stroke-width="0.31" d="M643.17,-126.02C635.49,-116.25 626.06,-106.39 615.4,-99.64 595.37,-86.95 445.87,-53.76 379.72,-39.5"/>
</g>
<!-- RIGHT -->
<g id="node11" class="node">
<title>RIGHT</title>
<ellipse fill="lightblue" stroke="black" cx="545.4" cy="-31.82" rx="31.64" ry="31.64"/>
<text text-anchor="middle" x="545.4" y="-29.62" font-family="Times New Roman,serif" font-size="9.00">RIGHT</text>
</g>
<!-- ND CORR&#45;&gt;RIGHT -->
<g id="edge4" class="edge">
<title>ND CORR&#45;&gt;RIGHT</title>
<path fill="none" stroke="green" stroke-width="0.13" d="M639.92,-128.1C632.29,-118.75 623.7,-108.6 615.4,-99.64 600.55,-83.62 582.73,-66.64 568.79,-53.81"/>
</g>
<!-- LEFT -->
<g id="node12" class="node">
<title>LEFT</title>
<ellipse fill="lightblue" stroke="black" cx="664.4" cy="-31.82" rx="26.74" ry="26.74"/>
<text text-anchor="middle" x="664.4" y="-29.62" font-family="Times New Roman,serif" font-size="9.00">LEFT</text>
</g>
<!-- ND CORR&#45;&gt;LEFT -->
<g id="edge5" class="edge">
<title>ND CORR&#45;&gt;LEFT</title>
<path fill="none" stroke="green" stroke-width="0.18" d="M664.4,-120.08C664.4,-100.18 664.4,-76.59 664.4,-58.96"/>
</g>
<!-- ND DIST -->
<g id="node3" class="node">
<title>ND DIST</title>
<ellipse fill="lightcoral" stroke="black" cx="429.4" cy="-160.45" rx="37.45" ry="37.45"/>
<text text-anchor="middle" x="429.4" y="-158.25" font-family="Times New Roman,serif" font-size="9.00">ND DIST</text>
</g>
<!-- ND DIST&#45;&gt;UP -->
<g id="edge6" class="edge">
<title>ND DIST&#45;&gt;UP</title>
<path fill="none" stroke="red" stroke-width="0.48" d="M409.88,-128.43C402.47,-118.35 393.39,-107.7 383.4,-99.64 354.31,-76.17 337.62,-85.63 307.4,-63.64 301.46,-59.32 295.73,-53.67 290.96,-48.39"/>
</g>
<!-- ND DIST&#45;&gt;RIGHT -->
<g id="edge7" class="edge">
<title>ND DIST&#45;&gt;RIGHT</title>
<path fill="none" stroke="green" stroke-width="0.23" d="M450.99,-129.53C458.42,-119.74 466.99,-108.99 475.4,-99.64 490,-83.4 507.82,-66.42 521.83,-53.64"/>
</g>
<!-- ND DIST&#45;&gt;LEFT -->
<g id="edge8" class="edge">
<title>ND DIST&#45;&gt;LEFT</title>
<path fill="none" stroke="red" stroke-width="0.5" d="M448.35,-127.68C455.71,-117.54 464.91,-107.04 475.4,-99.64 517.78,-69.74 537.59,-81.18 586.4,-63.64 604.35,-57.19 624.35,-49.27 639.61,-43.07"/>
</g>
<!-- IN_INTERS -->
<g id="node4" class="node">
<title>IN_INTERS</title>
<ellipse fill="lightcoral" stroke="black" cx="896.4" cy="-160.45" rx="43.68" ry="43.68"/>
<text text-anchor="middle" x="896.4" y="-158.25" font-family="Times New Roman,serif" font-size="9.00">IN_INTERS</text>
</g>
<!-- IN_INTERS&#45;&gt;RIGHT -->
<g id="edge9" class="edge">
<title>IN_INTERS&#45;&gt;RIGHT</title>
<path fill="none" stroke="red" stroke-width="0.27" d="M871.95,-123.94C863.9,-114.67 854.2,-105.62 843.4,-99.64 758.64,-52.7 722.01,-88.61 628.4,-63.64 610.13,-58.77 590.26,-51.46 574.54,-45.19"/>
</g>
<!-- IN_INTERS&#45;&gt;LEFT -->
<g id="edge10" class="edge">
<title>IN_INTERS&#45;&gt;LEFT</title>
<path fill="none" stroke="red" stroke-width="0.15" d="M870.61,-124.6C862.66,-115.57 853.35,-106.47 843.4,-99.64 794.72,-66.23 727.19,-46.97 690.56,-38.34"/>
</g>
<!-- MOVING UP -->
<g id="node5" class="node">
<title>MOVING UP</title>
<ellipse fill="lightcoral" stroke="black" cx="185.4" cy="-160.45" rx="48.58" ry="48.58"/>
<text text-anchor="middle" x="185.4" y="-158.25" font-family="Times New Roman,serif" font-size="9.00">MOVING UP</text>
</g>
<!-- MOVING UP&#45;&gt;UP -->
<g id="edge11" class="edge">
<title>MOVING UP&#45;&gt;UP</title>
<path fill="none" stroke="green" stroke-width="0.64" d="M213.81,-120.77C231.54,-96.62 253.43,-66.81 266.64,-48.83"/>
</g>
<!-- MOVING UP&#45;&gt;DOWN -->
<g id="edge12" class="edge">
<title>MOVING UP&#45;&gt;DOWN</title>
<path fill="none" stroke="green" stroke-width="1.02" d="M217.22,-123.17C225.33,-114.94 234.32,-106.58 243.4,-99.64 269.62,-79.57 280.79,-81.77 308.4,-63.64 313.53,-60.27 318.84,-56.44 323.86,-52.65"/>
</g>
<!-- MOVING UP&#45;&gt;RIGHT -->
<g id="edge13" class="edge">
<title>MOVING UP&#45;&gt;RIGHT</title>
<path fill="none" stroke="green" stroke-width="0.1" d="M215.31,-121.82C223.6,-113.44 233.17,-105.35 243.4,-99.64 255.34,-92.97 439.57,-54.59 514.28,-39.2"/>
</g>
<!-- MOVING DOWN -->
<g id="node6" class="node">
<title>MOVING DOWN</title>
<ellipse fill="lightcoral" stroke="black" cx="313.4" cy="-160.45" rx="60.62" ry="60.62"/>
<text text-anchor="middle" x="313.4" y="-158.25" font-family="Times New Roman,serif" font-size="9.00">MOVING DOWN</text>
</g>
<!-- MOVING DOWN&#45;&gt;UP -->
<g id="edge14" class="edge">
<title>MOVING DOWN&#45;&gt;UP</title>
<path fill="none" stroke="green" stroke-width="0.32" d="M297.43,-101.69C292.46,-83.69 287.31,-65.08 283.63,-51.75"/>
</g>
<!-- MOVING DOWN&#45;&gt;DOWN -->
<g id="edge15" class="edge">
<title>MOVING DOWN&#45;&gt;DOWN</title>
<path fill="none" stroke="red" stroke-width="0.68" d="M329.36,-101.69C333.07,-88.26 336.88,-74.48 340.11,-62.82"/>
</g>
<!-- MOVING DOWN&#45;&gt;RIGHT -->
<g id="edge16" class="edge">
<title>MOVING DOWN&#45;&gt;RIGHT</title>
<path fill="none" stroke="green" stroke-width="0.22" d="M357.35,-118.31C365.66,-111.59 374.53,-105.06 383.4,-99.64 426.35,-73.36 481.47,-53.13 515.08,-42.11"/>
</g>
<!-- MOVING RIGHT -->
<g id="node7" class="node">
<title>MOVING RIGHT</title>
<ellipse fill="lightcoral" stroke="black" cx="545.4" cy="-160.45" rx="60.62" ry="60.62"/>
<text text-anchor="middle" x="545.4" y="-158.25" font-family="Times New Roman,serif" font-size="9.00">MOVING RIGHT</text>
</g>
<!-- MOVING RIGHT&#45;&gt;UP -->
<g id="edge17" class="edge">
<title>MOVING RIGHT&#45;&gt;UP</title>
<path fill="none" stroke="green" stroke-width="0.28" d="M502.59,-117.24C494.09,-110.55 484.85,-104.31 475.4,-99.64 406.94,-65.8 373.91,-101.15 307.4,-63.64 300.87,-59.96 294.94,-54.32 290.17,-48.86"/>
</g>
<!-- MOVING RIGHT&#45;&gt;RIGHT -->
<g id="edge18" class="edge">
<title>MOVING RIGHT&#45;&gt;RIGHT</title>
<path fill="none" stroke="green" stroke-width="0.19" d="M545.4,-99.47C545.4,-87.07 545.4,-74.5 545.4,-63.66"/>
</g>
<!-- MOVING RIGHT&#45;&gt;LEFT -->
<g id="edge19" class="edge">
<title>MOVING RIGHT&#45;&gt;LEFT</title>
<path fill="none" stroke="red" stroke-width="0.46" d="M586.68,-115.52C607.09,-93.8 630.66,-68.72 646.44,-51.92"/>
</g>
<!-- MOVING LEFT -->
<g id="node8" class="node">
<title>MOVING LEFT</title>
<ellipse fill="lightcoral" stroke="black" cx="778.4" cy="-160.45" rx="55.72" ry="55.72"/>
<text text-anchor="middle" x="778.4" y="-158.25" font-family="Times New Roman,serif" font-size="9.00">MOVING LEFT</text>
</g>
<!-- MOVING LEFT&#45;&gt;DOWN -->
<g id="edge20" class="edge">
<title>MOVING LEFT&#45;&gt;DOWN</title>
<path fill="none" stroke="red" stroke-width="0.59" d="M740.93,-118.42C732.52,-111.19 723.17,-104.45 713.4,-99.64 628.82,-58.03 597.08,-80.78 504.4,-63.64 460.96,-55.61 410.88,-45.58 379.43,-39.18"/>
</g>
<!-- MOVING LEFT&#45;&gt;RIGHT -->
<g id="edge21" class="edge">
<title>MOVING LEFT&#45;&gt;RIGHT</title>
<path fill="none" stroke="green" stroke-width="0.46" d="M739.71,-119.66C731.46,-112.41 722.49,-105.35 713.4,-99.64 701.17,-91.96 619.73,-60.8 574.89,-43.88"/>
</g>
<!-- MOVING LEFT&#45;&gt;LEFT -->
<g id="edge22" class="edge">
<title>MOVING LEFT&#45;&gt;LEFT</title>
<path fill="none" stroke="red" stroke-width="0.61" d="M741.38,-118.34C721.49,-96.24 697.88,-70.01 682.1,-52.48"/>
</g>
</g>
</svg>
