<?xml version="1.0" encoding="utf-8" standalone="no"?>
<!DOCTYPE svg PUBLIC "-//W3C//DTD SVG 1.1//EN"
  "http://www.w3.org/Graphics/SVG/1.1/DTD/svg11.dtd">
<svg xmlns:xlink="http://www.w3.org/1999/xlink" width="460.8pt" height="345.6pt" viewBox="0 0 460.8 345.6" xmlns="http://www.w3.org/2000/svg" version="1.1">
 <metadata>
  <rdf:RDF xmlns:dc="http://purl.org/dc/elements/1.1/" xmlns:cc="http://creativecommons.org/ns#" xmlns:rdf="http://www.w3.org/1999/02/22-rdf-syntax-ns#">
   <cc:Work>
    <dc:type rdf:resource="http://purl.org/dc/dcmitype/StillImage"/>
    <dc:date>2022-09-23T08:37:10.400580</dc:date>
    <dc:format>image/svg+xml</dc:format>
    <dc:creator>
     <cc:Agent>
      <dc:title>Matplotlib v3.5.3, https://matplotlib.org/</dc:title>
     </cc:Agent>
    </dc:creator>
   </cc:Work>
  </rdf:RDF>
 </metadata>
 <defs>
  <style type="text/css">*{stroke-linejoin: round; stroke-linecap: butt}</style>
 </defs>
 <g id="figure_1">
  <g id="patch_1">
   <path d="M 0 345.6 
L 460.8 345.6 
L 460.8 0 
L 0 0 
z
" style="fill: #ffffff"/>
  </g>
  <g id="axes_1">
   <g id="patch_2">
    <path d="M 57.6 307.584 
L 414.72 307.584 
L 414.72 41.472 
L 57.6 41.472 
z
" style="fill: #ffffff"/>
   </g>
   <g id="matplotlib.axis_1">
    <g id="xtick_1">
     <g id="line2d_1">
      <path d="M 73.832727 307.584 
L 73.832727 41.472 
" clip-path="url(#paea4962174)" style="fill: none; stroke: #b0b0b0; stroke-width: 0.8; stroke-linecap: square"/>
     </g>
     <g id="line2d_2">
      <defs>
       <path id="m1bfb590516" d="M 0 0 
L 0 3.5 
" style="stroke: #000000; stroke-width: 0.8"/>
      </defs>
      <g>
       <use xlink:href="#m1bfb590516" x="73.832727" y="307.584" style="stroke: #000000; stroke-width: 0.8"/>
      </g>
     </g>
     <g id="text_1">
      <!-- 0 -->
      <g transform="translate(70.651477 322.182437)scale(0.1 -0.1)">
       <defs>
        <path id="DejaVuSans-30" d="M 2034 4250 
Q 1547 4250 1301 3770 
Q 1056 3291 1056 2328 
Q 1056 1369 1301 889 
Q 1547 409 2034 409 
Q 2525 409 2770 889 
Q 3016 1369 3016 2328 
Q 3016 3291 2770 3770 
Q 2525 4250 2034 4250 
z
M 2034 4750 
Q 2819 4750 3233 4129 
Q 3647 3509 3647 2328 
Q 3647 1150 3233 529 
Q 2819 -91 2034 -91 
Q 1250 -91 836 529 
Q 422 1150 422 2328 
Q 422 3509 836 4129 
Q 1250 4750 2034 4750 
z
" transform="scale(0.015625)"/>
       </defs>
       <use xlink:href="#DejaVuSans-30"/>
      </g>
     </g>
    </g>
    <g id="xtick_2">
     <g id="line2d_3">
      <path d="M 128.032151 307.584 
L 128.032151 41.472 
" clip-path="url(#paea4962174)" style="fill: none; stroke: #b0b0b0; stroke-width: 0.8; stroke-linecap: square"/>
     </g>
     <g id="line2d_4">
      <g>
       <use xlink:href="#m1bfb590516" x="128.032151" y="307.584" style="stroke: #000000; stroke-width: 0.8"/>
      </g>
     </g>
     <g id="text_2">
      <!-- 100 -->
      <g transform="translate(118.488401 322.182437)scale(0.1 -0.1)">
       <defs>
        <path id="DejaVuSans-31" d="M 794 531 
L 1825 531 
L 1825 4091 
L 703 3866 
L 703 4441 
L 1819 4666 
L 2450 4666 
L 2450 531 
L 3481 531 
L 3481 0 
L 794 0 
L 794 531 
z
" transform="scale(0.015625)"/>
       </defs>
       <use xlink:href="#DejaVuSans-31"/>
       <use xlink:href="#DejaVuSans-30" x="63.623047"/>
       <use xlink:href="#DejaVuSans-30" x="127.246094"/>
      </g>
     </g>
    </g>
    <g id="xtick_3">
     <g id="line2d_5">
      <path d="M 182.231574 307.584 
L 182.231574 41.472 
" clip-path="url(#paea4962174)" style="fill: none; stroke: #b0b0b0; stroke-width: 0.8; stroke-linecap: square"/>
     </g>
     <g id="line2d_6">
      <g>
       <use xlink:href="#m1bfb590516" x="182.231574" y="307.584" style="stroke: #000000; stroke-width: 0.8"/>
      </g>
     </g>
     <g id="text_3">
      <!-- 200 -->
      <g transform="translate(172.687824 322.182437)scale(0.1 -0.1)">
       <defs>
        <path id="DejaVuSans-32" d="M 1228 531 
L 3431 531 
L 3431 0 
L 469 0 
L 469 531 
Q 828 903 1448 1529 
Q 2069 2156 2228 2338 
Q 2531 2678 2651 2914 
Q 2772 3150 2772 3378 
Q 2772 3750 2511 3984 
Q 2250 4219 1831 4219 
Q 1534 4219 1204 4116 
Q 875 4013 500 3803 
L 500 4441 
Q 881 4594 1212 4672 
Q 1544 4750 1819 4750 
Q 2544 4750 2975 4387 
Q 3406 4025 3406 3419 
Q 3406 3131 3298 2873 
Q 3191 2616 2906 2266 
Q 2828 2175 2409 1742 
Q 1991 1309 1228 531 
z
" transform="scale(0.015625)"/>
       </defs>
       <use xlink:href="#DejaVuSans-32"/>
       <use xlink:href="#DejaVuSans-30" x="63.623047"/>
       <use xlink:href="#DejaVuSans-30" x="127.246094"/>
      </g>
     </g>
    </g>
    <g id="xtick_4">
     <g id="line2d_7">
      <path d="M 236.430997 307.584 
L 236.430997 41.472 
" clip-path="url(#paea4962174)" style="fill: none; stroke: #b0b0b0; stroke-width: 0.8; stroke-linecap: square"/>
     </g>
     <g id="line2d_8">
      <g>
       <use xlink:href="#m1bfb590516" x="236.430997" y="307.584" style="stroke: #000000; stroke-width: 0.8"/>
      </g>
     </g>
     <g id="text_4">
      <!-- 300 -->
      <g transform="translate(226.887247 322.182437)scale(0.1 -0.1)">
       <defs>
        <path id="DejaVuSans-33" d="M 2597 2516 
Q 3050 2419 3304 2112 
Q 3559 1806 3559 1356 
Q 3559 666 3084 287 
Q 2609 -91 1734 -91 
Q 1441 -91 1130 -33 
Q 819 25 488 141 
L 488 750 
Q 750 597 1062 519 
Q 1375 441 1716 441 
Q 2309 441 2620 675 
Q 2931 909 2931 1356 
Q 2931 1769 2642 2001 
Q 2353 2234 1838 2234 
L 1294 2234 
L 1294 2753 
L 1863 2753 
Q 2328 2753 2575 2939 
Q 2822 3125 2822 3475 
Q 2822 3834 2567 4026 
Q 2313 4219 1838 4219 
Q 1578 4219 1281 4162 
Q 984 4106 628 3988 
L 628 4550 
Q 988 4650 1302 4700 
Q 1616 4750 1894 4750 
Q 2613 4750 3031 4423 
Q 3450 4097 3450 3541 
Q 3450 3153 3228 2886 
Q 3006 2619 2597 2516 
z
" transform="scale(0.015625)"/>
       </defs>
       <use xlink:href="#DejaVuSans-33"/>
       <use xlink:href="#DejaVuSans-30" x="63.623047"/>
       <use xlink:href="#DejaVuSans-30" x="127.246094"/>
      </g>
     </g>
    </g>
    <g id="xtick_5">
     <g id="line2d_9">
      <path d="M 290.63042 307.584 
L 290.63042 41.472 
" clip-path="url(#paea4962174)" style="fill: none; stroke: #b0b0b0; stroke-width: 0.8; stroke-linecap: square"/>
     </g>
     <g id="line2d_10">
      <g>
       <use xlink:href="#m1bfb590516" x="290.63042" y="307.584" style="stroke: #000000; stroke-width: 0.8"/>
      </g>
     </g>
     <g id="text_5">
      <!-- 400 -->
      <g transform="translate(281.08667 322.182437)scale(0.1 -0.1)">
       <defs>
        <path id="DejaVuSans-34" d="M 2419 4116 
L 825 1625 
L 2419 1625 
L 2419 4116 
z
M 2253 4666 
L 3047 4666 
L 3047 1625 
L 3713 1625 
L 3713 1100 
L 3047 1100 
L 3047 0 
L 2419 0 
L 2419 1100 
L 313 1100 
L 313 1709 
L 2253 4666 
z
" transform="scale(0.015625)"/>
       </defs>
       <use xlink:href="#DejaVuSans-34"/>
       <use xlink:href="#DejaVuSans-30" x="63.623047"/>
       <use xlink:href="#DejaVuSans-30" x="127.246094"/>
      </g>
     </g>
    </g>
    <g id="xtick_6">
     <g id="line2d_11">
      <path d="M 344.829844 307.584 
L 344.829844 41.472 
" clip-path="url(#paea4962174)" style="fill: none; stroke: #b0b0b0; stroke-width: 0.8; stroke-linecap: square"/>
     </g>
     <g id="line2d_12">
      <g>
       <use xlink:href="#m1bfb590516" x="344.829844" y="307.584" style="stroke: #000000; stroke-width: 0.8"/>
      </g>
     </g>
     <g id="text_6">
      <!-- 500 -->
      <g transform="translate(335.286094 322.182437)scale(0.1 -0.1)">
       <defs>
        <path id="DejaVuSans-35" d="M 691 4666 
L 3169 4666 
L 3169 4134 
L 1269 4134 
L 1269 2991 
Q 1406 3038 1543 3061 
Q 1681 3084 1819 3084 
Q 2600 3084 3056 2656 
Q 3513 2228 3513 1497 
Q 3513 744 3044 326 
Q 2575 -91 1722 -91 
Q 1428 -91 1123 -41 
Q 819 9 494 109 
L 494 744 
Q 775 591 1075 516 
Q 1375 441 1709 441 
Q 2250 441 2565 725 
Q 2881 1009 2881 1497 
Q 2881 1984 2565 2268 
Q 2250 2553 1709 2553 
Q 1456 2553 1204 2497 
Q 953 2441 691 2322 
L 691 4666 
z
" transform="scale(0.015625)"/>
       </defs>
       <use xlink:href="#DejaVuSans-35"/>
       <use xlink:href="#DejaVuSans-30" x="63.623047"/>
       <use xlink:href="#DejaVuSans-30" x="127.246094"/>
      </g>
     </g>
    </g>
    <g id="xtick_7">
     <g id="line2d_13">
      <path d="M 399.029267 307.584 
L 399.029267 41.472 
" clip-path="url(#paea4962174)" style="fill: none; stroke: #b0b0b0; stroke-width: 0.8; stroke-linecap: square"/>
     </g>
     <g id="line2d_14">
      <g>
       <use xlink:href="#m1bfb590516" x="399.029267" y="307.584" style="stroke: #000000; stroke-width: 0.8"/>
      </g>
     </g>
     <g id="text_7">
      <!-- 600 -->
      <g transform="translate(389.485517 322.182437)scale(0.1 -0.1)">
       <defs>
        <path id="DejaVuSans-36" d="M 2113 2584 
Q 1688 2584 1439 2293 
Q 1191 2003 1191 1497 
Q 1191 994 1439 701 
Q 1688 409 2113 409 
Q 2538 409 2786 701 
Q 3034 994 3034 1497 
Q 3034 2003 2786 2293 
Q 2538 2584 2113 2584 
z
M 3366 4563 
L 3366 3988 
Q 3128 4100 2886 4159 
Q 2644 4219 2406 4219 
Q 1781 4219 1451 3797 
Q 1122 3375 1075 2522 
Q 1259 2794 1537 2939 
Q 1816 3084 2150 3084 
Q 2853 3084 3261 2657 
Q 3669 2231 3669 1497 
Q 3669 778 3244 343 
Q 2819 -91 2113 -91 
Q 1303 -91 875 529 
Q 447 1150 447 2328 
Q 447 3434 972 4092 
Q 1497 4750 2381 4750 
Q 2619 4750 2861 4703 
Q 3103 4656 3366 4563 
z
" transform="scale(0.015625)"/>
       </defs>
       <use xlink:href="#DejaVuSans-36"/>
       <use xlink:href="#DejaVuSans-30" x="63.623047"/>
       <use xlink:href="#DejaVuSans-30" x="127.246094"/>
      </g>
     </g>
    </g>
    <g id="text_8">
     <!-- Generations -->
     <g transform="translate(205.662344 335.860562)scale(0.1 -0.1)">
      <defs>
       <path id="DejaVuSans-47" d="M 3809 666 
L 3809 1919 
L 2778 1919 
L 2778 2438 
L 4434 2438 
L 4434 434 
Q 4069 175 3628 42 
Q 3188 -91 2688 -91 
Q 1594 -91 976 548 
Q 359 1188 359 2328 
Q 359 3472 976 4111 
Q 1594 4750 2688 4750 
Q 3144 4750 3555 4637 
Q 3966 4525 4313 4306 
L 4313 3634 
Q 3963 3931 3569 4081 
Q 3175 4231 2741 4231 
Q 1884 4231 1454 3753 
Q 1025 3275 1025 2328 
Q 1025 1384 1454 906 
Q 1884 428 2741 428 
Q 3075 428 3337 486 
Q 3600 544 3809 666 
z
" transform="scale(0.015625)"/>
       <path id="DejaVuSans-65" d="M 3597 1894 
L 3597 1613 
L 953 1613 
Q 991 1019 1311 708 
Q 1631 397 2203 397 
Q 2534 397 2845 478 
Q 3156 559 3463 722 
L 3463 178 
Q 3153 47 2828 -22 
Q 2503 -91 2169 -91 
Q 1331 -91 842 396 
Q 353 884 353 1716 
Q 353 2575 817 3079 
Q 1281 3584 2069 3584 
Q 2775 3584 3186 3129 
Q 3597 2675 3597 1894 
z
M 3022 2063 
Q 3016 2534 2758 2815 
Q 2500 3097 2075 3097 
Q 1594 3097 1305 2825 
Q 1016 2553 972 2059 
L 3022 2063 
z
" transform="scale(0.015625)"/>
       <path id="DejaVuSans-6e" d="M 3513 2113 
L 3513 0 
L 2938 0 
L 2938 2094 
Q 2938 2591 2744 2837 
Q 2550 3084 2163 3084 
Q 1697 3084 1428 2787 
Q 1159 2491 1159 1978 
L 1159 0 
L 581 0 
L 581 3500 
L 1159 3500 
L 1159 2956 
Q 1366 3272 1645 3428 
Q 1925 3584 2291 3584 
Q 2894 3584 3203 3211 
Q 3513 2838 3513 2113 
z
" transform="scale(0.015625)"/>
       <path id="DejaVuSans-72" d="M 2631 2963 
Q 2534 3019 2420 3045 
Q 2306 3072 2169 3072 
Q 1681 3072 1420 2755 
Q 1159 2438 1159 1844 
L 1159 0 
L 581 0 
L 581 3500 
L 1159 3500 
L 1159 2956 
Q 1341 3275 1631 3429 
Q 1922 3584 2338 3584 
Q 2397 3584 2469 3576 
Q 2541 3569 2628 3553 
L 2631 2963 
z
" transform="scale(0.015625)"/>
       <path id="DejaVuSans-61" d="M 2194 1759 
Q 1497 1759 1228 1600 
Q 959 1441 959 1056 
Q 959 750 1161 570 
Q 1363 391 1709 391 
Q 2188 391 2477 730 
Q 2766 1069 2766 1631 
L 2766 1759 
L 2194 1759 
z
M 3341 1997 
L 3341 0 
L 2766 0 
L 2766 531 
Q 2569 213 2275 61 
Q 1981 -91 1556 -91 
Q 1019 -91 701 211 
Q 384 513 384 1019 
Q 384 1609 779 1909 
Q 1175 2209 1959 2209 
L 2766 2209 
L 2766 2266 
Q 2766 2663 2505 2880 
Q 2244 3097 1772 3097 
Q 1472 3097 1187 3025 
Q 903 2953 641 2809 
L 641 3341 
Q 956 3463 1253 3523 
Q 1550 3584 1831 3584 
Q 2591 3584 2966 3190 
Q 3341 2797 3341 1997 
z
" transform="scale(0.015625)"/>
       <path id="DejaVuSans-74" d="M 1172 4494 
L 1172 3500 
L 2356 3500 
L 2356 3053 
L 1172 3053 
L 1172 1153 
Q 1172 725 1289 603 
Q 1406 481 1766 481 
L 2356 481 
L 2356 0 
L 1766 0 
Q 1100 0 847 248 
Q 594 497 594 1153 
L 594 3053 
L 172 3053 
L 172 3500 
L 594 3500 
L 594 4494 
L 1172 4494 
z
" transform="scale(0.015625)"/>
       <path id="DejaVuSans-69" d="M 603 3500 
L 1178 3500 
L 1178 0 
L 603 0 
L 603 3500 
z
M 603 4863 
L 1178 4863 
L 1178 4134 
L 603 4134 
L 603 4863 
z
" transform="scale(0.015625)"/>
       <path id="DejaVuSans-6f" d="M 1959 3097 
Q 1497 3097 1228 2736 
Q 959 2375 959 1747 
Q 959 1119 1226 758 
Q 1494 397 1959 397 
Q 2419 397 2687 759 
Q 2956 1122 2956 1747 
Q 2956 2369 2687 2733 
Q 2419 3097 1959 3097 
z
M 1959 3584 
Q 2709 3584 3137 3096 
Q 3566 2609 3566 1747 
Q 3566 888 3137 398 
Q 2709 -91 1959 -91 
Q 1206 -91 779 398 
Q 353 888 353 1747 
Q 353 2609 779 3096 
Q 1206 3584 1959 3584 
z
" transform="scale(0.015625)"/>
       <path id="DejaVuSans-73" d="M 2834 3397 
L 2834 2853 
Q 2591 2978 2328 3040 
Q 2066 3103 1784 3103 
Q 1356 3103 1142 2972 
Q 928 2841 928 2578 
Q 928 2378 1081 2264 
Q 1234 2150 1697 2047 
L 1894 2003 
Q 2506 1872 2764 1633 
Q 3022 1394 3022 966 
Q 3022 478 2636 193 
Q 2250 -91 1575 -91 
Q 1294 -91 989 -36 
Q 684 19 347 128 
L 347 722 
Q 666 556 975 473 
Q 1284 391 1588 391 
Q 1994 391 2212 530 
Q 2431 669 2431 922 
Q 2431 1156 2273 1281 
Q 2116 1406 1581 1522 
L 1381 1569 
Q 847 1681 609 1914 
Q 372 2147 372 2553 
Q 372 3047 722 3315 
Q 1072 3584 1716 3584 
Q 2034 3584 2315 3537 
Q 2597 3491 2834 3397 
z
" transform="scale(0.015625)"/>
      </defs>
      <use xlink:href="#DejaVuSans-47"/>
      <use xlink:href="#DejaVuSans-65" x="77.490234"/>
      <use xlink:href="#DejaVuSans-6e" x="139.013672"/>
      <use xlink:href="#DejaVuSans-65" x="202.392578"/>
      <use xlink:href="#DejaVuSans-72" x="263.916016"/>
      <use xlink:href="#DejaVuSans-61" x="305.029297"/>
      <use xlink:href="#DejaVuSans-74" x="366.308594"/>
      <use xlink:href="#DejaVuSans-69" x="405.517578"/>
      <use xlink:href="#DejaVuSans-6f" x="433.300781"/>
      <use xlink:href="#DejaVuSans-6e" x="494.482422"/>
      <use xlink:href="#DejaVuSans-73" x="557.861328"/>
     </g>
    </g>
   </g>
   <g id="matplotlib.axis_2">
    <g id="ytick_1">
     <g id="line2d_15">
      <path d="M 57.6 283.337808 
L 414.72 283.337808 
" clip-path="url(#paea4962174)" style="fill: none; stroke: #b0b0b0; stroke-width: 0.8; stroke-linecap: square"/>
     </g>
     <g id="line2d_16">
      <defs>
       <path id="m445bf15d79" d="M 0 0 
L -3.5 0 
" style="stroke: #000000; stroke-width: 0.8"/>
      </defs>
      <g>
       <use xlink:href="#m445bf15d79" x="57.6" y="283.337808" style="stroke: #000000; stroke-width: 0.8"/>
      </g>
     </g>
     <g id="text_9">
      <!-- 0 -->
      <g transform="translate(44.2375 287.137027)scale(0.1 -0.1)">
       <use xlink:href="#DejaVuSans-30"/>
      </g>
     </g>
    </g>
    <g id="ytick_2">
     <g id="line2d_17">
      <path d="M 57.6 247.988607 
L 414.72 247.988607 
" clip-path="url(#paea4962174)" style="fill: none; stroke: #b0b0b0; stroke-width: 0.8; stroke-linecap: square"/>
     </g>
     <g id="line2d_18">
      <g>
       <use xlink:href="#m445bf15d79" x="57.6" y="247.988607" style="stroke: #000000; stroke-width: 0.8"/>
      </g>
     </g>
     <g id="text_10">
      <!-- 20 -->
      <g transform="translate(37.875 251.787826)scale(0.1 -0.1)">
       <use xlink:href="#DejaVuSans-32"/>
       <use xlink:href="#DejaVuSans-30" x="63.623047"/>
      </g>
     </g>
    </g>
    <g id="ytick_3">
     <g id="line2d_19">
      <path d="M 57.6 212.639406 
L 414.72 212.639406 
" clip-path="url(#paea4962174)" style="fill: none; stroke: #b0b0b0; stroke-width: 0.8; stroke-linecap: square"/>
     </g>
     <g id="line2d_20">
      <g>
       <use xlink:href="#m445bf15d79" x="57.6" y="212.639406" style="stroke: #000000; stroke-width: 0.8"/>
      </g>
     </g>
     <g id="text_11">
      <!-- 40 -->
      <g transform="translate(37.875 216.438624)scale(0.1 -0.1)">
       <use xlink:href="#DejaVuSans-34"/>
       <use xlink:href="#DejaVuSans-30" x="63.623047"/>
      </g>
     </g>
    </g>
    <g id="ytick_4">
     <g id="line2d_21">
      <path d="M 57.6 177.290204 
L 414.72 177.290204 
" clip-path="url(#paea4962174)" style="fill: none; stroke: #b0b0b0; stroke-width: 0.8; stroke-linecap: square"/>
     </g>
     <g id="line2d_22">
      <g>
       <use xlink:href="#m445bf15d79" x="57.6" y="177.290204" style="stroke: #000000; stroke-width: 0.8"/>
      </g>
     </g>
     <g id="text_12">
      <!-- 60 -->
      <g transform="translate(37.875 181.089423)scale(0.1 -0.1)">
       <use xlink:href="#DejaVuSans-36"/>
       <use xlink:href="#DejaVuSans-30" x="63.623047"/>
      </g>
     </g>
    </g>
    <g id="ytick_5">
     <g id="line2d_23">
      <path d="M 57.6 141.941003 
L 414.72 141.941003 
" clip-path="url(#paea4962174)" style="fill: none; stroke: #b0b0b0; stroke-width: 0.8; stroke-linecap: square"/>
     </g>
     <g id="line2d_24">
      <g>
       <use xlink:href="#m445bf15d79" x="57.6" y="141.941003" style="stroke: #000000; stroke-width: 0.8"/>
      </g>
     </g>
     <g id="text_13">
      <!-- 80 -->
      <g transform="translate(37.875 145.740222)scale(0.1 -0.1)">
       <defs>
        <path id="DejaVuSans-38" d="M 2034 2216 
Q 1584 2216 1326 1975 
Q 1069 1734 1069 1313 
Q 1069 891 1326 650 
Q 1584 409 2034 409 
Q 2484 409 2743 651 
Q 3003 894 3003 1313 
Q 3003 1734 2745 1975 
Q 2488 2216 2034 2216 
z
M 1403 2484 
Q 997 2584 770 2862 
Q 544 3141 544 3541 
Q 544 4100 942 4425 
Q 1341 4750 2034 4750 
Q 2731 4750 3128 4425 
Q 3525 4100 3525 3541 
Q 3525 3141 3298 2862 
Q 3072 2584 2669 2484 
Q 3125 2378 3379 2068 
Q 3634 1759 3634 1313 
Q 3634 634 3220 271 
Q 2806 -91 2034 -91 
Q 1263 -91 848 271 
Q 434 634 434 1313 
Q 434 1759 690 2068 
Q 947 2378 1403 2484 
z
M 1172 3481 
Q 1172 3119 1398 2916 
Q 1625 2713 2034 2713 
Q 2441 2713 2670 2916 
Q 2900 3119 2900 3481 
Q 2900 3844 2670 4047 
Q 2441 4250 2034 4250 
Q 1625 4250 1398 4047 
Q 1172 3844 1172 3481 
z
" transform="scale(0.015625)"/>
       </defs>
       <use xlink:href="#DejaVuSans-38"/>
       <use xlink:href="#DejaVuSans-30" x="63.623047"/>
      </g>
     </g>
    </g>
    <g id="ytick_6">
     <g id="line2d_25">
      <path d="M 57.6 106.591802 
L 414.72 106.591802 
" clip-path="url(#paea4962174)" style="fill: none; stroke: #b0b0b0; stroke-width: 0.8; stroke-linecap: square"/>
     </g>
     <g id="line2d_26">
      <g>
       <use xlink:href="#m445bf15d79" x="57.6" y="106.591802" style="stroke: #000000; stroke-width: 0.8"/>
      </g>
     </g>
     <g id="text_14">
      <!-- 100 -->
      <g transform="translate(31.5125 110.391021)scale(0.1 -0.1)">
       <use xlink:href="#DejaVuSans-31"/>
       <use xlink:href="#DejaVuSans-30" x="63.623047"/>
       <use xlink:href="#DejaVuSans-30" x="127.246094"/>
      </g>
     </g>
    </g>
    <g id="ytick_7">
     <g id="line2d_27">
      <path d="M 57.6 71.242601 
L 414.72 71.242601 
" clip-path="url(#paea4962174)" style="fill: none; stroke: #b0b0b0; stroke-width: 0.8; stroke-linecap: square"/>
     </g>
     <g id="line2d_28">
      <g>
       <use xlink:href="#m445bf15d79" x="57.6" y="71.242601" style="stroke: #000000; stroke-width: 0.8"/>
      </g>
     </g>
     <g id="text_15">
      <!-- 120 -->
      <g transform="translate(31.5125 75.041819)scale(0.1 -0.1)">
       <use xlink:href="#DejaVuSans-31"/>
       <use xlink:href="#DejaVuSans-32" x="63.623047"/>
       <use xlink:href="#DejaVuSans-30" x="127.246094"/>
      </g>
     </g>
    </g>
    <g id="text_16">
     <!-- Fitness -->
     <g transform="translate(25.432812 191.845187)rotate(-90)scale(0.1 -0.1)">
      <defs>
       <path id="DejaVuSans-46" d="M 628 4666 
L 3309 4666 
L 3309 4134 
L 1259 4134 
L 1259 2759 
L 3109 2759 
L 3109 2228 
L 1259 2228 
L 1259 0 
L 628 0 
L 628 4666 
z
" transform="scale(0.015625)"/>
      </defs>
      <use xlink:href="#DejaVuSans-46"/>
      <use xlink:href="#DejaVuSans-69" x="50.269531"/>
      <use xlink:href="#DejaVuSans-74" x="78.052734"/>
      <use xlink:href="#DejaVuSans-6e" x="117.261719"/>
      <use xlink:href="#DejaVuSans-65" x="180.640625"/>
      <use xlink:href="#DejaVuSans-73" x="242.164062"/>
      <use xlink:href="#DejaVuSans-73" x="294.263672"/>
     </g>
    </g>
   </g>
   <g id="line2d_29">
    <path d="M 73.832727 267.430668 
L 74.374722 268.585408 
L 74.916716 268.63254 
L 75.45871 269.693016 
L 76.000704 269.7048 
L 76.542698 269.480921 
L 77.084693 269.080297 
L 77.626687 268.950683 
L 78.168681 269.410223 
L 78.710675 270.081858 
L 79.25267 268.974249 
L 79.794664 269.24526 
L 80.336658 268.797503 
L 80.878652 270.930239 
L 81.420647 269.881546 
L 81.962641 269.445572 
L 82.504635 269.162778 
L 83.046629 269.410223 
L 83.588623 269.292392 
L 84.130618 268.102302 
L 84.672612 267.359969 
L 85.214606 265.969567 
L 85.7566 263.825049 
L 86.298595 262.776356 
L 86.840589 263.825049 
L 87.382583 263.48334 
L 87.924577 259.135388 
L 88.466572 251.594225 
L 89.008566 251.558876 
L 89.55056 252.164083 
L 90.634548 248.943035 
L 91.718537 252.057324 
L 92.260531 249.107998 
L 92.802525 252.939836 
L 93.34452 250.427702 
L 93.886514 246.233009 
L 94.428508 249.049083 
L 94.970502 244.041279 
L 95.512497 247.375887 
L 96.054491 245.829696 
L 96.596485 245.65556 
L 97.138479 243.69286 
L 97.680474 243.027936 
L 98.222468 251.143938 
L 98.764462 247.976824 
L 99.306456 246.043215 
L 99.84845 245.50714 
L 100.390445 249.0373 
L 100.932439 245.372766 
L 101.474433 244.453687 
L 102.016427 238.020132 
L 102.558422 241.413655 
L 103.100416 232.269995 
L 103.64241 229.453842 
L 104.184404 235.260522 
L 104.726399 233.731096 
L 105.268393 230.384705 
L 105.810387 238.067264 
L 106.352381 241.413655 
L 106.894375 239.479048 
L 107.43637 240.100278 
L 107.978364 227.799231 
L 108.520358 236.07901 
L 109.062352 241.594909 
L 109.604347 234.544127 
L 110.146341 235.323761 
L 110.688335 223.020288 
L 111.230329 231.074833 
L 111.772324 234.390948 
L 112.314318 239.540148 
L 112.856312 250.639797 
L 113.398306 241.001248 
L 113.940301 250.439485 
L 114.482295 245.113539 
L 115.024289 255.034881 
L 115.566283 251.853453 
L 116.108277 244.382988 
L 116.650272 248.966601 
L 117.192266 241.790714 
L 117.73426 243.546391 
L 118.276254 240.730238 
L 118.818249 232.800233 
L 119.360243 236.007837 
L 119.902237 237.289582 
L 120.444231 237.159968 
L 120.986226 239.976121 
L 121.52822 233.97854 
L 122.070214 234.579477 
L 122.612208 234.072805 
L 123.154202 229.571673 
L 123.696197 229.775575 
L 124.238191 232.982754 
L 124.780185 231.563011 
L 125.322179 233.39243 
L 125.864174 229.948731 
L 126.406168 228.640186 
L 126.948162 226.720561 
L 127.490156 227.294108 
L 128.032151 226.896917 
L 128.574145 232.399609 
L 129.116139 233.177292 
L 129.658133 230.254696 
L 130.200127 231.857588 
L 130.742122 228.52298 
L 131.284116 236.189933 
L 131.82611 234.153257 
L 132.368104 229.489192 
L 132.910099 228.570271 
L 133.452093 228.522822 
L 134.536081 220.739289 
L 135.078076 217.461879 
L 135.62007 223.564444 
L 136.162064 219.147958 
L 136.704058 230.767814 
L 137.246053 225.435817 
L 137.788047 227.411158 
L 138.330041 224.0465 
L 138.872035 225.282637 
L 139.414029 214.713225 
L 139.956024 217.753257 
L 140.498018 218.49559 
L 141.040012 215.450735 
L 141.582006 221.653452 
L 142.124001 222.76968 
L 142.665995 223.588168 
L 143.207989 216.328534 
L 143.749983 224.728832 
L 144.291978 236.564494 
L 144.833972 233.330471 
L 145.375966 232.870932 
L 145.91796 232.769471 
L 146.459954 230.314006 
L 147.001949 231.115255 
L 147.543943 224.987902 
L 148.085937 231.527662 
L 148.627931 228.653306 
L 149.169926 228.807513 
L 149.71192 232.387826 
L 150.253914 228.190682 
L 150.795908 233.990323 
L 151.337903 222.737494 
L 151.879897 222.88131 
L 152.421891 220.259382 
L 152.963885 216.708122 
L 153.505879 220.076973 
L 154.047874 228.487631 
L 154.589868 219.673659 
L 155.131862 219.602487 
L 155.673856 218.18923 
L 156.215851 228.827467 
L 156.757845 218.448458 
L 157.299839 216.232851 
L 157.841833 218.684119 
L 158.383828 208.574248 
L 158.925822 210.989776 
L 159.467816 220.10987 
L 160.00981 214.441981 
L 160.551805 220.189152 
L 161.093799 219.933124 
L 161.635793 220.432837 
L 162.177787 219.638548 
L 162.719781 222.401404 
L 163.261776 219.077174 
L 163.80377 223.244166 
L 164.345764 220.003823 
L 164.887758 214.289815 
L 165.429753 231.563011 
L 166.513741 215.102067 
L 167.055735 210.282792 
L 167.59773 201.775418 
L 168.139724 207.58447 
L 168.681718 217.223019 
L 169.223712 211.417604 
L 169.765706 217.15232 
L 170.307701 217.270151 
L 170.849695 218.503627 
L 171.391689 214.617556 
L 171.933683 213.646039 
L 172.475678 209.281232 
L 173.017672 221.017166 
L 173.559666 216.115015 
L 174.10166 215.226218 
L 174.643655 217.53211 
L 175.185649 221.311743 
L 176.269637 199.550647 
L 176.811632 214.454314 
L 177.353626 198.345517 
L 177.89562 209.474697 
L 178.437614 209.353591 
L 178.979608 216.607412 
L 179.521603 205.827076 
L 180.063597 202.236302 
L 180.605591 207.504218 
L 181.147585 196.518746 
L 181.68958 206.283572 
L 182.231574 209.355274 
L 182.773568 213.422307 
L 183.315562 212.380178 
L 183.857557 205.192507 
L 184.399551 203.280171 
L 184.941545 212.58088 
L 185.483539 206.08802 
L 186.025533 202.694497 
L 186.567528 213.34639 
L 187.109522 210.176745 
L 187.651516 210.930471 
L 188.19351 214.16106 
L 188.735505 206.435738 
L 189.277499 213.994458 
L 189.819493 213.119312 
L 190.361487 207.547716 
L 190.903482 209.221536 
L 191.445476 208.741629 
L 191.98747 196.508387 
L 192.529464 190.357626 
L 193.071458 193.517623 
L 193.613453 203.542878 
L 194.155447 196.530609 
L 194.697441 207.669166 
L 195.239435 201.256963 
L 195.78143 206.830354 
L 196.323424 200.373233 
L 196.865418 204.179163 
L 197.407412 212.259817 
L 197.949407 212.179866 
L 198.491401 203.059772 
L 199.033395 210.646565 
L 199.575389 211.225438 
L 200.117384 193.515488 
L 200.659378 202.129542 
L 201.201372 203.483963 
L 201.743366 201.394089 
L 202.28536 198.113459 
L 202.827355 200.608894 
L 203.369349 210.38884 
L 203.911343 192.995688 
L 204.453337 202.710788 
L 204.995332 214.921887 
L 205.537326 202.140693 
L 206.07932 199.569504 
L 206.621314 202.409206 
L 207.163309 208.867243 
L 207.705303 218.283495 
L 208.247297 214.074726 
L 208.789291 208.890967 
L 209.331285 211.903952 
L 209.87328 201.238703 
L 210.415274 195.024116 
L 210.957268 205.628481 
L 211.499262 203.095121 
L 212.041257 206.983533 
L 212.583251 193.574403 
L 213.125245 208.659694 
L 213.667239 194.383404 
L 214.209234 191.499197 
L 214.751228 208.964949 
L 215.293222 202.600695 
L 215.835216 202.549667 
L 216.377211 209.601223 
L 216.919205 204.310395 
L 217.461199 204.387278 
L 218.003193 211.449316 
L 218.545187 213.009617 
L 219.087182 210.391004 
L 219.629176 203.576725 
L 220.17117 214.359733 
L 220.713164 208.914691 
L 221.255159 215.960807 
L 221.797153 216.443542 
L 222.339147 220.255763 
L 222.881141 210.356924 
L 223.423136 215.249078 
L 223.96513 208.926553 
L 224.507124 219.649935 
L 225.049118 228.092739 
L 225.591112 214.466176 
L 226.133107 216.783383 
L 226.675101 221.856295 
L 227.217095 212.592273 
L 227.759089 217.53211 
L 228.301084 218.990479 
L 228.843078 225.848224 
L 229.385072 212.271679 
L 229.927066 221.700584 
L 230.469061 217.7428 
L 231.011055 224.697669 
L 231.553049 218.883656 
L 232.095043 223.162231 
L 232.637037 233.907067 
L 233.179032 222.116247 
L 233.721026 222.949589 
L 234.26302 229.566691 
L 234.805014 219.334685 
L 235.347009 222.237533 
L 235.889003 227.674599 
L 236.430997 227.262192 
L 237.514986 219.531314 
L 238.05698 224.19955 
L 238.598974 223.37465 
L 239.140968 216.970268 
L 239.682963 225.259071 
L 240.224957 229.95115 
L 240.766951 213.564103 
L 241.308945 208.325408 
L 241.850939 217.647209 
L 242.392934 212.61584 
L 242.934928 219.556066 
L 243.476922 206.630041 
L 244.018916 201.743945 
L 244.560911 197.94158 
L 245.102905 198.74717 
L 245.644899 222.112992 
L 246.186893 223.043854 
L 246.728888 205.451735 
L 247.270882 211.433787 
L 247.812876 215.302538 
L 248.35487 210.504219 
L 248.896864 216.869527 
L 249.438859 211.457197 
L 249.980853 218.89717 
L 250.522847 210.527943 
L 251.064841 218.283495 
L 252.14883 205.37058 
L 252.690824 221.273687 
L 253.232818 215.398076 
L 253.774813 213.908656 
L 254.316807 214.371279 
L 254.858801 212.259817 
L 255.942789 227.165352 
L 256.484784 216.292947 
L 257.026778 218.813733 
L 257.568772 218.507373 
L 258.110766 214.135855 
L 258.652761 220.800564 
L 259.194755 209.917517 
L 259.736749 217.788606 
L 260.278743 212.662816 
L 260.820738 215.314162 
L 261.362732 220.310182 
L 261.904726 219.674131 
L 262.44672 218.236363 
L 262.988715 219.580491 
L 263.530709 218.035426 
L 264.072703 213.446032 
L 264.614697 218.152476 
L 265.156691 219.261489 
L 265.698686 212.58049 
L 266.24068 221.631956 
L 266.782674 221.034841 
L 267.324668 214.406866 
L 267.866663 209.77612 
L 268.408657 207.560904 
L 268.950651 213.798204 
L 269.492645 212.474443 
L 270.03464 217.058056 
L 270.576634 219.568786 
L 271.118628 220.121653 
L 272.202616 203.990634 
L 272.744611 203.111508 
L 273.286605 220.380881 
L 273.828599 215.867966 
L 274.370593 215.039808 
L 274.912588 217.140537 
L 275.454582 222.705734 
L 275.996576 220.130627 
L 276.53857 223.899648 
L 277.080565 231.297229 
L 277.622559 230.992898 
L 278.164553 223.571907 
L 279.248542 229.459539 
L 279.790536 218.64877 
L 280.33253 227.384056 
L 280.874524 232.352477 
L 281.416518 227.551618 
L 281.958513 224.64877 
L 282.500507 213.505342 
L 283.042501 217.063987 
L 283.584495 219.851592 
L 284.12649 219.993937 
L 284.668484 225.429607 
L 285.210478 226.553705 
L 285.752472 224.552086 
L 286.294467 223.611893 
L 286.836461 217.786536 
L 287.378455 226.225282 
L 288.462443 236.311587 
L 289.004438 226.088489 
L 289.546432 218.761138 
L 290.088426 219.521965 
L 290.63042 225.823702 
L 291.172415 221.357283 
L 291.714409 224.133827 
L 292.256403 228.036474 
L 292.798397 225.128676 
L 293.340392 216.174326 
L 293.882386 217.511549 
L 294.42438 226.154584 
L 294.966374 225.577213 
L 295.508368 225.365118 
L 296.050363 221.652281 
L 296.592357 222.179008 
L 297.134351 224.811314 
L 297.676345 215.11385 
L 298.21834 223.845102 
L 298.760334 222.136558 
L 299.302328 221.583465 
L 299.844322 213.220651 
L 300.386317 216.916659 
L 300.928311 216.952008 
L 301.470305 216.586733 
L 302.012299 232.222863 
L 302.554294 213.34639 
L 303.096288 225.225145 
L 304.180276 222.501833 
L 304.72227 215.984531 
L 305.264265 221.83257 
L 305.806259 229.913382 
L 306.348253 224.894576 
L 306.890247 226.041669 
L 307.432242 231.280218 
L 307.974236 220.911119 
L 308.51623 229.595239 
L 309.058224 220.807937 
L 309.600219 214.323831 
L 310.142213 219.088246 
L 310.684207 220.868044 
L 311.226201 226.591806 
L 311.768195 226.162254 
L 312.31019 217.443576 
L 312.852184 224.53172 
L 313.394178 224.70321 
L 313.936172 226.272414 
L 314.478167 226.346 
L 315.020161 221.383066 
L 315.562155 219.475145 
L 316.104149 222.976721 
L 316.646144 222.499972 
L 317.188138 222.466484 
L 317.730132 214.074726 
L 318.272126 211.492312 
L 318.814121 230.044791 
L 319.356115 220.540303 
L 319.898109 214.029808 
L 320.440103 222.709277 
L 320.982097 222.136558 
L 321.524092 229.34131 
L 322.066086 222.124775 
L 322.60808 234.399063 
L 323.150074 223.018785 
L 323.692069 225.996184 
L 324.234063 212.935959 
L 324.776057 219.816005 
L 325.318051 220.007803 
L 325.860046 217.788606 
L 326.40204 219.088879 
L 326.944034 214.798317 
L 327.486028 223.583612 
L 328.028022 218.530939 
L 328.570017 216.874193 
L 329.112011 225.235504 
L 329.654005 213.440654 
L 330.195999 214.538231 
L 330.737994 220.26305 
L 331.279988 220.72259 
L 331.821982 235.312056 
L 332.363976 234.867264 
L 332.905971 226.029964 
L 333.447965 222.018727 
L 334.531953 231.917596 
L 335.073947 232.666718 
L 335.615942 233.801794 
L 336.157936 228.876472 
L 336.69993 237.099155 
L 337.241924 230.266237 
L 337.783919 227.443366 
L 338.325913 231.102198 
L 338.867907 232.8838 
L 339.409901 225.912914 
L 339.951896 227.391806 
L 340.49389 231.613265 
L 341.035884 224.800935 
L 341.577878 237.715987 
L 342.119873 238.928911 
L 342.661867 231.845805 
L 343.203861 235.986598 
L 343.745855 238.546337 
L 344.287849 232.318709 
L 344.829844 227.858542 
L 345.371838 234.626609 
L 345.913832 230.420766 
L 346.455826 230.44362 
L 346.997821 235.746 
L 347.539815 236.221044 
L 348.081809 227.488396 
L 348.623803 227.24171 
L 349.165798 235.816699 
L 349.707792 235.780257 
L 350.249786 236.084588 
L 350.79178 232.953568 
L 351.333774 229.076784 
L 351.875769 226.378462 
L 352.417763 225.306203 
L 352.959757 232.011236 
L 354.043746 222.961372 
L 354.58574 240.813421 
L 355.127734 235.686617 
L 355.669728 233.754662 
L 356.211723 233.259773 
L 356.753717 234.43808 
L 357.295711 229.436129 
L 357.837705 230.337416 
L 358.379699 235.710027 
L 358.921694 234.348932 
L 360.005682 217.364416 
L 360.547676 219.779944 
L 361.089671 216.684398 
L 361.631665 217.564728 
L 362.173659 209.151934 
L 362.715653 216.186188 
L 363.257648 209.200024 
L 363.799642 212.58049 
L 364.341636 208.203198 
L 364.88363 220.563321 
L 365.425625 218.783998 
L 365.967619 226.508076 
L 366.509613 221.775263 
L 367.051607 223.494954 
L 367.593601 215.495434 
L 368.67759 220.104599 
L 369.219584 230.372531 
L 369.761578 224.549002 
L 370.303573 216.221458 
L 370.845567 224.917362 
L 371.929555 253.91549 
L 372.47155 251.005072 
L 373.013544 250.357003 
L 373.555538 247.597156 
L 374.097532 242.496432 
L 374.639526 240.093952 
L 375.181521 245.278501 
L 375.723515 248.72406 
L 376.265509 243.504715 
L 376.807503 245.50238 
L 377.349498 246.560593 
L 377.891492 246.139212 
L 378.433486 237.500897 
L 378.97548 233.186129 
L 379.517475 236.412329 
L 380.059469 243.248068 
L 380.601463 236.646429 
L 381.143457 241.024814 
L 381.685452 241.401872 
L 382.227446 240.930629 
L 382.76944 241.059227 
L 383.311434 241.621069 
L 383.853428 237.66664 
L 384.395423 237.641357 
L 384.937417 237.24431 
L 385.479411 237.711587 
L 386.021405 235.62817 
L 386.5634 243.97378 
L 387.105394 236.594381 
L 387.647388 233.636831 
L 388.189382 235.227545 
L 388.731377 238.609286 
L 389.273371 234.492703 
L 389.815365 239.724853 
L 390.357359 231.445181 
L 390.899353 235.298244 
L 391.441348 233.931408 
L 391.983342 238.273429 
L 392.525336 233.708466 
L 393.06733 231.6952 
L 393.609325 227.680609 
L 394.151319 232.069604 
L 394.693313 243.575888 
L 395.235307 240.764559 
L 395.777302 229.597468 
L 396.319296 228.428716 
L 396.86129 229.471794 
L 397.403284 226.814673 
L 397.945278 233.626531 
L 398.487273 232.647054 
L 398.487273 232.647054 
" clip-path="url(#paea4962174)" style="fill: none; stroke: #0000ff; stroke-width: 1.5; stroke-linecap: square"/>
   </g>
   <g id="line2d_30">
    <path d="M 73.832727 267.430668 
L 74.374722 272.155425 
L 74.916716 272.067784 
L 75.45871 274.696812 
L 76.000704 274.688647 
L 76.542698 274.280609 
L 77.084693 273.427275 
L 77.626687 273.28501 
L 78.710675 275.426294 
L 79.25267 273.423648 
L 79.794664 274.100456 
L 80.336658 273.366296 
L 80.878652 276.999845 
L 81.420647 275.015448 
L 81.962641 274.322524 
L 82.504635 275.605229 
L 83.046629 275.934425 
L 83.588623 277.235578 
L 84.130618 277.948752 
L 85.214606 283.170924 
L 86.298595 285.398387 
L 86.840589 287.292482 
L 87.382583 287.554923 
L 87.924577 281.682293 
L 88.466572 282.202688 
L 89.008566 284.157836 
L 90.634548 283.751159 
L 91.176543 284.795925 
L 91.718537 285.490901 
L 92.260531 282.681935 
L 92.802525 283.060597 
L 93.34452 281.793467 
L 93.886514 284.445703 
L 94.428508 284.654229 
L 94.970502 282.223008 
L 95.512497 283.374259 
L 96.054491 285.046072 
L 96.596485 283.555289 
L 97.138479 283.993819 
L 97.680474 283.224965 
L 98.222468 286.966569 
L 98.764462 281.55081 
L 99.306456 282.387144 
L 99.84845 286.918893 
L 100.390445 288.022569 
L 100.932439 285.886158 
L 101.474433 286.570199 
L 102.016427 283.698304 
L 102.558422 285.549753 
L 103.100416 282.47256 
L 103.64241 280.957736 
L 104.184404 285.831841 
L 104.726399 283.734357 
L 105.268393 280.493732 
L 105.810387 283.993476 
L 106.352381 286.172464 
L 106.894375 284.954849 
L 107.43637 288.269492 
L 107.978364 279.120439 
L 108.520358 286.728382 
L 109.062352 289.021545 
L 109.604347 281.798001 
L 110.146341 284.714486 
L 110.688335 278.043412 
L 111.230329 285.888372 
L 112.314318 288.480122 
L 112.856312 288.123148 
L 113.398306 286.891871 
L 113.940301 294.818708 
L 115.024289 286.038896 
L 115.566283 285.163948 
L 116.108277 281.014996 
L 116.650272 285.405746 
L 117.192266 279.838206 
L 117.73426 286.054074 
L 118.276254 284.542882 
L 118.818249 275.117079 
L 119.360243 286.300564 
L 119.902237 286.137091 
L 120.444231 285.496817 
L 120.986226 289.674411 
L 121.52822 283.468725 
L 122.070214 285.182031 
L 122.612208 280.598897 
L 123.154202 277.090726 
L 123.696197 279.108699 
L 124.238191 278.52332 
L 124.780185 279.684492 
L 125.322179 281.251065 
L 125.864174 278.623908 
L 126.406168 275.263123 
L 126.948162 277.984941 
L 127.490156 277.844943 
L 128.032151 280.776207 
L 128.574145 284.401024 
L 129.116139 286.255138 
L 129.658133 283.071064 
L 130.200127 279.074161 
L 130.742122 276.994795 
L 131.284116 284.794521 
L 131.82611 280.447101 
L 132.368104 277.747721 
L 132.910099 279.886496 
L 133.452093 283.319244 
L 134.536081 275.808072 
L 135.078076 274.164512 
L 135.62007 280.617751 
L 136.162064 274.396144 
L 136.704058 284.911958 
L 137.246053 280.270271 
L 137.788047 282.675693 
L 138.330041 276.55259 
L 138.872035 277.846767 
L 139.414029 272.405658 
L 139.956024 276.569819 
L 140.498018 275.090436 
L 141.040012 276.229182 
L 141.582006 282.031554 
L 142.124001 281.292203 
L 142.665995 281.576623 
L 143.207989 277.378517 
L 143.749983 284.27067 
L 144.291978 284.613949 
L 144.833972 287.685754 
L 145.375966 284.021742 
L 145.91796 286.726407 
L 146.459954 283.272922 
L 147.001949 285.17742 
L 147.543943 283.101792 
L 148.085937 287.271584 
L 148.627931 285.607003 
L 149.169926 284.634717 
L 149.71192 287.168728 
L 150.253914 286.501937 
L 150.795908 289.090314 
L 151.337903 278.408591 
L 151.879897 276.749469 
L 152.421891 276.967215 
L 152.963885 275.227447 
L 153.505879 280.081329 
L 154.047874 286.904229 
L 154.589868 280.925425 
L 155.131862 283.352595 
L 155.673856 281.955776 
L 156.215851 284.160371 
L 156.757845 275.276202 
L 157.299839 276.07203 
L 157.841833 278.867201 
L 158.383828 271.224412 
L 158.925822 272.408837 
L 159.467816 282.797718 
L 160.00981 276.234812 
L 160.551805 280.404518 
L 161.093799 281.214577 
L 161.635793 283.213542 
L 162.177787 282.094654 
L 162.719781 282.200609 
L 163.261776 280.838484 
L 163.80377 282.823686 
L 164.345764 282.55174 
L 164.887758 279.088101 
L 165.429753 288.117148 
L 165.971747 281.670281 
L 166.513741 277.2359 
L 167.055735 275.577678 
L 167.59773 266.874081 
L 168.681718 275.616325 
L 169.223712 269.980692 
L 170.307701 280.189965 
L 170.849695 281.830842 
L 171.391689 277.682078 
L 171.933683 279.738131 
L 172.475678 271.494738 
L 173.017672 285.928102 
L 173.559666 283.445426 
L 174.10166 280.314425 
L 174.643655 282.597958 
L 175.185649 286.478181 
L 176.269637 266.1127 
L 176.811632 280.33535 
L 177.353626 266.160732 
L 177.89562 274.675236 
L 178.437614 275.950929 
L 178.979608 282.54201 
L 179.521603 273.642689 
L 180.063597 270.248352 
L 180.605591 276.88211 
L 181.147585 265.620843 
L 181.68958 276.161129 
L 182.231574 280.755094 
L 183.315562 282.066353 
L 183.857557 275.292325 
L 184.399551 274.055192 
L 184.941545 281.987959 
L 185.483539 276.838116 
L 186.025533 272.932908 
L 186.567528 279.487192 
L 187.109522 272.451195 
L 187.651516 277.902524 
L 188.19351 281.15369 
L 188.735505 274.148609 
L 189.277499 283.988679 
L 189.819493 282.454673 
L 190.361487 276.97551 
L 190.903482 277.667314 
L 191.445476 279.714077 
L 191.98747 267.952932 
L 192.529464 261.740229 
L 193.071458 263.900695 
L 193.613453 276.642367 
L 194.155447 269.009209 
L 194.697441 278.347806 
L 195.239435 272.615517 
L 195.78143 273.430956 
L 196.323424 272.03605 
L 196.865418 274.198721 
L 197.407412 279.102744 
L 197.949407 281.042926 
L 198.491401 274.144567 
L 199.033395 280.684508 
L 199.575389 279.780412 
L 200.117384 263.795849 
L 200.659378 274.135163 
L 201.201372 275.446599 
L 201.743366 272.030252 
L 202.28536 271.035636 
L 202.827355 271.908241 
L 203.369349 278.944694 
L 203.911343 264.12295 
L 204.453337 275.337651 
L 204.995332 282.417706 
L 205.537326 271.39904 
L 206.07932 275.42362 
L 206.621314 275.350308 
L 207.163309 280.123238 
L 207.705303 287.321217 
L 208.247297 283.649564 
L 208.789291 277.16865 
L 209.331285 282.183299 
L 210.415274 266.169617 
L 210.957268 280.620575 
L 211.499262 278.94559 
L 212.041257 277.739944 
L 212.583251 263.896983 
L 213.125245 279.019072 
L 213.667239 264.582297 
L 214.209234 262.607054 
L 214.751228 277.063947 
L 215.293222 272.429558 
L 215.835216 272.419646 
L 216.377211 277.067554 
L 216.919205 274.188369 
L 217.461199 276.297114 
L 218.545187 283.96201 
L 219.087182 279.291745 
L 219.629176 272.653748 
L 220.17117 283.6715 
L 220.713164 277.271315 
L 221.255159 285.513507 
L 221.797153 283.382018 
L 222.339147 285.417307 
L 222.881141 276.888003 
L 223.423136 281.024258 
L 223.96513 275.401544 
L 225.049118 289.095936 
L 225.591112 280.023235 
L 226.133107 284.43495 
L 226.675101 287.742937 
L 227.217095 284.268375 
L 227.759089 284.988946 
L 228.301084 289.878363 
L 228.843078 291.852764 
L 229.385072 280.126561 
L 229.927066 286.314018 
L 230.469061 283.427346 
L 231.011055 289.673767 
L 231.553049 287.271883 
L 232.095043 288.547445 
L 232.637037 293.187544 
L 233.179032 286.837363 
L 233.721026 284.786251 
L 234.26302 292.690488 
L 234.805014 286.892703 
L 235.347009 286.021813 
L 235.889003 291.041677 
L 236.430997 287.230212 
L 236.972991 288.50516 
L 237.514986 287.246847 
L 238.05698 289.487155 
L 239.140968 279.893164 
L 239.682963 290.637585 
L 240.224957 288.473794 
L 240.766951 275.43234 
L 241.308945 274.438976 
L 241.850939 280.682351 
L 242.392934 274.677597 
L 242.934928 284.675697 
L 243.476922 274.61793 
L 244.018916 268.350166 
L 244.560911 269.783771 
L 245.102905 271.62028 
L 245.644899 295.488 
L 246.186893 289.266327 
L 246.728888 273.532273 
L 247.270882 279.954092 
L 247.812876 284.106437 
L 248.35487 278.946098 
L 248.896864 283.276147 
L 249.438859 279.726851 
L 249.980853 286.935348 
L 250.522847 280.93473 
L 251.064841 284.619451 
L 252.14883 271.638991 
L 252.690824 285.392491 
L 253.232818 279.526986 
L 253.774813 278.735246 
L 254.316807 279.088913 
L 254.858801 279.80448 
L 255.400795 280.159441 
L 255.942789 286.94174 
L 256.484784 276.175374 
L 257.026778 276.878942 
L 257.568772 279.221387 
L 258.110766 278.465165 
L 258.652761 284.613906 
L 259.194755 271.630524 
L 259.736749 281.233262 
L 260.278743 277.309372 
L 260.820738 277.815887 
L 261.362732 277.496126 
L 261.904726 278.89578 
L 262.44672 276.293562 
L 262.988715 276.667169 
L 263.530709 278.334172 
L 264.072703 277.095509 
L 264.614697 278.256076 
L 265.156691 277.818302 
L 265.698686 270.980686 
L 266.24068 281.79964 
L 266.782674 280.195314 
L 267.866663 269.608466 
L 268.408657 267.103167 
L 268.950651 276.154469 
L 269.492645 275.396467 
L 270.03464 282.749817 
L 270.576634 284.532196 
L 272.202616 270.628066 
L 272.744611 268.442163 
L 273.286605 284.053833 
L 273.828599 279.544869 
L 274.370593 280.837411 
L 274.912588 283.731523 
L 275.454582 287.755858 
L 275.996576 287.304184 
L 276.53857 293.554338 
L 277.080565 295.446046 
L 277.622559 292.913621 
L 278.164553 289.688377 
L 278.706547 289.041945 
L 279.248542 289.206488 
L 279.790536 281.990291 
L 280.33253 289.642879 
L 280.874524 294.701072 
L 281.416518 286.567889 
L 281.958513 286.909502 
L 282.500507 278.971576 
L 283.584495 285.90856 
L 284.12649 286.275411 
L 284.668484 287.40435 
L 285.210478 286.784404 
L 285.752472 285.398399 
L 286.836461 281.313152 
L 287.378455 287.995465 
L 288.462443 290.318371 
L 289.004438 282.684133 
L 289.546432 279.881822 
L 290.088426 281.697186 
L 290.63042 281.106393 
L 291.172415 274.097958 
L 291.714409 280.447221 
L 292.256403 285.157813 
L 292.798397 282.51304 
L 293.340392 273.433572 
L 293.882386 275.467275 
L 294.42438 280.614973 
L 294.966374 281.126966 
L 295.508368 280.152959 
L 296.050363 277.328344 
L 296.592357 275.732385 
L 297.134351 281.042674 
L 297.676345 274.031542 
L 298.21834 280.554164 
L 298.760334 279.941797 
L 299.302328 278.459805 
L 299.844322 271.318468 
L 300.386317 273.627351 
L 300.928311 273.697654 
L 301.470305 274.181137 
L 302.012299 278.1113 
L 302.554294 261.046859 
L 303.096288 276.878928 
L 304.180276 276.041296 
L 304.72227 271.317868 
L 305.264265 276.141669 
L 305.806259 282.002461 
L 306.348253 280.852665 
L 306.890247 281.98929 
L 307.432242 284.308963 
L 307.974236 274.729555 
L 308.51623 281.309521 
L 309.058224 274.575859 
L 309.600219 271.718709 
L 310.142213 272.585976 
L 310.684207 278.206018 
L 311.226201 277.637286 
L 311.768195 279.224763 
L 312.31019 271.717571 
L 312.852184 280.391848 
L 313.394178 278.886215 
L 313.936172 282.686733 
L 314.478167 281.901991 
L 315.562155 277.663604 
L 316.104149 280.540249 
L 316.646144 277.683132 
L 317.188138 277.633696 
L 317.730132 269.315999 
L 318.272126 267.170026 
L 318.814121 287.907402 
L 319.356115 278.958389 
L 319.898109 273.076938 
L 320.440103 280.674592 
L 320.982097 280.340692 
L 321.524092 284.473576 
L 322.066086 278.886177 
L 322.60808 285.013536 
L 323.150074 274.821469 
L 323.692069 279.706076 
L 324.234063 267.423667 
L 324.776057 274.476524 
L 325.318051 275.902588 
L 325.860046 274.80207 
L 326.40204 272.495303 
L 326.944034 268.296791 
L 327.486028 275.164333 
L 328.028022 271.732629 
L 329.112011 279.321822 
L 329.654005 265.841235 
L 330.195999 270.272558 
L 330.737994 276.371909 
L 331.279988 273.626598 
L 331.821982 282.016113 
L 332.363976 284.909227 
L 332.905971 277.649464 
L 333.447965 273.548983 
L 333.989959 278.831309 
L 334.531953 281.454258 
L 335.073947 280.451055 
L 335.615942 280.00657 
L 336.157936 276.303889 
L 336.69993 286.160024 
L 337.241924 280.42656 
L 337.783919 281.11737 
L 338.325913 282.35495 
L 338.867907 281.533684 
L 339.409901 278.969818 
L 340.49389 285.3389 
L 341.035884 276.210194 
L 341.577878 289.020928 
L 342.119873 288.534832 
L 342.661867 282.257644 
L 343.203861 288.685871 
L 343.745855 289.029602 
L 344.287849 284.554809 
L 344.829844 281.079565 
L 345.371838 289.034714 
L 345.913832 286.64496 
L 346.455826 285.015543 
L 346.997821 289.161555 
L 347.539815 284.929303 
L 348.081809 283.056699 
L 348.623803 282.531552 
L 349.165798 287.736135 
L 349.707792 289.597326 
L 350.249786 288.751238 
L 350.79178 283.390602 
L 351.333774 280.888292 
L 351.875769 280.897332 
L 352.417763 278.732798 
L 352.959757 287.445291 
L 353.501751 284.935607 
L 354.043746 281.852576 
L 354.58574 293.847067 
L 355.127734 290.344952 
L 356.211723 286.861695 
L 356.753717 287.999944 
L 357.295711 286.74589 
L 357.837705 288.220132 
L 358.379699 290.397842 
L 358.921694 288.638801 
L 359.463688 284.868964 
L 360.005682 279.276163 
L 360.547676 280.960579 
L 361.089671 281.04724 
L 361.631665 281.269372 
L 362.173659 275.838597 
L 362.715653 282.441538 
L 363.257648 274.917307 
L 363.799642 279.198626 
L 364.341636 274.247179 
L 364.88363 280.602373 
L 365.425625 281.786914 
L 365.967619 287.819577 
L 366.509613 283.732303 
L 367.051607 284.926351 
L 367.593601 281.316317 
L 368.135596 281.786081 
L 368.67759 281.374229 
L 369.219584 289.498367 
L 369.761578 286.388375 
L 370.303573 278.186147 
L 370.845567 283.480789 
L 371.387561 283.899026 
L 371.929555 283.497186 
L 372.47155 281.30214 
L 373.013544 283.247487 
L 373.555538 279.588773 
L 374.097532 276.994443 
L 374.639526 273.380856 
L 375.723515 283.49566 
L 376.265509 278.840583 
L 376.807503 280.608661 
L 377.349498 282.808275 
L 377.891492 281.746351 
L 378.433486 275.150035 
L 378.97548 275.978441 
L 380.059469 285.897838 
L 380.601463 276.91136 
L 381.143457 281.007053 
L 382.227446 278.78612 
L 382.76944 282.514593 
L 383.311434 281.48567 
L 383.853428 279.558094 
L 384.395423 281.277524 
L 384.937417 280.236294 
L 385.479411 284.070472 
L 386.021405 278.909171 
L 386.5634 285.999826 
L 387.647388 275.577394 
L 388.189382 275.334414 
L 388.731377 280.029212 
L 389.273371 279.002478 
L 389.815365 283.090011 
L 390.357359 279.23432 
L 390.899353 285.983406 
L 391.441348 283.476789 
L 391.983342 285.854346 
L 392.525336 278.847337 
L 393.06733 280.795831 
L 393.609325 276.338354 
L 394.151319 275.583381 
L 394.693313 287.362067 
L 395.235307 285.651745 
L 395.777302 277.308202 
L 396.319296 274.974217 
L 396.86129 277.82523 
L 397.403284 276.86068 
L 397.945278 284.10066 
L 398.487273 286.643588 
L 398.487273 286.643588 
" clip-path="url(#paea4962174)" style="fill: none; stroke-dasharray: 9.6,2.4,1.5,2.4; stroke-dashoffset: 0; stroke: #008000; stroke-width: 1.5"/>
   </g>
   <g id="line2d_31">
    <path d="M 73.832727 267.430668 
L 74.374722 265.015392 
L 74.916716 265.197296 
L 75.45871 264.689221 
L 77.084693 264.733319 
L 78.168681 264.525207 
L 78.710675 264.737422 
L 79.794664 264.390064 
L 80.336658 264.228711 
L 80.878652 264.860632 
L 81.962641 264.568621 
L 82.504635 262.720328 
L 83.046629 262.88602 
L 83.588623 261.349207 
L 84.130618 258.255852 
L 85.214606 248.76821 
L 85.7566 243.447959 
L 86.298595 240.154325 
L 86.840589 240.357616 
L 87.382583 239.411757 
L 87.924577 236.588484 
L 88.466572 220.985763 
L 89.008566 218.959916 
L 89.55056 220.34373 
L 90.634548 214.134912 
L 91.176543 215.918081 
L 91.718537 218.623746 
L 92.260531 215.534062 
L 92.802525 222.819075 
L 93.34452 219.061936 
L 93.886514 208.020315 
L 94.428508 213.443937 
L 94.970502 205.859551 
L 95.512497 211.377516 
L 96.054491 206.61332 
L 96.596485 207.75583 
L 97.138479 203.391901 
L 97.680474 202.830906 
L 98.222468 215.321308 
L 98.764462 214.402838 
L 99.84845 204.095386 
L 100.390445 210.052031 
L 100.932439 204.859374 
L 101.474433 202.337174 
L 102.016427 192.341961 
L 102.558422 197.277558 
L 103.100416 182.067431 
L 103.64241 177.949948 
L 104.184404 184.689203 
L 104.726399 183.727835 
L 105.268393 180.275677 
L 105.810387 192.141053 
L 106.352381 196.654847 
L 106.894375 194.003246 
L 107.43637 191.931064 
L 107.978364 176.478023 
L 109.062352 194.168273 
L 109.604347 187.290254 
L 110.146341 185.933035 
L 110.688335 167.997163 
L 111.230329 176.261295 
L 111.772324 181.64677 
L 112.314318 190.600173 
L 112.856312 213.156446 
L 113.398306 195.110625 
L 113.940301 206.060262 
L 114.482295 200.241144 
L 115.024289 224.030866 
L 115.566283 218.542958 
L 116.108277 207.750981 
L 116.650272 212.527457 
L 117.192266 203.743221 
L 117.73426 201.038707 
L 118.276254 196.917593 
L 118.818249 190.483387 
L 119.360243 185.715111 
L 119.902237 188.442073 
L 120.444231 188.82312 
L 120.986226 190.277832 
L 121.52822 184.488355 
L 122.070214 183.976922 
L 122.612208 187.546713 
L 123.154202 182.05262 
L 123.696197 180.442451 
L 124.238191 187.442188 
L 124.780185 183.441531 
L 125.322179 185.533796 
L 125.864174 181.273554 
L 126.406168 182.01725 
L 126.948162 175.456181 
L 127.490156 176.743273 
L 128.032151 173.017627 
L 128.574145 180.398195 
L 129.116139 180.099445 
L 129.658133 177.438327 
L 130.200127 184.641015 
L 130.742122 180.051166 
L 131.284116 187.585346 
L 131.82611 187.859413 
L 132.368104 181.230663 
L 135.078076 160.759247 
L 135.62007 166.511137 
L 136.162064 163.899772 
L 136.704058 176.623669 
L 137.246053 170.601362 
L 137.788047 172.146623 
L 138.330041 171.540409 
L 138.872035 172.718506 
L 139.414029 157.020792 
L 139.956024 158.936694 
L 140.498018 161.900744 
L 141.040012 154.672287 
L 141.582006 161.27535 
L 142.124001 164.247157 
L 142.665995 165.599713 
L 143.207989 155.278551 
L 143.749983 165.186995 
L 144.291978 188.515039 
L 144.833972 178.975189 
L 145.375966 181.720122 
L 145.91796 178.812535 
L 146.459954 177.355091 
L 147.001949 177.053089 
L 147.543943 166.874012 
L 148.085937 175.78374 
L 148.627931 171.699608 
L 149.169926 172.98031 
L 149.71192 177.606924 
L 150.253914 169.879426 
L 150.795908 178.890333 
L 151.337903 167.066398 
L 151.879897 169.013151 
L 152.963885 158.188798 
L 153.505879 160.072616 
L 154.047874 170.071033 
L 154.589868 158.421894 
L 155.131862 155.852378 
L 155.673856 154.422684 
L 156.215851 173.494563 
L 156.757845 161.620714 
L 157.299839 156.393672 
L 157.841833 158.501037 
L 158.383828 145.924083 
L 158.925822 149.570716 
L 159.467816 157.422022 
L 160.00981 152.64915 
L 160.551805 159.973786 
L 161.093799 158.651671 
L 161.635793 157.652132 
L 162.177787 157.182441 
L 162.719781 162.602198 
L 163.261776 157.315864 
L 163.80377 163.664646 
L 164.345764 157.455905 
L 164.887758 149.49153 
L 165.429753 175.008875 
L 166.513741 152.968233 
L 167.59773 136.676754 
L 168.139724 144.232748 
L 168.681718 158.829713 
L 169.223712 152.854517 
L 169.765706 159.101535 
L 170.307701 154.350337 
L 170.849695 155.176413 
L 171.933683 147.553946 
L 172.475678 147.067725 
L 173.017672 156.10623 
L 173.559666 148.784604 
L 174.10166 150.138011 
L 174.643655 152.466261 
L 175.185649 156.145305 
L 176.269637 132.988595 
L 176.811632 148.573279 
L 177.353626 130.530302 
L 177.89562 144.274158 
L 178.437614 142.756252 
L 178.979608 150.672814 
L 179.521603 138.011463 
L 180.063597 134.224252 
L 180.605591 138.126325 
L 181.147585 127.41665 
L 181.68958 136.406016 
L 182.231574 137.955454 
L 182.773568 145.46458 
L 183.315562 142.694004 
L 183.857557 135.092689 
L 184.399551 132.50515 
L 184.941545 143.173802 
L 185.483539 135.337925 
L 186.025533 132.456086 
L 186.567528 147.205588 
L 187.109522 147.902294 
L 187.651516 143.958418 
L 188.19351 147.16843 
L 188.735505 138.722867 
L 189.277499 144.000238 
L 189.819493 143.783951 
L 190.361487 138.119922 
L 190.903482 140.775758 
L 191.445476 137.769182 
L 191.98747 125.063842 
L 192.529464 118.975023 
L 193.071458 123.134551 
L 193.613453 130.443389 
L 194.155447 124.052008 
L 194.697441 136.990525 
L 195.239435 129.898409 
L 195.78143 140.229751 
L 196.323424 128.710416 
L 196.865418 134.159606 
L 197.407412 145.416889 
L 197.949407 143.316806 
L 198.491401 131.974978 
L 199.033395 140.608621 
L 199.575389 142.670464 
L 200.117384 123.235127 
L 200.659378 130.123922 
L 201.201372 131.521326 
L 201.743366 130.757927 
L 202.28536 125.191282 
L 202.827355 129.309547 
L 203.369349 141.832986 
L 203.911343 121.868427 
L 204.453337 130.083924 
L 204.995332 147.426068 
L 205.537326 132.882345 
L 206.07932 123.715387 
L 206.621314 129.468105 
L 207.163309 137.611247 
L 207.705303 149.245773 
L 208.789291 140.613283 
L 209.331285 141.624606 
L 209.87328 129.071739 
L 210.415274 123.878614 
L 210.957268 130.636386 
L 211.499262 127.244653 
L 212.041257 136.227123 
L 212.583251 123.251823 
L 213.125245 138.300316 
L 213.667239 124.18451 
L 214.209234 120.39134 
L 214.751228 140.865951 
L 215.293222 132.771831 
L 215.835216 132.679687 
L 216.377211 142.134891 
L 216.919205 134.43242 
L 217.461199 132.477441 
L 218.003193 142.63676 
L 219.087182 141.490263 
L 219.629176 134.499701 
L 220.17117 145.047967 
L 220.713164 140.558067 
L 221.255159 146.408108 
L 221.797153 149.505065 
L 222.339147 155.09422 
L 222.881141 143.825845 
L 223.423136 149.473898 
L 223.96513 142.451562 
L 224.507124 157.009513 
L 225.049118 167.089542 
L 225.591112 148.909118 
L 226.133107 149.131816 
L 226.675101 155.969653 
L 227.217095 140.916172 
L 227.759089 150.075273 
L 228.301084 148.102594 
L 228.843078 159.843684 
L 229.385072 144.416797 
L 229.927066 157.087151 
L 230.469061 152.058255 
L 231.011055 159.721572 
L 231.553049 150.495429 
L 232.095043 157.777017 
L 232.637037 174.626589 
L 233.179032 157.395132 
L 233.721026 161.112928 
L 234.26302 166.442894 
L 234.805014 151.776667 
L 235.889003 164.307521 
L 236.430997 167.294172 
L 237.514986 151.81578 
L 238.05698 158.911944 
L 238.598974 162.408464 
L 239.140968 154.047372 
L 239.682963 159.880556 
L 240.224957 171.428506 
L 240.766951 151.695867 
L 241.308945 142.21184 
L 241.850939 154.612068 
L 242.392934 150.554082 
L 242.934928 154.436435 
L 243.476922 138.642153 
L 244.018916 135.137723 
L 244.560911 126.099388 
L 245.102905 125.874059 
L 245.644899 148.737983 
L 246.186893 156.82138 
L 246.728888 137.371196 
L 247.270882 142.913483 
L 247.812876 146.498639 
L 248.35487 142.06234 
L 248.896864 150.462907 
L 249.438859 143.187543 
L 249.980853 150.858991 
L 250.522847 140.121157 
L 251.064841 151.947539 
L 252.14883 139.102169 
L 252.690824 157.154883 
L 253.232818 151.269166 
L 253.774813 149.082065 
L 254.316807 149.653645 
L 254.858801 144.715154 
L 255.400795 158.509929 
L 255.942789 167.388964 
L 256.484784 156.410521 
L 257.026778 160.748524 
L 257.568772 157.793359 
L 258.110766 149.806545 
L 258.652761 156.987221 
L 259.194755 148.20451 
L 259.736749 154.34395 
L 260.278743 148.01626 
L 260.820738 152.812437 
L 261.362732 163.124238 
L 261.904726 160.452482 
L 262.44672 160.179163 
L 262.988715 162.493812 
L 263.530709 157.73668 
L 264.072703 149.796555 
L 264.614697 158.048877 
L 265.156691 160.704677 
L 265.698686 154.180294 
L 266.24068 161.464272 
L 266.782674 161.874367 
L 267.324668 153.722872 
L 267.866663 149.943774 
L 268.408657 148.018641 
L 268.950651 151.441939 
L 269.492645 149.552419 
L 270.03464 151.366294 
L 270.576634 154.605375 
L 271.118628 160.078486 
L 272.202616 137.353203 
L 272.744611 137.780854 
L 273.286605 156.707928 
L 273.828599 152.191064 
L 274.370593 149.242204 
L 274.912588 150.549551 
L 275.454582 157.655611 
L 275.996576 152.95707 
L 276.53857 154.244957 
L 277.080565 167.148412 
L 277.622559 169.072176 
L 278.164553 157.455437 
L 278.706547 164.539637 
L 279.248542 169.71259 
L 279.790536 155.307249 
L 280.33253 165.125233 
L 280.874524 170.003882 
L 281.416518 168.535348 
L 281.958513 162.388039 
L 282.500507 148.039109 
L 283.042501 151.905921 
L 283.584495 153.794624 
L 284.12649 153.712464 
L 284.668484 163.454863 
L 285.210478 166.323006 
L 285.752472 163.705774 
L 286.294467 163.920722 
L 286.836461 154.25992 
L 287.920449 174.232575 
L 288.462443 182.304803 
L 289.546432 157.640455 
L 290.088426 157.346744 
L 290.63042 170.541012 
L 291.172415 168.616608 
L 291.714409 167.820433 
L 292.256403 170.915135 
L 292.798397 167.744313 
L 293.340392 158.91508 
L 293.882386 159.555822 
L 294.42438 171.694195 
L 294.966374 170.027461 
L 295.508368 170.577277 
L 296.050363 165.976219 
L 296.592357 168.625631 
L 297.134351 168.579954 
L 297.676345 156.196158 
L 298.21834 167.136041 
L 298.760334 164.331319 
L 299.302328 164.707126 
L 299.844322 155.122833 
L 300.386317 160.205967 
L 300.928311 160.206362 
L 301.470305 158.992329 
L 302.012299 186.334426 
L 302.554294 165.64592 
L 303.096288 173.571361 
L 304.180276 168.96237 
L 304.72227 160.651195 
L 305.264265 167.523472 
L 305.806259 177.824303 
L 306.348253 168.936487 
L 306.890247 170.094048 
L 307.432242 178.251472 
L 307.974236 167.092683 
L 308.51623 177.880958 
L 309.600219 156.928953 
L 310.142213 165.590517 
L 310.684207 163.53007 
L 311.226201 175.546325 
L 311.768195 173.099746 
L 312.31019 163.16958 
L 312.852184 168.671591 
L 313.394178 170.520205 
L 313.936172 169.858095 
L 314.478167 170.790009 
L 315.020161 163.215903 
L 315.562155 161.286686 
L 316.104149 165.413194 
L 316.646144 167.316812 
L 317.188138 167.299271 
L 317.730132 158.833452 
L 318.272126 155.814599 
L 318.814121 172.182179 
L 319.356115 162.122218 
L 319.898109 154.982677 
L 320.440103 164.743961 
L 320.982097 163.932424 
L 321.524092 174.209045 
L 322.066086 165.363373 
L 322.60808 183.78459 
L 323.150074 171.216101 
L 323.692069 172.286293 
L 324.234063 158.448252 
L 324.776057 165.155487 
L 325.318051 164.113018 
L 325.860046 160.775142 
L 326.40204 165.682455 
L 326.944034 161.299842 
L 327.486028 172.002891 
L 328.570017 158.026852 
L 329.112011 171.149187 
L 329.654005 161.040074 
L 330.195999 158.803904 
L 330.737994 164.154192 
L 331.279988 167.818581 
L 331.821982 188.607998 
L 332.363976 184.825301 
L 332.905971 174.410464 
L 333.447965 170.488471 
L 333.989959 175.056789 
L 334.531953 182.380934 
L 335.615942 187.597018 
L 336.157936 181.449055 
L 336.69993 188.038286 
L 337.783919 173.769363 
L 338.325913 179.849446 
L 338.867907 184.233916 
L 339.409901 172.85601 
L 339.951896 172.512816 
L 340.49389 177.88763 
L 341.035884 173.391677 
L 341.577878 186.411046 
L 342.119873 189.32299 
L 342.661867 181.433966 
L 343.203861 183.287324 
L 343.745855 188.063072 
L 344.287849 180.082609 
L 344.829844 174.637518 
L 345.371838 180.218504 
L 345.913832 174.196571 
L 346.455826 175.871697 
L 347.539815 187.512785 
L 348.081809 171.920093 
L 348.623803 171.951867 
L 349.165798 183.897263 
L 349.707792 181.963188 
L 350.249786 183.417938 
L 350.79178 182.516535 
L 351.875769 171.859592 
L 352.417763 171.879608 
L 352.959757 176.577181 
L 354.043746 164.070169 
L 354.58574 187.779776 
L 355.127734 181.028281 
L 355.669728 178.881441 
L 356.211723 179.657852 
L 356.753717 180.876216 
L 357.295711 172.126367 
L 357.837705 172.454701 
L 358.379699 181.022211 
L 358.921694 180.059062 
L 360.005682 155.452668 
L 360.547676 158.59931 
L 361.089671 152.321557 
L 361.631665 153.860084 
L 362.173659 142.465271 
L 362.715653 149.930838 
L 363.257648 143.482741 
L 363.799642 145.962354 
L 364.341636 142.159216 
L 364.88363 160.524268 
L 365.425625 155.781082 
L 365.967619 165.196574 
L 366.509613 159.818223 
L 367.051607 162.063558 
L 367.593601 149.674551 
L 368.135596 153.531904 
L 368.67759 158.834969 
L 369.219584 171.246696 
L 370.303573 154.25677 
L 370.845567 166.353934 
L 371.929555 224.333793 
L 373.013544 217.46652 
L 373.555538 215.605539 
L 374.097532 207.998422 
L 374.639526 206.807048 
L 375.181521 211.622011 
L 375.723515 213.95246 
L 376.265509 208.168847 
L 376.807503 210.396098 
L 377.349498 210.31291 
L 377.891492 210.532073 
L 378.97548 190.393817 
L 379.517475 192.318071 
L 380.059469 200.598299 
L 380.601463 196.381499 
L 381.143457 201.042576 
L 381.685452 202.953544 
L 382.227446 203.075137 
L 382.76944 199.603862 
L 383.311434 201.756467 
L 383.853428 195.775187 
L 384.395423 194.00519 
L 384.937417 194.252327 
L 385.479411 191.352703 
L 386.021405 192.347168 
L 386.5634 201.947735 
L 387.105394 192.804374 
L 387.647388 191.696269 
L 388.189382 195.120676 
L 388.731377 197.189359 
L 389.273371 189.982928 
L 389.815365 196.359696 
L 390.357359 183.656041 
L 390.899353 184.613081 
L 391.441348 184.386026 
L 391.983342 190.692512 
L 392.525336 188.569595 
L 393.06733 182.59457 
L 393.609325 179.022865 
L 394.693313 199.789709 
L 395.235307 195.877372 
L 395.777302 181.886735 
L 396.319296 181.883214 
L 396.86129 181.118358 
L 397.403284 176.768665 
L 397.945278 183.152401 
L 398.487273 178.650519 
L 398.487273 178.650519 
" clip-path="url(#paea4962174)" style="fill: none; stroke-dasharray: 9.6,2.4,1.5,2.4; stroke-dashoffset: 0; stroke: #008000; stroke-width: 1.5"/>
   </g>
   <g id="line2d_32">
    <path d="M 73.832727 267.430668 
L 76.542698 267.430668 
L 77.084693 258.593367 
L 81.962641 258.593367 
L 82.504635 217.941786 
L 85.214606 217.941786 
L 85.7566 194.964805 
L 86.298595 194.964805 
L 86.840589 179.057664 
L 87.924577 179.057664 
L 88.466572 149.010843 
L 90.092554 149.010843 
L 90.634548 118.964022 
L 102.558422 118.964022 
L 103.64241 99.521962 
L 114.482295 99.521962 
L 115.024289 118.964022 
L 117.73426 118.964022 
L 118.276254 111.894182 
L 125.322179 111.894182 
L 125.864174 106.591802 
L 129.116139 106.591802 
L 129.658133 99.521962 
L 130.742122 99.521962 
L 131.284116 94.219581 
L 132.368104 94.219581 
L 132.910099 80.079901 
L 143.749983 80.079901 
L 144.291978 85.382281 
L 153.505879 85.382281 
L 154.047874 65.94022 
L 164.887758 65.94022 
L 165.429753 83.614821 
L 167.055735 83.614821 
L 167.59773 118.964022 
L 168.139724 118.964022 
L 168.681718 103.056882 
L 170.307701 103.056882 
L 170.849695 85.382281 
L 178.979608 85.382281 
L 179.521603 65.94022 
L 187.109522 65.94022 
L 187.651516 53.568 
L 207.163309 53.568 
L 207.705303 65.94022 
L 238.05698 65.94022 
L 238.598974 85.382281 
L 239.140968 85.382281 
L 239.682963 65.94022 
L 256.484784 65.94022 
L 257.026778 92.452121 
L 259.194755 92.452121 
L 259.736749 106.591802 
L 261.904726 106.591802 
L 262.44672 99.521962 
L 262.988715 99.521962 
L 263.530709 94.219581 
L 264.072703 85.382281 
L 274.370593 85.382281 
L 274.912588 65.94022 
L 280.33253 65.94022 
L 280.874524 62.4053 
L 296.050363 62.4053 
L 296.592357 94.219581 
L 297.134351 92.452121 
L 297.676345 85.382281 
L 298.760334 85.382281 
L 299.302328 65.94022 
L 310.142213 65.94022 
L 310.684207 111.894182 
L 330.195999 111.894182 
L 330.737994 104.824342 
L 345.371838 104.824342 
L 345.913832 85.382281 
L 371.387561 85.382281 
L 371.929555 138.406083 
L 374.097532 138.406083 
L 374.639526 133.103703 
L 377.891492 133.103703 
L 378.433486 118.964022 
L 386.021405 118.964022 
L 386.5634 108.359262 
L 387.105394 106.591802 
L 393.06733 106.591802 
L 393.609325 103.056882 
L 397.403284 103.056882 
L 397.945278 92.452121 
L 398.487273 92.452121 
L 398.487273 92.452121 
" clip-path="url(#paea4962174)" style="fill: none; stroke: #ff0000; stroke-width: 1.5; stroke-linecap: square"/>
   </g>
   <g id="patch_3">
    <path d="M 57.6 307.584 
L 57.6 41.472 
" style="fill: none; stroke: #000000; stroke-width: 0.8; stroke-linejoin: miter; stroke-linecap: square"/>
   </g>
   <g id="patch_4">
    <path d="M 414.72 307.584 
L 414.72 41.472 
" style="fill: none; stroke: #000000; stroke-width: 0.8; stroke-linejoin: miter; stroke-linecap: square"/>
   </g>
   <g id="patch_5">
    <path d="M 57.6 307.584 
L 414.72 307.584 
" style="fill: none; stroke: #000000; stroke-width: 0.8; stroke-linejoin: miter; stroke-linecap: square"/>
   </g>
   <g id="patch_6">
    <path d="M 57.6 41.472 
L 414.72 41.472 
" style="fill: none; stroke: #000000; stroke-width: 0.8; stroke-linejoin: miter; stroke-linecap: square"/>
   </g>
   <g id="text_17">
    <!-- Population's average and best fitness -->
    <g transform="translate(123.529687 35.472)scale(0.12 -0.12)">
     <defs>
      <path id="DejaVuSans-50" d="M 1259 4147 
L 1259 2394 
L 2053 2394 
Q 2494 2394 2734 2622 
Q 2975 2850 2975 3272 
Q 2975 3691 2734 3919 
Q 2494 4147 2053 4147 
L 1259 4147 
z
M 628 4666 
L 2053 4666 
Q 2838 4666 3239 4311 
Q 3641 3956 3641 3272 
Q 3641 2581 3239 2228 
Q 2838 1875 2053 1875 
L 1259 1875 
L 1259 0 
L 628 0 
L 628 4666 
z
" transform="scale(0.015625)"/>
      <path id="DejaVuSans-70" d="M 1159 525 
L 1159 -1331 
L 581 -1331 
L 581 3500 
L 1159 3500 
L 1159 2969 
Q 1341 3281 1617 3432 
Q 1894 3584 2278 3584 
Q 2916 3584 3314 3078 
Q 3713 2572 3713 1747 
Q 3713 922 3314 415 
Q 2916 -91 2278 -91 
Q 1894 -91 1617 61 
Q 1341 213 1159 525 
z
M 3116 1747 
Q 3116 2381 2855 2742 
Q 2594 3103 2138 3103 
Q 1681 3103 1420 2742 
Q 1159 2381 1159 1747 
Q 1159 1113 1420 752 
Q 1681 391 2138 391 
Q 2594 391 2855 752 
Q 3116 1113 3116 1747 
z
" transform="scale(0.015625)"/>
      <path id="DejaVuSans-75" d="M 544 1381 
L 544 3500 
L 1119 3500 
L 1119 1403 
Q 1119 906 1312 657 
Q 1506 409 1894 409 
Q 2359 409 2629 706 
Q 2900 1003 2900 1516 
L 2900 3500 
L 3475 3500 
L 3475 0 
L 2900 0 
L 2900 538 
Q 2691 219 2414 64 
Q 2138 -91 1772 -91 
Q 1169 -91 856 284 
Q 544 659 544 1381 
z
M 1991 3584 
L 1991 3584 
z
" transform="scale(0.015625)"/>
      <path id="DejaVuSans-6c" d="M 603 4863 
L 1178 4863 
L 1178 0 
L 603 0 
L 603 4863 
z
" transform="scale(0.015625)"/>
      <path id="DejaVuSans-27" d="M 1147 4666 
L 1147 2931 
L 616 2931 
L 616 4666 
L 1147 4666 
z
" transform="scale(0.015625)"/>
      <path id="DejaVuSans-20" transform="scale(0.015625)"/>
      <path id="DejaVuSans-76" d="M 191 3500 
L 800 3500 
L 1894 563 
L 2988 3500 
L 3597 3500 
L 2284 0 
L 1503 0 
L 191 3500 
z
" transform="scale(0.015625)"/>
      <path id="DejaVuSans-67" d="M 2906 1791 
Q 2906 2416 2648 2759 
Q 2391 3103 1925 3103 
Q 1463 3103 1205 2759 
Q 947 2416 947 1791 
Q 947 1169 1205 825 
Q 1463 481 1925 481 
Q 2391 481 2648 825 
Q 2906 1169 2906 1791 
z
M 3481 434 
Q 3481 -459 3084 -895 
Q 2688 -1331 1869 -1331 
Q 1566 -1331 1297 -1286 
Q 1028 -1241 775 -1147 
L 775 -588 
Q 1028 -725 1275 -790 
Q 1522 -856 1778 -856 
Q 2344 -856 2625 -561 
Q 2906 -266 2906 331 
L 2906 616 
Q 2728 306 2450 153 
Q 2172 0 1784 0 
Q 1141 0 747 490 
Q 353 981 353 1791 
Q 353 2603 747 3093 
Q 1141 3584 1784 3584 
Q 2172 3584 2450 3431 
Q 2728 3278 2906 2969 
L 2906 3500 
L 3481 3500 
L 3481 434 
z
" transform="scale(0.015625)"/>
      <path id="DejaVuSans-64" d="M 2906 2969 
L 2906 4863 
L 3481 4863 
L 3481 0 
L 2906 0 
L 2906 525 
Q 2725 213 2448 61 
Q 2172 -91 1784 -91 
Q 1150 -91 751 415 
Q 353 922 353 1747 
Q 353 2572 751 3078 
Q 1150 3584 1784 3584 
Q 2172 3584 2448 3432 
Q 2725 3281 2906 2969 
z
M 947 1747 
Q 947 1113 1208 752 
Q 1469 391 1925 391 
Q 2381 391 2643 752 
Q 2906 1113 2906 1747 
Q 2906 2381 2643 2742 
Q 2381 3103 1925 3103 
Q 1469 3103 1208 2742 
Q 947 2381 947 1747 
z
" transform="scale(0.015625)"/>
      <path id="DejaVuSans-62" d="M 3116 1747 
Q 3116 2381 2855 2742 
Q 2594 3103 2138 3103 
Q 1681 3103 1420 2742 
Q 1159 2381 1159 1747 
Q 1159 1113 1420 752 
Q 1681 391 2138 391 
Q 2594 391 2855 752 
Q 3116 1113 3116 1747 
z
M 1159 2969 
Q 1341 3281 1617 3432 
Q 1894 3584 2278 3584 
Q 2916 3584 3314 3078 
Q 3713 2572 3713 1747 
Q 3713 922 3314 415 
Q 2916 -91 2278 -91 
Q 1894 -91 1617 61 
Q 1341 213 1159 525 
L 1159 0 
L 581 0 
L 581 4863 
L 1159 4863 
L 1159 2969 
z
" transform="scale(0.015625)"/>
      <path id="DejaVuSans-66" d="M 2375 4863 
L 2375 4384 
L 1825 4384 
Q 1516 4384 1395 4259 
Q 1275 4134 1275 3809 
L 1275 3500 
L 2222 3500 
L 2222 3053 
L 1275 3053 
L 1275 0 
L 697 0 
L 697 3053 
L 147 3053 
L 147 3500 
L 697 3500 
L 697 3744 
Q 697 4328 969 4595 
Q 1241 4863 1831 4863 
L 2375 4863 
z
" transform="scale(0.015625)"/>
     </defs>
     <use xlink:href="#DejaVuSans-50"/>
     <use xlink:href="#DejaVuSans-6f" x="56.677734"/>
     <use xlink:href="#DejaVuSans-70" x="117.859375"/>
     <use xlink:href="#DejaVuSans-75" x="181.335938"/>
     <use xlink:href="#DejaVuSans-6c" x="244.714844"/>
     <use xlink:href="#DejaVuSans-61" x="272.498047"/>
     <use xlink:href="#DejaVuSans-74" x="333.777344"/>
     <use xlink:href="#DejaVuSans-69" x="372.986328"/>
     <use xlink:href="#DejaVuSans-6f" x="400.769531"/>
     <use xlink:href="#DejaVuSans-6e" x="461.951172"/>
     <use xlink:href="#DejaVuSans-27" x="525.330078"/>
     <use xlink:href="#DejaVuSans-73" x="552.820312"/>
     <use xlink:href="#DejaVuSans-20" x="604.919922"/>
     <use xlink:href="#DejaVuSans-61" x="636.707031"/>
     <use xlink:href="#DejaVuSans-76" x="697.986328"/>
     <use xlink:href="#DejaVuSans-65" x="757.166016"/>
     <use xlink:href="#DejaVuSans-72" x="818.689453"/>
     <use xlink:href="#DejaVuSans-61" x="859.802734"/>
     <use xlink:href="#DejaVuSans-67" x="921.082031"/>
     <use xlink:href="#DejaVuSans-65" x="984.558594"/>
     <use xlink:href="#DejaVuSans-20" x="1046.082031"/>
     <use xlink:href="#DejaVuSans-61" x="1077.869141"/>
     <use xlink:href="#DejaVuSans-6e" x="1139.148438"/>
     <use xlink:href="#DejaVuSans-64" x="1202.527344"/>
     <use xlink:href="#DejaVuSans-20" x="1266.003906"/>
     <use xlink:href="#DejaVuSans-62" x="1297.791016"/>
     <use xlink:href="#DejaVuSans-65" x="1361.267578"/>
     <use xlink:href="#DejaVuSans-73" x="1422.791016"/>
     <use xlink:href="#DejaVuSans-74" x="1474.890625"/>
     <use xlink:href="#DejaVuSans-20" x="1514.099609"/>
     <use xlink:href="#DejaVuSans-66" x="1545.886719"/>
     <use xlink:href="#DejaVuSans-69" x="1581.091797"/>
     <use xlink:href="#DejaVuSans-74" x="1608.875"/>
     <use xlink:href="#DejaVuSans-6e" x="1648.083984"/>
     <use xlink:href="#DejaVuSans-65" x="1711.462891"/>
     <use xlink:href="#DejaVuSans-73" x="1772.986328"/>
     <use xlink:href="#DejaVuSans-73" x="1825.085938"/>
    </g>
   </g>
   <g id="legend_1">
    <g id="patch_7">
     <path d="M 64.6 108.1845 
L 137.540625 108.1845 
Q 139.540625 108.1845 139.540625 106.1845 
L 139.540625 48.472 
Q 139.540625 46.472 137.540625 46.472 
L 64.6 46.472 
Q 62.6 46.472 62.6 48.472 
L 62.6 106.1845 
Q 62.6 108.1845 64.6 108.1845 
z
" style="fill: #ffffff; opacity: 0.8; stroke: #cccccc; stroke-linejoin: miter"/>
    </g>
    <g id="line2d_33">
     <path d="M 66.6 54.570438 
L 76.6 54.570438 
L 86.6 54.570438 
" style="fill: none; stroke: #0000ff; stroke-width: 1.5; stroke-linecap: square"/>
    </g>
    <g id="text_18">
     <!-- average -->
     <g transform="translate(94.6 58.070438)scale(0.1 -0.1)">
      <use xlink:href="#DejaVuSans-61"/>
      <use xlink:href="#DejaVuSans-76" x="61.279297"/>
      <use xlink:href="#DejaVuSans-65" x="120.458984"/>
      <use xlink:href="#DejaVuSans-72" x="181.982422"/>
      <use xlink:href="#DejaVuSans-61" x="223.095703"/>
      <use xlink:href="#DejaVuSans-67" x="284.375"/>
      <use xlink:href="#DejaVuSans-65" x="347.851562"/>
     </g>
    </g>
    <g id="line2d_34">
     <path d="M 66.6 69.248563 
L 76.6 69.248563 
L 86.6 69.248563 
" style="fill: none; stroke-dasharray: 9.6,2.4,1.5,2.4; stroke-dashoffset: 0; stroke: #008000; stroke-width: 1.5"/>
    </g>
    <g id="text_19">
     <!-- -1 sd -->
     <g transform="translate(94.6 72.748563)scale(0.1 -0.1)">
      <defs>
       <path id="DejaVuSans-2d" d="M 313 2009 
L 1997 2009 
L 1997 1497 
L 313 1497 
L 313 2009 
z
" transform="scale(0.015625)"/>
      </defs>
      <use xlink:href="#DejaVuSans-2d"/>
      <use xlink:href="#DejaVuSans-31" x="36.083984"/>
      <use xlink:href="#DejaVuSans-20" x="99.707031"/>
      <use xlink:href="#DejaVuSans-73" x="131.494141"/>
      <use xlink:href="#DejaVuSans-64" x="183.59375"/>
     </g>
    </g>
    <g id="line2d_35">
     <path d="M 66.6 83.926688 
L 76.6 83.926688 
L 86.6 83.926688 
" style="fill: none; stroke-dasharray: 9.6,2.4,1.5,2.4; stroke-dashoffset: 0; stroke: #008000; stroke-width: 1.5"/>
    </g>
    <g id="text_20">
     <!-- +1 sd -->
     <g transform="translate(94.6 87.426688)scale(0.1 -0.1)">
      <defs>
       <path id="DejaVuSans-2b" d="M 2944 4013 
L 2944 2272 
L 4684 2272 
L 4684 1741 
L 2944 1741 
L 2944 0 
L 2419 0 
L 2419 1741 
L 678 1741 
L 678 2272 
L 2419 2272 
L 2419 4013 
L 2944 4013 
z
" transform="scale(0.015625)"/>
      </defs>
      <use xlink:href="#DejaVuSans-2b"/>
      <use xlink:href="#DejaVuSans-31" x="83.789062"/>
      <use xlink:href="#DejaVuSans-20" x="147.412109"/>
      <use xlink:href="#DejaVuSans-73" x="179.199219"/>
      <use xlink:href="#DejaVuSans-64" x="231.298828"/>
     </g>
    </g>
    <g id="line2d_36">
     <path d="M 66.6 98.604813 
L 76.6 98.604813 
L 86.6 98.604813 
" style="fill: none; stroke: #ff0000; stroke-width: 1.5; stroke-linecap: square"/>
    </g>
    <g id="text_21">
     <!-- best -->
     <g transform="translate(94.6 102.104813)scale(0.1 -0.1)">
      <use xlink:href="#DejaVuSans-62"/>
      <use xlink:href="#DejaVuSans-65" x="63.476562"/>
      <use xlink:href="#DejaVuSans-73" x="125"/>
      <use xlink:href="#DejaVuSans-74" x="177.099609"/>
     </g>
    </g>
   </g>
  </g>
 </g>
 <defs>
  <clipPath id="paea4962174">
   <rect x="57.6" y="41.472" width="357.12" height="266.112"/>
  </clipPath>
 </defs>
</svg>
