<?xml version="1.0" encoding="UTF-8" standalone="no"?>
<!DOCTYPE svg PUBLIC "-//W3C//DTD SVG 1.1//EN"
 "http://www.w3.org/Graphics/SVG/1.1/DTD/svg11.dtd">
<!-- Generated by graphviz version 6.0.1 (20220911.1526)
 -->
<!-- Pages: 1 -->
<svg width="2019pt" height="386pt"
 viewBox="0.00 0.00 2019.00 386.11" xmlns="http://www.w3.org/2000/svg" xmlns:xlink="http://www.w3.org/1999/xlink">
<g id="graph0" class="graph" transform="scale(1 1) rotate(0) translate(4 382.11)">
<polygon fill="white" stroke="none" points="-4,4 -4,-382.11 2015,-382.11 2015,4 -4,4"/>
<!-- GHOST1 X -->
<g id="node1" class="node">
<title>GHOST1 X</title>
<ellipse fill="lightcoral" stroke="black" cx="43.13" cy="-331.45" rx="43.27" ry="43.27"/>
<text text-anchor="middle" x="43.13" y="-329.25" font-family="Times New Roman,serif" font-size="9.00">GHOST1 X</text>
</g>
<!-- GHOST1 Y -->
<g id="node2" class="node">
<title>GHOST1 Y</title>
<ellipse fill="lightcoral" stroke="black" cx="147.13" cy="-331.45" rx="42.35" ry="42.35"/>
<text text-anchor="middle" x="147.13" y="-329.25" font-family="Times New Roman,serif" font-size="9.00">GHOST1 Y</text>
</g>
<!-- GHOST2 X -->
<g id="node3" class="node">
<title>GHOST2 X</title>
<ellipse fill="lightcoral" stroke="black" cx="251.13" cy="-331.45" rx="43.27" ry="43.27"/>
<text text-anchor="middle" x="251.13" y="-329.25" font-family="Times New Roman,serif" font-size="9.00">GHOST2 X</text>
</g>
<!-- GHOST2 Y -->
<g id="node4" class="node">
<title>GHOST2 Y</title>
<ellipse fill="lightcoral" stroke="black" cx="355.13" cy="-331.45" rx="42.35" ry="42.35"/>
<text text-anchor="middle" x="355.13" y="-329.25" font-family="Times New Roman,serif" font-size="9.00">GHOST2 Y</text>
</g>
<!-- GHOST3 X -->
<g id="node5" class="node">
<title>GHOST3 X</title>
<ellipse fill="lightcoral" stroke="black" cx="459.13" cy="-331.45" rx="43.27" ry="43.27"/>
<text text-anchor="middle" x="459.13" y="-329.25" font-family="Times New Roman,serif" font-size="9.00">GHOST3 X</text>
</g>
<!-- LEFT -->
<g id="node25" class="node">
<title>LEFT</title>
<ellipse fill="lightblue" stroke="black" cx="459.13" cy="-205.64" rx="26.74" ry="26.74"/>
<text text-anchor="middle" x="459.13" y="-203.44" font-family="Times New Roman,serif" font-size="9.00">LEFT</text>
</g>
<!-- GHOST3 X&#45;&gt;LEFT -->
<g id="edge11" class="edge">
<title>GHOST3 X&#45;&gt;LEFT</title>
<path fill="none" stroke="red" stroke-width="0.25" d="M459.13,-288.19C459.13,-269.83 459.13,-248.91 459.13,-232.85"/>
</g>
<!-- GHOST3 Y -->
<g id="node6" class="node">
<title>GHOST3 Y</title>
<ellipse fill="lightcoral" stroke="black" cx="563.13" cy="-331.45" rx="42.35" ry="42.35"/>
<text text-anchor="middle" x="563.13" y="-329.25" font-family="Times New Roman,serif" font-size="9.00">GHOST3 Y</text>
</g>
<!-- GHOST4 X -->
<g id="node7" class="node">
<title>GHOST4 X</title>
<ellipse fill="lightcoral" stroke="black" cx="667.13" cy="-331.45" rx="43.27" ry="43.27"/>
<text text-anchor="middle" x="667.13" y="-329.25" font-family="Times New Roman,serif" font-size="9.00">GHOST4 X</text>
</g>
<!-- GHOST4 Y -->
<g id="node8" class="node">
<title>GHOST4 Y</title>
<ellipse fill="lightcoral" stroke="black" cx="771.13" cy="-331.45" rx="42.35" ry="42.35"/>
<text text-anchor="middle" x="771.13" y="-329.25" font-family="Times New Roman,serif" font-size="9.00">GHOST4 Y</text>
</g>
<!-- GHOST5 X -->
<g id="node9" class="node">
<title>GHOST5 X</title>
<ellipse fill="lightcoral" stroke="black" cx="875.13" cy="-331.45" rx="43.27" ry="43.27"/>
<text text-anchor="middle" x="875.13" y="-329.25" font-family="Times New Roman,serif" font-size="9.00">GHOST5 X</text>
</g>
<!-- DOWN -->
<g id="node23" class="node">
<title>DOWN</title>
<ellipse fill="lightblue" stroke="black" cx="875.13" cy="-205.64" rx="31.64" ry="31.64"/>
<text text-anchor="middle" x="875.13" y="-203.44" font-family="Times New Roman,serif" font-size="9.00">DOWN</text>
</g>
<!-- GHOST5 X&#45;&gt;DOWN -->
<g id="edge3" class="edge">
<title>GHOST5 X&#45;&gt;DOWN</title>
<path fill="none" stroke="red" stroke-width="1.75" d="M875.13,-288.19C875.13,-271.65 875.13,-253.04 875.13,-237.77"/>
</g>
<!-- GHOST5 Y -->
<g id="node10" class="node">
<title>GHOST5 Y</title>
<ellipse fill="lightcoral" stroke="black" cx="979.13" cy="-331.45" rx="42.35" ry="42.35"/>
<text text-anchor="middle" x="979.13" y="-329.25" font-family="Times New Roman,serif" font-size="9.00">GHOST5 Y</text>
</g>
<!-- RIGHT -->
<g id="node24" class="node">
<title>RIGHT</title>
<ellipse fill="lightblue" stroke="black" cx="1126.13" cy="-205.64" rx="31.64" ry="31.64"/>
<text text-anchor="middle" x="1126.13" y="-203.44" font-family="Times New Roman,serif" font-size="9.00">RIGHT</text>
</g>
<!-- GHOST5 Y&#45;&gt;RIGHT -->
<g id="edge5" class="edge">
<title>GHOST5 Y&#45;&gt;RIGHT</title>
<path fill="none" stroke="green" stroke-width="0.53" d="M1010.61,-302.51C1017.35,-296.61 1024.45,-290.46 1031.13,-284.78 1054.89,-264.58 1082.45,-242.01 1101.75,-226.34"/>
</g>
<!-- GHOST6 X -->
<g id="node11" class="node">
<title>GHOST6 X</title>
<ellipse fill="lightcoral" stroke="black" cx="1364.13" cy="-331.45" rx="43.27" ry="43.27"/>
<text text-anchor="middle" x="1364.13" y="-329.25" font-family="Times New Roman,serif" font-size="9.00">GHOST6 X</text>
</g>
<!-- GHOST6 Y -->
<g id="node12" class="node">
<title>GHOST6 Y</title>
<ellipse fill="lightcoral" stroke="black" cx="1082.13" cy="-331.45" rx="42.35" ry="42.35"/>
<text text-anchor="middle" x="1082.13" y="-329.25" font-family="Times New Roman,serif" font-size="9.00">GHOST6 Y</text>
</g>
<!-- GHOST6 Y&#45;&gt;RIGHT -->
<g id="edge2" class="edge">
<title>GHOST6 Y&#45;&gt;RIGHT</title>
<path fill="none" stroke="green" stroke-width="3.08" d="M1096.06,-291.27C1102.45,-273.28 1109.9,-252.31 1115.79,-235.75"/>
</g>
<!-- GHOST7 X -->
<g id="node13" class="node">
<title>GHOST7 X</title>
<ellipse fill="lightcoral" stroke="black" cx="1355.13" cy="-205.64" rx="43.27" ry="43.27"/>
<text text-anchor="middle" x="1355.13" y="-203.44" font-family="Times New Roman,serif" font-size="9.00">GHOST7 X</text>
</g>
<!-- 7753 -->
<g id="node27" class="node">
<title>7753</title>
<ellipse fill="lightgreen" stroke="black" cx="1427.13" cy="-101.76" rx="25" ry="25"/>
<text text-anchor="middle" x="1427.13" y="-99.56" font-family="Times New Roman,serif" font-size="9.00">7753</text>
</g>
<!-- GHOST7 X&#45;&gt;7753 -->
<g id="edge12" class="edge">
<title>GHOST7 X&#45;&gt;7753</title>
<path fill="none" stroke="red" stroke-width="0.16" d="M1379.71,-169.87C1390.87,-154.07 1403.67,-135.96 1413.15,-122.54"/>
</g>
<!-- GHOST7 Y -->
<g id="node14" class="node">
<title>GHOST7 Y</title>
<ellipse fill="lightcoral" stroke="black" cx="1572.13" cy="-331.45" rx="42.35" ry="42.35"/>
<text text-anchor="middle" x="1572.13" y="-329.25" font-family="Times New Roman,serif" font-size="9.00">GHOST7 Y</text>
</g>
<!-- GHOST8 X -->
<g id="node15" class="node">
<title>GHOST8 X</title>
<ellipse fill="lightcoral" stroke="black" cx="1468.13" cy="-331.45" rx="43.27" ry="43.27"/>
<text text-anchor="middle" x="1468.13" y="-329.25" font-family="Times New Roman,serif" font-size="9.00">GHOST8 X</text>
</g>
<!-- 6881 -->
<g id="node26" class="node">
<title>6881</title>
<ellipse fill="lightgreen" stroke="black" cx="1494.13" cy="-101.76" rx="25" ry="25"/>
<text text-anchor="middle" x="1494.13" y="-99.56" font-family="Times New Roman,serif" font-size="9.00">6881</text>
</g>
<!-- GHOST8 X&#45;&gt;6881 -->
<g id="edge7" class="edge">
<title>GHOST8 X&#45;&gt;6881</title>
<path fill="none" stroke="green" stroke-width="0.19" d="M1472.93,-288.42C1478.38,-240.75 1487.06,-164.68 1491.43,-126.4"/>
</g>
<!-- 6541 -->
<g id="node28" class="node">
<title>6541</title>
<ellipse fill="lightgreen" stroke="black" cx="1441.13" cy="-205.64" rx="25" ry="25"/>
<text text-anchor="middle" x="1441.13" y="-203.44" font-family="Times New Roman,serif" font-size="9.00">6541</text>
</g>
<!-- GHOST8 X&#45;&gt;6541 -->
<g id="edge6" class="edge">
<title>GHOST8 X&#45;&gt;6541</title>
<path fill="none" stroke="red" stroke-width="0.29" d="M1459.14,-289.22C1454.85,-269.53 1449.86,-246.68 1446.23,-230.01"/>
</g>
<!-- GHOST8 Y -->
<g id="node16" class="node">
<title>GHOST8 Y</title>
<ellipse fill="lightcoral" stroke="black" cx="1675.13" cy="-331.45" rx="42.35" ry="42.35"/>
<text text-anchor="middle" x="1675.13" y="-329.25" font-family="Times New Roman,serif" font-size="9.00">GHOST8 Y</text>
</g>
<!-- PACMAN X -->
<g id="node17" class="node">
<title>PACMAN X</title>
<ellipse fill="lightcoral" stroke="black" cx="1782.13" cy="-331.45" rx="46.84" ry="46.84"/>
<text text-anchor="middle" x="1782.13" y="-329.25" font-family="Times New Roman,serif" font-size="9.00">PACMAN X</text>
</g>
<!-- PACMAN Y -->
<g id="node18" class="node">
<title>PACMAN Y</title>
<ellipse fill="lightcoral" stroke="black" cx="1893.13" cy="-331.45" rx="45.92" ry="45.92"/>
<text text-anchor="middle" x="1893.13" y="-329.25" font-family="Times New Roman,serif" font-size="9.00">PACMAN Y</text>
</g>
<!-- ND X -->
<g id="node19" class="node">
<title>ND X</title>
<ellipse fill="lightcoral" stroke="black" cx="1170.13" cy="-331.45" rx="27.65" ry="27.65"/>
<text text-anchor="middle" x="1170.13" y="-329.25" font-family="Times New Roman,serif" font-size="9.00">ND X</text>
</g>
<!-- ND X&#45;&gt;RIGHT -->
<g id="edge4" class="edge">
<title>ND X&#45;&gt;RIGHT</title>
<path fill="none" stroke="red" stroke-width="0.44" d="M1161.12,-305.09C1153.98,-285 1144,-256.91 1136.52,-235.87"/>
</g>
<!-- ND Y -->
<g id="node20" class="node">
<title>ND Y</title>
<ellipse fill="lightcoral" stroke="black" cx="1984.13" cy="-331.45" rx="26.74" ry="26.74"/>
<text text-anchor="middle" x="1984.13" y="-329.25" font-family="Times New Roman,serif" font-size="9.00">ND Y</text>
</g>
<!-- IN_INTERS -->
<g id="node21" class="node">
<title>IN_INTERS</title>
<ellipse fill="lightcoral" stroke="black" cx="1259.13" cy="-331.45" rx="43.68" ry="43.68"/>
<text text-anchor="middle" x="1259.13" y="-329.25" font-family="Times New Roman,serif" font-size="9.00">IN_INTERS</text>
</g>
<!-- IN_INTERS&#45;&gt;RIGHT -->
<g id="edge1" class="edge">
<title>IN_INTERS&#45;&gt;RIGHT</title>
<path fill="none" stroke="green" stroke-width="2.26" d="M1227.28,-300.79C1203.15,-278.33 1170.57,-248.01 1148.99,-227.92"/>
</g>
<!-- UP -->
<g id="node22" class="node">
<title>UP</title>
<ellipse fill="lightblue" stroke="black" cx="1460.13" cy="-20.51" rx="20.51" ry="20.51"/>
<text text-anchor="middle" x="1460.13" y="-18.31" font-family="Times New Roman,serif" font-size="9.00">UP</text>
</g>
<!-- 6881&#45;&gt;UP -->
<g id="edge8" class="edge">
<title>6881&#45;&gt;UP</title>
<path fill="none" stroke="green" stroke-width="0.38" d="M1484.66,-78.68C1479.4,-66.41 1472.92,-51.32 1467.95,-39.72"/>
</g>
<!-- 7753&#45;&gt;UP -->
<g id="edge10" class="edge">
<title>7753&#45;&gt;UP</title>
<path fill="none" stroke="green" stroke-width="0.46" d="M1436.33,-78.68C1441.44,-66.41 1447.72,-51.32 1452.55,-39.72"/>
</g>
<!-- 6541&#45;&gt;7753 -->
<g id="edge9" class="edge">
<title>6541&#45;&gt;7753</title>
<path fill="none" stroke="red" stroke-width="0.38" d="M1437.89,-181.01C1435.64,-164.67 1432.66,-143.01 1430.41,-126.62"/>
</g>
</g>
</svg>
