<?xml version="1.0" encoding="UTF-8" standalone="no"?>
<!DOCTYPE svg PUBLIC "-//W3C//DTD SVG 1.1//EN"
 "http://www.w3.org/Graphics/SVG/1.1/DTD/svg11.dtd">
<!-- Generated by graphviz version 4.0.0 (20220529.0937)
 -->
<!-- Pages: 1 -->
<svg width="2110pt" height="508pt"
 viewBox="0.00 0.00 2109.94 508.38" xmlns="http://www.w3.org/2000/svg" xmlns:xlink="http://www.w3.org/1999/xlink">
<g id="graph0" class="graph" transform="scale(1 1) rotate(0) translate(4 504.38)">
<polygon fill="white" stroke="transparent" points="-4,4 -4,-504.38 2105.94,-504.38 2105.94,4 -4,4"/>
<!-- GHOST1 X -->
<g id="node1" class="node">
<title>GHOST1 X</title>
<ellipse fill="lightcoral" stroke="black" cx="454.81" cy="-331.45" rx="43.27" ry="43.27"/>
<text text-anchor="middle" x="454.81" y="-329.25" font-family="Times New Roman,serif" font-size="9.00">GHOST1 X</text>
</g>
<!-- UP -->
<g id="node22" class="node">
<title>UP</title>
<ellipse fill="lightblue" stroke="black" cx="454.81" cy="-216.96" rx="20.51" ry="20.51"/>
<text text-anchor="middle" x="454.81" y="-214.76" font-family="Times New Roman,serif" font-size="9.00">UP</text>
</g>
<!-- GHOST1 X&#45;&gt;UP -->
<g id="edge1" class="edge">
<title>GHOST1 X&#45;&gt;UP</title>
<path fill="none" stroke="red" stroke-width="0.33" d="M454.81,-288.24C454.81,-270.91 454.81,-251.68 454.81,-237.72"/>
</g>
<!-- LEFT -->
<g id="node25" class="node">
<title>LEFT</title>
<ellipse fill="lightblue" stroke="black" cx="1190.81" cy="-216.96" rx="26.74" ry="26.74"/>
<text text-anchor="middle" x="1190.81" y="-214.76" font-family="Times New Roman,serif" font-size="9.00">LEFT</text>
</g>
<!-- GHOST1 X&#45;&gt;LEFT -->
<g id="edge2" class="edge">
<title>GHOST1 X&#45;&gt;LEFT</title>
<path fill="none" stroke="green" stroke-width="0.17" d="M483.91,-299.38C490.86,-293.62 498.65,-288.31 506.81,-284.78 628.18,-232.16 1052.5,-220.56 1163.87,-218.4"/>
</g>
<!-- GHOST1 Y -->
<g id="node2" class="node">
<title>GHOST1 Y</title>
<ellipse fill="lightcoral" stroke="black" cx="662.81" cy="-331.45" rx="42.35" ry="42.35"/>
<text text-anchor="middle" x="662.81" y="-329.25" font-family="Times New Roman,serif" font-size="9.00">GHOST1 Y</text>
</g>
<!-- GHOST1 Y&#45;&gt;UP -->
<g id="edge3" class="edge">
<title>GHOST1 Y&#45;&gt;UP</title>
<path fill="none" stroke="red" stroke-width="0.35" d="M632.73,-301.21C625.84,-295.34 618.33,-289.52 610.81,-284.78 565.08,-255.94 504.75,-234.11 474.25,-224.06"/>
</g>
<!-- RIGHT -->
<g id="node24" class="node">
<title>RIGHT</title>
<ellipse fill="lightblue" stroke="black" cx="1575.81" cy="-216.96" rx="31.64" ry="31.64"/>
<text text-anchor="middle" x="1575.81" y="-214.76" font-family="Times New Roman,serif" font-size="9.00">RIGHT</text>
</g>
<!-- GHOST1 Y&#45;&gt;RIGHT -->
<g id="edge4" class="edge">
<title>GHOST1 Y&#45;&gt;RIGHT</title>
<path fill="none" stroke="red" stroke-width="0.14" d="M691.28,-299.68C698.37,-293.75 706.38,-288.29 714.81,-284.78 820.06,-240.84 1113.1,-257.79 1226.81,-248.78 1343.83,-239.5 1482.77,-226.69 1544.06,-220.95"/>
</g>
<!-- GHOST2 X -->
<g id="node3" class="node">
<title>GHOST2 X</title>
<ellipse fill="lightcoral" stroke="black" cx="1443.81" cy="-457.25" rx="43.27" ry="43.27"/>
<text text-anchor="middle" x="1443.81" y="-455.05" font-family="Times New Roman,serif" font-size="9.00">GHOST2 X</text>
</g>
<!-- GHOST2 X&#45;&gt;RIGHT -->
<g id="edge5" class="edge">
<title>GHOST2 X&#45;&gt;RIGHT</title>
<path fill="none" stroke="green" stroke-width="0.3" d="M1483.43,-439.44C1508.77,-426.52 1539.95,-406.11 1556.81,-378.11 1580.78,-338.3 1581.65,-282.77 1579.3,-248.66"/>
</g>
<!-- 2024 -->
<g id="node27" class="node">
<title>2024</title>
<ellipse fill="lightgreen" stroke="black" cx="1317.81" cy="-331.45" rx="25" ry="25"/>
<text text-anchor="middle" x="1317.81" y="-329.25" font-family="Times New Roman,serif" font-size="9.00">2024</text>
</g>
<!-- GHOST2 X&#45;&gt;2024 -->
<g id="edge46" class="edge">
<title>GHOST2 X&#45;&gt;2024</title>
<path fill="none" stroke="red" stroke-width="0.35" d="M1409.83,-430.47C1391.72,-415.99 1369.58,-397.07 1351.81,-378.11 1344.37,-370.18 1337.04,-360.64 1331.11,-352.33"/>
</g>
<!-- GHOST2 Y -->
<g id="node4" class="node">
<title>GHOST2 Y</title>
<ellipse fill="lightcoral" stroke="black" cx="1402.81" cy="-331.45" rx="42.35" ry="42.35"/>
<text text-anchor="middle" x="1402.81" y="-329.25" font-family="Times New Roman,serif" font-size="9.00">GHOST2 Y</text>
</g>
<!-- DOWN -->
<g id="node23" class="node">
<title>DOWN</title>
<ellipse fill="lightblue" stroke="black" cx="688.81" cy="-31.82" rx="31.64" ry="31.64"/>
<text text-anchor="middle" x="688.81" y="-29.62" font-family="Times New Roman,serif" font-size="9.00">DOWN</text>
</g>
<!-- GHOST2 Y&#45;&gt;DOWN -->
<g id="edge6" class="edge">
<title>GHOST2 Y&#45;&gt;DOWN</title>
<path fill="none" stroke="red" stroke-width="0.37" d="M1373.3,-300.92C1340.05,-268.96 1283.25,-218.13 1226.81,-185.14 1052.7,-83.36 806.87,-46.46 720.38,-36.17"/>
</g>
<!-- GHOST2 Y&#45;&gt;RIGHT -->
<g id="edge7" class="edge">
<title>GHOST2 Y&#45;&gt;RIGHT</title>
<path fill="none" stroke="red" stroke-width="0.85" d="M1433.25,-301.77C1440.12,-295.86 1447.53,-289.89 1454.81,-284.78 1484.85,-263.66 1522.2,-243.92 1547.39,-231.45"/>
</g>
<!-- GHOST2 Y&#45;&gt;LEFT -->
<g id="edge8" class="edge">
<title>GHOST2 Y&#45;&gt;LEFT</title>
<path fill="none" stroke="green" stroke-width="0.23" d="M1373.14,-300.89C1366.45,-295.1 1359.15,-289.4 1351.81,-284.78 1307.37,-256.8 1249.22,-236.06 1216.35,-225.59"/>
</g>
<!-- GHOST3 X -->
<g id="node5" class="node">
<title>GHOST3 X</title>
<ellipse fill="lightcoral" stroke="black" cx="1954.81" cy="-331.45" rx="43.27" ry="43.27"/>
<text text-anchor="middle" x="1954.81" y="-329.25" font-family="Times New Roman,serif" font-size="9.00">GHOST3 X</text>
</g>
<!-- GHOST3 X&#45;&gt;RIGHT -->
<g id="edge9" class="edge">
<title>GHOST3 X&#45;&gt;RIGHT</title>
<path fill="none" stroke="red" stroke-width="0.38" d="M1925.17,-299.68C1918.31,-293.97 1910.69,-288.61 1902.81,-284.78 1824.33,-246.62 1795.23,-266.56 1709.81,-248.78 1674.28,-241.38 1633.7,-231.9 1606.6,-225.42"/>
</g>
<!-- 1420 -->
<g id="node29" class="node">
<title>1420</title>
<ellipse fill="lightgreen" stroke="black" cx="981.81" cy="-124.39" rx="25" ry="25"/>
<text text-anchor="middle" x="981.81" y="-122.19" font-family="Times New Roman,serif" font-size="9.00">1420</text>
</g>
<!-- GHOST3 X&#45;&gt;1420 -->
<g id="edge49" class="edge">
<title>GHOST3 X&#45;&gt;1420</title>
<path fill="none" stroke="red" stroke-width="0.12" d="M1924.41,-300.34C1917.66,-294.65 1910.28,-289.13 1902.81,-284.78 1786.53,-216.97 1748.32,-213.79 1616.81,-185.14 1383.38,-134.28 1092.39,-126.71 1006.65,-125.58"/>
</g>
<!-- GHOST3 Y -->
<g id="node6" class="node">
<title>GHOST3 Y</title>
<ellipse fill="lightcoral" stroke="black" cx="1674.81" cy="-457.25" rx="42.35" ry="42.35"/>
<text text-anchor="middle" x="1674.81" y="-455.05" font-family="Times New Roman,serif" font-size="9.00">GHOST3 Y</text>
</g>
<!-- GHOST3 Y&#45;&gt;RIGHT -->
<g id="edge10" class="edge">
<title>GHOST3 Y&#45;&gt;RIGHT</title>
<path fill="none" stroke="green" stroke-width="0.49" d="M1678.23,-414.93C1679.39,-378.54 1676.49,-325.18 1654.81,-284.78 1643.09,-262.93 1621.05,-245.22 1603.22,-233.54"/>
</g>
<!-- 1122 -->
<g id="node26" class="node">
<title>1122</title>
<ellipse fill="lightgreen" stroke="black" cx="1726.81" cy="-331.45" rx="25" ry="25"/>
<text text-anchor="middle" x="1726.81" y="-329.25" font-family="Times New Roman,serif" font-size="9.00">1122</text>
</g>
<!-- GHOST3 Y&#45;&gt;1122 -->
<g id="edge42" class="edge">
<title>GHOST3 Y&#45;&gt;1122</title>
<path fill="none" stroke="green" stroke-width="0.14" d="M1690.97,-417.76C1699.68,-397.03 1710.11,-372.2 1717.47,-354.68"/>
</g>
<!-- GHOST4 X -->
<g id="node7" class="node">
<title>GHOST4 X</title>
<ellipse fill="lightcoral" stroke="black" cx="558.81" cy="-331.45" rx="43.27" ry="43.27"/>
<text text-anchor="middle" x="558.81" y="-329.25" font-family="Times New Roman,serif" font-size="9.00">GHOST4 X</text>
</g>
<!-- GHOST4 X&#45;&gt;UP -->
<g id="edge11" class="edge">
<title>GHOST4 X&#45;&gt;UP</title>
<path fill="none" stroke="green" stroke-width="0.9" d="M529.84,-299.11C509.76,-277.4 483.95,-249.48 468.43,-232.69"/>
</g>
<!-- GHOST4 X&#45;&gt;DOWN -->
<g id="edge12" class="edge">
<title>GHOST4 X&#45;&gt;DOWN</title>
<path fill="none" stroke="red" stroke-width="0.17" d="M575.8,-291.54C602.3,-230.87 652.84,-115.15 676.29,-61.48"/>
</g>
<!-- GHOST4 X&#45;&gt;RIGHT -->
<g id="edge13" class="edge">
<title>GHOST4 X&#45;&gt;RIGHT</title>
<path fill="none" stroke="red" stroke-width="0.18" d="M588.16,-299.37C595.32,-293.53 603.36,-288.2 611.81,-284.78 738.69,-233.38 1090.27,-258.8 1226.81,-248.78 1343.89,-240.18 1482.79,-227.03 1544.07,-221.08"/>
</g>
<!-- GHOST4 Y -->
<g id="node8" class="node">
<title>GHOST4 Y</title>
<ellipse fill="lightcoral" stroke="black" cx="139.81" cy="-331.45" rx="42.35" ry="42.35"/>
<text text-anchor="middle" x="139.81" y="-329.25" font-family="Times New Roman,serif" font-size="9.00">GHOST4 Y</text>
</g>
<!-- GHOST4 Y&#45;&gt;UP -->
<g id="edge14" class="edge">
<title>GHOST4 Y&#45;&gt;UP</title>
<path fill="none" stroke="green" stroke-width="0.69" d="M170.42,-301.56C178.24,-295.31 186.96,-289.25 195.81,-284.78 278.27,-243.06 389.03,-225.82 434.27,-220.22"/>
</g>
<!-- 2637 -->
<g id="node30" class="node">
<title>2637</title>
<ellipse fill="lightgreen" stroke="black" cx="244.81" cy="-124.39" rx="25" ry="25"/>
<text text-anchor="middle" x="244.81" y="-122.19" font-family="Times New Roman,serif" font-size="9.00">2637</text>
</g>
<!-- GHOST4 Y&#45;&gt;2637 -->
<g id="edge53" class="edge">
<title>GHOST4 Y&#45;&gt;2637</title>
<path fill="none" stroke="green" stroke-width="0.14" d="M158.82,-293.31C180.75,-250.49 216.04,-181.56 233.82,-146.84"/>
</g>
<!-- GHOST5 X -->
<g id="node9" class="node">
<title>GHOST5 X</title>
<ellipse fill="lightcoral" stroke="black" cx="2058.81" cy="-331.45" rx="43.27" ry="43.27"/>
<text text-anchor="middle" x="2058.81" y="-329.25" font-family="Times New Roman,serif" font-size="9.00">GHOST5 X</text>
</g>
<!-- GHOST5 X&#45;&gt;RIGHT -->
<g id="edge15" class="edge">
<title>GHOST5 X&#45;&gt;RIGHT</title>
<path fill="none" stroke="green" stroke-width="0.3" d="M2029.54,-299.73C2022.6,-293.95 2014.86,-288.54 2006.81,-284.78 1935.29,-251.35 1694.37,-228.05 1607.43,-220.55"/>
</g>
<!-- GHOST5 X&#45;&gt;1420 -->
<g id="edge48" class="edge">
<title>GHOST5 X&#45;&gt;1420</title>
<path fill="none" stroke="green" stroke-width="0.61" d="M2028.34,-300.46C2021.59,-294.77 2014.23,-289.22 2006.81,-284.78 1898.1,-219.77 1863.47,-212.52 1739.81,-185.14 1457.23,-122.56 1102.68,-123.35 1006.71,-124.86"/>
</g>
<!-- GHOST5 Y -->
<g id="node10" class="node">
<title>GHOST5 Y</title>
<ellipse fill="lightcoral" stroke="black" cx="1505.81" cy="-331.45" rx="42.35" ry="42.35"/>
<text text-anchor="middle" x="1505.81" y="-329.25" font-family="Times New Roman,serif" font-size="9.00">GHOST5 Y</text>
</g>
<!-- GHOST5 Y&#45;&gt;RIGHT -->
<g id="edge16" class="edge">
<title>GHOST5 Y&#45;&gt;RIGHT</title>
<path fill="none" stroke="green" stroke-width="0.26" d="M1527.95,-294.85C1538.13,-278.5 1549.98,-259.45 1559.35,-244.4"/>
</g>
<!-- GHOST5 Y&#45;&gt;LEFT -->
<g id="edge17" class="edge">
<title>GHOST5 Y&#45;&gt;LEFT</title>
<path fill="none" stroke="green" stroke-width="0.19" d="M1476.54,-300.54C1469.54,-294.63 1461.78,-288.98 1453.81,-284.78 1374.19,-242.85 1266.98,-226.29 1217.66,-220.58"/>
</g>
<!-- GHOST6 X -->
<g id="node11" class="node">
<title>GHOST6 X</title>
<ellipse fill="lightcoral" stroke="black" cx="289.81" cy="-457.25" rx="43.27" ry="43.27"/>
<text text-anchor="middle" x="289.81" y="-455.05" font-family="Times New Roman,serif" font-size="9.00">GHOST6 X</text>
</g>
<!-- GHOST6 X&#45;&gt;UP -->
<g id="edge18" class="edge">
<title>GHOST6 X&#45;&gt;UP</title>
<path fill="none" stroke="green" stroke-width="0.93" d="M258.93,-426.46C247.09,-412.96 234.97,-396.01 228.81,-378.11 215.31,-338.89 203.98,-318.01 228.81,-284.78 253.91,-251.18 383.73,-228.54 434.46,-220.86"/>
</g>
<!-- GHOST6 X&#45;&gt;DOWN -->
<g id="edge19" class="edge">
<title>GHOST6 X&#45;&gt;DOWN</title>
<path fill="none" stroke="red" stroke-width="0.24" d="M247.02,-450.39C176.98,-439.83 42.82,-415.19 14.81,-378.11 -10.2,-345.01 2.43,-324.37 14.81,-284.78 45.18,-187.58 61.35,-150.1 149.81,-99.64 237.34,-49.71 554.47,-36.57 656.76,-33.6"/>
</g>
<!-- GHOST6 X&#45;&gt;LEFT -->
<g id="edge20" class="edge">
<title>GHOST6 X&#45;&gt;LEFT</title>
<path fill="none" stroke="red" stroke-width="0.33" d="M333.2,-456.07C511.76,-454.9 1183.24,-446 1245.81,-378.11 1273.92,-347.61 1259.81,-323.83 1245.81,-284.78 1238.86,-265.4 1223.59,-247.63 1210.91,-235.29"/>
</g>
<!-- 2282 -->
<g id="node28" class="node">
<title>2282</title>
<ellipse fill="lightgreen" stroke="black" cx="368.81" cy="-331.45" rx="25" ry="25"/>
<text text-anchor="middle" x="368.81" y="-329.25" font-family="Times New Roman,serif" font-size="9.00">2282</text>
</g>
<!-- GHOST6 X&#45;&gt;2282 -->
<g id="edge50" class="edge">
<title>GHOST6 X&#45;&gt;2282</title>
<path fill="none" stroke="green" stroke-width="0.13" d="M312.66,-420.44C326.69,-398.44 344.16,-371.07 355.85,-352.75"/>
</g>
<!-- GHOST6 Y -->
<g id="node12" class="node">
<title>GHOST6 Y</title>
<ellipse fill="lightcoral" stroke="black" cx="1084.81" cy="-331.45" rx="42.35" ry="42.35"/>
<text text-anchor="middle" x="1084.81" y="-329.25" font-family="Times New Roman,serif" font-size="9.00">GHOST6 Y</text>
</g>
<!-- GHOST6 Y&#45;&gt;LEFT -->
<g id="edge21" class="edge">
<title>GHOST6 Y&#45;&gt;LEFT</title>
<path fill="none" stroke="red" stroke-width="1.04" d="M1113.49,-300C1132.38,-279.96 1156.52,-254.34 1172.76,-237.11"/>
</g>
<!-- GHOST7 X -->
<g id="node13" class="node">
<title>GHOST7 X</title>
<ellipse fill="lightcoral" stroke="black" cx="766.81" cy="-331.45" rx="43.27" ry="43.27"/>
<text text-anchor="middle" x="766.81" y="-329.25" font-family="Times New Roman,serif" font-size="9.00">GHOST7 X</text>
</g>
<!-- GHOST7 X&#45;&gt;UP -->
<g id="edge22" class="edge">
<title>GHOST7 X&#45;&gt;UP</title>
<path fill="none" stroke="red" stroke-width="1.19" d="M736.61,-300.33C729.56,-294.52 721.77,-288.94 713.81,-284.78 631.71,-241.84 520.28,-225.25 475.09,-220.01"/>
</g>
<!-- GHOST7 X&#45;&gt;DOWN -->
<g id="edge23" class="edge">
<title>GHOST7 X&#45;&gt;DOWN</title>
<path fill="none" stroke="green" stroke-width="0.32" d="M756.04,-289.37C740.12,-228.62 710.66,-116.22 696.63,-62.68"/>
</g>
<!-- GHOST7 X&#45;&gt;RIGHT -->
<g id="edge24" class="edge">
<title>GHOST7 X&#45;&gt;RIGHT</title>
<path fill="none" stroke="red" stroke-width="0.21" d="M795.89,-299.32C802.84,-293.57 810.63,-288.27 818.81,-284.78 902.49,-248.97 1136.14,-256.78 1226.81,-248.78 1343.75,-238.45 1482.73,-226.18 1544.05,-220.76"/>
</g>
<!-- GHOST7 X&#45;&gt;LEFT -->
<g id="edge25" class="edge">
<title>GHOST7 X&#45;&gt;LEFT</title>
<path fill="none" stroke="green" stroke-width="1.12" d="M796.42,-299.64C803.28,-293.94 810.91,-288.59 818.81,-284.78 937.91,-227.36 1099.99,-218.93 1163.6,-217.95"/>
</g>
<!-- GHOST7 Y -->
<g id="node14" class="node">
<title>GHOST7 Y</title>
<ellipse fill="lightcoral" stroke="black" cx="1778.81" cy="-457.25" rx="42.35" ry="42.35"/>
<text text-anchor="middle" x="1778.81" y="-455.05" font-family="Times New Roman,serif" font-size="9.00">GHOST7 Y</text>
</g>
<!-- GHOST7 Y&#45;&gt;RIGHT -->
<g id="edge26" class="edge">
<title>GHOST7 Y&#45;&gt;RIGHT</title>
<path fill="none" stroke="red" stroke-width="0.9" d="M1785.85,-415.39C1789.99,-377.53 1789.69,-321.66 1760.81,-284.78 1741.44,-260.04 1654.34,-236.34 1606.88,-224.97"/>
</g>
<!-- GHOST7 Y&#45;&gt;1122 -->
<g id="edge45" class="edge">
<title>GHOST7 Y&#45;&gt;1122</title>
<path fill="none" stroke="red" stroke-width="0.29" d="M1762.64,-417.76C1753.93,-397.03 1743.5,-372.2 1736.15,-354.68"/>
</g>
<!-- GHOST8 X -->
<g id="node15" class="node">
<title>GHOST8 X</title>
<ellipse fill="lightcoral" stroke="black" cx="1850.81" cy="-331.45" rx="43.27" ry="43.27"/>
<text text-anchor="middle" x="1850.81" y="-329.25" font-family="Times New Roman,serif" font-size="9.00">GHOST8 X</text>
</g>
<!-- GHOST8 X&#45;&gt;DOWN -->
<g id="edge27" class="edge">
<title>GHOST8 X&#45;&gt;DOWN</title>
<path fill="none" stroke="red" stroke-width="0.66" d="M1817.51,-303.38C1774.13,-269.69 1694.63,-213.2 1616.81,-185.14 1280.83,-64 841.45,-38.67 720.69,-33.86"/>
</g>
<!-- GHOST8 X&#45;&gt;RIGHT -->
<g id="edge28" class="edge">
<title>GHOST8 X&#45;&gt;RIGHT</title>
<path fill="none" stroke="green" stroke-width="0.28" d="M1819.14,-301.62C1811.26,-295.45 1802.55,-289.4 1793.81,-284.78 1731.69,-251.93 1650.91,-232.51 1607.21,-223.69"/>
</g>
<!-- GHOST8 X&#45;&gt;LEFT -->
<g id="edge29" class="edge">
<title>GHOST8 X&#45;&gt;LEFT</title>
<path fill="none" stroke="red" stroke-width="0.18" d="M1814.38,-308.26C1798.47,-299.56 1779.26,-290.35 1760.81,-284.78 1708.22,-268.91 1323.35,-230.8 1217.62,-220.54"/>
</g>
<!-- GHOST8 Y -->
<g id="node16" class="node">
<title>GHOST8 Y</title>
<ellipse fill="lightcoral" stroke="black" cx="981.81" cy="-331.45" rx="42.35" ry="42.35"/>
<text text-anchor="middle" x="981.81" y="-329.25" font-family="Times New Roman,serif" font-size="9.00">GHOST8 Y</text>
</g>
<!-- GHOST8 Y&#45;&gt;DOWN -->
<g id="edge30" class="edge">
<title>GHOST8 Y&#45;&gt;DOWN</title>
<path fill="none" stroke="green" stroke-width="1.21" d="M952.37,-300.55C893.6,-240.84 762.89,-108.07 710.83,-55.19"/>
</g>
<!-- GHOST8 Y&#45;&gt;RIGHT -->
<g id="edge31" class="edge">
<title>GHOST8 Y&#45;&gt;RIGHT</title>
<path fill="none" stroke="green" stroke-width="0.29" d="M1010.42,-300.01C1017.51,-294.06 1025.47,-288.51 1033.81,-284.78 1080.57,-263.8 1435.08,-230.58 1544.04,-220.77"/>
</g>
<!-- GHOST8 Y&#45;&gt;LEFT -->
<g id="edge32" class="edge">
<title>GHOST8 Y&#45;&gt;LEFT</title>
<path fill="none" stroke="green" stroke-width="0.41" d="M1011.87,-301.2C1018.76,-295.32 1026.28,-289.51 1033.81,-284.78 1077.06,-257.57 1133.31,-236.69 1165.4,-225.96"/>
</g>
<!-- GHOST8 Y&#45;&gt;1420 -->
<g id="edge55" class="edge">
<title>GHOST8 Y&#45;&gt;1420</title>
<path fill="none" stroke="red" stroke-width="0.13" d="M981.81,-288.95C981.81,-246.94 981.81,-183.43 981.81,-149.22"/>
</g>
<!-- PACMAN X -->
<g id="node17" class="node">
<title>PACMAN X</title>
<ellipse fill="lightcoral" stroke="black" cx="874.81" cy="-331.45" rx="46.84" ry="46.84"/>
<text text-anchor="middle" x="874.81" y="-329.25" font-family="Times New Roman,serif" font-size="9.00">PACMAN X</text>
</g>
<!-- PACMAN X&#45;&gt;UP -->
<g id="edge33" class="edge">
<title>PACMAN X&#45;&gt;UP</title>
<path fill="none" stroke="red" stroke-width="0.18" d="M841.4,-298.75C834.35,-293.4 826.66,-288.41 818.81,-284.78 697.49,-228.72 533.02,-219.64 475.6,-218.21"/>
</g>
<!-- PACMAN X&#45;&gt;RIGHT -->
<g id="edge34" class="edge">
<title>PACMAN X&#45;&gt;RIGHT</title>
<path fill="none" stroke="green" stroke-width="0.45" d="M908,-298.26C915.06,-292.95 922.81,-288.1 930.81,-284.78 959.49,-272.86 1418.31,-231.81 1544.12,-220.73"/>
</g>
<!-- PACMAN Y -->
<g id="node18" class="node">
<title>PACMAN Y</title>
<ellipse fill="lightcoral" stroke="black" cx="1190.81" cy="-331.45" rx="45.92" ry="45.92"/>
<text text-anchor="middle" x="1190.81" y="-329.25" font-family="Times New Roman,serif" font-size="9.00">PACMAN Y</text>
</g>
<!-- PACMAN Y&#45;&gt;LEFT -->
<g id="edge35" class="edge">
<title>PACMAN Y&#45;&gt;LEFT</title>
<path fill="none" stroke="green" stroke-width="0.26" d="M1190.81,-285.34C1190.81,-271.28 1190.81,-256.26 1190.81,-243.97"/>
</g>
<!-- ND X -->
<g id="node19" class="node">
<title>ND X</title>
<ellipse fill="lightcoral" stroke="black" cx="51.81" cy="-331.45" rx="27.65" ry="27.65"/>
<text text-anchor="middle" x="51.81" y="-329.25" font-family="Times New Roman,serif" font-size="9.00">ND X</text>
</g>
<!-- ND X&#45;&gt;UP -->
<g id="edge36" class="edge">
<title>ND X&#45;&gt;UP</title>
<path fill="none" stroke="green" stroke-width="0.44" d="M65.45,-307.46C71.56,-299.07 79.5,-290.29 88.81,-284.78 148.53,-249.36 366.09,-226.3 434.25,-219.82"/>
</g>
<!-- ND X&#45;&gt;DOWN -->
<g id="edge37" class="edge">
<title>ND X&#45;&gt;DOWN</title>
<path fill="none" stroke="red" stroke-width="0.29" d="M61.13,-305.12C80.59,-256.21 130.49,-149.24 210.81,-99.64 286.11,-53.14 562.63,-37.88 657,-33.97"/>
</g>
<!-- ND Y -->
<g id="node20" class="node">
<title>ND Y</title>
<ellipse fill="lightcoral" stroke="black" cx="1865.81" cy="-457.25" rx="26.74" ry="26.74"/>
<text text-anchor="middle" x="1865.81" y="-455.05" font-family="Times New Roman,serif" font-size="9.00">ND Y</text>
</g>
<!-- IN_INTERS -->
<g id="node21" class="node">
<title>IN_INTERS</title>
<ellipse fill="lightcoral" stroke="black" cx="281.81" cy="-331.45" rx="43.68" ry="43.68"/>
<text text-anchor="middle" x="281.81" y="-329.25" font-family="Times New Roman,serif" font-size="9.00">IN_INTERS</text>
</g>
<!-- IN_INTERS&#45;&gt;UP -->
<g id="edge38" class="edge">
<title>IN_INTERS&#45;&gt;UP</title>
<path fill="none" stroke="red" stroke-width="0.84" d="M313.76,-301.1C320.51,-295.43 327.74,-289.71 334.81,-284.78 369.02,-260.88 412.53,-238.43 436.64,-226.62"/>
</g>
<!-- IN_INTERS&#45;&gt;DOWN -->
<g id="edge39" class="edge">
<title>IN_INTERS&#45;&gt;DOWN</title>
<path fill="none" stroke="green" stroke-width="0.13" d="M309.7,-297.31C337.03,-266.09 380.85,-219.14 424.81,-185.14 503.91,-123.95 610.11,-70.09 660.28,-46.08"/>
</g>
<!-- IN_INTERS&#45;&gt;LEFT -->
<g id="edge40" class="edge">
<title>IN_INTERS&#45;&gt;LEFT</title>
<path fill="none" stroke="green" stroke-width="1.3" d="M311.79,-299.02C318.79,-293.36 326.62,-288.19 334.81,-284.78 489.96,-220.17 1035.96,-217.54 1163.86,-217.83"/>
</g>
<!-- UP&#45;&gt;1420 -->
<g id="edge52" class="edge">
<title>UP&#45;&gt;1420</title>
<path fill="none" stroke="green" stroke-width="0.14" d="M475.14,-212.46C557.71,-198.27 867.75,-144.99 957.39,-129.58"/>
</g>
<!-- 1122&#45;&gt;RIGHT -->
<g id="edge43" class="edge">
<title>1122&#45;&gt;RIGHT</title>
<path fill="none" stroke="green" stroke-width="0.21" d="M1712.5,-310.96C1705.62,-302.34 1696.89,-292.44 1687.81,-284.78 1661.85,-262.87 1627.86,-243.7 1604.16,-231.57"/>
</g>
<!-- 2024&#45;&gt;LEFT -->
<g id="edge47" class="edge">
<title>2024&#45;&gt;LEFT</title>
<path fill="none" stroke="green" stroke-width="0.38" d="M1303.1,-311.41C1296.13,-302.89 1287.45,-292.94 1278.81,-284.78 1257.88,-265.02 1231.27,-245.48 1212.81,-232.68"/>
</g>
<!-- 2282&#45;&gt;UP -->
<g id="edge51" class="edge">
<title>2282&#45;&gt;UP</title>
<path fill="none" stroke="red" stroke-width="0.26" d="M383.27,-310.82C389.28,-302.73 396.34,-293.27 402.81,-284.78 416.25,-267.12 431.93,-247.04 442.52,-233.55"/>
</g>
<!-- 1420&#45;&gt;DOWN -->
<g id="edge44" class="edge">
<title>1420&#45;&gt;DOWN</title>
<path fill="none" stroke="red" stroke-width="0.23" d="M958.32,-116.13C905.63,-99.84 778.02,-60.4 719.3,-42.25"/>
</g>
<!-- 2637&#45;&gt;DOWN -->
<g id="edge54" class="edge">
<title>2637&#45;&gt;DOWN</title>
<path fill="none" stroke="red" stroke-width="0.36" d="M268.48,-116.17C285.45,-111.14 308.91,-104.49 329.81,-99.64 449.92,-71.74 594.75,-47.66 657.4,-37.71"/>
</g>
<!-- 821 -->
<g id="node31" class="node">
<title>821</title>
<ellipse fill="lightgreen" stroke="black" cx="1624.81" cy="-331.45" rx="21.43" ry="21.43"/>
<text text-anchor="middle" x="1624.81" y="-329.25" font-family="Times New Roman,serif" font-size="9.00">821</text>
</g>
<!-- 821&#45;&gt;RIGHT -->
<g id="edge41" class="edge">
<title>821&#45;&gt;RIGHT</title>
<path fill="none" stroke="red" stroke-width="0.15" d="M1616.6,-311.62C1608.87,-293.85 1597.16,-266.98 1588.27,-246.57"/>
</g>
</g>
</svg>
