<?xml version="1.0" encoding="utf-8" standalone="no"?>
<!DOCTYPE svg PUBLIC "-//W3C//DTD SVG 1.1//EN"
  "http://www.w3.org/Graphics/SVG/1.1/DTD/svg11.dtd">
<svg xmlns:xlink="http://www.w3.org/1999/xlink" width="460.8pt" height="345.6pt" viewBox="0 0 460.8 345.6" xmlns="http://www.w3.org/2000/svg" version="1.1">
 <metadata>
  <rdf:RDF xmlns:dc="http://purl.org/dc/elements/1.1/" xmlns:cc="http://creativecommons.org/ns#" xmlns:rdf="http://www.w3.org/1999/02/22-rdf-syntax-ns#">
   <cc:Work>
    <dc:type rdf:resource="http://purl.org/dc/dcmitype/StillImage"/>
    <dc:date>2022-07-27T07:09:44.853909</dc:date>
    <dc:format>image/svg+xml</dc:format>
    <dc:creator>
     <cc:Agent>
      <dc:title>Matplotlib v3.5.2, https://matplotlib.org/</dc:title>
     </cc:Agent>
    </dc:creator>
   </cc:Work>
  </rdf:RDF>
 </metadata>
 <defs>
  <style type="text/css">*{stroke-linejoin: round; stroke-linecap: butt}</style>
 </defs>
 <g id="figure_1">
  <g id="patch_1">
   <path d="M 0 345.6 
L 460.8 345.6 
L 460.8 0 
L 0 0 
z
" style="fill: #ffffff"/>
  </g>
  <g id="axes_1">
   <g id="patch_2">
    <path d="M 57.6 307.584 
L 414.72 307.584 
L 414.72 41.472 
L 57.6 41.472 
z
" style="fill: #ffffff"/>
   </g>
   <g id="matplotlib.axis_1">
    <g id="xtick_1">
     <g id="line2d_1">
      <path d="M 73.832727 307.584 
L 73.832727 41.472 
" clip-path="url(#p26b02590b3)" style="fill: none; stroke: #b0b0b0; stroke-width: 0.8; stroke-linecap: square"/>
     </g>
     <g id="line2d_2">
      <defs>
       <path id="mfd101468db" d="M 0 0 
L 0 3.5 
" style="stroke: #000000; stroke-width: 0.8"/>
      </defs>
      <g>
       <use xlink:href="#mfd101468db" x="73.832727" y="307.584" style="stroke: #000000; stroke-width: 0.8"/>
      </g>
     </g>
     <g id="text_1">
      <!-- 0 -->
      <g transform="translate(70.651477 322.182437)scale(0.1 -0.1)">
       <defs>
        <path id="DejaVuSans-30" d="M 2034 4250 
Q 1547 4250 1301 3770 
Q 1056 3291 1056 2328 
Q 1056 1369 1301 889 
Q 1547 409 2034 409 
Q 2525 409 2770 889 
Q 3016 1369 3016 2328 
Q 3016 3291 2770 3770 
Q 2525 4250 2034 4250 
z
M 2034 4750 
Q 2819 4750 3233 4129 
Q 3647 3509 3647 2328 
Q 3647 1150 3233 529 
Q 2819 -91 2034 -91 
Q 1250 -91 836 529 
Q 422 1150 422 2328 
Q 422 3509 836 4129 
Q 1250 4750 2034 4750 
z
" transform="scale(0.015625)"/>
       </defs>
       <use xlink:href="#DejaVuSans-30"/>
      </g>
     </g>
    </g>
    <g id="xtick_2">
     <g id="line2d_3">
      <path d="M 114.618474 307.584 
L 114.618474 41.472 
" clip-path="url(#p26b02590b3)" style="fill: none; stroke: #b0b0b0; stroke-width: 0.8; stroke-linecap: square"/>
     </g>
     <g id="line2d_4">
      <g>
       <use xlink:href="#mfd101468db" x="114.618474" y="307.584" style="stroke: #000000; stroke-width: 0.8"/>
      </g>
     </g>
     <g id="text_2">
      <!-- 25 -->
      <g transform="translate(108.255974 322.182437)scale(0.1 -0.1)">
       <defs>
        <path id="DejaVuSans-32" d="M 1228 531 
L 3431 531 
L 3431 0 
L 469 0 
L 469 531 
Q 828 903 1448 1529 
Q 2069 2156 2228 2338 
Q 2531 2678 2651 2914 
Q 2772 3150 2772 3378 
Q 2772 3750 2511 3984 
Q 2250 4219 1831 4219 
Q 1534 4219 1204 4116 
Q 875 4013 500 3803 
L 500 4441 
Q 881 4594 1212 4672 
Q 1544 4750 1819 4750 
Q 2544 4750 2975 4387 
Q 3406 4025 3406 3419 
Q 3406 3131 3298 2873 
Q 3191 2616 2906 2266 
Q 2828 2175 2409 1742 
Q 1991 1309 1228 531 
z
" transform="scale(0.015625)"/>
        <path id="DejaVuSans-35" d="M 691 4666 
L 3169 4666 
L 3169 4134 
L 1269 4134 
L 1269 2991 
Q 1406 3038 1543 3061 
Q 1681 3084 1819 3084 
Q 2600 3084 3056 2656 
Q 3513 2228 3513 1497 
Q 3513 744 3044 326 
Q 2575 -91 1722 -91 
Q 1428 -91 1123 -41 
Q 819 9 494 109 
L 494 744 
Q 775 591 1075 516 
Q 1375 441 1709 441 
Q 2250 441 2565 725 
Q 2881 1009 2881 1497 
Q 2881 1984 2565 2268 
Q 2250 2553 1709 2553 
Q 1456 2553 1204 2497 
Q 953 2441 691 2322 
L 691 4666 
z
" transform="scale(0.015625)"/>
       </defs>
       <use xlink:href="#DejaVuSans-32"/>
       <use xlink:href="#DejaVuSans-35" x="63.623047"/>
      </g>
     </g>
    </g>
    <g id="xtick_3">
     <g id="line2d_5">
      <path d="M 155.404221 307.584 
L 155.404221 41.472 
" clip-path="url(#p26b02590b3)" style="fill: none; stroke: #b0b0b0; stroke-width: 0.8; stroke-linecap: square"/>
     </g>
     <g id="line2d_6">
      <g>
       <use xlink:href="#mfd101468db" x="155.404221" y="307.584" style="stroke: #000000; stroke-width: 0.8"/>
      </g>
     </g>
     <g id="text_3">
      <!-- 50 -->
      <g transform="translate(149.041721 322.182437)scale(0.1 -0.1)">
       <use xlink:href="#DejaVuSans-35"/>
       <use xlink:href="#DejaVuSans-30" x="63.623047"/>
      </g>
     </g>
    </g>
    <g id="xtick_4">
     <g id="line2d_7">
      <path d="M 196.189968 307.584 
L 196.189968 41.472 
" clip-path="url(#p26b02590b3)" style="fill: none; stroke: #b0b0b0; stroke-width: 0.8; stroke-linecap: square"/>
     </g>
     <g id="line2d_8">
      <g>
       <use xlink:href="#mfd101468db" x="196.189968" y="307.584" style="stroke: #000000; stroke-width: 0.8"/>
      </g>
     </g>
     <g id="text_4">
      <!-- 75 -->
      <g transform="translate(189.827468 322.182437)scale(0.1 -0.1)">
       <defs>
        <path id="DejaVuSans-37" d="M 525 4666 
L 3525 4666 
L 3525 4397 
L 1831 0 
L 1172 0 
L 2766 4134 
L 525 4134 
L 525 4666 
z
" transform="scale(0.015625)"/>
       </defs>
       <use xlink:href="#DejaVuSans-37"/>
       <use xlink:href="#DejaVuSans-35" x="63.623047"/>
      </g>
     </g>
    </g>
    <g id="xtick_5">
     <g id="line2d_9">
      <path d="M 236.975715 307.584 
L 236.975715 41.472 
" clip-path="url(#p26b02590b3)" style="fill: none; stroke: #b0b0b0; stroke-width: 0.8; stroke-linecap: square"/>
     </g>
     <g id="line2d_10">
      <g>
       <use xlink:href="#mfd101468db" x="236.975715" y="307.584" style="stroke: #000000; stroke-width: 0.8"/>
      </g>
     </g>
     <g id="text_5">
      <!-- 100 -->
      <g transform="translate(227.431965 322.182437)scale(0.1 -0.1)">
       <defs>
        <path id="DejaVuSans-31" d="M 794 531 
L 1825 531 
L 1825 4091 
L 703 3866 
L 703 4441 
L 1819 4666 
L 2450 4666 
L 2450 531 
L 3481 531 
L 3481 0 
L 794 0 
L 794 531 
z
" transform="scale(0.015625)"/>
       </defs>
       <use xlink:href="#DejaVuSans-31"/>
       <use xlink:href="#DejaVuSans-30" x="63.623047"/>
       <use xlink:href="#DejaVuSans-30" x="127.246094"/>
      </g>
     </g>
    </g>
    <g id="xtick_6">
     <g id="line2d_11">
      <path d="M 277.761462 307.584 
L 277.761462 41.472 
" clip-path="url(#p26b02590b3)" style="fill: none; stroke: #b0b0b0; stroke-width: 0.8; stroke-linecap: square"/>
     </g>
     <g id="line2d_12">
      <g>
       <use xlink:href="#mfd101468db" x="277.761462" y="307.584" style="stroke: #000000; stroke-width: 0.8"/>
      </g>
     </g>
     <g id="text_6">
      <!-- 125 -->
      <g transform="translate(268.217712 322.182437)scale(0.1 -0.1)">
       <use xlink:href="#DejaVuSans-31"/>
       <use xlink:href="#DejaVuSans-32" x="63.623047"/>
       <use xlink:href="#DejaVuSans-35" x="127.246094"/>
      </g>
     </g>
    </g>
    <g id="xtick_7">
     <g id="line2d_13">
      <path d="M 318.547209 307.584 
L 318.547209 41.472 
" clip-path="url(#p26b02590b3)" style="fill: none; stroke: #b0b0b0; stroke-width: 0.8; stroke-linecap: square"/>
     </g>
     <g id="line2d_14">
      <g>
       <use xlink:href="#mfd101468db" x="318.547209" y="307.584" style="stroke: #000000; stroke-width: 0.8"/>
      </g>
     </g>
     <g id="text_7">
      <!-- 150 -->
      <g transform="translate(309.003459 322.182437)scale(0.1 -0.1)">
       <use xlink:href="#DejaVuSans-31"/>
       <use xlink:href="#DejaVuSans-35" x="63.623047"/>
       <use xlink:href="#DejaVuSans-30" x="127.246094"/>
      </g>
     </g>
    </g>
    <g id="xtick_8">
     <g id="line2d_15">
      <path d="M 359.332956 307.584 
L 359.332956 41.472 
" clip-path="url(#p26b02590b3)" style="fill: none; stroke: #b0b0b0; stroke-width: 0.8; stroke-linecap: square"/>
     </g>
     <g id="line2d_16">
      <g>
       <use xlink:href="#mfd101468db" x="359.332956" y="307.584" style="stroke: #000000; stroke-width: 0.8"/>
      </g>
     </g>
     <g id="text_8">
      <!-- 175 -->
      <g transform="translate(349.789206 322.182437)scale(0.1 -0.1)">
       <use xlink:href="#DejaVuSans-31"/>
       <use xlink:href="#DejaVuSans-37" x="63.623047"/>
       <use xlink:href="#DejaVuSans-35" x="127.246094"/>
      </g>
     </g>
    </g>
    <g id="xtick_9">
     <g id="line2d_17">
      <path d="M 400.118703 307.584 
L 400.118703 41.472 
" clip-path="url(#p26b02590b3)" style="fill: none; stroke: #b0b0b0; stroke-width: 0.8; stroke-linecap: square"/>
     </g>
     <g id="line2d_18">
      <g>
       <use xlink:href="#mfd101468db" x="400.118703" y="307.584" style="stroke: #000000; stroke-width: 0.8"/>
      </g>
     </g>
     <g id="text_9">
      <!-- 200 -->
      <g transform="translate(390.574953 322.182437)scale(0.1 -0.1)">
       <use xlink:href="#DejaVuSans-32"/>
       <use xlink:href="#DejaVuSans-30" x="63.623047"/>
       <use xlink:href="#DejaVuSans-30" x="127.246094"/>
      </g>
     </g>
    </g>
    <g id="text_10">
     <!-- Generations -->
     <g transform="translate(205.662344 335.860562)scale(0.1 -0.1)">
      <defs>
       <path id="DejaVuSans-47" d="M 3809 666 
L 3809 1919 
L 2778 1919 
L 2778 2438 
L 4434 2438 
L 4434 434 
Q 4069 175 3628 42 
Q 3188 -91 2688 -91 
Q 1594 -91 976 548 
Q 359 1188 359 2328 
Q 359 3472 976 4111 
Q 1594 4750 2688 4750 
Q 3144 4750 3555 4637 
Q 3966 4525 4313 4306 
L 4313 3634 
Q 3963 3931 3569 4081 
Q 3175 4231 2741 4231 
Q 1884 4231 1454 3753 
Q 1025 3275 1025 2328 
Q 1025 1384 1454 906 
Q 1884 428 2741 428 
Q 3075 428 3337 486 
Q 3600 544 3809 666 
z
" transform="scale(0.015625)"/>
       <path id="DejaVuSans-65" d="M 3597 1894 
L 3597 1613 
L 953 1613 
Q 991 1019 1311 708 
Q 1631 397 2203 397 
Q 2534 397 2845 478 
Q 3156 559 3463 722 
L 3463 178 
Q 3153 47 2828 -22 
Q 2503 -91 2169 -91 
Q 1331 -91 842 396 
Q 353 884 353 1716 
Q 353 2575 817 3079 
Q 1281 3584 2069 3584 
Q 2775 3584 3186 3129 
Q 3597 2675 3597 1894 
z
M 3022 2063 
Q 3016 2534 2758 2815 
Q 2500 3097 2075 3097 
Q 1594 3097 1305 2825 
Q 1016 2553 972 2059 
L 3022 2063 
z
" transform="scale(0.015625)"/>
       <path id="DejaVuSans-6e" d="M 3513 2113 
L 3513 0 
L 2938 0 
L 2938 2094 
Q 2938 2591 2744 2837 
Q 2550 3084 2163 3084 
Q 1697 3084 1428 2787 
Q 1159 2491 1159 1978 
L 1159 0 
L 581 0 
L 581 3500 
L 1159 3500 
L 1159 2956 
Q 1366 3272 1645 3428 
Q 1925 3584 2291 3584 
Q 2894 3584 3203 3211 
Q 3513 2838 3513 2113 
z
" transform="scale(0.015625)"/>
       <path id="DejaVuSans-72" d="M 2631 2963 
Q 2534 3019 2420 3045 
Q 2306 3072 2169 3072 
Q 1681 3072 1420 2755 
Q 1159 2438 1159 1844 
L 1159 0 
L 581 0 
L 581 3500 
L 1159 3500 
L 1159 2956 
Q 1341 3275 1631 3429 
Q 1922 3584 2338 3584 
Q 2397 3584 2469 3576 
Q 2541 3569 2628 3553 
L 2631 2963 
z
" transform="scale(0.015625)"/>
       <path id="DejaVuSans-61" d="M 2194 1759 
Q 1497 1759 1228 1600 
Q 959 1441 959 1056 
Q 959 750 1161 570 
Q 1363 391 1709 391 
Q 2188 391 2477 730 
Q 2766 1069 2766 1631 
L 2766 1759 
L 2194 1759 
z
M 3341 1997 
L 3341 0 
L 2766 0 
L 2766 531 
Q 2569 213 2275 61 
Q 1981 -91 1556 -91 
Q 1019 -91 701 211 
Q 384 513 384 1019 
Q 384 1609 779 1909 
Q 1175 2209 1959 2209 
L 2766 2209 
L 2766 2266 
Q 2766 2663 2505 2880 
Q 2244 3097 1772 3097 
Q 1472 3097 1187 3025 
Q 903 2953 641 2809 
L 641 3341 
Q 956 3463 1253 3523 
Q 1550 3584 1831 3584 
Q 2591 3584 2966 3190 
Q 3341 2797 3341 1997 
z
" transform="scale(0.015625)"/>
       <path id="DejaVuSans-74" d="M 1172 4494 
L 1172 3500 
L 2356 3500 
L 2356 3053 
L 1172 3053 
L 1172 1153 
Q 1172 725 1289 603 
Q 1406 481 1766 481 
L 2356 481 
L 2356 0 
L 1766 0 
Q 1100 0 847 248 
Q 594 497 594 1153 
L 594 3053 
L 172 3053 
L 172 3500 
L 594 3500 
L 594 4494 
L 1172 4494 
z
" transform="scale(0.015625)"/>
       <path id="DejaVuSans-69" d="M 603 3500 
L 1178 3500 
L 1178 0 
L 603 0 
L 603 3500 
z
M 603 4863 
L 1178 4863 
L 1178 4134 
L 603 4134 
L 603 4863 
z
" transform="scale(0.015625)"/>
       <path id="DejaVuSans-6f" d="M 1959 3097 
Q 1497 3097 1228 2736 
Q 959 2375 959 1747 
Q 959 1119 1226 758 
Q 1494 397 1959 397 
Q 2419 397 2687 759 
Q 2956 1122 2956 1747 
Q 2956 2369 2687 2733 
Q 2419 3097 1959 3097 
z
M 1959 3584 
Q 2709 3584 3137 3096 
Q 3566 2609 3566 1747 
Q 3566 888 3137 398 
Q 2709 -91 1959 -91 
Q 1206 -91 779 398 
Q 353 888 353 1747 
Q 353 2609 779 3096 
Q 1206 3584 1959 3584 
z
" transform="scale(0.015625)"/>
       <path id="DejaVuSans-73" d="M 2834 3397 
L 2834 2853 
Q 2591 2978 2328 3040 
Q 2066 3103 1784 3103 
Q 1356 3103 1142 2972 
Q 928 2841 928 2578 
Q 928 2378 1081 2264 
Q 1234 2150 1697 2047 
L 1894 2003 
Q 2506 1872 2764 1633 
Q 3022 1394 3022 966 
Q 3022 478 2636 193 
Q 2250 -91 1575 -91 
Q 1294 -91 989 -36 
Q 684 19 347 128 
L 347 722 
Q 666 556 975 473 
Q 1284 391 1588 391 
Q 1994 391 2212 530 
Q 2431 669 2431 922 
Q 2431 1156 2273 1281 
Q 2116 1406 1581 1522 
L 1381 1569 
Q 847 1681 609 1914 
Q 372 2147 372 2553 
Q 372 3047 722 3315 
Q 1072 3584 1716 3584 
Q 2034 3584 2315 3537 
Q 2597 3491 2834 3397 
z
" transform="scale(0.015625)"/>
      </defs>
      <use xlink:href="#DejaVuSans-47"/>
      <use xlink:href="#DejaVuSans-65" x="77.490234"/>
      <use xlink:href="#DejaVuSans-6e" x="139.013672"/>
      <use xlink:href="#DejaVuSans-65" x="202.392578"/>
      <use xlink:href="#DejaVuSans-72" x="263.916016"/>
      <use xlink:href="#DejaVuSans-61" x="305.029297"/>
      <use xlink:href="#DejaVuSans-74" x="366.308594"/>
      <use xlink:href="#DejaVuSans-69" x="405.517578"/>
      <use xlink:href="#DejaVuSans-6f" x="433.300781"/>
      <use xlink:href="#DejaVuSans-6e" x="494.482422"/>
      <use xlink:href="#DejaVuSans-73" x="557.861328"/>
     </g>
    </g>
   </g>
   <g id="matplotlib.axis_2">
    <g id="ytick_1">
     <g id="line2d_19">
      <path d="M 57.6 287.846032 
L 414.72 287.846032 
" clip-path="url(#p26b02590b3)" style="fill: none; stroke: #b0b0b0; stroke-width: 0.8; stroke-linecap: square"/>
     </g>
     <g id="line2d_20">
      <defs>
       <path id="m6f938f3e38" d="M 0 0 
L -3.5 0 
" style="stroke: #000000; stroke-width: 0.8"/>
      </defs>
      <g>
       <use xlink:href="#m6f938f3e38" x="57.6" y="287.846032" style="stroke: #000000; stroke-width: 0.8"/>
      </g>
     </g>
     <g id="text_11">
      <!-- 0 -->
      <g transform="translate(44.2375 291.645251)scale(0.1 -0.1)">
       <use xlink:href="#DejaVuSans-30"/>
      </g>
     </g>
    </g>
    <g id="ytick_2">
     <g id="line2d_21">
      <path d="M 57.6 256.014777 
L 414.72 256.014777 
" clip-path="url(#p26b02590b3)" style="fill: none; stroke: #b0b0b0; stroke-width: 0.8; stroke-linecap: square"/>
     </g>
     <g id="line2d_22">
      <g>
       <use xlink:href="#m6f938f3e38" x="57.6" y="256.014777" style="stroke: #000000; stroke-width: 0.8"/>
      </g>
     </g>
     <g id="text_12">
      <!-- 25 -->
      <g transform="translate(37.875 259.813996)scale(0.1 -0.1)">
       <use xlink:href="#DejaVuSans-32"/>
       <use xlink:href="#DejaVuSans-35" x="63.623047"/>
      </g>
     </g>
    </g>
    <g id="ytick_3">
     <g id="line2d_23">
      <path d="M 57.6 224.183523 
L 414.72 224.183523 
" clip-path="url(#p26b02590b3)" style="fill: none; stroke: #b0b0b0; stroke-width: 0.8; stroke-linecap: square"/>
     </g>
     <g id="line2d_24">
      <g>
       <use xlink:href="#m6f938f3e38" x="57.6" y="224.183523" style="stroke: #000000; stroke-width: 0.8"/>
      </g>
     </g>
     <g id="text_13">
      <!-- 50 -->
      <g transform="translate(37.875 227.982742)scale(0.1 -0.1)">
       <use xlink:href="#DejaVuSans-35"/>
       <use xlink:href="#DejaVuSans-30" x="63.623047"/>
      </g>
     </g>
    </g>
    <g id="ytick_4">
     <g id="line2d_25">
      <path d="M 57.6 192.352269 
L 414.72 192.352269 
" clip-path="url(#p26b02590b3)" style="fill: none; stroke: #b0b0b0; stroke-width: 0.8; stroke-linecap: square"/>
     </g>
     <g id="line2d_26">
      <g>
       <use xlink:href="#m6f938f3e38" x="57.6" y="192.352269" style="stroke: #000000; stroke-width: 0.8"/>
      </g>
     </g>
     <g id="text_14">
      <!-- 75 -->
      <g transform="translate(37.875 196.151488)scale(0.1 -0.1)">
       <use xlink:href="#DejaVuSans-37"/>
       <use xlink:href="#DejaVuSans-35" x="63.623047"/>
      </g>
     </g>
    </g>
    <g id="ytick_5">
     <g id="line2d_27">
      <path d="M 57.6 160.521014 
L 414.72 160.521014 
" clip-path="url(#p26b02590b3)" style="fill: none; stroke: #b0b0b0; stroke-width: 0.8; stroke-linecap: square"/>
     </g>
     <g id="line2d_28">
      <g>
       <use xlink:href="#m6f938f3e38" x="57.6" y="160.521014" style="stroke: #000000; stroke-width: 0.8"/>
      </g>
     </g>
     <g id="text_15">
      <!-- 100 -->
      <g transform="translate(31.5125 164.320233)scale(0.1 -0.1)">
       <use xlink:href="#DejaVuSans-31"/>
       <use xlink:href="#DejaVuSans-30" x="63.623047"/>
       <use xlink:href="#DejaVuSans-30" x="127.246094"/>
      </g>
     </g>
    </g>
    <g id="ytick_6">
     <g id="line2d_29">
      <path d="M 57.6 128.68976 
L 414.72 128.68976 
" clip-path="url(#p26b02590b3)" style="fill: none; stroke: #b0b0b0; stroke-width: 0.8; stroke-linecap: square"/>
     </g>
     <g id="line2d_30">
      <g>
       <use xlink:href="#m6f938f3e38" x="57.6" y="128.68976" style="stroke: #000000; stroke-width: 0.8"/>
      </g>
     </g>
     <g id="text_16">
      <!-- 125 -->
      <g transform="translate(31.5125 132.488979)scale(0.1 -0.1)">
       <use xlink:href="#DejaVuSans-31"/>
       <use xlink:href="#DejaVuSans-32" x="63.623047"/>
       <use xlink:href="#DejaVuSans-35" x="127.246094"/>
      </g>
     </g>
    </g>
    <g id="ytick_7">
     <g id="line2d_31">
      <path d="M 57.6 96.858506 
L 414.72 96.858506 
" clip-path="url(#p26b02590b3)" style="fill: none; stroke: #b0b0b0; stroke-width: 0.8; stroke-linecap: square"/>
     </g>
     <g id="line2d_32">
      <g>
       <use xlink:href="#m6f938f3e38" x="57.6" y="96.858506" style="stroke: #000000; stroke-width: 0.8"/>
      </g>
     </g>
     <g id="text_17">
      <!-- 150 -->
      <g transform="translate(31.5125 100.657725)scale(0.1 -0.1)">
       <use xlink:href="#DejaVuSans-31"/>
       <use xlink:href="#DejaVuSans-35" x="63.623047"/>
       <use xlink:href="#DejaVuSans-30" x="127.246094"/>
      </g>
     </g>
    </g>
    <g id="ytick_8">
     <g id="line2d_33">
      <path d="M 57.6 65.027252 
L 414.72 65.027252 
" clip-path="url(#p26b02590b3)" style="fill: none; stroke: #b0b0b0; stroke-width: 0.8; stroke-linecap: square"/>
     </g>
     <g id="line2d_34">
      <g>
       <use xlink:href="#m6f938f3e38" x="57.6" y="65.027252" style="stroke: #000000; stroke-width: 0.8"/>
      </g>
     </g>
     <g id="text_18">
      <!-- 175 -->
      <g transform="translate(31.5125 68.82647)scale(0.1 -0.1)">
       <use xlink:href="#DejaVuSans-31"/>
       <use xlink:href="#DejaVuSans-37" x="63.623047"/>
       <use xlink:href="#DejaVuSans-35" x="127.246094"/>
      </g>
     </g>
    </g>
    <g id="text_19">
     <!-- Fitness -->
     <g transform="translate(25.432812 191.845187)rotate(-90)scale(0.1 -0.1)">
      <defs>
       <path id="DejaVuSans-46" d="M 628 4666 
L 3309 4666 
L 3309 4134 
L 1259 4134 
L 1259 2759 
L 3109 2759 
L 3109 2228 
L 1259 2228 
L 1259 0 
L 628 0 
L 628 4666 
z
" transform="scale(0.015625)"/>
      </defs>
      <use xlink:href="#DejaVuSans-46"/>
      <use xlink:href="#DejaVuSans-69" x="50.269531"/>
      <use xlink:href="#DejaVuSans-74" x="78.052734"/>
      <use xlink:href="#DejaVuSans-6e" x="117.261719"/>
      <use xlink:href="#DejaVuSans-65" x="180.640625"/>
      <use xlink:href="#DejaVuSans-73" x="242.164062"/>
      <use xlink:href="#DejaVuSans-73" x="294.263672"/>
     </g>
    </g>
   </g>
   <g id="line2d_35">
    <path d="M 73.832727 217.146694 
L 75.464157 212.93648 
L 77.095587 217.501096 
L 78.727017 223.470503 
L 80.358447 215.194377 
L 81.989877 219.659241 
L 83.621307 226.51922 
L 85.252736 219.191708 
L 86.884166 219.667729 
L 88.515596 214.404962 
L 90.147026 203.115477 
L 91.778456 213.708918 
L 93.409886 210.653118 
L 95.041316 208.632894 
L 96.672746 215.134959 
L 98.304175 225.67747 
L 99.935605 205.645001 
L 101.567035 216.331814 
L 103.198465 218.526532 
L 104.829895 215.211354 
L 106.461325 220.42359 
L 108.092755 216.569487 
L 109.724185 215.618794 
L 111.355614 223.292248 
L 112.987044 216.815649 
L 114.618474 216.085652 
L 116.249904 212.036716 
L 117.881334 225.844651 
L 119.512764 217.545646 
L 121.144194 216.877289 
L 122.775624 215.678212 
L 124.407053 221.076793 
L 126.038483 212.606222 
L 127.669913 220.920293 
L 129.301343 219.975895 
L 130.932773 217.657062 
L 132.564203 222.653914 
L 134.195633 221.518186 
L 135.827063 218.267154 
L 137.458492 211.51044 
L 140.721352 222.792223 
L 142.352782 216.279118 
L 143.984212 213.3695 
L 145.615642 219.551969 
L 147.247072 214.880309 
L 148.878502 222.647135 
L 150.509931 215.457515 
L 152.141361 224.012617 
L 153.772791 206.977669 
L 155.404221 210.280315 
L 157.035651 211.519384 
L 158.667081 206.886376 
L 160.298511 208.861795 
L 161.929941 211.780161 
L 163.56137 217.019369 
L 165.1928 214.608682 
L 166.82423 208.449187 
L 168.45566 207.724643 
L 170.08709 209.923121 
L 171.71852 203.25129 
L 173.34995 205.339421 
L 174.98138 216.560999 
L 176.61281 211.122169 
L 178.244239 207.673431 
L 179.875669 214.116358 
L 181.507099 207.175936 
L 183.138529 209.532658 
L 184.769959 204.724575 
L 186.401389 213.428803 
L 188.032819 213.844732 
L 189.664249 209.850856 
L 191.295678 209.739016 
L 192.927108 218.18472 
L 194.558538 221.119234 
L 196.189968 208.463128 
L 197.821398 204.272236 
L 199.452828 206.922973 
L 201.084258 218.818896 
L 202.715688 212.339733 
L 204.347117 212.809155 
L 205.978547 216.323325 
L 207.609977 217.877089 
L 209.241407 212.887729 
L 210.872837 209.212152 
L 212.504267 224.548522 
L 214.135697 213.786719 
L 215.767127 222.383996 
L 217.398556 214.407696 
L 219.029986 217.859714 
L 220.661416 216.284346 
L 222.292846 213.339816 
L 223.924276 215.433133 
L 225.555706 202.470364 
L 227.187136 206.213719 
L 228.818566 210.713877 
L 230.449995 219.438544 
L 232.081425 211.408006 
L 233.712855 208.415458 
L 235.344285 204.123509 
L 236.975715 214.773277 
L 238.607145 207.656567 
L 240.238575 209.186516 
L 241.870005 211.98441 
L 243.501434 212.448974 
L 245.132864 219.591334 
L 246.764294 207.820538 
L 248.395724 216.279118 
L 251.658584 203.609149 
L 253.290014 215.840384 
L 254.921444 205.930812 
L 256.552873 211.442645 
L 258.184303 215.021115 
L 261.447163 206.636281 
L 263.078593 216.484604 
L 264.710023 209.354403 
L 266.341453 220.29541 
L 267.972883 212.816415 
L 269.604312 208.586209 
L 271.235742 208.044217 
L 272.867172 202.039294 
L 274.498602 205.92221 
L 276.130032 205.769034 
L 277.761462 206.033299 
L 279.392892 200.396512 
L 281.024322 208.741063 
L 282.655751 196.477599 
L 284.287181 206.029168 
L 285.918611 217.959675 
L 287.550041 215.987502 
L 289.181471 210.420694 
L 290.812901 212.67434 
L 292.444331 213.879472 
L 294.075761 209.906145 
L 295.70719 216.810716 
L 297.33862 213.71083 
L 298.97005 213.689612 
L 300.60148 217.673926 
L 302.23291 211.519384 
L 305.49577 222.324578 
L 307.1272 223.639041 
L 308.75863 205.46172 
L 310.390059 216.644542 
L 312.021489 218.436921 
L 313.652919 221.620159 
L 315.284349 215.051537 
L 316.915779 214.284214 
L 318.547209 219.832549 
L 320.178639 212.493548 
L 321.810069 220.886564 
L 323.441498 222.218839 
L 325.072928 215.398097 
L 326.704358 219.73142 
L 328.335788 220.944853 
L 329.967218 219.202362 
L 331.598648 230.69312 
L 333.230078 226.449908 
L 334.861508 232.442896 
L 336.492937 222.231765 
L 338.124367 219.157979 
L 339.755797 219.276029 
L 341.387227 226.367442 
L 343.018657 234.8805 
L 344.650087 229.234082 
L 346.281517 220.867945 
L 347.912947 219.905403 
L 349.544376 225.043599 
L 351.175806 220.677841 
L 352.807236 219.654512 
L 354.438666 217.69079 
L 356.070096 225.253053 
L 357.701526 229.369895 
L 359.332956 217.749815 
L 360.964386 210.439167 
L 362.595815 212.401715 
L 364.227245 219.582846 
L 365.858675 210.25366 
L 367.490105 213.590082 
L 369.121535 208.280544 
L 370.752965 215.714734 
L 372.384395 205.852093 
L 374.015825 206.828012 
L 375.647254 206.392202 
L 377.278684 213.309967 
L 378.910114 198.035518 
L 380.541544 210.075228 
L 382.172974 211.198058 
L 383.804404 204.342744 
L 385.435834 213.249057 
L 387.067264 209.093788 
L 388.698693 220.313513 
L 390.330123 210.721025 
L 391.961553 214.46438 
L 393.592983 208.10874 
L 395.224413 203.406779 
L 396.855843 203.921138 
L 398.487273 211.832996 
L 398.487273 211.832996 
" clip-path="url(#p26b02590b3)" style="fill: none; stroke: #0000ff; stroke-width: 1.5; stroke-linecap: square"/>
   </g>
   <g id="line2d_36">
    <path d="M 73.832727 287.498607 
L 75.464157 285.412256 
L 77.095587 281.080816 
L 78.727017 290.644473 
L 80.358447 282.105699 
L 81.989877 286.99713 
L 83.621307 287.845745 
L 85.252736 284.367425 
L 86.884166 287.646823 
L 90.147026 272.035932 
L 91.778456 280.85258 
L 93.409886 274.948015 
L 95.041316 279.13978 
L 96.672746 283.962447 
L 98.304175 290.625502 
L 99.935605 271.389189 
L 101.567035 281.412282 
L 103.198465 283.617744 
L 104.829895 282.82231 
L 106.461325 288.813899 
L 108.092755 283.707084 
L 109.724185 280.765734 
L 111.355614 287.454246 
L 112.987044 277.712972 
L 114.618474 283.16959 
L 116.249904 284.028497 
L 117.881334 287.598869 
L 119.512764 279.531284 
L 121.144194 283.223111 
L 122.775624 282.226103 
L 124.407053 288.549999 
L 126.038483 277.105324 
L 127.669913 286.504742 
L 129.301343 285.926408 
L 130.932773 281.607518 
L 132.564203 284.846404 
L 134.195633 287.380444 
L 135.827063 285.484978 
L 137.458492 279.371264 
L 139.089922 283.845654 
L 140.721352 287.586441 
L 142.352782 284.860696 
L 143.984212 278.628585 
L 145.615642 286.390862 
L 147.247072 283.846908 
L 148.878502 286.770133 
L 150.509931 281.231108 
L 152.141361 287.929551 
L 153.772791 271.995386 
L 155.404221 277.769993 
L 157.035651 279.553906 
L 158.667081 274.972139 
L 160.298511 274.416387 
L 161.929941 274.746648 
L 163.56137 281.446255 
L 165.1928 280.442114 
L 166.82423 272.489739 
L 168.45566 274.097355 
L 170.08709 277.139637 
L 171.71852 269.919117 
L 173.34995 271.933367 
L 174.98138 281.844677 
L 176.61281 278.369824 
L 178.244239 272.587018 
L 179.875669 280.551936 
L 181.507099 278.572646 
L 183.138529 275.751256 
L 184.769959 273.547129 
L 186.401389 278.870318 
L 188.032819 276.05564 
L 189.664249 280.830771 
L 191.295678 276.662804 
L 192.927108 286.785178 
L 194.558538 289.900062 
L 196.189968 276.492188 
L 197.821398 269.86455 
L 199.452828 277.491627 
L 201.084258 283.35507 
L 202.715688 277.610942 
L 204.347117 281.124956 
L 205.978547 284.010235 
L 207.609977 283.224372 
L 209.241407 280.497984 
L 210.872837 277.290938 
L 212.504267 288.707754 
L 214.135697 277.143322 
L 215.767127 286.725883 
L 217.398556 278.800615 
L 219.029986 285.898692 
L 220.661416 281.111502 
L 222.292846 281.855663 
L 223.924276 281.765816 
L 225.555706 273.710319 
L 227.187136 272.599854 
L 228.818566 277.875406 
L 230.449995 285.078988 
L 232.081425 277.77803 
L 233.712855 279.143256 
L 235.344285 271.023583 
L 236.975715 283.988979 
L 238.607145 276.383256 
L 241.870005 276.943446 
L 243.501434 279.171109 
L 245.132864 284.365597 
L 246.764294 278.502795 
L 248.395724 284.007737 
L 251.658584 268.663444 
L 253.290014 281.535747 
L 254.921444 272.812965 
L 256.552873 279.718469 
L 258.184303 283.38268 
L 259.815733 280.840164 
L 261.447163 274.092824 
L 263.078593 286.083202 
L 264.710023 280.537801 
L 266.341453 286.209242 
L 267.972883 281.683538 
L 269.604312 273.381954 
L 271.235742 278.715293 
L 272.867172 271.15497 
L 274.498602 277.180072 
L 276.130032 275.455023 
L 277.761462 276.469595 
L 279.392892 272.382663 
L 281.024322 277.584344 
L 282.655751 267.580261 
L 284.287181 278.095528 
L 285.918611 286.278452 
L 287.550041 286.687777 
L 289.181471 276.231052 
L 290.812901 280.901053 
L 292.444331 281.231281 
L 294.075761 277.202459 
L 295.70719 285.214714 
L 297.33862 282.348684 
L 298.97005 280.103155 
L 300.60148 286.15681 
L 302.23291 281.305703 
L 303.86434 284.760964 
L 305.49577 289.310547 
L 307.1272 288.515907 
L 308.75863 277.981825 
L 310.390059 288.172144 
L 312.021489 286.011165 
L 313.652919 287.828517 
L 315.284349 281.90438 
L 316.915779 284.160519 
L 318.547209 288.765117 
L 320.178639 284.695687 
L 321.810069 289.761 
L 323.441498 289.286529 
L 325.072928 285.384672 
L 326.704358 288.304486 
L 328.335788 288.841334 
L 329.967218 285.523765 
L 331.598648 292.652068 
L 333.230078 290.143624 
L 334.861508 295.021792 
L 338.124367 285.94704 
L 339.755797 287.248735 
L 341.387227 289.762661 
L 343.018657 295.488 
L 344.650087 294.726589 
L 346.281517 291.6449 
L 347.912947 287.301327 
L 349.544376 289.840336 
L 351.175806 290.926018 
L 352.807236 288.115271 
L 354.438666 285.643174 
L 356.070096 292.379479 
L 357.701526 290.310065 
L 359.332956 285.824225 
L 360.964386 278.847351 
L 362.595815 279.498687 
L 364.227245 283.51603 
L 365.858675 277.687812 
L 367.490105 282.925433 
L 369.121535 275.798331 
L 370.752965 281.278539 
L 372.384395 277.649587 
L 374.015825 276.146999 
L 375.647254 277.061331 
L 377.278684 279.519405 
L 378.910114 269.213313 
L 380.541544 283.35513 
L 382.172974 282.394591 
L 383.804404 274.142212 
L 385.435834 284.470203 
L 387.067264 278.674911 
L 388.698693 286.152088 
L 390.330123 279.862979 
L 391.961553 286.827481 
L 393.592983 278.409564 
L 395.224413 270.95056 
L 396.855843 272.495264 
L 398.487273 280.538147 
L 398.487273 280.538147 
" clip-path="url(#p26b02590b3)" style="fill: none; stroke-dasharray: 9.6,2.4,1.5,2.4; stroke-dashoffset: 0; stroke: #008000; stroke-width: 1.5"/>
   </g>
   <g id="line2d_37">
    <path d="M 73.832727 146.794781 
L 75.464157 140.460704 
L 77.095587 153.921376 
L 78.727017 156.296533 
L 80.358447 148.283054 
L 81.989877 152.321352 
L 83.621307 165.192696 
L 85.252736 154.015991 
L 86.884166 151.688636 
L 88.515596 148.747491 
L 90.147026 134.195022 
L 91.778456 146.565257 
L 93.409886 146.358221 
L 95.041316 138.126008 
L 96.672746 146.30747 
L 98.304175 160.729438 
L 99.935605 139.900812 
L 101.567035 151.251346 
L 103.198465 153.435321 
L 104.829895 147.600397 
L 106.461325 152.03328 
L 108.092755 149.43189 
L 109.724185 150.471853 
L 111.355614 159.13025 
L 112.987044 155.918326 
L 114.618474 149.001714 
L 116.249904 140.044936 
L 117.881334 164.090432 
L 119.512764 155.560007 
L 121.144194 150.531467 
L 122.775624 149.130321 
L 124.407053 153.603586 
L 126.038483 148.107119 
L 127.669913 155.335843 
L 129.301343 154.025382 
L 130.932773 153.706606 
L 132.564203 160.461424 
L 135.827063 151.04933 
L 137.458492 143.649616 
L 140.721352 157.998005 
L 142.352782 147.697539 
L 143.984212 148.110414 
L 145.615642 152.713075 
L 147.247072 145.913709 
L 148.878502 158.524136 
L 150.509931 149.683923 
L 152.141361 160.095683 
L 153.772791 141.959952 
L 155.404221 142.790637 
L 157.035651 143.484861 
L 158.667081 138.800613 
L 160.298511 143.307202 
L 161.929941 148.813674 
L 163.56137 152.592483 
L 165.1928 148.77525 
L 166.82423 144.408634 
L 168.45566 141.35193 
L 170.08709 142.706606 
L 171.71852 136.583464 
L 173.34995 138.745475 
L 174.98138 151.27732 
L 176.61281 143.874513 
L 178.244239 142.759845 
L 179.875669 147.680781 
L 181.507099 135.779227 
L 183.138529 143.31406 
L 184.769959 135.90202 
L 186.401389 147.987289 
L 188.032819 151.633824 
L 189.664249 138.87094 
L 191.295678 142.815228 
L 192.927108 149.584262 
L 194.558538 152.338407 
L 196.189968 140.434067 
L 197.821398 138.679922 
L 199.452828 136.354318 
L 201.084258 154.282721 
L 202.715688 147.068523 
L 204.347117 144.493354 
L 207.609977 152.529807 
L 209.241407 145.277474 
L 210.872837 141.133366 
L 212.504267 160.389289 
L 214.135697 150.430115 
L 215.767127 158.04211 
L 217.398556 150.014778 
L 219.029986 149.820736 
L 220.661416 151.45719 
L 222.292846 144.82397 
L 223.924276 149.100449 
L 225.555706 131.230408 
L 227.187136 139.827584 
L 228.818566 143.552348 
L 230.449995 153.7981 
L 232.081425 145.037983 
L 233.712855 137.68766 
L 235.344285 137.223435 
L 236.975715 145.557575 
L 238.607145 138.929878 
L 240.238575 141.692271 
L 241.870005 147.025374 
L 243.501434 145.72684 
L 245.132864 154.817072 
L 246.764294 137.13828 
L 248.395724 148.550498 
L 250.027154 143.971265 
L 251.658584 138.554855 
L 253.290014 150.145021 
L 254.921444 139.048658 
L 256.552873 143.166821 
L 258.184303 146.65955 
L 259.815733 140.915111 
L 261.447163 139.179737 
L 263.078593 146.886006 
L 264.710023 138.171005 
L 266.341453 154.381579 
L 267.972883 143.949292 
L 269.604312 143.790463 
L 271.235742 137.373141 
L 272.867172 132.923617 
L 274.498602 134.664349 
L 276.130032 136.083045 
L 277.761462 135.597003 
L 279.392892 128.41036 
L 281.024322 139.897782 
L 282.655751 125.374938 
L 284.287181 133.962808 
L 285.918611 149.640898 
L 287.550041 145.287228 
L 289.181471 144.610335 
L 290.812901 144.447628 
L 292.444331 146.527663 
L 294.075761 142.60983 
L 295.70719 148.406719 
L 297.33862 145.072975 
L 298.97005 147.276068 
L 300.60148 149.191043 
L 302.23291 141.733065 
L 303.86434 149.221796 
L 305.49577 155.338608 
L 307.1272 158.762175 
L 308.75863 132.941614 
L 310.390059 145.11694 
L 312.021489 150.862676 
L 313.652919 155.4118 
L 315.284349 148.198694 
L 316.915779 144.407909 
L 318.547209 150.899981 
L 320.178639 140.29141 
L 321.810069 152.012129 
L 323.441498 155.151149 
L 325.072928 145.411522 
L 326.704358 151.158354 
L 328.335788 153.048373 
L 329.967218 152.880959 
L 331.598648 168.734172 
L 333.230078 162.756192 
L 334.861508 169.864 
L 336.492937 154.067502 
L 338.124367 152.368919 
L 339.755797 151.303324 
L 343.018657 174.273 
L 344.650087 163.741576 
L 346.281517 150.090991 
L 347.912947 152.509479 
L 349.544376 160.246863 
L 351.175806 150.429664 
L 352.807236 151.193754 
L 354.438666 149.738407 
L 356.070096 158.126628 
L 357.701526 168.429725 
L 359.332956 149.675405 
L 360.964386 142.030983 
L 362.595815 145.304743 
L 364.227245 155.649662 
L 365.858675 142.819508 
L 367.490105 144.25473 
L 369.121535 140.762757 
L 370.752965 150.150929 
L 372.384395 134.054599 
L 374.015825 137.509026 
L 375.647254 135.723073 
L 377.278684 147.100528 
L 378.910114 126.857723 
L 380.541544 136.795325 
L 382.172974 140.001525 
L 383.804404 134.543275 
L 385.435834 142.027911 
L 387.067264 139.512665 
L 388.698693 154.474937 
L 390.330123 141.57907 
L 391.961553 142.101279 
L 393.592983 137.807916 
L 395.224413 135.862998 
L 396.855843 135.347012 
L 398.487273 143.127846 
L 398.487273 143.127846 
" clip-path="url(#p26b02590b3)" style="fill: none; stroke-dasharray: 9.6,2.4,1.5,2.4; stroke-dashoffset: 0; stroke: #008000; stroke-width: 1.5"/>
   </g>
   <g id="line2d_38">
    <path d="M 73.832727 53.568 
L 77.095587 53.568 
L 78.727017 87.945755 
L 80.358447 95.585256 
L 121.144194 95.585256 
L 122.775624 90.492255 
L 124.407053 95.585256 
L 139.089922 95.585256 
L 140.721352 75.213253 
L 142.352782 75.213253 
L 143.984212 95.585256 
L 165.1928 95.585256 
L 166.82423 81.579504 
L 168.45566 95.585256 
L 179.875669 95.585256 
L 181.507099 71.393502 
L 183.138529 95.585256 
L 197.821398 95.585256 
L 199.452828 75.213253 
L 201.084258 95.585256 
L 202.715688 86.672504 
L 204.347117 95.585256 
L 214.135697 95.585256 
L 215.767127 71.393502 
L 217.398556 95.585256 
L 227.187136 95.585256 
L 228.818566 53.568 
L 230.449995 95.585256 
L 233.712855 95.585256 
L 235.344285 70.120252 
L 236.975715 95.585256 
L 246.764294 95.585256 
L 248.395724 53.568 
L 250.027154 95.585256 
L 251.658584 95.585256 
L 253.290014 57.387751 
L 254.921444 95.585256 
L 258.184303 95.585256 
L 259.815733 68.847002 
L 263.078593 68.847002 
L 264.710023 63.754001 
L 266.341453 68.847002 
L 267.972883 70.120252 
L 269.604312 95.585256 
L 292.444331 95.585256 
L 294.075761 76.486503 
L 295.70719 95.585256 
L 398.487273 95.585256 
L 398.487273 95.585256 
" clip-path="url(#p26b02590b3)" style="fill: none; stroke: #ff0000; stroke-width: 1.5; stroke-linecap: square"/>
   </g>
   <g id="patch_3">
    <path d="M 57.6 307.584 
L 57.6 41.472 
" style="fill: none; stroke: #000000; stroke-width: 0.8; stroke-linejoin: miter; stroke-linecap: square"/>
   </g>
   <g id="patch_4">
    <path d="M 414.72 307.584 
L 414.72 41.472 
" style="fill: none; stroke: #000000; stroke-width: 0.8; stroke-linejoin: miter; stroke-linecap: square"/>
   </g>
   <g id="patch_5">
    <path d="M 57.6 307.584 
L 414.72 307.584 
" style="fill: none; stroke: #000000; stroke-width: 0.8; stroke-linejoin: miter; stroke-linecap: square"/>
   </g>
   <g id="patch_6">
    <path d="M 57.6 41.472 
L 414.72 41.472 
" style="fill: none; stroke: #000000; stroke-width: 0.8; stroke-linejoin: miter; stroke-linecap: square"/>
   </g>
   <g id="text_20">
    <!-- Population's average and best fitness -->
    <g transform="translate(123.529687 35.472)scale(0.12 -0.12)">
     <defs>
      <path id="DejaVuSans-50" d="M 1259 4147 
L 1259 2394 
L 2053 2394 
Q 2494 2394 2734 2622 
Q 2975 2850 2975 3272 
Q 2975 3691 2734 3919 
Q 2494 4147 2053 4147 
L 1259 4147 
z
M 628 4666 
L 2053 4666 
Q 2838 4666 3239 4311 
Q 3641 3956 3641 3272 
Q 3641 2581 3239 2228 
Q 2838 1875 2053 1875 
L 1259 1875 
L 1259 0 
L 628 0 
L 628 4666 
z
" transform="scale(0.015625)"/>
      <path id="DejaVuSans-70" d="M 1159 525 
L 1159 -1331 
L 581 -1331 
L 581 3500 
L 1159 3500 
L 1159 2969 
Q 1341 3281 1617 3432 
Q 1894 3584 2278 3584 
Q 2916 3584 3314 3078 
Q 3713 2572 3713 1747 
Q 3713 922 3314 415 
Q 2916 -91 2278 -91 
Q 1894 -91 1617 61 
Q 1341 213 1159 525 
z
M 3116 1747 
Q 3116 2381 2855 2742 
Q 2594 3103 2138 3103 
Q 1681 3103 1420 2742 
Q 1159 2381 1159 1747 
Q 1159 1113 1420 752 
Q 1681 391 2138 391 
Q 2594 391 2855 752 
Q 3116 1113 3116 1747 
z
" transform="scale(0.015625)"/>
      <path id="DejaVuSans-75" d="M 544 1381 
L 544 3500 
L 1119 3500 
L 1119 1403 
Q 1119 906 1312 657 
Q 1506 409 1894 409 
Q 2359 409 2629 706 
Q 2900 1003 2900 1516 
L 2900 3500 
L 3475 3500 
L 3475 0 
L 2900 0 
L 2900 538 
Q 2691 219 2414 64 
Q 2138 -91 1772 -91 
Q 1169 -91 856 284 
Q 544 659 544 1381 
z
M 1991 3584 
L 1991 3584 
z
" transform="scale(0.015625)"/>
      <path id="DejaVuSans-6c" d="M 603 4863 
L 1178 4863 
L 1178 0 
L 603 0 
L 603 4863 
z
" transform="scale(0.015625)"/>
      <path id="DejaVuSans-27" d="M 1147 4666 
L 1147 2931 
L 616 2931 
L 616 4666 
L 1147 4666 
z
" transform="scale(0.015625)"/>
      <path id="DejaVuSans-20" transform="scale(0.015625)"/>
      <path id="DejaVuSans-76" d="M 191 3500 
L 800 3500 
L 1894 563 
L 2988 3500 
L 3597 3500 
L 2284 0 
L 1503 0 
L 191 3500 
z
" transform="scale(0.015625)"/>
      <path id="DejaVuSans-67" d="M 2906 1791 
Q 2906 2416 2648 2759 
Q 2391 3103 1925 3103 
Q 1463 3103 1205 2759 
Q 947 2416 947 1791 
Q 947 1169 1205 825 
Q 1463 481 1925 481 
Q 2391 481 2648 825 
Q 2906 1169 2906 1791 
z
M 3481 434 
Q 3481 -459 3084 -895 
Q 2688 -1331 1869 -1331 
Q 1566 -1331 1297 -1286 
Q 1028 -1241 775 -1147 
L 775 -588 
Q 1028 -725 1275 -790 
Q 1522 -856 1778 -856 
Q 2344 -856 2625 -561 
Q 2906 -266 2906 331 
L 2906 616 
Q 2728 306 2450 153 
Q 2172 0 1784 0 
Q 1141 0 747 490 
Q 353 981 353 1791 
Q 353 2603 747 3093 
Q 1141 3584 1784 3584 
Q 2172 3584 2450 3431 
Q 2728 3278 2906 2969 
L 2906 3500 
L 3481 3500 
L 3481 434 
z
" transform="scale(0.015625)"/>
      <path id="DejaVuSans-64" d="M 2906 2969 
L 2906 4863 
L 3481 4863 
L 3481 0 
L 2906 0 
L 2906 525 
Q 2725 213 2448 61 
Q 2172 -91 1784 -91 
Q 1150 -91 751 415 
Q 353 922 353 1747 
Q 353 2572 751 3078 
Q 1150 3584 1784 3584 
Q 2172 3584 2448 3432 
Q 2725 3281 2906 2969 
z
M 947 1747 
Q 947 1113 1208 752 
Q 1469 391 1925 391 
Q 2381 391 2643 752 
Q 2906 1113 2906 1747 
Q 2906 2381 2643 2742 
Q 2381 3103 1925 3103 
Q 1469 3103 1208 2742 
Q 947 2381 947 1747 
z
" transform="scale(0.015625)"/>
      <path id="DejaVuSans-62" d="M 3116 1747 
Q 3116 2381 2855 2742 
Q 2594 3103 2138 3103 
Q 1681 3103 1420 2742 
Q 1159 2381 1159 1747 
Q 1159 1113 1420 752 
Q 1681 391 2138 391 
Q 2594 391 2855 752 
Q 3116 1113 3116 1747 
z
M 1159 2969 
Q 1341 3281 1617 3432 
Q 1894 3584 2278 3584 
Q 2916 3584 3314 3078 
Q 3713 2572 3713 1747 
Q 3713 922 3314 415 
Q 2916 -91 2278 -91 
Q 1894 -91 1617 61 
Q 1341 213 1159 525 
L 1159 0 
L 581 0 
L 581 4863 
L 1159 4863 
L 1159 2969 
z
" transform="scale(0.015625)"/>
      <path id="DejaVuSans-66" d="M 2375 4863 
L 2375 4384 
L 1825 4384 
Q 1516 4384 1395 4259 
Q 1275 4134 1275 3809 
L 1275 3500 
L 2222 3500 
L 2222 3053 
L 1275 3053 
L 1275 0 
L 697 0 
L 697 3053 
L 147 3053 
L 147 3500 
L 697 3500 
L 697 3744 
Q 697 4328 969 4595 
Q 1241 4863 1831 4863 
L 2375 4863 
z
" transform="scale(0.015625)"/>
     </defs>
     <use xlink:href="#DejaVuSans-50"/>
     <use xlink:href="#DejaVuSans-6f" x="56.677734"/>
     <use xlink:href="#DejaVuSans-70" x="117.859375"/>
     <use xlink:href="#DejaVuSans-75" x="181.335938"/>
     <use xlink:href="#DejaVuSans-6c" x="244.714844"/>
     <use xlink:href="#DejaVuSans-61" x="272.498047"/>
     <use xlink:href="#DejaVuSans-74" x="333.777344"/>
     <use xlink:href="#DejaVuSans-69" x="372.986328"/>
     <use xlink:href="#DejaVuSans-6f" x="400.769531"/>
     <use xlink:href="#DejaVuSans-6e" x="461.951172"/>
     <use xlink:href="#DejaVuSans-27" x="525.330078"/>
     <use xlink:href="#DejaVuSans-73" x="552.820312"/>
     <use xlink:href="#DejaVuSans-20" x="604.919922"/>
     <use xlink:href="#DejaVuSans-61" x="636.707031"/>
     <use xlink:href="#DejaVuSans-76" x="697.986328"/>
     <use xlink:href="#DejaVuSans-65" x="757.166016"/>
     <use xlink:href="#DejaVuSans-72" x="818.689453"/>
     <use xlink:href="#DejaVuSans-61" x="859.802734"/>
     <use xlink:href="#DejaVuSans-67" x="921.082031"/>
     <use xlink:href="#DejaVuSans-65" x="984.558594"/>
     <use xlink:href="#DejaVuSans-20" x="1046.082031"/>
     <use xlink:href="#DejaVuSans-61" x="1077.869141"/>
     <use xlink:href="#DejaVuSans-6e" x="1139.148438"/>
     <use xlink:href="#DejaVuSans-64" x="1202.527344"/>
     <use xlink:href="#DejaVuSans-20" x="1266.003906"/>
     <use xlink:href="#DejaVuSans-62" x="1297.791016"/>
     <use xlink:href="#DejaVuSans-65" x="1361.267578"/>
     <use xlink:href="#DejaVuSans-73" x="1422.791016"/>
     <use xlink:href="#DejaVuSans-74" x="1474.890625"/>
     <use xlink:href="#DejaVuSans-20" x="1514.099609"/>
     <use xlink:href="#DejaVuSans-66" x="1545.886719"/>
     <use xlink:href="#DejaVuSans-69" x="1581.091797"/>
     <use xlink:href="#DejaVuSans-74" x="1608.875"/>
     <use xlink:href="#DejaVuSans-6e" x="1648.083984"/>
     <use xlink:href="#DejaVuSans-65" x="1711.462891"/>
     <use xlink:href="#DejaVuSans-73" x="1772.986328"/>
     <use xlink:href="#DejaVuSans-73" x="1825.085938"/>
    </g>
   </g>
   <g id="legend_1">
    <g id="patch_7">
     <path d="M 334.779375 205.38425 
L 407.72 205.38425 
Q 409.72 205.38425 409.72 203.38425 
L 409.72 145.67175 
Q 409.72 143.67175 407.72 143.67175 
L 334.779375 143.67175 
Q 332.779375 143.67175 332.779375 145.67175 
L 332.779375 203.38425 
Q 332.779375 205.38425 334.779375 205.38425 
z
" style="fill: #ffffff; opacity: 0.8; stroke: #cccccc; stroke-linejoin: miter"/>
    </g>
    <g id="line2d_39">
     <path d="M 336.779375 151.770188 
L 346.779375 151.770188 
L 356.779375 151.770188 
" style="fill: none; stroke: #0000ff; stroke-width: 1.5; stroke-linecap: square"/>
    </g>
    <g id="text_21">
     <!-- average -->
     <g transform="translate(364.779375 155.270188)scale(0.1 -0.1)">
      <use xlink:href="#DejaVuSans-61"/>
      <use xlink:href="#DejaVuSans-76" x="61.279297"/>
      <use xlink:href="#DejaVuSans-65" x="120.458984"/>
      <use xlink:href="#DejaVuSans-72" x="181.982422"/>
      <use xlink:href="#DejaVuSans-61" x="223.095703"/>
      <use xlink:href="#DejaVuSans-67" x="284.375"/>
      <use xlink:href="#DejaVuSans-65" x="347.851562"/>
     </g>
    </g>
    <g id="line2d_40">
     <path d="M 336.779375 166.448313 
L 346.779375 166.448313 
L 356.779375 166.448313 
" style="fill: none; stroke-dasharray: 9.6,2.4,1.5,2.4; stroke-dashoffset: 0; stroke: #008000; stroke-width: 1.5"/>
    </g>
    <g id="text_22">
     <!-- -1 sd -->
     <g transform="translate(364.779375 169.948313)scale(0.1 -0.1)">
      <defs>
       <path id="DejaVuSans-2d" d="M 313 2009 
L 1997 2009 
L 1997 1497 
L 313 1497 
L 313 2009 
z
" transform="scale(0.015625)"/>
      </defs>
      <use xlink:href="#DejaVuSans-2d"/>
      <use xlink:href="#DejaVuSans-31" x="36.083984"/>
      <use xlink:href="#DejaVuSans-20" x="99.707031"/>
      <use xlink:href="#DejaVuSans-73" x="131.494141"/>
      <use xlink:href="#DejaVuSans-64" x="183.59375"/>
     </g>
    </g>
    <g id="line2d_41">
     <path d="M 336.779375 181.126438 
L 346.779375 181.126438 
L 356.779375 181.126438 
" style="fill: none; stroke-dasharray: 9.6,2.4,1.5,2.4; stroke-dashoffset: 0; stroke: #008000; stroke-width: 1.5"/>
    </g>
    <g id="text_23">
     <!-- +1 sd -->
     <g transform="translate(364.779375 184.626438)scale(0.1 -0.1)">
      <defs>
       <path id="DejaVuSans-2b" d="M 2944 4013 
L 2944 2272 
L 4684 2272 
L 4684 1741 
L 2944 1741 
L 2944 0 
L 2419 0 
L 2419 1741 
L 678 1741 
L 678 2272 
L 2419 2272 
L 2419 4013 
L 2944 4013 
z
" transform="scale(0.015625)"/>
      </defs>
      <use xlink:href="#DejaVuSans-2b"/>
      <use xlink:href="#DejaVuSans-31" x="83.789062"/>
      <use xlink:href="#DejaVuSans-20" x="147.412109"/>
      <use xlink:href="#DejaVuSans-73" x="179.199219"/>
      <use xlink:href="#DejaVuSans-64" x="231.298828"/>
     </g>
    </g>
    <g id="line2d_42">
     <path d="M 336.779375 195.804563 
L 346.779375 195.804563 
L 356.779375 195.804563 
" style="fill: none; stroke: #ff0000; stroke-width: 1.5; stroke-linecap: square"/>
    </g>
    <g id="text_24">
     <!-- best -->
     <g transform="translate(364.779375 199.304563)scale(0.1 -0.1)">
      <use xlink:href="#DejaVuSans-62"/>
      <use xlink:href="#DejaVuSans-65" x="63.476562"/>
      <use xlink:href="#DejaVuSans-73" x="125"/>
      <use xlink:href="#DejaVuSans-74" x="177.099609"/>
     </g>
    </g>
   </g>
  </g>
 </g>
 <defs>
  <clipPath id="p26b02590b3">
   <rect x="57.6" y="41.472" width="357.12" height="266.112"/>
  </clipPath>
 </defs>
</svg>
