<?xml version="1.0" encoding="utf-8" standalone="no"?>
<!DOCTYPE svg PUBLIC "-//W3C//DTD SVG 1.1//EN"
  "http://www.w3.org/Graphics/SVG/1.1/DTD/svg11.dtd">
<svg xmlns:xlink="http://www.w3.org/1999/xlink" width="460.8pt" height="345.6pt" viewBox="0 0 460.8 345.6" xmlns="http://www.w3.org/2000/svg" version="1.1">
 <metadata>
  <rdf:RDF xmlns:dc="http://purl.org/dc/elements/1.1/" xmlns:cc="http://creativecommons.org/ns#" xmlns:rdf="http://www.w3.org/1999/02/22-rdf-syntax-ns#">
   <cc:Work>
    <dc:type rdf:resource="http://purl.org/dc/dcmitype/StillImage"/>
    <dc:date>2022-07-20T11:48:19.121781</dc:date>
    <dc:format>image/svg+xml</dc:format>
    <dc:creator>
     <cc:Agent>
      <dc:title>Matplotlib v3.5.2, https://matplotlib.org/</dc:title>
     </cc:Agent>
    </dc:creator>
   </cc:Work>
  </rdf:RDF>
 </metadata>
 <defs>
  <style type="text/css">*{stroke-linejoin: round; stroke-linecap: butt}</style>
 </defs>
 <g id="figure_1">
  <g id="patch_1">
   <path d="M 0 345.6 
L 460.8 345.6 
L 460.8 0 
L 0 0 
z
" style="fill: #ffffff"/>
  </g>
  <g id="axes_1">
   <g id="patch_2">
    <path d="M 57.6 307.584 
L 414.72 307.584 
L 414.72 41.472 
L 57.6 41.472 
z
" style="fill: #ffffff"/>
   </g>
   <g id="matplotlib.axis_1">
    <g id="xtick_1">
     <g id="line2d_1">
      <path d="M 73.832727 307.584 
L 73.832727 41.472 
" clip-path="url(#p3f38284bc4)" style="fill: none; stroke: #b0b0b0; stroke-width: 0.8; stroke-linecap: square"/>
     </g>
     <g id="line2d_2">
      <defs>
       <path id="m6a10133498" d="M 0 0 
L 0 3.5 
" style="stroke: #000000; stroke-width: 0.8"/>
      </defs>
      <g>
       <use xlink:href="#m6a10133498" x="73.832727" y="307.584" style="stroke: #000000; stroke-width: 0.8"/>
      </g>
     </g>
     <g id="text_1">
      <!-- 0 -->
      <g transform="translate(70.651477 322.182437)scale(0.1 -0.1)">
       <defs>
        <path id="DejaVuSans-30" d="M 2034 4250 
Q 1547 4250 1301 3770 
Q 1056 3291 1056 2328 
Q 1056 1369 1301 889 
Q 1547 409 2034 409 
Q 2525 409 2770 889 
Q 3016 1369 3016 2328 
Q 3016 3291 2770 3770 
Q 2525 4250 2034 4250 
z
M 2034 4750 
Q 2819 4750 3233 4129 
Q 3647 3509 3647 2328 
Q 3647 1150 3233 529 
Q 2819 -91 2034 -91 
Q 1250 -91 836 529 
Q 422 1150 422 2328 
Q 422 3509 836 4129 
Q 1250 4750 2034 4750 
z
" transform="scale(0.015625)"/>
       </defs>
       <use xlink:href="#DejaVuSans-30"/>
      </g>
     </g>
    </g>
    <g id="xtick_2">
     <g id="line2d_3">
      <path d="M 114.618474 307.584 
L 114.618474 41.472 
" clip-path="url(#p3f38284bc4)" style="fill: none; stroke: #b0b0b0; stroke-width: 0.8; stroke-linecap: square"/>
     </g>
     <g id="line2d_4">
      <g>
       <use xlink:href="#m6a10133498" x="114.618474" y="307.584" style="stroke: #000000; stroke-width: 0.8"/>
      </g>
     </g>
     <g id="text_2">
      <!-- 25 -->
      <g transform="translate(108.255974 322.182437)scale(0.1 -0.1)">
       <defs>
        <path id="DejaVuSans-32" d="M 1228 531 
L 3431 531 
L 3431 0 
L 469 0 
L 469 531 
Q 828 903 1448 1529 
Q 2069 2156 2228 2338 
Q 2531 2678 2651 2914 
Q 2772 3150 2772 3378 
Q 2772 3750 2511 3984 
Q 2250 4219 1831 4219 
Q 1534 4219 1204 4116 
Q 875 4013 500 3803 
L 500 4441 
Q 881 4594 1212 4672 
Q 1544 4750 1819 4750 
Q 2544 4750 2975 4387 
Q 3406 4025 3406 3419 
Q 3406 3131 3298 2873 
Q 3191 2616 2906 2266 
Q 2828 2175 2409 1742 
Q 1991 1309 1228 531 
z
" transform="scale(0.015625)"/>
        <path id="DejaVuSans-35" d="M 691 4666 
L 3169 4666 
L 3169 4134 
L 1269 4134 
L 1269 2991 
Q 1406 3038 1543 3061 
Q 1681 3084 1819 3084 
Q 2600 3084 3056 2656 
Q 3513 2228 3513 1497 
Q 3513 744 3044 326 
Q 2575 -91 1722 -91 
Q 1428 -91 1123 -41 
Q 819 9 494 109 
L 494 744 
Q 775 591 1075 516 
Q 1375 441 1709 441 
Q 2250 441 2565 725 
Q 2881 1009 2881 1497 
Q 2881 1984 2565 2268 
Q 2250 2553 1709 2553 
Q 1456 2553 1204 2497 
Q 953 2441 691 2322 
L 691 4666 
z
" transform="scale(0.015625)"/>
       </defs>
       <use xlink:href="#DejaVuSans-32"/>
       <use xlink:href="#DejaVuSans-35" x="63.623047"/>
      </g>
     </g>
    </g>
    <g id="xtick_3">
     <g id="line2d_5">
      <path d="M 155.404221 307.584 
L 155.404221 41.472 
" clip-path="url(#p3f38284bc4)" style="fill: none; stroke: #b0b0b0; stroke-width: 0.8; stroke-linecap: square"/>
     </g>
     <g id="line2d_6">
      <g>
       <use xlink:href="#m6a10133498" x="155.404221" y="307.584" style="stroke: #000000; stroke-width: 0.8"/>
      </g>
     </g>
     <g id="text_3">
      <!-- 50 -->
      <g transform="translate(149.041721 322.182437)scale(0.1 -0.1)">
       <use xlink:href="#DejaVuSans-35"/>
       <use xlink:href="#DejaVuSans-30" x="63.623047"/>
      </g>
     </g>
    </g>
    <g id="xtick_4">
     <g id="line2d_7">
      <path d="M 196.189968 307.584 
L 196.189968 41.472 
" clip-path="url(#p3f38284bc4)" style="fill: none; stroke: #b0b0b0; stroke-width: 0.8; stroke-linecap: square"/>
     </g>
     <g id="line2d_8">
      <g>
       <use xlink:href="#m6a10133498" x="196.189968" y="307.584" style="stroke: #000000; stroke-width: 0.8"/>
      </g>
     </g>
     <g id="text_4">
      <!-- 75 -->
      <g transform="translate(189.827468 322.182437)scale(0.1 -0.1)">
       <defs>
        <path id="DejaVuSans-37" d="M 525 4666 
L 3525 4666 
L 3525 4397 
L 1831 0 
L 1172 0 
L 2766 4134 
L 525 4134 
L 525 4666 
z
" transform="scale(0.015625)"/>
       </defs>
       <use xlink:href="#DejaVuSans-37"/>
       <use xlink:href="#DejaVuSans-35" x="63.623047"/>
      </g>
     </g>
    </g>
    <g id="xtick_5">
     <g id="line2d_9">
      <path d="M 236.975715 307.584 
L 236.975715 41.472 
" clip-path="url(#p3f38284bc4)" style="fill: none; stroke: #b0b0b0; stroke-width: 0.8; stroke-linecap: square"/>
     </g>
     <g id="line2d_10">
      <g>
       <use xlink:href="#m6a10133498" x="236.975715" y="307.584" style="stroke: #000000; stroke-width: 0.8"/>
      </g>
     </g>
     <g id="text_5">
      <!-- 100 -->
      <g transform="translate(227.431965 322.182437)scale(0.1 -0.1)">
       <defs>
        <path id="DejaVuSans-31" d="M 794 531 
L 1825 531 
L 1825 4091 
L 703 3866 
L 703 4441 
L 1819 4666 
L 2450 4666 
L 2450 531 
L 3481 531 
L 3481 0 
L 794 0 
L 794 531 
z
" transform="scale(0.015625)"/>
       </defs>
       <use xlink:href="#DejaVuSans-31"/>
       <use xlink:href="#DejaVuSans-30" x="63.623047"/>
       <use xlink:href="#DejaVuSans-30" x="127.246094"/>
      </g>
     </g>
    </g>
    <g id="xtick_6">
     <g id="line2d_11">
      <path d="M 277.761462 307.584 
L 277.761462 41.472 
" clip-path="url(#p3f38284bc4)" style="fill: none; stroke: #b0b0b0; stroke-width: 0.8; stroke-linecap: square"/>
     </g>
     <g id="line2d_12">
      <g>
       <use xlink:href="#m6a10133498" x="277.761462" y="307.584" style="stroke: #000000; stroke-width: 0.8"/>
      </g>
     </g>
     <g id="text_6">
      <!-- 125 -->
      <g transform="translate(268.217712 322.182437)scale(0.1 -0.1)">
       <use xlink:href="#DejaVuSans-31"/>
       <use xlink:href="#DejaVuSans-32" x="63.623047"/>
       <use xlink:href="#DejaVuSans-35" x="127.246094"/>
      </g>
     </g>
    </g>
    <g id="xtick_7">
     <g id="line2d_13">
      <path d="M 318.547209 307.584 
L 318.547209 41.472 
" clip-path="url(#p3f38284bc4)" style="fill: none; stroke: #b0b0b0; stroke-width: 0.8; stroke-linecap: square"/>
     </g>
     <g id="line2d_14">
      <g>
       <use xlink:href="#m6a10133498" x="318.547209" y="307.584" style="stroke: #000000; stroke-width: 0.8"/>
      </g>
     </g>
     <g id="text_7">
      <!-- 150 -->
      <g transform="translate(309.003459 322.182437)scale(0.1 -0.1)">
       <use xlink:href="#DejaVuSans-31"/>
       <use xlink:href="#DejaVuSans-35" x="63.623047"/>
       <use xlink:href="#DejaVuSans-30" x="127.246094"/>
      </g>
     </g>
    </g>
    <g id="xtick_8">
     <g id="line2d_15">
      <path d="M 359.332956 307.584 
L 359.332956 41.472 
" clip-path="url(#p3f38284bc4)" style="fill: none; stroke: #b0b0b0; stroke-width: 0.8; stroke-linecap: square"/>
     </g>
     <g id="line2d_16">
      <g>
       <use xlink:href="#m6a10133498" x="359.332956" y="307.584" style="stroke: #000000; stroke-width: 0.8"/>
      </g>
     </g>
     <g id="text_8">
      <!-- 175 -->
      <g transform="translate(349.789206 322.182437)scale(0.1 -0.1)">
       <use xlink:href="#DejaVuSans-31"/>
       <use xlink:href="#DejaVuSans-37" x="63.623047"/>
       <use xlink:href="#DejaVuSans-35" x="127.246094"/>
      </g>
     </g>
    </g>
    <g id="xtick_9">
     <g id="line2d_17">
      <path d="M 400.118703 307.584 
L 400.118703 41.472 
" clip-path="url(#p3f38284bc4)" style="fill: none; stroke: #b0b0b0; stroke-width: 0.8; stroke-linecap: square"/>
     </g>
     <g id="line2d_18">
      <g>
       <use xlink:href="#m6a10133498" x="400.118703" y="307.584" style="stroke: #000000; stroke-width: 0.8"/>
      </g>
     </g>
     <g id="text_9">
      <!-- 200 -->
      <g transform="translate(390.574953 322.182437)scale(0.1 -0.1)">
       <use xlink:href="#DejaVuSans-32"/>
       <use xlink:href="#DejaVuSans-30" x="63.623047"/>
       <use xlink:href="#DejaVuSans-30" x="127.246094"/>
      </g>
     </g>
    </g>
    <g id="text_10">
     <!-- Generations -->
     <g transform="translate(205.662344 335.860562)scale(0.1 -0.1)">
      <defs>
       <path id="DejaVuSans-47" d="M 3809 666 
L 3809 1919 
L 2778 1919 
L 2778 2438 
L 4434 2438 
L 4434 434 
Q 4069 175 3628 42 
Q 3188 -91 2688 -91 
Q 1594 -91 976 548 
Q 359 1188 359 2328 
Q 359 3472 976 4111 
Q 1594 4750 2688 4750 
Q 3144 4750 3555 4637 
Q 3966 4525 4313 4306 
L 4313 3634 
Q 3963 3931 3569 4081 
Q 3175 4231 2741 4231 
Q 1884 4231 1454 3753 
Q 1025 3275 1025 2328 
Q 1025 1384 1454 906 
Q 1884 428 2741 428 
Q 3075 428 3337 486 
Q 3600 544 3809 666 
z
" transform="scale(0.015625)"/>
       <path id="DejaVuSans-65" d="M 3597 1894 
L 3597 1613 
L 953 1613 
Q 991 1019 1311 708 
Q 1631 397 2203 397 
Q 2534 397 2845 478 
Q 3156 559 3463 722 
L 3463 178 
Q 3153 47 2828 -22 
Q 2503 -91 2169 -91 
Q 1331 -91 842 396 
Q 353 884 353 1716 
Q 353 2575 817 3079 
Q 1281 3584 2069 3584 
Q 2775 3584 3186 3129 
Q 3597 2675 3597 1894 
z
M 3022 2063 
Q 3016 2534 2758 2815 
Q 2500 3097 2075 3097 
Q 1594 3097 1305 2825 
Q 1016 2553 972 2059 
L 3022 2063 
z
" transform="scale(0.015625)"/>
       <path id="DejaVuSans-6e" d="M 3513 2113 
L 3513 0 
L 2938 0 
L 2938 2094 
Q 2938 2591 2744 2837 
Q 2550 3084 2163 3084 
Q 1697 3084 1428 2787 
Q 1159 2491 1159 1978 
L 1159 0 
L 581 0 
L 581 3500 
L 1159 3500 
L 1159 2956 
Q 1366 3272 1645 3428 
Q 1925 3584 2291 3584 
Q 2894 3584 3203 3211 
Q 3513 2838 3513 2113 
z
" transform="scale(0.015625)"/>
       <path id="DejaVuSans-72" d="M 2631 2963 
Q 2534 3019 2420 3045 
Q 2306 3072 2169 3072 
Q 1681 3072 1420 2755 
Q 1159 2438 1159 1844 
L 1159 0 
L 581 0 
L 581 3500 
L 1159 3500 
L 1159 2956 
Q 1341 3275 1631 3429 
Q 1922 3584 2338 3584 
Q 2397 3584 2469 3576 
Q 2541 3569 2628 3553 
L 2631 2963 
z
" transform="scale(0.015625)"/>
       <path id="DejaVuSans-61" d="M 2194 1759 
Q 1497 1759 1228 1600 
Q 959 1441 959 1056 
Q 959 750 1161 570 
Q 1363 391 1709 391 
Q 2188 391 2477 730 
Q 2766 1069 2766 1631 
L 2766 1759 
L 2194 1759 
z
M 3341 1997 
L 3341 0 
L 2766 0 
L 2766 531 
Q 2569 213 2275 61 
Q 1981 -91 1556 -91 
Q 1019 -91 701 211 
Q 384 513 384 1019 
Q 384 1609 779 1909 
Q 1175 2209 1959 2209 
L 2766 2209 
L 2766 2266 
Q 2766 2663 2505 2880 
Q 2244 3097 1772 3097 
Q 1472 3097 1187 3025 
Q 903 2953 641 2809 
L 641 3341 
Q 956 3463 1253 3523 
Q 1550 3584 1831 3584 
Q 2591 3584 2966 3190 
Q 3341 2797 3341 1997 
z
" transform="scale(0.015625)"/>
       <path id="DejaVuSans-74" d="M 1172 4494 
L 1172 3500 
L 2356 3500 
L 2356 3053 
L 1172 3053 
L 1172 1153 
Q 1172 725 1289 603 
Q 1406 481 1766 481 
L 2356 481 
L 2356 0 
L 1766 0 
Q 1100 0 847 248 
Q 594 497 594 1153 
L 594 3053 
L 172 3053 
L 172 3500 
L 594 3500 
L 594 4494 
L 1172 4494 
z
" transform="scale(0.015625)"/>
       <path id="DejaVuSans-69" d="M 603 3500 
L 1178 3500 
L 1178 0 
L 603 0 
L 603 3500 
z
M 603 4863 
L 1178 4863 
L 1178 4134 
L 603 4134 
L 603 4863 
z
" transform="scale(0.015625)"/>
       <path id="DejaVuSans-6f" d="M 1959 3097 
Q 1497 3097 1228 2736 
Q 959 2375 959 1747 
Q 959 1119 1226 758 
Q 1494 397 1959 397 
Q 2419 397 2687 759 
Q 2956 1122 2956 1747 
Q 2956 2369 2687 2733 
Q 2419 3097 1959 3097 
z
M 1959 3584 
Q 2709 3584 3137 3096 
Q 3566 2609 3566 1747 
Q 3566 888 3137 398 
Q 2709 -91 1959 -91 
Q 1206 -91 779 398 
Q 353 888 353 1747 
Q 353 2609 779 3096 
Q 1206 3584 1959 3584 
z
" transform="scale(0.015625)"/>
       <path id="DejaVuSans-73" d="M 2834 3397 
L 2834 2853 
Q 2591 2978 2328 3040 
Q 2066 3103 1784 3103 
Q 1356 3103 1142 2972 
Q 928 2841 928 2578 
Q 928 2378 1081 2264 
Q 1234 2150 1697 2047 
L 1894 2003 
Q 2506 1872 2764 1633 
Q 3022 1394 3022 966 
Q 3022 478 2636 193 
Q 2250 -91 1575 -91 
Q 1294 -91 989 -36 
Q 684 19 347 128 
L 347 722 
Q 666 556 975 473 
Q 1284 391 1588 391 
Q 1994 391 2212 530 
Q 2431 669 2431 922 
Q 2431 1156 2273 1281 
Q 2116 1406 1581 1522 
L 1381 1569 
Q 847 1681 609 1914 
Q 372 2147 372 2553 
Q 372 3047 722 3315 
Q 1072 3584 1716 3584 
Q 2034 3584 2315 3537 
Q 2597 3491 2834 3397 
z
" transform="scale(0.015625)"/>
      </defs>
      <use xlink:href="#DejaVuSans-47"/>
      <use xlink:href="#DejaVuSans-65" x="77.490234"/>
      <use xlink:href="#DejaVuSans-6e" x="139.013672"/>
      <use xlink:href="#DejaVuSans-65" x="202.392578"/>
      <use xlink:href="#DejaVuSans-72" x="263.916016"/>
      <use xlink:href="#DejaVuSans-61" x="305.029297"/>
      <use xlink:href="#DejaVuSans-74" x="366.308594"/>
      <use xlink:href="#DejaVuSans-69" x="405.517578"/>
      <use xlink:href="#DejaVuSans-6f" x="433.300781"/>
      <use xlink:href="#DejaVuSans-6e" x="494.482422"/>
      <use xlink:href="#DejaVuSans-73" x="557.861328"/>
     </g>
    </g>
   </g>
   <g id="matplotlib.axis_2">
    <g id="ytick_1">
     <g id="line2d_19">
      <path d="M 57.6 303.98911 
L 414.72 303.98911 
" clip-path="url(#p3f38284bc4)" style="fill: none; stroke: #b0b0b0; stroke-width: 0.8; stroke-linecap: square"/>
     </g>
     <g id="line2d_20">
      <defs>
       <path id="m53fac44da2" d="M 0 0 
L -3.5 0 
" style="stroke: #000000; stroke-width: 0.8"/>
      </defs>
      <g>
       <use xlink:href="#m53fac44da2" x="57.6" y="303.98911" style="stroke: #000000; stroke-width: 0.8"/>
      </g>
     </g>
     <g id="text_11">
      <!-- −25 -->
      <g transform="translate(29.495313 307.788329)scale(0.1 -0.1)">
       <defs>
        <path id="DejaVuSans-2212" d="M 678 2272 
L 4684 2272 
L 4684 1741 
L 678 1741 
L 678 2272 
z
" transform="scale(0.015625)"/>
       </defs>
       <use xlink:href="#DejaVuSans-2212"/>
       <use xlink:href="#DejaVuSans-32" x="83.789062"/>
       <use xlink:href="#DejaVuSans-35" x="147.412109"/>
      </g>
     </g>
    </g>
    <g id="ytick_2">
     <g id="line2d_21">
      <path d="M 57.6 274.034432 
L 414.72 274.034432 
" clip-path="url(#p3f38284bc4)" style="fill: none; stroke: #b0b0b0; stroke-width: 0.8; stroke-linecap: square"/>
     </g>
     <g id="line2d_22">
      <g>
       <use xlink:href="#m53fac44da2" x="57.6" y="274.034432" style="stroke: #000000; stroke-width: 0.8"/>
      </g>
     </g>
     <g id="text_12">
      <!-- 0 -->
      <g transform="translate(44.2375 277.833651)scale(0.1 -0.1)">
       <use xlink:href="#DejaVuSans-30"/>
      </g>
     </g>
    </g>
    <g id="ytick_3">
     <g id="line2d_23">
      <path d="M 57.6 244.079754 
L 414.72 244.079754 
" clip-path="url(#p3f38284bc4)" style="fill: none; stroke: #b0b0b0; stroke-width: 0.8; stroke-linecap: square"/>
     </g>
     <g id="line2d_24">
      <g>
       <use xlink:href="#m53fac44da2" x="57.6" y="244.079754" style="stroke: #000000; stroke-width: 0.8"/>
      </g>
     </g>
     <g id="text_13">
      <!-- 25 -->
      <g transform="translate(37.875 247.878972)scale(0.1 -0.1)">
       <use xlink:href="#DejaVuSans-32"/>
       <use xlink:href="#DejaVuSans-35" x="63.623047"/>
      </g>
     </g>
    </g>
    <g id="ytick_4">
     <g id="line2d_25">
      <path d="M 57.6 214.125075 
L 414.72 214.125075 
" clip-path="url(#p3f38284bc4)" style="fill: none; stroke: #b0b0b0; stroke-width: 0.8; stroke-linecap: square"/>
     </g>
     <g id="line2d_26">
      <g>
       <use xlink:href="#m53fac44da2" x="57.6" y="214.125075" style="stroke: #000000; stroke-width: 0.8"/>
      </g>
     </g>
     <g id="text_14">
      <!-- 50 -->
      <g transform="translate(37.875 217.924294)scale(0.1 -0.1)">
       <use xlink:href="#DejaVuSans-35"/>
       <use xlink:href="#DejaVuSans-30" x="63.623047"/>
      </g>
     </g>
    </g>
    <g id="ytick_5">
     <g id="line2d_27">
      <path d="M 57.6 184.170397 
L 414.72 184.170397 
" clip-path="url(#p3f38284bc4)" style="fill: none; stroke: #b0b0b0; stroke-width: 0.8; stroke-linecap: square"/>
     </g>
     <g id="line2d_28">
      <g>
       <use xlink:href="#m53fac44da2" x="57.6" y="184.170397" style="stroke: #000000; stroke-width: 0.8"/>
      </g>
     </g>
     <g id="text_15">
      <!-- 75 -->
      <g transform="translate(37.875 187.969616)scale(0.1 -0.1)">
       <use xlink:href="#DejaVuSans-37"/>
       <use xlink:href="#DejaVuSans-35" x="63.623047"/>
      </g>
     </g>
    </g>
    <g id="ytick_6">
     <g id="line2d_29">
      <path d="M 57.6 154.215719 
L 414.72 154.215719 
" clip-path="url(#p3f38284bc4)" style="fill: none; stroke: #b0b0b0; stroke-width: 0.8; stroke-linecap: square"/>
     </g>
     <g id="line2d_30">
      <g>
       <use xlink:href="#m53fac44da2" x="57.6" y="154.215719" style="stroke: #000000; stroke-width: 0.8"/>
      </g>
     </g>
     <g id="text_16">
      <!-- 100 -->
      <g transform="translate(31.5125 158.014938)scale(0.1 -0.1)">
       <use xlink:href="#DejaVuSans-31"/>
       <use xlink:href="#DejaVuSans-30" x="63.623047"/>
       <use xlink:href="#DejaVuSans-30" x="127.246094"/>
      </g>
     </g>
    </g>
    <g id="ytick_7">
     <g id="line2d_31">
      <path d="M 57.6 124.261041 
L 414.72 124.261041 
" clip-path="url(#p3f38284bc4)" style="fill: none; stroke: #b0b0b0; stroke-width: 0.8; stroke-linecap: square"/>
     </g>
     <g id="line2d_32">
      <g>
       <use xlink:href="#m53fac44da2" x="57.6" y="124.261041" style="stroke: #000000; stroke-width: 0.8"/>
      </g>
     </g>
     <g id="text_17">
      <!-- 125 -->
      <g transform="translate(31.5125 128.060259)scale(0.1 -0.1)">
       <use xlink:href="#DejaVuSans-31"/>
       <use xlink:href="#DejaVuSans-32" x="63.623047"/>
       <use xlink:href="#DejaVuSans-35" x="127.246094"/>
      </g>
     </g>
    </g>
    <g id="ytick_8">
     <g id="line2d_33">
      <path d="M 57.6 94.306362 
L 414.72 94.306362 
" clip-path="url(#p3f38284bc4)" style="fill: none; stroke: #b0b0b0; stroke-width: 0.8; stroke-linecap: square"/>
     </g>
     <g id="line2d_34">
      <g>
       <use xlink:href="#m53fac44da2" x="57.6" y="94.306362" style="stroke: #000000; stroke-width: 0.8"/>
      </g>
     </g>
     <g id="text_18">
      <!-- 150 -->
      <g transform="translate(31.5125 98.105581)scale(0.1 -0.1)">
       <use xlink:href="#DejaVuSans-31"/>
       <use xlink:href="#DejaVuSans-35" x="63.623047"/>
       <use xlink:href="#DejaVuSans-30" x="127.246094"/>
      </g>
     </g>
    </g>
    <g id="ytick_9">
     <g id="line2d_35">
      <path d="M 57.6 64.351684 
L 414.72 64.351684 
" clip-path="url(#p3f38284bc4)" style="fill: none; stroke: #b0b0b0; stroke-width: 0.8; stroke-linecap: square"/>
     </g>
     <g id="line2d_36">
      <g>
       <use xlink:href="#m53fac44da2" x="57.6" y="64.351684" style="stroke: #000000; stroke-width: 0.8"/>
      </g>
     </g>
     <g id="text_19">
      <!-- 175 -->
      <g transform="translate(31.5125 68.150903)scale(0.1 -0.1)">
       <use xlink:href="#DejaVuSans-31"/>
       <use xlink:href="#DejaVuSans-37" x="63.623047"/>
       <use xlink:href="#DejaVuSans-35" x="127.246094"/>
      </g>
     </g>
    </g>
    <g id="text_20">
     <!-- Fitness -->
     <g transform="translate(23.415625 191.845187)rotate(-90)scale(0.1 -0.1)">
      <defs>
       <path id="DejaVuSans-46" d="M 628 4666 
L 3309 4666 
L 3309 4134 
L 1259 4134 
L 1259 2759 
L 3109 2759 
L 3109 2228 
L 1259 2228 
L 1259 0 
L 628 0 
L 628 4666 
z
" transform="scale(0.015625)"/>
      </defs>
      <use xlink:href="#DejaVuSans-46"/>
      <use xlink:href="#DejaVuSans-69" x="50.269531"/>
      <use xlink:href="#DejaVuSans-74" x="78.052734"/>
      <use xlink:href="#DejaVuSans-6e" x="117.261719"/>
      <use xlink:href="#DejaVuSans-65" x="180.640625"/>
      <use xlink:href="#DejaVuSans-73" x="242.164062"/>
      <use xlink:href="#DejaVuSans-73" x="294.263672"/>
     </g>
    </g>
   </g>
   <g id="line2d_37">
    <path d="M 73.832727 242.968852 
L 75.464157 237.976987 
L 77.095587 224.820303 
L 78.727017 233.577523 
L 80.358447 231.439276 
L 81.989877 232.399413 
L 83.621307 225.835358 
L 85.252736 236.802764 
L 86.884166 229.76584 
L 88.515596 226.86285 
L 90.147026 220.970718 
L 91.778456 231.736014 
L 93.409886 223.718614 
L 96.672746 230.037 
L 98.304175 222.136953 
L 99.935605 219.844422 
L 101.567035 223.135443 
L 103.198465 229.270161 
L 104.829895 215.866441 
L 106.461325 218.885872 
L 108.092755 217.47035 
L 109.724185 214.22093 
L 111.355614 220.196426 
L 112.987044 215.834489 
L 114.618474 216.721148 
L 116.249904 213.358236 
L 117.881334 213.430127 
L 119.512764 214.864896 
L 121.144194 211.914906 
L 122.775624 207.667731 
L 124.407053 214.648786 
L 126.038483 212.077842 
L 127.669913 217.388559 
L 129.301343 206.762531 
L 130.932773 198.934636 
L 132.564203 209.218985 
L 134.195633 208.568382 
L 135.827063 200.018419 
L 137.458492 209.697338 
L 139.089922 200.761295 
L 140.721352 201.336425 
L 142.352782 205.166444 
L 143.984212 203.549077 
L 145.615642 205.150734 
L 147.247072 207.151626 
L 148.878502 189.602179 
L 150.509931 215.443081 
L 152.141361 205.29843 
L 153.772791 203.157669 
L 155.404221 193.875713 
L 157.035651 206.895745 
L 158.667081 207.630901 
L 160.298511 211.842043 
L 161.929941 205.977403 
L 163.56137 205.928206 
L 165.1928 206.935953 
L 166.82423 208.705088 
L 168.45566 204.129461 
L 170.08709 201.532208 
L 171.71852 206.752231 
L 173.34995 209.492085 
L 174.98138 197.270576 
L 176.61281 206.312895 
L 178.244239 197.865113 
L 179.875669 199.754818 
L 181.507099 198.862262 
L 183.138529 209.73971 
L 184.769959 183.866856 
L 186.401389 206.488629 
L 188.032819 203.719343 
L 189.664249 205.071224 
L 191.295678 197.925585 
L 192.927108 199.946528 
L 194.558538 193.890789 
L 196.189968 208.70927 
L 197.821398 208.13414 
L 199.452828 203.663052 
L 201.084258 204.941655 
L 202.715688 218.366658 
L 204.347117 194.450843 
L 205.978547 212.203151 
L 207.609977 211.80858 
L 209.241407 216.80711 
L 210.872837 213.888591 
L 212.504267 205.282454 
L 214.135697 204.643421 
L 215.767127 211.481076 
L 217.398556 201.991434 
L 219.029986 204.148171 
L 220.661416 205.729724 
L 222.292846 214.204955 
L 223.924276 210.115142 
L 225.555706 217.63177 
L 227.187136 217.200422 
L 228.818566 206.193077 
L 230.449995 211.544979 
L 232.081425 208.182067 
L 233.712855 202.614491 
L 235.344285 218.021167 
L 236.975715 212.863408 
L 240.238575 206.155925 
L 241.870005 193.148813 
L 243.501434 209.637905 
L 245.132864 203.285476 
L 246.764294 198.524679 
L 248.395724 207.439191 
L 250.027154 201.676796 
L 251.658584 212.99122 
L 253.290014 206.284589 
L 254.921444 204.196098 
L 256.552873 214.165555 
L 258.184303 211.097224 
L 259.815733 203.438542 
L 261.447163 204.804949 
L 263.078593 210.083191 
L 264.710023 198.97999 
L 266.341453 206.197996 
L 267.972883 201.333833 
L 271.235742 205.086402 
L 272.867172 205.729778 
L 274.498602 191.615133 
L 276.130032 203.836642 
L 277.761462 198.572291 
L 279.392892 202.111673 
L 281.024322 194.509721 
L 282.655751 198.186033 
L 284.287181 195.580947 
L 285.918611 207.388248 
L 287.550041 199.478814 
L 289.181471 200.377875 
L 290.812901 206.768206 
L 292.444331 200.521658 
L 294.075761 201.440268 
L 295.70719 196.372987 
L 297.33862 193.820226 
L 298.97005 193.835244 
L 300.60148 189.359896 
L 302.23291 195.684103 
L 305.49577 196.9299 
L 307.1272 203.437246 
L 308.75863 189.463052 
L 310.390059 193.311533 
L 312.021489 196.514137 
L 313.652919 195.983396 
L 315.284349 197.02512 
L 316.915779 203.222366 
L 318.547209 200.062142 
L 320.178639 199.991197 
L 321.810069 197.7179 
L 323.441498 188.092463 
L 325.072928 198.796268 
L 326.704358 199.954516 
L 328.335788 194.938211 
L 329.967218 199.267555 
L 331.598648 195.852722 
L 333.230078 201.544111 
L 334.861508 198.005465 
L 336.492937 199.119964 
L 338.124367 194.013223 
L 339.755797 196.064401 
L 341.387227 192.171714 
L 343.018657 200.437176 
L 344.650087 205.761414 
L 346.281517 205.888531 
L 347.912947 200.603811 
L 349.544376 197.997477 
L 351.175806 201.452858 
L 352.807236 195.776836 
L 354.438666 208.405729 
L 356.070096 200.69573 
L 357.701526 199.531156 
L 359.332956 197.00925 
L 360.964386 194.954081 
L 362.595815 199.954516 
L 364.227245 205.890554 
L 365.858675 190.129167 
L 367.490105 202.143204 
L 369.121535 202.032114 
L 370.752965 193.216313 
L 372.384395 212.458722 
L 374.015825 206.594747 
L 375.647254 205.786015 
L 377.278684 203.509137 
L 378.910114 197.741863 
L 380.541544 205.050805 
L 382.172974 197.985736 
L 383.804404 195.808788 
L 385.435834 205.255274 
L 387.067264 199.015051 
L 388.698693 202.830165 
L 390.330123 188.979121 
L 391.961553 192.310082 
L 393.592983 208.575577 
L 395.224413 198.699408 
L 396.855843 203.230301 
L 398.487273 205.4283 
L 398.487273 205.4283 
" clip-path="url(#p3f38284bc4)" style="fill: none; stroke: #0000ff; stroke-width: 1.5; stroke-linecap: square"/>
   </g>
   <g id="line2d_38">
    <path d="M 73.832727 295.488 
L 75.464157 290.993818 
L 77.095587 283.11406 
L 78.727017 286.636857 
L 80.358447 285.927277 
L 81.989877 289.329561 
L 83.621307 285.137131 
L 85.252736 288.277808 
L 86.884166 288.022841 
L 88.515596 283.900313 
L 90.147026 281.549292 
L 91.778456 289.170824 
L 93.409886 281.382762 
L 95.041316 286.899071 
L 96.672746 288.763674 
L 98.304175 279.468279 
L 99.935605 278.255055 
L 101.567035 283.774085 
L 103.198465 283.632177 
L 104.829895 276.756135 
L 106.461325 276.64594 
L 108.092755 276.779743 
L 109.724185 280.912866 
L 111.355614 279.005025 
L 112.987044 273.233755 
L 114.618474 280.483681 
L 116.249904 270.603044 
L 117.881334 276.14028 
L 119.512764 276.767337 
L 121.144194 275.279929 
L 122.775624 272.790309 
L 124.407053 276.96437 
L 126.038483 275.293362 
L 127.669913 276.496741 
L 129.301343 268.191406 
L 130.932773 261.737157 
L 132.564203 274.106928 
L 134.195633 268.614484 
L 135.827063 268.831944 
L 137.458492 269.885831 
L 139.089922 266.232143 
L 140.721352 268.225822 
L 142.352782 265.767837 
L 143.984212 268.36155 
L 145.615642 270.744901 
L 147.247072 270.07734 
L 148.878502 253.60626 
L 150.509931 274.951179 
L 152.141361 272.106207 
L 153.772791 271.29646 
L 155.404221 260.412365 
L 157.035651 270.164189 
L 158.667081 273.286931 
L 160.298511 281.165463 
L 161.929941 275.907748 
L 163.56137 272.893513 
L 165.1928 272.549654 
L 166.82423 272.366468 
L 168.45566 267.966195 
L 170.08709 267.34261 
L 171.71852 271.012566 
L 173.34995 277.242501 
L 174.98138 263.020039 
L 176.61281 268.878723 
L 178.244239 262.989547 
L 179.875669 268.368094 
L 181.507099 262.699996 
L 183.138529 273.997378 
L 184.769959 251.366129 
L 186.401389 268.54725 
L 188.032819 270.450076 
L 189.664249 271.48488 
L 191.295678 263.633119 
L 192.927108 266.22327 
L 194.558538 261.712914 
L 196.189968 270.014269 
L 197.821398 271.685967 
L 199.452828 265.901109 
L 201.084258 271.798253 
L 202.715688 280.840925 
L 204.347117 262.096866 
L 205.978547 275.631664 
L 207.609977 277.434923 
L 209.241407 278.952975 
L 210.872837 276.207212 
L 212.504267 271.386294 
L 214.135697 270.917928 
L 215.767127 275.092408 
L 217.398556 269.11805 
L 219.029986 271.481952 
L 220.661416 271.918004 
L 222.292846 276.546569 
L 223.924276 275.84092 
L 225.555706 282.249369 
L 227.187136 282.516227 
L 228.818566 275.017383 
L 230.449995 273.747355 
L 232.081425 270.244595 
L 233.712855 267.319539 
L 235.344285 281.546898 
L 236.975715 277.496675 
L 240.238575 275.89132 
L 241.870005 264.42282 
L 243.501434 271.862108 
L 245.132864 268.577526 
L 246.764294 267.807318 
L 248.395724 275.662002 
L 250.027154 265.326539 
L 251.658584 272.886549 
L 253.290014 266.578301 
L 254.921444 269.279808 
L 256.552873 274.802107 
L 258.184303 273.959002 
L 259.815733 266.775054 
L 261.447163 269.964081 
L 263.078593 276.277009 
L 264.710023 265.228692 
L 266.341453 270.885091 
L 267.972883 264.006325 
L 269.604312 269.565547 
L 271.235742 272.24753 
L 272.867172 268.378123 
L 274.498602 260.559614 
L 276.130032 269.154758 
L 277.761462 266.011046 
L 279.392892 267.175659 
L 281.024322 260.321242 
L 282.655751 266.670804 
L 284.287181 263.022988 
L 285.918611 271.270459 
L 287.550041 265.926792 
L 289.181471 266.909341 
L 290.812901 273.383823 
L 292.444331 265.936257 
L 294.075761 269.920855 
L 295.70719 265.787256 
L 297.33862 265.095216 
L 298.97005 261.380517 
L 300.60148 258.296471 
L 302.23291 260.713796 
L 303.86434 261.652964 
L 305.49577 262.904696 
L 307.1272 269.813572 
L 308.75863 257.845815 
L 310.390059 260.674834 
L 312.021489 261.596014 
L 313.652919 260.841976 
L 315.284349 260.804435 
L 316.915779 266.385249 
L 318.547209 268.600086 
L 320.178639 263.517025 
L 321.810069 267.768302 
L 323.441498 250.244836 
L 325.072928 262.799696 
L 326.704358 265.213635 
L 328.335788 261.788402 
L 329.967218 264.155039 
L 331.598648 261.827536 
L 333.230078 267.995756 
L 334.861508 262.366829 
L 336.492937 261.369488 
L 338.124367 260.079993 
L 339.755797 262.011021 
L 341.387227 259.230874 
L 343.018657 264.473642 
L 344.650087 272.825041 
L 346.281517 272.446 
L 347.912947 266.362257 
L 349.544376 261.148741 
L 351.175806 264.581966 
L 352.807236 260.588629 
L 354.438666 268.880541 
L 356.070096 268.102421 
L 357.701526 262.764123 
L 359.332956 262.054644 
L 360.964386 257.419386 
L 362.595815 263.130345 
L 364.227245 269.539175 
L 365.858675 255.363686 
L 367.490105 267.367886 
L 369.121535 264.364749 
L 370.752965 258.694146 
L 372.384395 278.50507 
L 374.015825 271.690112 
L 375.647254 266.338439 
L 377.278684 266.018692 
L 378.910114 264.454601 
L 380.541544 271.058534 
L 382.172974 263.772334 
L 383.804404 262.287242 
L 385.435834 271.776578 
L 387.067264 262.796812 
L 388.698693 266.171607 
L 390.330123 256.927494 
L 391.961553 258.257456 
L 393.592983 276.0712 
L 395.224413 263.318334 
L 396.855843 271.493389 
L 398.487273 266.474194 
L 398.487273 266.474194 
" clip-path="url(#p3f38284bc4)" style="fill: none; stroke-dasharray: 9.6,2.4,1.5,2.4; stroke-dashoffset: 0; stroke: #008000; stroke-width: 1.5"/>
   </g>
   <g id="line2d_39">
    <path d="M 73.832727 190.449703 
L 75.464157 184.960157 
L 77.095587 166.526546 
L 78.727017 180.518189 
L 80.358447 176.951275 
L 81.989877 175.469265 
L 83.621307 166.533584 
L 85.252736 185.327719 
L 86.884166 171.50884 
L 88.515596 169.825387 
L 90.147026 160.392143 
L 91.778456 174.301204 
L 93.409886 166.054466 
L 95.041316 166.784599 
L 96.672746 171.310327 
L 98.304175 164.805627 
L 99.935605 161.433789 
L 101.567035 162.4968 
L 103.198465 174.908144 
L 104.829895 154.976747 
L 106.461325 161.125804 
L 108.092755 158.160956 
L 109.724185 147.528995 
L 111.355614 161.387828 
L 112.987044 158.435223 
L 114.618474 152.958614 
L 116.249904 156.113427 
L 117.881334 150.719973 
L 119.512764 152.962454 
L 121.144194 148.549883 
L 122.775624 142.545153 
L 124.407053 152.333202 
L 126.038483 148.862322 
L 127.669913 158.280377 
L 129.301343 145.333656 
L 130.932773 136.132115 
L 132.564203 144.331041 
L 134.195633 148.52228 
L 135.827063 131.204894 
L 137.458492 149.508844 
L 139.089922 135.290447 
L 140.721352 134.447027 
L 142.352782 144.565052 
L 143.984212 138.736604 
L 145.615642 139.556568 
L 147.247072 144.225912 
L 148.878502 125.598097 
L 150.509931 155.934983 
L 152.141361 138.490654 
L 153.772791 135.018878 
L 155.404221 127.339061 
L 157.035651 143.627301 
L 158.667081 141.974872 
L 160.298511 142.518623 
L 161.929941 136.047058 
L 163.56137 138.962899 
L 165.1928 141.322251 
L 166.82423 145.043708 
L 170.08709 135.721806 
L 171.71852 142.491896 
L 173.34995 141.741669 
L 174.98138 131.521114 
L 176.61281 143.747068 
L 178.244239 132.740679 
L 179.875669 131.141541 
L 181.507099 135.024528 
L 183.138529 145.482043 
L 184.769959 116.367584 
L 186.401389 144.430008 
L 188.032819 136.98861 
L 189.664249 138.657569 
L 191.295678 132.218052 
L 192.927108 133.669785 
L 194.558538 126.068665 
L 196.189968 147.40427 
L 197.821398 144.582312 
L 201.084258 138.085057 
L 202.715688 155.89239 
L 204.347117 126.804819 
L 205.978547 148.774638 
L 207.609977 146.182238 
L 209.241407 154.661245 
L 210.872837 151.56997 
L 212.504267 139.178615 
L 214.135697 138.368914 
L 215.767127 147.869744 
L 217.398556 134.864818 
L 219.029986 136.81439 
L 220.661416 139.541444 
L 222.292846 151.86334 
L 223.924276 144.389365 
L 225.555706 153.01417 
L 227.187136 151.884618 
L 228.818566 137.36877 
L 230.449995 149.342603 
L 232.081425 146.119539 
L 233.712855 137.909443 
L 235.344285 154.495437 
L 236.975715 148.230141 
L 240.238575 136.420529 
L 241.870005 121.874805 
L 243.501434 147.413701 
L 245.132864 137.993426 
L 246.764294 129.24204 
L 248.395724 139.21638 
L 250.027154 138.027052 
L 251.658584 153.095892 
L 254.921444 139.112388 
L 256.552873 153.529003 
L 258.184303 148.235447 
L 259.815733 140.102029 
L 261.447163 139.645816 
L 263.078593 143.889372 
L 264.710023 132.731289 
L 266.341453 141.510902 
L 267.972883 138.66134 
L 269.604312 136.989429 
L 271.235742 137.925274 
L 272.867172 143.081432 
L 274.498602 122.670652 
L 276.130032 138.518526 
L 277.761462 131.133536 
L 279.392892 137.047686 
L 281.024322 128.698199 
L 282.655751 129.701263 
L 284.287181 128.138907 
L 285.918611 143.506038 
L 287.550041 133.030836 
L 289.181471 133.846409 
L 290.812901 140.152589 
L 292.444331 135.107058 
L 294.075761 132.95968 
L 295.70719 126.958718 
L 297.33862 122.545237 
L 298.97005 126.289971 
L 300.60148 120.423322 
L 302.23291 130.654409 
L 303.86434 130.907186 
L 305.49577 130.955104 
L 307.1272 137.060921 
L 308.75863 121.080288 
L 310.390059 125.948233 
L 312.021489 131.432261 
L 313.652919 131.124817 
L 315.284349 133.245805 
L 316.915779 140.059483 
L 318.547209 131.524199 
L 320.178639 136.465369 
L 321.810069 127.667497 
L 323.441498 125.94009 
L 325.072928 134.79284 
L 326.704358 134.695396 
L 328.335788 128.088021 
L 329.967218 134.38007 
L 331.598648 129.877907 
L 333.230078 135.092465 
L 334.861508 133.6441 
L 336.492937 136.870439 
L 338.124367 127.946453 
L 339.755797 130.117782 
L 341.387227 125.112554 
L 343.018657 136.400711 
L 344.650087 138.697787 
L 346.281517 139.331062 
L 347.912947 134.845366 
L 349.544376 134.846213 
L 351.175806 138.32375 
L 352.807236 130.965044 
L 354.438666 147.930917 
L 356.070096 133.289038 
L 357.701526 136.298189 
L 359.332956 131.963856 
L 360.964386 132.488776 
L 362.595815 136.778686 
L 364.227245 142.241934 
L 365.858675 124.894648 
L 367.490105 136.918522 
L 369.121535 139.699478 
L 370.752965 127.738481 
L 372.384395 146.412375 
L 374.015825 141.499382 
L 375.647254 145.23359 
L 377.278684 140.999583 
L 378.910114 131.029126 
L 380.541544 139.043076 
L 382.172974 132.199138 
L 383.804404 129.330335 
L 385.435834 138.733971 
L 387.067264 135.23329 
L 388.698693 139.488723 
L 390.330123 121.030749 
L 391.961553 126.362707 
L 393.592983 141.079954 
L 395.224413 134.080482 
L 396.855843 134.967213 
L 398.487273 144.382406 
L 398.487273 144.382406 
" clip-path="url(#p3f38284bc4)" style="fill: none; stroke-dasharray: 9.6,2.4,1.5,2.4; stroke-dashoffset: 0; stroke: #008000; stroke-width: 1.5"/>
   </g>
   <g id="line2d_40">
    <path d="M 73.832727 53.568 
L 77.095587 53.568 
L 78.727017 88.315427 
L 80.358447 59.558936 
L 81.989877 53.568 
L 83.621307 53.568 
L 85.252736 78.72993 
L 86.884166 64.351684 
L 88.515596 53.568 
L 91.778456 53.568 
L 93.409886 69.144433 
L 95.041316 57.162561 
L 96.672746 53.568 
L 98.304175 83.522678 
L 99.935605 79.928117 
L 101.567035 69.144433 
L 103.198465 85.919053 
L 104.829895 53.568 
L 106.461325 76.333555 
L 108.092755 67.946246 
L 109.724185 63.153497 
L 112.987044 58.360749 
L 114.618474 53.568 
L 116.249904 79.928117 
L 117.881334 70.34262 
L 119.512764 67.946246 
L 121.144194 53.568 
L 122.775624 66.748058 
L 124.407053 71.540807 
L 126.038483 60.757123 
L 127.669913 60.757123 
L 129.301343 70.34262 
L 130.932773 72.738994 
L 132.564203 60.757123 
L 134.195633 64.351684 
L 135.827063 53.568 
L 137.458492 69.144433 
L 139.089922 60.757123 
L 140.721352 64.351684 
L 142.352782 82.324491 
L 143.984212 65.549871 
L 145.615642 53.568 
L 147.247072 67.946246 
L 148.878502 57.162561 
L 150.509931 72.738994 
L 152.141361 66.748058 
L 153.772791 57.162561 
L 155.404221 57.162561 
L 157.035651 67.946246 
L 158.667081 53.568 
L 160.298511 57.162561 
L 161.929941 64.351684 
L 163.56137 57.162561 
L 165.1928 71.540807 
L 166.82423 60.757123 
L 168.45566 53.568 
L 170.08709 53.568 
L 171.71852 59.558936 
L 173.34995 60.757123 
L 174.98138 60.757123 
L 176.61281 63.153497 
L 179.875669 53.568 
L 181.507099 63.153497 
L 183.138529 69.144433 
L 184.769959 57.162561 
L 186.401389 77.531743 
L 188.032819 60.757123 
L 189.664249 64.351684 
L 191.295678 57.162561 
L 192.927108 60.757123 
L 194.558538 54.766187 
L 196.189968 69.144433 
L 197.821398 60.757123 
L 199.452828 53.568 
L 201.084258 75.135368 
L 202.715688 58.360749 
L 204.347117 58.360749 
L 205.978547 60.757123 
L 207.609977 57.162561 
L 209.241407 60.757123 
L 210.872837 73.937181 
L 212.504267 54.766187 
L 214.135697 71.540807 
L 217.398556 57.162561 
L 219.029986 53.568 
L 220.661416 60.757123 
L 222.292846 57.162561 
L 223.924276 58.360749 
L 225.555706 57.162561 
L 227.187136 60.757123 
L 228.818566 60.757123 
L 230.449995 65.549871 
L 232.081425 60.757123 
L 233.712855 61.95531 
L 235.344285 76.333555 
L 236.975715 54.766187 
L 238.607145 53.568 
L 240.238575 53.568 
L 241.870005 57.162561 
L 243.501434 66.748058 
L 246.764294 57.162561 
L 248.395724 53.568 
L 250.027154 73.937181 
L 251.658584 61.95531 
L 253.290014 67.946246 
L 254.921444 58.360749 
L 256.552873 58.360749 
L 258.184303 63.153497 
L 259.815733 64.351684 
L 261.447163 53.568 
L 266.341453 53.568 
L 267.972883 58.360749 
L 269.604312 54.766187 
L 271.235742 60.757123 
L 272.867172 60.757123 
L 274.498602 53.568 
L 276.130032 53.568 
L 277.761462 60.757123 
L 279.392892 60.757123 
L 281.024322 57.162561 
L 282.655751 63.153497 
L 284.287181 64.351684 
L 285.918611 58.360749 
L 287.550041 53.568 
L 289.181471 64.351684 
L 290.812901 60.757123 
L 292.444331 60.757123 
L 294.075761 57.162561 
L 297.33862 57.162561 
L 298.97005 67.946246 
L 300.60148 57.162561 
L 302.23291 58.360749 
L 303.86434 57.162561 
L 305.49577 67.946246 
L 307.1272 59.558936 
L 308.75863 54.766187 
L 310.390059 57.162561 
L 312.021489 58.360749 
L 313.652919 57.162561 
L 315.284349 60.757123 
L 316.915779 53.568 
L 318.547209 61.95531 
L 320.178639 64.351684 
L 321.810069 57.162561 
L 323.441498 69.144433 
L 325.072928 53.568 
L 326.704358 70.34262 
L 328.335788 60.757123 
L 329.967218 53.568 
L 331.598648 53.568 
L 333.230078 58.360749 
L 334.861508 60.757123 
L 336.492937 53.568 
L 338.124367 53.568 
L 339.755797 57.162561 
L 341.387227 53.568 
L 343.018657 58.360749 
L 344.650087 60.757123 
L 346.281517 57.162561 
L 347.912947 54.766187 
L 349.544376 53.568 
L 351.175806 67.946246 
L 352.807236 66.748058 
L 354.438666 58.360749 
L 356.070096 57.162561 
L 357.701526 67.946246 
L 359.332956 57.162561 
L 360.964386 75.135368 
L 362.595815 53.568 
L 365.858675 53.568 
L 367.490105 65.549871 
L 369.121535 57.162561 
L 370.752965 61.95531 
L 372.384395 60.757123 
L 374.015825 53.568 
L 375.647254 61.95531 
L 377.278684 57.162561 
L 378.910114 59.558936 
L 380.541544 60.757123 
L 382.172974 57.162561 
L 387.067264 57.162561 
L 388.698693 60.757123 
L 390.330123 58.360749 
L 391.961553 61.95531 
L 393.592983 60.757123 
L 395.224413 73.937181 
L 396.855843 53.568 
L 398.487273 67.946246 
L 398.487273 67.946246 
" clip-path="url(#p3f38284bc4)" style="fill: none; stroke: #ff0000; stroke-width: 1.5; stroke-linecap: square"/>
   </g>
   <g id="patch_3">
    <path d="M 57.6 307.584 
L 57.6 41.472 
" style="fill: none; stroke: #000000; stroke-width: 0.8; stroke-linejoin: miter; stroke-linecap: square"/>
   </g>
   <g id="patch_4">
    <path d="M 414.72 307.584 
L 414.72 41.472 
" style="fill: none; stroke: #000000; stroke-width: 0.8; stroke-linejoin: miter; stroke-linecap: square"/>
   </g>
   <g id="patch_5">
    <path d="M 57.6 307.584 
L 414.72 307.584 
" style="fill: none; stroke: #000000; stroke-width: 0.8; stroke-linejoin: miter; stroke-linecap: square"/>
   </g>
   <g id="patch_6">
    <path d="M 57.6 41.472 
L 414.72 41.472 
" style="fill: none; stroke: #000000; stroke-width: 0.8; stroke-linejoin: miter; stroke-linecap: square"/>
   </g>
   <g id="text_21">
    <!-- Population's average and best fitness -->
    <g transform="translate(123.529687 35.472)scale(0.12 -0.12)">
     <defs>
      <path id="DejaVuSans-50" d="M 1259 4147 
L 1259 2394 
L 2053 2394 
Q 2494 2394 2734 2622 
Q 2975 2850 2975 3272 
Q 2975 3691 2734 3919 
Q 2494 4147 2053 4147 
L 1259 4147 
z
M 628 4666 
L 2053 4666 
Q 2838 4666 3239 4311 
Q 3641 3956 3641 3272 
Q 3641 2581 3239 2228 
Q 2838 1875 2053 1875 
L 1259 1875 
L 1259 0 
L 628 0 
L 628 4666 
z
" transform="scale(0.015625)"/>
      <path id="DejaVuSans-70" d="M 1159 525 
L 1159 -1331 
L 581 -1331 
L 581 3500 
L 1159 3500 
L 1159 2969 
Q 1341 3281 1617 3432 
Q 1894 3584 2278 3584 
Q 2916 3584 3314 3078 
Q 3713 2572 3713 1747 
Q 3713 922 3314 415 
Q 2916 -91 2278 -91 
Q 1894 -91 1617 61 
Q 1341 213 1159 525 
z
M 3116 1747 
Q 3116 2381 2855 2742 
Q 2594 3103 2138 3103 
Q 1681 3103 1420 2742 
Q 1159 2381 1159 1747 
Q 1159 1113 1420 752 
Q 1681 391 2138 391 
Q 2594 391 2855 752 
Q 3116 1113 3116 1747 
z
" transform="scale(0.015625)"/>
      <path id="DejaVuSans-75" d="M 544 1381 
L 544 3500 
L 1119 3500 
L 1119 1403 
Q 1119 906 1312 657 
Q 1506 409 1894 409 
Q 2359 409 2629 706 
Q 2900 1003 2900 1516 
L 2900 3500 
L 3475 3500 
L 3475 0 
L 2900 0 
L 2900 538 
Q 2691 219 2414 64 
Q 2138 -91 1772 -91 
Q 1169 -91 856 284 
Q 544 659 544 1381 
z
M 1991 3584 
L 1991 3584 
z
" transform="scale(0.015625)"/>
      <path id="DejaVuSans-6c" d="M 603 4863 
L 1178 4863 
L 1178 0 
L 603 0 
L 603 4863 
z
" transform="scale(0.015625)"/>
      <path id="DejaVuSans-27" d="M 1147 4666 
L 1147 2931 
L 616 2931 
L 616 4666 
L 1147 4666 
z
" transform="scale(0.015625)"/>
      <path id="DejaVuSans-20" transform="scale(0.015625)"/>
      <path id="DejaVuSans-76" d="M 191 3500 
L 800 3500 
L 1894 563 
L 2988 3500 
L 3597 3500 
L 2284 0 
L 1503 0 
L 191 3500 
z
" transform="scale(0.015625)"/>
      <path id="DejaVuSans-67" d="M 2906 1791 
Q 2906 2416 2648 2759 
Q 2391 3103 1925 3103 
Q 1463 3103 1205 2759 
Q 947 2416 947 1791 
Q 947 1169 1205 825 
Q 1463 481 1925 481 
Q 2391 481 2648 825 
Q 2906 1169 2906 1791 
z
M 3481 434 
Q 3481 -459 3084 -895 
Q 2688 -1331 1869 -1331 
Q 1566 -1331 1297 -1286 
Q 1028 -1241 775 -1147 
L 775 -588 
Q 1028 -725 1275 -790 
Q 1522 -856 1778 -856 
Q 2344 -856 2625 -561 
Q 2906 -266 2906 331 
L 2906 616 
Q 2728 306 2450 153 
Q 2172 0 1784 0 
Q 1141 0 747 490 
Q 353 981 353 1791 
Q 353 2603 747 3093 
Q 1141 3584 1784 3584 
Q 2172 3584 2450 3431 
Q 2728 3278 2906 2969 
L 2906 3500 
L 3481 3500 
L 3481 434 
z
" transform="scale(0.015625)"/>
      <path id="DejaVuSans-64" d="M 2906 2969 
L 2906 4863 
L 3481 4863 
L 3481 0 
L 2906 0 
L 2906 525 
Q 2725 213 2448 61 
Q 2172 -91 1784 -91 
Q 1150 -91 751 415 
Q 353 922 353 1747 
Q 353 2572 751 3078 
Q 1150 3584 1784 3584 
Q 2172 3584 2448 3432 
Q 2725 3281 2906 2969 
z
M 947 1747 
Q 947 1113 1208 752 
Q 1469 391 1925 391 
Q 2381 391 2643 752 
Q 2906 1113 2906 1747 
Q 2906 2381 2643 2742 
Q 2381 3103 1925 3103 
Q 1469 3103 1208 2742 
Q 947 2381 947 1747 
z
" transform="scale(0.015625)"/>
      <path id="DejaVuSans-62" d="M 3116 1747 
Q 3116 2381 2855 2742 
Q 2594 3103 2138 3103 
Q 1681 3103 1420 2742 
Q 1159 2381 1159 1747 
Q 1159 1113 1420 752 
Q 1681 391 2138 391 
Q 2594 391 2855 752 
Q 3116 1113 3116 1747 
z
M 1159 2969 
Q 1341 3281 1617 3432 
Q 1894 3584 2278 3584 
Q 2916 3584 3314 3078 
Q 3713 2572 3713 1747 
Q 3713 922 3314 415 
Q 2916 -91 2278 -91 
Q 1894 -91 1617 61 
Q 1341 213 1159 525 
L 1159 0 
L 581 0 
L 581 4863 
L 1159 4863 
L 1159 2969 
z
" transform="scale(0.015625)"/>
      <path id="DejaVuSans-66" d="M 2375 4863 
L 2375 4384 
L 1825 4384 
Q 1516 4384 1395 4259 
Q 1275 4134 1275 3809 
L 1275 3500 
L 2222 3500 
L 2222 3053 
L 1275 3053 
L 1275 0 
L 697 0 
L 697 3053 
L 147 3053 
L 147 3500 
L 697 3500 
L 697 3744 
Q 697 4328 969 4595 
Q 1241 4863 1831 4863 
L 2375 4863 
z
" transform="scale(0.015625)"/>
     </defs>
     <use xlink:href="#DejaVuSans-50"/>
     <use xlink:href="#DejaVuSans-6f" x="56.677734"/>
     <use xlink:href="#DejaVuSans-70" x="117.859375"/>
     <use xlink:href="#DejaVuSans-75" x="181.335938"/>
     <use xlink:href="#DejaVuSans-6c" x="244.714844"/>
     <use xlink:href="#DejaVuSans-61" x="272.498047"/>
     <use xlink:href="#DejaVuSans-74" x="333.777344"/>
     <use xlink:href="#DejaVuSans-69" x="372.986328"/>
     <use xlink:href="#DejaVuSans-6f" x="400.769531"/>
     <use xlink:href="#DejaVuSans-6e" x="461.951172"/>
     <use xlink:href="#DejaVuSans-27" x="525.330078"/>
     <use xlink:href="#DejaVuSans-73" x="552.820312"/>
     <use xlink:href="#DejaVuSans-20" x="604.919922"/>
     <use xlink:href="#DejaVuSans-61" x="636.707031"/>
     <use xlink:href="#DejaVuSans-76" x="697.986328"/>
     <use xlink:href="#DejaVuSans-65" x="757.166016"/>
     <use xlink:href="#DejaVuSans-72" x="818.689453"/>
     <use xlink:href="#DejaVuSans-61" x="859.802734"/>
     <use xlink:href="#DejaVuSans-67" x="921.082031"/>
     <use xlink:href="#DejaVuSans-65" x="984.558594"/>
     <use xlink:href="#DejaVuSans-20" x="1046.082031"/>
     <use xlink:href="#DejaVuSans-61" x="1077.869141"/>
     <use xlink:href="#DejaVuSans-6e" x="1139.148438"/>
     <use xlink:href="#DejaVuSans-64" x="1202.527344"/>
     <use xlink:href="#DejaVuSans-20" x="1266.003906"/>
     <use xlink:href="#DejaVuSans-62" x="1297.791016"/>
     <use xlink:href="#DejaVuSans-65" x="1361.267578"/>
     <use xlink:href="#DejaVuSans-73" x="1422.791016"/>
     <use xlink:href="#DejaVuSans-74" x="1474.890625"/>
     <use xlink:href="#DejaVuSans-20" x="1514.099609"/>
     <use xlink:href="#DejaVuSans-66" x="1545.886719"/>
     <use xlink:href="#DejaVuSans-69" x="1581.091797"/>
     <use xlink:href="#DejaVuSans-74" x="1608.875"/>
     <use xlink:href="#DejaVuSans-6e" x="1648.083984"/>
     <use xlink:href="#DejaVuSans-65" x="1711.462891"/>
     <use xlink:href="#DejaVuSans-73" x="1772.986328"/>
     <use xlink:href="#DejaVuSans-73" x="1825.085938"/>
    </g>
   </g>
   <g id="legend_1">
    <g id="patch_7">
     <path d="M 334.779375 205.38425 
L 407.72 205.38425 
Q 409.72 205.38425 409.72 203.38425 
L 409.72 145.67175 
Q 409.72 143.67175 407.72 143.67175 
L 334.779375 143.67175 
Q 332.779375 143.67175 332.779375 145.67175 
L 332.779375 203.38425 
Q 332.779375 205.38425 334.779375 205.38425 
z
" style="fill: #ffffff; opacity: 0.8; stroke: #cccccc; stroke-linejoin: miter"/>
    </g>
    <g id="line2d_41">
     <path d="M 336.779375 151.770188 
L 346.779375 151.770188 
L 356.779375 151.770188 
" style="fill: none; stroke: #0000ff; stroke-width: 1.5; stroke-linecap: square"/>
    </g>
    <g id="text_22">
     <!-- average -->
     <g transform="translate(364.779375 155.270188)scale(0.1 -0.1)">
      <use xlink:href="#DejaVuSans-61"/>
      <use xlink:href="#DejaVuSans-76" x="61.279297"/>
      <use xlink:href="#DejaVuSans-65" x="120.458984"/>
      <use xlink:href="#DejaVuSans-72" x="181.982422"/>
      <use xlink:href="#DejaVuSans-61" x="223.095703"/>
      <use xlink:href="#DejaVuSans-67" x="284.375"/>
      <use xlink:href="#DejaVuSans-65" x="347.851562"/>
     </g>
    </g>
    <g id="line2d_42">
     <path d="M 336.779375 166.448313 
L 346.779375 166.448313 
L 356.779375 166.448313 
" style="fill: none; stroke-dasharray: 9.6,2.4,1.5,2.4; stroke-dashoffset: 0; stroke: #008000; stroke-width: 1.5"/>
    </g>
    <g id="text_23">
     <!-- -1 sd -->
     <g transform="translate(364.779375 169.948313)scale(0.1 -0.1)">
      <defs>
       <path id="DejaVuSans-2d" d="M 313 2009 
L 1997 2009 
L 1997 1497 
L 313 1497 
L 313 2009 
z
" transform="scale(0.015625)"/>
      </defs>
      <use xlink:href="#DejaVuSans-2d"/>
      <use xlink:href="#DejaVuSans-31" x="36.083984"/>
      <use xlink:href="#DejaVuSans-20" x="99.707031"/>
      <use xlink:href="#DejaVuSans-73" x="131.494141"/>
      <use xlink:href="#DejaVuSans-64" x="183.59375"/>
     </g>
    </g>
    <g id="line2d_43">
     <path d="M 336.779375 181.126438 
L 346.779375 181.126438 
L 356.779375 181.126438 
" style="fill: none; stroke-dasharray: 9.6,2.4,1.5,2.4; stroke-dashoffset: 0; stroke: #008000; stroke-width: 1.5"/>
    </g>
    <g id="text_24">
     <!-- +1 sd -->
     <g transform="translate(364.779375 184.626438)scale(0.1 -0.1)">
      <defs>
       <path id="DejaVuSans-2b" d="M 2944 4013 
L 2944 2272 
L 4684 2272 
L 4684 1741 
L 2944 1741 
L 2944 0 
L 2419 0 
L 2419 1741 
L 678 1741 
L 678 2272 
L 2419 2272 
L 2419 4013 
L 2944 4013 
z
" transform="scale(0.015625)"/>
      </defs>
      <use xlink:href="#DejaVuSans-2b"/>
      <use xlink:href="#DejaVuSans-31" x="83.789062"/>
      <use xlink:href="#DejaVuSans-20" x="147.412109"/>
      <use xlink:href="#DejaVuSans-73" x="179.199219"/>
      <use xlink:href="#DejaVuSans-64" x="231.298828"/>
     </g>
    </g>
    <g id="line2d_44">
     <path d="M 336.779375 195.804563 
L 346.779375 195.804563 
L 356.779375 195.804563 
" style="fill: none; stroke: #ff0000; stroke-width: 1.5; stroke-linecap: square"/>
    </g>
    <g id="text_25">
     <!-- best -->
     <g transform="translate(364.779375 199.304563)scale(0.1 -0.1)">
      <use xlink:href="#DejaVuSans-62"/>
      <use xlink:href="#DejaVuSans-65" x="63.476562"/>
      <use xlink:href="#DejaVuSans-73" x="125"/>
      <use xlink:href="#DejaVuSans-74" x="177.099609"/>
     </g>
    </g>
   </g>
  </g>
 </g>
 <defs>
  <clipPath id="p3f38284bc4">
   <rect x="57.6" y="41.472" width="357.12" height="266.112"/>
  </clipPath>
 </defs>
</svg>
