<?xml version="1.0" encoding="utf-8" standalone="no"?>
<!DOCTYPE svg PUBLIC "-//W3C//DTD SVG 1.1//EN"
  "http://www.w3.org/Graphics/SVG/1.1/DTD/svg11.dtd">
<svg xmlns:xlink="http://www.w3.org/1999/xlink" width="460.8pt" height="345.6pt" viewBox="0 0 460.8 345.6" xmlns="http://www.w3.org/2000/svg" version="1.1">
 <metadata>
  <rdf:RDF xmlns:dc="http://purl.org/dc/elements/1.1/" xmlns:cc="http://creativecommons.org/ns#" xmlns:rdf="http://www.w3.org/1999/02/22-rdf-syntax-ns#">
   <cc:Work>
    <dc:type rdf:resource="http://purl.org/dc/dcmitype/StillImage"/>
    <dc:date>2022-07-25T06:08:08.019929</dc:date>
    <dc:format>image/svg+xml</dc:format>
    <dc:creator>
     <cc:Agent>
      <dc:title>Matplotlib v3.5.2, https://matplotlib.org/</dc:title>
     </cc:Agent>
    </dc:creator>
   </cc:Work>
  </rdf:RDF>
 </metadata>
 <defs>
  <style type="text/css">*{stroke-linejoin: round; stroke-linecap: butt}</style>
 </defs>
 <g id="figure_1">
  <g id="patch_1">
   <path d="M 0 345.6 
L 460.8 345.6 
L 460.8 0 
L 0 0 
z
" style="fill: #ffffff"/>
  </g>
  <g id="axes_1">
   <g id="patch_2">
    <path d="M 57.6 307.584 
L 414.72 307.584 
L 414.72 41.472 
L 57.6 41.472 
z
" style="fill: #ffffff"/>
   </g>
   <g id="matplotlib.axis_1">
    <g id="xtick_1">
     <g id="line2d_1">
      <path d="M 73.832727 307.584 
L 73.832727 41.472 
" clip-path="url(#p998a2b5e5c)" style="fill: none; stroke: #b0b0b0; stroke-width: 0.8; stroke-linecap: square"/>
     </g>
     <g id="line2d_2">
      <defs>
       <path id="m4d2c6cb208" d="M 0 0 
L 0 3.5 
" style="stroke: #000000; stroke-width: 0.8"/>
      </defs>
      <g>
       <use xlink:href="#m4d2c6cb208" x="73.832727" y="307.584" style="stroke: #000000; stroke-width: 0.8"/>
      </g>
     </g>
     <g id="text_1">
      <!-- 0 -->
      <g transform="translate(70.651477 322.182437)scale(0.1 -0.1)">
       <defs>
        <path id="DejaVuSans-30" d="M 2034 4250 
Q 1547 4250 1301 3770 
Q 1056 3291 1056 2328 
Q 1056 1369 1301 889 
Q 1547 409 2034 409 
Q 2525 409 2770 889 
Q 3016 1369 3016 2328 
Q 3016 3291 2770 3770 
Q 2525 4250 2034 4250 
z
M 2034 4750 
Q 2819 4750 3233 4129 
Q 3647 3509 3647 2328 
Q 3647 1150 3233 529 
Q 2819 -91 2034 -91 
Q 1250 -91 836 529 
Q 422 1150 422 2328 
Q 422 3509 836 4129 
Q 1250 4750 2034 4750 
z
" transform="scale(0.015625)"/>
       </defs>
       <use xlink:href="#DejaVuSans-30"/>
      </g>
     </g>
    </g>
    <g id="xtick_2">
     <g id="line2d_3">
      <path d="M 114.618474 307.584 
L 114.618474 41.472 
" clip-path="url(#p998a2b5e5c)" style="fill: none; stroke: #b0b0b0; stroke-width: 0.8; stroke-linecap: square"/>
     </g>
     <g id="line2d_4">
      <g>
       <use xlink:href="#m4d2c6cb208" x="114.618474" y="307.584" style="stroke: #000000; stroke-width: 0.8"/>
      </g>
     </g>
     <g id="text_2">
      <!-- 25 -->
      <g transform="translate(108.255974 322.182437)scale(0.1 -0.1)">
       <defs>
        <path id="DejaVuSans-32" d="M 1228 531 
L 3431 531 
L 3431 0 
L 469 0 
L 469 531 
Q 828 903 1448 1529 
Q 2069 2156 2228 2338 
Q 2531 2678 2651 2914 
Q 2772 3150 2772 3378 
Q 2772 3750 2511 3984 
Q 2250 4219 1831 4219 
Q 1534 4219 1204 4116 
Q 875 4013 500 3803 
L 500 4441 
Q 881 4594 1212 4672 
Q 1544 4750 1819 4750 
Q 2544 4750 2975 4387 
Q 3406 4025 3406 3419 
Q 3406 3131 3298 2873 
Q 3191 2616 2906 2266 
Q 2828 2175 2409 1742 
Q 1991 1309 1228 531 
z
" transform="scale(0.015625)"/>
        <path id="DejaVuSans-35" d="M 691 4666 
L 3169 4666 
L 3169 4134 
L 1269 4134 
L 1269 2991 
Q 1406 3038 1543 3061 
Q 1681 3084 1819 3084 
Q 2600 3084 3056 2656 
Q 3513 2228 3513 1497 
Q 3513 744 3044 326 
Q 2575 -91 1722 -91 
Q 1428 -91 1123 -41 
Q 819 9 494 109 
L 494 744 
Q 775 591 1075 516 
Q 1375 441 1709 441 
Q 2250 441 2565 725 
Q 2881 1009 2881 1497 
Q 2881 1984 2565 2268 
Q 2250 2553 1709 2553 
Q 1456 2553 1204 2497 
Q 953 2441 691 2322 
L 691 4666 
z
" transform="scale(0.015625)"/>
       </defs>
       <use xlink:href="#DejaVuSans-32"/>
       <use xlink:href="#DejaVuSans-35" x="63.623047"/>
      </g>
     </g>
    </g>
    <g id="xtick_3">
     <g id="line2d_5">
      <path d="M 155.404221 307.584 
L 155.404221 41.472 
" clip-path="url(#p998a2b5e5c)" style="fill: none; stroke: #b0b0b0; stroke-width: 0.8; stroke-linecap: square"/>
     </g>
     <g id="line2d_6">
      <g>
       <use xlink:href="#m4d2c6cb208" x="155.404221" y="307.584" style="stroke: #000000; stroke-width: 0.8"/>
      </g>
     </g>
     <g id="text_3">
      <!-- 50 -->
      <g transform="translate(149.041721 322.182437)scale(0.1 -0.1)">
       <use xlink:href="#DejaVuSans-35"/>
       <use xlink:href="#DejaVuSans-30" x="63.623047"/>
      </g>
     </g>
    </g>
    <g id="xtick_4">
     <g id="line2d_7">
      <path d="M 196.189968 307.584 
L 196.189968 41.472 
" clip-path="url(#p998a2b5e5c)" style="fill: none; stroke: #b0b0b0; stroke-width: 0.8; stroke-linecap: square"/>
     </g>
     <g id="line2d_8">
      <g>
       <use xlink:href="#m4d2c6cb208" x="196.189968" y="307.584" style="stroke: #000000; stroke-width: 0.8"/>
      </g>
     </g>
     <g id="text_4">
      <!-- 75 -->
      <g transform="translate(189.827468 322.182437)scale(0.1 -0.1)">
       <defs>
        <path id="DejaVuSans-37" d="M 525 4666 
L 3525 4666 
L 3525 4397 
L 1831 0 
L 1172 0 
L 2766 4134 
L 525 4134 
L 525 4666 
z
" transform="scale(0.015625)"/>
       </defs>
       <use xlink:href="#DejaVuSans-37"/>
       <use xlink:href="#DejaVuSans-35" x="63.623047"/>
      </g>
     </g>
    </g>
    <g id="xtick_5">
     <g id="line2d_9">
      <path d="M 236.975715 307.584 
L 236.975715 41.472 
" clip-path="url(#p998a2b5e5c)" style="fill: none; stroke: #b0b0b0; stroke-width: 0.8; stroke-linecap: square"/>
     </g>
     <g id="line2d_10">
      <g>
       <use xlink:href="#m4d2c6cb208" x="236.975715" y="307.584" style="stroke: #000000; stroke-width: 0.8"/>
      </g>
     </g>
     <g id="text_5">
      <!-- 100 -->
      <g transform="translate(227.431965 322.182437)scale(0.1 -0.1)">
       <defs>
        <path id="DejaVuSans-31" d="M 794 531 
L 1825 531 
L 1825 4091 
L 703 3866 
L 703 4441 
L 1819 4666 
L 2450 4666 
L 2450 531 
L 3481 531 
L 3481 0 
L 794 0 
L 794 531 
z
" transform="scale(0.015625)"/>
       </defs>
       <use xlink:href="#DejaVuSans-31"/>
       <use xlink:href="#DejaVuSans-30" x="63.623047"/>
       <use xlink:href="#DejaVuSans-30" x="127.246094"/>
      </g>
     </g>
    </g>
    <g id="xtick_6">
     <g id="line2d_11">
      <path d="M 277.761462 307.584 
L 277.761462 41.472 
" clip-path="url(#p998a2b5e5c)" style="fill: none; stroke: #b0b0b0; stroke-width: 0.8; stroke-linecap: square"/>
     </g>
     <g id="line2d_12">
      <g>
       <use xlink:href="#m4d2c6cb208" x="277.761462" y="307.584" style="stroke: #000000; stroke-width: 0.8"/>
      </g>
     </g>
     <g id="text_6">
      <!-- 125 -->
      <g transform="translate(268.217712 322.182437)scale(0.1 -0.1)">
       <use xlink:href="#DejaVuSans-31"/>
       <use xlink:href="#DejaVuSans-32" x="63.623047"/>
       <use xlink:href="#DejaVuSans-35" x="127.246094"/>
      </g>
     </g>
    </g>
    <g id="xtick_7">
     <g id="line2d_13">
      <path d="M 318.547209 307.584 
L 318.547209 41.472 
" clip-path="url(#p998a2b5e5c)" style="fill: none; stroke: #b0b0b0; stroke-width: 0.8; stroke-linecap: square"/>
     </g>
     <g id="line2d_14">
      <g>
       <use xlink:href="#m4d2c6cb208" x="318.547209" y="307.584" style="stroke: #000000; stroke-width: 0.8"/>
      </g>
     </g>
     <g id="text_7">
      <!-- 150 -->
      <g transform="translate(309.003459 322.182437)scale(0.1 -0.1)">
       <use xlink:href="#DejaVuSans-31"/>
       <use xlink:href="#DejaVuSans-35" x="63.623047"/>
       <use xlink:href="#DejaVuSans-30" x="127.246094"/>
      </g>
     </g>
    </g>
    <g id="xtick_8">
     <g id="line2d_15">
      <path d="M 359.332956 307.584 
L 359.332956 41.472 
" clip-path="url(#p998a2b5e5c)" style="fill: none; stroke: #b0b0b0; stroke-width: 0.8; stroke-linecap: square"/>
     </g>
     <g id="line2d_16">
      <g>
       <use xlink:href="#m4d2c6cb208" x="359.332956" y="307.584" style="stroke: #000000; stroke-width: 0.8"/>
      </g>
     </g>
     <g id="text_8">
      <!-- 175 -->
      <g transform="translate(349.789206 322.182437)scale(0.1 -0.1)">
       <use xlink:href="#DejaVuSans-31"/>
       <use xlink:href="#DejaVuSans-37" x="63.623047"/>
       <use xlink:href="#DejaVuSans-35" x="127.246094"/>
      </g>
     </g>
    </g>
    <g id="xtick_9">
     <g id="line2d_17">
      <path d="M 400.118703 307.584 
L 400.118703 41.472 
" clip-path="url(#p998a2b5e5c)" style="fill: none; stroke: #b0b0b0; stroke-width: 0.8; stroke-linecap: square"/>
     </g>
     <g id="line2d_18">
      <g>
       <use xlink:href="#m4d2c6cb208" x="400.118703" y="307.584" style="stroke: #000000; stroke-width: 0.8"/>
      </g>
     </g>
     <g id="text_9">
      <!-- 200 -->
      <g transform="translate(390.574953 322.182437)scale(0.1 -0.1)">
       <use xlink:href="#DejaVuSans-32"/>
       <use xlink:href="#DejaVuSans-30" x="63.623047"/>
       <use xlink:href="#DejaVuSans-30" x="127.246094"/>
      </g>
     </g>
    </g>
    <g id="text_10">
     <!-- Generations -->
     <g transform="translate(205.662344 335.860562)scale(0.1 -0.1)">
      <defs>
       <path id="DejaVuSans-47" d="M 3809 666 
L 3809 1919 
L 2778 1919 
L 2778 2438 
L 4434 2438 
L 4434 434 
Q 4069 175 3628 42 
Q 3188 -91 2688 -91 
Q 1594 -91 976 548 
Q 359 1188 359 2328 
Q 359 3472 976 4111 
Q 1594 4750 2688 4750 
Q 3144 4750 3555 4637 
Q 3966 4525 4313 4306 
L 4313 3634 
Q 3963 3931 3569 4081 
Q 3175 4231 2741 4231 
Q 1884 4231 1454 3753 
Q 1025 3275 1025 2328 
Q 1025 1384 1454 906 
Q 1884 428 2741 428 
Q 3075 428 3337 486 
Q 3600 544 3809 666 
z
" transform="scale(0.015625)"/>
       <path id="DejaVuSans-65" d="M 3597 1894 
L 3597 1613 
L 953 1613 
Q 991 1019 1311 708 
Q 1631 397 2203 397 
Q 2534 397 2845 478 
Q 3156 559 3463 722 
L 3463 178 
Q 3153 47 2828 -22 
Q 2503 -91 2169 -91 
Q 1331 -91 842 396 
Q 353 884 353 1716 
Q 353 2575 817 3079 
Q 1281 3584 2069 3584 
Q 2775 3584 3186 3129 
Q 3597 2675 3597 1894 
z
M 3022 2063 
Q 3016 2534 2758 2815 
Q 2500 3097 2075 3097 
Q 1594 3097 1305 2825 
Q 1016 2553 972 2059 
L 3022 2063 
z
" transform="scale(0.015625)"/>
       <path id="DejaVuSans-6e" d="M 3513 2113 
L 3513 0 
L 2938 0 
L 2938 2094 
Q 2938 2591 2744 2837 
Q 2550 3084 2163 3084 
Q 1697 3084 1428 2787 
Q 1159 2491 1159 1978 
L 1159 0 
L 581 0 
L 581 3500 
L 1159 3500 
L 1159 2956 
Q 1366 3272 1645 3428 
Q 1925 3584 2291 3584 
Q 2894 3584 3203 3211 
Q 3513 2838 3513 2113 
z
" transform="scale(0.015625)"/>
       <path id="DejaVuSans-72" d="M 2631 2963 
Q 2534 3019 2420 3045 
Q 2306 3072 2169 3072 
Q 1681 3072 1420 2755 
Q 1159 2438 1159 1844 
L 1159 0 
L 581 0 
L 581 3500 
L 1159 3500 
L 1159 2956 
Q 1341 3275 1631 3429 
Q 1922 3584 2338 3584 
Q 2397 3584 2469 3576 
Q 2541 3569 2628 3553 
L 2631 2963 
z
" transform="scale(0.015625)"/>
       <path id="DejaVuSans-61" d="M 2194 1759 
Q 1497 1759 1228 1600 
Q 959 1441 959 1056 
Q 959 750 1161 570 
Q 1363 391 1709 391 
Q 2188 391 2477 730 
Q 2766 1069 2766 1631 
L 2766 1759 
L 2194 1759 
z
M 3341 1997 
L 3341 0 
L 2766 0 
L 2766 531 
Q 2569 213 2275 61 
Q 1981 -91 1556 -91 
Q 1019 -91 701 211 
Q 384 513 384 1019 
Q 384 1609 779 1909 
Q 1175 2209 1959 2209 
L 2766 2209 
L 2766 2266 
Q 2766 2663 2505 2880 
Q 2244 3097 1772 3097 
Q 1472 3097 1187 3025 
Q 903 2953 641 2809 
L 641 3341 
Q 956 3463 1253 3523 
Q 1550 3584 1831 3584 
Q 2591 3584 2966 3190 
Q 3341 2797 3341 1997 
z
" transform="scale(0.015625)"/>
       <path id="DejaVuSans-74" d="M 1172 4494 
L 1172 3500 
L 2356 3500 
L 2356 3053 
L 1172 3053 
L 1172 1153 
Q 1172 725 1289 603 
Q 1406 481 1766 481 
L 2356 481 
L 2356 0 
L 1766 0 
Q 1100 0 847 248 
Q 594 497 594 1153 
L 594 3053 
L 172 3053 
L 172 3500 
L 594 3500 
L 594 4494 
L 1172 4494 
z
" transform="scale(0.015625)"/>
       <path id="DejaVuSans-69" d="M 603 3500 
L 1178 3500 
L 1178 0 
L 603 0 
L 603 3500 
z
M 603 4863 
L 1178 4863 
L 1178 4134 
L 603 4134 
L 603 4863 
z
" transform="scale(0.015625)"/>
       <path id="DejaVuSans-6f" d="M 1959 3097 
Q 1497 3097 1228 2736 
Q 959 2375 959 1747 
Q 959 1119 1226 758 
Q 1494 397 1959 397 
Q 2419 397 2687 759 
Q 2956 1122 2956 1747 
Q 2956 2369 2687 2733 
Q 2419 3097 1959 3097 
z
M 1959 3584 
Q 2709 3584 3137 3096 
Q 3566 2609 3566 1747 
Q 3566 888 3137 398 
Q 2709 -91 1959 -91 
Q 1206 -91 779 398 
Q 353 888 353 1747 
Q 353 2609 779 3096 
Q 1206 3584 1959 3584 
z
" transform="scale(0.015625)"/>
       <path id="DejaVuSans-73" d="M 2834 3397 
L 2834 2853 
Q 2591 2978 2328 3040 
Q 2066 3103 1784 3103 
Q 1356 3103 1142 2972 
Q 928 2841 928 2578 
Q 928 2378 1081 2264 
Q 1234 2150 1697 2047 
L 1894 2003 
Q 2506 1872 2764 1633 
Q 3022 1394 3022 966 
Q 3022 478 2636 193 
Q 2250 -91 1575 -91 
Q 1294 -91 989 -36 
Q 684 19 347 128 
L 347 722 
Q 666 556 975 473 
Q 1284 391 1588 391 
Q 1994 391 2212 530 
Q 2431 669 2431 922 
Q 2431 1156 2273 1281 
Q 2116 1406 1581 1522 
L 1381 1569 
Q 847 1681 609 1914 
Q 372 2147 372 2553 
Q 372 3047 722 3315 
Q 1072 3584 1716 3584 
Q 2034 3584 2315 3537 
Q 2597 3491 2834 3397 
z
" transform="scale(0.015625)"/>
      </defs>
      <use xlink:href="#DejaVuSans-47"/>
      <use xlink:href="#DejaVuSans-65" x="77.490234"/>
      <use xlink:href="#DejaVuSans-6e" x="139.013672"/>
      <use xlink:href="#DejaVuSans-65" x="202.392578"/>
      <use xlink:href="#DejaVuSans-72" x="263.916016"/>
      <use xlink:href="#DejaVuSans-61" x="305.029297"/>
      <use xlink:href="#DejaVuSans-74" x="366.308594"/>
      <use xlink:href="#DejaVuSans-69" x="405.517578"/>
      <use xlink:href="#DejaVuSans-6f" x="433.300781"/>
      <use xlink:href="#DejaVuSans-6e" x="494.482422"/>
      <use xlink:href="#DejaVuSans-73" x="557.861328"/>
     </g>
    </g>
   </g>
   <g id="matplotlib.axis_2">
    <g id="ytick_1">
     <g id="line2d_19">
      <path d="M 57.6 290.640798 
L 414.72 290.640798 
" clip-path="url(#p998a2b5e5c)" style="fill: none; stroke: #b0b0b0; stroke-width: 0.8; stroke-linecap: square"/>
     </g>
     <g id="line2d_20">
      <defs>
       <path id="m2b3251a7f1" d="M 0 0 
L -3.5 0 
" style="stroke: #000000; stroke-width: 0.8"/>
      </defs>
      <g>
       <use xlink:href="#m2b3251a7f1" x="57.6" y="290.640798" style="stroke: #000000; stroke-width: 0.8"/>
      </g>
     </g>
     <g id="text_11">
      <!-- 0 -->
      <g transform="translate(44.2375 294.440017)scale(0.1 -0.1)">
       <use xlink:href="#DejaVuSans-30"/>
      </g>
     </g>
    </g>
    <g id="ytick_2">
     <g id="line2d_21">
      <path d="M 57.6 258.42982 
L 414.72 258.42982 
" clip-path="url(#p998a2b5e5c)" style="fill: none; stroke: #b0b0b0; stroke-width: 0.8; stroke-linecap: square"/>
     </g>
     <g id="line2d_22">
      <g>
       <use xlink:href="#m2b3251a7f1" x="57.6" y="258.42982" style="stroke: #000000; stroke-width: 0.8"/>
      </g>
     </g>
     <g id="text_12">
      <!-- 25 -->
      <g transform="translate(37.875 262.229039)scale(0.1 -0.1)">
       <use xlink:href="#DejaVuSans-32"/>
       <use xlink:href="#DejaVuSans-35" x="63.623047"/>
      </g>
     </g>
    </g>
    <g id="ytick_3">
     <g id="line2d_23">
      <path d="M 57.6 226.218842 
L 414.72 226.218842 
" clip-path="url(#p998a2b5e5c)" style="fill: none; stroke: #b0b0b0; stroke-width: 0.8; stroke-linecap: square"/>
     </g>
     <g id="line2d_24">
      <g>
       <use xlink:href="#m2b3251a7f1" x="57.6" y="226.218842" style="stroke: #000000; stroke-width: 0.8"/>
      </g>
     </g>
     <g id="text_13">
      <!-- 50 -->
      <g transform="translate(37.875 230.018061)scale(0.1 -0.1)">
       <use xlink:href="#DejaVuSans-35"/>
       <use xlink:href="#DejaVuSans-30" x="63.623047"/>
      </g>
     </g>
    </g>
    <g id="ytick_4">
     <g id="line2d_25">
      <path d="M 57.6 194.007864 
L 414.72 194.007864 
" clip-path="url(#p998a2b5e5c)" style="fill: none; stroke: #b0b0b0; stroke-width: 0.8; stroke-linecap: square"/>
     </g>
     <g id="line2d_26">
      <g>
       <use xlink:href="#m2b3251a7f1" x="57.6" y="194.007864" style="stroke: #000000; stroke-width: 0.8"/>
      </g>
     </g>
     <g id="text_14">
      <!-- 75 -->
      <g transform="translate(37.875 197.807083)scale(0.1 -0.1)">
       <use xlink:href="#DejaVuSans-37"/>
       <use xlink:href="#DejaVuSans-35" x="63.623047"/>
      </g>
     </g>
    </g>
    <g id="ytick_5">
     <g id="line2d_27">
      <path d="M 57.6 161.796886 
L 414.72 161.796886 
" clip-path="url(#p998a2b5e5c)" style="fill: none; stroke: #b0b0b0; stroke-width: 0.8; stroke-linecap: square"/>
     </g>
     <g id="line2d_28">
      <g>
       <use xlink:href="#m2b3251a7f1" x="57.6" y="161.796886" style="stroke: #000000; stroke-width: 0.8"/>
      </g>
     </g>
     <g id="text_15">
      <!-- 100 -->
      <g transform="translate(31.5125 165.596105)scale(0.1 -0.1)">
       <use xlink:href="#DejaVuSans-31"/>
       <use xlink:href="#DejaVuSans-30" x="63.623047"/>
       <use xlink:href="#DejaVuSans-30" x="127.246094"/>
      </g>
     </g>
    </g>
    <g id="ytick_6">
     <g id="line2d_29">
      <path d="M 57.6 129.585908 
L 414.72 129.585908 
" clip-path="url(#p998a2b5e5c)" style="fill: none; stroke: #b0b0b0; stroke-width: 0.8; stroke-linecap: square"/>
     </g>
     <g id="line2d_30">
      <g>
       <use xlink:href="#m2b3251a7f1" x="57.6" y="129.585908" style="stroke: #000000; stroke-width: 0.8"/>
      </g>
     </g>
     <g id="text_16">
      <!-- 125 -->
      <g transform="translate(31.5125 133.385127)scale(0.1 -0.1)">
       <use xlink:href="#DejaVuSans-31"/>
       <use xlink:href="#DejaVuSans-32" x="63.623047"/>
       <use xlink:href="#DejaVuSans-35" x="127.246094"/>
      </g>
     </g>
    </g>
    <g id="ytick_7">
     <g id="line2d_31">
      <path d="M 57.6 97.37493 
L 414.72 97.37493 
" clip-path="url(#p998a2b5e5c)" style="fill: none; stroke: #b0b0b0; stroke-width: 0.8; stroke-linecap: square"/>
     </g>
     <g id="line2d_32">
      <g>
       <use xlink:href="#m2b3251a7f1" x="57.6" y="97.37493" style="stroke: #000000; stroke-width: 0.8"/>
      </g>
     </g>
     <g id="text_17">
      <!-- 150 -->
      <g transform="translate(31.5125 101.174149)scale(0.1 -0.1)">
       <use xlink:href="#DejaVuSans-31"/>
       <use xlink:href="#DejaVuSans-35" x="63.623047"/>
       <use xlink:href="#DejaVuSans-30" x="127.246094"/>
      </g>
     </g>
    </g>
    <g id="ytick_8">
     <g id="line2d_33">
      <path d="M 57.6 65.163952 
L 414.72 65.163952 
" clip-path="url(#p998a2b5e5c)" style="fill: none; stroke: #b0b0b0; stroke-width: 0.8; stroke-linecap: square"/>
     </g>
     <g id="line2d_34">
      <g>
       <use xlink:href="#m2b3251a7f1" x="57.6" y="65.163952" style="stroke: #000000; stroke-width: 0.8"/>
      </g>
     </g>
     <g id="text_18">
      <!-- 175 -->
      <g transform="translate(31.5125 68.963171)scale(0.1 -0.1)">
       <use xlink:href="#DejaVuSans-31"/>
       <use xlink:href="#DejaVuSans-37" x="63.623047"/>
       <use xlink:href="#DejaVuSans-35" x="127.246094"/>
      </g>
     </g>
    </g>
    <g id="text_19">
     <!-- Fitness -->
     <g transform="translate(25.432812 191.845187)rotate(-90)scale(0.1 -0.1)">
      <defs>
       <path id="DejaVuSans-46" d="M 628 4666 
L 3309 4666 
L 3309 4134 
L 1259 4134 
L 1259 2759 
L 3109 2759 
L 3109 2228 
L 1259 2228 
L 1259 0 
L 628 0 
L 628 4666 
z
" transform="scale(0.015625)"/>
      </defs>
      <use xlink:href="#DejaVuSans-46"/>
      <use xlink:href="#DejaVuSans-69" x="50.269531"/>
      <use xlink:href="#DejaVuSans-74" x="78.052734"/>
      <use xlink:href="#DejaVuSans-6e" x="117.261719"/>
      <use xlink:href="#DejaVuSans-65" x="180.640625"/>
      <use xlink:href="#DejaVuSans-73" x="242.164062"/>
      <use xlink:href="#DejaVuSans-73" x="294.263672"/>
     </g>
    </g>
   </g>
   <g id="line2d_35">
    <path d="M 73.832727 200.560985 
L 75.464157 208.155096 
L 77.095587 221.193076 
L 78.727017 208.996706 
L 80.358447 210.001688 
L 81.989877 210.56132 
L 83.621307 198.53458 
L 85.252736 212.664463 
L 86.884166 215.89415 
L 88.515596 201.394915 
L 90.147026 209.065423 
L 91.778456 217.848254 
L 93.409886 212.819075 
L 95.041316 220.180357 
L 96.672746 205.889175 
L 98.304175 209.669364 
L 99.935605 200.398176 
L 101.567035 214.145058 
L 103.198465 215.340611 
L 104.829895 211.129404 
L 106.461325 210.980902 
L 108.092755 205.084982 
L 109.724185 199.715044 
L 111.355614 207.519296 
L 112.987044 204.946798 
L 114.618474 198.775089 
L 116.249904 202.425666 
L 117.881334 212.564846 
L 119.512764 212.751171 
L 121.144194 224.616999 
L 122.775624 213.19516 
L 124.407053 206.380293 
L 126.038483 211.189935 
L 127.669913 216.95232 
L 129.301343 205.800068 
L 130.932773 211.115946 
L 132.564203 212.956509 
L 134.195633 207.983134 
L 135.827063 205.346128 
L 137.458492 190.253472 
L 139.089922 198.079332 
L 140.721352 203.493889 
L 142.352782 211.907656 
L 143.984212 212.50985 
L 145.615642 198.385144 
L 147.247072 200.07462 
L 148.878502 200.795949 
L 150.509931 208.102343 
L 152.141361 209.521368 
L 153.772791 192.442713 
L 155.404221 193.640958 
L 157.035651 190.314339 
L 158.667081 199.187389 
L 160.298511 199.975372 
L 161.929941 195.567554 
L 163.56137 212.681755 
L 165.1928 204.117816 
L 166.82423 200.398176 
L 168.45566 209.221685 
L 171.71852 197.985596 
L 173.34995 206.909434 
L 174.98138 204.73348 
L 176.61281 206.451246 
L 178.244239 204.506902 
L 179.875669 210.275504 
L 181.507099 203.594868 
L 183.138529 191.953326 
L 184.769959 195.528222 
L 186.401389 204.107843 
L 188.032819 208.592995 
L 189.664249 199.34934 
L 191.295678 209.672571 
L 192.927108 211.843904 
L 194.558538 202.931176 
L 196.189968 207.651666 
L 197.821398 202.666175 
L 199.452828 212.174002 
L 201.084258 209.733647 
L 202.715688 211.960116 
L 204.347117 204.484908 
L 205.978547 221.421102 
L 207.609977 213.08863 
L 209.241407 212.755086 
L 210.872837 209.339425 
L 212.504267 197.752927 
L 214.135697 201.328929 
L 215.767127 215.000832 
L 217.398556 210.833862 
L 219.029986 207.476348 
L 220.661416 217.096693 
L 222.292846 223.461582 
L 223.924276 220.601247 
L 225.555706 224.546431 
L 227.187136 219.811005 
L 228.818566 217.182474 
L 230.449995 210.982401 
L 232.081425 205.707583 
L 233.712855 214.247451 
L 235.344285 210.152266 
L 236.975715 217.182474 
L 238.607145 216.507989 
L 240.238575 203.978135 
L 241.870005 215.834535 
L 243.501434 215.424965 
L 245.132864 215.550566 
L 246.764294 212.52161 
L 248.395724 216.186196 
L 250.027154 229.350346 
L 251.658584 212.979914 
L 253.290014 219.576416 
L 254.921444 206.477188 
L 256.552873 216.428458 
L 258.184303 211.227679 
L 259.815733 208.724118 
L 261.447163 208.249872 
L 263.078593 202.734892 
L 264.710023 206.832919 
L 266.341453 202.434256 
L 267.972883 205.307136 
L 269.604312 201.944649 
L 271.235742 197.933712 
L 272.867172 212.655873 
L 274.498602 208.189284 
L 276.130032 207.545064 
L 277.761462 211.034284 
L 279.392892 211.932838 
L 281.024322 210.039852 
L 282.655751 209.460486 
L 284.287181 206.763411 
L 285.918611 203.381475 
L 287.550041 208.898416 
L 289.181471 210.24561 
L 290.812901 214.139725 
L 292.444331 220.12882 
L 294.075761 201.807216 
L 295.70719 212.856619 
L 297.33862 215.75774 
L 298.97005 208.453741 
L 300.60148 222.508137 
L 302.23291 216.400936 
L 303.86434 202.923863 
L 305.49577 205.698936 
L 307.1272 210.177348 
L 308.75863 220.75586 
L 312.021489 211.23 
L 313.652919 209.95874 
L 315.284349 220.773039 
L 316.915779 221.17675 
L 318.547209 214.373792 
L 320.178639 216.229144 
L 321.810069 210.413989 
L 323.441498 212.810486 
L 325.072928 202.125031 
L 326.704358 224.77579 
L 328.335788 218.187572 
L 329.967218 212.123318 
L 331.598648 202.250461 
L 333.230078 204.32391 
L 334.861508 204.818807 
L 336.492937 211.312199 
L 338.124367 206.78918 
L 339.755797 200.346293 
L 341.387227 212.080601 
L 343.018657 200.908364 
L 344.650087 202.196803 
L 346.281517 206.546366 
L 347.912947 211.685249 
L 349.544376 207.540741 
L 351.175806 215.859792 
L 352.807236 197.022812 
L 354.438666 206.256625 
L 356.070096 207.673908 
L 357.701526 206.053075 
L 359.332956 198.154761 
L 360.964386 212.106542 
L 362.595815 205.984295 
L 364.227245 198.987507 
L 365.858675 200.804597 
L 367.490105 211.184208 
L 369.121535 195.799733 
L 370.752965 199.839746 
L 372.384395 209.289947 
L 374.015825 204.281246 
L 375.647254 200.207937 
L 377.278684 212.916579 
L 378.910114 205.246884 
L 380.541544 193.636033 
L 382.172974 208.015287 
L 383.804404 208.535231 
L 385.435834 210.290622 
L 387.067264 213.806879 
L 388.698693 213.723577 
L 390.330123 204.616013 
L 391.961553 212.242264 
L 393.592983 209.099781 
L 395.224413 198.291284 
L 396.855843 213.411245 
L 398.487273 209.759246 
L 398.487273 209.759246 
" clip-path="url(#p998a2b5e5c)" style="fill: none; stroke: #0000ff; stroke-width: 1.5; stroke-linecap: square"/>
   </g>
   <g id="line2d_36">
    <path d="M 73.832727 278.209156 
L 75.464157 280.945351 
L 77.095587 287.165665 
L 78.727017 278.063359 
L 80.358447 281.481025 
L 81.989877 286.237622 
L 83.621307 272.707912 
L 85.252736 284.465052 
L 86.884166 289.13448 
L 88.515596 273.484078 
L 90.147026 284.16483 
L 91.778456 288.462091 
L 93.409886 284.604601 
L 95.041316 286.587221 
L 96.672746 276.74662 
L 98.304175 281.195021 
L 99.935605 272.11351 
L 101.567035 285.752331 
L 103.198465 283.009644 
L 104.829895 281.280866 
L 106.461325 282.713026 
L 108.092755 276.304887 
L 109.724185 275.256853 
L 111.355614 283.867076 
L 112.987044 277.06965 
L 114.618474 272.563815 
L 116.249904 276.271202 
L 117.881334 283.719487 
L 119.512764 283.738572 
L 121.144194 294.981683 
L 122.775624 281.52203 
L 124.407053 280.229397 
L 126.038483 276.366801 
L 127.669913 289.105934 
L 129.301343 275.477901 
L 130.932773 286.050531 
L 132.564203 283.17893 
L 134.195633 279.648883 
L 135.827063 283.466775 
L 137.458492 260.991451 
L 139.089922 271.298366 
L 140.721352 279.666077 
L 142.352782 286.463702 
L 143.984212 279.550674 
L 145.615642 269.296377 
L 147.247072 275.28809 
L 148.878502 276.625603 
L 150.509931 274.549989 
L 152.141361 277.685645 
L 153.772791 269.767155 
L 157.035651 262.523455 
L 158.667081 272.899992 
L 160.298511 270.33168 
L 161.929941 267.509684 
L 163.56137 281.717106 
L 165.1928 273.504577 
L 166.82423 273.973098 
L 168.45566 275.853215 
L 170.08709 274.979054 
L 171.71852 264.200247 
L 173.34995 277.284161 
L 174.98138 274.711366 
L 176.61281 277.252209 
L 178.244239 273.818422 
L 179.875669 281.599628 
L 181.507099 275.248146 
L 183.138529 260.455576 
L 184.769959 262.716597 
L 186.401389 272.361754 
L 188.032819 279.521043 
L 189.664249 274.49844 
L 191.295678 281.176682 
L 192.927108 283.184412 
L 194.558538 272.919841 
L 196.189968 276.962245 
L 197.821398 275.368723 
L 199.452828 283.326323 
L 201.084258 276.698559 
L 202.715688 279.671674 
L 204.347117 277.144266 
L 205.978547 286.85905 
L 207.609977 282.670109 
L 209.241407 279.050539 
L 210.872837 279.881046 
L 212.504267 272.24883 
L 214.135697 274.929194 
L 215.767127 284.812445 
L 217.398556 281.811698 
L 219.029986 277.945462 
L 220.661416 294.597282 
L 222.292846 292.561335 
L 223.924276 288.951258 
L 227.187136 289.698417 
L 228.818566 289.328731 
L 230.449995 284.427562 
L 232.081425 278.822177 
L 233.712855 286.733659 
L 235.344285 281.187906 
L 236.975715 285.81874 
L 238.607145 284.542888 
L 240.238575 276.892356 
L 241.870005 284.805786 
L 243.501434 283.222222 
L 245.132864 283.659189 
L 246.764294 283.068855 
L 248.395724 282.022214 
L 250.027154 288.043042 
L 251.658584 282.237008 
L 253.290014 286.136473 
L 254.921444 273.502668 
L 256.552873 282.199347 
L 258.184303 280.191814 
L 259.815733 279.42065 
L 261.447163 277.813379 
L 263.078593 278.457581 
L 264.710023 280.900379 
L 266.341453 272.642032 
L 267.972883 278.685006 
L 269.604312 276.543988 
L 271.235742 269.739787 
L 272.867172 279.408078 
L 274.498602 278.029736 
L 276.130032 281.405597 
L 277.761462 281.555816 
L 279.392892 286.607491 
L 281.024322 278.456366 
L 282.655751 278.823455 
L 284.287181 276.390285 
L 285.918611 271.643187 
L 287.550041 279.247186 
L 290.812901 284.267959 
L 292.444331 283.29474 
L 294.075761 267.26851 
L 295.70719 281.386421 
L 297.33862 284.198981 
L 298.97005 279.356994 
L 300.60148 289.106344 
L 302.23291 285.620329 
L 303.86434 273.605136 
L 305.49577 275.493383 
L 307.1272 279.476095 
L 308.75863 289.140253 
L 310.390059 285.092451 
L 312.021489 280.264438 
L 313.652919 278.603035 
L 315.284349 289.345144 
L 316.915779 295.488 
L 318.547209 282.322753 
L 320.178639 286.416316 
L 321.810069 283.24848 
L 323.441498 281.799649 
L 325.072928 274.420397 
L 326.704358 293.477175 
L 328.335788 288.027218 
L 329.967218 279.253219 
L 331.598648 273.165415 
L 333.230078 278.310354 
L 334.861508 276.925821 
L 336.492937 284.799921 
L 338.124367 274.746093 
L 339.755797 272.239233 
L 341.387227 279.962608 
L 343.018657 270.080822 
L 344.650087 274.34925 
L 346.281517 275.012571 
L 347.912947 281.264321 
L 349.544376 277.614447 
L 351.175806 283.155117 
L 352.807236 268.239483 
L 354.438666 276.92431 
L 356.070096 275.105926 
L 357.701526 279.549889 
L 359.332956 273.687853 
L 360.964386 282.175853 
L 362.595815 272.842048 
L 364.227245 272.491687 
L 365.858675 273.854756 
L 367.490105 280.702494 
L 369.121535 267.472435 
L 370.752965 269.192977 
L 372.384395 281.615276 
L 374.015825 281.112132 
L 375.647254 270.821168 
L 377.278684 283.303033 
L 378.910114 279.185327 
L 380.541544 268.55941 
L 382.172974 276.561478 
L 383.804404 277.030433 
L 385.435834 281.267995 
L 387.067264 281.123504 
L 388.698693 279.685651 
L 390.330123 275.267043 
L 391.961553 282.411901 
L 393.592983 281.089497 
L 395.224413 269.358232 
L 396.855843 280.758887 
L 398.487273 283.590497 
L 398.487273 283.590497 
" clip-path="url(#p998a2b5e5c)" style="fill: none; stroke-dasharray: 9.6,2.4,1.5,2.4; stroke-dashoffset: 0; stroke: #008000; stroke-width: 1.5"/>
   </g>
   <g id="line2d_37">
    <path d="M 73.832727 122.912814 
L 75.464157 135.364841 
L 77.095587 155.220488 
L 78.727017 139.930053 
L 80.358447 138.522352 
L 81.989877 134.885018 
L 83.621307 124.361248 
L 85.252736 140.863873 
L 86.884166 142.65382 
L 88.515596 129.305752 
L 90.147026 133.966016 
L 91.778456 147.234417 
L 93.409886 141.03355 
L 95.041316 153.773494 
L 96.672746 135.03173 
L 98.304175 138.143707 
L 99.935605 128.682843 
L 101.567035 142.537785 
L 103.198465 147.671578 
L 104.829895 140.977942 
L 106.461325 139.248778 
L 108.092755 133.865076 
L 109.724185 124.173235 
L 111.355614 131.171515 
L 112.987044 132.823945 
L 114.618474 124.986363 
L 116.249904 128.580131 
L 117.881334 141.410205 
L 119.512764 141.76377 
L 121.144194 154.252315 
L 122.775624 144.86829 
L 124.407053 132.531189 
L 126.038483 146.013068 
L 127.669913 144.798706 
L 129.301343 136.122236 
L 130.932773 136.181362 
L 132.564203 142.734087 
L 134.195633 136.317385 
L 135.827063 127.225481 
L 137.458492 119.515493 
L 139.089922 124.860297 
L 140.721352 127.321701 
L 142.352782 137.35161 
L 143.984212 145.469026 
L 145.615642 127.473911 
L 147.247072 124.86115 
L 148.878502 124.966296 
L 150.509931 141.654698 
L 152.141361 141.35709 
L 153.772791 115.118272 
L 155.404221 121.112781 
L 157.035651 118.105222 
L 158.667081 125.474787 
L 160.298511 129.619063 
L 161.929941 123.625423 
L 163.56137 143.646404 
L 165.1928 134.731055 
L 166.82423 126.823254 
L 168.45566 142.590154 
L 170.08709 132.075057 
L 171.71852 131.770944 
L 173.34995 136.534708 
L 174.98138 134.755593 
L 176.61281 135.650283 
L 178.244239 135.195382 
L 179.875669 138.951379 
L 181.507099 131.94159 
L 183.138529 123.451076 
L 184.769959 128.339848 
L 186.401389 135.853932 
L 188.032819 137.664947 
L 189.664249 124.20024 
L 191.295678 138.168461 
L 192.927108 140.503395 
L 194.558538 132.94251 
L 196.189968 138.341088 
L 197.821398 129.963627 
L 199.452828 141.021681 
L 201.084258 142.768736 
L 202.715688 144.248557 
L 204.347117 131.825551 
L 205.978547 155.983154 
L 207.609977 143.507152 
L 209.241407 146.459632 
L 210.872837 138.797803 
L 212.504267 123.257024 
L 214.135697 127.728664 
L 215.767127 145.189219 
L 217.398556 139.856025 
L 219.029986 137.007234 
L 220.661416 139.596104 
L 222.292846 154.36183 
L 223.924276 152.251237 
L 225.555706 159.770522 
L 227.187136 149.923592 
L 228.818566 145.036216 
L 230.449995 137.53724 
L 232.081425 132.592989 
L 233.712855 141.761242 
L 235.344285 139.116626 
L 236.975715 148.546207 
L 238.607145 148.47309 
L 240.238575 131.063913 
L 241.870005 146.863283 
L 243.501434 147.627707 
L 245.132864 147.441944 
L 246.764294 141.974365 
L 248.395724 150.350178 
L 250.027154 170.657651 
L 251.658584 143.72282 
L 253.290014 153.016359 
L 254.921444 139.451707 
L 256.552873 150.657568 
L 258.184303 142.263543 
L 259.815733 138.027586 
L 261.447163 138.686366 
L 263.078593 127.012202 
L 264.710023 132.76546 
L 266.341453 132.22648 
L 267.972883 131.929266 
L 269.604312 127.34531 
L 271.235742 126.127637 
L 272.867172 145.903668 
L 274.498602 138.348832 
L 276.130032 133.684531 
L 277.761462 140.512753 
L 279.392892 137.258186 
L 281.024322 141.623337 
L 282.655751 140.097517 
L 284.287181 137.136538 
L 285.918611 135.119763 
L 287.550041 138.549645 
L 289.181471 138.636577 
L 290.812901 144.011492 
L 292.444331 156.962899 
L 294.075761 136.345921 
L 295.70719 144.326817 
L 297.33862 147.3165 
L 298.97005 137.550488 
L 300.60148 155.90993 
L 302.23291 147.181543 
L 303.86434 132.24259 
L 305.49577 135.904489 
L 307.1272 140.878601 
L 308.75863 152.371467 
L 312.021489 142.195563 
L 313.652919 141.314446 
L 315.284349 152.200935 
L 316.915779 146.865501 
L 320.178639 146.041973 
L 321.810069 137.579498 
L 323.441498 143.821323 
L 325.072928 129.829664 
L 326.704358 156.074406 
L 328.335788 148.347925 
L 329.967218 144.993418 
L 331.598648 131.335507 
L 333.230078 130.337465 
L 334.861508 132.711793 
L 336.492937 137.824477 
L 338.124367 138.832268 
L 339.755797 128.453352 
L 341.387227 144.198593 
L 343.018657 131.735905 
L 344.650087 130.044355 
L 346.281517 138.080161 
L 347.912947 142.106177 
L 349.544376 137.467035 
L 351.175806 148.564466 
L 352.807236 125.806141 
L 354.438666 135.588941 
L 356.070096 140.241891 
L 357.701526 132.55626 
L 359.332956 122.621669 
L 360.964386 142.037232 
L 362.595815 139.126542 
L 364.227245 125.483327 
L 365.858675 127.754437 
L 367.490105 141.665922 
L 369.121535 124.127031 
L 372.384395 136.964617 
L 374.015825 127.450361 
L 375.647254 129.594706 
L 377.278684 142.530124 
L 378.910114 131.308441 
L 380.541544 118.712656 
L 382.172974 139.469095 
L 383.804404 140.04003 
L 385.435834 139.313248 
L 387.067264 146.490253 
L 388.698693 147.761502 
L 390.330123 133.964982 
L 391.961553 142.072627 
L 393.592983 137.110065 
L 395.224413 127.224337 
L 396.855843 146.063604 
L 398.487273 135.927995 
L 398.487273 135.927995 
" clip-path="url(#p998a2b5e5c)" style="fill: none; stroke-dasharray: 9.6,2.4,1.5,2.4; stroke-dashoffset: 0; stroke: #008000; stroke-width: 1.5"/>
   </g>
   <g id="line2d_38">
    <path d="M 73.832727 53.568 
L 75.464157 53.568 
L 77.095587 78.048343 
L 78.727017 61.298635 
L 80.358447 65.163952 
L 81.989877 53.568 
L 83.621307 57.433317 
L 85.252736 53.568 
L 90.147026 53.568 
L 91.778456 57.433317 
L 93.409886 57.433317 
L 95.041316 63.875513 
L 96.672746 53.568 
L 98.304175 61.298635 
L 101.567035 61.298635 
L 103.198465 53.568 
L 104.829895 69.029269 
L 106.461325 58.721756 
L 108.092755 57.433317 
L 109.724185 62.587074 
L 111.355614 53.568 
L 117.881334 53.568 
L 119.512764 61.298635 
L 121.144194 57.433317 
L 122.775624 70.317709 
L 124.407053 53.568 
L 126.038483 61.298635 
L 127.669913 53.568 
L 130.932773 53.568 
L 132.564203 57.433317 
L 134.195633 57.433317 
L 135.827063 53.568 
L 137.458492 57.433317 
L 139.089922 53.568 
L 142.352782 53.568 
L 143.984212 66.452391 
L 145.615642 53.568 
L 147.247072 53.568 
L 148.878502 57.433317 
L 150.509931 74.183026 
L 152.141361 65.163952 
L 153.772791 57.433317 
L 155.404221 60.010196 
L 157.035651 53.568 
L 158.667081 54.856439 
L 160.298511 53.568 
L 161.929941 53.568 
L 165.1928 61.298635 
L 166.82423 53.568 
L 168.45566 61.298635 
L 170.08709 53.568 
L 171.71852 53.568 
L 173.34995 58.721756 
L 174.98138 53.568 
L 176.61281 66.452391 
L 178.244239 63.875513 
L 179.875669 53.568 
L 181.507099 61.298635 
L 183.138529 53.568 
L 184.769959 53.568 
L 186.401389 60.010196 
L 188.032819 53.568 
L 189.664249 57.433317 
L 191.295678 53.568 
L 196.189968 53.568 
L 199.452828 61.298635 
L 201.084258 53.568 
L 202.715688 54.856439 
L 204.347117 53.568 
L 205.978547 66.452391 
L 207.609977 53.568 
L 209.241407 69.029269 
L 210.872837 58.721756 
L 212.504267 61.298635 
L 214.135697 61.298635 
L 215.767127 60.010196 
L 217.398556 57.433317 
L 219.029986 65.163952 
L 220.661416 53.568 
L 222.292846 53.568 
L 223.924276 57.433317 
L 225.555706 54.856439 
L 227.187136 57.433317 
L 228.818566 61.298635 
L 230.449995 57.433317 
L 233.712855 57.433317 
L 235.344285 53.568 
L 236.975715 53.568 
L 238.607145 60.010196 
L 240.238575 58.721756 
L 241.870005 61.298635 
L 243.501434 60.010196 
L 245.132864 53.568 
L 246.764294 66.452391 
L 248.395724 53.568 
L 250.027154 69.029269 
L 251.658584 53.568 
L 253.290014 69.029269 
L 254.921444 58.721756 
L 256.552873 53.568 
L 258.184303 58.721756 
L 259.815733 57.433317 
L 261.447163 61.298635 
L 263.078593 53.568 
L 267.972883 53.568 
L 269.604312 54.856439 
L 271.235742 54.856439 
L 272.867172 57.433317 
L 274.498602 61.298635 
L 276.130032 53.568 
L 277.761462 63.875513 
L 279.392892 57.433317 
L 281.024322 65.163952 
L 282.655751 53.568 
L 285.918611 53.568 
L 287.550041 54.856439 
L 289.181471 61.298635 
L 290.812901 53.568 
L 292.444331 57.433317 
L 294.075761 65.163952 
L 295.70719 53.568 
L 297.33862 70.317709 
L 298.97005 53.568 
L 300.60148 65.163952 
L 302.23291 61.298635 
L 303.86434 61.298635 
L 305.49577 57.433317 
L 308.75863 57.433317 
L 310.390059 53.568 
L 312.021489 62.587074 
L 313.652919 61.298635 
L 315.284349 66.452391 
L 316.915779 62.587074 
L 318.547209 54.856439 
L 320.178639 53.568 
L 321.810069 65.163952 
L 323.441498 60.010196 
L 325.072928 57.433317 
L 326.704358 53.568 
L 328.335788 57.433317 
L 329.967218 57.433317 
L 331.598648 53.568 
L 333.230078 57.433317 
L 334.861508 57.433317 
L 336.492937 61.298635 
L 338.124367 58.721756 
L 339.755797 57.433317 
L 341.387227 53.568 
L 343.018657 66.452391 
L 344.650087 65.163952 
L 346.281517 57.433317 
L 347.912947 61.298635 
L 349.544376 66.452391 
L 351.175806 74.183026 
L 352.807236 69.029269 
L 354.438666 62.587074 
L 356.070096 70.317709 
L 357.701526 57.433317 
L 359.332956 53.568 
L 360.964386 61.298635 
L 362.595815 57.433317 
L 364.227245 65.163952 
L 365.858675 54.856439 
L 367.490105 53.568 
L 369.121535 61.298635 
L 370.752965 65.163952 
L 372.384395 57.433317 
L 374.015825 54.856439 
L 375.647254 62.587074 
L 377.278684 57.433317 
L 378.910114 53.568 
L 380.541544 53.568 
L 382.172974 66.452391 
L 383.804404 58.721756 
L 385.435834 61.298635 
L 387.067264 75.471465 
L 388.698693 66.452391 
L 390.330123 53.568 
L 391.961553 65.163952 
L 393.592983 57.433317 
L 395.224413 63.875513 
L 396.855843 66.452391 
L 398.487273 61.298635 
L 398.487273 61.298635 
" clip-path="url(#p998a2b5e5c)" style="fill: none; stroke: #ff0000; stroke-width: 1.5; stroke-linecap: square"/>
   </g>
   <g id="patch_3">
    <path d="M 57.6 307.584 
L 57.6 41.472 
" style="fill: none; stroke: #000000; stroke-width: 0.8; stroke-linejoin: miter; stroke-linecap: square"/>
   </g>
   <g id="patch_4">
    <path d="M 414.72 307.584 
L 414.72 41.472 
" style="fill: none; stroke: #000000; stroke-width: 0.8; stroke-linejoin: miter; stroke-linecap: square"/>
   </g>
   <g id="patch_5">
    <path d="M 57.6 307.584 
L 414.72 307.584 
" style="fill: none; stroke: #000000; stroke-width: 0.8; stroke-linejoin: miter; stroke-linecap: square"/>
   </g>
   <g id="patch_6">
    <path d="M 57.6 41.472 
L 414.72 41.472 
" style="fill: none; stroke: #000000; stroke-width: 0.8; stroke-linejoin: miter; stroke-linecap: square"/>
   </g>
   <g id="text_20">
    <!-- Population's average and best fitness -->
    <g transform="translate(123.529687 35.472)scale(0.12 -0.12)">
     <defs>
      <path id="DejaVuSans-50" d="M 1259 4147 
L 1259 2394 
L 2053 2394 
Q 2494 2394 2734 2622 
Q 2975 2850 2975 3272 
Q 2975 3691 2734 3919 
Q 2494 4147 2053 4147 
L 1259 4147 
z
M 628 4666 
L 2053 4666 
Q 2838 4666 3239 4311 
Q 3641 3956 3641 3272 
Q 3641 2581 3239 2228 
Q 2838 1875 2053 1875 
L 1259 1875 
L 1259 0 
L 628 0 
L 628 4666 
z
" transform="scale(0.015625)"/>
      <path id="DejaVuSans-70" d="M 1159 525 
L 1159 -1331 
L 581 -1331 
L 581 3500 
L 1159 3500 
L 1159 2969 
Q 1341 3281 1617 3432 
Q 1894 3584 2278 3584 
Q 2916 3584 3314 3078 
Q 3713 2572 3713 1747 
Q 3713 922 3314 415 
Q 2916 -91 2278 -91 
Q 1894 -91 1617 61 
Q 1341 213 1159 525 
z
M 3116 1747 
Q 3116 2381 2855 2742 
Q 2594 3103 2138 3103 
Q 1681 3103 1420 2742 
Q 1159 2381 1159 1747 
Q 1159 1113 1420 752 
Q 1681 391 2138 391 
Q 2594 391 2855 752 
Q 3116 1113 3116 1747 
z
" transform="scale(0.015625)"/>
      <path id="DejaVuSans-75" d="M 544 1381 
L 544 3500 
L 1119 3500 
L 1119 1403 
Q 1119 906 1312 657 
Q 1506 409 1894 409 
Q 2359 409 2629 706 
Q 2900 1003 2900 1516 
L 2900 3500 
L 3475 3500 
L 3475 0 
L 2900 0 
L 2900 538 
Q 2691 219 2414 64 
Q 2138 -91 1772 -91 
Q 1169 -91 856 284 
Q 544 659 544 1381 
z
M 1991 3584 
L 1991 3584 
z
" transform="scale(0.015625)"/>
      <path id="DejaVuSans-6c" d="M 603 4863 
L 1178 4863 
L 1178 0 
L 603 0 
L 603 4863 
z
" transform="scale(0.015625)"/>
      <path id="DejaVuSans-27" d="M 1147 4666 
L 1147 2931 
L 616 2931 
L 616 4666 
L 1147 4666 
z
" transform="scale(0.015625)"/>
      <path id="DejaVuSans-20" transform="scale(0.015625)"/>
      <path id="DejaVuSans-76" d="M 191 3500 
L 800 3500 
L 1894 563 
L 2988 3500 
L 3597 3500 
L 2284 0 
L 1503 0 
L 191 3500 
z
" transform="scale(0.015625)"/>
      <path id="DejaVuSans-67" d="M 2906 1791 
Q 2906 2416 2648 2759 
Q 2391 3103 1925 3103 
Q 1463 3103 1205 2759 
Q 947 2416 947 1791 
Q 947 1169 1205 825 
Q 1463 481 1925 481 
Q 2391 481 2648 825 
Q 2906 1169 2906 1791 
z
M 3481 434 
Q 3481 -459 3084 -895 
Q 2688 -1331 1869 -1331 
Q 1566 -1331 1297 -1286 
Q 1028 -1241 775 -1147 
L 775 -588 
Q 1028 -725 1275 -790 
Q 1522 -856 1778 -856 
Q 2344 -856 2625 -561 
Q 2906 -266 2906 331 
L 2906 616 
Q 2728 306 2450 153 
Q 2172 0 1784 0 
Q 1141 0 747 490 
Q 353 981 353 1791 
Q 353 2603 747 3093 
Q 1141 3584 1784 3584 
Q 2172 3584 2450 3431 
Q 2728 3278 2906 2969 
L 2906 3500 
L 3481 3500 
L 3481 434 
z
" transform="scale(0.015625)"/>
      <path id="DejaVuSans-64" d="M 2906 2969 
L 2906 4863 
L 3481 4863 
L 3481 0 
L 2906 0 
L 2906 525 
Q 2725 213 2448 61 
Q 2172 -91 1784 -91 
Q 1150 -91 751 415 
Q 353 922 353 1747 
Q 353 2572 751 3078 
Q 1150 3584 1784 3584 
Q 2172 3584 2448 3432 
Q 2725 3281 2906 2969 
z
M 947 1747 
Q 947 1113 1208 752 
Q 1469 391 1925 391 
Q 2381 391 2643 752 
Q 2906 1113 2906 1747 
Q 2906 2381 2643 2742 
Q 2381 3103 1925 3103 
Q 1469 3103 1208 2742 
Q 947 2381 947 1747 
z
" transform="scale(0.015625)"/>
      <path id="DejaVuSans-62" d="M 3116 1747 
Q 3116 2381 2855 2742 
Q 2594 3103 2138 3103 
Q 1681 3103 1420 2742 
Q 1159 2381 1159 1747 
Q 1159 1113 1420 752 
Q 1681 391 2138 391 
Q 2594 391 2855 752 
Q 3116 1113 3116 1747 
z
M 1159 2969 
Q 1341 3281 1617 3432 
Q 1894 3584 2278 3584 
Q 2916 3584 3314 3078 
Q 3713 2572 3713 1747 
Q 3713 922 3314 415 
Q 2916 -91 2278 -91 
Q 1894 -91 1617 61 
Q 1341 213 1159 525 
L 1159 0 
L 581 0 
L 581 4863 
L 1159 4863 
L 1159 2969 
z
" transform="scale(0.015625)"/>
      <path id="DejaVuSans-66" d="M 2375 4863 
L 2375 4384 
L 1825 4384 
Q 1516 4384 1395 4259 
Q 1275 4134 1275 3809 
L 1275 3500 
L 2222 3500 
L 2222 3053 
L 1275 3053 
L 1275 0 
L 697 0 
L 697 3053 
L 147 3053 
L 147 3500 
L 697 3500 
L 697 3744 
Q 697 4328 969 4595 
Q 1241 4863 1831 4863 
L 2375 4863 
z
" transform="scale(0.015625)"/>
     </defs>
     <use xlink:href="#DejaVuSans-50"/>
     <use xlink:href="#DejaVuSans-6f" x="56.677734"/>
     <use xlink:href="#DejaVuSans-70" x="117.859375"/>
     <use xlink:href="#DejaVuSans-75" x="181.335938"/>
     <use xlink:href="#DejaVuSans-6c" x="244.714844"/>
     <use xlink:href="#DejaVuSans-61" x="272.498047"/>
     <use xlink:href="#DejaVuSans-74" x="333.777344"/>
     <use xlink:href="#DejaVuSans-69" x="372.986328"/>
     <use xlink:href="#DejaVuSans-6f" x="400.769531"/>
     <use xlink:href="#DejaVuSans-6e" x="461.951172"/>
     <use xlink:href="#DejaVuSans-27" x="525.330078"/>
     <use xlink:href="#DejaVuSans-73" x="552.820312"/>
     <use xlink:href="#DejaVuSans-20" x="604.919922"/>
     <use xlink:href="#DejaVuSans-61" x="636.707031"/>
     <use xlink:href="#DejaVuSans-76" x="697.986328"/>
     <use xlink:href="#DejaVuSans-65" x="757.166016"/>
     <use xlink:href="#DejaVuSans-72" x="818.689453"/>
     <use xlink:href="#DejaVuSans-61" x="859.802734"/>
     <use xlink:href="#DejaVuSans-67" x="921.082031"/>
     <use xlink:href="#DejaVuSans-65" x="984.558594"/>
     <use xlink:href="#DejaVuSans-20" x="1046.082031"/>
     <use xlink:href="#DejaVuSans-61" x="1077.869141"/>
     <use xlink:href="#DejaVuSans-6e" x="1139.148438"/>
     <use xlink:href="#DejaVuSans-64" x="1202.527344"/>
     <use xlink:href="#DejaVuSans-20" x="1266.003906"/>
     <use xlink:href="#DejaVuSans-62" x="1297.791016"/>
     <use xlink:href="#DejaVuSans-65" x="1361.267578"/>
     <use xlink:href="#DejaVuSans-73" x="1422.791016"/>
     <use xlink:href="#DejaVuSans-74" x="1474.890625"/>
     <use xlink:href="#DejaVuSans-20" x="1514.099609"/>
     <use xlink:href="#DejaVuSans-66" x="1545.886719"/>
     <use xlink:href="#DejaVuSans-69" x="1581.091797"/>
     <use xlink:href="#DejaVuSans-74" x="1608.875"/>
     <use xlink:href="#DejaVuSans-6e" x="1648.083984"/>
     <use xlink:href="#DejaVuSans-65" x="1711.462891"/>
     <use xlink:href="#DejaVuSans-73" x="1772.986328"/>
     <use xlink:href="#DejaVuSans-73" x="1825.085938"/>
    </g>
   </g>
   <g id="legend_1">
    <g id="patch_7">
     <path d="M 64.6 205.38425 
L 137.540625 205.38425 
Q 139.540625 205.38425 139.540625 203.38425 
L 139.540625 145.67175 
Q 139.540625 143.67175 137.540625 143.67175 
L 64.6 143.67175 
Q 62.6 143.67175 62.6 145.67175 
L 62.6 203.38425 
Q 62.6 205.38425 64.6 205.38425 
z
" style="fill: #ffffff; opacity: 0.8; stroke: #cccccc; stroke-linejoin: miter"/>
    </g>
    <g id="line2d_39">
     <path d="M 66.6 151.770188 
L 76.6 151.770188 
L 86.6 151.770188 
" style="fill: none; stroke: #0000ff; stroke-width: 1.5; stroke-linecap: square"/>
    </g>
    <g id="text_21">
     <!-- average -->
     <g transform="translate(94.6 155.270188)scale(0.1 -0.1)">
      <use xlink:href="#DejaVuSans-61"/>
      <use xlink:href="#DejaVuSans-76" x="61.279297"/>
      <use xlink:href="#DejaVuSans-65" x="120.458984"/>
      <use xlink:href="#DejaVuSans-72" x="181.982422"/>
      <use xlink:href="#DejaVuSans-61" x="223.095703"/>
      <use xlink:href="#DejaVuSans-67" x="284.375"/>
      <use xlink:href="#DejaVuSans-65" x="347.851562"/>
     </g>
    </g>
    <g id="line2d_40">
     <path d="M 66.6 166.448313 
L 76.6 166.448313 
L 86.6 166.448313 
" style="fill: none; stroke-dasharray: 9.6,2.4,1.5,2.4; stroke-dashoffset: 0; stroke: #008000; stroke-width: 1.5"/>
    </g>
    <g id="text_22">
     <!-- -1 sd -->
     <g transform="translate(94.6 169.948313)scale(0.1 -0.1)">
      <defs>
       <path id="DejaVuSans-2d" d="M 313 2009 
L 1997 2009 
L 1997 1497 
L 313 1497 
L 313 2009 
z
" transform="scale(0.015625)"/>
      </defs>
      <use xlink:href="#DejaVuSans-2d"/>
      <use xlink:href="#DejaVuSans-31" x="36.083984"/>
      <use xlink:href="#DejaVuSans-20" x="99.707031"/>
      <use xlink:href="#DejaVuSans-73" x="131.494141"/>
      <use xlink:href="#DejaVuSans-64" x="183.59375"/>
     </g>
    </g>
    <g id="line2d_41">
     <path d="M 66.6 181.126438 
L 76.6 181.126438 
L 86.6 181.126438 
" style="fill: none; stroke-dasharray: 9.6,2.4,1.5,2.4; stroke-dashoffset: 0; stroke: #008000; stroke-width: 1.5"/>
    </g>
    <g id="text_23">
     <!-- +1 sd -->
     <g transform="translate(94.6 184.626438)scale(0.1 -0.1)">
      <defs>
       <path id="DejaVuSans-2b" d="M 2944 4013 
L 2944 2272 
L 4684 2272 
L 4684 1741 
L 2944 1741 
L 2944 0 
L 2419 0 
L 2419 1741 
L 678 1741 
L 678 2272 
L 2419 2272 
L 2419 4013 
L 2944 4013 
z
" transform="scale(0.015625)"/>
      </defs>
      <use xlink:href="#DejaVuSans-2b"/>
      <use xlink:href="#DejaVuSans-31" x="83.789062"/>
      <use xlink:href="#DejaVuSans-20" x="147.412109"/>
      <use xlink:href="#DejaVuSans-73" x="179.199219"/>
      <use xlink:href="#DejaVuSans-64" x="231.298828"/>
     </g>
    </g>
    <g id="line2d_42">
     <path d="M 66.6 195.804563 
L 76.6 195.804563 
L 86.6 195.804563 
" style="fill: none; stroke: #ff0000; stroke-width: 1.5; stroke-linecap: square"/>
    </g>
    <g id="text_24">
     <!-- best -->
     <g transform="translate(94.6 199.304563)scale(0.1 -0.1)">
      <use xlink:href="#DejaVuSans-62"/>
      <use xlink:href="#DejaVuSans-65" x="63.476562"/>
      <use xlink:href="#DejaVuSans-73" x="125"/>
      <use xlink:href="#DejaVuSans-74" x="177.099609"/>
     </g>
    </g>
   </g>
  </g>
 </g>
 <defs>
  <clipPath id="p998a2b5e5c">
   <rect x="57.6" y="41.472" width="357.12" height="266.112"/>
  </clipPath>
 </defs>
</svg>
