<?xml version="1.0" encoding="utf-8" standalone="no"?>
<!DOCTYPE svg PUBLIC "-//W3C//DTD SVG 1.1//EN"
  "http://www.w3.org/Graphics/SVG/1.1/DTD/svg11.dtd">
<svg xmlns:xlink="http://www.w3.org/1999/xlink" width="460.8pt" height="345.6pt" viewBox="0 0 460.8 345.6" xmlns="http://www.w3.org/2000/svg" version="1.1">
 <metadata>
  <rdf:RDF xmlns:dc="http://purl.org/dc/elements/1.1/" xmlns:cc="http://creativecommons.org/ns#" xmlns:rdf="http://www.w3.org/1999/02/22-rdf-syntax-ns#">
   <cc:Work>
    <dc:type rdf:resource="http://purl.org/dc/dcmitype/StillImage"/>
    <dc:date>2022-07-10T06:52:07.614757</dc:date>
    <dc:format>image/svg+xml</dc:format>
    <dc:creator>
     <cc:Agent>
      <dc:title>Matplotlib v3.5.2, https://matplotlib.org/</dc:title>
     </cc:Agent>
    </dc:creator>
   </cc:Work>
  </rdf:RDF>
 </metadata>
 <defs>
  <style type="text/css">*{stroke-linejoin: round; stroke-linecap: butt}</style>
 </defs>
 <g id="figure_1">
  <g id="patch_1">
   <path d="M 0 345.6 
L 460.8 345.6 
L 460.8 0 
L 0 0 
z
" style="fill: #ffffff"/>
  </g>
  <g id="axes_1">
   <g id="patch_2">
    <path d="M 57.6 307.584 
L 414.72 307.584 
L 414.72 41.472 
L 57.6 41.472 
z
" style="fill: #ffffff"/>
   </g>
   <g id="matplotlib.axis_1">
    <g id="xtick_1">
     <g id="line2d_1">
      <path d="M 73.832727 307.584 
L 73.832727 41.472 
" clip-path="url(#p85ff8e2628)" style="fill: none; stroke: #b0b0b0; stroke-width: 0.8; stroke-linecap: square"/>
     </g>
     <g id="line2d_2">
      <defs>
       <path id="m73469627d8" d="M 0 0 
L 0 3.5 
" style="stroke: #000000; stroke-width: 0.8"/>
      </defs>
      <g>
       <use xlink:href="#m73469627d8" x="73.832727" y="307.584" style="stroke: #000000; stroke-width: 0.8"/>
      </g>
     </g>
     <g id="text_1">
      <!-- 0 -->
      <g transform="translate(70.651477 322.182437)scale(0.1 -0.1)">
       <defs>
        <path id="DejaVuSans-30" d="M 2034 4250 
Q 1547 4250 1301 3770 
Q 1056 3291 1056 2328 
Q 1056 1369 1301 889 
Q 1547 409 2034 409 
Q 2525 409 2770 889 
Q 3016 1369 3016 2328 
Q 3016 3291 2770 3770 
Q 2525 4250 2034 4250 
z
M 2034 4750 
Q 2819 4750 3233 4129 
Q 3647 3509 3647 2328 
Q 3647 1150 3233 529 
Q 2819 -91 2034 -91 
Q 1250 -91 836 529 
Q 422 1150 422 2328 
Q 422 3509 836 4129 
Q 1250 4750 2034 4750 
z
" transform="scale(0.015625)"/>
       </defs>
       <use xlink:href="#DejaVuSans-30"/>
      </g>
     </g>
    </g>
    <g id="xtick_2">
     <g id="line2d_3">
      <path d="M 114.669777 307.584 
L 114.669777 41.472 
" clip-path="url(#p85ff8e2628)" style="fill: none; stroke: #b0b0b0; stroke-width: 0.8; stroke-linecap: square"/>
     </g>
     <g id="line2d_4">
      <g>
       <use xlink:href="#m73469627d8" x="114.669777" y="307.584" style="stroke: #000000; stroke-width: 0.8"/>
      </g>
     </g>
     <g id="text_2">
      <!-- 20 -->
      <g transform="translate(108.307277 322.182437)scale(0.1 -0.1)">
       <defs>
        <path id="DejaVuSans-32" d="M 1228 531 
L 3431 531 
L 3431 0 
L 469 0 
L 469 531 
Q 828 903 1448 1529 
Q 2069 2156 2228 2338 
Q 2531 2678 2651 2914 
Q 2772 3150 2772 3378 
Q 2772 3750 2511 3984 
Q 2250 4219 1831 4219 
Q 1534 4219 1204 4116 
Q 875 4013 500 3803 
L 500 4441 
Q 881 4594 1212 4672 
Q 1544 4750 1819 4750 
Q 2544 4750 2975 4387 
Q 3406 4025 3406 3419 
Q 3406 3131 3298 2873 
Q 3191 2616 2906 2266 
Q 2828 2175 2409 1742 
Q 1991 1309 1228 531 
z
" transform="scale(0.015625)"/>
       </defs>
       <use xlink:href="#DejaVuSans-32"/>
       <use xlink:href="#DejaVuSans-30" x="63.623047"/>
      </g>
     </g>
    </g>
    <g id="xtick_3">
     <g id="line2d_5">
      <path d="M 155.506827 307.584 
L 155.506827 41.472 
" clip-path="url(#p85ff8e2628)" style="fill: none; stroke: #b0b0b0; stroke-width: 0.8; stroke-linecap: square"/>
     </g>
     <g id="line2d_6">
      <g>
       <use xlink:href="#m73469627d8" x="155.506827" y="307.584" style="stroke: #000000; stroke-width: 0.8"/>
      </g>
     </g>
     <g id="text_3">
      <!-- 40 -->
      <g transform="translate(149.144327 322.182437)scale(0.1 -0.1)">
       <defs>
        <path id="DejaVuSans-34" d="M 2419 4116 
L 825 1625 
L 2419 1625 
L 2419 4116 
z
M 2253 4666 
L 3047 4666 
L 3047 1625 
L 3713 1625 
L 3713 1100 
L 3047 1100 
L 3047 0 
L 2419 0 
L 2419 1100 
L 313 1100 
L 313 1709 
L 2253 4666 
z
" transform="scale(0.015625)"/>
       </defs>
       <use xlink:href="#DejaVuSans-34"/>
       <use xlink:href="#DejaVuSans-30" x="63.623047"/>
      </g>
     </g>
    </g>
    <g id="xtick_4">
     <g id="line2d_7">
      <path d="M 196.343877 307.584 
L 196.343877 41.472 
" clip-path="url(#p85ff8e2628)" style="fill: none; stroke: #b0b0b0; stroke-width: 0.8; stroke-linecap: square"/>
     </g>
     <g id="line2d_8">
      <g>
       <use xlink:href="#m73469627d8" x="196.343877" y="307.584" style="stroke: #000000; stroke-width: 0.8"/>
      </g>
     </g>
     <g id="text_4">
      <!-- 60 -->
      <g transform="translate(189.981377 322.182437)scale(0.1 -0.1)">
       <defs>
        <path id="DejaVuSans-36" d="M 2113 2584 
Q 1688 2584 1439 2293 
Q 1191 2003 1191 1497 
Q 1191 994 1439 701 
Q 1688 409 2113 409 
Q 2538 409 2786 701 
Q 3034 994 3034 1497 
Q 3034 2003 2786 2293 
Q 2538 2584 2113 2584 
z
M 3366 4563 
L 3366 3988 
Q 3128 4100 2886 4159 
Q 2644 4219 2406 4219 
Q 1781 4219 1451 3797 
Q 1122 3375 1075 2522 
Q 1259 2794 1537 2939 
Q 1816 3084 2150 3084 
Q 2853 3084 3261 2657 
Q 3669 2231 3669 1497 
Q 3669 778 3244 343 
Q 2819 -91 2113 -91 
Q 1303 -91 875 529 
Q 447 1150 447 2328 
Q 447 3434 972 4092 
Q 1497 4750 2381 4750 
Q 2619 4750 2861 4703 
Q 3103 4656 3366 4563 
z
" transform="scale(0.015625)"/>
       </defs>
       <use xlink:href="#DejaVuSans-36"/>
       <use xlink:href="#DejaVuSans-30" x="63.623047"/>
      </g>
     </g>
    </g>
    <g id="xtick_5">
     <g id="line2d_9">
      <path d="M 237.180926 307.584 
L 237.180926 41.472 
" clip-path="url(#p85ff8e2628)" style="fill: none; stroke: #b0b0b0; stroke-width: 0.8; stroke-linecap: square"/>
     </g>
     <g id="line2d_10">
      <g>
       <use xlink:href="#m73469627d8" x="237.180926" y="307.584" style="stroke: #000000; stroke-width: 0.8"/>
      </g>
     </g>
     <g id="text_5">
      <!-- 80 -->
      <g transform="translate(230.818426 322.182437)scale(0.1 -0.1)">
       <defs>
        <path id="DejaVuSans-38" d="M 2034 2216 
Q 1584 2216 1326 1975 
Q 1069 1734 1069 1313 
Q 1069 891 1326 650 
Q 1584 409 2034 409 
Q 2484 409 2743 651 
Q 3003 894 3003 1313 
Q 3003 1734 2745 1975 
Q 2488 2216 2034 2216 
z
M 1403 2484 
Q 997 2584 770 2862 
Q 544 3141 544 3541 
Q 544 4100 942 4425 
Q 1341 4750 2034 4750 
Q 2731 4750 3128 4425 
Q 3525 4100 3525 3541 
Q 3525 3141 3298 2862 
Q 3072 2584 2669 2484 
Q 3125 2378 3379 2068 
Q 3634 1759 3634 1313 
Q 3634 634 3220 271 
Q 2806 -91 2034 -91 
Q 1263 -91 848 271 
Q 434 634 434 1313 
Q 434 1759 690 2068 
Q 947 2378 1403 2484 
z
M 1172 3481 
Q 1172 3119 1398 2916 
Q 1625 2713 2034 2713 
Q 2441 2713 2670 2916 
Q 2900 3119 2900 3481 
Q 2900 3844 2670 4047 
Q 2441 4250 2034 4250 
Q 1625 4250 1398 4047 
Q 1172 3844 1172 3481 
z
" transform="scale(0.015625)"/>
       </defs>
       <use xlink:href="#DejaVuSans-38"/>
       <use xlink:href="#DejaVuSans-30" x="63.623047"/>
      </g>
     </g>
    </g>
    <g id="xtick_6">
     <g id="line2d_11">
      <path d="M 278.017976 307.584 
L 278.017976 41.472 
" clip-path="url(#p85ff8e2628)" style="fill: none; stroke: #b0b0b0; stroke-width: 0.8; stroke-linecap: square"/>
     </g>
     <g id="line2d_12">
      <g>
       <use xlink:href="#m73469627d8" x="278.017976" y="307.584" style="stroke: #000000; stroke-width: 0.8"/>
      </g>
     </g>
     <g id="text_6">
      <!-- 100 -->
      <g transform="translate(268.474226 322.182437)scale(0.1 -0.1)">
       <defs>
        <path id="DejaVuSans-31" d="M 794 531 
L 1825 531 
L 1825 4091 
L 703 3866 
L 703 4441 
L 1819 4666 
L 2450 4666 
L 2450 531 
L 3481 531 
L 3481 0 
L 794 0 
L 794 531 
z
" transform="scale(0.015625)"/>
       </defs>
       <use xlink:href="#DejaVuSans-31"/>
       <use xlink:href="#DejaVuSans-30" x="63.623047"/>
       <use xlink:href="#DejaVuSans-30" x="127.246094"/>
      </g>
     </g>
    </g>
    <g id="xtick_7">
     <g id="line2d_13">
      <path d="M 318.855026 307.584 
L 318.855026 41.472 
" clip-path="url(#p85ff8e2628)" style="fill: none; stroke: #b0b0b0; stroke-width: 0.8; stroke-linecap: square"/>
     </g>
     <g id="line2d_14">
      <g>
       <use xlink:href="#m73469627d8" x="318.855026" y="307.584" style="stroke: #000000; stroke-width: 0.8"/>
      </g>
     </g>
     <g id="text_7">
      <!-- 120 -->
      <g transform="translate(309.311276 322.182437)scale(0.1 -0.1)">
       <use xlink:href="#DejaVuSans-31"/>
       <use xlink:href="#DejaVuSans-32" x="63.623047"/>
       <use xlink:href="#DejaVuSans-30" x="127.246094"/>
      </g>
     </g>
    </g>
    <g id="xtick_8">
     <g id="line2d_15">
      <path d="M 359.692075 307.584 
L 359.692075 41.472 
" clip-path="url(#p85ff8e2628)" style="fill: none; stroke: #b0b0b0; stroke-width: 0.8; stroke-linecap: square"/>
     </g>
     <g id="line2d_16">
      <g>
       <use xlink:href="#m73469627d8" x="359.692075" y="307.584" style="stroke: #000000; stroke-width: 0.8"/>
      </g>
     </g>
     <g id="text_8">
      <!-- 140 -->
      <g transform="translate(350.148325 322.182437)scale(0.1 -0.1)">
       <use xlink:href="#DejaVuSans-31"/>
       <use xlink:href="#DejaVuSans-34" x="63.623047"/>
       <use xlink:href="#DejaVuSans-30" x="127.246094"/>
      </g>
     </g>
    </g>
    <g id="xtick_9">
     <g id="line2d_17">
      <path d="M 400.529125 307.584 
L 400.529125 41.472 
" clip-path="url(#p85ff8e2628)" style="fill: none; stroke: #b0b0b0; stroke-width: 0.8; stroke-linecap: square"/>
     </g>
     <g id="line2d_18">
      <g>
       <use xlink:href="#m73469627d8" x="400.529125" y="307.584" style="stroke: #000000; stroke-width: 0.8"/>
      </g>
     </g>
     <g id="text_9">
      <!-- 160 -->
      <g transform="translate(390.985375 322.182437)scale(0.1 -0.1)">
       <use xlink:href="#DejaVuSans-31"/>
       <use xlink:href="#DejaVuSans-36" x="63.623047"/>
       <use xlink:href="#DejaVuSans-30" x="127.246094"/>
      </g>
     </g>
    </g>
    <g id="text_10">
     <!-- Generations -->
     <g transform="translate(205.662344 335.860562)scale(0.1 -0.1)">
      <defs>
       <path id="DejaVuSans-47" d="M 3809 666 
L 3809 1919 
L 2778 1919 
L 2778 2438 
L 4434 2438 
L 4434 434 
Q 4069 175 3628 42 
Q 3188 -91 2688 -91 
Q 1594 -91 976 548 
Q 359 1188 359 2328 
Q 359 3472 976 4111 
Q 1594 4750 2688 4750 
Q 3144 4750 3555 4637 
Q 3966 4525 4313 4306 
L 4313 3634 
Q 3963 3931 3569 4081 
Q 3175 4231 2741 4231 
Q 1884 4231 1454 3753 
Q 1025 3275 1025 2328 
Q 1025 1384 1454 906 
Q 1884 428 2741 428 
Q 3075 428 3337 486 
Q 3600 544 3809 666 
z
" transform="scale(0.015625)"/>
       <path id="DejaVuSans-65" d="M 3597 1894 
L 3597 1613 
L 953 1613 
Q 991 1019 1311 708 
Q 1631 397 2203 397 
Q 2534 397 2845 478 
Q 3156 559 3463 722 
L 3463 178 
Q 3153 47 2828 -22 
Q 2503 -91 2169 -91 
Q 1331 -91 842 396 
Q 353 884 353 1716 
Q 353 2575 817 3079 
Q 1281 3584 2069 3584 
Q 2775 3584 3186 3129 
Q 3597 2675 3597 1894 
z
M 3022 2063 
Q 3016 2534 2758 2815 
Q 2500 3097 2075 3097 
Q 1594 3097 1305 2825 
Q 1016 2553 972 2059 
L 3022 2063 
z
" transform="scale(0.015625)"/>
       <path id="DejaVuSans-6e" d="M 3513 2113 
L 3513 0 
L 2938 0 
L 2938 2094 
Q 2938 2591 2744 2837 
Q 2550 3084 2163 3084 
Q 1697 3084 1428 2787 
Q 1159 2491 1159 1978 
L 1159 0 
L 581 0 
L 581 3500 
L 1159 3500 
L 1159 2956 
Q 1366 3272 1645 3428 
Q 1925 3584 2291 3584 
Q 2894 3584 3203 3211 
Q 3513 2838 3513 2113 
z
" transform="scale(0.015625)"/>
       <path id="DejaVuSans-72" d="M 2631 2963 
Q 2534 3019 2420 3045 
Q 2306 3072 2169 3072 
Q 1681 3072 1420 2755 
Q 1159 2438 1159 1844 
L 1159 0 
L 581 0 
L 581 3500 
L 1159 3500 
L 1159 2956 
Q 1341 3275 1631 3429 
Q 1922 3584 2338 3584 
Q 2397 3584 2469 3576 
Q 2541 3569 2628 3553 
L 2631 2963 
z
" transform="scale(0.015625)"/>
       <path id="DejaVuSans-61" d="M 2194 1759 
Q 1497 1759 1228 1600 
Q 959 1441 959 1056 
Q 959 750 1161 570 
Q 1363 391 1709 391 
Q 2188 391 2477 730 
Q 2766 1069 2766 1631 
L 2766 1759 
L 2194 1759 
z
M 3341 1997 
L 3341 0 
L 2766 0 
L 2766 531 
Q 2569 213 2275 61 
Q 1981 -91 1556 -91 
Q 1019 -91 701 211 
Q 384 513 384 1019 
Q 384 1609 779 1909 
Q 1175 2209 1959 2209 
L 2766 2209 
L 2766 2266 
Q 2766 2663 2505 2880 
Q 2244 3097 1772 3097 
Q 1472 3097 1187 3025 
Q 903 2953 641 2809 
L 641 3341 
Q 956 3463 1253 3523 
Q 1550 3584 1831 3584 
Q 2591 3584 2966 3190 
Q 3341 2797 3341 1997 
z
" transform="scale(0.015625)"/>
       <path id="DejaVuSans-74" d="M 1172 4494 
L 1172 3500 
L 2356 3500 
L 2356 3053 
L 1172 3053 
L 1172 1153 
Q 1172 725 1289 603 
Q 1406 481 1766 481 
L 2356 481 
L 2356 0 
L 1766 0 
Q 1100 0 847 248 
Q 594 497 594 1153 
L 594 3053 
L 172 3053 
L 172 3500 
L 594 3500 
L 594 4494 
L 1172 4494 
z
" transform="scale(0.015625)"/>
       <path id="DejaVuSans-69" d="M 603 3500 
L 1178 3500 
L 1178 0 
L 603 0 
L 603 3500 
z
M 603 4863 
L 1178 4863 
L 1178 4134 
L 603 4134 
L 603 4863 
z
" transform="scale(0.015625)"/>
       <path id="DejaVuSans-6f" d="M 1959 3097 
Q 1497 3097 1228 2736 
Q 959 2375 959 1747 
Q 959 1119 1226 758 
Q 1494 397 1959 397 
Q 2419 397 2687 759 
Q 2956 1122 2956 1747 
Q 2956 2369 2687 2733 
Q 2419 3097 1959 3097 
z
M 1959 3584 
Q 2709 3584 3137 3096 
Q 3566 2609 3566 1747 
Q 3566 888 3137 398 
Q 2709 -91 1959 -91 
Q 1206 -91 779 398 
Q 353 888 353 1747 
Q 353 2609 779 3096 
Q 1206 3584 1959 3584 
z
" transform="scale(0.015625)"/>
       <path id="DejaVuSans-73" d="M 2834 3397 
L 2834 2853 
Q 2591 2978 2328 3040 
Q 2066 3103 1784 3103 
Q 1356 3103 1142 2972 
Q 928 2841 928 2578 
Q 928 2378 1081 2264 
Q 1234 2150 1697 2047 
L 1894 2003 
Q 2506 1872 2764 1633 
Q 3022 1394 3022 966 
Q 3022 478 2636 193 
Q 2250 -91 1575 -91 
Q 1294 -91 989 -36 
Q 684 19 347 128 
L 347 722 
Q 666 556 975 473 
Q 1284 391 1588 391 
Q 1994 391 2212 530 
Q 2431 669 2431 922 
Q 2431 1156 2273 1281 
Q 2116 1406 1581 1522 
L 1381 1569 
Q 847 1681 609 1914 
Q 372 2147 372 2553 
Q 372 3047 722 3315 
Q 1072 3584 1716 3584 
Q 2034 3584 2315 3537 
Q 2597 3491 2834 3397 
z
" transform="scale(0.015625)"/>
      </defs>
      <use xlink:href="#DejaVuSans-47"/>
      <use xlink:href="#DejaVuSans-65" x="77.490234"/>
      <use xlink:href="#DejaVuSans-6e" x="139.013672"/>
      <use xlink:href="#DejaVuSans-65" x="202.392578"/>
      <use xlink:href="#DejaVuSans-72" x="263.916016"/>
      <use xlink:href="#DejaVuSans-61" x="305.029297"/>
      <use xlink:href="#DejaVuSans-74" x="366.308594"/>
      <use xlink:href="#DejaVuSans-69" x="405.517578"/>
      <use xlink:href="#DejaVuSans-6f" x="433.300781"/>
      <use xlink:href="#DejaVuSans-6e" x="494.482422"/>
      <use xlink:href="#DejaVuSans-73" x="557.861328"/>
     </g>
    </g>
   </g>
   <g id="matplotlib.axis_2">
    <g id="ytick_1">
     <g id="line2d_19">
      <path d="M 57.6 290.323795 
L 414.72 290.323795 
" clip-path="url(#p85ff8e2628)" style="fill: none; stroke: #b0b0b0; stroke-width: 0.8; stroke-linecap: square"/>
     </g>
     <g id="line2d_20">
      <defs>
       <path id="m56e07b4ed9" d="M 0 0 
L -3.5 0 
" style="stroke: #000000; stroke-width: 0.8"/>
      </defs>
      <g>
       <use xlink:href="#m56e07b4ed9" x="57.6" y="290.323795" style="stroke: #000000; stroke-width: 0.8"/>
      </g>
     </g>
     <g id="text_11">
      <!-- 0 -->
      <g transform="translate(44.2375 294.123013)scale(0.1 -0.1)">
       <use xlink:href="#DejaVuSans-30"/>
      </g>
     </g>
    </g>
    <g id="ytick_2">
     <g id="line2d_21">
      <path d="M 57.6 239.469072 
L 414.72 239.469072 
" clip-path="url(#p85ff8e2628)" style="fill: none; stroke: #b0b0b0; stroke-width: 0.8; stroke-linecap: square"/>
     </g>
     <g id="line2d_22">
      <g>
       <use xlink:href="#m56e07b4ed9" x="57.6" y="239.469072" style="stroke: #000000; stroke-width: 0.8"/>
      </g>
     </g>
     <g id="text_12">
      <!-- 20 -->
      <g transform="translate(37.875 243.268291)scale(0.1 -0.1)">
       <use xlink:href="#DejaVuSans-32"/>
       <use xlink:href="#DejaVuSans-30" x="63.623047"/>
      </g>
     </g>
    </g>
    <g id="ytick_3">
     <g id="line2d_23">
      <path d="M 57.6 188.61435 
L 414.72 188.61435 
" clip-path="url(#p85ff8e2628)" style="fill: none; stroke: #b0b0b0; stroke-width: 0.8; stroke-linecap: square"/>
     </g>
     <g id="line2d_24">
      <g>
       <use xlink:href="#m56e07b4ed9" x="57.6" y="188.61435" style="stroke: #000000; stroke-width: 0.8"/>
      </g>
     </g>
     <g id="text_13">
      <!-- 40 -->
      <g transform="translate(37.875 192.413569)scale(0.1 -0.1)">
       <use xlink:href="#DejaVuSans-34"/>
       <use xlink:href="#DejaVuSans-30" x="63.623047"/>
      </g>
     </g>
    </g>
    <g id="ytick_4">
     <g id="line2d_25">
      <path d="M 57.6 137.759628 
L 414.72 137.759628 
" clip-path="url(#p85ff8e2628)" style="fill: none; stroke: #b0b0b0; stroke-width: 0.8; stroke-linecap: square"/>
     </g>
     <g id="line2d_26">
      <g>
       <use xlink:href="#m56e07b4ed9" x="57.6" y="137.759628" style="stroke: #000000; stroke-width: 0.8"/>
      </g>
     </g>
     <g id="text_14">
      <!-- 60 -->
      <g transform="translate(37.875 141.558846)scale(0.1 -0.1)">
       <use xlink:href="#DejaVuSans-36"/>
       <use xlink:href="#DejaVuSans-30" x="63.623047"/>
      </g>
     </g>
    </g>
    <g id="ytick_5">
     <g id="line2d_27">
      <path d="M 57.6 86.904905 
L 414.72 86.904905 
" clip-path="url(#p85ff8e2628)" style="fill: none; stroke: #b0b0b0; stroke-width: 0.8; stroke-linecap: square"/>
     </g>
     <g id="line2d_28">
      <g>
       <use xlink:href="#m56e07b4ed9" x="57.6" y="86.904905" style="stroke: #000000; stroke-width: 0.8"/>
      </g>
     </g>
     <g id="text_15">
      <!-- 80 -->
      <g transform="translate(37.875 90.704124)scale(0.1 -0.1)">
       <use xlink:href="#DejaVuSans-38"/>
       <use xlink:href="#DejaVuSans-30" x="63.623047"/>
      </g>
     </g>
    </g>
    <g id="text_16">
     <!-- Fitness -->
     <g transform="translate(31.795312 191.845187)rotate(-90)scale(0.1 -0.1)">
      <defs>
       <path id="DejaVuSans-46" d="M 628 4666 
L 3309 4666 
L 3309 4134 
L 1259 4134 
L 1259 2759 
L 3109 2759 
L 3109 2228 
L 1259 2228 
L 1259 0 
L 628 0 
L 628 4666 
z
" transform="scale(0.015625)"/>
      </defs>
      <use xlink:href="#DejaVuSans-46"/>
      <use xlink:href="#DejaVuSans-69" x="50.269531"/>
      <use xlink:href="#DejaVuSans-74" x="78.052734"/>
      <use xlink:href="#DejaVuSans-6e" x="117.261719"/>
      <use xlink:href="#DejaVuSans-65" x="180.640625"/>
      <use xlink:href="#DejaVuSans-73" x="242.164062"/>
      <use xlink:href="#DejaVuSans-73" x="294.263672"/>
     </g>
    </g>
   </g>
   <g id="line2d_29">
    <path d="M 73.832727 263.482545 
L 75.87458 265.444476 
L 77.916432 264.23036 
L 79.958285 262.879187 
L 82.000137 266.050695 
L 84.04199 262.531922 
L 86.083842 267.493736 
L 88.125695 265.607807 
L 90.167547 262.89981 
L 92.2094 262.617825 
L 94.251252 260.425698 
L 96.293105 264.841112 
L 98.334957 261.183613 
L 100.37681 258.845288 
L 102.418662 263.323486 
L 104.460515 268.768839 
L 106.502367 263.11419 
L 108.54422 259.126827 
L 110.586072 266.552468 
L 112.627925 265.53595 
L 114.669777 266.382021 
L 116.71163 261.487072 
L 118.753482 266.376983 
L 120.795334 263.313334 
L 122.837187 259.776611 
L 124.879039 263.734622 
L 126.920892 263.587428 
L 128.962744 261.145161 
L 131.004597 259.920499 
L 133.046449 260.642269 
L 135.088302 262.4024 
L 137.130154 265.963047 
L 139.172007 266.106887 
L 141.213859 267.43429 
L 143.255712 265.169349 
L 145.297564 266.096889 
L 147.339417 261.945534 
L 149.381269 262.608891 
L 151.423122 264.910826 
L 153.464974 263.932414 
L 155.506827 263.426011 
L 157.548679 260.984882 
L 159.590532 265.137351 
L 161.632384 260.831141 
L 163.674237 259.859818 
L 165.716089 261.940169 
L 167.757942 265.439263 
L 169.799794 262.319749 
L 171.841647 262.620296 
L 173.883499 259.855225 
L 175.925352 263.47472 
L 177.967204 260.910135 
L 180.009057 265.817571 
L 182.050909 264.977068 
L 184.092762 264.678009 
L 186.134614 262.766483 
L 188.176467 262.391952 
L 190.218319 259.992387 
L 192.260172 263.257532 
L 194.302024 263.300699 
L 196.343877 258.970782 
L 198.385729 259.224105 
L 200.427581 260.407212 
L 202.469434 262.396653 
L 204.511286 264.066484 
L 206.553139 262.834214 
L 208.594991 261.885492 
L 210.636844 264.510793 
L 214.720549 259.6261 
L 216.762401 258.931433 
L 218.804254 263.478797 
L 220.846106 261.23421 
L 222.887959 256.422373 
L 224.929811 265.017186 
L 226.971664 261.95185 
L 229.013516 259.869398 
L 231.055369 256.415119 
L 233.097221 259.828065 
L 235.139074 260.559544 
L 237.180926 256.51412 
L 239.222779 258.706673 
L 241.264631 257.945014 
L 243.306484 261.724315 
L 245.348336 264.597898 
L 247.390189 259.841727 
L 251.473894 258.49503 
L 253.515746 262.898926 
L 255.557599 261.028829 
L 257.599451 259.578175 
L 259.641304 261.183691 
L 261.683156 260.463874 
L 263.725009 260.569428 
L 265.766861 260.231769 
L 267.808714 257.746961 
L 269.850566 262.074495 
L 271.892419 262.454211 
L 273.934271 258.338795 
L 275.976123 260.517271 
L 278.017976 258.105773 
L 280.059828 258.009712 
L 282.101681 256.408908 
L 284.143533 254.584892 
L 286.185386 254.981036 
L 288.227238 256.313881 
L 290.269091 257.419052 
L 292.310943 258.366167 
L 294.352796 257.471719 
L 296.394648 262.498406 
L 298.436501 259.971315 
L 300.478353 255.899771 
L 302.520206 257.758692 
L 304.562058 260.245922 
L 306.603911 258.057724 
L 308.645763 262.000164 
L 310.687616 260.285922 
L 312.729468 261.282562 
L 314.771321 258.112749 
L 318.855026 261.737027 
L 320.896878 259.752609 
L 322.938731 258.792463 
L 324.980583 263.746445 
L 327.022436 256.683111 
L 329.064288 259.654837 
L 331.106141 262.82442 
L 333.147993 258.111502 
L 335.189846 259.582691 
L 339.273551 259.837292 
L 341.315403 262.327634 
L 343.357256 256.430294 
L 345.399108 255.911744 
L 347.440961 262.760228 
L 349.482813 256.044402 
L 351.524666 255.457842 
L 353.566518 259.210921 
L 355.60837 259.331613 
L 357.650223 256.380792 
L 359.692075 255.399961 
L 361.733928 257.052275 
L 363.77578 254.325991 
L 365.817633 255.17984 
L 367.859485 257.074666 
L 369.901338 257.631045 
L 371.94319 254.437009 
L 373.985043 259.757853 
L 376.026895 256.743474 
L 378.068748 256.27378 
L 380.1106 259.317855 
L 382.152453 261.104506 
L 384.194305 264.25492 
L 386.236158 257.064557 
L 388.27801 260.308233 
L 390.319863 260.01889 
L 392.361715 257.690123 
L 394.403568 256.87484 
L 396.44542 255.633608 
L 398.487273 255.540112 
L 398.487273 255.540112 
" clip-path="url(#p85ff8e2628)" style="fill: none; stroke: #0000ff; stroke-width: 1.5; stroke-linecap: square"/>
   </g>
   <g id="line2d_30">
    <path d="M 73.832727 289.695321 
L 75.87458 283.82108 
L 77.916432 287.745205 
L 79.958285 284.738782 
L 82.000137 288.928631 
L 84.04199 283.886133 
L 86.083842 284.625719 
L 88.125695 284.280304 
L 90.167547 282.789957 
L 92.2094 280.689406 
L 94.251252 280.674686 
L 96.293105 284.883146 
L 98.334957 286.94477 
L 100.37681 284.695247 
L 102.418662 284.108786 
L 104.460515 290.353439 
L 106.502367 284.220161 
L 108.54422 281.475275 
L 110.586072 287.966894 
L 112.627925 284.41449 
L 114.669777 285.268377 
L 116.71163 283.810071 
L 118.753482 285.58035 
L 120.795334 278.605696 
L 122.837187 278.535002 
L 124.879039 288.330197 
L 126.920892 286.379392 
L 128.962744 290.325929 
L 131.004597 285.548854 
L 133.046449 284.857291 
L 135.088302 292.673566 
L 137.130154 288.789196 
L 139.172007 287.918867 
L 141.213859 286.158434 
L 143.255712 285.355518 
L 145.297564 284.368652 
L 147.339417 281.616732 
L 149.381269 288.552575 
L 151.423122 285.716297 
L 153.464974 295.488 
L 155.506827 287.789705 
L 157.548679 286.64174 
L 159.590532 283.455453 
L 161.632384 286.012529 
L 163.674237 281.279657 
L 165.716089 285.513271 
L 167.757942 287.776492 
L 169.799794 285.112782 
L 171.841647 287.179537 
L 173.883499 289.727334 
L 175.925352 285.742425 
L 177.967204 287.477175 
L 180.009057 285.906105 
L 182.050909 285.534566 
L 184.092762 289.757311 
L 186.134614 288.233834 
L 188.176467 286.902115 
L 190.218319 284.943551 
L 192.260172 286.274171 
L 194.302024 287.316526 
L 196.343877 286.535321 
L 198.385729 287.399686 
L 200.427581 286.771092 
L 202.469434 288.660699 
L 204.511286 284.32143 
L 206.553139 286.483581 
L 208.594991 284.192424 
L 210.636844 288.876561 
L 212.678696 287.60069 
L 214.720549 284.986992 
L 216.762401 288.813815 
L 218.804254 287.022228 
L 220.846106 288.481821 
L 222.887959 285.932559 
L 224.929811 287.223595 
L 226.971664 284.274392 
L 229.013516 286.30195 
L 231.055369 280.218704 
L 233.097221 286.605981 
L 235.139074 282.414047 
L 237.180926 283.39163 
L 239.222779 287.459194 
L 241.264631 283.904077 
L 243.306484 287.181642 
L 245.348336 286.175408 
L 247.390189 287.163128 
L 249.432041 283.572586 
L 251.473894 288.983107 
L 253.515746 290.44139 
L 255.557599 287.409898 
L 257.599451 287.70781 
L 259.641304 282.226188 
L 261.683156 284.364261 
L 263.725009 282.706327 
L 265.766861 280.23009 
L 267.808714 281.684065 
L 269.850566 287.42653 
L 271.892419 284.626094 
L 273.934271 282.445791 
L 275.976123 283.567702 
L 278.017976 281.586083 
L 280.059828 279.263844 
L 282.101681 284.168069 
L 284.143533 281.101467 
L 286.185386 279.145185 
L 288.227238 281.271267 
L 290.269091 280.282084 
L 292.310943 282.472874 
L 294.352796 282.362344 
L 296.394648 287.763278 
L 298.436501 281.963532 
L 300.478353 287.320296 
L 302.520206 282.483373 
L 304.562058 282.61945 
L 306.603911 282.098371 
L 308.645763 284.794061 
L 310.687616 286.080879 
L 312.729468 283.797289 
L 314.771321 282.168182 
L 316.813173 283.196904 
L 318.855026 287.166738 
L 320.896878 287.573252 
L 322.938731 288.273614 
L 324.980583 286.035277 
L 327.022436 282.09076 
L 329.064288 285.976083 
L 331.106141 283.454075 
L 333.147993 278.946721 
L 335.189846 284.707782 
L 337.231698 281.75052 
L 339.273551 282.792554 
L 341.315403 285.005261 
L 343.357256 280.612337 
L 347.440961 286.4513 
L 349.482813 280.430271 
L 351.524666 282.675551 
L 353.566518 287.804456 
L 355.60837 283.842986 
L 357.650223 281.330267 
L 359.692075 280.29939 
L 361.733928 282.482488 
L 363.77578 281.609685 
L 365.817633 282.638262 
L 367.859485 283.370389 
L 369.901338 281.938521 
L 371.94319 279.456615 
L 373.985043 281.454654 
L 376.026895 285.033311 
L 378.068748 279.939094 
L 380.1106 283.132024 
L 382.152453 283.423948 
L 384.194305 288.325711 
L 386.236158 283.912324 
L 388.27801 284.947313 
L 390.319863 280.006179 
L 392.361715 281.52491 
L 394.403568 281.350887 
L 396.44542 280.324987 
L 398.487273 280.001777 
L 398.487273 280.001777 
" clip-path="url(#p85ff8e2628)" style="fill: none; stroke-dasharray: 9.6,2.4,1.5,2.4; stroke-dashoffset: 0; stroke: #008000; stroke-width: 1.5"/>
   </g>
   <g id="line2d_31">
    <path d="M 73.832727 237.269769 
L 75.87458 247.067872 
L 77.916432 240.715516 
L 79.958285 241.019591 
L 82.000137 243.172759 
L 84.04199 241.17771 
L 86.083842 250.361753 
L 88.125695 246.935309 
L 90.167547 243.009662 
L 92.2094 244.546244 
L 94.251252 240.17671 
L 96.293105 244.799078 
L 98.334957 235.422455 
L 100.37681 232.995329 
L 102.418662 242.538186 
L 104.460515 247.18424 
L 108.54422 236.77838 
L 110.586072 245.138041 
L 112.627925 246.65741 
L 114.669777 247.495666 
L 116.71163 239.164073 
L 118.753482 247.173617 
L 120.795334 248.020971 
L 122.837187 241.018219 
L 124.879039 239.139048 
L 126.920892 240.795464 
L 128.962744 231.964393 
L 131.004597 234.292145 
L 133.046449 236.427247 
L 135.088302 232.131235 
L 137.130154 243.136898 
L 139.172007 244.294907 
L 141.213859 248.710147 
L 143.255712 244.98318 
L 145.297564 247.825127 
L 149.381269 236.665207 
L 151.423122 244.105355 
L 153.464974 232.376829 
L 155.506827 239.062318 
L 157.548679 235.328024 
L 159.590532 246.81925 
L 161.632384 235.649754 
L 163.674237 238.439979 
L 165.716089 238.367067 
L 167.757942 243.102034 
L 169.799794 239.526716 
L 171.841647 238.061054 
L 173.883499 229.983117 
L 175.925352 241.207014 
L 177.967204 234.343095 
L 180.009057 245.729037 
L 182.050909 244.41957 
L 184.092762 239.598706 
L 186.134614 237.299132 
L 188.176467 237.88179 
L 190.218319 235.041223 
L 192.260172 240.240894 
L 194.302024 239.284873 
L 196.343877 231.406242 
L 198.385729 231.048524 
L 200.427581 234.043332 
L 202.469434 236.132607 
L 204.511286 243.811539 
L 206.553139 239.184848 
L 208.594991 239.578561 
L 210.636844 240.145026 
L 212.678696 236.463525 
L 214.720549 234.265207 
L 216.762401 229.04905 
L 218.804254 239.935366 
L 220.846106 233.986599 
L 222.887959 226.912186 
L 224.929811 242.810777 
L 226.971664 239.629308 
L 229.013516 233.436845 
L 231.055369 232.611534 
L 233.097221 233.050149 
L 235.139074 238.70504 
L 237.180926 229.636609 
L 239.222779 229.954152 
L 241.264631 231.985952 
L 243.306484 236.266988 
L 245.348336 243.020387 
L 247.390189 232.520325 
L 249.432041 234.704774 
L 251.473894 228.006952 
L 253.515746 235.356462 
L 255.557599 234.647761 
L 257.599451 231.44854 
L 259.641304 240.141194 
L 261.683156 236.563486 
L 265.766861 240.233447 
L 267.808714 233.809856 
L 269.850566 236.722461 
L 271.892419 240.282327 
L 273.934271 234.231798 
L 275.976123 237.46684 
L 278.017976 234.625462 
L 280.059828 236.755581 
L 282.101681 228.649748 
L 284.143533 228.068316 
L 286.185386 230.816887 
L 288.227238 231.356495 
L 290.269091 234.556021 
L 292.310943 234.259461 
L 294.352796 232.581094 
L 296.394648 237.233534 
L 298.436501 237.979098 
L 300.478353 224.479245 
L 302.520206 233.034012 
L 304.562058 237.872395 
L 306.603911 234.017076 
L 308.645763 239.206266 
L 310.687616 234.490965 
L 312.729468 238.767836 
L 314.771321 234.057316 
L 316.813173 236.75637 
L 318.855026 236.307315 
L 320.896878 231.931966 
L 322.938731 229.311311 
L 324.980583 241.457613 
L 327.022436 231.275463 
L 329.064288 233.333591 
L 331.106141 242.194765 
L 333.147993 237.276283 
L 335.189846 234.457599 
L 337.231698 237.605714 
L 339.273551 236.882031 
L 341.315403 239.650006 
L 343.357256 232.248252 
L 345.399108 228.278969 
L 347.440961 239.069155 
L 349.482813 231.658533 
L 351.524666 228.240133 
L 353.566518 230.617386 
L 355.60837 234.820239 
L 357.650223 231.431318 
L 359.692075 230.500533 
L 361.733928 231.622062 
L 363.77578 227.042298 
L 365.817633 227.721417 
L 367.859485 230.778943 
L 369.901338 233.323569 
L 371.94319 229.417404 
L 373.985043 238.061052 
L 376.026895 228.453638 
L 378.068748 232.608466 
L 380.1106 235.503686 
L 382.152453 238.785064 
L 384.194305 240.184128 
L 386.236158 230.21679 
L 388.27801 235.669153 
L 390.319863 240.0316 
L 392.361715 233.855336 
L 396.44542 230.942229 
L 398.487273 231.078448 
L 398.487273 231.078448 
" clip-path="url(#p85ff8e2628)" style="fill: none; stroke-dasharray: 9.6,2.4,1.5,2.4; stroke-dashoffset: 0; stroke: #008000; stroke-width: 1.5"/>
   </g>
   <g id="line2d_32">
    <path d="M 73.832727 121.70372 
L 75.87458 206.368747 
L 77.916432 156.922608 
L 79.958285 140.006865 
L 82.000137 162.921222 
L 84.04199 174.334862 
L 86.083842 206.264302 
L 88.125695 149.097772 
L 90.167547 164.97889 
L 92.2094 194.443383 
L 94.251252 185.184701 
L 96.293105 162.912673 
L 98.334957 85.230452 
L 100.37681 152.849964 
L 102.418662 174.605387 
L 104.460515 155.166539 
L 106.502367 176.43791 
L 108.54422 148.825844 
L 110.586072 148.462963 
L 112.627925 194.044636 
L 114.669777 186.438177 
L 116.71163 114.014813 
L 118.753482 166.02933 
L 120.795334 197.757894 
L 122.837187 194.468392 
L 124.879039 117.151185 
L 126.920892 157.173986 
L 128.962744 137.510193 
L 131.004597 162.443537 
L 133.046449 166.799454 
L 135.088302 65.238543 
L 137.130154 138.166013 
L 139.172007 191.746339 
L 141.213859 178.001042 
L 143.255712 177.432858 
L 145.297564 202.682329 
L 147.339417 172.116864 
L 149.381269 116.271944 
L 151.423122 196.036904 
L 153.464974 53.568 
L 155.506827 108.008938 
L 157.548679 126.212664 
L 159.590532 190.632463 
L 161.632384 135.046776 
L 163.674237 176.133021 
L 165.716089 134.582507 
L 167.757942 146.470539 
L 169.799794 152.841652 
L 171.841647 149.480035 
L 173.883499 117.095081 
L 175.925352 178.449086 
L 177.967204 151.802569 
L 180.009057 194.753654 
L 182.050909 207.021515 
L 184.092762 176.812586 
L 186.134614 158.408334 
L 190.218319 181.789887 
L 192.260172 201.566684 
L 194.302024 147.148898 
L 196.343877 149.244666 
L 198.385729 132.617973 
L 200.427581 150.92349 
L 202.469434 134.63134 
L 204.511286 175.992604 
L 206.553139 181.262441 
L 208.594991 170.488631 
L 210.636844 174.098752 
L 212.678696 175.377238 
L 214.720549 128.68178 
L 216.762401 94.79724 
L 218.804254 156.170119 
L 220.846106 139.221521 
L 222.887959 155.114569 
L 224.929811 132.929128 
L 226.971664 196.329185 
L 229.013516 137.207958 
L 231.055369 156.692978 
L 233.097221 99.436838 
L 235.139074 162.649238 
L 237.180926 154.445396 
L 239.222779 53.657462 
L 241.264631 169.713226 
L 243.306484 119.756198 
L 245.348336 162.429895 
L 247.390189 120.798888 
L 249.432041 144.192508 
L 251.473894 113.566618 
L 253.515746 128.678207 
L 255.557599 142.921359 
L 257.599451 129.935172 
L 259.641304 201.237455 
L 261.683156 129.938355 
L 263.725009 152.847631 
L 265.766861 184.01055 
L 267.808714 170.919923 
L 269.850566 154.020603 
L 271.892419 166.313507 
L 273.934271 133.646447 
L 275.976123 97.884484 
L 278.017976 146.980091 
L 280.059828 184.938264 
L 282.101681 147.914013 
L 284.143533 182.447539 
L 286.185386 179.274627 
L 288.227238 161.675218 
L 290.269091 186.745252 
L 292.310943 143.31561 
L 294.352796 177.434973 
L 296.394648 137.263111 
L 298.436501 169.297382 
L 300.478353 54.050821 
L 302.520206 149.318969 
L 304.562058 158.904813 
L 306.603911 167.75526 
L 308.645763 131.498176 
L 310.687616 131.348289 
L 312.729468 183.449668 
L 314.771321 149.848693 
L 316.813173 175.997887 
L 318.855026 169.579787 
L 320.896878 181.072439 
L 322.938731 99.508399 
L 324.980583 196.297897 
L 327.022436 146.766225 
L 329.064288 155.482869 
L 331.106141 180.120429 
L 333.147993 191.639623 
L 335.189846 150.837918 
L 337.231698 169.403573 
L 339.273551 195.094006 
L 341.315403 156.612337 
L 343.357256 194.067945 
L 345.399108 149.157861 
L 347.440961 182.181394 
L 349.482813 157.606526 
L 351.524666 153.594406 
L 353.566518 171.534608 
L 355.60837 180.17463 
L 357.650223 172.182829 
L 359.692075 118.953889 
L 361.733928 158.665496 
L 363.77578 148.851389 
L 365.817633 144.941902 
L 367.859485 130.094299 
L 369.901338 166.475513 
L 371.94319 147.23711 
L 373.985043 186.740089 
L 376.026895 87.51554 
L 378.068748 146.791064 
L 380.1106 196.773858 
L 382.152453 174.451982 
L 384.194305 201.572761 
L 386.236158 163.866549 
L 388.27801 172.627088 
L 390.319863 215.558434 
L 392.361715 172.742179 
L 394.403568 146.616788 
L 396.44542 149.146291 
L 398.487273 161.520012 
L 398.487273 161.520012 
" clip-path="url(#p85ff8e2628)" style="fill: none; stroke: #ff0000; stroke-width: 1.5; stroke-linecap: square"/>
   </g>
   <g id="patch_3">
    <path d="M 57.6 307.584 
L 57.6 41.472 
" style="fill: none; stroke: #000000; stroke-width: 0.8; stroke-linejoin: miter; stroke-linecap: square"/>
   </g>
   <g id="patch_4">
    <path d="M 414.72 307.584 
L 414.72 41.472 
" style="fill: none; stroke: #000000; stroke-width: 0.8; stroke-linejoin: miter; stroke-linecap: square"/>
   </g>
   <g id="patch_5">
    <path d="M 57.6 307.584 
L 414.72 307.584 
" style="fill: none; stroke: #000000; stroke-width: 0.8; stroke-linejoin: miter; stroke-linecap: square"/>
   </g>
   <g id="patch_6">
    <path d="M 57.6 41.472 
L 414.72 41.472 
" style="fill: none; stroke: #000000; stroke-width: 0.8; stroke-linejoin: miter; stroke-linecap: square"/>
   </g>
   <g id="text_17">
    <!-- Population's average and best fitness -->
    <g transform="translate(123.529687 35.472)scale(0.12 -0.12)">
     <defs>
      <path id="DejaVuSans-50" d="M 1259 4147 
L 1259 2394 
L 2053 2394 
Q 2494 2394 2734 2622 
Q 2975 2850 2975 3272 
Q 2975 3691 2734 3919 
Q 2494 4147 2053 4147 
L 1259 4147 
z
M 628 4666 
L 2053 4666 
Q 2838 4666 3239 4311 
Q 3641 3956 3641 3272 
Q 3641 2581 3239 2228 
Q 2838 1875 2053 1875 
L 1259 1875 
L 1259 0 
L 628 0 
L 628 4666 
z
" transform="scale(0.015625)"/>
      <path id="DejaVuSans-70" d="M 1159 525 
L 1159 -1331 
L 581 -1331 
L 581 3500 
L 1159 3500 
L 1159 2969 
Q 1341 3281 1617 3432 
Q 1894 3584 2278 3584 
Q 2916 3584 3314 3078 
Q 3713 2572 3713 1747 
Q 3713 922 3314 415 
Q 2916 -91 2278 -91 
Q 1894 -91 1617 61 
Q 1341 213 1159 525 
z
M 3116 1747 
Q 3116 2381 2855 2742 
Q 2594 3103 2138 3103 
Q 1681 3103 1420 2742 
Q 1159 2381 1159 1747 
Q 1159 1113 1420 752 
Q 1681 391 2138 391 
Q 2594 391 2855 752 
Q 3116 1113 3116 1747 
z
" transform="scale(0.015625)"/>
      <path id="DejaVuSans-75" d="M 544 1381 
L 544 3500 
L 1119 3500 
L 1119 1403 
Q 1119 906 1312 657 
Q 1506 409 1894 409 
Q 2359 409 2629 706 
Q 2900 1003 2900 1516 
L 2900 3500 
L 3475 3500 
L 3475 0 
L 2900 0 
L 2900 538 
Q 2691 219 2414 64 
Q 2138 -91 1772 -91 
Q 1169 -91 856 284 
Q 544 659 544 1381 
z
M 1991 3584 
L 1991 3584 
z
" transform="scale(0.015625)"/>
      <path id="DejaVuSans-6c" d="M 603 4863 
L 1178 4863 
L 1178 0 
L 603 0 
L 603 4863 
z
" transform="scale(0.015625)"/>
      <path id="DejaVuSans-27" d="M 1147 4666 
L 1147 2931 
L 616 2931 
L 616 4666 
L 1147 4666 
z
" transform="scale(0.015625)"/>
      <path id="DejaVuSans-20" transform="scale(0.015625)"/>
      <path id="DejaVuSans-76" d="M 191 3500 
L 800 3500 
L 1894 563 
L 2988 3500 
L 3597 3500 
L 2284 0 
L 1503 0 
L 191 3500 
z
" transform="scale(0.015625)"/>
      <path id="DejaVuSans-67" d="M 2906 1791 
Q 2906 2416 2648 2759 
Q 2391 3103 1925 3103 
Q 1463 3103 1205 2759 
Q 947 2416 947 1791 
Q 947 1169 1205 825 
Q 1463 481 1925 481 
Q 2391 481 2648 825 
Q 2906 1169 2906 1791 
z
M 3481 434 
Q 3481 -459 3084 -895 
Q 2688 -1331 1869 -1331 
Q 1566 -1331 1297 -1286 
Q 1028 -1241 775 -1147 
L 775 -588 
Q 1028 -725 1275 -790 
Q 1522 -856 1778 -856 
Q 2344 -856 2625 -561 
Q 2906 -266 2906 331 
L 2906 616 
Q 2728 306 2450 153 
Q 2172 0 1784 0 
Q 1141 0 747 490 
Q 353 981 353 1791 
Q 353 2603 747 3093 
Q 1141 3584 1784 3584 
Q 2172 3584 2450 3431 
Q 2728 3278 2906 2969 
L 2906 3500 
L 3481 3500 
L 3481 434 
z
" transform="scale(0.015625)"/>
      <path id="DejaVuSans-64" d="M 2906 2969 
L 2906 4863 
L 3481 4863 
L 3481 0 
L 2906 0 
L 2906 525 
Q 2725 213 2448 61 
Q 2172 -91 1784 -91 
Q 1150 -91 751 415 
Q 353 922 353 1747 
Q 353 2572 751 3078 
Q 1150 3584 1784 3584 
Q 2172 3584 2448 3432 
Q 2725 3281 2906 2969 
z
M 947 1747 
Q 947 1113 1208 752 
Q 1469 391 1925 391 
Q 2381 391 2643 752 
Q 2906 1113 2906 1747 
Q 2906 2381 2643 2742 
Q 2381 3103 1925 3103 
Q 1469 3103 1208 2742 
Q 947 2381 947 1747 
z
" transform="scale(0.015625)"/>
      <path id="DejaVuSans-62" d="M 3116 1747 
Q 3116 2381 2855 2742 
Q 2594 3103 2138 3103 
Q 1681 3103 1420 2742 
Q 1159 2381 1159 1747 
Q 1159 1113 1420 752 
Q 1681 391 2138 391 
Q 2594 391 2855 752 
Q 3116 1113 3116 1747 
z
M 1159 2969 
Q 1341 3281 1617 3432 
Q 1894 3584 2278 3584 
Q 2916 3584 3314 3078 
Q 3713 2572 3713 1747 
Q 3713 922 3314 415 
Q 2916 -91 2278 -91 
Q 1894 -91 1617 61 
Q 1341 213 1159 525 
L 1159 0 
L 581 0 
L 581 4863 
L 1159 4863 
L 1159 2969 
z
" transform="scale(0.015625)"/>
      <path id="DejaVuSans-66" d="M 2375 4863 
L 2375 4384 
L 1825 4384 
Q 1516 4384 1395 4259 
Q 1275 4134 1275 3809 
L 1275 3500 
L 2222 3500 
L 2222 3053 
L 1275 3053 
L 1275 0 
L 697 0 
L 697 3053 
L 147 3053 
L 147 3500 
L 697 3500 
L 697 3744 
Q 697 4328 969 4595 
Q 1241 4863 1831 4863 
L 2375 4863 
z
" transform="scale(0.015625)"/>
     </defs>
     <use xlink:href="#DejaVuSans-50"/>
     <use xlink:href="#DejaVuSans-6f" x="56.677734"/>
     <use xlink:href="#DejaVuSans-70" x="117.859375"/>
     <use xlink:href="#DejaVuSans-75" x="181.335938"/>
     <use xlink:href="#DejaVuSans-6c" x="244.714844"/>
     <use xlink:href="#DejaVuSans-61" x="272.498047"/>
     <use xlink:href="#DejaVuSans-74" x="333.777344"/>
     <use xlink:href="#DejaVuSans-69" x="372.986328"/>
     <use xlink:href="#DejaVuSans-6f" x="400.769531"/>
     <use xlink:href="#DejaVuSans-6e" x="461.951172"/>
     <use xlink:href="#DejaVuSans-27" x="525.330078"/>
     <use xlink:href="#DejaVuSans-73" x="552.820312"/>
     <use xlink:href="#DejaVuSans-20" x="604.919922"/>
     <use xlink:href="#DejaVuSans-61" x="636.707031"/>
     <use xlink:href="#DejaVuSans-76" x="697.986328"/>
     <use xlink:href="#DejaVuSans-65" x="757.166016"/>
     <use xlink:href="#DejaVuSans-72" x="818.689453"/>
     <use xlink:href="#DejaVuSans-61" x="859.802734"/>
     <use xlink:href="#DejaVuSans-67" x="921.082031"/>
     <use xlink:href="#DejaVuSans-65" x="984.558594"/>
     <use xlink:href="#DejaVuSans-20" x="1046.082031"/>
     <use xlink:href="#DejaVuSans-61" x="1077.869141"/>
     <use xlink:href="#DejaVuSans-6e" x="1139.148438"/>
     <use xlink:href="#DejaVuSans-64" x="1202.527344"/>
     <use xlink:href="#DejaVuSans-20" x="1266.003906"/>
     <use xlink:href="#DejaVuSans-62" x="1297.791016"/>
     <use xlink:href="#DejaVuSans-65" x="1361.267578"/>
     <use xlink:href="#DejaVuSans-73" x="1422.791016"/>
     <use xlink:href="#DejaVuSans-74" x="1474.890625"/>
     <use xlink:href="#DejaVuSans-20" x="1514.099609"/>
     <use xlink:href="#DejaVuSans-66" x="1545.886719"/>
     <use xlink:href="#DejaVuSans-69" x="1581.091797"/>
     <use xlink:href="#DejaVuSans-74" x="1608.875"/>
     <use xlink:href="#DejaVuSans-6e" x="1648.083984"/>
     <use xlink:href="#DejaVuSans-65" x="1711.462891"/>
     <use xlink:href="#DejaVuSans-73" x="1772.986328"/>
     <use xlink:href="#DejaVuSans-73" x="1825.085938"/>
    </g>
   </g>
   <g id="legend_1">
    <g id="patch_7">
     <path d="M 334.779375 108.1845 
L 407.72 108.1845 
Q 409.72 108.1845 409.72 106.1845 
L 409.72 48.472 
Q 409.72 46.472 407.72 46.472 
L 334.779375 46.472 
Q 332.779375 46.472 332.779375 48.472 
L 332.779375 106.1845 
Q 332.779375 108.1845 334.779375 108.1845 
z
" style="fill: #ffffff; opacity: 0.8; stroke: #cccccc; stroke-linejoin: miter"/>
    </g>
    <g id="line2d_33">
     <path d="M 336.779375 54.570438 
L 346.779375 54.570438 
L 356.779375 54.570438 
" style="fill: none; stroke: #0000ff; stroke-width: 1.5; stroke-linecap: square"/>
    </g>
    <g id="text_18">
     <!-- average -->
     <g transform="translate(364.779375 58.070438)scale(0.1 -0.1)">
      <use xlink:href="#DejaVuSans-61"/>
      <use xlink:href="#DejaVuSans-76" x="61.279297"/>
      <use xlink:href="#DejaVuSans-65" x="120.458984"/>
      <use xlink:href="#DejaVuSans-72" x="181.982422"/>
      <use xlink:href="#DejaVuSans-61" x="223.095703"/>
      <use xlink:href="#DejaVuSans-67" x="284.375"/>
      <use xlink:href="#DejaVuSans-65" x="347.851562"/>
     </g>
    </g>
    <g id="line2d_34">
     <path d="M 336.779375 69.248563 
L 346.779375 69.248563 
L 356.779375 69.248563 
" style="fill: none; stroke-dasharray: 9.6,2.4,1.5,2.4; stroke-dashoffset: 0; stroke: #008000; stroke-width: 1.5"/>
    </g>
    <g id="text_19">
     <!-- -1 sd -->
     <g transform="translate(364.779375 72.748563)scale(0.1 -0.1)">
      <defs>
       <path id="DejaVuSans-2d" d="M 313 2009 
L 1997 2009 
L 1997 1497 
L 313 1497 
L 313 2009 
z
" transform="scale(0.015625)"/>
      </defs>
      <use xlink:href="#DejaVuSans-2d"/>
      <use xlink:href="#DejaVuSans-31" x="36.083984"/>
      <use xlink:href="#DejaVuSans-20" x="99.707031"/>
      <use xlink:href="#DejaVuSans-73" x="131.494141"/>
      <use xlink:href="#DejaVuSans-64" x="183.59375"/>
     </g>
    </g>
    <g id="line2d_35">
     <path d="M 336.779375 83.926688 
L 346.779375 83.926688 
L 356.779375 83.926688 
" style="fill: none; stroke-dasharray: 9.6,2.4,1.5,2.4; stroke-dashoffset: 0; stroke: #008000; stroke-width: 1.5"/>
    </g>
    <g id="text_20">
     <!-- +1 sd -->
     <g transform="translate(364.779375 87.426688)scale(0.1 -0.1)">
      <defs>
       <path id="DejaVuSans-2b" d="M 2944 4013 
L 2944 2272 
L 4684 2272 
L 4684 1741 
L 2944 1741 
L 2944 0 
L 2419 0 
L 2419 1741 
L 678 1741 
L 678 2272 
L 2419 2272 
L 2419 4013 
L 2944 4013 
z
" transform="scale(0.015625)"/>
      </defs>
      <use xlink:href="#DejaVuSans-2b"/>
      <use xlink:href="#DejaVuSans-31" x="83.789062"/>
      <use xlink:href="#DejaVuSans-20" x="147.412109"/>
      <use xlink:href="#DejaVuSans-73" x="179.199219"/>
      <use xlink:href="#DejaVuSans-64" x="231.298828"/>
     </g>
    </g>
    <g id="line2d_36">
     <path d="M 336.779375 98.604813 
L 346.779375 98.604813 
L 356.779375 98.604813 
" style="fill: none; stroke: #ff0000; stroke-width: 1.5; stroke-linecap: square"/>
    </g>
    <g id="text_21">
     <!-- best -->
     <g transform="translate(364.779375 102.104813)scale(0.1 -0.1)">
      <use xlink:href="#DejaVuSans-62"/>
      <use xlink:href="#DejaVuSans-65" x="63.476562"/>
      <use xlink:href="#DejaVuSans-73" x="125"/>
      <use xlink:href="#DejaVuSans-74" x="177.099609"/>
     </g>
    </g>
   </g>
  </g>
 </g>
 <defs>
  <clipPath id="p85ff8e2628">
   <rect x="57.6" y="41.472" width="357.12" height="266.112"/>
  </clipPath>
 </defs>
</svg>
