<?xml version="1.0" encoding="UTF-8" standalone="no"?>
<!DOCTYPE svg PUBLIC "-//W3C//DTD SVG 1.1//EN"
 "http://www.w3.org/Graphics/SVG/1.1/DTD/svg11.dtd">
<!-- Generated by graphviz version 4.0.0 (20220529.0937)
 -->
<!-- Pages: 1 -->
<svg width="2480pt" height="387pt"
 viewBox="0.00 0.00 2480.19 386.88" xmlns="http://www.w3.org/2000/svg" xmlns:xlink="http://www.w3.org/1999/xlink">
<g id="graph0" class="graph" transform="scale(1 1) rotate(0) translate(4 382.88)">
<polygon fill="white" stroke="transparent" points="-4,4 -4,-382.88 2476.19,-382.88 2476.19,4 -4,4"/>
<!-- GHOST1 DIST -->
<g id="node1" class="node">
<title>GHOST1 DIST</title>
<ellipse fill="lightcoral" stroke="black" cx="147.33" cy="-160.45" rx="52.15" ry="52.15"/>
<text text-anchor="middle" x="147.33" y="-158.25" font-family="Times New Roman,serif" font-size="9.00">GHOST1 DIST</text>
</g>
<!-- LEFT -->
<g id="node28" class="node">
<title>LEFT</title>
<ellipse fill="lightblue" stroke="black" cx="336.33" cy="-31.82" rx="26.74" ry="26.74"/>
<text text-anchor="middle" x="336.33" y="-29.62" font-family="Times New Roman,serif" font-size="9.00">LEFT</text>
</g>
<!-- GHOST1 DIST&#45;&gt;LEFT -->
<g id="edge10" class="edge">
<title>GHOST1 DIST&#45;&gt;LEFT</title>
<path fill="none" stroke="green" stroke-width="0.13" d="M182.85,-121.89C191.15,-114.07 200.24,-106.21 209.33,-99.64 242.44,-75.7 285.25,-55.01 311.74,-43.23"/>
</g>
<!-- GHOST2 DIST -->
<g id="node2" class="node">
<title>GHOST2 DIST</title>
<ellipse fill="lightcoral" stroke="black" cx="270.33" cy="-160.45" rx="52.15" ry="52.15"/>
<text text-anchor="middle" x="270.33" y="-158.25" font-family="Times New Roman,serif" font-size="9.00">GHOST2 DIST</text>
</g>
<!-- GHOST2 DIST&#45;&gt;LEFT -->
<g id="edge1" class="edge">
<title>GHOST2 DIST&#45;&gt;LEFT</title>
<path fill="none" stroke="green" stroke-width="0.29" d="M294.15,-113.73C304.34,-94.18 315.8,-72.2 324.2,-56.08"/>
</g>
<!-- GHOST3 DIST -->
<g id="node3" class="node">
<title>GHOST3 DIST</title>
<ellipse fill="lightcoral" stroke="black" cx="52.33" cy="-318.07" rx="52.15" ry="52.15"/>
<text text-anchor="middle" x="52.33" y="-315.87" font-family="Times New Roman,serif" font-size="9.00">GHOST3 DIST</text>
</g>
<!-- 4968 -->
<g id="node30" class="node">
<title>4968</title>
<ellipse fill="lightgreen" stroke="black" cx="52.33" cy="-160.45" rx="25" ry="25"/>
<text text-anchor="middle" x="52.33" y="-158.25" font-family="Times New Roman,serif" font-size="9.00">4968</text>
</g>
<!-- GHOST3 DIST&#45;&gt;4968 -->
<g id="edge19" class="edge">
<title>GHOST3 DIST&#45;&gt;4968</title>
<path fill="none" stroke="green" stroke-width="0.16" d="M52.33,-265.69C52.33,-238.59 52.33,-206.65 52.33,-185.34"/>
</g>
<!-- GHOST4 DIST -->
<g id="node4" class="node">
<title>GHOST4 DIST</title>
<ellipse fill="lightcoral" stroke="black" cx="951.33" cy="-160.45" rx="52.15" ry="52.15"/>
<text text-anchor="middle" x="951.33" y="-158.25" font-family="Times New Roman,serif" font-size="9.00">GHOST4 DIST</text>
</g>
<!-- UP -->
<g id="node25" class="node">
<title>UP</title>
<ellipse fill="lightblue" stroke="black" cx="762.33" cy="-31.82" rx="20.51" ry="20.51"/>
<text text-anchor="middle" x="762.33" y="-29.62" font-family="Times New Roman,serif" font-size="9.00">UP</text>
</g>
<!-- GHOST4 DIST&#45;&gt;UP -->
<g id="edge2" class="edge">
<title>GHOST4 DIST&#45;&gt;UP</title>
<path fill="none" stroke="red" stroke-width="0.18" d="M916.13,-121.53C908.05,-113.81 899.21,-106.09 890.33,-99.64 854.43,-73.56 806.98,-51.6 781.12,-40.53"/>
</g>
<!-- DOWN -->
<g id="node26" class="node">
<title>DOWN</title>
<ellipse fill="lightblue" stroke="black" cx="1140.33" cy="-31.82" rx="31.64" ry="31.64"/>
<text text-anchor="middle" x="1140.33" y="-29.62" font-family="Times New Roman,serif" font-size="9.00">DOWN</text>
</g>
<!-- GHOST4 DIST&#45;&gt;DOWN -->
<g id="edge7" class="edge">
<title>GHOST4 DIST&#45;&gt;DOWN</title>
<path fill="none" stroke="green" stroke-width="1.7" d="M986.52,-121.53C994.6,-113.81 1003.45,-106.09 1012.33,-99.64 1043.86,-76.73 1084.31,-57 1111.21,-45.03"/>
</g>
<!-- GHOST5 DIST -->
<g id="node5" class="node">
<title>GHOST5 DIST</title>
<ellipse fill="lightcoral" stroke="black" cx="505.33" cy="-318.07" rx="52.15" ry="52.15"/>
<text text-anchor="middle" x="505.33" y="-315.87" font-family="Times New Roman,serif" font-size="9.00">GHOST5 DIST</text>
</g>
<!-- 5504 -->
<g id="node29" class="node">
<title>5504</title>
<ellipse fill="lightgreen" stroke="black" cx="505.33" cy="-160.45" rx="25" ry="25"/>
<text text-anchor="middle" x="505.33" y="-158.25" font-family="Times New Roman,serif" font-size="9.00">5504</text>
</g>
<!-- GHOST5 DIST&#45;&gt;5504 -->
<g id="edge15" class="edge">
<title>GHOST5 DIST&#45;&gt;5504</title>
<path fill="none" stroke="green" stroke-width="0.36" d="M505.33,-265.69C505.33,-238.59 505.33,-206.65 505.33,-185.34"/>
</g>
<!-- GHOST6 DIST -->
<g id="node6" class="node">
<title>GHOST6 DIST</title>
<ellipse fill="lightcoral" stroke="black" cx="1203.33" cy="-160.45" rx="52.15" ry="52.15"/>
<text text-anchor="middle" x="1203.33" y="-158.25" font-family="Times New Roman,serif" font-size="9.00">GHOST6 DIST</text>
</g>
<!-- GHOST6 DIST&#45;&gt;DOWN -->
<g id="edge8" class="edge">
<title>GHOST6 DIST&#45;&gt;DOWN</title>
<path fill="none" stroke="red" stroke-width="0.67" d="M1180.4,-113.38C1171.61,-95.7 1161.85,-76.08 1154.16,-60.63"/>
</g>
<!-- GHOST7 DIST -->
<g id="node7" class="node">
<title>GHOST7 DIST</title>
<ellipse fill="lightcoral" stroke="black" cx="699.33" cy="-160.45" rx="52.15" ry="52.15"/>
<text text-anchor="middle" x="699.33" y="-158.25" font-family="Times New Roman,serif" font-size="9.00">GHOST7 DIST</text>
</g>
<!-- GHOST7 DIST&#45;&gt;UP -->
<g id="edge12" class="edge">
<title>GHOST7 DIST&#45;&gt;UP</title>
<path fill="none" stroke="red" stroke-width="0.25" d="M722.25,-113.38C733.08,-91.6 745.39,-66.87 753.47,-50.62"/>
</g>
<!-- GHOST8 DIST -->
<g id="node8" class="node">
<title>GHOST8 DIST</title>
<ellipse fill="lightcoral" stroke="black" cx="697.33" cy="-318.07" rx="52.15" ry="52.15"/>
<text text-anchor="middle" x="697.33" y="-315.87" font-family="Times New Roman,serif" font-size="9.00">GHOST8 DIST</text>
</g>
<!-- GHOST1 CORR -->
<g id="node9" class="node">
<title>GHOST1 CORR</title>
<ellipse fill="lightcoral" stroke="black" cx="1329.33" cy="-160.45" rx="55.72" ry="55.72"/>
<text text-anchor="middle" x="1329.33" y="-158.25" font-family="Times New Roman,serif" font-size="9.00">GHOST1 CORR</text>
</g>
<!-- GHOST1 CORR&#45;&gt;DOWN -->
<g id="edge18" class="edge">
<title>GHOST1 CORR&#45;&gt;DOWN</title>
<path fill="none" stroke="green" stroke-width="0.11" d="M1290.09,-120.47C1281.89,-113.16 1273.07,-105.87 1264.33,-99.64 1233.65,-77.79 1195.01,-58.05 1169.09,-45.78"/>
</g>
<!-- GHOST2 CORR -->
<g id="node10" class="node">
<title>GHOST2 CORR</title>
<ellipse fill="lightcoral" stroke="black" cx="1459.33" cy="-160.45" rx="55.72" ry="55.72"/>
<text text-anchor="middle" x="1459.33" y="-158.25" font-family="Times New Roman,serif" font-size="9.00">GHOST2 CORR</text>
</g>
<!-- GHOST2 CORR&#45;&gt;DOWN -->
<g id="edge3" class="edge">
<title>GHOST2 CORR&#45;&gt;DOWN</title>
<path fill="none" stroke="green" stroke-width="0.25" d="M1421.52,-119.08C1413.13,-111.79 1403.88,-104.86 1394.33,-99.64 1320.92,-59.49 1222.24,-42.56 1172.24,-36.2"/>
</g>
<!-- GHOST3 CORR -->
<g id="node11" class="node">
<title>GHOST3 CORR</title>
<ellipse fill="lightcoral" stroke="black" cx="1098.33" cy="-318.07" rx="55.72" ry="55.72"/>
<text text-anchor="middle" x="1098.33" y="-315.87" font-family="Times New Roman,serif" font-size="9.00">GHOST3 CORR</text>
</g>
<!-- GHOST4 CORR -->
<g id="node12" class="node">
<title>GHOST4 CORR</title>
<ellipse fill="lightcoral" stroke="black" cx="1366.33" cy="-318.07" rx="55.72" ry="55.72"/>
<text text-anchor="middle" x="1366.33" y="-315.87" font-family="Times New Roman,serif" font-size="9.00">GHOST4 CORR</text>
</g>
<!-- GHOST5 CORR -->
<g id="node13" class="node">
<title>GHOST5 CORR</title>
<ellipse fill="lightcoral" stroke="black" cx="825.33" cy="-160.45" rx="55.72" ry="55.72"/>
<text text-anchor="middle" x="825.33" y="-158.25" font-family="Times New Roman,serif" font-size="9.00">GHOST5 CORR</text>
</g>
<!-- GHOST5 CORR&#45;&gt;UP -->
<g id="edge11" class="edge">
<title>GHOST5 CORR&#45;&gt;UP</title>
<path fill="none" stroke="red" stroke-width="0.28" d="M800.79,-110.13C790.35,-89.16 778.85,-66.03 771.16,-50.58"/>
</g>
<!-- GHOST6 CORR -->
<g id="node14" class="node">
<title>GHOST6 CORR</title>
<ellipse fill="lightcoral" stroke="black" cx="1077.33" cy="-160.45" rx="55.72" ry="55.72"/>
<text text-anchor="middle" x="1077.33" y="-158.25" font-family="Times New Roman,serif" font-size="9.00">GHOST6 CORR</text>
</g>
<!-- GHOST6 CORR&#45;&gt;DOWN -->
<g id="edge4" class="edge">
<title>GHOST6 CORR&#45;&gt;DOWN</title>
<path fill="none" stroke="green" stroke-width="0.54" d="M1101.86,-110.13C1110.22,-93.32 1119.27,-75.13 1126.49,-60.62"/>
</g>
<!-- GHOST7 CORR -->
<g id="node15" class="node">
<title>GHOST7 CORR</title>
<ellipse fill="lightcoral" stroke="black" cx="1565.33" cy="-318.07" rx="55.72" ry="55.72"/>
<text text-anchor="middle" x="1565.33" y="-315.87" font-family="Times New Roman,serif" font-size="9.00">GHOST7 CORR</text>
</g>
<!-- RIGHT -->
<g id="node27" class="node">
<title>RIGHT</title>
<ellipse fill="lightblue" stroke="black" cx="1565.33" cy="-160.45" rx="31.64" ry="31.64"/>
<text text-anchor="middle" x="1565.33" y="-158.25" font-family="Times New Roman,serif" font-size="9.00">RIGHT</text>
</g>
<!-- GHOST7 CORR&#45;&gt;RIGHT -->
<g id="edge14" class="edge">
<title>GHOST7 CORR&#45;&gt;RIGHT</title>
<path fill="none" stroke="green" stroke-width="0.44" d="M1565.33,-262.21C1565.33,-238.75 1565.33,-212.25 1565.33,-192.31"/>
</g>
<!-- GHOST8 CORR -->
<g id="node16" class="node">
<title>GHOST8 CORR</title>
<ellipse fill="lightcoral" stroke="black" cx="1695.33" cy="-318.07" rx="55.72" ry="55.72"/>
<text text-anchor="middle" x="1695.33" y="-315.87" font-family="Times New Roman,serif" font-size="9.00">GHOST8 CORR</text>
</g>
<!-- PACMAN CORR -->
<g id="node17" class="node">
<title>PACMAN CORR</title>
<ellipse fill="lightcoral" stroke="black" cx="1828.33" cy="-318.07" rx="59.29" ry="59.29"/>
<text text-anchor="middle" x="1828.33" y="-315.87" font-family="Times New Roman,serif" font-size="9.00">PACMAN CORR</text>
</g>
<!-- ND DIST -->
<g id="node18" class="node">
<title>ND DIST</title>
<ellipse fill="lightcoral" stroke="black" cx="1943.33" cy="-318.07" rx="37.45" ry="37.45"/>
<text text-anchor="middle" x="1943.33" y="-315.87" font-family="Times New Roman,serif" font-size="9.00">ND DIST</text>
</g>
<!-- ND CORR -->
<g id="node19" class="node">
<title>ND CORR</title>
<ellipse fill="lightcoral" stroke="black" cx="588.33" cy="-160.45" rx="40.11" ry="40.11"/>
<text text-anchor="middle" x="588.33" y="-158.25" font-family="Times New Roman,serif" font-size="9.00">ND CORR</text>
</g>
<!-- ND CORR&#45;&gt;UP -->
<g id="edge5" class="edge">
<title>ND CORR&#45;&gt;UP</title>
<path fill="none" stroke="red" stroke-width="0.38" d="M611.46,-127.26C619.31,-117.67 628.57,-107.6 638.33,-99.64 671.67,-72.43 717.78,-51.05 743.34,-40.35"/>
</g>
<!-- ND CORR&#45;&gt;DOWN -->
<g id="edge9" class="edge">
<title>ND CORR&#45;&gt;DOWN</title>
<path fill="none" stroke="red" stroke-width="0.43" d="M609.17,-125.91C617.07,-115.89 626.94,-105.91 638.33,-99.64 679.67,-76.87 1004.91,-45.28 1108.65,-35.69"/>
</g>
<!-- ND CORR&#45;&gt;LEFT -->
<g id="edge17" class="edge">
<title>ND CORR&#45;&gt;LEFT</title>
<path fill="none" stroke="red" stroke-width="0.36" d="M566.55,-126.17C558.9,-116.53 549.62,-106.7 539.33,-99.64 483.33,-61.23 403.66,-43.59 362.77,-36.65"/>
</g>
<!-- IN_INTERS -->
<g id="node20" class="node">
<title>IN_INTERS</title>
<ellipse fill="lightcoral" stroke="black" cx="2042.33" cy="-318.07" rx="43.68" ry="43.68"/>
<text text-anchor="middle" x="2042.33" y="-315.87" font-family="Times New Roman,serif" font-size="9.00">IN_INTERS</text>
</g>
<!-- MOVING UP -->
<g id="node21" class="node">
<title>MOVING UP</title>
<ellipse fill="lightcoral" stroke="black" cx="2153.33" cy="-318.07" rx="48.58" ry="48.58"/>
<text text-anchor="middle" x="2153.33" y="-315.87" font-family="Times New Roman,serif" font-size="9.00">MOVING UP</text>
</g>
<!-- MOVING DOWN -->
<g id="node22" class="node">
<title>MOVING DOWN</title>
<ellipse fill="lightcoral" stroke="black" cx="2281.33" cy="-318.07" rx="60.62" ry="60.62"/>
<text text-anchor="middle" x="2281.33" y="-315.87" font-family="Times New Roman,serif" font-size="9.00">MOVING DOWN</text>
</g>
<!-- MOVING RIGHT -->
<g id="node23" class="node">
<title>MOVING RIGHT</title>
<ellipse fill="lightcoral" stroke="black" cx="401.33" cy="-160.45" rx="60.62" ry="60.62"/>
<text text-anchor="middle" x="401.33" y="-158.25" font-family="Times New Roman,serif" font-size="9.00">MOVING RIGHT</text>
</g>
<!-- MOVING RIGHT&#45;&gt;LEFT -->
<g id="edge6" class="edge">
<title>MOVING RIGHT&#45;&gt;LEFT</title>
<path fill="none" stroke="red" stroke-width="0.42" d="M373.95,-106.11C365,-88.68 355.51,-70.2 348.31,-56.16"/>
</g>
<!-- MOVING LEFT -->
<g id="node24" class="node">
<title>MOVING LEFT</title>
<ellipse fill="lightcoral" stroke="black" cx="2416.33" cy="-318.07" rx="55.72" ry="55.72"/>
<text text-anchor="middle" x="2416.33" y="-315.87" font-family="Times New Roman,serif" font-size="9.00">MOVING LEFT</text>
</g>
<!-- 5504&#45;&gt;LEFT -->
<g id="edge16" class="edge">
<title>5504&#45;&gt;LEFT</title>
<path fill="none" stroke="green" stroke-width="0.4" d="M496.53,-137.13C490.81,-124.86 482.36,-110.05 471.33,-99.64 439.38,-69.48 391.23,-50.13 361.89,-40.39"/>
</g>
<!-- 4968&#45;&gt;LEFT -->
<g id="edge13" class="edge">
<title>4968&#45;&gt;LEFT</title>
<path fill="none" stroke="red" stroke-width="0.53" d="M60.12,-136.85C65.59,-124.17 74.13,-109.06 86.33,-99.64 154.24,-47.2 259.98,-35.81 309.29,-33.41"/>
</g>
</g>
</svg>
