<?xml version="1.0" encoding="utf-8" standalone="no"?>
<!DOCTYPE svg PUBLIC "-//W3C//DTD SVG 1.1//EN"
  "http://www.w3.org/Graphics/SVG/1.1/DTD/svg11.dtd">
<svg xmlns:xlink="http://www.w3.org/1999/xlink" width="460.8pt" height="345.6pt" viewBox="0 0 460.8 345.6" xmlns="http://www.w3.org/2000/svg" version="1.1">
 <metadata>
  <rdf:RDF xmlns:dc="http://purl.org/dc/elements/1.1/" xmlns:cc="http://creativecommons.org/ns#" xmlns:rdf="http://www.w3.org/1999/02/22-rdf-syntax-ns#">
   <cc:Work>
    <dc:type rdf:resource="http://purl.org/dc/dcmitype/StillImage"/>
    <dc:date>2022-08-14T10:10:48.016410</dc:date>
    <dc:format>image/svg+xml</dc:format>
    <dc:creator>
     <cc:Agent>
      <dc:title>Matplotlib v3.5.2, https://matplotlib.org/</dc:title>
     </cc:Agent>
    </dc:creator>
   </cc:Work>
  </rdf:RDF>
 </metadata>
 <defs>
  <style type="text/css">*{stroke-linejoin: round; stroke-linecap: butt}</style>
 </defs>
 <g id="figure_1">
  <g id="patch_1">
   <path d="M 0 345.6 
L 460.8 345.6 
L 460.8 0 
L 0 0 
z
" style="fill: #ffffff"/>
  </g>
  <g id="axes_1">
   <g id="patch_2">
    <path d="M 57.6 307.584 
L 414.72 307.584 
L 414.72 41.472 
L 57.6 41.472 
z
" style="fill: #ffffff"/>
   </g>
   <g id="matplotlib.axis_1">
    <g id="xtick_1">
     <g id="line2d_1">
      <path d="M 73.832727 307.584 
L 73.832727 41.472 
" clip-path="url(#p2ee0f2ca07)" style="fill: none; stroke: #b0b0b0; stroke-width: 0.8; stroke-linecap: square"/>
     </g>
     <g id="line2d_2">
      <defs>
       <path id="ma9252a9a2f" d="M 0 0 
L 0 3.5 
" style="stroke: #000000; stroke-width: 0.8"/>
      </defs>
      <g>
       <use xlink:href="#ma9252a9a2f" x="73.832727" y="307.584" style="stroke: #000000; stroke-width: 0.8"/>
      </g>
     </g>
     <g id="text_1">
      <!-- 0 -->
      <g transform="translate(70.651477 322.182437)scale(0.1 -0.1)">
       <defs>
        <path id="DejaVuSans-30" d="M 2034 4250 
Q 1547 4250 1301 3770 
Q 1056 3291 1056 2328 
Q 1056 1369 1301 889 
Q 1547 409 2034 409 
Q 2525 409 2770 889 
Q 3016 1369 3016 2328 
Q 3016 3291 2770 3770 
Q 2525 4250 2034 4250 
z
M 2034 4750 
Q 2819 4750 3233 4129 
Q 3647 3509 3647 2328 
Q 3647 1150 3233 529 
Q 2819 -91 2034 -91 
Q 1250 -91 836 529 
Q 422 1150 422 2328 
Q 422 3509 836 4129 
Q 1250 4750 2034 4750 
z
" transform="scale(0.015625)"/>
       </defs>
       <use xlink:href="#DejaVuSans-30"/>
      </g>
     </g>
    </g>
    <g id="xtick_2">
     <g id="line2d_3">
      <path d="M 114.516254 307.584 
L 114.516254 41.472 
" clip-path="url(#p2ee0f2ca07)" style="fill: none; stroke: #b0b0b0; stroke-width: 0.8; stroke-linecap: square"/>
     </g>
     <g id="line2d_4">
      <g>
       <use xlink:href="#ma9252a9a2f" x="114.516254" y="307.584" style="stroke: #000000; stroke-width: 0.8"/>
      </g>
     </g>
     <g id="text_2">
      <!-- 50 -->
      <g transform="translate(108.153754 322.182437)scale(0.1 -0.1)">
       <defs>
        <path id="DejaVuSans-35" d="M 691 4666 
L 3169 4666 
L 3169 4134 
L 1269 4134 
L 1269 2991 
Q 1406 3038 1543 3061 
Q 1681 3084 1819 3084 
Q 2600 3084 3056 2656 
Q 3513 2228 3513 1497 
Q 3513 744 3044 326 
Q 2575 -91 1722 -91 
Q 1428 -91 1123 -41 
Q 819 9 494 109 
L 494 744 
Q 775 591 1075 516 
Q 1375 441 1709 441 
Q 2250 441 2565 725 
Q 2881 1009 2881 1497 
Q 2881 1984 2565 2268 
Q 2250 2553 1709 2553 
Q 1456 2553 1204 2497 
Q 953 2441 691 2322 
L 691 4666 
z
" transform="scale(0.015625)"/>
       </defs>
       <use xlink:href="#DejaVuSans-35"/>
       <use xlink:href="#DejaVuSans-30" x="63.623047"/>
      </g>
     </g>
    </g>
    <g id="xtick_3">
     <g id="line2d_5">
      <path d="M 155.199781 307.584 
L 155.199781 41.472 
" clip-path="url(#p2ee0f2ca07)" style="fill: none; stroke: #b0b0b0; stroke-width: 0.8; stroke-linecap: square"/>
     </g>
     <g id="line2d_6">
      <g>
       <use xlink:href="#ma9252a9a2f" x="155.199781" y="307.584" style="stroke: #000000; stroke-width: 0.8"/>
      </g>
     </g>
     <g id="text_3">
      <!-- 100 -->
      <g transform="translate(145.656031 322.182437)scale(0.1 -0.1)">
       <defs>
        <path id="DejaVuSans-31" d="M 794 531 
L 1825 531 
L 1825 4091 
L 703 3866 
L 703 4441 
L 1819 4666 
L 2450 4666 
L 2450 531 
L 3481 531 
L 3481 0 
L 794 0 
L 794 531 
z
" transform="scale(0.015625)"/>
       </defs>
       <use xlink:href="#DejaVuSans-31"/>
       <use xlink:href="#DejaVuSans-30" x="63.623047"/>
       <use xlink:href="#DejaVuSans-30" x="127.246094"/>
      </g>
     </g>
    </g>
    <g id="xtick_4">
     <g id="line2d_7">
      <path d="M 195.883308 307.584 
L 195.883308 41.472 
" clip-path="url(#p2ee0f2ca07)" style="fill: none; stroke: #b0b0b0; stroke-width: 0.8; stroke-linecap: square"/>
     </g>
     <g id="line2d_8">
      <g>
       <use xlink:href="#ma9252a9a2f" x="195.883308" y="307.584" style="stroke: #000000; stroke-width: 0.8"/>
      </g>
     </g>
     <g id="text_4">
      <!-- 150 -->
      <g transform="translate(186.339558 322.182437)scale(0.1 -0.1)">
       <use xlink:href="#DejaVuSans-31"/>
       <use xlink:href="#DejaVuSans-35" x="63.623047"/>
       <use xlink:href="#DejaVuSans-30" x="127.246094"/>
      </g>
     </g>
    </g>
    <g id="xtick_5">
     <g id="line2d_9">
      <path d="M 236.566835 307.584 
L 236.566835 41.472 
" clip-path="url(#p2ee0f2ca07)" style="fill: none; stroke: #b0b0b0; stroke-width: 0.8; stroke-linecap: square"/>
     </g>
     <g id="line2d_10">
      <g>
       <use xlink:href="#ma9252a9a2f" x="236.566835" y="307.584" style="stroke: #000000; stroke-width: 0.8"/>
      </g>
     </g>
     <g id="text_5">
      <!-- 200 -->
      <g transform="translate(227.023085 322.182437)scale(0.1 -0.1)">
       <defs>
        <path id="DejaVuSans-32" d="M 1228 531 
L 3431 531 
L 3431 0 
L 469 0 
L 469 531 
Q 828 903 1448 1529 
Q 2069 2156 2228 2338 
Q 2531 2678 2651 2914 
Q 2772 3150 2772 3378 
Q 2772 3750 2511 3984 
Q 2250 4219 1831 4219 
Q 1534 4219 1204 4116 
Q 875 4013 500 3803 
L 500 4441 
Q 881 4594 1212 4672 
Q 1544 4750 1819 4750 
Q 2544 4750 2975 4387 
Q 3406 4025 3406 3419 
Q 3406 3131 3298 2873 
Q 3191 2616 2906 2266 
Q 2828 2175 2409 1742 
Q 1991 1309 1228 531 
z
" transform="scale(0.015625)"/>
       </defs>
       <use xlink:href="#DejaVuSans-32"/>
       <use xlink:href="#DejaVuSans-30" x="63.623047"/>
       <use xlink:href="#DejaVuSans-30" x="127.246094"/>
      </g>
     </g>
    </g>
    <g id="xtick_6">
     <g id="line2d_11">
      <path d="M 277.250362 307.584 
L 277.250362 41.472 
" clip-path="url(#p2ee0f2ca07)" style="fill: none; stroke: #b0b0b0; stroke-width: 0.8; stroke-linecap: square"/>
     </g>
     <g id="line2d_12">
      <g>
       <use xlink:href="#ma9252a9a2f" x="277.250362" y="307.584" style="stroke: #000000; stroke-width: 0.8"/>
      </g>
     </g>
     <g id="text_6">
      <!-- 250 -->
      <g transform="translate(267.706612 322.182437)scale(0.1 -0.1)">
       <use xlink:href="#DejaVuSans-32"/>
       <use xlink:href="#DejaVuSans-35" x="63.623047"/>
       <use xlink:href="#DejaVuSans-30" x="127.246094"/>
      </g>
     </g>
    </g>
    <g id="xtick_7">
     <g id="line2d_13">
      <path d="M 317.933889 307.584 
L 317.933889 41.472 
" clip-path="url(#p2ee0f2ca07)" style="fill: none; stroke: #b0b0b0; stroke-width: 0.8; stroke-linecap: square"/>
     </g>
     <g id="line2d_14">
      <g>
       <use xlink:href="#ma9252a9a2f" x="317.933889" y="307.584" style="stroke: #000000; stroke-width: 0.8"/>
      </g>
     </g>
     <g id="text_7">
      <!-- 300 -->
      <g transform="translate(308.390139 322.182437)scale(0.1 -0.1)">
       <defs>
        <path id="DejaVuSans-33" d="M 2597 2516 
Q 3050 2419 3304 2112 
Q 3559 1806 3559 1356 
Q 3559 666 3084 287 
Q 2609 -91 1734 -91 
Q 1441 -91 1130 -33 
Q 819 25 488 141 
L 488 750 
Q 750 597 1062 519 
Q 1375 441 1716 441 
Q 2309 441 2620 675 
Q 2931 909 2931 1356 
Q 2931 1769 2642 2001 
Q 2353 2234 1838 2234 
L 1294 2234 
L 1294 2753 
L 1863 2753 
Q 2328 2753 2575 2939 
Q 2822 3125 2822 3475 
Q 2822 3834 2567 4026 
Q 2313 4219 1838 4219 
Q 1578 4219 1281 4162 
Q 984 4106 628 3988 
L 628 4550 
Q 988 4650 1302 4700 
Q 1616 4750 1894 4750 
Q 2613 4750 3031 4423 
Q 3450 4097 3450 3541 
Q 3450 3153 3228 2886 
Q 3006 2619 2597 2516 
z
" transform="scale(0.015625)"/>
       </defs>
       <use xlink:href="#DejaVuSans-33"/>
       <use xlink:href="#DejaVuSans-30" x="63.623047"/>
       <use xlink:href="#DejaVuSans-30" x="127.246094"/>
      </g>
     </g>
    </g>
    <g id="xtick_8">
     <g id="line2d_15">
      <path d="M 358.617416 307.584 
L 358.617416 41.472 
" clip-path="url(#p2ee0f2ca07)" style="fill: none; stroke: #b0b0b0; stroke-width: 0.8; stroke-linecap: square"/>
     </g>
     <g id="line2d_16">
      <g>
       <use xlink:href="#ma9252a9a2f" x="358.617416" y="307.584" style="stroke: #000000; stroke-width: 0.8"/>
      </g>
     </g>
     <g id="text_8">
      <!-- 350 -->
      <g transform="translate(349.073666 322.182437)scale(0.1 -0.1)">
       <use xlink:href="#DejaVuSans-33"/>
       <use xlink:href="#DejaVuSans-35" x="63.623047"/>
       <use xlink:href="#DejaVuSans-30" x="127.246094"/>
      </g>
     </g>
    </g>
    <g id="xtick_9">
     <g id="line2d_17">
      <path d="M 399.300943 307.584 
L 399.300943 41.472 
" clip-path="url(#p2ee0f2ca07)" style="fill: none; stroke: #b0b0b0; stroke-width: 0.8; stroke-linecap: square"/>
     </g>
     <g id="line2d_18">
      <g>
       <use xlink:href="#ma9252a9a2f" x="399.300943" y="307.584" style="stroke: #000000; stroke-width: 0.8"/>
      </g>
     </g>
     <g id="text_9">
      <!-- 400 -->
      <g transform="translate(389.757193 322.182437)scale(0.1 -0.1)">
       <defs>
        <path id="DejaVuSans-34" d="M 2419 4116 
L 825 1625 
L 2419 1625 
L 2419 4116 
z
M 2253 4666 
L 3047 4666 
L 3047 1625 
L 3713 1625 
L 3713 1100 
L 3047 1100 
L 3047 0 
L 2419 0 
L 2419 1100 
L 313 1100 
L 313 1709 
L 2253 4666 
z
" transform="scale(0.015625)"/>
       </defs>
       <use xlink:href="#DejaVuSans-34"/>
       <use xlink:href="#DejaVuSans-30" x="63.623047"/>
       <use xlink:href="#DejaVuSans-30" x="127.246094"/>
      </g>
     </g>
    </g>
    <g id="text_10">
     <!-- Generations -->
     <g transform="translate(205.662344 335.860562)scale(0.1 -0.1)">
      <defs>
       <path id="DejaVuSans-47" d="M 3809 666 
L 3809 1919 
L 2778 1919 
L 2778 2438 
L 4434 2438 
L 4434 434 
Q 4069 175 3628 42 
Q 3188 -91 2688 -91 
Q 1594 -91 976 548 
Q 359 1188 359 2328 
Q 359 3472 976 4111 
Q 1594 4750 2688 4750 
Q 3144 4750 3555 4637 
Q 3966 4525 4313 4306 
L 4313 3634 
Q 3963 3931 3569 4081 
Q 3175 4231 2741 4231 
Q 1884 4231 1454 3753 
Q 1025 3275 1025 2328 
Q 1025 1384 1454 906 
Q 1884 428 2741 428 
Q 3075 428 3337 486 
Q 3600 544 3809 666 
z
" transform="scale(0.015625)"/>
       <path id="DejaVuSans-65" d="M 3597 1894 
L 3597 1613 
L 953 1613 
Q 991 1019 1311 708 
Q 1631 397 2203 397 
Q 2534 397 2845 478 
Q 3156 559 3463 722 
L 3463 178 
Q 3153 47 2828 -22 
Q 2503 -91 2169 -91 
Q 1331 -91 842 396 
Q 353 884 353 1716 
Q 353 2575 817 3079 
Q 1281 3584 2069 3584 
Q 2775 3584 3186 3129 
Q 3597 2675 3597 1894 
z
M 3022 2063 
Q 3016 2534 2758 2815 
Q 2500 3097 2075 3097 
Q 1594 3097 1305 2825 
Q 1016 2553 972 2059 
L 3022 2063 
z
" transform="scale(0.015625)"/>
       <path id="DejaVuSans-6e" d="M 3513 2113 
L 3513 0 
L 2938 0 
L 2938 2094 
Q 2938 2591 2744 2837 
Q 2550 3084 2163 3084 
Q 1697 3084 1428 2787 
Q 1159 2491 1159 1978 
L 1159 0 
L 581 0 
L 581 3500 
L 1159 3500 
L 1159 2956 
Q 1366 3272 1645 3428 
Q 1925 3584 2291 3584 
Q 2894 3584 3203 3211 
Q 3513 2838 3513 2113 
z
" transform="scale(0.015625)"/>
       <path id="DejaVuSans-72" d="M 2631 2963 
Q 2534 3019 2420 3045 
Q 2306 3072 2169 3072 
Q 1681 3072 1420 2755 
Q 1159 2438 1159 1844 
L 1159 0 
L 581 0 
L 581 3500 
L 1159 3500 
L 1159 2956 
Q 1341 3275 1631 3429 
Q 1922 3584 2338 3584 
Q 2397 3584 2469 3576 
Q 2541 3569 2628 3553 
L 2631 2963 
z
" transform="scale(0.015625)"/>
       <path id="DejaVuSans-61" d="M 2194 1759 
Q 1497 1759 1228 1600 
Q 959 1441 959 1056 
Q 959 750 1161 570 
Q 1363 391 1709 391 
Q 2188 391 2477 730 
Q 2766 1069 2766 1631 
L 2766 1759 
L 2194 1759 
z
M 3341 1997 
L 3341 0 
L 2766 0 
L 2766 531 
Q 2569 213 2275 61 
Q 1981 -91 1556 -91 
Q 1019 -91 701 211 
Q 384 513 384 1019 
Q 384 1609 779 1909 
Q 1175 2209 1959 2209 
L 2766 2209 
L 2766 2266 
Q 2766 2663 2505 2880 
Q 2244 3097 1772 3097 
Q 1472 3097 1187 3025 
Q 903 2953 641 2809 
L 641 3341 
Q 956 3463 1253 3523 
Q 1550 3584 1831 3584 
Q 2591 3584 2966 3190 
Q 3341 2797 3341 1997 
z
" transform="scale(0.015625)"/>
       <path id="DejaVuSans-74" d="M 1172 4494 
L 1172 3500 
L 2356 3500 
L 2356 3053 
L 1172 3053 
L 1172 1153 
Q 1172 725 1289 603 
Q 1406 481 1766 481 
L 2356 481 
L 2356 0 
L 1766 0 
Q 1100 0 847 248 
Q 594 497 594 1153 
L 594 3053 
L 172 3053 
L 172 3500 
L 594 3500 
L 594 4494 
L 1172 4494 
z
" transform="scale(0.015625)"/>
       <path id="DejaVuSans-69" d="M 603 3500 
L 1178 3500 
L 1178 0 
L 603 0 
L 603 3500 
z
M 603 4863 
L 1178 4863 
L 1178 4134 
L 603 4134 
L 603 4863 
z
" transform="scale(0.015625)"/>
       <path id="DejaVuSans-6f" d="M 1959 3097 
Q 1497 3097 1228 2736 
Q 959 2375 959 1747 
Q 959 1119 1226 758 
Q 1494 397 1959 397 
Q 2419 397 2687 759 
Q 2956 1122 2956 1747 
Q 2956 2369 2687 2733 
Q 2419 3097 1959 3097 
z
M 1959 3584 
Q 2709 3584 3137 3096 
Q 3566 2609 3566 1747 
Q 3566 888 3137 398 
Q 2709 -91 1959 -91 
Q 1206 -91 779 398 
Q 353 888 353 1747 
Q 353 2609 779 3096 
Q 1206 3584 1959 3584 
z
" transform="scale(0.015625)"/>
       <path id="DejaVuSans-73" d="M 2834 3397 
L 2834 2853 
Q 2591 2978 2328 3040 
Q 2066 3103 1784 3103 
Q 1356 3103 1142 2972 
Q 928 2841 928 2578 
Q 928 2378 1081 2264 
Q 1234 2150 1697 2047 
L 1894 2003 
Q 2506 1872 2764 1633 
Q 3022 1394 3022 966 
Q 3022 478 2636 193 
Q 2250 -91 1575 -91 
Q 1294 -91 989 -36 
Q 684 19 347 128 
L 347 722 
Q 666 556 975 473 
Q 1284 391 1588 391 
Q 1994 391 2212 530 
Q 2431 669 2431 922 
Q 2431 1156 2273 1281 
Q 2116 1406 1581 1522 
L 1381 1569 
Q 847 1681 609 1914 
Q 372 2147 372 2553 
Q 372 3047 722 3315 
Q 1072 3584 1716 3584 
Q 2034 3584 2315 3537 
Q 2597 3491 2834 3397 
z
" transform="scale(0.015625)"/>
      </defs>
      <use xlink:href="#DejaVuSans-47"/>
      <use xlink:href="#DejaVuSans-65" x="77.490234"/>
      <use xlink:href="#DejaVuSans-6e" x="139.013672"/>
      <use xlink:href="#DejaVuSans-65" x="202.392578"/>
      <use xlink:href="#DejaVuSans-72" x="263.916016"/>
      <use xlink:href="#DejaVuSans-61" x="305.029297"/>
      <use xlink:href="#DejaVuSans-74" x="366.308594"/>
      <use xlink:href="#DejaVuSans-69" x="405.517578"/>
      <use xlink:href="#DejaVuSans-6f" x="433.300781"/>
      <use xlink:href="#DejaVuSans-6e" x="494.482422"/>
      <use xlink:href="#DejaVuSans-73" x="557.861328"/>
     </g>
    </g>
   </g>
   <g id="matplotlib.axis_2">
    <g id="ytick_1">
     <g id="line2d_19">
      <path d="M 57.6 281.261874 
L 414.72 281.261874 
" clip-path="url(#p2ee0f2ca07)" style="fill: none; stroke: #b0b0b0; stroke-width: 0.8; stroke-linecap: square"/>
     </g>
     <g id="line2d_20">
      <defs>
       <path id="m6753538461" d="M 0 0 
L -3.5 0 
" style="stroke: #000000; stroke-width: 0.8"/>
      </defs>
      <g>
       <use xlink:href="#m6753538461" x="57.6" y="281.261874" style="stroke: #000000; stroke-width: 0.8"/>
      </g>
     </g>
     <g id="text_11">
      <!-- 0 -->
      <g transform="translate(44.2375 285.061092)scale(0.1 -0.1)">
       <use xlink:href="#DejaVuSans-30"/>
      </g>
     </g>
    </g>
    <g id="ytick_2">
     <g id="line2d_21">
      <path d="M 57.6 245.119989 
L 414.72 245.119989 
" clip-path="url(#p2ee0f2ca07)" style="fill: none; stroke: #b0b0b0; stroke-width: 0.8; stroke-linecap: square"/>
     </g>
     <g id="line2d_22">
      <g>
       <use xlink:href="#m6753538461" x="57.6" y="245.119989" style="stroke: #000000; stroke-width: 0.8"/>
      </g>
     </g>
     <g id="text_12">
      <!-- 20 -->
      <g transform="translate(37.875 248.919208)scale(0.1 -0.1)">
       <use xlink:href="#DejaVuSans-32"/>
       <use xlink:href="#DejaVuSans-30" x="63.623047"/>
      </g>
     </g>
    </g>
    <g id="ytick_3">
     <g id="line2d_23">
      <path d="M 57.6 208.978104 
L 414.72 208.978104 
" clip-path="url(#p2ee0f2ca07)" style="fill: none; stroke: #b0b0b0; stroke-width: 0.8; stroke-linecap: square"/>
     </g>
     <g id="line2d_24">
      <g>
       <use xlink:href="#m6753538461" x="57.6" y="208.978104" style="stroke: #000000; stroke-width: 0.8"/>
      </g>
     </g>
     <g id="text_13">
      <!-- 40 -->
      <g transform="translate(37.875 212.777323)scale(0.1 -0.1)">
       <use xlink:href="#DejaVuSans-34"/>
       <use xlink:href="#DejaVuSans-30" x="63.623047"/>
      </g>
     </g>
    </g>
    <g id="ytick_4">
     <g id="line2d_25">
      <path d="M 57.6 172.83622 
L 414.72 172.83622 
" clip-path="url(#p2ee0f2ca07)" style="fill: none; stroke: #b0b0b0; stroke-width: 0.8; stroke-linecap: square"/>
     </g>
     <g id="line2d_26">
      <g>
       <use xlink:href="#m6753538461" x="57.6" y="172.83622" style="stroke: #000000; stroke-width: 0.8"/>
      </g>
     </g>
     <g id="text_14">
      <!-- 60 -->
      <g transform="translate(37.875 176.635438)scale(0.1 -0.1)">
       <defs>
        <path id="DejaVuSans-36" d="M 2113 2584 
Q 1688 2584 1439 2293 
Q 1191 2003 1191 1497 
Q 1191 994 1439 701 
Q 1688 409 2113 409 
Q 2538 409 2786 701 
Q 3034 994 3034 1497 
Q 3034 2003 2786 2293 
Q 2538 2584 2113 2584 
z
M 3366 4563 
L 3366 3988 
Q 3128 4100 2886 4159 
Q 2644 4219 2406 4219 
Q 1781 4219 1451 3797 
Q 1122 3375 1075 2522 
Q 1259 2794 1537 2939 
Q 1816 3084 2150 3084 
Q 2853 3084 3261 2657 
Q 3669 2231 3669 1497 
Q 3669 778 3244 343 
Q 2819 -91 2113 -91 
Q 1303 -91 875 529 
Q 447 1150 447 2328 
Q 447 3434 972 4092 
Q 1497 4750 2381 4750 
Q 2619 4750 2861 4703 
Q 3103 4656 3366 4563 
z
" transform="scale(0.015625)"/>
       </defs>
       <use xlink:href="#DejaVuSans-36"/>
       <use xlink:href="#DejaVuSans-30" x="63.623047"/>
      </g>
     </g>
    </g>
    <g id="ytick_5">
     <g id="line2d_27">
      <path d="M 57.6 136.694335 
L 414.72 136.694335 
" clip-path="url(#p2ee0f2ca07)" style="fill: none; stroke: #b0b0b0; stroke-width: 0.8; stroke-linecap: square"/>
     </g>
     <g id="line2d_28">
      <g>
       <use xlink:href="#m6753538461" x="57.6" y="136.694335" style="stroke: #000000; stroke-width: 0.8"/>
      </g>
     </g>
     <g id="text_15">
      <!-- 80 -->
      <g transform="translate(37.875 140.493554)scale(0.1 -0.1)">
       <defs>
        <path id="DejaVuSans-38" d="M 2034 2216 
Q 1584 2216 1326 1975 
Q 1069 1734 1069 1313 
Q 1069 891 1326 650 
Q 1584 409 2034 409 
Q 2484 409 2743 651 
Q 3003 894 3003 1313 
Q 3003 1734 2745 1975 
Q 2488 2216 2034 2216 
z
M 1403 2484 
Q 997 2584 770 2862 
Q 544 3141 544 3541 
Q 544 4100 942 4425 
Q 1341 4750 2034 4750 
Q 2731 4750 3128 4425 
Q 3525 4100 3525 3541 
Q 3525 3141 3298 2862 
Q 3072 2584 2669 2484 
Q 3125 2378 3379 2068 
Q 3634 1759 3634 1313 
Q 3634 634 3220 271 
Q 2806 -91 2034 -91 
Q 1263 -91 848 271 
Q 434 634 434 1313 
Q 434 1759 690 2068 
Q 947 2378 1403 2484 
z
M 1172 3481 
Q 1172 3119 1398 2916 
Q 1625 2713 2034 2713 
Q 2441 2713 2670 2916 
Q 2900 3119 2900 3481 
Q 2900 3844 2670 4047 
Q 2441 4250 2034 4250 
Q 1625 4250 1398 4047 
Q 1172 3844 1172 3481 
z
" transform="scale(0.015625)"/>
       </defs>
       <use xlink:href="#DejaVuSans-38"/>
       <use xlink:href="#DejaVuSans-30" x="63.623047"/>
      </g>
     </g>
    </g>
    <g id="ytick_6">
     <g id="line2d_29">
      <path d="M 57.6 100.55245 
L 414.72 100.55245 
" clip-path="url(#p2ee0f2ca07)" style="fill: none; stroke: #b0b0b0; stroke-width: 0.8; stroke-linecap: square"/>
     </g>
     <g id="line2d_30">
      <g>
       <use xlink:href="#m6753538461" x="57.6" y="100.55245" style="stroke: #000000; stroke-width: 0.8"/>
      </g>
     </g>
     <g id="text_16">
      <!-- 100 -->
      <g transform="translate(31.5125 104.351669)scale(0.1 -0.1)">
       <use xlink:href="#DejaVuSans-31"/>
       <use xlink:href="#DejaVuSans-30" x="63.623047"/>
       <use xlink:href="#DejaVuSans-30" x="127.246094"/>
      </g>
     </g>
    </g>
    <g id="ytick_7">
     <g id="line2d_31">
      <path d="M 57.6 64.410565 
L 414.72 64.410565 
" clip-path="url(#p2ee0f2ca07)" style="fill: none; stroke: #b0b0b0; stroke-width: 0.8; stroke-linecap: square"/>
     </g>
     <g id="line2d_32">
      <g>
       <use xlink:href="#m6753538461" x="57.6" y="64.410565" style="stroke: #000000; stroke-width: 0.8"/>
      </g>
     </g>
     <g id="text_17">
      <!-- 120 -->
      <g transform="translate(31.5125 68.209784)scale(0.1 -0.1)">
       <use xlink:href="#DejaVuSans-31"/>
       <use xlink:href="#DejaVuSans-32" x="63.623047"/>
       <use xlink:href="#DejaVuSans-30" x="127.246094"/>
      </g>
     </g>
    </g>
    <g id="text_18">
     <!-- Fitness -->
     <g transform="translate(25.432812 191.845187)rotate(-90)scale(0.1 -0.1)">
      <defs>
       <path id="DejaVuSans-46" d="M 628 4666 
L 3309 4666 
L 3309 4134 
L 1259 4134 
L 1259 2759 
L 3109 2759 
L 3109 2228 
L 1259 2228 
L 1259 0 
L 628 0 
L 628 4666 
z
" transform="scale(0.015625)"/>
      </defs>
      <use xlink:href="#DejaVuSans-46"/>
      <use xlink:href="#DejaVuSans-69" x="50.269531"/>
      <use xlink:href="#DejaVuSans-74" x="78.052734"/>
      <use xlink:href="#DejaVuSans-6e" x="117.261719"/>
      <use xlink:href="#DejaVuSans-65" x="180.640625"/>
      <use xlink:href="#DejaVuSans-73" x="242.164062"/>
      <use xlink:href="#DejaVuSans-73" x="294.263672"/>
     </g>
    </g>
   </g>
   <g id="line2d_33">
    <path d="M 73.832727 269.479619 
L 74.646398 266.829214 
L 75.460068 266.202755 
L 76.273739 266.299133 
L 77.087409 266.082282 
L 77.90108 266.275039 
L 79.528421 265.60039 
L 80.342092 266.202755 
L 81.155762 265.576296 
L 81.969433 265.793147 
L 82.783103 266.612363 
L 83.596774 265.961809 
L 84.410444 266.058187 
L 86.037785 266.829214 
L 86.851456 265.865431 
L 87.665126 266.22685 
L 89.292468 265.624485 
L 90.106138 265.624485 
L 90.919809 268.660403 
L 91.733479 267.600241 
L 92.54715 267.046066 
L 93.36082 267.07016 
L 94.174491 266.564174 
L 94.988161 265.91362 
L 95.801832 265.769052 
L 96.615502 266.154566 
L 97.429173 265.841336 
L 98.242843 266.347323 
L 99.056514 265.528106 
L 99.870185 265.889525 
L 100.683855 265.455823 
L 101.497526 265.33535 
L 103.124867 265.696769 
L 103.938537 265.287161 
L 104.752208 265.431728 
L 105.565878 265.841336 
L 107.193219 265.648579 
L 108.00689 265.455823 
L 108.82056 265.985904 
L 109.634231 265.60039 
L 110.447902 265.648579 
L 111.261572 266.082282 
L 112.075243 265.865431 
L 112.888913 266.034093 
L 113.702584 265.624485 
L 114.516254 265.552201 
L 115.329925 265.624485 
L 116.143595 266.154566 
L 116.957266 266.515985 
L 117.770936 265.91362 
L 118.584607 265.720863 
L 120.211948 266.250944 
L 121.025619 265.817242 
L 121.839289 265.672674 
L 122.65296 265.720863 
L 123.46663 265.359444 
L 125.907642 265.672674 
L 126.721312 269.359146 
L 127.534983 267.046066 
L 128.348653 266.202755 
L 129.162324 266.540079 
L 129.975995 265.961809 
L 130.789665 265.552201 
L 131.603336 266.009998 
L 132.417006 265.576296 
L 133.230677 266.034093 
L 134.044347 265.576296 
L 134.858018 265.793147 
L 135.671688 265.793147 
L 136.485359 265.552201 
L 137.299029 265.504012 
L 138.1127 265.793147 
L 138.92637 265.359444 
L 139.740041 265.865431 
L 140.553712 265.552201 
L 142.181053 265.287161 
L 142.994723 265.383539 
L 143.808394 268.226701 
L 144.622064 266.106377 
L 145.435735 266.009998 
L 146.249405 266.323228 
L 147.063076 265.889525 
L 147.876746 265.769052 
L 148.690417 266.009998 
L 149.504087 265.91362 
L 150.317758 266.347323 
L 151.131429 265.865431 
L 152.75877 265.672674 
L 153.57244 266.515985 
L 154.386111 265.720863 
L 155.199781 265.504012 
L 156.013452 265.60039 
L 156.827122 265.985904 
L 157.640793 265.624485 
L 158.454463 266.275039 
L 159.268134 266.154566 
L 160.895475 266.299133 
L 161.709146 265.889525 
L 162.522816 266.275039 
L 163.336487 265.937715 
L 164.150157 265.901573 
L 164.963828 265.60039 
L 165.777498 265.455823 
L 166.591169 265.60039 
L 168.21851 266.028918 
L 169.03218 265.805194 
L 169.845851 266.600316 
L 170.659522 265.937715 
L 171.473192 265.829289 
L 172.286863 265.588343 
L 173.100533 266.118424 
L 173.914204 265.273278 
L 174.727874 266.311181 
L 175.541545 265.817242 
L 176.355215 266.914273 
L 177.168886 265.275113 
L 177.982556 266.01679 
L 178.796227 265.189506 
L 179.609897 265.476726 
L 180.423568 266.051167 
L 181.237239 266.242647 
L 182.050909 265.117701 
L 182.86458 265.680174 
L 183.67825 264.226999 
L 184.491921 264.20817 
L 185.305591 264.034242 
L 186.119262 264.202904 
L 186.932932 263.142742 
L 187.746603 257.22752 
L 188.560273 257.745714 
L 189.373944 254.02294 
L 190.187614 246.589759 
L 191.001285 249.565441 
L 191.814956 247.481259 
L 192.628626 240.590206 
L 193.442297 232.048674 
L 194.255967 233.711201 
L 195.069638 224.386594 
L 195.883308 225.422662 
L 196.696979 222.615642 
L 197.510649 212.373986 
L 198.32432 213.392751 
L 199.13799 210.42378 
L 199.951661 201.894295 
L 200.765332 205.665098 
L 201.579002 203.775128 
L 202.392673 193.199382 
L 204.020014 204.80974 
L 204.833684 201.385883 
L 205.647355 217.7225 
L 206.461025 208.236119 
L 207.274696 205.567363 
L 208.088366 199.116875 
L 208.902037 204.1911 
L 209.715707 207.595495 
L 210.529378 201.167576 
L 211.343049 209.329821 
L 212.156719 197.116774 
L 212.97039 205.580767 
L 213.78406 202.364139 
L 214.597731 205.014544 
L 215.411401 215.48843 
L 216.225072 199.930586 
L 217.038742 206.795037 
L 217.852413 199.404095 
L 218.666083 215.772779 
L 219.479754 206.334168 
L 220.293424 198.802587 
L 221.107095 198.733914 
L 221.920766 196.991046 
L 222.734436 193.073281 
L 223.548107 205.990375 
L 224.361777 200.112427 
L 225.175448 198.482597 
L 225.989118 198.015066 
L 227.616459 199.50893 
L 228.43013 197.6416 
L 229.2438 210.737009 
L 230.057471 215.442408 
L 230.871141 204.648355 
L 231.684812 203.823641 
L 232.498483 213.914261 
L 233.312153 218.935315 
L 234.125824 217.810128 
L 234.939494 214.542997 
L 235.753165 216.074839 
L 236.566835 209.568422 
L 237.380506 218.700271 
L 238.194176 216.721084 
L 239.007847 217.881055 
L 239.821517 225.78049 
L 240.635188 226.892432 
L 241.448859 229.996187 
L 242.262529 221.263919 
L 243.0762 226.518966 
L 243.88987 227.699601 
L 244.703541 223.374622 
L 245.517211 229.047621 
L 246.330882 230.579462 
L 247.144552 225.904554 
L 247.958223 231.578829 
L 248.771893 230.578904 
L 249.585564 224.892581 
L 250.399234 225.229905 
L 251.212905 269.045917 
L 252.026576 267.817093 
L 252.840246 267.07016 
L 253.653917 266.756931 
L 254.467587 266.202755 
L 255.281258 265.865431 
L 256.094928 265.937715 
L 256.908599 265.528106 
L 257.722269 265.455823 
L 258.53594 265.937715 
L 259.34961 265.889525 
L 260.163281 265.60039 
L 260.976951 265.479917 
L 261.790622 265.479917 
L 262.604293 265.166688 
L 263.417963 265.528106 
L 264.231634 265.166688 
L 265.045304 265.672674 
L 265.858975 265.937715 
L 267.486316 265.407634 
L 268.299986 268.395363 
L 269.113657 266.997876 
L 269.927327 266.949687 
L 270.740998 267.455674 
L 271.554668 266.612363 
L 272.368339 266.80512 
L 273.18201 266.636458 
L 273.99568 266.275039 
L 274.809351 266.443701 
L 275.623021 265.817242 
L 276.436692 265.865431 
L 278.064033 266.853309 
L 278.877703 266.708741 
L 280.505044 266.829214 
L 281.318715 266.323228 
L 282.132386 266.636458 
L 282.946056 266.17866 
L 284.573397 266.540079 
L 285.387068 269.527808 
L 287.014409 266.467795 
L 287.828079 266.708741 
L 289.45542 266.17866 
L 290.269091 265.961809 
L 291.082761 266.202755 
L 291.896432 265.576296 
L 293.523773 266.275039 
L 294.337444 265.985904 
L 295.151114 266.17866 
L 295.964785 265.696769 
L 296.778455 265.672674 
L 297.592126 266.250944 
L 298.405796 265.720863 
L 299.219467 265.431728 
L 300.033137 266.17866 
L 303.28782 265.552201 
L 304.10149 266.130471 
L 305.728831 265.407634 
L 306.542502 265.347397 
L 307.356172 265.91362 
L 308.169843 265.287161 
L 308.983513 265.720863 
L 309.797184 265.094404 
L 310.610854 264.672749 
L 311.424525 264.865505 
L 312.238195 264.226999 
L 313.051866 264.770643 
L 314.679207 262.592556 
L 315.492878 258.739017 
L 316.306548 252.659521 
L 317.120219 251.809828 
L 317.933889 247.168029 
L 318.74756 244.240536 
L 319.56123 237.891612 
L 320.374901 233.643145 
L 321.188571 236.024281 
L 322.002242 236.590504 
L 322.815913 233.337735 
L 323.629583 226.121405 
L 324.443254 223.853721 
L 325.256924 224.603446 
L 326.070595 211.809219 
L 326.884265 219.96428 
L 327.697936 221.049494 
L 328.511606 219.146021 
L 329.325277 215.724589 
L 330.138947 209.887715 
L 330.952618 212.628435 
L 331.766288 217.77263 
L 332.579959 206.429024 
L 333.39363 206.918017 
L 334.2073 201.171457 
L 335.020971 193.906938 
L 335.834641 196.30435 
L 336.648312 201.520829 
L 337.461982 189.883142 
L 338.275653 200.40043 
L 339.089323 194.882769 
L 339.902994 198.810187 
L 340.716664 190.545743 
L 341.530335 189.754988 
L 342.344005 197.039235 
L 343.157676 203.07493 
L 343.971347 178.779013 
L 344.785017 180.630819 
L 345.598688 191.962311 
L 346.412358 192.047208 
L 347.226029 193.05158 
L 348.039699 193.36481 
L 348.85337 187.678487 
L 349.66704 193.696636 
L 350.480711 187.859196 
L 351.294381 185.546116 
L 352.108052 188.678412 
L 352.921722 185.08565 
L 353.735393 192.544462 
L 354.549064 186.310593 
L 355.362734 177.329861 
L 356.176405 182.799332 
L 356.990075 173.002662 
L 357.803746 193.288697 
L 358.617416 188.425419 
L 359.431087 184.600524 
L 360.244757 176.787732 
L 361.058428 179.498374 
L 361.872098 186.172575 
L 362.685769 169.282268 
L 363.49944 177.467646 
L 364.31311 182.317441 
L 365.126781 180.734777 
L 365.940451 184.714852 
L 366.754122 185.642494 
L 367.567792 188.69046 
L 368.381463 177.602582 
L 369.195133 195.77055 
L 370.008804 189.912654 
L 370.822474 182.100589 
L 371.636145 178.113892 
L 373.263486 194.084737 
L 374.890827 186.104415 
L 375.704498 192.956819 
L 376.518168 179.895934 
L 377.331839 182.425866 
L 378.145509 177.594901 
L 378.95918 180.883813 
L 379.77285 181.786794 
L 380.586521 188.714554 
L 381.400191 182.823427 
L 382.213862 188.461561 
L 383.027532 173.806471 
L 383.841203 182.732789 
L 384.654874 198.123492 
L 385.468544 188.845377 
L 386.282215 197.759566 
L 387.095885 196.765058 
L 387.909556 201.070551 
L 388.723226 181.245231 
L 389.536897 181.184995 
L 390.350567 190.87102 
L 391.164238 191.991418 
L 391.977908 188.094797 
L 392.791579 187.438511 
L 393.605249 180.703103 
L 394.41892 188.093431 
L 395.232591 190.136135 
L 396.046261 175.992611 
L 396.859932 185.232886 
L 397.673602 268.443552 
L 398.487273 266.299133 
L 398.487273 266.299133 
" clip-path="url(#p2ee0f2ca07)" style="fill: none; stroke: #0000ff; stroke-width: 1.5; stroke-linecap: square"/>
   </g>
   <g id="line2d_34">
    <path d="M 73.832727 275.196895 
L 74.646398 271.181207 
L 75.460068 269.997175 
L 76.273739 269.967846 
L 77.087409 269.414399 
L 77.90108 270.08023 
L 79.528421 268.253532 
L 80.342092 269.997175 
L 81.155762 268.218364 
L 81.969433 268.884493 
L 82.783103 270.960151 
L 83.596774 269.265493 
L 84.410444 269.384986 
L 85.224115 270.479953 
L 86.037785 271.299654 
L 86.851456 268.979511 
L 87.665126 270.025016 
L 88.478797 269.041836 
L 89.292468 268.477838 
L 90.106138 268.477838 
L 90.919809 274.053287 
L 92.54715 271.738328 
L 93.36082 271.648386 
L 94.174491 270.662025 
L 94.988161 269.204627 
L 95.801832 268.852407 
L 96.615502 269.80042 
L 97.429173 268.948044 
L 98.242843 270.161885 
L 99.056514 268.147223 
L 99.870185 269.010775 
L 100.683855 267.335973 
L 101.497526 266.801758 
L 102.311196 267.976193 
L 103.124867 268.578969 
L 103.938537 266.703627 
L 104.752208 267.294351 
L 105.565878 268.591182 
L 106.379549 268.525626 
L 107.193219 267.898684 
L 108.00689 267.033788 
L 108.82056 268.963219 
L 109.634231 268.253532 
L 110.447902 268.323079 
L 111.261572 269.714497 
L 112.075243 268.979511 
L 112.888913 269.509148 
L 113.702584 268.288436 
L 114.516254 267.976193 
L 115.329925 268.288436 
L 116.143595 269.941021 
L 116.957266 270.610718 
L 117.770936 269.041836 
L 118.584607 268.612214 
L 119.398278 269.597602 
L 120.211948 270.187738 
L 121.025619 269.080613 
L 121.839289 268.545493 
L 122.65296 268.787604 
L 123.46663 267.435638 
L 124.280301 267.595905 
L 125.093971 267.635003 
L 125.907642 268.357464 
L 126.721312 275.221068 
L 127.534983 271.39145 
L 128.348653 269.85688 
L 129.162324 270.234024 
L 130.789665 267.976193 
L 131.603336 268.993839 
L 132.417006 267.537305 
L 133.230677 269.194161 
L 134.044347 268.012591 
L 135.671688 268.525626 
L 136.485359 267.976193 
L 137.299029 267.902483 
L 138.1127 268.525626 
L 138.92637 267.166539 
L 139.740041 269.143004 
L 140.553712 267.976193 
L 141.367382 267.252247 
L 142.181053 266.703627 
L 142.994723 267.209648 
L 143.808394 273.254567 
L 144.622064 269.596684 
L 145.435735 269.16409 
L 146.249405 269.698621 
L 147.063076 268.838628 
L 147.876746 268.492487 
L 148.690417 268.993839 
L 149.504087 269.041836 
L 150.317758 270.161885 
L 151.131429 269.143004 
L 151.945099 268.64523 
L 152.75877 268.357464 
L 153.57244 270.610718 
L 154.386111 268.612214 
L 155.199781 267.902483 
L 156.013452 268.253532 
L 156.827122 269.449915 
L 157.640793 268.084494 
L 158.454463 270.08023 
L 159.268134 269.501546 
L 160.081805 269.85688 
L 160.895475 270.372758 
L 161.709146 268.838628 
L 162.522816 270.554186 
L 163.336487 269.633624 
L 164.150157 269.585859 
L 164.963828 268.381724 
L 165.777498 268.169969 
L 166.591169 268.563633 
L 167.404839 269.089427 
L 169.03218 270.79372 
L 169.845851 272.448666 
L 170.659522 271.252415 
L 171.473192 270.926149 
L 172.286863 270.312189 
L 173.100533 271.808791 
L 173.914204 272.922475 
L 174.727874 274.914409 
L 175.541545 272.723988 
L 176.355215 274.731804 
L 177.982556 272.89823 
L 178.796227 271.370027 
L 179.609897 271.721818 
L 180.423568 273.144722 
L 181.237239 273.280581 
L 182.050909 271.33839 
L 182.86458 272.421655 
L 183.67825 281.382465 
L 184.491921 280.83377 
L 185.305591 280.873758 
L 186.932932 285.067442 
L 187.746603 288.286944 
L 188.560273 290.024455 
L 189.373944 288.969916 
L 190.187614 295.488 
L 191.001285 289.499432 
L 191.814956 291.256699 
L 192.628626 288.981093 
L 193.442297 287.087048 
L 194.255967 289.102746 
L 195.069638 283.808109 
L 195.883308 284.662562 
L 196.696979 283.255287 
L 197.510649 277.862834 
L 198.32432 281.356349 
L 199.13799 281.337743 
L 199.951661 273.455081 
L 200.765332 274.563013 
L 201.579002 275.898298 
L 202.392673 269.055062 
L 203.206343 272.837667 
L 204.020014 279.72724 
L 204.833684 273.044771 
L 205.647355 286.881231 
L 206.461025 276.617646 
L 207.274696 275.453636 
L 208.088366 271.645782 
L 208.902037 275.345042 
L 209.715707 275.495538 
L 210.529378 270.581957 
L 211.343049 278.616972 
L 212.156719 269.20785 
L 212.97039 277.18851 
L 213.78406 274.518233 
L 214.597731 277.464885 
L 215.411401 282.441608 
L 216.225072 270.46886 
L 217.038742 278.705288 
L 217.852413 275.102273 
L 218.666083 286.440617 
L 219.479754 281.341699 
L 220.293424 275.323841 
L 221.107095 275.621494 
L 221.920766 273.707086 
L 222.734436 268.051295 
L 223.548107 281.091318 
L 224.361777 272.914738 
L 225.175448 270.331449 
L 225.989118 273.396291 
L 226.802789 269.645581 
L 227.616459 274.014611 
L 228.43013 274.455334 
L 229.2438 282.926733 
L 230.057471 282.576956 
L 230.871141 276.437062 
L 231.684812 276.21599 
L 232.498483 283.898846 
L 233.312153 282.459918 
L 234.125824 283.769942 
L 234.939494 283.227228 
L 235.753165 285.906489 
L 236.566835 278.672076 
L 237.380506 283.9033 
L 238.194176 287.079789 
L 239.007847 283.946304 
L 239.821517 285.145374 
L 240.635188 285.245978 
L 241.448859 291.788585 
L 242.262529 284.236996 
L 243.0762 283.198977 
L 243.88987 282.842247 
L 244.703541 283.175851 
L 245.517211 285.667589 
L 247.144552 276.79254 
L 247.958223 281.464558 
L 248.771893 279.473116 
L 249.585564 273.604502 
L 250.399234 283.674248 
L 251.212905 274.389051 
L 252.840246 271.532801 
L 253.653917 271.108723 
L 254.467587 269.85688 
L 255.281258 269.143004 
L 256.094928 269.072698 
L 256.908599 267.712092 
L 257.722269 267.335973 
L 258.53594 269.072698 
L 259.34961 268.838628 
L 260.163281 267.825066 
L 260.976951 267.377127 
L 261.790622 267.86516 
L 262.604293 265.929006 
L 263.417963 267.939492 
L 264.231634 265.929006 
L 265.045304 268.155235 
L 265.858975 269.072698 
L 267.486316 267.516564 
L 268.299986 273.476351 
L 269.113657 271.345665 
L 269.927327 271.417853 
L 270.740998 272.538205 
L 271.554668 270.838268 
L 272.368339 271.391011 
L 273.18201 271.103779 
L 273.99568 270.08023 
L 274.809351 270.402846 
L 275.623021 268.916372 
L 276.436692 269.143004 
L 278.064033 271.438947 
L 279.691374 270.962518 
L 280.505044 271.299654 
L 281.318715 270.269522 
L 282.132386 270.985247 
L 282.946056 269.969177 
L 284.573397 270.506842 
L 285.387068 275.491207 
L 286.200738 273.393521 
L 287.014409 270.294893 
L 287.828079 270.937943 
L 288.64175 270.215549 
L 289.45542 269.682663 
L 290.269091 269.420033 
L 291.082761 269.85688 
L 291.896432 268.218364 
L 292.710103 269.265493 
L 293.523773 269.794911 
L 294.337444 269.133823 
L 295.151114 269.682663 
L 295.964785 268.578969 
L 296.778455 268.357464 
L 297.592126 269.912688 
L 298.405796 268.224846 
L 299.219467 267.294351 
L 300.033137 269.682663 
L 300.846808 269.269055 
L 301.660478 268.327206 
L 302.474149 268.042046 
L 303.28782 268.11587 
L 304.10149 270.003709 
L 304.915161 268.795394 
L 305.728831 268.593773 
L 307.356172 269.477747 
L 308.169843 268.877659 
L 308.983513 269.992135 
L 309.797184 270.297608 
L 310.610854 269.984786 
L 311.424525 271.069909 
L 313.051866 273.706969 
L 313.865537 276.619534 
L 314.679207 275.908885 
L 315.492878 284.581117 
L 316.306548 284.698706 
L 317.120219 288.155659 
L 317.933889 288.796968 
L 318.74756 284.693482 
L 319.56123 281.541573 
L 320.374901 284.474699 
L 322.002242 285.501536 
L 322.815913 285.05462 
L 323.629583 282.135006 
L 324.443254 280.109771 
L 325.256924 286.353608 
L 326.070595 275.207557 
L 326.884265 279.731705 
L 327.697936 279.477006 
L 328.511606 281.89932 
L 329.325277 281.20981 
L 330.138947 275.352367 
L 330.952618 278.079006 
L 331.766288 282.463462 
L 332.579959 271.008721 
L 333.39363 269.690214 
L 334.2073 269.230992 
L 335.020971 262.433334 
L 335.834641 262.849267 
L 336.648312 270.050867 
L 337.461982 261.68747 
L 338.275653 267.422008 
L 339.089323 270.181157 
L 339.902994 269.371929 
L 340.716664 260.089842 
L 341.530335 263.840738 
L 342.344005 269.049283 
L 343.157676 273.53142 
L 343.971347 251.621036 
L 344.785017 253.367993 
L 345.598688 265.863793 
L 346.412358 264.50824 
L 347.226029 264.588288 
L 348.039699 263.67085 
L 348.85337 259.21982 
L 349.66704 271.251488 
L 350.480711 262.865911 
L 351.294381 259.192664 
L 352.108052 267.432736 
L 352.921722 258.747636 
L 353.735393 268.833654 
L 354.549064 260.477731 
L 355.362734 253.985522 
L 356.176405 261.476028 
L 356.990075 249.42794 
L 357.803746 272.49928 
L 358.617416 270.214897 
L 359.431087 263.966894 
L 360.244757 254.198437 
L 361.058428 258.620803 
L 361.872098 264.716319 
L 362.685769 247.620283 
L 364.31311 261.853387 
L 365.126781 261.010164 
L 365.940451 264.926321 
L 366.754122 262.216944 
L 367.567792 267.866253 
L 368.381463 256.306083 
L 369.195133 271.559247 
L 370.008804 267.75577 
L 370.822474 258.71948 
L 371.636145 255.969929 
L 372.449815 263.117993 
L 373.263486 271.29637 
L 374.077157 267.74404 
L 374.890827 265.672433 
L 375.704498 269.915411 
L 376.518168 258.988149 
L 377.331839 263.332564 
L 378.145509 257.957695 
L 378.95918 261.413086 
L 379.77285 263.174418 
L 380.586521 271.719433 
L 381.400191 264.277939 
L 382.213862 269.294817 
L 383.027532 252.200625 
L 384.654874 276.217704 
L 385.468544 270.476526 
L 386.282215 273.923955 
L 387.095885 272.259012 
L 387.909556 281.9566 
L 388.723226 261.635537 
L 389.536897 261.785901 
L 390.350567 269.337893 
L 391.164238 271.320454 
L 391.977908 268.534088 
L 392.791579 267.378544 
L 393.605249 263.94829 
L 394.41892 268.637052 
L 395.232591 270.745596 
L 396.046261 254.881657 
L 396.859932 266.583184 
L 397.673602 273.809726 
L 398.487273 269.34536 
L 398.487273 269.34536 
" clip-path="url(#p2ee0f2ca07)" style="fill: none; stroke-dasharray: 9.6,2.4,1.5,2.4; stroke-dashoffset: 0; stroke: #008000; stroke-width: 1.5"/>
   </g>
   <g id="line2d_35">
    <path d="M 73.832727 263.762343 
L 74.646398 262.477222 
L 75.460068 262.408335 
L 77.087409 262.750165 
L 77.90108 262.469848 
L 78.714751 262.640275 
L 79.528421 262.947249 
L 80.342092 262.408335 
L 81.155762 262.934227 
L 81.969433 262.701801 
L 82.783103 262.264575 
L 83.596774 262.658125 
L 84.410444 262.731389 
L 85.224115 262.31107 
L 86.037785 262.358775 
L 86.851456 262.751351 
L 87.665126 262.428683 
L 88.478797 262.785403 
L 90.106138 262.771132 
L 90.919809 263.267519 
L 91.733479 262.335918 
L 92.54715 262.353803 
L 93.36082 262.491935 
L 94.174491 262.466322 
L 95.801832 262.685698 
L 96.615502 262.508711 
L 97.429173 262.734629 
L 98.242843 262.53276 
L 99.056514 262.90899 
L 99.870185 262.768276 
L 100.683855 263.575673 
L 101.497526 263.868941 
L 102.311196 263.128209 
L 103.124867 262.814568 
L 103.938537 263.870694 
L 104.752208 263.569106 
L 105.565878 263.09149 
L 106.379549 263.060668 
L 107.193219 263.398475 
L 108.00689 263.877857 
L 108.82056 263.008588 
L 110.447902 262.97408 
L 111.261572 262.450068 
L 112.075243 262.751351 
L 112.888913 262.559038 
L 113.702584 262.960534 
L 114.516254 263.128209 
L 115.329925 262.960534 
L 116.143595 262.36811 
L 116.957266 262.421251 
L 117.770936 262.785403 
L 118.584607 262.829512 
L 119.398278 262.374206 
L 120.211948 262.314151 
L 121.839289 262.799855 
L 122.65296 262.654123 
L 123.46663 263.283251 
L 125.093971 263.324832 
L 125.907642 262.987884 
L 126.721312 263.497224 
L 127.534983 262.700681 
L 128.348653 262.54863 
L 129.162324 262.846134 
L 129.975995 262.820259 
L 130.789665 263.128209 
L 131.603336 263.026158 
L 132.417006 263.615286 
L 133.230677 262.874025 
L 134.044347 263.14 
L 134.858018 263.259088 
L 135.671688 263.060668 
L 137.299029 263.105541 
L 138.1127 263.060668 
L 138.92637 263.55235 
L 139.740041 262.587858 
L 141.367382 263.56302 
L 142.181053 263.870694 
L 143.808394 263.198835 
L 144.622064 262.616069 
L 145.435735 262.855907 
L 147.876746 263.045618 
L 148.690417 263.026158 
L 150.317758 262.53276 
L 151.131429 262.587858 
L 152.75877 262.987884 
L 153.57244 262.421251 
L 154.386111 262.829512 
L 155.199781 263.105541 
L 156.013452 262.947249 
L 156.827122 262.521893 
L 157.640793 263.164476 
L 158.454463 262.469848 
L 159.268134 262.807585 
L 160.895475 262.225508 
L 161.709146 262.940422 
L 162.522816 261.995891 
L 163.336487 262.241806 
L 164.150157 262.217286 
L 164.963828 262.819056 
L 167.404839 262.641434 
L 168.21851 262.166983 
L 169.03218 260.816669 
L 171.473192 260.732429 
L 172.286863 260.864497 
L 173.100533 260.428057 
L 173.914204 257.624082 
L 174.727874 257.707953 
L 175.541545 258.910495 
L 176.355215 259.096742 
L 177.168886 256.73579 
L 177.982556 259.13535 
L 178.796227 259.008984 
L 179.609897 259.231634 
L 180.423568 258.957611 
L 181.237239 259.204712 
L 182.050909 258.897012 
L 182.86458 258.938693 
L 183.67825 247.071532 
L 184.491921 247.58257 
L 185.305591 247.194726 
L 186.119262 245.517771 
L 186.932932 241.218042 
L 187.746603 226.168096 
L 188.560273 225.466972 
L 189.373944 219.075963 
L 190.187614 197.691518 
L 191.001285 209.631449 
L 191.814956 203.705818 
L 192.628626 192.199319 
L 193.442297 177.0103 
L 194.255967 178.319655 
L 195.069638 164.96508 
L 195.883308 166.182761 
L 196.696979 161.975998 
L 197.510649 146.885138 
L 198.32432 145.429152 
L 199.13799 139.509816 
L 199.951661 130.333509 
L 200.765332 136.767183 
L 201.579002 131.651958 
L 202.392673 117.343702 
L 203.206343 125.592221 
L 204.020014 129.89224 
L 204.833684 129.726995 
L 205.647355 148.563769 
L 206.461025 139.854591 
L 207.274696 135.68109 
L 208.088366 126.587967 
L 209.715707 139.695452 
L 210.529378 131.753195 
L 211.343049 140.042669 
L 212.156719 125.025698 
L 212.97039 133.973024 
L 213.78406 130.210046 
L 214.597731 132.564203 
L 215.411401 148.535253 
L 216.225072 129.392312 
L 217.038742 134.884787 
L 217.852413 123.705917 
L 218.666083 145.10494 
L 219.479754 131.326637 
L 220.293424 122.281333 
L 221.107095 121.846335 
L 221.920766 120.275006 
L 222.734436 118.095268 
L 223.548107 130.889433 
L 224.361777 127.310116 
L 225.175448 126.633744 
L 225.989118 122.633841 
L 226.802789 127.950699 
L 227.616459 125.00325 
L 228.43013 120.827865 
L 229.2438 138.547286 
L 230.057471 148.30786 
L 230.871141 132.859648 
L 231.684812 131.431292 
L 233.312153 155.410711 
L 234.125824 151.850313 
L 234.939494 145.858766 
L 235.753165 146.243188 
L 236.566835 140.464767 
L 237.380506 153.497243 
L 238.194176 146.362379 
L 239.007847 151.815807 
L 239.821517 166.415606 
L 240.635188 168.538886 
L 241.448859 168.203789 
L 242.262529 158.290843 
L 243.0762 169.838954 
L 243.88987 172.556954 
L 244.703541 163.573392 
L 245.517211 172.427653 
L 246.330882 180.014028 
L 247.144552 175.016567 
L 247.958223 181.693101 
L 248.771893 181.684692 
L 249.585564 176.18066 
L 250.399234 166.785562 
L 251.212905 263.702782 
L 252.026576 262.590121 
L 252.840246 262.60752 
L 253.653917 262.405138 
L 256.094928 262.802732 
L 256.908599 263.344121 
L 257.722269 263.575673 
L 258.53594 262.802732 
L 259.34961 262.940422 
L 260.163281 263.375714 
L 260.976951 263.582707 
L 261.790622 263.094675 
L 262.604293 264.404369 
L 263.417963 263.116721 
L 264.231634 264.404369 
L 265.045304 263.190113 
L 265.858975 262.802732 
L 266.672645 262.960534 
L 267.486316 263.298703 
L 268.299986 263.314374 
L 269.113657 262.650088 
L 270.740998 262.373143 
L 271.554668 262.386458 
L 272.368339 262.219229 
L 273.18201 262.169136 
L 273.99568 262.469848 
L 274.809351 262.484556 
L 275.623021 262.718112 
L 278.877703 262.239276 
L 279.691374 262.503154 
L 280.505044 262.358775 
L 283.759727 262.398161 
L 284.573397 262.573316 
L 285.387068 263.56441 
L 286.200738 262.626177 
L 287.014409 262.640698 
L 287.828079 262.47954 
L 289.45542 262.674658 
L 290.269091 262.503585 
L 291.082761 262.54863 
L 291.896432 262.934227 
L 292.710103 262.658125 
L 294.337444 262.837985 
L 295.151114 262.674658 
L 296.778455 262.987884 
L 297.592126 262.589201 
L 298.405796 263.21688 
L 299.219467 263.569106 
L 300.033137 262.674658 
L 300.846808 262.799131 
L 301.660478 263.259088 
L 302.474149 263.44787 
L 303.28782 262.988532 
L 304.10149 262.257233 
L 304.915161 262.742711 
L 306.542502 261.717001 
L 307.356172 262.349493 
L 308.169843 261.696662 
L 308.983513 261.449592 
L 309.797184 259.8912 
L 310.610854 259.360711 
L 311.424525 258.661102 
L 312.238195 256.085451 
L 313.051866 255.834317 
L 313.865537 250.81547 
L 314.679207 249.276227 
L 315.492878 232.896917 
L 316.306548 220.620336 
L 317.120219 215.463997 
L 317.933889 205.53909 
L 318.74756 203.787591 
L 319.56123 194.241651 
L 320.374901 182.811592 
L 321.188571 187.057955 
L 322.002242 187.679472 
L 322.815913 181.620849 
L 323.629583 170.107804 
L 324.443254 167.597671 
L 325.256924 162.853284 
L 326.070595 148.41088 
L 326.884265 160.196855 
L 327.697936 162.621981 
L 330.138947 144.423064 
L 330.952618 147.177863 
L 331.766288 153.081797 
L 332.579959 141.849327 
L 333.39363 144.145819 
L 334.2073 133.111922 
L 335.020971 125.380543 
L 335.834641 129.759433 
L 336.648312 132.99079 
L 337.461982 118.078813 
L 338.275653 133.378852 
L 339.089323 119.584381 
L 339.902994 128.248446 
L 340.716664 121.001644 
L 341.530335 115.669237 
L 342.344005 125.029187 
L 343.157676 132.618439 
L 343.971347 105.936989 
L 344.785017 107.893645 
L 345.598688 118.060829 
L 346.412358 119.586176 
L 347.226029 121.514873 
L 348.039699 123.05877 
L 348.85337 116.137154 
L 349.66704 116.141785 
L 350.480711 112.852482 
L 351.294381 111.899567 
L 352.108052 109.924088 
L 352.921722 111.423665 
L 353.735393 116.25527 
L 354.549064 112.143455 
L 355.362734 100.674199 
L 356.176405 104.122637 
L 356.990075 96.577385 
L 357.803746 114.078113 
L 358.617416 106.635941 
L 359.431087 105.234155 
L 360.244757 99.377027 
L 361.058428 100.375944 
L 361.872098 107.628831 
L 362.685769 90.944252 
L 363.49944 100.466838 
L 364.31311 102.781494 
L 365.126781 100.45939 
L 366.754122 109.068044 
L 367.567792 109.514666 
L 368.381463 98.899081 
L 369.195133 119.981853 
L 370.008804 112.069538 
L 370.822474 105.481698 
L 371.636145 100.257856 
L 373.263486 116.873104 
L 374.077157 112.094527 
L 374.890827 106.536396 
L 375.704498 115.998228 
L 376.518168 100.803719 
L 377.331839 101.519168 
L 378.145509 97.232107 
L 378.95918 100.354539 
L 379.77285 100.399169 
L 380.586521 105.709675 
L 381.400191 101.368915 
L 382.213862 107.628305 
L 383.027532 95.412318 
L 383.841203 101.798495 
L 384.654874 120.029279 
L 385.468544 107.214227 
L 386.282215 121.595177 
L 387.095885 121.271104 
L 387.909556 120.184502 
L 388.723226 100.854926 
L 389.536897 100.584089 
L 390.350567 112.404147 
L 391.164238 112.662383 
L 391.977908 107.655505 
L 392.791579 107.498478 
L 393.605249 97.457916 
L 394.41892 107.549811 
L 395.232591 109.526674 
L 396.046261 97.103564 
L 396.859932 103.882588 
L 397.673602 263.077378 
L 398.487273 263.252906 
L 398.487273 263.252906 
" clip-path="url(#p2ee0f2ca07)" style="fill: none; stroke-dasharray: 9.6,2.4,1.5,2.4; stroke-dashoffset: 0; stroke: #008000; stroke-width: 1.5"/>
   </g>
   <g id="line2d_36">
    <path d="M 73.832727 264.998026 
L 161.709146 264.998026 
L 162.522816 250.541272 
L 168.21851 250.541272 
L 169.03218 223.434858 
L 173.100533 223.434858 
L 173.914204 199.942633 
L 182.86458 199.942633 
L 183.67825 100.55245 
L 186.932932 100.55245 
L 187.746603 98.745356 
L 200.765332 98.745356 
L 201.579002 93.324073 
L 205.647355 93.324073 
L 206.461025 89.709885 
L 208.902037 89.709885 
L 209.715707 87.90279 
L 211.343049 87.90279 
L 212.156719 55.375094 
L 217.852413 55.375094 
L 218.666083 53.568 
L 234.939494 53.568 
L 235.753165 68.024754 
L 247.144552 68.024754 
L 247.958223 75.253131 
L 250.399234 75.253131 
L 251.212905 264.998026 
L 302.474149 264.998026 
L 303.28782 250.541272 
L 304.915161 250.541272 
L 305.728831 248.734177 
L 308.169843 248.734177 
L 308.983513 239.698706 
L 309.797184 239.698706 
L 310.610854 227.049047 
L 311.424525 227.049047 
L 312.238195 212.592293 
L 313.051866 212.592293 
L 313.865537 178.257502 
L 314.679207 178.257502 
L 315.492878 68.024754 
L 331.766288 68.024754 
L 332.579959 93.324073 
L 333.39363 96.938262 
L 344.785017 96.938262 
L 345.598688 91.516979 
L 351.294381 91.516979 
L 352.108052 68.024754 
L 355.362734 68.024754 
L 356.176405 55.375094 
L 396.859932 55.375094 
L 397.673602 264.998026 
L 398.487273 264.998026 
L 398.487273 264.998026 
" clip-path="url(#p2ee0f2ca07)" style="fill: none; stroke: #ff0000; stroke-width: 1.5; stroke-linecap: square"/>
   </g>
   <g id="patch_3">
    <path d="M 57.6 307.584 
L 57.6 41.472 
" style="fill: none; stroke: #000000; stroke-width: 0.8; stroke-linejoin: miter; stroke-linecap: square"/>
   </g>
   <g id="patch_4">
    <path d="M 414.72 307.584 
L 414.72 41.472 
" style="fill: none; stroke: #000000; stroke-width: 0.8; stroke-linejoin: miter; stroke-linecap: square"/>
   </g>
   <g id="patch_5">
    <path d="M 57.6 307.584 
L 414.72 307.584 
" style="fill: none; stroke: #000000; stroke-width: 0.8; stroke-linejoin: miter; stroke-linecap: square"/>
   </g>
   <g id="patch_6">
    <path d="M 57.6 41.472 
L 414.72 41.472 
" style="fill: none; stroke: #000000; stroke-width: 0.8; stroke-linejoin: miter; stroke-linecap: square"/>
   </g>
   <g id="text_19">
    <!-- Population's average and best fitness -->
    <g transform="translate(123.529687 35.472)scale(0.12 -0.12)">
     <defs>
      <path id="DejaVuSans-50" d="M 1259 4147 
L 1259 2394 
L 2053 2394 
Q 2494 2394 2734 2622 
Q 2975 2850 2975 3272 
Q 2975 3691 2734 3919 
Q 2494 4147 2053 4147 
L 1259 4147 
z
M 628 4666 
L 2053 4666 
Q 2838 4666 3239 4311 
Q 3641 3956 3641 3272 
Q 3641 2581 3239 2228 
Q 2838 1875 2053 1875 
L 1259 1875 
L 1259 0 
L 628 0 
L 628 4666 
z
" transform="scale(0.015625)"/>
      <path id="DejaVuSans-70" d="M 1159 525 
L 1159 -1331 
L 581 -1331 
L 581 3500 
L 1159 3500 
L 1159 2969 
Q 1341 3281 1617 3432 
Q 1894 3584 2278 3584 
Q 2916 3584 3314 3078 
Q 3713 2572 3713 1747 
Q 3713 922 3314 415 
Q 2916 -91 2278 -91 
Q 1894 -91 1617 61 
Q 1341 213 1159 525 
z
M 3116 1747 
Q 3116 2381 2855 2742 
Q 2594 3103 2138 3103 
Q 1681 3103 1420 2742 
Q 1159 2381 1159 1747 
Q 1159 1113 1420 752 
Q 1681 391 2138 391 
Q 2594 391 2855 752 
Q 3116 1113 3116 1747 
z
" transform="scale(0.015625)"/>
      <path id="DejaVuSans-75" d="M 544 1381 
L 544 3500 
L 1119 3500 
L 1119 1403 
Q 1119 906 1312 657 
Q 1506 409 1894 409 
Q 2359 409 2629 706 
Q 2900 1003 2900 1516 
L 2900 3500 
L 3475 3500 
L 3475 0 
L 2900 0 
L 2900 538 
Q 2691 219 2414 64 
Q 2138 -91 1772 -91 
Q 1169 -91 856 284 
Q 544 659 544 1381 
z
M 1991 3584 
L 1991 3584 
z
" transform="scale(0.015625)"/>
      <path id="DejaVuSans-6c" d="M 603 4863 
L 1178 4863 
L 1178 0 
L 603 0 
L 603 4863 
z
" transform="scale(0.015625)"/>
      <path id="DejaVuSans-27" d="M 1147 4666 
L 1147 2931 
L 616 2931 
L 616 4666 
L 1147 4666 
z
" transform="scale(0.015625)"/>
      <path id="DejaVuSans-20" transform="scale(0.015625)"/>
      <path id="DejaVuSans-76" d="M 191 3500 
L 800 3500 
L 1894 563 
L 2988 3500 
L 3597 3500 
L 2284 0 
L 1503 0 
L 191 3500 
z
" transform="scale(0.015625)"/>
      <path id="DejaVuSans-67" d="M 2906 1791 
Q 2906 2416 2648 2759 
Q 2391 3103 1925 3103 
Q 1463 3103 1205 2759 
Q 947 2416 947 1791 
Q 947 1169 1205 825 
Q 1463 481 1925 481 
Q 2391 481 2648 825 
Q 2906 1169 2906 1791 
z
M 3481 434 
Q 3481 -459 3084 -895 
Q 2688 -1331 1869 -1331 
Q 1566 -1331 1297 -1286 
Q 1028 -1241 775 -1147 
L 775 -588 
Q 1028 -725 1275 -790 
Q 1522 -856 1778 -856 
Q 2344 -856 2625 -561 
Q 2906 -266 2906 331 
L 2906 616 
Q 2728 306 2450 153 
Q 2172 0 1784 0 
Q 1141 0 747 490 
Q 353 981 353 1791 
Q 353 2603 747 3093 
Q 1141 3584 1784 3584 
Q 2172 3584 2450 3431 
Q 2728 3278 2906 2969 
L 2906 3500 
L 3481 3500 
L 3481 434 
z
" transform="scale(0.015625)"/>
      <path id="DejaVuSans-64" d="M 2906 2969 
L 2906 4863 
L 3481 4863 
L 3481 0 
L 2906 0 
L 2906 525 
Q 2725 213 2448 61 
Q 2172 -91 1784 -91 
Q 1150 -91 751 415 
Q 353 922 353 1747 
Q 353 2572 751 3078 
Q 1150 3584 1784 3584 
Q 2172 3584 2448 3432 
Q 2725 3281 2906 2969 
z
M 947 1747 
Q 947 1113 1208 752 
Q 1469 391 1925 391 
Q 2381 391 2643 752 
Q 2906 1113 2906 1747 
Q 2906 2381 2643 2742 
Q 2381 3103 1925 3103 
Q 1469 3103 1208 2742 
Q 947 2381 947 1747 
z
" transform="scale(0.015625)"/>
      <path id="DejaVuSans-62" d="M 3116 1747 
Q 3116 2381 2855 2742 
Q 2594 3103 2138 3103 
Q 1681 3103 1420 2742 
Q 1159 2381 1159 1747 
Q 1159 1113 1420 752 
Q 1681 391 2138 391 
Q 2594 391 2855 752 
Q 3116 1113 3116 1747 
z
M 1159 2969 
Q 1341 3281 1617 3432 
Q 1894 3584 2278 3584 
Q 2916 3584 3314 3078 
Q 3713 2572 3713 1747 
Q 3713 922 3314 415 
Q 2916 -91 2278 -91 
Q 1894 -91 1617 61 
Q 1341 213 1159 525 
L 1159 0 
L 581 0 
L 581 4863 
L 1159 4863 
L 1159 2969 
z
" transform="scale(0.015625)"/>
      <path id="DejaVuSans-66" d="M 2375 4863 
L 2375 4384 
L 1825 4384 
Q 1516 4384 1395 4259 
Q 1275 4134 1275 3809 
L 1275 3500 
L 2222 3500 
L 2222 3053 
L 1275 3053 
L 1275 0 
L 697 0 
L 697 3053 
L 147 3053 
L 147 3500 
L 697 3500 
L 697 3744 
Q 697 4328 969 4595 
Q 1241 4863 1831 4863 
L 2375 4863 
z
" transform="scale(0.015625)"/>
     </defs>
     <use xlink:href="#DejaVuSans-50"/>
     <use xlink:href="#DejaVuSans-6f" x="56.677734"/>
     <use xlink:href="#DejaVuSans-70" x="117.859375"/>
     <use xlink:href="#DejaVuSans-75" x="181.335938"/>
     <use xlink:href="#DejaVuSans-6c" x="244.714844"/>
     <use xlink:href="#DejaVuSans-61" x="272.498047"/>
     <use xlink:href="#DejaVuSans-74" x="333.777344"/>
     <use xlink:href="#DejaVuSans-69" x="372.986328"/>
     <use xlink:href="#DejaVuSans-6f" x="400.769531"/>
     <use xlink:href="#DejaVuSans-6e" x="461.951172"/>
     <use xlink:href="#DejaVuSans-27" x="525.330078"/>
     <use xlink:href="#DejaVuSans-73" x="552.820312"/>
     <use xlink:href="#DejaVuSans-20" x="604.919922"/>
     <use xlink:href="#DejaVuSans-61" x="636.707031"/>
     <use xlink:href="#DejaVuSans-76" x="697.986328"/>
     <use xlink:href="#DejaVuSans-65" x="757.166016"/>
     <use xlink:href="#DejaVuSans-72" x="818.689453"/>
     <use xlink:href="#DejaVuSans-61" x="859.802734"/>
     <use xlink:href="#DejaVuSans-67" x="921.082031"/>
     <use xlink:href="#DejaVuSans-65" x="984.558594"/>
     <use xlink:href="#DejaVuSans-20" x="1046.082031"/>
     <use xlink:href="#DejaVuSans-61" x="1077.869141"/>
     <use xlink:href="#DejaVuSans-6e" x="1139.148438"/>
     <use xlink:href="#DejaVuSans-64" x="1202.527344"/>
     <use xlink:href="#DejaVuSans-20" x="1266.003906"/>
     <use xlink:href="#DejaVuSans-62" x="1297.791016"/>
     <use xlink:href="#DejaVuSans-65" x="1361.267578"/>
     <use xlink:href="#DejaVuSans-73" x="1422.791016"/>
     <use xlink:href="#DejaVuSans-74" x="1474.890625"/>
     <use xlink:href="#DejaVuSans-20" x="1514.099609"/>
     <use xlink:href="#DejaVuSans-66" x="1545.886719"/>
     <use xlink:href="#DejaVuSans-69" x="1581.091797"/>
     <use xlink:href="#DejaVuSans-74" x="1608.875"/>
     <use xlink:href="#DejaVuSans-6e" x="1648.083984"/>
     <use xlink:href="#DejaVuSans-65" x="1711.462891"/>
     <use xlink:href="#DejaVuSans-73" x="1772.986328"/>
     <use xlink:href="#DejaVuSans-73" x="1825.085938"/>
    </g>
   </g>
   <g id="legend_1">
    <g id="patch_7">
     <path d="M 64.6 108.1845 
L 137.540625 108.1845 
Q 139.540625 108.1845 139.540625 106.1845 
L 139.540625 48.472 
Q 139.540625 46.472 137.540625 46.472 
L 64.6 46.472 
Q 62.6 46.472 62.6 48.472 
L 62.6 106.1845 
Q 62.6 108.1845 64.6 108.1845 
z
" style="fill: #ffffff; opacity: 0.8; stroke: #cccccc; stroke-linejoin: miter"/>
    </g>
    <g id="line2d_37">
     <path d="M 66.6 54.570438 
L 76.6 54.570438 
L 86.6 54.570438 
" style="fill: none; stroke: #0000ff; stroke-width: 1.5; stroke-linecap: square"/>
    </g>
    <g id="text_20">
     <!-- average -->
     <g transform="translate(94.6 58.070438)scale(0.1 -0.1)">
      <use xlink:href="#DejaVuSans-61"/>
      <use xlink:href="#DejaVuSans-76" x="61.279297"/>
      <use xlink:href="#DejaVuSans-65" x="120.458984"/>
      <use xlink:href="#DejaVuSans-72" x="181.982422"/>
      <use xlink:href="#DejaVuSans-61" x="223.095703"/>
      <use xlink:href="#DejaVuSans-67" x="284.375"/>
      <use xlink:href="#DejaVuSans-65" x="347.851562"/>
     </g>
    </g>
    <g id="line2d_38">
     <path d="M 66.6 69.248563 
L 76.6 69.248563 
L 86.6 69.248563 
" style="fill: none; stroke-dasharray: 9.6,2.4,1.5,2.4; stroke-dashoffset: 0; stroke: #008000; stroke-width: 1.5"/>
    </g>
    <g id="text_21">
     <!-- -1 sd -->
     <g transform="translate(94.6 72.748563)scale(0.1 -0.1)">
      <defs>
       <path id="DejaVuSans-2d" d="M 313 2009 
L 1997 2009 
L 1997 1497 
L 313 1497 
L 313 2009 
z
" transform="scale(0.015625)"/>
      </defs>
      <use xlink:href="#DejaVuSans-2d"/>
      <use xlink:href="#DejaVuSans-31" x="36.083984"/>
      <use xlink:href="#DejaVuSans-20" x="99.707031"/>
      <use xlink:href="#DejaVuSans-73" x="131.494141"/>
      <use xlink:href="#DejaVuSans-64" x="183.59375"/>
     </g>
    </g>
    <g id="line2d_39">
     <path d="M 66.6 83.926688 
L 76.6 83.926688 
L 86.6 83.926688 
" style="fill: none; stroke-dasharray: 9.6,2.4,1.5,2.4; stroke-dashoffset: 0; stroke: #008000; stroke-width: 1.5"/>
    </g>
    <g id="text_22">
     <!-- +1 sd -->
     <g transform="translate(94.6 87.426688)scale(0.1 -0.1)">
      <defs>
       <path id="DejaVuSans-2b" d="M 2944 4013 
L 2944 2272 
L 4684 2272 
L 4684 1741 
L 2944 1741 
L 2944 0 
L 2419 0 
L 2419 1741 
L 678 1741 
L 678 2272 
L 2419 2272 
L 2419 4013 
L 2944 4013 
z
" transform="scale(0.015625)"/>
      </defs>
      <use xlink:href="#DejaVuSans-2b"/>
      <use xlink:href="#DejaVuSans-31" x="83.789062"/>
      <use xlink:href="#DejaVuSans-20" x="147.412109"/>
      <use xlink:href="#DejaVuSans-73" x="179.199219"/>
      <use xlink:href="#DejaVuSans-64" x="231.298828"/>
     </g>
    </g>
    <g id="line2d_40">
     <path d="M 66.6 98.604813 
L 76.6 98.604813 
L 86.6 98.604813 
" style="fill: none; stroke: #ff0000; stroke-width: 1.5; stroke-linecap: square"/>
    </g>
    <g id="text_23">
     <!-- best -->
     <g transform="translate(94.6 102.104813)scale(0.1 -0.1)">
      <use xlink:href="#DejaVuSans-62"/>
      <use xlink:href="#DejaVuSans-65" x="63.476562"/>
      <use xlink:href="#DejaVuSans-73" x="125"/>
      <use xlink:href="#DejaVuSans-74" x="177.099609"/>
     </g>
    </g>
   </g>
  </g>
 </g>
 <defs>
  <clipPath id="p2ee0f2ca07">
   <rect x="57.6" y="41.472" width="357.12" height="266.112"/>
  </clipPath>
 </defs>
</svg>
