<?xml version="1.0" encoding="UTF-8" standalone="no"?>
<!DOCTYPE svg PUBLIC "-//W3C//DTD SVG 1.1//EN"
 "http://www.w3.org/Graphics/SVG/1.1/DTD/svg11.dtd">
<!-- Generated by graphviz version 6.0.1 (20220911.1526)
 -->
<!-- Pages: 1 -->
<svg width="2120pt" height="201pt"
 viewBox="0.00 0.00 2120.00 200.98" xmlns="http://www.w3.org/2000/svg" xmlns:xlink="http://www.w3.org/1999/xlink">
<g id="graph0" class="graph" transform="scale(1 1) rotate(0) translate(4 196.98)">
<polygon fill="white" stroke="none" points="-4,4 -4,-196.98 2116,-196.98 2116,4 -4,4"/>
<!-- GHOST1 X -->
<g id="node1" class="node">
<title>GHOST1 X</title>
<ellipse fill="lightcoral" stroke="black" cx="43.13" cy="-146.31" rx="43.27" ry="43.27"/>
<text text-anchor="middle" x="43.13" y="-144.11" font-family="Times New Roman,serif" font-size="9.00">GHOST1 X</text>
</g>
<!-- RIGHT -->
<g id="node24" class="node">
<title>RIGHT</title>
<ellipse fill="lightblue" stroke="black" cx="488.13" cy="-31.82" rx="31.64" ry="31.64"/>
<text text-anchor="middle" x="488.13" y="-29.62" font-family="Times New Roman,serif" font-size="9.00">RIGHT</text>
</g>
<!-- GHOST1 X&#45;&gt;RIGHT -->
<g id="edge1" class="edge">
<title>GHOST1 X&#45;&gt;RIGHT</title>
<path fill="none" stroke="green" stroke-width="0.31" d="M72.79,-114.92C79.93,-109.05 87.89,-103.52 96.13,-99.64 219.96,-41.34 387.09,-33.26 456.19,-32.59"/>
</g>
<!-- GHOST1 Y -->
<g id="node2" class="node">
<title>GHOST1 Y</title>
<ellipse fill="lightcoral" stroke="black" cx="1372.13" cy="-146.31" rx="42.35" ry="42.35"/>
<text text-anchor="middle" x="1372.13" y="-144.11" font-family="Times New Roman,serif" font-size="9.00">GHOST1 Y</text>
</g>
<!-- UP -->
<g id="node22" class="node">
<title>UP</title>
<ellipse fill="lightblue" stroke="black" cx="1559.13" cy="-31.82" rx="20.51" ry="20.51"/>
<text text-anchor="middle" x="1559.13" y="-29.62" font-family="Times New Roman,serif" font-size="9.00">UP</text>
</g>
<!-- GHOST1 Y&#45;&gt;UP -->
<g id="edge2" class="edge">
<title>GHOST1 Y&#45;&gt;UP</title>
<path fill="none" stroke="green" stroke-width="0.57" d="M1402.16,-116C1409.05,-110.13 1416.58,-104.34 1424.13,-99.64 1459.67,-77.54 1474.05,-83.02 1511.13,-63.64 1522.02,-57.95 1533.62,-50.54 1542.69,-44.42"/>
</g>
<!-- DOWN -->
<g id="node23" class="node">
<title>DOWN</title>
<ellipse fill="lightblue" stroke="black" cx="852.13" cy="-31.82" rx="31.64" ry="31.64"/>
<text text-anchor="middle" x="852.13" y="-29.62" font-family="Times New Roman,serif" font-size="9.00">DOWN</text>
</g>
<!-- GHOST1 Y&#45;&gt;DOWN -->
<g id="edge3" class="edge">
<title>GHOST1 Y&#45;&gt;DOWN</title>
<path fill="none" stroke="green" stroke-width="0.75" d="M1343.54,-114.51C1336.73,-108.74 1329.11,-103.35 1321.13,-99.64 1242.66,-63.09 976.14,-41.47 883.88,-34.94"/>
</g>
<!-- GHOST2 X -->
<g id="node3" class="node">
<title>GHOST2 X</title>
<ellipse fill="lightcoral" stroke="black" cx="1894.13" cy="-146.31" rx="43.27" ry="43.27"/>
<text text-anchor="middle" x="1894.13" y="-144.11" font-family="Times New Roman,serif" font-size="9.00">GHOST2 X</text>
</g>
<!-- GHOST2 X&#45;&gt;UP -->
<g id="edge4" class="edge">
<title>GHOST2 X&#45;&gt;UP</title>
<path fill="none" stroke="red" stroke-width="0.27" d="M1864.36,-114.83C1857.51,-109.1 1849.93,-103.66 1842.13,-99.64 1751.51,-52.89 1627.7,-38.31 1579.5,-34.24"/>
</g>
<!-- LEFT -->
<g id="node25" class="node">
<title>LEFT</title>
<ellipse fill="lightblue" stroke="black" cx="1475.13" cy="-31.82" rx="26.74" ry="26.74"/>
<text text-anchor="middle" x="1475.13" y="-29.62" font-family="Times New Roman,serif" font-size="9.00">LEFT</text>
</g>
<!-- GHOST2 X&#45;&gt;LEFT -->
<g id="edge5" class="edge">
<title>GHOST2 X&#45;&gt;LEFT</title>
<path fill="none" stroke="green" stroke-width="0.24" d="M1864.98,-114.35C1858.03,-108.58 1850.26,-103.25 1842.13,-99.64 1714.14,-42.85 1662.2,-107.23 1529.13,-63.64 1517.85,-59.94 1506.29,-53.73 1496.78,-47.85"/>
</g>
<!-- GHOST2 Y -->
<g id="node4" class="node">
<title>GHOST2 Y</title>
<ellipse fill="lightcoral" stroke="black" cx="147.13" cy="-146.31" rx="42.35" ry="42.35"/>
<text text-anchor="middle" x="147.13" y="-144.11" font-family="Times New Roman,serif" font-size="9.00">GHOST2 Y</text>
</g>
<!-- GHOST2 Y&#45;&gt;RIGHT -->
<g id="edge6" class="edge">
<title>GHOST2 Y&#45;&gt;RIGHT</title>
<path fill="none" stroke="red" stroke-width="0.21" d="M176.33,-115.27C183.33,-109.38 191.12,-103.75 199.13,-99.64 285.51,-55.34 401.37,-40.05 456.47,-35.07"/>
</g>
<!-- GHOST3 X -->
<g id="node5" class="node">
<title>GHOST3 X</title>
<ellipse fill="lightcoral" stroke="black" cx="748.13" cy="-146.31" rx="43.27" ry="43.27"/>
<text text-anchor="middle" x="748.13" y="-144.11" font-family="Times New Roman,serif" font-size="9.00">GHOST3 X</text>
</g>
<!-- GHOST3 X&#45;&gt;DOWN -->
<g id="edge7" class="edge">
<title>GHOST3 X&#45;&gt;DOWN</title>
<path fill="none" stroke="green" stroke-width="0.56" d="M777.1,-113.97C794.17,-95.51 815.39,-72.56 830.9,-55.78"/>
</g>
<!-- GHOST3 Y -->
<g id="node6" class="node">
<title>GHOST3 Y</title>
<ellipse fill="lightcoral" stroke="black" cx="250.13" cy="-146.31" rx="42.35" ry="42.35"/>
<text text-anchor="middle" x="250.13" y="-144.11" font-family="Times New Roman,serif" font-size="9.00">GHOST3 Y</text>
</g>
<!-- GHOST3 Y&#45;&gt;DOWN -->
<g id="edge8" class="edge">
<title>GHOST3 Y&#45;&gt;DOWN</title>
<path fill="none" stroke="green" stroke-width="0.24" d="M278.74,-114.86C285.83,-108.91 293.8,-103.37 302.13,-99.64 349.65,-78.37 710.17,-45.29 820.29,-35.58"/>
</g>
<!-- GHOST3 Y&#45;&gt;RIGHT -->
<g id="edge9" class="edge">
<title>GHOST3 Y&#45;&gt;RIGHT</title>
<path fill="none" stroke="green" stroke-width="1.54" d="M280,-115.73C286.9,-109.88 294.47,-104.16 302.13,-99.64 352.82,-69.75 419.07,-49.92 457.28,-40.08"/>
</g>
<!-- GHOST4 X -->
<g id="node7" class="node">
<title>GHOST4 X</title>
<ellipse fill="lightcoral" stroke="black" cx="1060.13" cy="-146.31" rx="43.27" ry="43.27"/>
<text text-anchor="middle" x="1060.13" y="-144.11" font-family="Times New Roman,serif" font-size="9.00">GHOST4 X</text>
</g>
<!-- GHOST4 X&#45;&gt;DOWN -->
<g id="edge10" class="edge">
<title>GHOST4 X&#45;&gt;DOWN</title>
<path fill="none" stroke="red" stroke-width="0.36" d="M1029.5,-115.6C1022.77,-109.89 1015.45,-104.25 1008.13,-99.64 967.26,-73.86 914.74,-53.69 882.26,-42.52"/>
</g>
<!-- GHOST4 X&#45;&gt;LEFT -->
<g id="edge11" class="edge">
<title>GHOST4 X&#45;&gt;LEFT</title>
<path fill="none" stroke="green" stroke-width="0.17" d="M1089.83,-115.01C1096.97,-109.13 1104.92,-103.58 1113.13,-99.64 1228.98,-44.13 1386.07,-34.59 1448.23,-33.06"/>
</g>
<!-- GHOST4 Y -->
<g id="node8" class="node">
<title>GHOST4 Y</title>
<ellipse fill="lightcoral" stroke="black" cx="1998.13" cy="-146.31" rx="42.35" ry="42.35"/>
<text text-anchor="middle" x="1998.13" y="-144.11" font-family="Times New Roman,serif" font-size="9.00">GHOST4 Y</text>
</g>
<!-- GHOST4 Y&#45;&gt;UP -->
<g id="edge12" class="edge">
<title>GHOST4 Y&#45;&gt;UP</title>
<path fill="none" stroke="red" stroke-width="0.13" d="M1969.1,-114.93C1962.09,-109.05 1954.26,-103.53 1946.13,-99.64 1817.25,-38.05 1640.14,-32.51 1580.04,-32.54"/>
</g>
<!-- GHOST4 Y&#45;&gt;LEFT -->
<g id="edge13" class="edge">
<title>GHOST4 Y&#45;&gt;LEFT</title>
<path fill="none" stroke="green" stroke-width="0.32" d="M1969.62,-114.64C1962.53,-108.71 1954.53,-103.22 1946.13,-99.64 1775.04,-26.62 1706.72,-119.03 1529.13,-63.64 1517.8,-60.1 1506.23,-53.92 1496.73,-48.01"/>
</g>
<!-- GHOST5 X -->
<g id="node9" class="node">
<title>GHOST5 X</title>
<ellipse fill="lightcoral" stroke="black" cx="354.13" cy="-146.31" rx="43.27" ry="43.27"/>
<text text-anchor="middle" x="354.13" y="-144.11" font-family="Times New Roman,serif" font-size="9.00">GHOST5 X</text>
</g>
<!-- GHOST5 X&#45;&gt;DOWN -->
<g id="edge14" class="edge">
<title>GHOST5 X&#45;&gt;DOWN</title>
<path fill="none" stroke="red" stroke-width="0.24" d="M383.38,-114.56C390.32,-108.78 398.07,-103.38 406.13,-99.64 480.43,-65.14 731.25,-42.4 820.38,-35.24"/>
</g>
<!-- GHOST5 X&#45;&gt;RIGHT -->
<g id="edge15" class="edge">
<title>GHOST5 X&#45;&gt;RIGHT</title>
<path fill="none" stroke="green" stroke-width="0.76" d="M386.15,-116.86C392.72,-111.12 399.62,-105.15 406.13,-99.64 425.2,-83.51 447.15,-65.66 463.54,-52.47"/>
</g>
<!-- GHOST5 Y -->
<g id="node10" class="node">
<title>GHOST5 Y</title>
<ellipse fill="lightcoral" stroke="black" cx="1475.13" cy="-146.31" rx="42.35" ry="42.35"/>
<text text-anchor="middle" x="1475.13" y="-144.11" font-family="Times New Roman,serif" font-size="9.00">GHOST5 Y</text>
</g>
<!-- GHOST5 Y&#45;&gt;UP -->
<g id="edge16" class="edge">
<title>GHOST5 Y&#45;&gt;UP</title>
<path fill="none" stroke="red" stroke-width="0.15" d="M1500.11,-111.86C1515.68,-91.01 1535.01,-65.12 1547.21,-48.78"/>
</g>
<!-- GHOST5 Y&#45;&gt;DOWN -->
<g id="edge17" class="edge">
<title>GHOST5 Y&#45;&gt;DOWN</title>
<path fill="none" stroke="green" stroke-width="0.1" d="M1446.54,-114.83C1439.45,-108.88 1431.48,-103.35 1423.13,-99.64 1325.22,-56.08 989.77,-38.58 884.2,-34.07"/>
</g>
<!-- GHOST5 Y&#45;&gt;LEFT -->
<g id="edge18" class="edge">
<title>GHOST5 Y&#45;&gt;LEFT</title>
<path fill="none" stroke="red" stroke-width="0.45" d="M1475.13,-103.74C1475.13,-88.72 1475.13,-72.2 1475.13,-58.88"/>
</g>
<!-- GHOST6 X -->
<g id="node11" class="node">
<title>GHOST6 X</title>
<ellipse fill="lightcoral" stroke="black" cx="956.13" cy="-146.31" rx="43.27" ry="43.27"/>
<text text-anchor="middle" x="956.13" y="-144.11" font-family="Times New Roman,serif" font-size="9.00">GHOST6 X</text>
</g>
<!-- GHOST6 X&#45;&gt;UP -->
<g id="edge19" class="edge">
<title>GHOST6 X&#45;&gt;UP</title>
<path fill="none" stroke="green" stroke-width="1.41" d="M985.17,-114.08C992.12,-108.33 999.93,-103.07 1008.13,-99.64 1214.91,-13.17 1298.46,-134.38 1511.13,-63.64 1522.97,-59.7 1534.79,-52.17 1543.73,-45.54"/>
</g>
<!-- GHOST6 X&#45;&gt;DOWN -->
<g id="edge20" class="edge">
<title>GHOST6 X&#45;&gt;DOWN</title>
<path fill="none" stroke="green" stroke-width="0.47" d="M927.16,-113.97C910.09,-95.51 888.88,-72.56 873.36,-55.78"/>
</g>
<!-- GHOST6 X&#45;&gt;RIGHT -->
<g id="edge21" class="edge">
<title>GHOST6 X&#45;&gt;RIGHT</title>
<path fill="none" stroke="red" stroke-width="0.41" d="M926.85,-114.62C919.92,-108.84 912.18,-103.43 904.13,-99.64 771.77,-37.33 592.32,-31.6 520.14,-32.07"/>
</g>
<!-- GHOST6 Y -->
<g id="node12" class="node">
<title>GHOST6 Y</title>
<ellipse fill="lightcoral" stroke="black" cx="1164.13" cy="-146.31" rx="42.35" ry="42.35"/>
<text text-anchor="middle" x="1164.13" y="-144.11" font-family="Times New Roman,serif" font-size="9.00">GHOST6 Y</text>
</g>
<!-- GHOST6 Y&#45;&gt;UP -->
<g id="edge22" class="edge">
<title>GHOST6 Y&#45;&gt;UP</title>
<path fill="none" stroke="red" stroke-width="1.12" d="M1192.39,-114.62C1199.28,-108.76 1207.02,-103.32 1215.13,-99.64 1335.83,-44.92 1386.46,-108.57 1511.13,-63.64 1522.87,-59.41 1534.68,-51.88 1543.65,-45.32"/>
</g>
<!-- GHOST6 Y&#45;&gt;RIGHT -->
<g id="edge23" class="edge">
<title>GHOST6 Y&#45;&gt;RIGHT</title>
<path fill="none" stroke="green" stroke-width="0.94" d="M1135.56,-114.77C1128.47,-108.83 1120.49,-103.31 1112.13,-99.64 1098.38,-93.6 645.38,-48.39 520.01,-35.97"/>
</g>
<!-- GHOST6 Y&#45;&gt;LEFT -->
<g id="edge42" class="edge">
<title>GHOST6 Y&#45;&gt;LEFT</title>
<path fill="none" stroke="red" stroke-width="0.62" d="M1193.05,-115.17C1199.84,-109.35 1207.38,-103.79 1215.13,-99.64 1293.43,-57.78 1399.17,-41.22 1448.16,-35.48"/>
</g>
<!-- GHOST7 X -->
<g id="node13" class="node">
<title>GHOST7 X</title>
<ellipse fill="lightcoral" stroke="black" cx="532.13" cy="-146.31" rx="43.27" ry="43.27"/>
<text text-anchor="middle" x="532.13" y="-144.11" font-family="Times New Roman,serif" font-size="9.00">GHOST7 X</text>
</g>
<!-- GHOST7 X&#45;&gt;RIGHT -->
<g id="edge24" class="edge">
<title>GHOST7 X&#45;&gt;RIGHT</title>
<path fill="none" stroke="red" stroke-width="0.1" d="M516.74,-105.97C511.04,-91.39 504.69,-75.15 499.42,-61.68"/>
</g>
<!-- GHOST7 X&#45;&gt;LEFT -->
<g id="edge25" class="edge">
<title>GHOST7 X&#45;&gt;LEFT</title>
<path fill="none" stroke="red" stroke-width="0.26" d="M561.18,-114.1C568.13,-108.35 575.94,-103.08 584.13,-99.64 624.98,-82.48 1302.77,-42.72 1447.91,-34.37"/>
</g>
<!-- GHOST7 Y -->
<g id="node14" class="node">
<title>GHOST7 Y</title>
<ellipse fill="lightcoral" stroke="black" cx="1681.13" cy="-146.31" rx="42.35" ry="42.35"/>
<text text-anchor="middle" x="1681.13" y="-144.11" font-family="Times New Roman,serif" font-size="9.00">GHOST7 Y</text>
</g>
<!-- GHOST7 Y&#45;&gt;UP -->
<g id="edge26" class="edge">
<title>GHOST7 Y&#45;&gt;UP</title>
<path fill="none" stroke="red" stroke-width="0.23" d="M1650.35,-116.92C1625.92,-94.4 1592.85,-63.91 1573.98,-46.51"/>
</g>
<!-- GHOST7 Y&#45;&gt;LEFT -->
<g id="edge27" class="edge">
<title>GHOST7 Y&#45;&gt;LEFT</title>
<path fill="none" stroke="green" stroke-width="0.23" d="M1651.27,-115.73C1644.37,-109.88 1636.79,-104.16 1629.13,-99.64 1588.45,-75.63 1572.03,-83.42 1529.13,-63.64 1518.45,-58.71 1507.07,-52.39 1497.53,-46.76"/>
</g>
<!-- GHOST8 X -->
<g id="node15" class="node">
<title>GHOST8 X</title>
<ellipse fill="lightcoral" stroke="black" cx="852.13" cy="-146.31" rx="43.27" ry="43.27"/>
<text text-anchor="middle" x="852.13" y="-144.11" font-family="Times New Roman,serif" font-size="9.00">GHOST8 X</text>
</g>
<!-- GHOST8 X&#45;&gt;DOWN -->
<g id="edge28" class="edge">
<title>GHOST8 X&#45;&gt;DOWN</title>
<path fill="none" stroke="red" stroke-width="0.12" d="M852.13,-103.1C852.13,-90.01 852.13,-75.83 852.13,-63.67"/>
</g>
<!-- GHOST8 Y -->
<g id="node16" class="node">
<title>GHOST8 Y</title>
<ellipse fill="lightcoral" stroke="black" cx="1578.13" cy="-146.31" rx="42.35" ry="42.35"/>
<text text-anchor="middle" x="1578.13" y="-144.11" font-family="Times New Roman,serif" font-size="9.00">GHOST8 Y</text>
</g>
<!-- GHOST8 Y&#45;&gt;UP -->
<g id="edge41" class="edge">
<title>GHOST8 Y&#45;&gt;UP</title>
<path fill="none" stroke="green" stroke-width="0.23" d="M1571.22,-104.38C1568.21,-86.54 1564.82,-66.47 1562.4,-52.14"/>
</g>
<!-- GHOST8 Y&#45;&gt;DOWN -->
<g id="edge29" class="edge">
<title>GHOST8 Y&#45;&gt;DOWN</title>
<path fill="none" stroke="green" stroke-width="0.12" d="M1549.58,-114.72C1542.49,-108.78 1534.51,-103.28 1526.13,-99.64 1408.44,-48.52 1001.54,-36 884.1,-33.42"/>
</g>
<!-- GHOST8 Y&#45;&gt;LEFT -->
<g id="edge30" class="edge">
<title>GHOST8 Y&#45;&gt;LEFT</title>
<path fill="none" stroke="red" stroke-width="0.28" d="M1549.72,-114.27C1531.49,-94.37 1508.41,-69.17 1492.79,-52.1"/>
</g>
<!-- PACMAN X -->
<g id="node17" class="node">
<title>PACMAN X</title>
<ellipse fill="lightcoral" stroke="black" cx="640.13" cy="-146.31" rx="46.84" ry="46.84"/>
<text text-anchor="middle" x="640.13" y="-144.11" font-family="Times New Roman,serif" font-size="9.00">PACMAN X</text>
</g>
<!-- PACMAN X&#45;&gt;DOWN -->
<g id="edge31" class="edge">
<title>PACMAN X&#45;&gt;DOWN</title>
<path fill="none" stroke="red" stroke-width="0.39" d="M674.57,-114.74C681.46,-109.35 688.84,-104.06 696.13,-99.64 737.47,-74.61 789.86,-54.23 822.19,-42.81"/>
</g>
<!-- PACMAN X&#45;&gt;RIGHT -->
<g id="edge32" class="edge">
<title>PACMAN X&#45;&gt;RIGHT</title>
<path fill="none" stroke="green" stroke-width="0.43" d="M604.61,-115.66C597.88,-110.24 590.84,-104.7 584.13,-99.64 560.95,-82.16 533.71,-63.36 514.18,-50.16"/>
</g>
<!-- PACMAN X&#45;&gt;LEFT -->
<g id="edge33" class="edge">
<title>PACMAN X&#45;&gt;LEFT</title>
<path fill="none" stroke="red" stroke-width="0.45" d="M673.28,-113.01C680.34,-107.7 688.11,-102.89 696.13,-99.64 767.14,-70.88 1318.69,-40.88 1448.05,-34.19"/>
</g>
<!-- PACMAN Y -->
<g id="node18" class="node">
<title>PACMAN Y</title>
<ellipse fill="lightcoral" stroke="black" cx="1787.13" cy="-146.31" rx="45.92" ry="45.92"/>
<text text-anchor="middle" x="1787.13" y="-144.11" font-family="Times New Roman,serif" font-size="9.00">PACMAN Y</text>
</g>
<!-- PACMAN Y&#45;&gt;UP -->
<g id="edge34" class="edge">
<title>PACMAN Y&#45;&gt;UP</title>
<path fill="none" stroke="green" stroke-width="0.27" d="M1753.49,-114.51C1746.7,-109.14 1739.41,-103.91 1732.13,-99.64 1680.21,-69.16 1611.83,-47.56 1578.75,-38.12"/>
</g>
<!-- PACMAN Y&#45;&gt;LEFT -->
<g id="edge35" class="edge">
<title>PACMAN Y&#45;&gt;LEFT</title>
<path fill="none" stroke="red" stroke-width="0.13" d="M1754.4,-113.57C1747.48,-108.22 1739.9,-103.24 1732.13,-99.64 1649.01,-61.09 1615.3,-94.81 1529.13,-63.64 1518.07,-59.64 1506.64,-53.46 1497.16,-47.68"/>
</g>
<!-- ND X -->
<g id="node19" class="node">
<title>ND X</title>
<ellipse fill="lightcoral" stroke="black" cx="443.13" cy="-146.31" rx="27.65" ry="27.65"/>
<text text-anchor="middle" x="443.13" y="-144.11" font-family="Times New Roman,serif" font-size="9.00">ND X</text>
</g>
<!-- ND X&#45;&gt;DOWN -->
<g id="edge36" class="edge">
<title>ND X&#45;&gt;DOWN</title>
<path fill="none" stroke="red" stroke-width="0.2" d="M456.77,-122.31C462.88,-113.92 470.82,-105.14 480.13,-99.64 537.96,-65.46 741.25,-43.21 820.33,-35.67"/>
</g>
<!-- ND X&#45;&gt;RIGHT -->
<g id="edge37" class="edge">
<title>ND X&#45;&gt;RIGHT</title>
<path fill="none" stroke="red" stroke-width="0.25" d="M453.12,-120.34C460.06,-103 469.33,-79.83 476.59,-61.69"/>
</g>
<!-- ND Y -->
<g id="node20" class="node">
<title>ND Y</title>
<ellipse fill="lightcoral" stroke="black" cx="2085.13" cy="-146.31" rx="26.74" ry="26.74"/>
<text text-anchor="middle" x="2085.13" y="-144.11" font-family="Times New Roman,serif" font-size="9.00">ND Y</text>
</g>
<!-- IN_INTERS -->
<g id="node21" class="node">
<title>IN_INTERS</title>
<ellipse fill="lightcoral" stroke="black" cx="1268.13" cy="-146.31" rx="43.68" ry="43.68"/>
<text text-anchor="middle" x="1268.13" y="-144.11" font-family="Times New Roman,serif" font-size="9.00">IN_INTERS</text>
</g>
<!-- IN_INTERS&#45;&gt;UP -->
<g id="edge38" class="edge">
<title>IN_INTERS&#45;&gt;UP</title>
<path fill="none" stroke="red" stroke-width="2.81" d="M1298.42,-114.57C1305.41,-108.86 1313.15,-103.49 1321.13,-99.64 1398.55,-62.31 1431.29,-95.44 1511.13,-63.64 1522.54,-59.1 1534.16,-51.72 1543.11,-45.33"/>
</g>
<!-- IN_INTERS&#45;&gt;RIGHT -->
<g id="edge39" class="edge">
<title>IN_INTERS&#45;&gt;RIGHT</title>
<path fill="none" stroke="green" stroke-width="1.53" d="M1238.12,-113.96C1231.12,-108.29 1223.3,-103.09 1215.13,-99.64 1132.12,-64.54 900.89,-71.92 811.13,-63.64 704.28,-53.78 577.59,-41.53 519.76,-35.9"/>
</g>
<!-- IN_INTERS&#45;&gt;LEFT -->
<g id="edge40" class="edge">
<title>IN_INTERS&#45;&gt;LEFT</title>
<path fill="none" stroke="red" stroke-width="0.41" d="M1299.72,-115.41C1306.5,-109.78 1313.83,-104.22 1321.13,-99.64 1363.47,-73.08 1418.2,-52.12 1449.71,-41.17"/>
</g>
</g>
</svg>
