<?xml version="1.0" encoding="utf-8" standalone="no"?>
<!DOCTYPE svg PUBLIC "-//W3C//DTD SVG 1.1//EN"
  "http://www.w3.org/Graphics/SVG/1.1/DTD/svg11.dtd">
<svg xmlns:xlink="http://www.w3.org/1999/xlink" width="460.8pt" height="345.6pt" viewBox="0 0 460.8 345.6" xmlns="http://www.w3.org/2000/svg" version="1.1">
 <metadata>
  <rdf:RDF xmlns:dc="http://purl.org/dc/elements/1.1/" xmlns:cc="http://creativecommons.org/ns#" xmlns:rdf="http://www.w3.org/1999/02/22-rdf-syntax-ns#">
   <cc:Work>
    <dc:type rdf:resource="http://purl.org/dc/dcmitype/StillImage"/>
    <dc:date>2022-08-14T22:02:41.101383</dc:date>
    <dc:format>image/svg+xml</dc:format>
    <dc:creator>
     <cc:Agent>
      <dc:title>Matplotlib v3.5.2, https://matplotlib.org/</dc:title>
     </cc:Agent>
    </dc:creator>
   </cc:Work>
  </rdf:RDF>
 </metadata>
 <defs>
  <style type="text/css">*{stroke-linejoin: round; stroke-linecap: butt}</style>
 </defs>
 <g id="figure_1">
  <g id="patch_1">
   <path d="M 0 345.6 
L 460.8 345.6 
L 460.8 0 
L 0 0 
z
" style="fill: #ffffff"/>
  </g>
  <g id="axes_1">
   <g id="patch_2">
    <path d="M 57.6 307.584 
L 414.72 307.584 
L 414.72 41.472 
L 57.6 41.472 
z
" style="fill: #ffffff"/>
   </g>
   <g id="matplotlib.axis_1">
    <g id="xtick_1">
     <g id="line2d_1">
      <path d="M 73.832727 307.584 
L 73.832727 41.472 
" clip-path="url(#p9104944163)" style="fill: none; stroke: #b0b0b0; stroke-width: 0.8; stroke-linecap: square"/>
     </g>
     <g id="line2d_2">
      <defs>
       <path id="m9a0e01d655" d="M 0 0 
L 0 3.5 
" style="stroke: #000000; stroke-width: 0.8"/>
      </defs>
      <g>
       <use xlink:href="#m9a0e01d655" x="73.832727" y="307.584" style="stroke: #000000; stroke-width: 0.8"/>
      </g>
     </g>
     <g id="text_1">
      <!-- 0 -->
      <g transform="translate(70.651477 322.182437)scale(0.1 -0.1)">
       <defs>
        <path id="DejaVuSans-30" d="M 2034 4250 
Q 1547 4250 1301 3770 
Q 1056 3291 1056 2328 
Q 1056 1369 1301 889 
Q 1547 409 2034 409 
Q 2525 409 2770 889 
Q 3016 1369 3016 2328 
Q 3016 3291 2770 3770 
Q 2525 4250 2034 4250 
z
M 2034 4750 
Q 2819 4750 3233 4129 
Q 3647 3509 3647 2328 
Q 3647 1150 3233 529 
Q 2819 -91 2034 -91 
Q 1250 -91 836 529 
Q 422 1150 422 2328 
Q 422 3509 836 4129 
Q 1250 4750 2034 4750 
z
" transform="scale(0.015625)"/>
       </defs>
       <use xlink:href="#DejaVuSans-30"/>
      </g>
     </g>
    </g>
    <g id="xtick_2">
     <g id="line2d_3">
      <path d="M 114.618474 307.584 
L 114.618474 41.472 
" clip-path="url(#p9104944163)" style="fill: none; stroke: #b0b0b0; stroke-width: 0.8; stroke-linecap: square"/>
     </g>
     <g id="line2d_4">
      <g>
       <use xlink:href="#m9a0e01d655" x="114.618474" y="307.584" style="stroke: #000000; stroke-width: 0.8"/>
      </g>
     </g>
     <g id="text_2">
      <!-- 25 -->
      <g transform="translate(108.255974 322.182437)scale(0.1 -0.1)">
       <defs>
        <path id="DejaVuSans-32" d="M 1228 531 
L 3431 531 
L 3431 0 
L 469 0 
L 469 531 
Q 828 903 1448 1529 
Q 2069 2156 2228 2338 
Q 2531 2678 2651 2914 
Q 2772 3150 2772 3378 
Q 2772 3750 2511 3984 
Q 2250 4219 1831 4219 
Q 1534 4219 1204 4116 
Q 875 4013 500 3803 
L 500 4441 
Q 881 4594 1212 4672 
Q 1544 4750 1819 4750 
Q 2544 4750 2975 4387 
Q 3406 4025 3406 3419 
Q 3406 3131 3298 2873 
Q 3191 2616 2906 2266 
Q 2828 2175 2409 1742 
Q 1991 1309 1228 531 
z
" transform="scale(0.015625)"/>
        <path id="DejaVuSans-35" d="M 691 4666 
L 3169 4666 
L 3169 4134 
L 1269 4134 
L 1269 2991 
Q 1406 3038 1543 3061 
Q 1681 3084 1819 3084 
Q 2600 3084 3056 2656 
Q 3513 2228 3513 1497 
Q 3513 744 3044 326 
Q 2575 -91 1722 -91 
Q 1428 -91 1123 -41 
Q 819 9 494 109 
L 494 744 
Q 775 591 1075 516 
Q 1375 441 1709 441 
Q 2250 441 2565 725 
Q 2881 1009 2881 1497 
Q 2881 1984 2565 2268 
Q 2250 2553 1709 2553 
Q 1456 2553 1204 2497 
Q 953 2441 691 2322 
L 691 4666 
z
" transform="scale(0.015625)"/>
       </defs>
       <use xlink:href="#DejaVuSans-32"/>
       <use xlink:href="#DejaVuSans-35" x="63.623047"/>
      </g>
     </g>
    </g>
    <g id="xtick_3">
     <g id="line2d_5">
      <path d="M 155.404221 307.584 
L 155.404221 41.472 
" clip-path="url(#p9104944163)" style="fill: none; stroke: #b0b0b0; stroke-width: 0.8; stroke-linecap: square"/>
     </g>
     <g id="line2d_6">
      <g>
       <use xlink:href="#m9a0e01d655" x="155.404221" y="307.584" style="stroke: #000000; stroke-width: 0.8"/>
      </g>
     </g>
     <g id="text_3">
      <!-- 50 -->
      <g transform="translate(149.041721 322.182437)scale(0.1 -0.1)">
       <use xlink:href="#DejaVuSans-35"/>
       <use xlink:href="#DejaVuSans-30" x="63.623047"/>
      </g>
     </g>
    </g>
    <g id="xtick_4">
     <g id="line2d_7">
      <path d="M 196.189968 307.584 
L 196.189968 41.472 
" clip-path="url(#p9104944163)" style="fill: none; stroke: #b0b0b0; stroke-width: 0.8; stroke-linecap: square"/>
     </g>
     <g id="line2d_8">
      <g>
       <use xlink:href="#m9a0e01d655" x="196.189968" y="307.584" style="stroke: #000000; stroke-width: 0.8"/>
      </g>
     </g>
     <g id="text_4">
      <!-- 75 -->
      <g transform="translate(189.827468 322.182437)scale(0.1 -0.1)">
       <defs>
        <path id="DejaVuSans-37" d="M 525 4666 
L 3525 4666 
L 3525 4397 
L 1831 0 
L 1172 0 
L 2766 4134 
L 525 4134 
L 525 4666 
z
" transform="scale(0.015625)"/>
       </defs>
       <use xlink:href="#DejaVuSans-37"/>
       <use xlink:href="#DejaVuSans-35" x="63.623047"/>
      </g>
     </g>
    </g>
    <g id="xtick_5">
     <g id="line2d_9">
      <path d="M 236.975715 307.584 
L 236.975715 41.472 
" clip-path="url(#p9104944163)" style="fill: none; stroke: #b0b0b0; stroke-width: 0.8; stroke-linecap: square"/>
     </g>
     <g id="line2d_10">
      <g>
       <use xlink:href="#m9a0e01d655" x="236.975715" y="307.584" style="stroke: #000000; stroke-width: 0.8"/>
      </g>
     </g>
     <g id="text_5">
      <!-- 100 -->
      <g transform="translate(227.431965 322.182437)scale(0.1 -0.1)">
       <defs>
        <path id="DejaVuSans-31" d="M 794 531 
L 1825 531 
L 1825 4091 
L 703 3866 
L 703 4441 
L 1819 4666 
L 2450 4666 
L 2450 531 
L 3481 531 
L 3481 0 
L 794 0 
L 794 531 
z
" transform="scale(0.015625)"/>
       </defs>
       <use xlink:href="#DejaVuSans-31"/>
       <use xlink:href="#DejaVuSans-30" x="63.623047"/>
       <use xlink:href="#DejaVuSans-30" x="127.246094"/>
      </g>
     </g>
    </g>
    <g id="xtick_6">
     <g id="line2d_11">
      <path d="M 277.761462 307.584 
L 277.761462 41.472 
" clip-path="url(#p9104944163)" style="fill: none; stroke: #b0b0b0; stroke-width: 0.8; stroke-linecap: square"/>
     </g>
     <g id="line2d_12">
      <g>
       <use xlink:href="#m9a0e01d655" x="277.761462" y="307.584" style="stroke: #000000; stroke-width: 0.8"/>
      </g>
     </g>
     <g id="text_6">
      <!-- 125 -->
      <g transform="translate(268.217712 322.182437)scale(0.1 -0.1)">
       <use xlink:href="#DejaVuSans-31"/>
       <use xlink:href="#DejaVuSans-32" x="63.623047"/>
       <use xlink:href="#DejaVuSans-35" x="127.246094"/>
      </g>
     </g>
    </g>
    <g id="xtick_7">
     <g id="line2d_13">
      <path d="M 318.547209 307.584 
L 318.547209 41.472 
" clip-path="url(#p9104944163)" style="fill: none; stroke: #b0b0b0; stroke-width: 0.8; stroke-linecap: square"/>
     </g>
     <g id="line2d_14">
      <g>
       <use xlink:href="#m9a0e01d655" x="318.547209" y="307.584" style="stroke: #000000; stroke-width: 0.8"/>
      </g>
     </g>
     <g id="text_7">
      <!-- 150 -->
      <g transform="translate(309.003459 322.182437)scale(0.1 -0.1)">
       <use xlink:href="#DejaVuSans-31"/>
       <use xlink:href="#DejaVuSans-35" x="63.623047"/>
       <use xlink:href="#DejaVuSans-30" x="127.246094"/>
      </g>
     </g>
    </g>
    <g id="xtick_8">
     <g id="line2d_15">
      <path d="M 359.332956 307.584 
L 359.332956 41.472 
" clip-path="url(#p9104944163)" style="fill: none; stroke: #b0b0b0; stroke-width: 0.8; stroke-linecap: square"/>
     </g>
     <g id="line2d_16">
      <g>
       <use xlink:href="#m9a0e01d655" x="359.332956" y="307.584" style="stroke: #000000; stroke-width: 0.8"/>
      </g>
     </g>
     <g id="text_8">
      <!-- 175 -->
      <g transform="translate(349.789206 322.182437)scale(0.1 -0.1)">
       <use xlink:href="#DejaVuSans-31"/>
       <use xlink:href="#DejaVuSans-37" x="63.623047"/>
       <use xlink:href="#DejaVuSans-35" x="127.246094"/>
      </g>
     </g>
    </g>
    <g id="xtick_9">
     <g id="line2d_17">
      <path d="M 400.118703 307.584 
L 400.118703 41.472 
" clip-path="url(#p9104944163)" style="fill: none; stroke: #b0b0b0; stroke-width: 0.8; stroke-linecap: square"/>
     </g>
     <g id="line2d_18">
      <g>
       <use xlink:href="#m9a0e01d655" x="400.118703" y="307.584" style="stroke: #000000; stroke-width: 0.8"/>
      </g>
     </g>
     <g id="text_9">
      <!-- 200 -->
      <g transform="translate(390.574953 322.182437)scale(0.1 -0.1)">
       <use xlink:href="#DejaVuSans-32"/>
       <use xlink:href="#DejaVuSans-30" x="63.623047"/>
       <use xlink:href="#DejaVuSans-30" x="127.246094"/>
      </g>
     </g>
    </g>
    <g id="text_10">
     <!-- Generations -->
     <g transform="translate(205.662344 335.860562)scale(0.1 -0.1)">
      <defs>
       <path id="DejaVuSans-47" d="M 3809 666 
L 3809 1919 
L 2778 1919 
L 2778 2438 
L 4434 2438 
L 4434 434 
Q 4069 175 3628 42 
Q 3188 -91 2688 -91 
Q 1594 -91 976 548 
Q 359 1188 359 2328 
Q 359 3472 976 4111 
Q 1594 4750 2688 4750 
Q 3144 4750 3555 4637 
Q 3966 4525 4313 4306 
L 4313 3634 
Q 3963 3931 3569 4081 
Q 3175 4231 2741 4231 
Q 1884 4231 1454 3753 
Q 1025 3275 1025 2328 
Q 1025 1384 1454 906 
Q 1884 428 2741 428 
Q 3075 428 3337 486 
Q 3600 544 3809 666 
z
" transform="scale(0.015625)"/>
       <path id="DejaVuSans-65" d="M 3597 1894 
L 3597 1613 
L 953 1613 
Q 991 1019 1311 708 
Q 1631 397 2203 397 
Q 2534 397 2845 478 
Q 3156 559 3463 722 
L 3463 178 
Q 3153 47 2828 -22 
Q 2503 -91 2169 -91 
Q 1331 -91 842 396 
Q 353 884 353 1716 
Q 353 2575 817 3079 
Q 1281 3584 2069 3584 
Q 2775 3584 3186 3129 
Q 3597 2675 3597 1894 
z
M 3022 2063 
Q 3016 2534 2758 2815 
Q 2500 3097 2075 3097 
Q 1594 3097 1305 2825 
Q 1016 2553 972 2059 
L 3022 2063 
z
" transform="scale(0.015625)"/>
       <path id="DejaVuSans-6e" d="M 3513 2113 
L 3513 0 
L 2938 0 
L 2938 2094 
Q 2938 2591 2744 2837 
Q 2550 3084 2163 3084 
Q 1697 3084 1428 2787 
Q 1159 2491 1159 1978 
L 1159 0 
L 581 0 
L 581 3500 
L 1159 3500 
L 1159 2956 
Q 1366 3272 1645 3428 
Q 1925 3584 2291 3584 
Q 2894 3584 3203 3211 
Q 3513 2838 3513 2113 
z
" transform="scale(0.015625)"/>
       <path id="DejaVuSans-72" d="M 2631 2963 
Q 2534 3019 2420 3045 
Q 2306 3072 2169 3072 
Q 1681 3072 1420 2755 
Q 1159 2438 1159 1844 
L 1159 0 
L 581 0 
L 581 3500 
L 1159 3500 
L 1159 2956 
Q 1341 3275 1631 3429 
Q 1922 3584 2338 3584 
Q 2397 3584 2469 3576 
Q 2541 3569 2628 3553 
L 2631 2963 
z
" transform="scale(0.015625)"/>
       <path id="DejaVuSans-61" d="M 2194 1759 
Q 1497 1759 1228 1600 
Q 959 1441 959 1056 
Q 959 750 1161 570 
Q 1363 391 1709 391 
Q 2188 391 2477 730 
Q 2766 1069 2766 1631 
L 2766 1759 
L 2194 1759 
z
M 3341 1997 
L 3341 0 
L 2766 0 
L 2766 531 
Q 2569 213 2275 61 
Q 1981 -91 1556 -91 
Q 1019 -91 701 211 
Q 384 513 384 1019 
Q 384 1609 779 1909 
Q 1175 2209 1959 2209 
L 2766 2209 
L 2766 2266 
Q 2766 2663 2505 2880 
Q 2244 3097 1772 3097 
Q 1472 3097 1187 3025 
Q 903 2953 641 2809 
L 641 3341 
Q 956 3463 1253 3523 
Q 1550 3584 1831 3584 
Q 2591 3584 2966 3190 
Q 3341 2797 3341 1997 
z
" transform="scale(0.015625)"/>
       <path id="DejaVuSans-74" d="M 1172 4494 
L 1172 3500 
L 2356 3500 
L 2356 3053 
L 1172 3053 
L 1172 1153 
Q 1172 725 1289 603 
Q 1406 481 1766 481 
L 2356 481 
L 2356 0 
L 1766 0 
Q 1100 0 847 248 
Q 594 497 594 1153 
L 594 3053 
L 172 3053 
L 172 3500 
L 594 3500 
L 594 4494 
L 1172 4494 
z
" transform="scale(0.015625)"/>
       <path id="DejaVuSans-69" d="M 603 3500 
L 1178 3500 
L 1178 0 
L 603 0 
L 603 3500 
z
M 603 4863 
L 1178 4863 
L 1178 4134 
L 603 4134 
L 603 4863 
z
" transform="scale(0.015625)"/>
       <path id="DejaVuSans-6f" d="M 1959 3097 
Q 1497 3097 1228 2736 
Q 959 2375 959 1747 
Q 959 1119 1226 758 
Q 1494 397 1959 397 
Q 2419 397 2687 759 
Q 2956 1122 2956 1747 
Q 2956 2369 2687 2733 
Q 2419 3097 1959 3097 
z
M 1959 3584 
Q 2709 3584 3137 3096 
Q 3566 2609 3566 1747 
Q 3566 888 3137 398 
Q 2709 -91 1959 -91 
Q 1206 -91 779 398 
Q 353 888 353 1747 
Q 353 2609 779 3096 
Q 1206 3584 1959 3584 
z
" transform="scale(0.015625)"/>
       <path id="DejaVuSans-73" d="M 2834 3397 
L 2834 2853 
Q 2591 2978 2328 3040 
Q 2066 3103 1784 3103 
Q 1356 3103 1142 2972 
Q 928 2841 928 2578 
Q 928 2378 1081 2264 
Q 1234 2150 1697 2047 
L 1894 2003 
Q 2506 1872 2764 1633 
Q 3022 1394 3022 966 
Q 3022 478 2636 193 
Q 2250 -91 1575 -91 
Q 1294 -91 989 -36 
Q 684 19 347 128 
L 347 722 
Q 666 556 975 473 
Q 1284 391 1588 391 
Q 1994 391 2212 530 
Q 2431 669 2431 922 
Q 2431 1156 2273 1281 
Q 2116 1406 1581 1522 
L 1381 1569 
Q 847 1681 609 1914 
Q 372 2147 372 2553 
Q 372 3047 722 3315 
Q 1072 3584 1716 3584 
Q 2034 3584 2315 3537 
Q 2597 3491 2834 3397 
z
" transform="scale(0.015625)"/>
      </defs>
      <use xlink:href="#DejaVuSans-47"/>
      <use xlink:href="#DejaVuSans-65" x="77.490234"/>
      <use xlink:href="#DejaVuSans-6e" x="139.013672"/>
      <use xlink:href="#DejaVuSans-65" x="202.392578"/>
      <use xlink:href="#DejaVuSans-72" x="263.916016"/>
      <use xlink:href="#DejaVuSans-61" x="305.029297"/>
      <use xlink:href="#DejaVuSans-74" x="366.308594"/>
      <use xlink:href="#DejaVuSans-69" x="405.517578"/>
      <use xlink:href="#DejaVuSans-6f" x="433.300781"/>
      <use xlink:href="#DejaVuSans-6e" x="494.482422"/>
      <use xlink:href="#DejaVuSans-73" x="557.861328"/>
     </g>
    </g>
   </g>
   <g id="matplotlib.axis_2">
    <g id="ytick_1">
     <g id="line2d_19">
      <path d="M 57.6 287.657748 
L 414.72 287.657748 
" clip-path="url(#p9104944163)" style="fill: none; stroke: #b0b0b0; stroke-width: 0.8; stroke-linecap: square"/>
     </g>
     <g id="line2d_20">
      <defs>
       <path id="m62ff3f9495" d="M 0 0 
L -3.5 0 
" style="stroke: #000000; stroke-width: 0.8"/>
      </defs>
      <g>
       <use xlink:href="#m62ff3f9495" x="57.6" y="287.657748" style="stroke: #000000; stroke-width: 0.8"/>
      </g>
     </g>
     <g id="text_11">
      <!-- 0 -->
      <g transform="translate(44.2375 291.456967)scale(0.1 -0.1)">
       <use xlink:href="#DejaVuSans-30"/>
      </g>
     </g>
    </g>
    <g id="ytick_2">
     <g id="line2d_21">
      <path d="M 57.6 251.081225 
L 414.72 251.081225 
" clip-path="url(#p9104944163)" style="fill: none; stroke: #b0b0b0; stroke-width: 0.8; stroke-linecap: square"/>
     </g>
     <g id="line2d_22">
      <g>
       <use xlink:href="#m62ff3f9495" x="57.6" y="251.081225" style="stroke: #000000; stroke-width: 0.8"/>
      </g>
     </g>
     <g id="text_12">
      <!-- 20 -->
      <g transform="translate(37.875 254.880444)scale(0.1 -0.1)">
       <use xlink:href="#DejaVuSans-32"/>
       <use xlink:href="#DejaVuSans-30" x="63.623047"/>
      </g>
     </g>
    </g>
    <g id="ytick_3">
     <g id="line2d_23">
      <path d="M 57.6 214.504702 
L 414.72 214.504702 
" clip-path="url(#p9104944163)" style="fill: none; stroke: #b0b0b0; stroke-width: 0.8; stroke-linecap: square"/>
     </g>
     <g id="line2d_24">
      <g>
       <use xlink:href="#m62ff3f9495" x="57.6" y="214.504702" style="stroke: #000000; stroke-width: 0.8"/>
      </g>
     </g>
     <g id="text_13">
      <!-- 40 -->
      <g transform="translate(37.875 218.30392)scale(0.1 -0.1)">
       <defs>
        <path id="DejaVuSans-34" d="M 2419 4116 
L 825 1625 
L 2419 1625 
L 2419 4116 
z
M 2253 4666 
L 3047 4666 
L 3047 1625 
L 3713 1625 
L 3713 1100 
L 3047 1100 
L 3047 0 
L 2419 0 
L 2419 1100 
L 313 1100 
L 313 1709 
L 2253 4666 
z
" transform="scale(0.015625)"/>
       </defs>
       <use xlink:href="#DejaVuSans-34"/>
       <use xlink:href="#DejaVuSans-30" x="63.623047"/>
      </g>
     </g>
    </g>
    <g id="ytick_4">
     <g id="line2d_25">
      <path d="M 57.6 177.928179 
L 414.72 177.928179 
" clip-path="url(#p9104944163)" style="fill: none; stroke: #b0b0b0; stroke-width: 0.8; stroke-linecap: square"/>
     </g>
     <g id="line2d_26">
      <g>
       <use xlink:href="#m62ff3f9495" x="57.6" y="177.928179" style="stroke: #000000; stroke-width: 0.8"/>
      </g>
     </g>
     <g id="text_14">
      <!-- 60 -->
      <g transform="translate(37.875 181.727397)scale(0.1 -0.1)">
       <defs>
        <path id="DejaVuSans-36" d="M 2113 2584 
Q 1688 2584 1439 2293 
Q 1191 2003 1191 1497 
Q 1191 994 1439 701 
Q 1688 409 2113 409 
Q 2538 409 2786 701 
Q 3034 994 3034 1497 
Q 3034 2003 2786 2293 
Q 2538 2584 2113 2584 
z
M 3366 4563 
L 3366 3988 
Q 3128 4100 2886 4159 
Q 2644 4219 2406 4219 
Q 1781 4219 1451 3797 
Q 1122 3375 1075 2522 
Q 1259 2794 1537 2939 
Q 1816 3084 2150 3084 
Q 2853 3084 3261 2657 
Q 3669 2231 3669 1497 
Q 3669 778 3244 343 
Q 2819 -91 2113 -91 
Q 1303 -91 875 529 
Q 447 1150 447 2328 
Q 447 3434 972 4092 
Q 1497 4750 2381 4750 
Q 2619 4750 2861 4703 
Q 3103 4656 3366 4563 
z
" transform="scale(0.015625)"/>
       </defs>
       <use xlink:href="#DejaVuSans-36"/>
       <use xlink:href="#DejaVuSans-30" x="63.623047"/>
      </g>
     </g>
    </g>
    <g id="ytick_5">
     <g id="line2d_27">
      <path d="M 57.6 141.351655 
L 414.72 141.351655 
" clip-path="url(#p9104944163)" style="fill: none; stroke: #b0b0b0; stroke-width: 0.8; stroke-linecap: square"/>
     </g>
     <g id="line2d_28">
      <g>
       <use xlink:href="#m62ff3f9495" x="57.6" y="141.351655" style="stroke: #000000; stroke-width: 0.8"/>
      </g>
     </g>
     <g id="text_15">
      <!-- 80 -->
      <g transform="translate(37.875 145.150874)scale(0.1 -0.1)">
       <defs>
        <path id="DejaVuSans-38" d="M 2034 2216 
Q 1584 2216 1326 1975 
Q 1069 1734 1069 1313 
Q 1069 891 1326 650 
Q 1584 409 2034 409 
Q 2484 409 2743 651 
Q 3003 894 3003 1313 
Q 3003 1734 2745 1975 
Q 2488 2216 2034 2216 
z
M 1403 2484 
Q 997 2584 770 2862 
Q 544 3141 544 3541 
Q 544 4100 942 4425 
Q 1341 4750 2034 4750 
Q 2731 4750 3128 4425 
Q 3525 4100 3525 3541 
Q 3525 3141 3298 2862 
Q 3072 2584 2669 2484 
Q 3125 2378 3379 2068 
Q 3634 1759 3634 1313 
Q 3634 634 3220 271 
Q 2806 -91 2034 -91 
Q 1263 -91 848 271 
Q 434 634 434 1313 
Q 434 1759 690 2068 
Q 947 2378 1403 2484 
z
M 1172 3481 
Q 1172 3119 1398 2916 
Q 1625 2713 2034 2713 
Q 2441 2713 2670 2916 
Q 2900 3119 2900 3481 
Q 2900 3844 2670 4047 
Q 2441 4250 2034 4250 
Q 1625 4250 1398 4047 
Q 1172 3844 1172 3481 
z
" transform="scale(0.015625)"/>
       </defs>
       <use xlink:href="#DejaVuSans-38"/>
       <use xlink:href="#DejaVuSans-30" x="63.623047"/>
      </g>
     </g>
    </g>
    <g id="ytick_6">
     <g id="line2d_29">
      <path d="M 57.6 104.775132 
L 414.72 104.775132 
" clip-path="url(#p9104944163)" style="fill: none; stroke: #b0b0b0; stroke-width: 0.8; stroke-linecap: square"/>
     </g>
     <g id="line2d_30">
      <g>
       <use xlink:href="#m62ff3f9495" x="57.6" y="104.775132" style="stroke: #000000; stroke-width: 0.8"/>
      </g>
     </g>
     <g id="text_16">
      <!-- 100 -->
      <g transform="translate(31.5125 108.574351)scale(0.1 -0.1)">
       <use xlink:href="#DejaVuSans-31"/>
       <use xlink:href="#DejaVuSans-30" x="63.623047"/>
       <use xlink:href="#DejaVuSans-30" x="127.246094"/>
      </g>
     </g>
    </g>
    <g id="ytick_7">
     <g id="line2d_31">
      <path d="M 57.6 68.198609 
L 414.72 68.198609 
" clip-path="url(#p9104944163)" style="fill: none; stroke: #b0b0b0; stroke-width: 0.8; stroke-linecap: square"/>
     </g>
     <g id="line2d_32">
      <g>
       <use xlink:href="#m62ff3f9495" x="57.6" y="68.198609" style="stroke: #000000; stroke-width: 0.8"/>
      </g>
     </g>
     <g id="text_17">
      <!-- 120 -->
      <g transform="translate(31.5125 71.997828)scale(0.1 -0.1)">
       <use xlink:href="#DejaVuSans-31"/>
       <use xlink:href="#DejaVuSans-32" x="63.623047"/>
       <use xlink:href="#DejaVuSans-30" x="127.246094"/>
      </g>
     </g>
    </g>
    <g id="text_18">
     <!-- Fitness -->
     <g transform="translate(25.432812 191.845187)rotate(-90)scale(0.1 -0.1)">
      <defs>
       <path id="DejaVuSans-46" d="M 628 4666 
L 3309 4666 
L 3309 4134 
L 1259 4134 
L 1259 2759 
L 3109 2759 
L 3109 2228 
L 1259 2228 
L 1259 0 
L 628 0 
L 628 4666 
z
" transform="scale(0.015625)"/>
      </defs>
      <use xlink:href="#DejaVuSans-46"/>
      <use xlink:href="#DejaVuSans-69" x="50.269531"/>
      <use xlink:href="#DejaVuSans-74" x="78.052734"/>
      <use xlink:href="#DejaVuSans-6e" x="117.261719"/>
      <use xlink:href="#DejaVuSans-65" x="180.640625"/>
      <use xlink:href="#DejaVuSans-73" x="242.164062"/>
      <use xlink:href="#DejaVuSans-73" x="294.263672"/>
     </g>
    </g>
   </g>
   <g id="line2d_33">
    <path d="M 73.832727 273.527018 
L 75.464157 272.856448 
L 77.095587 271.003238 
L 78.727017 268.625764 
L 80.358447 272.063957 
L 81.989877 269.162219 
L 83.621307 270.9057 
L 85.252736 271.490925 
L 86.884166 270.698433 
L 88.515596 270.137593 
L 90.147026 268.150269 
L 91.778456 266.748169 
L 93.409886 267.699158 
L 95.041316 268.247806 
L 96.672746 268.650148 
L 98.304175 267.028589 
L 99.935605 267.138318 
L 101.567035 267.028589 
L 103.198465 265.504567 
L 104.829895 263.736702 
L 106.461325 266.126368 
L 108.092755 265.906909 
L 109.724185 261.310459 
L 111.355614 258.652565 
L 112.987044 262.871057 
L 116.249904 263.870816 
L 117.881334 262.078566 
L 119.512764 264.529193 
L 121.144194 263.517243 
L 122.775624 263.736702 
L 124.407053 259.225597 
L 126.038483 262.785712 
L 127.669913 260.444815 
L 129.301343 261.944452 
L 130.932773 258.384337 
L 132.564203 259.542594 
L 134.195633 261.322651 
L 135.827063 258.469198 
L 137.458492 263.249015 
L 139.089922 259.457249 
L 140.721352 261.529918 
L 142.352782 258.908601 
L 143.984212 261.700609 
L 145.615642 257.530885 
L 147.247072 259.713284 
L 148.878502 256.360436 
L 150.509931 257.537349 
L 152.141361 255.377125 
L 153.772791 261.023166 
L 155.404221 259.464368 
L 157.035651 257.205951 
L 158.667081 250.713005 
L 160.298511 252.532094 
L 161.929941 250.946211 
L 163.56137 256.690443 
L 165.1928 252.28825 
L 166.82423 254.654097 
L 170.08709 249.191841 
L 171.71852 243.717474 
L 173.34995 239.587476 
L 174.98138 244.126873 
L 176.61281 239.864424 
L 178.244239 226.889169 
L 179.875669 226.410483 
L 181.507099 220.710518 
L 184.769959 224.593524 
L 186.401389 217.726342 
L 188.032819 219.688394 
L 189.664249 224.339184 
L 191.295678 224.319402 
L 192.927108 230.019039 
L 194.558538 227.160179 
L 196.189968 220.783671 
L 197.821398 225.74411 
L 199.452828 220.539828 
L 201.084258 225.502207 
L 202.715688 225.88 
L 204.347117 218.747578 
L 205.978547 220.161871 
L 209.241407 236.011697 
L 210.872837 226.196997 
L 212.504267 232.951462 
L 214.135697 229.659574 
L 215.767127 223.283067 
L 217.398556 227.489367 
L 219.029986 225.318097 
L 220.661416 220.608863 
L 222.292846 211.210392 
L 223.924276 218.792148 
L 225.555706 219.198689 
L 227.187136 218.658923 
L 228.818566 214.541036 
L 230.449995 225.14847 
L 232.081425 217.260133 
L 233.712855 208.21354 
L 236.975715 217.735628 
L 238.607145 217.833165 
L 240.238575 211.200622 
L 241.870005 217.760012 
L 243.501434 211.546667 
L 245.132864 202.746209 
L 246.764294 210.432515 
L 248.395724 214.57737 
L 250.027154 220.905593 
L 251.658584 213.273292 
L 253.290014 219.058356 
L 254.921444 217.01629 
L 256.552873 214.053591 
L 258.184303 217.95646 
L 259.815733 214.613705 
L 261.447163 215.800625 
L 263.078593 204.222096 
L 264.710023 205.884834 
L 266.341453 202.623387 
L 267.972883 225.550812 
L 269.604312 219.676283 
L 271.235742 204.690001 
L 272.867172 212.992872 
L 274.498602 200.922619 
L 276.130032 204.897268 
L 277.761462 219.357187 
L 279.392892 217.479592 
L 281.024322 215.797072 
L 282.655751 217.004097 
L 284.287181 212.944103 
L 285.918611 214.065783 
L 287.550041 202.805059 
L 289.181471 209.103568 
L 290.812901 198.784064 
L 292.444331 202.239374 
L 294.075761 193.631699 
L 295.70719 215.658458 
L 297.33862 206.563423 
L 298.97005 208.183591 
L 300.60148 215.089926 
L 302.23291 218.440917 
L 303.86434 211.670627 
L 305.49577 220.478867 
L 307.1272 208.871917 
L 308.75863 205.531261 
L 310.390059 208.372038 
L 312.021489 200.264242 
L 313.652919 212.172641 
L 315.284349 205.016899 
L 316.915779 214.492428 
L 318.547209 222.149195 
L 320.178639 214.346203 
L 321.810069 231.524977 
L 323.441498 219.881451 
L 325.072928 214.163321 
L 326.704358 219.418148 
L 328.335788 208.676842 
L 329.967218 202.202798 
L 331.598648 214.248666 
L 333.230078 208.225732 
L 334.861508 208.723647 
L 336.492937 195.192297 
L 338.124367 201.040123 
L 339.755797 208.5701 
L 341.387227 208.372038 
L 343.018657 218.800602 
L 344.650087 193.246132 
L 346.281517 200.971388 
L 347.912947 207.920928 
L 349.544376 207.835582 
L 351.175806 210.871434 
L 352.807236 217.07725 
L 354.438666 204.165738 
L 356.070096 209.213298 
L 357.701526 211.590772 
L 359.332956 210.956779 
L 360.964386 226.172613 
L 362.595815 210.030174 
L 364.227245 221.868775 
L 365.858675 217.01629 
L 367.490105 229.952187 
L 369.121535 219.672056 
L 370.752965 222.122792 
L 372.384395 217.443016 
L 374.015825 213.184556 
L 375.647254 212.857547 
L 377.278684 207.616123 
L 378.910114 203.678051 
L 380.541544 196.180106 
L 382.172974 193.144012 
L 383.804404 206.538875 
L 385.435834 198.045266 
L 387.067264 200.007318 
L 388.698693 212.700424 
L 390.330123 210.478829 
L 391.961553 194.01216 
L 393.592983 193.333919 
L 395.224413 196.03233 
L 396.855843 201.273329 
L 398.487273 205.041447 
L 398.487273 205.041447 
" clip-path="url(#p9104944163)" style="fill: none; stroke: #0000ff; stroke-width: 1.5; stroke-linecap: square"/>
   </g>
   <g id="line2d_34">
    <path d="M 73.832727 286.511935 
L 75.464157 285.394865 
L 77.095587 287.120647 
L 78.727017 285.646096 
L 80.358447 286.315816 
L 81.989877 286.074049 
L 83.621307 287.559175 
L 85.252736 287.386752 
L 86.884166 286.818263 
L 88.515596 287.345762 
L 90.147026 286.716433 
L 91.778456 284.676159 
L 93.409886 287.768459 
L 95.041316 286.088986 
L 96.672746 285.496402 
L 98.304175 286.965445 
L 99.935605 286.218822 
L 101.567035 292.625292 
L 103.198465 293.506945 
L 104.829895 288.659355 
L 106.461325 293.059331 
L 108.092755 294.146059 
L 109.724185 292.139859 
L 111.355614 288.846132 
L 112.987044 286.880545 
L 114.618474 292.775913 
L 116.249904 291.074256 
L 117.881334 292.879667 
L 121.144194 290.614333 
L 122.775624 289.171214 
L 124.407053 288.883111 
L 126.038483 289.221372 
L 127.669913 287.262266 
L 129.301343 288.604556 
L 130.932773 285.173985 
L 132.564203 286.741977 
L 134.195633 285.661847 
L 135.827063 286.442389 
L 137.458492 282.145296 
L 139.089922 279.797293 
L 140.721352 280.820161 
L 142.352782 280.294787 
L 143.984212 284.636837 
L 145.615642 283.481919 
L 147.247072 283.249663 
L 148.878502 281.866748 
L 150.509931 280.831431 
L 152.141361 280.273883 
L 153.772791 288.53059 
L 155.404221 286.596946 
L 157.035651 286.253842 
L 158.667081 283.737386 
L 160.298511 285.295007 
L 161.929941 285.051395 
L 163.56137 288.168071 
L 166.82423 289.838779 
L 168.45566 287.436377 
L 170.08709 292.652309 
L 171.71852 290.896554 
L 173.34995 290.504139 
L 174.98138 291.970701 
L 176.61281 288.290998 
L 178.244239 286.485366 
L 179.875669 288.437181 
L 181.507099 281.99226 
L 183.138529 287.513227 
L 184.769959 285.859916 
L 186.401389 281.698986 
L 188.032819 283.353088 
L 189.664249 284.145261 
L 191.295678 286.218946 
L 192.927108 291.923291 
L 194.558538 284.881023 
L 196.189968 281.990239 
L 197.821398 290.558352 
L 199.452828 286.02534 
L 201.084258 284.085976 
L 202.715688 287.297661 
L 204.347117 282.244928 
L 205.978547 280.189858 
L 207.609977 288.046627 
L 209.241407 289.757485 
L 210.872837 286.839025 
L 212.504267 290.713013 
L 214.135697 289.298504 
L 215.767127 283.528572 
L 217.398556 287.81504 
L 219.029986 285.02636 
L 220.661416 281.502843 
L 222.292846 274.823083 
L 223.924276 283.089891 
L 225.555706 285.931021 
L 227.187136 286.329233 
L 228.818566 279.211269 
L 230.449995 285.327344 
L 232.081425 282.439506 
L 233.712855 275.084414 
L 235.344285 278.955637 
L 236.975715 284.321115 
L 238.607145 284.136314 
L 240.238575 275.818237 
L 241.870005 280.918489 
L 245.132864 275.474956 
L 246.764294 283.409217 
L 248.395724 284.167959 
L 250.027154 282.594893 
L 251.658584 279.782412 
L 253.290014 283.582848 
L 254.921444 281.531632 
L 256.552873 281.30731 
L 258.184303 283.844156 
L 259.815733 282.120255 
L 261.447163 282.373593 
L 263.078593 267.857667 
L 264.710023 273.310205 
L 266.341453 270.444404 
L 267.972883 288.551994 
L 269.604312 284.357233 
L 271.235742 274.034246 
L 272.867172 282.959834 
L 274.498602 270.47425 
L 276.130032 276.819892 
L 277.761462 279.517873 
L 279.392892 282.671553 
L 281.024322 278.32993 
L 282.655751 280.422774 
L 284.287181 277.773824 
L 285.918611 280.651694 
L 287.550041 273.298245 
L 289.181471 280.052073 
L 290.812901 269.165648 
L 292.444331 275.342887 
L 294.075761 266.886536 
L 295.70719 285.993218 
L 297.33862 276.92193 
L 298.97005 278.679696 
L 300.60148 281.704508 
L 302.23291 283.758079 
L 303.86434 279.049243 
L 305.49577 288.07675 
L 307.1272 279.272784 
L 308.75863 277.499803 
L 310.390059 283.809328 
L 312.021489 275.377611 
L 313.652919 285.619019 
L 315.284349 275.729793 
L 316.915779 283.341887 
L 318.547209 287.041373 
L 320.178639 280.862511 
L 321.810069 293.169151 
L 323.441498 280.503007 
L 325.072928 277.920718 
L 326.704358 282.733274 
L 328.335788 277.597594 
L 329.967218 273.537926 
L 331.598648 284.061305 
L 333.230078 281.007626 
L 334.861508 280.534513 
L 336.492937 269.004555 
L 338.124367 273.962119 
L 339.755797 282.827538 
L 341.387227 278.804765 
L 343.018657 286.331165 
L 344.650087 264.227105 
L 346.281517 274.871354 
L 347.912947 281.218309 
L 349.544376 282.055929 
L 351.175806 277.375019 
L 352.807236 281.436723 
L 354.438666 269.857345 
L 356.070096 277.072737 
L 357.701526 279.019371 
L 359.332956 280.074869 
L 360.964386 286.286834 
L 362.595815 274.875077 
L 364.227245 289.999016 
L 365.858675 285.088775 
L 367.490105 295.488 
L 369.121535 285.003159 
L 370.752965 285.337086 
L 372.384395 277.382737 
L 374.015825 280.963522 
L 375.647254 280.998482 
L 377.278684 276.929171 
L 380.541544 269.892521 
L 382.172974 266.6796 
L 383.804404 279.053054 
L 385.435834 273.929914 
L 387.067264 273.624606 
L 388.698693 285.057772 
L 390.330123 284.719243 
L 391.961553 270.542723 
L 393.592983 267.73126 
L 395.224413 271.655173 
L 396.855843 276.764753 
L 398.487273 278.494509 
L 398.487273 278.494509 
" clip-path="url(#p9104944163)" style="fill: none; stroke-dasharray: 9.6,2.4,1.5,2.4; stroke-dashoffset: 0; stroke: #008000; stroke-width: 1.5"/>
   </g>
   <g id="line2d_35">
    <path d="M 73.832727 260.5421 
L 75.464157 260.318031 
L 77.095587 254.885829 
L 78.727017 251.605432 
L 80.358447 257.812098 
L 81.989877 252.25039 
L 83.621307 254.252226 
L 85.252736 255.595097 
L 86.884166 254.578604 
L 88.515596 252.929424 
L 90.147026 249.584105 
L 91.778456 248.820179 
L 93.409886 247.629858 
L 95.041316 250.406626 
L 96.672746 251.803894 
L 98.304175 247.091733 
L 99.935605 248.057815 
L 101.567035 241.431886 
L 103.198465 237.502189 
L 104.829895 238.814048 
L 106.461325 239.193405 
L 108.092755 237.667759 
L 109.724185 230.481059 
L 111.355614 228.458998 
L 112.987044 238.86157 
L 114.618474 233.96596 
L 116.249904 236.667375 
L 117.881334 231.277466 
L 119.512764 237.330146 
L 121.144194 236.420152 
L 122.775624 238.30219 
L 124.407053 229.568084 
L 126.038483 236.350053 
L 127.669913 233.627363 
L 129.301343 235.284348 
L 130.932773 231.59469 
L 132.564203 232.343211 
L 134.195633 236.983455 
L 135.827063 230.496007 
L 137.458492 244.352734 
L 139.089922 239.117204 
L 140.721352 242.239675 
L 142.352782 237.522415 
L 143.984212 238.764381 
L 145.615642 231.579851 
L 147.247072 236.176905 
L 148.878502 230.854125 
L 150.509931 234.243268 
L 152.141361 230.480368 
L 153.772791 233.515741 
L 155.404221 232.331789 
L 157.035651 228.158061 
L 158.667081 217.688624 
L 160.298511 219.76918 
L 161.929941 216.841026 
L 163.56137 225.212816 
L 165.1928 215.509997 
L 166.82423 219.469415 
L 168.45566 216.56701 
L 170.08709 205.731374 
L 171.71852 196.538395 
L 173.34995 188.670814 
L 174.98138 196.283045 
L 176.61281 191.437851 
L 178.244239 167.292972 
L 179.875669 164.383785 
L 181.507099 159.428777 
L 183.138529 157.845145 
L 184.769959 163.327132 
L 186.401389 153.753699 
L 188.032819 156.023701 
L 189.664249 164.533107 
L 191.295678 162.419858 
L 192.927108 168.114787 
L 194.558538 169.439335 
L 196.189968 159.577104 
L 197.821398 160.929868 
L 199.452828 155.054316 
L 201.084258 166.918437 
L 202.715688 164.46234 
L 204.347117 155.250229 
L 205.978547 160.133884 
L 207.609977 168.505635 
L 209.241407 182.26591 
L 210.872837 165.554969 
L 212.504267 175.18991 
L 214.135697 170.020645 
L 215.767127 163.037562 
L 217.398556 167.163695 
L 219.029986 165.609834 
L 220.661416 159.714884 
L 222.292846 147.597702 
L 223.924276 154.494405 
L 225.555706 152.466356 
L 227.187136 150.988612 
L 228.818566 149.870803 
L 230.449995 164.969595 
L 232.081425 152.08076 
L 233.712855 141.342665 
L 235.344285 147.078875 
L 236.975715 151.150141 
L 238.607145 151.530017 
L 240.238575 146.583008 
L 241.870005 154.601535 
L 243.501434 144.845655 
L 245.132864 130.017461 
L 248.395724 144.986782 
L 250.027154 159.216293 
L 251.658584 146.764172 
L 253.290014 154.533864 
L 254.921444 152.500948 
L 256.552873 146.799872 
L 258.184303 152.068763 
L 259.815733 147.107154 
L 261.447163 149.227656 
L 263.078593 140.586526 
L 264.710023 138.459463 
L 266.341453 134.802371 
L 267.972883 162.549629 
L 269.604312 154.995333 
L 271.235742 135.345757 
L 272.867172 143.02591 
L 274.498602 131.370989 
L 276.130032 132.974645 
L 277.761462 159.196502 
L 279.392892 152.287631 
L 281.024322 153.264214 
L 282.655751 153.585421 
L 284.287181 148.114383 
L 285.918611 147.479873 
L 287.550041 132.311873 
L 289.181471 138.155064 
L 290.812901 128.402479 
L 292.444331 129.135861 
L 294.075761 120.376862 
L 295.70719 145.323698 
L 297.33862 136.204916 
L 298.97005 137.687486 
L 300.60148 148.475344 
L 302.23291 153.123755 
L 303.86434 144.292011 
L 305.49577 152.880984 
L 307.1272 138.471051 
L 308.75863 133.56272 
L 310.390059 132.934748 
L 312.021489 125.150873 
L 313.652919 138.726264 
L 315.284349 134.304004 
L 318.547209 157.257017 
L 320.178639 147.829896 
L 321.810069 169.880803 
L 323.441498 159.259894 
L 325.072928 150.405924 
L 326.704358 156.103022 
L 328.335788 139.756091 
L 329.967218 130.867669 
L 331.598648 144.436028 
L 333.230078 135.443838 
L 334.861508 136.912781 
L 336.492937 121.38004 
L 338.124367 128.118127 
L 339.755797 134.312663 
L 341.387227 137.939311 
L 343.018657 151.270039 
L 344.650087 122.265158 
L 346.281517 127.071422 
L 347.912947 134.623546 
L 349.544376 133.615235 
L 351.175806 144.367849 
L 352.807236 152.717778 
L 354.438666 138.47413 
L 357.701526 144.162173 
L 359.332956 141.838689 
L 360.964386 166.058391 
L 362.595815 145.18527 
L 364.227245 153.738534 
L 365.858675 148.943804 
L 367.490105 164.416373 
L 369.121535 154.340953 
L 370.752965 158.908498 
L 372.384395 157.503294 
L 374.015825 145.405589 
L 375.647254 144.716612 
L 377.278684 138.303076 
L 378.910114 134.062277 
L 380.541544 122.467691 
L 382.172974 119.608425 
L 383.804404 134.024696 
L 385.435834 122.160619 
L 387.067264 126.39003 
L 388.698693 140.343075 
L 390.330123 136.238416 
L 391.961553 117.481597 
L 395.224413 120.409487 
L 396.855843 125.781904 
L 398.487273 131.588385 
L 398.487273 131.588385 
" clip-path="url(#p9104944163)" style="fill: none; stroke-dasharray: 9.6,2.4,1.5,2.4; stroke-dashoffset: 0; stroke: #008000; stroke-width: 1.5"/>
   </g>
   <g id="line2d_36">
    <path d="M 73.832727 216.333528 
L 75.464157 207.189397 
L 77.095587 161.468743 
L 99.935605 161.468743 
L 101.567035 115.748089 
L 103.198465 55.396826 
L 135.827063 55.396826 
L 137.458492 143.180482 
L 142.352782 143.180482 
L 143.984212 132.207525 
L 157.035651 132.207525 
L 158.667081 97.459828 
L 163.56137 97.459828 
L 165.1928 95.631002 
L 168.45566 95.631002 
L 170.08709 71.856262 
L 178.244239 71.856262 
L 179.875669 59.054478 
L 212.504267 59.054478 
L 214.135697 66.369783 
L 254.921444 66.369783 
L 256.552873 75.513914 
L 276.130032 75.513914 
L 277.761462 95.631002 
L 281.024322 95.631002 
L 282.655751 91.973349 
L 297.33862 91.973349 
L 298.97005 71.856262 
L 305.49577 71.856262 
L 307.1272 66.369783 
L 312.021489 66.369783 
L 313.652919 53.568 
L 346.281517 53.568 
L 347.912947 93.802175 
L 359.332956 93.802175 
L 360.964386 91.973349 
L 393.592983 91.973349 
L 395.224413 95.631002 
L 398.487273 95.631002 
L 398.487273 95.631002 
" clip-path="url(#p9104944163)" style="fill: none; stroke: #ff0000; stroke-width: 1.5; stroke-linecap: square"/>
   </g>
   <g id="patch_3">
    <path d="M 57.6 307.584 
L 57.6 41.472 
" style="fill: none; stroke: #000000; stroke-width: 0.8; stroke-linejoin: miter; stroke-linecap: square"/>
   </g>
   <g id="patch_4">
    <path d="M 414.72 307.584 
L 414.72 41.472 
" style="fill: none; stroke: #000000; stroke-width: 0.8; stroke-linejoin: miter; stroke-linecap: square"/>
   </g>
   <g id="patch_5">
    <path d="M 57.6 307.584 
L 414.72 307.584 
" style="fill: none; stroke: #000000; stroke-width: 0.8; stroke-linejoin: miter; stroke-linecap: square"/>
   </g>
   <g id="patch_6">
    <path d="M 57.6 41.472 
L 414.72 41.472 
" style="fill: none; stroke: #000000; stroke-width: 0.8; stroke-linejoin: miter; stroke-linecap: square"/>
   </g>
   <g id="text_19">
    <!-- Population's average and best fitness -->
    <g transform="translate(123.529687 35.472)scale(0.12 -0.12)">
     <defs>
      <path id="DejaVuSans-50" d="M 1259 4147 
L 1259 2394 
L 2053 2394 
Q 2494 2394 2734 2622 
Q 2975 2850 2975 3272 
Q 2975 3691 2734 3919 
Q 2494 4147 2053 4147 
L 1259 4147 
z
M 628 4666 
L 2053 4666 
Q 2838 4666 3239 4311 
Q 3641 3956 3641 3272 
Q 3641 2581 3239 2228 
Q 2838 1875 2053 1875 
L 1259 1875 
L 1259 0 
L 628 0 
L 628 4666 
z
" transform="scale(0.015625)"/>
      <path id="DejaVuSans-70" d="M 1159 525 
L 1159 -1331 
L 581 -1331 
L 581 3500 
L 1159 3500 
L 1159 2969 
Q 1341 3281 1617 3432 
Q 1894 3584 2278 3584 
Q 2916 3584 3314 3078 
Q 3713 2572 3713 1747 
Q 3713 922 3314 415 
Q 2916 -91 2278 -91 
Q 1894 -91 1617 61 
Q 1341 213 1159 525 
z
M 3116 1747 
Q 3116 2381 2855 2742 
Q 2594 3103 2138 3103 
Q 1681 3103 1420 2742 
Q 1159 2381 1159 1747 
Q 1159 1113 1420 752 
Q 1681 391 2138 391 
Q 2594 391 2855 752 
Q 3116 1113 3116 1747 
z
" transform="scale(0.015625)"/>
      <path id="DejaVuSans-75" d="M 544 1381 
L 544 3500 
L 1119 3500 
L 1119 1403 
Q 1119 906 1312 657 
Q 1506 409 1894 409 
Q 2359 409 2629 706 
Q 2900 1003 2900 1516 
L 2900 3500 
L 3475 3500 
L 3475 0 
L 2900 0 
L 2900 538 
Q 2691 219 2414 64 
Q 2138 -91 1772 -91 
Q 1169 -91 856 284 
Q 544 659 544 1381 
z
M 1991 3584 
L 1991 3584 
z
" transform="scale(0.015625)"/>
      <path id="DejaVuSans-6c" d="M 603 4863 
L 1178 4863 
L 1178 0 
L 603 0 
L 603 4863 
z
" transform="scale(0.015625)"/>
      <path id="DejaVuSans-27" d="M 1147 4666 
L 1147 2931 
L 616 2931 
L 616 4666 
L 1147 4666 
z
" transform="scale(0.015625)"/>
      <path id="DejaVuSans-20" transform="scale(0.015625)"/>
      <path id="DejaVuSans-76" d="M 191 3500 
L 800 3500 
L 1894 563 
L 2988 3500 
L 3597 3500 
L 2284 0 
L 1503 0 
L 191 3500 
z
" transform="scale(0.015625)"/>
      <path id="DejaVuSans-67" d="M 2906 1791 
Q 2906 2416 2648 2759 
Q 2391 3103 1925 3103 
Q 1463 3103 1205 2759 
Q 947 2416 947 1791 
Q 947 1169 1205 825 
Q 1463 481 1925 481 
Q 2391 481 2648 825 
Q 2906 1169 2906 1791 
z
M 3481 434 
Q 3481 -459 3084 -895 
Q 2688 -1331 1869 -1331 
Q 1566 -1331 1297 -1286 
Q 1028 -1241 775 -1147 
L 775 -588 
Q 1028 -725 1275 -790 
Q 1522 -856 1778 -856 
Q 2344 -856 2625 -561 
Q 2906 -266 2906 331 
L 2906 616 
Q 2728 306 2450 153 
Q 2172 0 1784 0 
Q 1141 0 747 490 
Q 353 981 353 1791 
Q 353 2603 747 3093 
Q 1141 3584 1784 3584 
Q 2172 3584 2450 3431 
Q 2728 3278 2906 2969 
L 2906 3500 
L 3481 3500 
L 3481 434 
z
" transform="scale(0.015625)"/>
      <path id="DejaVuSans-64" d="M 2906 2969 
L 2906 4863 
L 3481 4863 
L 3481 0 
L 2906 0 
L 2906 525 
Q 2725 213 2448 61 
Q 2172 -91 1784 -91 
Q 1150 -91 751 415 
Q 353 922 353 1747 
Q 353 2572 751 3078 
Q 1150 3584 1784 3584 
Q 2172 3584 2448 3432 
Q 2725 3281 2906 2969 
z
M 947 1747 
Q 947 1113 1208 752 
Q 1469 391 1925 391 
Q 2381 391 2643 752 
Q 2906 1113 2906 1747 
Q 2906 2381 2643 2742 
Q 2381 3103 1925 3103 
Q 1469 3103 1208 2742 
Q 947 2381 947 1747 
z
" transform="scale(0.015625)"/>
      <path id="DejaVuSans-62" d="M 3116 1747 
Q 3116 2381 2855 2742 
Q 2594 3103 2138 3103 
Q 1681 3103 1420 2742 
Q 1159 2381 1159 1747 
Q 1159 1113 1420 752 
Q 1681 391 2138 391 
Q 2594 391 2855 752 
Q 3116 1113 3116 1747 
z
M 1159 2969 
Q 1341 3281 1617 3432 
Q 1894 3584 2278 3584 
Q 2916 3584 3314 3078 
Q 3713 2572 3713 1747 
Q 3713 922 3314 415 
Q 2916 -91 2278 -91 
Q 1894 -91 1617 61 
Q 1341 213 1159 525 
L 1159 0 
L 581 0 
L 581 4863 
L 1159 4863 
L 1159 2969 
z
" transform="scale(0.015625)"/>
      <path id="DejaVuSans-66" d="M 2375 4863 
L 2375 4384 
L 1825 4384 
Q 1516 4384 1395 4259 
Q 1275 4134 1275 3809 
L 1275 3500 
L 2222 3500 
L 2222 3053 
L 1275 3053 
L 1275 0 
L 697 0 
L 697 3053 
L 147 3053 
L 147 3500 
L 697 3500 
L 697 3744 
Q 697 4328 969 4595 
Q 1241 4863 1831 4863 
L 2375 4863 
z
" transform="scale(0.015625)"/>
     </defs>
     <use xlink:href="#DejaVuSans-50"/>
     <use xlink:href="#DejaVuSans-6f" x="56.677734"/>
     <use xlink:href="#DejaVuSans-70" x="117.859375"/>
     <use xlink:href="#DejaVuSans-75" x="181.335938"/>
     <use xlink:href="#DejaVuSans-6c" x="244.714844"/>
     <use xlink:href="#DejaVuSans-61" x="272.498047"/>
     <use xlink:href="#DejaVuSans-74" x="333.777344"/>
     <use xlink:href="#DejaVuSans-69" x="372.986328"/>
     <use xlink:href="#DejaVuSans-6f" x="400.769531"/>
     <use xlink:href="#DejaVuSans-6e" x="461.951172"/>
     <use xlink:href="#DejaVuSans-27" x="525.330078"/>
     <use xlink:href="#DejaVuSans-73" x="552.820312"/>
     <use xlink:href="#DejaVuSans-20" x="604.919922"/>
     <use xlink:href="#DejaVuSans-61" x="636.707031"/>
     <use xlink:href="#DejaVuSans-76" x="697.986328"/>
     <use xlink:href="#DejaVuSans-65" x="757.166016"/>
     <use xlink:href="#DejaVuSans-72" x="818.689453"/>
     <use xlink:href="#DejaVuSans-61" x="859.802734"/>
     <use xlink:href="#DejaVuSans-67" x="921.082031"/>
     <use xlink:href="#DejaVuSans-65" x="984.558594"/>
     <use xlink:href="#DejaVuSans-20" x="1046.082031"/>
     <use xlink:href="#DejaVuSans-61" x="1077.869141"/>
     <use xlink:href="#DejaVuSans-6e" x="1139.148438"/>
     <use xlink:href="#DejaVuSans-64" x="1202.527344"/>
     <use xlink:href="#DejaVuSans-20" x="1266.003906"/>
     <use xlink:href="#DejaVuSans-62" x="1297.791016"/>
     <use xlink:href="#DejaVuSans-65" x="1361.267578"/>
     <use xlink:href="#DejaVuSans-73" x="1422.791016"/>
     <use xlink:href="#DejaVuSans-74" x="1474.890625"/>
     <use xlink:href="#DejaVuSans-20" x="1514.099609"/>
     <use xlink:href="#DejaVuSans-66" x="1545.886719"/>
     <use xlink:href="#DejaVuSans-69" x="1581.091797"/>
     <use xlink:href="#DejaVuSans-74" x="1608.875"/>
     <use xlink:href="#DejaVuSans-6e" x="1648.083984"/>
     <use xlink:href="#DejaVuSans-65" x="1711.462891"/>
     <use xlink:href="#DejaVuSans-73" x="1772.986328"/>
     <use xlink:href="#DejaVuSans-73" x="1825.085938"/>
    </g>
   </g>
   <g id="legend_1">
    <g id="patch_7">
     <path d="M 64.6 205.38425 
L 137.540625 205.38425 
Q 139.540625 205.38425 139.540625 203.38425 
L 139.540625 145.67175 
Q 139.540625 143.67175 137.540625 143.67175 
L 64.6 143.67175 
Q 62.6 143.67175 62.6 145.67175 
L 62.6 203.38425 
Q 62.6 205.38425 64.6 205.38425 
z
" style="fill: #ffffff; opacity: 0.8; stroke: #cccccc; stroke-linejoin: miter"/>
    </g>
    <g id="line2d_37">
     <path d="M 66.6 151.770188 
L 76.6 151.770188 
L 86.6 151.770188 
" style="fill: none; stroke: #0000ff; stroke-width: 1.5; stroke-linecap: square"/>
    </g>
    <g id="text_20">
     <!-- average -->
     <g transform="translate(94.6 155.270188)scale(0.1 -0.1)">
      <use xlink:href="#DejaVuSans-61"/>
      <use xlink:href="#DejaVuSans-76" x="61.279297"/>
      <use xlink:href="#DejaVuSans-65" x="120.458984"/>
      <use xlink:href="#DejaVuSans-72" x="181.982422"/>
      <use xlink:href="#DejaVuSans-61" x="223.095703"/>
      <use xlink:href="#DejaVuSans-67" x="284.375"/>
      <use xlink:href="#DejaVuSans-65" x="347.851562"/>
     </g>
    </g>
    <g id="line2d_38">
     <path d="M 66.6 166.448313 
L 76.6 166.448313 
L 86.6 166.448313 
" style="fill: none; stroke-dasharray: 9.6,2.4,1.5,2.4; stroke-dashoffset: 0; stroke: #008000; stroke-width: 1.5"/>
    </g>
    <g id="text_21">
     <!-- -1 sd -->
     <g transform="translate(94.6 169.948313)scale(0.1 -0.1)">
      <defs>
       <path id="DejaVuSans-2d" d="M 313 2009 
L 1997 2009 
L 1997 1497 
L 313 1497 
L 313 2009 
z
" transform="scale(0.015625)"/>
      </defs>
      <use xlink:href="#DejaVuSans-2d"/>
      <use xlink:href="#DejaVuSans-31" x="36.083984"/>
      <use xlink:href="#DejaVuSans-20" x="99.707031"/>
      <use xlink:href="#DejaVuSans-73" x="131.494141"/>
      <use xlink:href="#DejaVuSans-64" x="183.59375"/>
     </g>
    </g>
    <g id="line2d_39">
     <path d="M 66.6 181.126438 
L 76.6 181.126438 
L 86.6 181.126438 
" style="fill: none; stroke-dasharray: 9.6,2.4,1.5,2.4; stroke-dashoffset: 0; stroke: #008000; stroke-width: 1.5"/>
    </g>
    <g id="text_22">
     <!-- +1 sd -->
     <g transform="translate(94.6 184.626438)scale(0.1 -0.1)">
      <defs>
       <path id="DejaVuSans-2b" d="M 2944 4013 
L 2944 2272 
L 4684 2272 
L 4684 1741 
L 2944 1741 
L 2944 0 
L 2419 0 
L 2419 1741 
L 678 1741 
L 678 2272 
L 2419 2272 
L 2419 4013 
L 2944 4013 
z
" transform="scale(0.015625)"/>
      </defs>
      <use xlink:href="#DejaVuSans-2b"/>
      <use xlink:href="#DejaVuSans-31" x="83.789062"/>
      <use xlink:href="#DejaVuSans-20" x="147.412109"/>
      <use xlink:href="#DejaVuSans-73" x="179.199219"/>
      <use xlink:href="#DejaVuSans-64" x="231.298828"/>
     </g>
    </g>
    <g id="line2d_40">
     <path d="M 66.6 195.804563 
L 76.6 195.804563 
L 86.6 195.804563 
" style="fill: none; stroke: #ff0000; stroke-width: 1.5; stroke-linecap: square"/>
    </g>
    <g id="text_23">
     <!-- best -->
     <g transform="translate(94.6 199.304563)scale(0.1 -0.1)">
      <use xlink:href="#DejaVuSans-62"/>
      <use xlink:href="#DejaVuSans-65" x="63.476562"/>
      <use xlink:href="#DejaVuSans-73" x="125"/>
      <use xlink:href="#DejaVuSans-74" x="177.099609"/>
     </g>
    </g>
   </g>
  </g>
 </g>
 <defs>
  <clipPath id="p9104944163">
   <rect x="57.6" y="41.472" width="357.12" height="266.112"/>
  </clipPath>
 </defs>
</svg>
