<?xml version="1.0" encoding="utf-8" standalone="no"?>
<!DOCTYPE svg PUBLIC "-//W3C//DTD SVG 1.1//EN"
  "http://www.w3.org/Graphics/SVG/1.1/DTD/svg11.dtd">
<svg xmlns:xlink="http://www.w3.org/1999/xlink" width="460.8pt" height="345.6pt" viewBox="0 0 460.8 345.6" xmlns="http://www.w3.org/2000/svg" version="1.1">
 <metadata>
  <rdf:RDF xmlns:dc="http://purl.org/dc/elements/1.1/" xmlns:cc="http://creativecommons.org/ns#" xmlns:rdf="http://www.w3.org/1999/02/22-rdf-syntax-ns#">
   <cc:Work>
    <dc:type rdf:resource="http://purl.org/dc/dcmitype/StillImage"/>
    <dc:date>2022-07-30T10:14:12.784034</dc:date>
    <dc:format>image/svg+xml</dc:format>
    <dc:creator>
     <cc:Agent>
      <dc:title>Matplotlib v3.5.2, https://matplotlib.org/</dc:title>
     </cc:Agent>
    </dc:creator>
   </cc:Work>
  </rdf:RDF>
 </metadata>
 <defs>
  <style type="text/css">*{stroke-linejoin: round; stroke-linecap: butt}</style>
 </defs>
 <g id="figure_1">
  <g id="patch_1">
   <path d="M 0 345.6 
L 460.8 345.6 
L 460.8 0 
L 0 0 
z
" style="fill: #ffffff"/>
  </g>
  <g id="axes_1">
   <g id="patch_2">
    <path d="M 57.6 307.584 
L 414.72 307.584 
L 414.72 41.472 
L 57.6 41.472 
z
" style="fill: #ffffff"/>
   </g>
   <g id="matplotlib.axis_1">
    <g id="xtick_1">
     <g id="line2d_1">
      <path d="M 73.832727 307.584 
L 73.832727 41.472 
" clip-path="url(#pcbacc78af1)" style="fill: none; stroke: #b0b0b0; stroke-width: 0.8; stroke-linecap: square"/>
     </g>
     <g id="line2d_2">
      <defs>
       <path id="madef646680" d="M 0 0 
L 0 3.5 
" style="stroke: #000000; stroke-width: 0.8"/>
      </defs>
      <g>
       <use xlink:href="#madef646680" x="73.832727" y="307.584" style="stroke: #000000; stroke-width: 0.8"/>
      </g>
     </g>
     <g id="text_1">
      <!-- 0 -->
      <g transform="translate(70.651477 322.182437)scale(0.1 -0.1)">
       <defs>
        <path id="DejaVuSans-30" d="M 2034 4250 
Q 1547 4250 1301 3770 
Q 1056 3291 1056 2328 
Q 1056 1369 1301 889 
Q 1547 409 2034 409 
Q 2525 409 2770 889 
Q 3016 1369 3016 2328 
Q 3016 3291 2770 3770 
Q 2525 4250 2034 4250 
z
M 2034 4750 
Q 2819 4750 3233 4129 
Q 3647 3509 3647 2328 
Q 3647 1150 3233 529 
Q 2819 -91 2034 -91 
Q 1250 -91 836 529 
Q 422 1150 422 2328 
Q 422 3509 836 4129 
Q 1250 4750 2034 4750 
z
" transform="scale(0.015625)"/>
       </defs>
       <use xlink:href="#DejaVuSans-30"/>
      </g>
     </g>
    </g>
    <g id="xtick_2">
     <g id="line2d_3">
      <path d="M 114.618474 307.584 
L 114.618474 41.472 
" clip-path="url(#pcbacc78af1)" style="fill: none; stroke: #b0b0b0; stroke-width: 0.8; stroke-linecap: square"/>
     </g>
     <g id="line2d_4">
      <g>
       <use xlink:href="#madef646680" x="114.618474" y="307.584" style="stroke: #000000; stroke-width: 0.8"/>
      </g>
     </g>
     <g id="text_2">
      <!-- 25 -->
      <g transform="translate(108.255974 322.182437)scale(0.1 -0.1)">
       <defs>
        <path id="DejaVuSans-32" d="M 1228 531 
L 3431 531 
L 3431 0 
L 469 0 
L 469 531 
Q 828 903 1448 1529 
Q 2069 2156 2228 2338 
Q 2531 2678 2651 2914 
Q 2772 3150 2772 3378 
Q 2772 3750 2511 3984 
Q 2250 4219 1831 4219 
Q 1534 4219 1204 4116 
Q 875 4013 500 3803 
L 500 4441 
Q 881 4594 1212 4672 
Q 1544 4750 1819 4750 
Q 2544 4750 2975 4387 
Q 3406 4025 3406 3419 
Q 3406 3131 3298 2873 
Q 3191 2616 2906 2266 
Q 2828 2175 2409 1742 
Q 1991 1309 1228 531 
z
" transform="scale(0.015625)"/>
        <path id="DejaVuSans-35" d="M 691 4666 
L 3169 4666 
L 3169 4134 
L 1269 4134 
L 1269 2991 
Q 1406 3038 1543 3061 
Q 1681 3084 1819 3084 
Q 2600 3084 3056 2656 
Q 3513 2228 3513 1497 
Q 3513 744 3044 326 
Q 2575 -91 1722 -91 
Q 1428 -91 1123 -41 
Q 819 9 494 109 
L 494 744 
Q 775 591 1075 516 
Q 1375 441 1709 441 
Q 2250 441 2565 725 
Q 2881 1009 2881 1497 
Q 2881 1984 2565 2268 
Q 2250 2553 1709 2553 
Q 1456 2553 1204 2497 
Q 953 2441 691 2322 
L 691 4666 
z
" transform="scale(0.015625)"/>
       </defs>
       <use xlink:href="#DejaVuSans-32"/>
       <use xlink:href="#DejaVuSans-35" x="63.623047"/>
      </g>
     </g>
    </g>
    <g id="xtick_3">
     <g id="line2d_5">
      <path d="M 155.404221 307.584 
L 155.404221 41.472 
" clip-path="url(#pcbacc78af1)" style="fill: none; stroke: #b0b0b0; stroke-width: 0.8; stroke-linecap: square"/>
     </g>
     <g id="line2d_6">
      <g>
       <use xlink:href="#madef646680" x="155.404221" y="307.584" style="stroke: #000000; stroke-width: 0.8"/>
      </g>
     </g>
     <g id="text_3">
      <!-- 50 -->
      <g transform="translate(149.041721 322.182437)scale(0.1 -0.1)">
       <use xlink:href="#DejaVuSans-35"/>
       <use xlink:href="#DejaVuSans-30" x="63.623047"/>
      </g>
     </g>
    </g>
    <g id="xtick_4">
     <g id="line2d_7">
      <path d="M 196.189968 307.584 
L 196.189968 41.472 
" clip-path="url(#pcbacc78af1)" style="fill: none; stroke: #b0b0b0; stroke-width: 0.8; stroke-linecap: square"/>
     </g>
     <g id="line2d_8">
      <g>
       <use xlink:href="#madef646680" x="196.189968" y="307.584" style="stroke: #000000; stroke-width: 0.8"/>
      </g>
     </g>
     <g id="text_4">
      <!-- 75 -->
      <g transform="translate(189.827468 322.182437)scale(0.1 -0.1)">
       <defs>
        <path id="DejaVuSans-37" d="M 525 4666 
L 3525 4666 
L 3525 4397 
L 1831 0 
L 1172 0 
L 2766 4134 
L 525 4134 
L 525 4666 
z
" transform="scale(0.015625)"/>
       </defs>
       <use xlink:href="#DejaVuSans-37"/>
       <use xlink:href="#DejaVuSans-35" x="63.623047"/>
      </g>
     </g>
    </g>
    <g id="xtick_5">
     <g id="line2d_9">
      <path d="M 236.975715 307.584 
L 236.975715 41.472 
" clip-path="url(#pcbacc78af1)" style="fill: none; stroke: #b0b0b0; stroke-width: 0.8; stroke-linecap: square"/>
     </g>
     <g id="line2d_10">
      <g>
       <use xlink:href="#madef646680" x="236.975715" y="307.584" style="stroke: #000000; stroke-width: 0.8"/>
      </g>
     </g>
     <g id="text_5">
      <!-- 100 -->
      <g transform="translate(227.431965 322.182437)scale(0.1 -0.1)">
       <defs>
        <path id="DejaVuSans-31" d="M 794 531 
L 1825 531 
L 1825 4091 
L 703 3866 
L 703 4441 
L 1819 4666 
L 2450 4666 
L 2450 531 
L 3481 531 
L 3481 0 
L 794 0 
L 794 531 
z
" transform="scale(0.015625)"/>
       </defs>
       <use xlink:href="#DejaVuSans-31"/>
       <use xlink:href="#DejaVuSans-30" x="63.623047"/>
       <use xlink:href="#DejaVuSans-30" x="127.246094"/>
      </g>
     </g>
    </g>
    <g id="xtick_6">
     <g id="line2d_11">
      <path d="M 277.761462 307.584 
L 277.761462 41.472 
" clip-path="url(#pcbacc78af1)" style="fill: none; stroke: #b0b0b0; stroke-width: 0.8; stroke-linecap: square"/>
     </g>
     <g id="line2d_12">
      <g>
       <use xlink:href="#madef646680" x="277.761462" y="307.584" style="stroke: #000000; stroke-width: 0.8"/>
      </g>
     </g>
     <g id="text_6">
      <!-- 125 -->
      <g transform="translate(268.217712 322.182437)scale(0.1 -0.1)">
       <use xlink:href="#DejaVuSans-31"/>
       <use xlink:href="#DejaVuSans-32" x="63.623047"/>
       <use xlink:href="#DejaVuSans-35" x="127.246094"/>
      </g>
     </g>
    </g>
    <g id="xtick_7">
     <g id="line2d_13">
      <path d="M 318.547209 307.584 
L 318.547209 41.472 
" clip-path="url(#pcbacc78af1)" style="fill: none; stroke: #b0b0b0; stroke-width: 0.8; stroke-linecap: square"/>
     </g>
     <g id="line2d_14">
      <g>
       <use xlink:href="#madef646680" x="318.547209" y="307.584" style="stroke: #000000; stroke-width: 0.8"/>
      </g>
     </g>
     <g id="text_7">
      <!-- 150 -->
      <g transform="translate(309.003459 322.182437)scale(0.1 -0.1)">
       <use xlink:href="#DejaVuSans-31"/>
       <use xlink:href="#DejaVuSans-35" x="63.623047"/>
       <use xlink:href="#DejaVuSans-30" x="127.246094"/>
      </g>
     </g>
    </g>
    <g id="xtick_8">
     <g id="line2d_15">
      <path d="M 359.332956 307.584 
L 359.332956 41.472 
" clip-path="url(#pcbacc78af1)" style="fill: none; stroke: #b0b0b0; stroke-width: 0.8; stroke-linecap: square"/>
     </g>
     <g id="line2d_16">
      <g>
       <use xlink:href="#madef646680" x="359.332956" y="307.584" style="stroke: #000000; stroke-width: 0.8"/>
      </g>
     </g>
     <g id="text_8">
      <!-- 175 -->
      <g transform="translate(349.789206 322.182437)scale(0.1 -0.1)">
       <use xlink:href="#DejaVuSans-31"/>
       <use xlink:href="#DejaVuSans-37" x="63.623047"/>
       <use xlink:href="#DejaVuSans-35" x="127.246094"/>
      </g>
     </g>
    </g>
    <g id="xtick_9">
     <g id="line2d_17">
      <path d="M 400.118703 307.584 
L 400.118703 41.472 
" clip-path="url(#pcbacc78af1)" style="fill: none; stroke: #b0b0b0; stroke-width: 0.8; stroke-linecap: square"/>
     </g>
     <g id="line2d_18">
      <g>
       <use xlink:href="#madef646680" x="400.118703" y="307.584" style="stroke: #000000; stroke-width: 0.8"/>
      </g>
     </g>
     <g id="text_9">
      <!-- 200 -->
      <g transform="translate(390.574953 322.182437)scale(0.1 -0.1)">
       <use xlink:href="#DejaVuSans-32"/>
       <use xlink:href="#DejaVuSans-30" x="63.623047"/>
       <use xlink:href="#DejaVuSans-30" x="127.246094"/>
      </g>
     </g>
    </g>
    <g id="text_10">
     <!-- Generations -->
     <g transform="translate(205.662344 335.860562)scale(0.1 -0.1)">
      <defs>
       <path id="DejaVuSans-47" d="M 3809 666 
L 3809 1919 
L 2778 1919 
L 2778 2438 
L 4434 2438 
L 4434 434 
Q 4069 175 3628 42 
Q 3188 -91 2688 -91 
Q 1594 -91 976 548 
Q 359 1188 359 2328 
Q 359 3472 976 4111 
Q 1594 4750 2688 4750 
Q 3144 4750 3555 4637 
Q 3966 4525 4313 4306 
L 4313 3634 
Q 3963 3931 3569 4081 
Q 3175 4231 2741 4231 
Q 1884 4231 1454 3753 
Q 1025 3275 1025 2328 
Q 1025 1384 1454 906 
Q 1884 428 2741 428 
Q 3075 428 3337 486 
Q 3600 544 3809 666 
z
" transform="scale(0.015625)"/>
       <path id="DejaVuSans-65" d="M 3597 1894 
L 3597 1613 
L 953 1613 
Q 991 1019 1311 708 
Q 1631 397 2203 397 
Q 2534 397 2845 478 
Q 3156 559 3463 722 
L 3463 178 
Q 3153 47 2828 -22 
Q 2503 -91 2169 -91 
Q 1331 -91 842 396 
Q 353 884 353 1716 
Q 353 2575 817 3079 
Q 1281 3584 2069 3584 
Q 2775 3584 3186 3129 
Q 3597 2675 3597 1894 
z
M 3022 2063 
Q 3016 2534 2758 2815 
Q 2500 3097 2075 3097 
Q 1594 3097 1305 2825 
Q 1016 2553 972 2059 
L 3022 2063 
z
" transform="scale(0.015625)"/>
       <path id="DejaVuSans-6e" d="M 3513 2113 
L 3513 0 
L 2938 0 
L 2938 2094 
Q 2938 2591 2744 2837 
Q 2550 3084 2163 3084 
Q 1697 3084 1428 2787 
Q 1159 2491 1159 1978 
L 1159 0 
L 581 0 
L 581 3500 
L 1159 3500 
L 1159 2956 
Q 1366 3272 1645 3428 
Q 1925 3584 2291 3584 
Q 2894 3584 3203 3211 
Q 3513 2838 3513 2113 
z
" transform="scale(0.015625)"/>
       <path id="DejaVuSans-72" d="M 2631 2963 
Q 2534 3019 2420 3045 
Q 2306 3072 2169 3072 
Q 1681 3072 1420 2755 
Q 1159 2438 1159 1844 
L 1159 0 
L 581 0 
L 581 3500 
L 1159 3500 
L 1159 2956 
Q 1341 3275 1631 3429 
Q 1922 3584 2338 3584 
Q 2397 3584 2469 3576 
Q 2541 3569 2628 3553 
L 2631 2963 
z
" transform="scale(0.015625)"/>
       <path id="DejaVuSans-61" d="M 2194 1759 
Q 1497 1759 1228 1600 
Q 959 1441 959 1056 
Q 959 750 1161 570 
Q 1363 391 1709 391 
Q 2188 391 2477 730 
Q 2766 1069 2766 1631 
L 2766 1759 
L 2194 1759 
z
M 3341 1997 
L 3341 0 
L 2766 0 
L 2766 531 
Q 2569 213 2275 61 
Q 1981 -91 1556 -91 
Q 1019 -91 701 211 
Q 384 513 384 1019 
Q 384 1609 779 1909 
Q 1175 2209 1959 2209 
L 2766 2209 
L 2766 2266 
Q 2766 2663 2505 2880 
Q 2244 3097 1772 3097 
Q 1472 3097 1187 3025 
Q 903 2953 641 2809 
L 641 3341 
Q 956 3463 1253 3523 
Q 1550 3584 1831 3584 
Q 2591 3584 2966 3190 
Q 3341 2797 3341 1997 
z
" transform="scale(0.015625)"/>
       <path id="DejaVuSans-74" d="M 1172 4494 
L 1172 3500 
L 2356 3500 
L 2356 3053 
L 1172 3053 
L 1172 1153 
Q 1172 725 1289 603 
Q 1406 481 1766 481 
L 2356 481 
L 2356 0 
L 1766 0 
Q 1100 0 847 248 
Q 594 497 594 1153 
L 594 3053 
L 172 3053 
L 172 3500 
L 594 3500 
L 594 4494 
L 1172 4494 
z
" transform="scale(0.015625)"/>
       <path id="DejaVuSans-69" d="M 603 3500 
L 1178 3500 
L 1178 0 
L 603 0 
L 603 3500 
z
M 603 4863 
L 1178 4863 
L 1178 4134 
L 603 4134 
L 603 4863 
z
" transform="scale(0.015625)"/>
       <path id="DejaVuSans-6f" d="M 1959 3097 
Q 1497 3097 1228 2736 
Q 959 2375 959 1747 
Q 959 1119 1226 758 
Q 1494 397 1959 397 
Q 2419 397 2687 759 
Q 2956 1122 2956 1747 
Q 2956 2369 2687 2733 
Q 2419 3097 1959 3097 
z
M 1959 3584 
Q 2709 3584 3137 3096 
Q 3566 2609 3566 1747 
Q 3566 888 3137 398 
Q 2709 -91 1959 -91 
Q 1206 -91 779 398 
Q 353 888 353 1747 
Q 353 2609 779 3096 
Q 1206 3584 1959 3584 
z
" transform="scale(0.015625)"/>
       <path id="DejaVuSans-73" d="M 2834 3397 
L 2834 2853 
Q 2591 2978 2328 3040 
Q 2066 3103 1784 3103 
Q 1356 3103 1142 2972 
Q 928 2841 928 2578 
Q 928 2378 1081 2264 
Q 1234 2150 1697 2047 
L 1894 2003 
Q 2506 1872 2764 1633 
Q 3022 1394 3022 966 
Q 3022 478 2636 193 
Q 2250 -91 1575 -91 
Q 1294 -91 989 -36 
Q 684 19 347 128 
L 347 722 
Q 666 556 975 473 
Q 1284 391 1588 391 
Q 1994 391 2212 530 
Q 2431 669 2431 922 
Q 2431 1156 2273 1281 
Q 2116 1406 1581 1522 
L 1381 1569 
Q 847 1681 609 1914 
Q 372 2147 372 2553 
Q 372 3047 722 3315 
Q 1072 3584 1716 3584 
Q 2034 3584 2315 3537 
Q 2597 3491 2834 3397 
z
" transform="scale(0.015625)"/>
      </defs>
      <use xlink:href="#DejaVuSans-47"/>
      <use xlink:href="#DejaVuSans-65" x="77.490234"/>
      <use xlink:href="#DejaVuSans-6e" x="139.013672"/>
      <use xlink:href="#DejaVuSans-65" x="202.392578"/>
      <use xlink:href="#DejaVuSans-72" x="263.916016"/>
      <use xlink:href="#DejaVuSans-61" x="305.029297"/>
      <use xlink:href="#DejaVuSans-74" x="366.308594"/>
      <use xlink:href="#DejaVuSans-69" x="405.517578"/>
      <use xlink:href="#DejaVuSans-6f" x="433.300781"/>
      <use xlink:href="#DejaVuSans-6e" x="494.482422"/>
      <use xlink:href="#DejaVuSans-73" x="557.861328"/>
     </g>
    </g>
   </g>
   <g id="matplotlib.axis_2">
    <g id="ytick_1">
     <g id="line2d_19">
      <path d="M 57.6 283.560413 
L 414.72 283.560413 
" clip-path="url(#pcbacc78af1)" style="fill: none; stroke: #b0b0b0; stroke-width: 0.8; stroke-linecap: square"/>
     </g>
     <g id="line2d_20">
      <defs>
       <path id="m98e6e2242c" d="M 0 0 
L -3.5 0 
" style="stroke: #000000; stroke-width: 0.8"/>
      </defs>
      <g>
       <use xlink:href="#m98e6e2242c" x="57.6" y="283.560413" style="stroke: #000000; stroke-width: 0.8"/>
      </g>
     </g>
     <g id="text_11">
      <!-- 0 -->
      <g transform="translate(44.2375 287.359632)scale(0.1 -0.1)">
       <use xlink:href="#DejaVuSans-30"/>
      </g>
     </g>
    </g>
    <g id="ytick_2">
     <g id="line2d_21">
      <path d="M 57.6 252.311444 
L 414.72 252.311444 
" clip-path="url(#pcbacc78af1)" style="fill: none; stroke: #b0b0b0; stroke-width: 0.8; stroke-linecap: square"/>
     </g>
     <g id="line2d_22">
      <g>
       <use xlink:href="#m98e6e2242c" x="57.6" y="252.311444" style="stroke: #000000; stroke-width: 0.8"/>
      </g>
     </g>
     <g id="text_12">
      <!-- 25 -->
      <g transform="translate(37.875 256.110663)scale(0.1 -0.1)">
       <use xlink:href="#DejaVuSans-32"/>
       <use xlink:href="#DejaVuSans-35" x="63.623047"/>
      </g>
     </g>
    </g>
    <g id="ytick_3">
     <g id="line2d_23">
      <path d="M 57.6 221.062475 
L 414.72 221.062475 
" clip-path="url(#pcbacc78af1)" style="fill: none; stroke: #b0b0b0; stroke-width: 0.8; stroke-linecap: square"/>
     </g>
     <g id="line2d_24">
      <g>
       <use xlink:href="#m98e6e2242c" x="57.6" y="221.062475" style="stroke: #000000; stroke-width: 0.8"/>
      </g>
     </g>
     <g id="text_13">
      <!-- 50 -->
      <g transform="translate(37.875 224.861693)scale(0.1 -0.1)">
       <use xlink:href="#DejaVuSans-35"/>
       <use xlink:href="#DejaVuSans-30" x="63.623047"/>
      </g>
     </g>
    </g>
    <g id="ytick_4">
     <g id="line2d_25">
      <path d="M 57.6 189.813506 
L 414.72 189.813506 
" clip-path="url(#pcbacc78af1)" style="fill: none; stroke: #b0b0b0; stroke-width: 0.8; stroke-linecap: square"/>
     </g>
     <g id="line2d_26">
      <g>
       <use xlink:href="#m98e6e2242c" x="57.6" y="189.813506" style="stroke: #000000; stroke-width: 0.8"/>
      </g>
     </g>
     <g id="text_14">
      <!-- 75 -->
      <g transform="translate(37.875 193.612724)scale(0.1 -0.1)">
       <use xlink:href="#DejaVuSans-37"/>
       <use xlink:href="#DejaVuSans-35" x="63.623047"/>
      </g>
     </g>
    </g>
    <g id="ytick_5">
     <g id="line2d_27">
      <path d="M 57.6 158.564536 
L 414.72 158.564536 
" clip-path="url(#pcbacc78af1)" style="fill: none; stroke: #b0b0b0; stroke-width: 0.8; stroke-linecap: square"/>
     </g>
     <g id="line2d_28">
      <g>
       <use xlink:href="#m98e6e2242c" x="57.6" y="158.564536" style="stroke: #000000; stroke-width: 0.8"/>
      </g>
     </g>
     <g id="text_15">
      <!-- 100 -->
      <g transform="translate(31.5125 162.363755)scale(0.1 -0.1)">
       <use xlink:href="#DejaVuSans-31"/>
       <use xlink:href="#DejaVuSans-30" x="63.623047"/>
       <use xlink:href="#DejaVuSans-30" x="127.246094"/>
      </g>
     </g>
    </g>
    <g id="ytick_6">
     <g id="line2d_29">
      <path d="M 57.6 127.315567 
L 414.72 127.315567 
" clip-path="url(#pcbacc78af1)" style="fill: none; stroke: #b0b0b0; stroke-width: 0.8; stroke-linecap: square"/>
     </g>
     <g id="line2d_30">
      <g>
       <use xlink:href="#m98e6e2242c" x="57.6" y="127.315567" style="stroke: #000000; stroke-width: 0.8"/>
      </g>
     </g>
     <g id="text_16">
      <!-- 125 -->
      <g transform="translate(31.5125 131.114786)scale(0.1 -0.1)">
       <use xlink:href="#DejaVuSans-31"/>
       <use xlink:href="#DejaVuSans-32" x="63.623047"/>
       <use xlink:href="#DejaVuSans-35" x="127.246094"/>
      </g>
     </g>
    </g>
    <g id="ytick_7">
     <g id="line2d_31">
      <path d="M 57.6 96.066598 
L 414.72 96.066598 
" clip-path="url(#pcbacc78af1)" style="fill: none; stroke: #b0b0b0; stroke-width: 0.8; stroke-linecap: square"/>
     </g>
     <g id="line2d_32">
      <g>
       <use xlink:href="#m98e6e2242c" x="57.6" y="96.066598" style="stroke: #000000; stroke-width: 0.8"/>
      </g>
     </g>
     <g id="text_17">
      <!-- 150 -->
      <g transform="translate(31.5125 99.865817)scale(0.1 -0.1)">
       <use xlink:href="#DejaVuSans-31"/>
       <use xlink:href="#DejaVuSans-35" x="63.623047"/>
       <use xlink:href="#DejaVuSans-30" x="127.246094"/>
      </g>
     </g>
    </g>
    <g id="ytick_8">
     <g id="line2d_33">
      <path d="M 57.6 64.817629 
L 414.72 64.817629 
" clip-path="url(#pcbacc78af1)" style="fill: none; stroke: #b0b0b0; stroke-width: 0.8; stroke-linecap: square"/>
     </g>
     <g id="line2d_34">
      <g>
       <use xlink:href="#m98e6e2242c" x="57.6" y="64.817629" style="stroke: #000000; stroke-width: 0.8"/>
      </g>
     </g>
     <g id="text_18">
      <!-- 175 -->
      <g transform="translate(31.5125 68.616848)scale(0.1 -0.1)">
       <use xlink:href="#DejaVuSans-31"/>
       <use xlink:href="#DejaVuSans-37" x="63.623047"/>
       <use xlink:href="#DejaVuSans-35" x="127.246094"/>
      </g>
     </g>
    </g>
    <g id="text_19">
     <!-- Fitness -->
     <g transform="translate(25.432812 191.845187)rotate(-90)scale(0.1 -0.1)">
      <defs>
       <path id="DejaVuSans-46" d="M 628 4666 
L 3309 4666 
L 3309 4134 
L 1259 4134 
L 1259 2759 
L 3109 2759 
L 3109 2228 
L 1259 2228 
L 1259 0 
L 628 0 
L 628 4666 
z
" transform="scale(0.015625)"/>
      </defs>
      <use xlink:href="#DejaVuSans-46"/>
      <use xlink:href="#DejaVuSans-69" x="50.269531"/>
      <use xlink:href="#DejaVuSans-74" x="78.052734"/>
      <use xlink:href="#DejaVuSans-6e" x="117.261719"/>
      <use xlink:href="#DejaVuSans-65" x="180.640625"/>
      <use xlink:href="#DejaVuSans-73" x="242.164062"/>
      <use xlink:href="#DejaVuSans-73" x="294.263672"/>
     </g>
    </g>
   </g>
   <g id="line2d_35">
    <path d="M 73.832727 261.061155 
L 75.464157 264.461043 
L 77.095587 262.761099 
L 78.727017 263.611071 
L 80.358447 262.477775 
L 81.989877 263.894395 
L 83.621307 263.752733 
L 85.252736 262.902761 
L 86.884166 263.611071 
L 88.515596 262.902761 
L 90.147026 263.736067 
L 91.778456 263.894395 
L 93.409886 263.611071 
L 95.041316 265.027691 
L 96.672746 264.777699 
L 99.935605 265.027691 
L 101.567035 263.894395 
L 103.198465 263.469409 
L 104.829895 262.694435 
L 106.461325 262.902761 
L 108.092755 261.902794 
L 109.724185 261.469475 
L 111.355614 261.302814 
L 112.987044 255.56967 
L 114.618474 251.536469 
L 116.249904 247.803259 
L 117.881334 238.745225 
L 121.144194 231.51213 
L 122.775624 229.630073 
L 129.301343 213.935226 
L 130.932773 223.404064 
L 132.564203 221.410145 
L 134.195633 221.362465 
L 135.827063 218.008884 
L 137.458492 223.761061 
L 139.089922 207.7156 
L 140.721352 225.089187 
L 142.352782 221.738128 
L 143.984212 222.737419 
L 145.615642 219.145871 
L 147.247072 218.90195 
L 148.878502 227.56226 
L 150.509931 213.488221 
L 152.141361 218.97921 
L 153.772791 208.960225 
L 155.404221 204.410339 
L 157.035651 209.61151 
L 158.667081 203.788045 
L 160.298511 211.989926 
L 161.929941 213.204401 
L 163.56137 217.195936 
L 165.1928 204.988005 
L 166.82423 212.875659 
L 168.45566 215.259686 
L 170.08709 207.337762 
L 171.71852 216.279299 
L 173.34995 212.701823 
L 174.98138 217.287599 
L 176.61281 227.664606 
L 178.244239 210.162834 
L 179.875669 213.479943 
L 181.507099 211.162139 
L 183.138529 223.570781 
L 184.769959 210.302694 
L 186.401389 207.093341 
L 188.032819 207.270983 
L 189.664249 218.637555 
L 191.295678 216.545957 
L 192.927108 215.65432 
L 194.558538 217.770917 
L 196.189968 226.337301 
L 197.821398 212.958437 
L 199.452828 214.679352 
L 201.084258 214.493899 
L 202.715688 208.319606 
L 204.347117 211.204467 
L 205.978547 211.84298 
L 207.609977 200.467516 
L 209.241407 212.146102 
L 210.872837 203.971372 
L 212.504267 216.054307 
L 214.135697 212.196873 
L 215.767127 204.30806 
L 217.398556 207.446257 
L 219.029986 200.291348 
L 220.661416 197.538251 
L 222.292846 204.53802 
L 223.924276 198.811553 
L 225.555706 195.921637 
L 227.187136 200.204829 
L 228.818566 202.313093 
L 230.449995 198.671547 
L 232.081425 198.62944 
L 233.712855 204.887512 
L 235.344285 200.146498 
L 236.975715 210.30124 
L 238.607145 204.506729 
L 240.238575 196.877031 
L 241.870005 209.192061 
L 243.501434 215.862646 
L 245.132864 205.679649 
L 246.764294 190.213492 
L 248.395724 196.113298 
L 250.027154 200.674074 
L 251.658584 203.371392 
L 253.290014 200.596483 
L 254.921444 202.453817 
L 256.552873 197.579916 
L 259.815733 208.071237 
L 261.447163 198.929871 
L 263.078593 199.98817 
L 264.710023 198.179896 
L 266.341453 202.60475 
L 267.972883 208.629551 
L 269.604312 191.438452 
L 271.235742 196.421621 
L 272.867172 186.630277 
L 274.498602 184.122027 
L 276.130032 190.980134 
L 279.392892 188.991385 
L 282.655751 194.0217 
L 284.287181 194.338356 
L 285.918611 187.12903 
L 287.550041 180.922132 
L 289.181471 194.670728 
L 290.812901 196.704945 
L 292.444331 191.530116 
L 294.075761 198.0549 
L 295.70719 201.758476 
L 297.33862 184.689502 
L 298.97005 192.983931 
L 300.60148 180.530478 
L 302.23291 196.646613 
L 303.86434 194.996668 
L 305.49577 197.313258 
L 307.1272 199.246528 
L 308.75863 186.248187 
L 310.390059 187.347144 
L 312.021489 186.508245 
L 313.652919 174.780668 
L 315.284349 183.347052 
L 316.915779 194.180028 
L 318.547209 182.41375 
L 320.178639 193.604771 
L 321.810069 193.980035 
L 323.441498 192.288589 
L 325.072928 185.921016 
L 326.704358 194.65395 
L 328.335788 186.734748 
L 329.967218 184.536834 
L 331.598648 181.030238 
L 333.230078 183.20539 
L 334.861508 186.438617 
L 336.492937 180.996229 
L 338.124367 187.560178 
L 339.755797 184.138017 
L 341.387227 186.332077 
L 343.018657 186.138627 
L 344.650087 184.961692 
L 346.281517 175.809033 
L 347.912947 189.521848 
L 349.544376 184.297021 
L 351.175806 187.019974 
L 352.807236 193.771708 
L 354.438666 186.300108 
L 356.070096 189.534798 
L 357.701526 190.680144 
L 359.332956 184.780559 
L 360.964386 185.788638 
L 362.595815 191.413453 
L 364.227245 183.280388 
L 365.858675 190.496816 
L 367.490105 193.563382 
L 369.121535 178.613544 
L 370.752965 186.768304 
L 372.384395 184.143163 
L 374.015825 189.780173 
L 375.647254 186.380285 
L 377.278684 197.788242 
L 378.910114 201.829776 
L 380.541544 199.17153 
L 382.172974 196.0383 
L 383.804404 191.633915 
L 385.435834 196.44662 
L 387.067264 205.262996 
L 388.698693 204.502618 
L 390.330123 197.479919 
L 391.961553 198.177324 
L 393.592983 205.425573 
L 395.224413 196.721611 
L 396.855843 201.171464 
L 398.487273 202.238096 
L 398.487273 202.238096 
" clip-path="url(#pcbacc78af1)" style="fill: none; stroke: #0000ff; stroke-width: 1.5; stroke-linecap: square"/>
   </g>
   <g id="line2d_36">
    <path d="M 73.832727 261.061155 
L 75.464157 272.251165 
L 77.095587 268.525889 
L 78.727017 270.516276 
L 80.358447 267.778282 
L 81.989877 271.117768 
L 83.621307 270.820233 
L 85.252736 268.881166 
L 86.884166 270.516276 
L 88.515596 268.881166 
L 90.147026 270.762614 
L 91.778456 271.117768 
L 93.409886 270.516276 
L 95.041316 273.307347 
L 96.672746 272.816333 
L 99.935605 273.307347 
L 101.567035 271.117768 
L 103.198465 270.205433 
L 104.829895 268.288046 
L 106.461325 268.881166 
L 108.092755 272.364182 
L 109.724185 275.363333 
L 111.355614 282.899119 
L 112.987044 288.013391 
L 114.618474 292.088253 
L 116.249904 292.899327 
L 119.512764 290.482699 
L 121.144194 287.889803 
L 122.775624 288.605582 
L 124.407053 284.953465 
L 126.038483 282.336296 
L 127.669913 280.694164 
L 129.301343 276.786425 
L 130.932773 285.438179 
L 132.564203 285.590863 
L 134.195633 286.784035 
L 135.827063 282.984535 
L 137.458492 287.302585 
L 139.089922 275.502062 
L 140.721352 292.832722 
L 142.352782 288.830288 
L 143.984212 289.942412 
L 145.615642 285.497793 
L 147.247072 287.866736 
L 148.878502 292.015868 
L 150.509931 281.177835 
L 152.141361 287.451348 
L 153.772791 277.989411 
L 155.404221 271.670514 
L 157.035651 277.712778 
L 158.667081 271.738923 
L 160.298511 281.911517 
L 161.929941 282.38279 
L 163.56137 284.138099 
L 165.1928 273.929704 
L 166.82423 279.435298 
L 168.45566 283.470396 
L 170.08709 277.287317 
L 171.71852 282.301382 
L 173.34995 279.504537 
L 174.98138 285.209868 
L 176.61281 295.488 
L 178.244239 277.024782 
L 179.875669 280.541052 
L 181.507099 278.879001 
L 183.138529 290.835045 
L 184.769959 278.706617 
L 186.401389 274.531924 
L 188.032819 276.739881 
L 189.664249 287.565534 
L 191.295678 284.579669 
L 192.927108 279.940692 
L 194.558538 283.068299 
L 196.189968 291.398404 
L 197.821398 281.225176 
L 199.452828 280.785376 
L 201.084258 282.184523 
L 202.715688 273.081769 
L 204.347117 276.52324 
L 205.978547 277.626822 
L 207.609977 264.649682 
L 209.241407 275.920409 
L 210.872837 269.039779 
L 212.504267 280.571312 
L 214.135697 275.951238 
L 215.767127 269.677071 
L 217.398556 273.822425 
L 219.029986 267.802573 
L 220.661416 261.228128 
L 222.292846 271.992242 
L 223.924276 262.616967 
L 225.555706 261.755679 
L 227.187136 266.495575 
L 228.818566 264.985449 
L 230.449995 261.399045 
L 232.081425 264.208571 
L 233.712855 269.648097 
L 235.344285 264.072517 
L 236.975715 275.334104 
L 238.607145 271.227268 
L 240.238575 263.918849 
L 241.870005 276.549659 
L 243.501434 284.853891 
L 245.132864 273.280264 
L 246.764294 256.097477 
L 248.395724 265.39453 
L 250.027154 272.134697 
L 251.658584 273.013838 
L 253.290014 266.930017 
L 254.921444 270.068689 
L 256.552873 269.371029 
L 258.184303 272.875297 
L 259.815733 275.877384 
L 261.447163 264.362405 
L 263.078593 268.466904 
L 264.710023 266.316744 
L 267.972883 272.787519 
L 269.604312 258.579081 
L 271.235742 266.760039 
L 272.867172 256.790956 
L 274.498602 252.183559 
L 276.130032 257.553187 
L 277.761462 260.857855 
L 279.392892 259.618383 
L 281.024322 258.68394 
L 282.655751 263.385653 
L 284.287181 261.765828 
L 285.918611 257.662372 
L 287.550041 254.049675 
L 289.181471 265.048119 
L 290.812901 271.282103 
L 292.444331 259.953692 
L 294.075761 268.890274 
L 295.70719 270.793098 
L 297.33862 256.730785 
L 298.97005 261.198195 
L 300.60148 252.844865 
L 302.23291 270.678041 
L 303.86434 265.53812 
L 305.49577 263.384743 
L 307.1272 269.426058 
L 308.75863 257.966256 
L 310.390059 258.730132 
L 312.021489 257.212746 
L 313.652919 242.146364 
L 316.915779 265.861685 
L 318.547209 252.248387 
L 320.178639 269.824692 
L 321.810069 273.785853 
L 323.441498 268.363668 
L 325.072928 259.612545 
L 326.704358 268.963117 
L 328.335788 264.692425 
L 329.967218 256.194123 
L 331.598648 255.4306 
L 333.230078 256.979553 
L 334.861508 259.007847 
L 336.492937 251.805248 
L 338.124367 262.172749 
L 339.755797 260.658925 
L 341.387227 263.815929 
L 343.018657 257.75188 
L 344.650087 258.727924 
L 346.281517 249.938258 
L 347.912947 266.486486 
L 349.544376 259.652872 
L 351.175806 262.252357 
L 352.807236 275.159468 
L 354.438666 261.718364 
L 356.070096 261.978775 
L 357.701526 264.140146 
L 359.332956 257.034266 
L 360.964386 254.842477 
L 362.595815 262.768492 
L 364.227245 254.372778 
L 365.858675 263.403257 
L 367.490105 267.338934 
L 369.121535 250.265427 
L 370.752965 262.265592 
L 372.384395 251.861285 
L 374.015825 255.292792 
L 375.647254 252.959209 
L 377.278684 265.580682 
L 378.910114 269.012284 
L 380.541544 264.406563 
L 382.172974 266.768955 
L 383.804404 259.38343 
L 385.435834 262.518097 
L 387.067264 272.356684 
L 388.698693 272.451872 
L 390.330123 263.082898 
L 391.961553 264.931198 
L 393.592983 270.643831 
L 395.224413 262.094765 
L 396.855843 270.47375 
L 398.487273 267.921612 
L 398.487273 267.921612 
" clip-path="url(#pcbacc78af1)" style="fill: none; stroke-dasharray: 9.6,2.4,1.5,2.4; stroke-dashoffset: 0; stroke: #008000; stroke-width: 1.5"/>
   </g>
   <g id="line2d_37">
    <path d="M 73.832727 261.061155 
L 75.464157 256.670921 
L 77.095587 256.996309 
L 78.727017 256.705866 
L 80.358447 257.177269 
L 81.989877 256.671022 
L 83.621307 256.685233 
L 85.252736 256.924356 
L 86.884166 256.705866 
L 88.515596 256.924356 
L 90.147026 256.70952 
L 93.409886 256.705866 
L 98.304175 256.722315 
L 103.198465 256.733385 
L 104.829895 257.100823 
L 106.461325 256.924356 
L 108.092755 251.441407 
L 109.724185 247.575618 
L 111.355614 239.706508 
L 112.987044 223.125948 
L 114.618474 210.984686 
L 116.249904 202.707191 
L 117.881334 185.732552 
L 119.512764 179.707991 
L 122.775624 170.654564 
L 124.407053 166.437845 
L 126.038483 161.121943 
L 127.669913 155.238937 
L 129.301343 151.084027 
L 130.932773 161.369949 
L 132.564203 157.229428 
L 134.195633 155.940895 
L 135.827063 153.033233 
L 137.458492 160.219537 
L 139.089922 139.929137 
L 140.721352 157.345653 
L 142.352782 154.645968 
L 143.984212 155.532427 
L 147.247072 149.937163 
L 148.878502 163.108652 
L 150.509931 145.798608 
L 152.141361 150.507072 
L 153.772791 139.931039 
L 155.404221 137.150164 
L 157.035651 141.510242 
L 158.667081 135.837167 
L 160.298511 142.068335 
L 161.929941 144.026011 
L 163.56137 150.253772 
L 165.1928 136.046306 
L 166.82423 146.31602 
L 168.45566 147.048976 
L 170.08709 137.388207 
L 171.71852 150.257216 
L 173.34995 145.899109 
L 174.98138 149.365331 
L 176.61281 159.841212 
L 178.244239 143.300887 
L 179.875669 146.418835 
L 181.507099 143.445277 
L 183.138529 156.306517 
L 184.769959 141.898772 
L 186.401389 139.654758 
L 188.032819 137.802086 
L 189.664249 149.709575 
L 191.295678 148.512245 
L 192.927108 151.367947 
L 194.558538 152.473534 
L 196.189968 161.276197 
L 197.821398 144.691699 
L 199.452828 148.573328 
L 201.084258 146.803276 
L 202.715688 143.557444 
L 204.347117 145.885693 
L 205.978547 146.059138 
L 207.609977 136.285351 
L 209.241407 148.371795 
L 210.872837 138.902964 
L 212.504267 151.537301 
L 214.135697 148.442508 
L 215.767127 138.93905 
L 217.398556 141.070089 
L 219.029986 132.780123 
L 220.661416 133.848373 
L 222.292846 137.083798 
L 223.924276 135.006139 
L 225.555706 130.087596 
L 227.187136 133.914084 
L 228.818566 139.640737 
L 230.449995 135.944048 
L 232.081425 133.050309 
L 233.712855 140.126926 
L 235.344285 136.220479 
L 236.975715 145.268376 
L 240.238575 129.835212 
L 241.870005 141.834463 
L 243.501434 146.871402 
L 245.132864 138.079033 
L 246.764294 124.329508 
L 250.027154 129.213452 
L 251.658584 133.728945 
L 254.921444 134.838945 
L 256.552873 125.788803 
L 259.815733 140.265089 
L 261.447163 133.497338 
L 263.078593 131.509435 
L 264.710023 130.043048 
L 266.341453 135.698061 
L 267.972883 144.471584 
L 269.604312 124.297823 
L 271.235742 126.083203 
L 272.867172 116.469599 
L 274.498602 116.060494 
L 276.130032 124.40708 
L 277.761462 119.121493 
L 279.392892 118.364387 
L 281.024322 124.342959 
L 282.655751 124.657748 
L 284.287181 126.910884 
L 285.918611 116.595689 
L 287.550041 107.794589 
L 289.181471 124.293337 
L 290.812901 122.127786 
L 292.444331 123.106539 
L 294.075761 127.219527 
L 295.70719 132.723854 
L 297.33862 112.64822 
L 298.97005 124.769666 
L 300.60148 108.216092 
L 302.23291 122.615186 
L 303.86434 124.455216 
L 305.49577 131.241773 
L 307.1272 129.066998 
L 308.75863 114.530118 
L 310.390059 115.964156 
L 312.021489 115.803745 
L 313.652919 107.414972 
L 315.284349 112.489971 
L 316.915779 122.498372 
L 318.547209 112.579112 
L 320.178639 117.38485 
L 321.810069 114.174216 
L 323.441498 116.213511 
L 325.072928 112.229488 
L 326.704358 120.344783 
L 328.335788 108.777071 
L 329.967218 112.879545 
L 331.598648 106.629876 
L 333.230078 109.431227 
L 334.861508 113.869387 
L 336.492937 110.18721 
L 338.124367 112.947607 
L 339.755797 107.617109 
L 341.387227 108.848224 
L 343.018657 114.525373 
L 344.650087 111.195459 
L 346.281517 101.679809 
L 347.912947 112.557211 
L 349.544376 108.94117 
L 351.175806 111.78759 
L 352.807236 112.383948 
L 354.438666 110.881852 
L 356.070096 117.090822 
L 357.701526 117.220141 
L 359.332956 112.526852 
L 360.964386 116.734799 
L 362.595815 120.058414 
L 364.227245 112.187998 
L 365.858675 117.590376 
L 367.490105 119.787829 
L 369.121535 106.96166 
L 370.752965 111.271016 
L 372.384395 116.42504 
L 374.015825 124.267554 
L 375.647254 119.801362 
L 377.278684 129.995803 
L 378.910114 134.647267 
L 380.541544 133.936497 
L 382.172974 125.307645 
L 383.804404 123.884401 
L 385.435834 130.375143 
L 387.067264 138.169308 
L 388.698693 136.553364 
L 390.330123 131.876941 
L 391.961553 131.423449 
L 393.592983 140.207316 
L 395.224413 131.348457 
L 396.855843 131.869178 
L 398.487273 136.554579 
L 398.487273 136.554579 
" clip-path="url(#pcbacc78af1)" style="fill: none; stroke-dasharray: 9.6,2.4,1.5,2.4; stroke-dashoffset: 0; stroke: #008000; stroke-width: 1.5"/>
   </g>
   <g id="line2d_38">
    <path d="M 73.832727 261.061155 
L 106.461325 261.061155 
L 108.092755 153.564701 
L 119.512764 153.564701 
L 121.144194 124.81565 
L 122.775624 106.066268 
L 126.038483 106.066268 
L 127.669913 71.067423 
L 137.458492 71.067423 
L 139.089922 57.317876 
L 160.298511 57.317876 
L 161.929941 71.067423 
L 238.607145 71.067423 
L 240.238575 53.568 
L 241.870005 53.568 
L 243.501434 68.567505 
L 245.132864 61.067753 
L 281.024322 61.067753 
L 282.655751 58.567835 
L 362.595815 58.567835 
L 364.227245 53.568 
L 370.752965 53.568 
L 372.384395 58.567835 
L 374.015825 68.567505 
L 375.647254 53.568 
L 377.278684 53.568 
L 378.910114 66.067588 
L 380.541544 66.067588 
L 382.172974 58.567835 
L 398.487273 58.567835 
L 398.487273 58.567835 
" clip-path="url(#pcbacc78af1)" style="fill: none; stroke: #ff0000; stroke-width: 1.5; stroke-linecap: square"/>
   </g>
   <g id="patch_3">
    <path d="M 57.6 307.584 
L 57.6 41.472 
" style="fill: none; stroke: #000000; stroke-width: 0.8; stroke-linejoin: miter; stroke-linecap: square"/>
   </g>
   <g id="patch_4">
    <path d="M 414.72 307.584 
L 414.72 41.472 
" style="fill: none; stroke: #000000; stroke-width: 0.8; stroke-linejoin: miter; stroke-linecap: square"/>
   </g>
   <g id="patch_5">
    <path d="M 57.6 307.584 
L 414.72 307.584 
" style="fill: none; stroke: #000000; stroke-width: 0.8; stroke-linejoin: miter; stroke-linecap: square"/>
   </g>
   <g id="patch_6">
    <path d="M 57.6 41.472 
L 414.72 41.472 
" style="fill: none; stroke: #000000; stroke-width: 0.8; stroke-linejoin: miter; stroke-linecap: square"/>
   </g>
   <g id="text_20">
    <!-- Population's average and best fitness -->
    <g transform="translate(123.529687 35.472)scale(0.12 -0.12)">
     <defs>
      <path id="DejaVuSans-50" d="M 1259 4147 
L 1259 2394 
L 2053 2394 
Q 2494 2394 2734 2622 
Q 2975 2850 2975 3272 
Q 2975 3691 2734 3919 
Q 2494 4147 2053 4147 
L 1259 4147 
z
M 628 4666 
L 2053 4666 
Q 2838 4666 3239 4311 
Q 3641 3956 3641 3272 
Q 3641 2581 3239 2228 
Q 2838 1875 2053 1875 
L 1259 1875 
L 1259 0 
L 628 0 
L 628 4666 
z
" transform="scale(0.015625)"/>
      <path id="DejaVuSans-70" d="M 1159 525 
L 1159 -1331 
L 581 -1331 
L 581 3500 
L 1159 3500 
L 1159 2969 
Q 1341 3281 1617 3432 
Q 1894 3584 2278 3584 
Q 2916 3584 3314 3078 
Q 3713 2572 3713 1747 
Q 3713 922 3314 415 
Q 2916 -91 2278 -91 
Q 1894 -91 1617 61 
Q 1341 213 1159 525 
z
M 3116 1747 
Q 3116 2381 2855 2742 
Q 2594 3103 2138 3103 
Q 1681 3103 1420 2742 
Q 1159 2381 1159 1747 
Q 1159 1113 1420 752 
Q 1681 391 2138 391 
Q 2594 391 2855 752 
Q 3116 1113 3116 1747 
z
" transform="scale(0.015625)"/>
      <path id="DejaVuSans-75" d="M 544 1381 
L 544 3500 
L 1119 3500 
L 1119 1403 
Q 1119 906 1312 657 
Q 1506 409 1894 409 
Q 2359 409 2629 706 
Q 2900 1003 2900 1516 
L 2900 3500 
L 3475 3500 
L 3475 0 
L 2900 0 
L 2900 538 
Q 2691 219 2414 64 
Q 2138 -91 1772 -91 
Q 1169 -91 856 284 
Q 544 659 544 1381 
z
M 1991 3584 
L 1991 3584 
z
" transform="scale(0.015625)"/>
      <path id="DejaVuSans-6c" d="M 603 4863 
L 1178 4863 
L 1178 0 
L 603 0 
L 603 4863 
z
" transform="scale(0.015625)"/>
      <path id="DejaVuSans-27" d="M 1147 4666 
L 1147 2931 
L 616 2931 
L 616 4666 
L 1147 4666 
z
" transform="scale(0.015625)"/>
      <path id="DejaVuSans-20" transform="scale(0.015625)"/>
      <path id="DejaVuSans-76" d="M 191 3500 
L 800 3500 
L 1894 563 
L 2988 3500 
L 3597 3500 
L 2284 0 
L 1503 0 
L 191 3500 
z
" transform="scale(0.015625)"/>
      <path id="DejaVuSans-67" d="M 2906 1791 
Q 2906 2416 2648 2759 
Q 2391 3103 1925 3103 
Q 1463 3103 1205 2759 
Q 947 2416 947 1791 
Q 947 1169 1205 825 
Q 1463 481 1925 481 
Q 2391 481 2648 825 
Q 2906 1169 2906 1791 
z
M 3481 434 
Q 3481 -459 3084 -895 
Q 2688 -1331 1869 -1331 
Q 1566 -1331 1297 -1286 
Q 1028 -1241 775 -1147 
L 775 -588 
Q 1028 -725 1275 -790 
Q 1522 -856 1778 -856 
Q 2344 -856 2625 -561 
Q 2906 -266 2906 331 
L 2906 616 
Q 2728 306 2450 153 
Q 2172 0 1784 0 
Q 1141 0 747 490 
Q 353 981 353 1791 
Q 353 2603 747 3093 
Q 1141 3584 1784 3584 
Q 2172 3584 2450 3431 
Q 2728 3278 2906 2969 
L 2906 3500 
L 3481 3500 
L 3481 434 
z
" transform="scale(0.015625)"/>
      <path id="DejaVuSans-64" d="M 2906 2969 
L 2906 4863 
L 3481 4863 
L 3481 0 
L 2906 0 
L 2906 525 
Q 2725 213 2448 61 
Q 2172 -91 1784 -91 
Q 1150 -91 751 415 
Q 353 922 353 1747 
Q 353 2572 751 3078 
Q 1150 3584 1784 3584 
Q 2172 3584 2448 3432 
Q 2725 3281 2906 2969 
z
M 947 1747 
Q 947 1113 1208 752 
Q 1469 391 1925 391 
Q 2381 391 2643 752 
Q 2906 1113 2906 1747 
Q 2906 2381 2643 2742 
Q 2381 3103 1925 3103 
Q 1469 3103 1208 2742 
Q 947 2381 947 1747 
z
" transform="scale(0.015625)"/>
      <path id="DejaVuSans-62" d="M 3116 1747 
Q 3116 2381 2855 2742 
Q 2594 3103 2138 3103 
Q 1681 3103 1420 2742 
Q 1159 2381 1159 1747 
Q 1159 1113 1420 752 
Q 1681 391 2138 391 
Q 2594 391 2855 752 
Q 3116 1113 3116 1747 
z
M 1159 2969 
Q 1341 3281 1617 3432 
Q 1894 3584 2278 3584 
Q 2916 3584 3314 3078 
Q 3713 2572 3713 1747 
Q 3713 922 3314 415 
Q 2916 -91 2278 -91 
Q 1894 -91 1617 61 
Q 1341 213 1159 525 
L 1159 0 
L 581 0 
L 581 4863 
L 1159 4863 
L 1159 2969 
z
" transform="scale(0.015625)"/>
      <path id="DejaVuSans-66" d="M 2375 4863 
L 2375 4384 
L 1825 4384 
Q 1516 4384 1395 4259 
Q 1275 4134 1275 3809 
L 1275 3500 
L 2222 3500 
L 2222 3053 
L 1275 3053 
L 1275 0 
L 697 0 
L 697 3053 
L 147 3053 
L 147 3500 
L 697 3500 
L 697 3744 
Q 697 4328 969 4595 
Q 1241 4863 1831 4863 
L 2375 4863 
z
" transform="scale(0.015625)"/>
     </defs>
     <use xlink:href="#DejaVuSans-50"/>
     <use xlink:href="#DejaVuSans-6f" x="56.677734"/>
     <use xlink:href="#DejaVuSans-70" x="117.859375"/>
     <use xlink:href="#DejaVuSans-75" x="181.335938"/>
     <use xlink:href="#DejaVuSans-6c" x="244.714844"/>
     <use xlink:href="#DejaVuSans-61" x="272.498047"/>
     <use xlink:href="#DejaVuSans-74" x="333.777344"/>
     <use xlink:href="#DejaVuSans-69" x="372.986328"/>
     <use xlink:href="#DejaVuSans-6f" x="400.769531"/>
     <use xlink:href="#DejaVuSans-6e" x="461.951172"/>
     <use xlink:href="#DejaVuSans-27" x="525.330078"/>
     <use xlink:href="#DejaVuSans-73" x="552.820312"/>
     <use xlink:href="#DejaVuSans-20" x="604.919922"/>
     <use xlink:href="#DejaVuSans-61" x="636.707031"/>
     <use xlink:href="#DejaVuSans-76" x="697.986328"/>
     <use xlink:href="#DejaVuSans-65" x="757.166016"/>
     <use xlink:href="#DejaVuSans-72" x="818.689453"/>
     <use xlink:href="#DejaVuSans-61" x="859.802734"/>
     <use xlink:href="#DejaVuSans-67" x="921.082031"/>
     <use xlink:href="#DejaVuSans-65" x="984.558594"/>
     <use xlink:href="#DejaVuSans-20" x="1046.082031"/>
     <use xlink:href="#DejaVuSans-61" x="1077.869141"/>
     <use xlink:href="#DejaVuSans-6e" x="1139.148438"/>
     <use xlink:href="#DejaVuSans-64" x="1202.527344"/>
     <use xlink:href="#DejaVuSans-20" x="1266.003906"/>
     <use xlink:href="#DejaVuSans-62" x="1297.791016"/>
     <use xlink:href="#DejaVuSans-65" x="1361.267578"/>
     <use xlink:href="#DejaVuSans-73" x="1422.791016"/>
     <use xlink:href="#DejaVuSans-74" x="1474.890625"/>
     <use xlink:href="#DejaVuSans-20" x="1514.099609"/>
     <use xlink:href="#DejaVuSans-66" x="1545.886719"/>
     <use xlink:href="#DejaVuSans-69" x="1581.091797"/>
     <use xlink:href="#DejaVuSans-74" x="1608.875"/>
     <use xlink:href="#DejaVuSans-6e" x="1648.083984"/>
     <use xlink:href="#DejaVuSans-65" x="1711.462891"/>
     <use xlink:href="#DejaVuSans-73" x="1772.986328"/>
     <use xlink:href="#DejaVuSans-73" x="1825.085938"/>
    </g>
   </g>
   <g id="legend_1">
    <g id="patch_7">
     <path d="M 64.6 108.1845 
L 137.540625 108.1845 
Q 139.540625 108.1845 139.540625 106.1845 
L 139.540625 48.472 
Q 139.540625 46.472 137.540625 46.472 
L 64.6 46.472 
Q 62.6 46.472 62.6 48.472 
L 62.6 106.1845 
Q 62.6 108.1845 64.6 108.1845 
z
" style="fill: #ffffff; opacity: 0.8; stroke: #cccccc; stroke-linejoin: miter"/>
    </g>
    <g id="line2d_39">
     <path d="M 66.6 54.570438 
L 76.6 54.570438 
L 86.6 54.570438 
" style="fill: none; stroke: #0000ff; stroke-width: 1.5; stroke-linecap: square"/>
    </g>
    <g id="text_21">
     <!-- average -->
     <g transform="translate(94.6 58.070438)scale(0.1 -0.1)">
      <use xlink:href="#DejaVuSans-61"/>
      <use xlink:href="#DejaVuSans-76" x="61.279297"/>
      <use xlink:href="#DejaVuSans-65" x="120.458984"/>
      <use xlink:href="#DejaVuSans-72" x="181.982422"/>
      <use xlink:href="#DejaVuSans-61" x="223.095703"/>
      <use xlink:href="#DejaVuSans-67" x="284.375"/>
      <use xlink:href="#DejaVuSans-65" x="347.851562"/>
     </g>
    </g>
    <g id="line2d_40">
     <path d="M 66.6 69.248563 
L 76.6 69.248563 
L 86.6 69.248563 
" style="fill: none; stroke-dasharray: 9.6,2.4,1.5,2.4; stroke-dashoffset: 0; stroke: #008000; stroke-width: 1.5"/>
    </g>
    <g id="text_22">
     <!-- -1 sd -->
     <g transform="translate(94.6 72.748563)scale(0.1 -0.1)">
      <defs>
       <path id="DejaVuSans-2d" d="M 313 2009 
L 1997 2009 
L 1997 1497 
L 313 1497 
L 313 2009 
z
" transform="scale(0.015625)"/>
      </defs>
      <use xlink:href="#DejaVuSans-2d"/>
      <use xlink:href="#DejaVuSans-31" x="36.083984"/>
      <use xlink:href="#DejaVuSans-20" x="99.707031"/>
      <use xlink:href="#DejaVuSans-73" x="131.494141"/>
      <use xlink:href="#DejaVuSans-64" x="183.59375"/>
     </g>
    </g>
    <g id="line2d_41">
     <path d="M 66.6 83.926688 
L 76.6 83.926688 
L 86.6 83.926688 
" style="fill: none; stroke-dasharray: 9.6,2.4,1.5,2.4; stroke-dashoffset: 0; stroke: #008000; stroke-width: 1.5"/>
    </g>
    <g id="text_23">
     <!-- +1 sd -->
     <g transform="translate(94.6 87.426688)scale(0.1 -0.1)">
      <defs>
       <path id="DejaVuSans-2b" d="M 2944 4013 
L 2944 2272 
L 4684 2272 
L 4684 1741 
L 2944 1741 
L 2944 0 
L 2419 0 
L 2419 1741 
L 678 1741 
L 678 2272 
L 2419 2272 
L 2419 4013 
L 2944 4013 
z
" transform="scale(0.015625)"/>
      </defs>
      <use xlink:href="#DejaVuSans-2b"/>
      <use xlink:href="#DejaVuSans-31" x="83.789062"/>
      <use xlink:href="#DejaVuSans-20" x="147.412109"/>
      <use xlink:href="#DejaVuSans-73" x="179.199219"/>
      <use xlink:href="#DejaVuSans-64" x="231.298828"/>
     </g>
    </g>
    <g id="line2d_42">
     <path d="M 66.6 98.604813 
L 76.6 98.604813 
L 86.6 98.604813 
" style="fill: none; stroke: #ff0000; stroke-width: 1.5; stroke-linecap: square"/>
    </g>
    <g id="text_24">
     <!-- best -->
     <g transform="translate(94.6 102.104813)scale(0.1 -0.1)">
      <use xlink:href="#DejaVuSans-62"/>
      <use xlink:href="#DejaVuSans-65" x="63.476562"/>
      <use xlink:href="#DejaVuSans-73" x="125"/>
      <use xlink:href="#DejaVuSans-74" x="177.099609"/>
     </g>
    </g>
   </g>
  </g>
 </g>
 <defs>
  <clipPath id="pcbacc78af1">
   <rect x="57.6" y="41.472" width="357.12" height="266.112"/>
  </clipPath>
 </defs>
</svg>
