<?xml version="1.0" encoding="utf-8" standalone="no"?>
<!DOCTYPE svg PUBLIC "-//W3C//DTD SVG 1.1//EN"
  "http://www.w3.org/Graphics/SVG/1.1/DTD/svg11.dtd">
<svg xmlns:xlink="http://www.w3.org/1999/xlink" width="460.8pt" height="345.6pt" viewBox="0 0 460.8 345.6" xmlns="http://www.w3.org/2000/svg" version="1.1">
 <metadata>
  <rdf:RDF xmlns:dc="http://purl.org/dc/elements/1.1/" xmlns:cc="http://creativecommons.org/ns#" xmlns:rdf="http://www.w3.org/1999/02/22-rdf-syntax-ns#">
   <cc:Work>
    <dc:type rdf:resource="http://purl.org/dc/dcmitype/StillImage"/>
    <dc:date>2022-08-03T11:35:19.033591</dc:date>
    <dc:format>image/svg+xml</dc:format>
    <dc:creator>
     <cc:Agent>
      <dc:title>Matplotlib v3.5.2, https://matplotlib.org/</dc:title>
     </cc:Agent>
    </dc:creator>
   </cc:Work>
  </rdf:RDF>
 </metadata>
 <defs>
  <style type="text/css">*{stroke-linejoin: round; stroke-linecap: butt}</style>
 </defs>
 <g id="figure_1">
  <g id="patch_1">
   <path d="M 0 345.6 
L 460.8 345.6 
L 460.8 0 
L 0 0 
z
" style="fill: #ffffff"/>
  </g>
  <g id="axes_1">
   <g id="patch_2">
    <path d="M 57.6 307.584 
L 414.72 307.584 
L 414.72 41.472 
L 57.6 41.472 
z
" style="fill: #ffffff"/>
   </g>
   <g id="matplotlib.axis_1">
    <g id="xtick_1">
     <g id="line2d_1">
      <path d="M 73.832727 307.584 
L 73.832727 41.472 
" clip-path="url(#p6fdc7dea01)" style="fill: none; stroke: #b0b0b0; stroke-width: 0.8; stroke-linecap: square"/>
     </g>
     <g id="line2d_2">
      <defs>
       <path id="mf41dbf9a40" d="M 0 0 
L 0 3.5 
" style="stroke: #000000; stroke-width: 0.8"/>
      </defs>
      <g>
       <use xlink:href="#mf41dbf9a40" x="73.832727" y="307.584" style="stroke: #000000; stroke-width: 0.8"/>
      </g>
     </g>
     <g id="text_1">
      <!-- 0 -->
      <g transform="translate(70.651477 322.182437)scale(0.1 -0.1)">
       <defs>
        <path id="DejaVuSans-30" d="M 2034 4250 
Q 1547 4250 1301 3770 
Q 1056 3291 1056 2328 
Q 1056 1369 1301 889 
Q 1547 409 2034 409 
Q 2525 409 2770 889 
Q 3016 1369 3016 2328 
Q 3016 3291 2770 3770 
Q 2525 4250 2034 4250 
z
M 2034 4750 
Q 2819 4750 3233 4129 
Q 3647 3509 3647 2328 
Q 3647 1150 3233 529 
Q 2819 -91 2034 -91 
Q 1250 -91 836 529 
Q 422 1150 422 2328 
Q 422 3509 836 4129 
Q 1250 4750 2034 4750 
z
" transform="scale(0.015625)"/>
       </defs>
       <use xlink:href="#DejaVuSans-30"/>
      </g>
     </g>
    </g>
    <g id="xtick_2">
     <g id="line2d_3">
      <path d="M 128.122785 307.584 
L 128.122785 41.472 
" clip-path="url(#p6fdc7dea01)" style="fill: none; stroke: #b0b0b0; stroke-width: 0.8; stroke-linecap: square"/>
     </g>
     <g id="line2d_4">
      <g>
       <use xlink:href="#mf41dbf9a40" x="128.122785" y="307.584" style="stroke: #000000; stroke-width: 0.8"/>
      </g>
     </g>
     <g id="text_2">
      <!-- 50 -->
      <g transform="translate(121.760285 322.182437)scale(0.1 -0.1)">
       <defs>
        <path id="DejaVuSans-35" d="M 691 4666 
L 3169 4666 
L 3169 4134 
L 1269 4134 
L 1269 2991 
Q 1406 3038 1543 3061 
Q 1681 3084 1819 3084 
Q 2600 3084 3056 2656 
Q 3513 2228 3513 1497 
Q 3513 744 3044 326 
Q 2575 -91 1722 -91 
Q 1428 -91 1123 -41 
Q 819 9 494 109 
L 494 744 
Q 775 591 1075 516 
Q 1375 441 1709 441 
Q 2250 441 2565 725 
Q 2881 1009 2881 1497 
Q 2881 1984 2565 2268 
Q 2250 2553 1709 2553 
Q 1456 2553 1204 2497 
Q 953 2441 691 2322 
L 691 4666 
z
" transform="scale(0.015625)"/>
       </defs>
       <use xlink:href="#DejaVuSans-35"/>
       <use xlink:href="#DejaVuSans-30" x="63.623047"/>
      </g>
     </g>
    </g>
    <g id="xtick_3">
     <g id="line2d_5">
      <path d="M 182.412843 307.584 
L 182.412843 41.472 
" clip-path="url(#p6fdc7dea01)" style="fill: none; stroke: #b0b0b0; stroke-width: 0.8; stroke-linecap: square"/>
     </g>
     <g id="line2d_6">
      <g>
       <use xlink:href="#mf41dbf9a40" x="182.412843" y="307.584" style="stroke: #000000; stroke-width: 0.8"/>
      </g>
     </g>
     <g id="text_3">
      <!-- 100 -->
      <g transform="translate(172.869093 322.182437)scale(0.1 -0.1)">
       <defs>
        <path id="DejaVuSans-31" d="M 794 531 
L 1825 531 
L 1825 4091 
L 703 3866 
L 703 4441 
L 1819 4666 
L 2450 4666 
L 2450 531 
L 3481 531 
L 3481 0 
L 794 0 
L 794 531 
z
" transform="scale(0.015625)"/>
       </defs>
       <use xlink:href="#DejaVuSans-31"/>
       <use xlink:href="#DejaVuSans-30" x="63.623047"/>
       <use xlink:href="#DejaVuSans-30" x="127.246094"/>
      </g>
     </g>
    </g>
    <g id="xtick_4">
     <g id="line2d_7">
      <path d="M 236.702901 307.584 
L 236.702901 41.472 
" clip-path="url(#p6fdc7dea01)" style="fill: none; stroke: #b0b0b0; stroke-width: 0.8; stroke-linecap: square"/>
     </g>
     <g id="line2d_8">
      <g>
       <use xlink:href="#mf41dbf9a40" x="236.702901" y="307.584" style="stroke: #000000; stroke-width: 0.8"/>
      </g>
     </g>
     <g id="text_4">
      <!-- 150 -->
      <g transform="translate(227.159151 322.182437)scale(0.1 -0.1)">
       <use xlink:href="#DejaVuSans-31"/>
       <use xlink:href="#DejaVuSans-35" x="63.623047"/>
       <use xlink:href="#DejaVuSans-30" x="127.246094"/>
      </g>
     </g>
    </g>
    <g id="xtick_5">
     <g id="line2d_9">
      <path d="M 290.992958 307.584 
L 290.992958 41.472 
" clip-path="url(#p6fdc7dea01)" style="fill: none; stroke: #b0b0b0; stroke-width: 0.8; stroke-linecap: square"/>
     </g>
     <g id="line2d_10">
      <g>
       <use xlink:href="#mf41dbf9a40" x="290.992958" y="307.584" style="stroke: #000000; stroke-width: 0.8"/>
      </g>
     </g>
     <g id="text_5">
      <!-- 200 -->
      <g transform="translate(281.449208 322.182437)scale(0.1 -0.1)">
       <defs>
        <path id="DejaVuSans-32" d="M 1228 531 
L 3431 531 
L 3431 0 
L 469 0 
L 469 531 
Q 828 903 1448 1529 
Q 2069 2156 2228 2338 
Q 2531 2678 2651 2914 
Q 2772 3150 2772 3378 
Q 2772 3750 2511 3984 
Q 2250 4219 1831 4219 
Q 1534 4219 1204 4116 
Q 875 4013 500 3803 
L 500 4441 
Q 881 4594 1212 4672 
Q 1544 4750 1819 4750 
Q 2544 4750 2975 4387 
Q 3406 4025 3406 3419 
Q 3406 3131 3298 2873 
Q 3191 2616 2906 2266 
Q 2828 2175 2409 1742 
Q 1991 1309 1228 531 
z
" transform="scale(0.015625)"/>
       </defs>
       <use xlink:href="#DejaVuSans-32"/>
       <use xlink:href="#DejaVuSans-30" x="63.623047"/>
       <use xlink:href="#DejaVuSans-30" x="127.246094"/>
      </g>
     </g>
    </g>
    <g id="xtick_6">
     <g id="line2d_11">
      <path d="M 345.283016 307.584 
L 345.283016 41.472 
" clip-path="url(#p6fdc7dea01)" style="fill: none; stroke: #b0b0b0; stroke-width: 0.8; stroke-linecap: square"/>
     </g>
     <g id="line2d_12">
      <g>
       <use xlink:href="#mf41dbf9a40" x="345.283016" y="307.584" style="stroke: #000000; stroke-width: 0.8"/>
      </g>
     </g>
     <g id="text_6">
      <!-- 250 -->
      <g transform="translate(335.739266 322.182437)scale(0.1 -0.1)">
       <use xlink:href="#DejaVuSans-32"/>
       <use xlink:href="#DejaVuSans-35" x="63.623047"/>
       <use xlink:href="#DejaVuSans-30" x="127.246094"/>
      </g>
     </g>
    </g>
    <g id="xtick_7">
     <g id="line2d_13">
      <path d="M 399.573074 307.584 
L 399.573074 41.472 
" clip-path="url(#p6fdc7dea01)" style="fill: none; stroke: #b0b0b0; stroke-width: 0.8; stroke-linecap: square"/>
     </g>
     <g id="line2d_14">
      <g>
       <use xlink:href="#mf41dbf9a40" x="399.573074" y="307.584" style="stroke: #000000; stroke-width: 0.8"/>
      </g>
     </g>
     <g id="text_7">
      <!-- 300 -->
      <g transform="translate(390.029324 322.182437)scale(0.1 -0.1)">
       <defs>
        <path id="DejaVuSans-33" d="M 2597 2516 
Q 3050 2419 3304 2112 
Q 3559 1806 3559 1356 
Q 3559 666 3084 287 
Q 2609 -91 1734 -91 
Q 1441 -91 1130 -33 
Q 819 25 488 141 
L 488 750 
Q 750 597 1062 519 
Q 1375 441 1716 441 
Q 2309 441 2620 675 
Q 2931 909 2931 1356 
Q 2931 1769 2642 2001 
Q 2353 2234 1838 2234 
L 1294 2234 
L 1294 2753 
L 1863 2753 
Q 2328 2753 2575 2939 
Q 2822 3125 2822 3475 
Q 2822 3834 2567 4026 
Q 2313 4219 1838 4219 
Q 1578 4219 1281 4162 
Q 984 4106 628 3988 
L 628 4550 
Q 988 4650 1302 4700 
Q 1616 4750 1894 4750 
Q 2613 4750 3031 4423 
Q 3450 4097 3450 3541 
Q 3450 3153 3228 2886 
Q 3006 2619 2597 2516 
z
" transform="scale(0.015625)"/>
       </defs>
       <use xlink:href="#DejaVuSans-33"/>
       <use xlink:href="#DejaVuSans-30" x="63.623047"/>
       <use xlink:href="#DejaVuSans-30" x="127.246094"/>
      </g>
     </g>
    </g>
    <g id="text_8">
     <!-- Generations -->
     <g transform="translate(205.662344 335.860562)scale(0.1 -0.1)">
      <defs>
       <path id="DejaVuSans-47" d="M 3809 666 
L 3809 1919 
L 2778 1919 
L 2778 2438 
L 4434 2438 
L 4434 434 
Q 4069 175 3628 42 
Q 3188 -91 2688 -91 
Q 1594 -91 976 548 
Q 359 1188 359 2328 
Q 359 3472 976 4111 
Q 1594 4750 2688 4750 
Q 3144 4750 3555 4637 
Q 3966 4525 4313 4306 
L 4313 3634 
Q 3963 3931 3569 4081 
Q 3175 4231 2741 4231 
Q 1884 4231 1454 3753 
Q 1025 3275 1025 2328 
Q 1025 1384 1454 906 
Q 1884 428 2741 428 
Q 3075 428 3337 486 
Q 3600 544 3809 666 
z
" transform="scale(0.015625)"/>
       <path id="DejaVuSans-65" d="M 3597 1894 
L 3597 1613 
L 953 1613 
Q 991 1019 1311 708 
Q 1631 397 2203 397 
Q 2534 397 2845 478 
Q 3156 559 3463 722 
L 3463 178 
Q 3153 47 2828 -22 
Q 2503 -91 2169 -91 
Q 1331 -91 842 396 
Q 353 884 353 1716 
Q 353 2575 817 3079 
Q 1281 3584 2069 3584 
Q 2775 3584 3186 3129 
Q 3597 2675 3597 1894 
z
M 3022 2063 
Q 3016 2534 2758 2815 
Q 2500 3097 2075 3097 
Q 1594 3097 1305 2825 
Q 1016 2553 972 2059 
L 3022 2063 
z
" transform="scale(0.015625)"/>
       <path id="DejaVuSans-6e" d="M 3513 2113 
L 3513 0 
L 2938 0 
L 2938 2094 
Q 2938 2591 2744 2837 
Q 2550 3084 2163 3084 
Q 1697 3084 1428 2787 
Q 1159 2491 1159 1978 
L 1159 0 
L 581 0 
L 581 3500 
L 1159 3500 
L 1159 2956 
Q 1366 3272 1645 3428 
Q 1925 3584 2291 3584 
Q 2894 3584 3203 3211 
Q 3513 2838 3513 2113 
z
" transform="scale(0.015625)"/>
       <path id="DejaVuSans-72" d="M 2631 2963 
Q 2534 3019 2420 3045 
Q 2306 3072 2169 3072 
Q 1681 3072 1420 2755 
Q 1159 2438 1159 1844 
L 1159 0 
L 581 0 
L 581 3500 
L 1159 3500 
L 1159 2956 
Q 1341 3275 1631 3429 
Q 1922 3584 2338 3584 
Q 2397 3584 2469 3576 
Q 2541 3569 2628 3553 
L 2631 2963 
z
" transform="scale(0.015625)"/>
       <path id="DejaVuSans-61" d="M 2194 1759 
Q 1497 1759 1228 1600 
Q 959 1441 959 1056 
Q 959 750 1161 570 
Q 1363 391 1709 391 
Q 2188 391 2477 730 
Q 2766 1069 2766 1631 
L 2766 1759 
L 2194 1759 
z
M 3341 1997 
L 3341 0 
L 2766 0 
L 2766 531 
Q 2569 213 2275 61 
Q 1981 -91 1556 -91 
Q 1019 -91 701 211 
Q 384 513 384 1019 
Q 384 1609 779 1909 
Q 1175 2209 1959 2209 
L 2766 2209 
L 2766 2266 
Q 2766 2663 2505 2880 
Q 2244 3097 1772 3097 
Q 1472 3097 1187 3025 
Q 903 2953 641 2809 
L 641 3341 
Q 956 3463 1253 3523 
Q 1550 3584 1831 3584 
Q 2591 3584 2966 3190 
Q 3341 2797 3341 1997 
z
" transform="scale(0.015625)"/>
       <path id="DejaVuSans-74" d="M 1172 4494 
L 1172 3500 
L 2356 3500 
L 2356 3053 
L 1172 3053 
L 1172 1153 
Q 1172 725 1289 603 
Q 1406 481 1766 481 
L 2356 481 
L 2356 0 
L 1766 0 
Q 1100 0 847 248 
Q 594 497 594 1153 
L 594 3053 
L 172 3053 
L 172 3500 
L 594 3500 
L 594 4494 
L 1172 4494 
z
" transform="scale(0.015625)"/>
       <path id="DejaVuSans-69" d="M 603 3500 
L 1178 3500 
L 1178 0 
L 603 0 
L 603 3500 
z
M 603 4863 
L 1178 4863 
L 1178 4134 
L 603 4134 
L 603 4863 
z
" transform="scale(0.015625)"/>
       <path id="DejaVuSans-6f" d="M 1959 3097 
Q 1497 3097 1228 2736 
Q 959 2375 959 1747 
Q 959 1119 1226 758 
Q 1494 397 1959 397 
Q 2419 397 2687 759 
Q 2956 1122 2956 1747 
Q 2956 2369 2687 2733 
Q 2419 3097 1959 3097 
z
M 1959 3584 
Q 2709 3584 3137 3096 
Q 3566 2609 3566 1747 
Q 3566 888 3137 398 
Q 2709 -91 1959 -91 
Q 1206 -91 779 398 
Q 353 888 353 1747 
Q 353 2609 779 3096 
Q 1206 3584 1959 3584 
z
" transform="scale(0.015625)"/>
       <path id="DejaVuSans-73" d="M 2834 3397 
L 2834 2853 
Q 2591 2978 2328 3040 
Q 2066 3103 1784 3103 
Q 1356 3103 1142 2972 
Q 928 2841 928 2578 
Q 928 2378 1081 2264 
Q 1234 2150 1697 2047 
L 1894 2003 
Q 2506 1872 2764 1633 
Q 3022 1394 3022 966 
Q 3022 478 2636 193 
Q 2250 -91 1575 -91 
Q 1294 -91 989 -36 
Q 684 19 347 128 
L 347 722 
Q 666 556 975 473 
Q 1284 391 1588 391 
Q 1994 391 2212 530 
Q 2431 669 2431 922 
Q 2431 1156 2273 1281 
Q 2116 1406 1581 1522 
L 1381 1569 
Q 847 1681 609 1914 
Q 372 2147 372 2553 
Q 372 3047 722 3315 
Q 1072 3584 1716 3584 
Q 2034 3584 2315 3537 
Q 2597 3491 2834 3397 
z
" transform="scale(0.015625)"/>
      </defs>
      <use xlink:href="#DejaVuSans-47"/>
      <use xlink:href="#DejaVuSans-65" x="77.490234"/>
      <use xlink:href="#DejaVuSans-6e" x="139.013672"/>
      <use xlink:href="#DejaVuSans-65" x="202.392578"/>
      <use xlink:href="#DejaVuSans-72" x="263.916016"/>
      <use xlink:href="#DejaVuSans-61" x="305.029297"/>
      <use xlink:href="#DejaVuSans-74" x="366.308594"/>
      <use xlink:href="#DejaVuSans-69" x="405.517578"/>
      <use xlink:href="#DejaVuSans-6f" x="433.300781"/>
      <use xlink:href="#DejaVuSans-6e" x="494.482422"/>
      <use xlink:href="#DejaVuSans-73" x="557.861328"/>
     </g>
    </g>
   </g>
   <g id="matplotlib.axis_2">
    <g id="ytick_1">
     <g id="line2d_15">
      <path d="M 57.6 297.012429 
L 414.72 297.012429 
" clip-path="url(#p6fdc7dea01)" style="fill: none; stroke: #b0b0b0; stroke-width: 0.8; stroke-linecap: square"/>
     </g>
     <g id="line2d_16">
      <defs>
       <path id="m4fcfc3d4d4" d="M 0 0 
L -3.5 0 
" style="stroke: #000000; stroke-width: 0.8"/>
      </defs>
      <g>
       <use xlink:href="#m4fcfc3d4d4" x="57.6" y="297.012429" style="stroke: #000000; stroke-width: 0.8"/>
      </g>
     </g>
     <g id="text_9">
      <!-- 0 -->
      <g transform="translate(44.2375 300.811648)scale(0.1 -0.1)">
       <use xlink:href="#DejaVuSans-30"/>
      </g>
     </g>
    </g>
    <g id="ytick_2">
     <g id="line2d_17">
      <path d="M 57.6 263.93574 
L 414.72 263.93574 
" clip-path="url(#p6fdc7dea01)" style="fill: none; stroke: #b0b0b0; stroke-width: 0.8; stroke-linecap: square"/>
     </g>
     <g id="line2d_18">
      <g>
       <use xlink:href="#m4fcfc3d4d4" x="57.6" y="263.93574" style="stroke: #000000; stroke-width: 0.8"/>
      </g>
     </g>
     <g id="text_10">
      <!-- 25 -->
      <g transform="translate(37.875 267.734959)scale(0.1 -0.1)">
       <use xlink:href="#DejaVuSans-32"/>
       <use xlink:href="#DejaVuSans-35" x="63.623047"/>
      </g>
     </g>
    </g>
    <g id="ytick_3">
     <g id="line2d_19">
      <path d="M 57.6 230.859051 
L 414.72 230.859051 
" clip-path="url(#p6fdc7dea01)" style="fill: none; stroke: #b0b0b0; stroke-width: 0.8; stroke-linecap: square"/>
     </g>
     <g id="line2d_20">
      <g>
       <use xlink:href="#m4fcfc3d4d4" x="57.6" y="230.859051" style="stroke: #000000; stroke-width: 0.8"/>
      </g>
     </g>
     <g id="text_11">
      <!-- 50 -->
      <g transform="translate(37.875 234.65827)scale(0.1 -0.1)">
       <use xlink:href="#DejaVuSans-35"/>
       <use xlink:href="#DejaVuSans-30" x="63.623047"/>
      </g>
     </g>
    </g>
    <g id="ytick_4">
     <g id="line2d_21">
      <path d="M 57.6 197.782363 
L 414.72 197.782363 
" clip-path="url(#p6fdc7dea01)" style="fill: none; stroke: #b0b0b0; stroke-width: 0.8; stroke-linecap: square"/>
     </g>
     <g id="line2d_22">
      <g>
       <use xlink:href="#m4fcfc3d4d4" x="57.6" y="197.782363" style="stroke: #000000; stroke-width: 0.8"/>
      </g>
     </g>
     <g id="text_12">
      <!-- 75 -->
      <g transform="translate(37.875 201.581581)scale(0.1 -0.1)">
       <defs>
        <path id="DejaVuSans-37" d="M 525 4666 
L 3525 4666 
L 3525 4397 
L 1831 0 
L 1172 0 
L 2766 4134 
L 525 4134 
L 525 4666 
z
" transform="scale(0.015625)"/>
       </defs>
       <use xlink:href="#DejaVuSans-37"/>
       <use xlink:href="#DejaVuSans-35" x="63.623047"/>
      </g>
     </g>
    </g>
    <g id="ytick_5">
     <g id="line2d_23">
      <path d="M 57.6 164.705674 
L 414.72 164.705674 
" clip-path="url(#p6fdc7dea01)" style="fill: none; stroke: #b0b0b0; stroke-width: 0.8; stroke-linecap: square"/>
     </g>
     <g id="line2d_24">
      <g>
       <use xlink:href="#m4fcfc3d4d4" x="57.6" y="164.705674" style="stroke: #000000; stroke-width: 0.8"/>
      </g>
     </g>
     <g id="text_13">
      <!-- 100 -->
      <g transform="translate(31.5125 168.504893)scale(0.1 -0.1)">
       <use xlink:href="#DejaVuSans-31"/>
       <use xlink:href="#DejaVuSans-30" x="63.623047"/>
       <use xlink:href="#DejaVuSans-30" x="127.246094"/>
      </g>
     </g>
    </g>
    <g id="ytick_6">
     <g id="line2d_25">
      <path d="M 57.6 131.628985 
L 414.72 131.628985 
" clip-path="url(#p6fdc7dea01)" style="fill: none; stroke: #b0b0b0; stroke-width: 0.8; stroke-linecap: square"/>
     </g>
     <g id="line2d_26">
      <g>
       <use xlink:href="#m4fcfc3d4d4" x="57.6" y="131.628985" style="stroke: #000000; stroke-width: 0.8"/>
      </g>
     </g>
     <g id="text_14">
      <!-- 125 -->
      <g transform="translate(31.5125 135.428204)scale(0.1 -0.1)">
       <use xlink:href="#DejaVuSans-31"/>
       <use xlink:href="#DejaVuSans-32" x="63.623047"/>
       <use xlink:href="#DejaVuSans-35" x="127.246094"/>
      </g>
     </g>
    </g>
    <g id="ytick_7">
     <g id="line2d_27">
      <path d="M 57.6 98.552297 
L 414.72 98.552297 
" clip-path="url(#p6fdc7dea01)" style="fill: none; stroke: #b0b0b0; stroke-width: 0.8; stroke-linecap: square"/>
     </g>
     <g id="line2d_28">
      <g>
       <use xlink:href="#m4fcfc3d4d4" x="57.6" y="98.552297" style="stroke: #000000; stroke-width: 0.8"/>
      </g>
     </g>
     <g id="text_15">
      <!-- 150 -->
      <g transform="translate(31.5125 102.351515)scale(0.1 -0.1)">
       <use xlink:href="#DejaVuSans-31"/>
       <use xlink:href="#DejaVuSans-35" x="63.623047"/>
       <use xlink:href="#DejaVuSans-30" x="127.246094"/>
      </g>
     </g>
    </g>
    <g id="ytick_8">
     <g id="line2d_29">
      <path d="M 57.6 65.475608 
L 414.72 65.475608 
" clip-path="url(#p6fdc7dea01)" style="fill: none; stroke: #b0b0b0; stroke-width: 0.8; stroke-linecap: square"/>
     </g>
     <g id="line2d_30">
      <g>
       <use xlink:href="#m4fcfc3d4d4" x="57.6" y="65.475608" style="stroke: #000000; stroke-width: 0.8"/>
      </g>
     </g>
     <g id="text_16">
      <!-- 175 -->
      <g transform="translate(31.5125 69.274827)scale(0.1 -0.1)">
       <use xlink:href="#DejaVuSans-31"/>
       <use xlink:href="#DejaVuSans-37" x="63.623047"/>
       <use xlink:href="#DejaVuSans-35" x="127.246094"/>
      </g>
     </g>
    </g>
    <g id="text_17">
     <!-- Fitness -->
     <g transform="translate(25.432812 191.845187)rotate(-90)scale(0.1 -0.1)">
      <defs>
       <path id="DejaVuSans-46" d="M 628 4666 
L 3309 4666 
L 3309 4134 
L 1259 4134 
L 1259 2759 
L 3109 2759 
L 3109 2228 
L 1259 2228 
L 1259 0 
L 628 0 
L 628 4666 
z
" transform="scale(0.015625)"/>
      </defs>
      <use xlink:href="#DejaVuSans-46"/>
      <use xlink:href="#DejaVuSans-69" x="50.269531"/>
      <use xlink:href="#DejaVuSans-74" x="78.052734"/>
      <use xlink:href="#DejaVuSans-6e" x="117.261719"/>
      <use xlink:href="#DejaVuSans-65" x="180.640625"/>
      <use xlink:href="#DejaVuSans-73" x="242.164062"/>
      <use xlink:href="#DejaVuSans-73" x="294.263672"/>
     </g>
    </g>
   </g>
   <g id="line2d_31">
    <path d="M 73.832727 238.622216 
L 74.918528 241.967108 
L 76.00433 242.766659 
L 77.090131 239.664898 
L 78.175932 241.47864 
L 79.261733 235.419224 
L 80.347534 227.147359 
L 81.433335 240.314574 
L 82.519137 239.445847 
L 83.604938 242.255073 
L 84.690739 243.589107 
L 85.77654 244.460186 
L 86.862341 239.796329 
L 87.948142 242.979771 
L 89.033943 238.569644 
L 90.119745 243.45886 
L 91.205546 240.720315 
L 92.291347 236.142501 
L 93.377148 236.426591 
L 94.462949 236.337794 
L 96.634552 241.320105 
L 97.720353 240.182267 
L 98.806154 236.477678 
L 99.891955 242.59025 
L 100.977756 233.803096 
L 102.063557 241.60236 
L 103.149358 238.078205 
L 104.23516 238.095964 
L 105.320961 235.121282 
L 106.406762 231.61761 
L 107.492563 239.476631 
L 108.578364 241.037851 
L 109.664165 238.674788 
L 110.749967 237.924232 
L 111.835768 235.233995 
L 112.921569 234.75769 
L 114.00737 242.554969 
L 115.093171 236.477678 
L 116.178972 241.470053 
L 117.264773 243.269425 
L 118.350575 238.515202 
L 119.436376 236.380653 
L 120.522177 242.854864 
L 121.607978 238.973866 
L 122.693779 234.007952 
L 123.77958 241.692222 
L 124.865382 237.660862 
L 125.951183 238.45115 
L 127.036984 238.229159 
L 128.122785 246.365403 
L 129.208586 243.914486 
L 130.294387 241.916742 
L 131.380189 237.352528 
L 132.46599 245.053551 
L 133.551791 244.350859 
L 134.637592 238.770818 
L 135.723393 242.864335 
L 136.809194 240.73322 
L 137.894995 246.277199 
L 138.980797 235.772042 
L 140.066598 239.489658 
L 141.152399 239.279369 
L 143.324001 245.237554 
L 144.409802 241.730837 
L 145.495604 246.132046 
L 146.581405 238.365255 
L 147.667206 233.715475 
L 148.753007 237.678621 
L 149.838808 240.335076 
L 150.924609 238.788456 
L 152.01041 230.555103 
L 153.096212 234.095203 
L 154.182013 240.173802 
L 155.267814 228.151173 
L 156.353615 238.051566 
L 157.439416 234.643025 
L 158.525217 234.76692 
L 159.611019 237.838455 
L 160.69682 229.971087 
L 161.782621 243.207682 
L 162.868422 230.920795 
L 163.954223 243.807472 
L 165.040024 231.758737 
L 166.125825 240.702674 
L 167.211627 239.25612 
L 168.297428 236.571899 
L 169.383229 237.641978 
L 170.46903 232.785935 
L 171.554831 235.094643 
L 172.640632 239.647374 
L 173.726434 237.658392 
L 174.812235 230.983366 
L 175.898036 238.575465 
L 176.983837 232.750416 
L 178.069638 231.276395 
L 179.155439 226.148931 
L 180.24124 234.828254 
L 181.327042 232.620221 
L 182.412843 238.841559 
L 183.498644 236.089987 
L 184.584445 231.167767 
L 185.670246 247.866165 
L 186.756047 231.776378 
L 187.841849 231.525025 
L 188.92765 238.6843 
L 190.013451 241.132282 
L 191.099252 236.1078 
L 192.185053 234.127291 
L 193.270854 233.3817 
L 194.356656 235.489788 
L 195.442457 237.161031 
L 196.528258 235.831654 
L 197.614059 239.307016 
L 198.69986 226.214814 
L 199.785661 237.625343 
L 200.871462 237.053811 
L 201.957264 237.996416 
L 203.043065 235.37573 
L 204.128866 233.907471 
L 205.214667 238.922612 
L 206.300468 241.255859 
L 207.386269 236.300276 
L 208.472071 232.755448 
L 209.557872 234.372332 
L 210.643673 235.618543 
L 211.729474 230.02343 
L 212.815275 237.068648 
L 213.901076 242.749135 
L 214.986877 231.40071 
L 216.072679 238.68355 
L 217.15848 239.490069 
L 218.244281 243.166243 
L 219.330082 240.385138 
L 220.415883 233.426328 
L 221.501684 231.917505 
L 222.587486 240.782058 
L 223.673287 243.410552 
L 225.844889 243.128298 
L 226.93069 241.699385 
L 228.016491 239.515944 
L 229.102292 235.169973 
L 230.188094 235.225174 
L 231.273895 238.797457 
L 233.445497 243.068567 
L 234.531298 239.863014 
L 235.617099 240.209321 
L 236.702901 234.952569 
L 237.788702 240.182682 
L 238.874503 233.142702 
L 239.960304 239.553495 
L 241.046105 230.548264 
L 242.131906 240.72842 
L 243.217708 239.262318 
L 244.303509 231.703377 
L 245.38931 242.444597 
L 246.475111 236.70333 
L 247.560912 242.269399 
L 248.646713 231.493766 
L 249.732514 241.981639 
L 250.818316 247.273909 
L 251.904117 230.426849 
L 252.989918 238.374075 
L 254.075719 235.189892 
L 255.16152 235.855372 
L 256.247321 236.952126 
L 257.333123 234.872356 
L 258.418924 234.214911 
L 259.504725 238.675595 
L 260.590526 241.858153 
L 261.676327 240.967287 
L 262.762128 240.720315 
L 263.847929 233.540705 
L 264.933731 234.526346 
L 266.019532 230.662379 
L 267.105333 241.115045 
L 268.191134 231.370638 
L 269.276935 232.146837 
L 270.362736 238.515202 
L 271.448538 242.170841 
L 272.534339 236.51296 
L 273.62014 238.282437 
L 274.705941 246.043249 
L 275.791742 239.582477 
L 276.877543 245.871458 
L 277.963344 236.046177 
L 279.049146 242.801707 
L 280.134947 248.032468 
L 281.220748 240.244011 
L 282.306549 237.783105 
L 283.39235 234.043234 
L 284.478151 245.924381 
L 285.563953 242.845518 
L 286.649754 231.770303 
L 287.735555 231.524966 
L 288.821356 240.887903 
L 289.907157 235.029781 
L 290.992958 227.030976 
L 292.07876 240.715461 
L 293.164561 241.532388 
L 294.250362 241.636357 
L 295.336163 237.836028 
L 296.421964 230.438888 
L 297.507765 237.703721 
L 298.593566 230.587428 
L 299.679368 240.385138 
L 300.765169 239.934052 
L 301.85097 238.246919 
L 302.936771 238.335715 
L 304.022572 233.789335 
L 305.108373 237.824871 
L 306.194175 243.081675 
L 307.279976 236.053645 
L 308.365777 230.299634 
L 309.451578 235.031124 
L 310.537379 239.253083 
L 311.62318 240.523578 
L 312.708981 235.772042 
L 313.794783 239.081605 
L 314.880584 234.6773 
L 315.966385 242.029649 
L 317.052186 237.179381 
L 318.137987 242.829237 
L 319.223788 244.151884 
L 320.30959 248.929135 
L 321.395391 235.94571 
L 322.481192 236.124683 
L 323.566993 236.106923 
L 324.652794 237.836028 
L 325.738595 242.416178 
L 326.824396 247.979545 
L 327.910198 242.352098 
L 328.995999 238.744534 
L 330.0818 245.474538 
L 331.167601 248.385286 
L 332.253402 241.055492 
L 333.339203 243.428193 
L 334.425005 231.282433 
L 335.510806 240.596829 
L 336.596607 237.015726 
L 337.682408 245.91556 
L 338.768209 234.730578 
L 339.85401 236.772897 
L 340.939811 241.283758 
L 342.025613 237.209776 
L 343.111414 244.248495 
L 344.197215 238.513308 
L 346.368817 244.302838 
L 347.454618 234.36077 
L 348.54042 239.267494 
L 349.626221 239.414888 
L 350.712022 233.207277 
L 351.797823 232.260458 
L 352.883624 237.169735 
L 353.969425 234.530345 
L 355.055227 236.645267 
L 356.141028 231.943967 
L 357.226829 234.295475 
L 358.31263 234.440154 
L 359.398431 235.993605 
L 360.484232 233.860372 
L 361.570033 238.157828 
L 362.655835 237.897771 
L 363.741636 238.162384 
L 364.827437 245.954453 
L 365.913238 238.329973 
L 366.999039 237.950693 
L 368.08484 232.376169 
L 369.170642 236.746258 
L 370.256443 235.744889 
L 371.342244 235.822717 
L 372.428045 232.338798 
L 373.513846 234.16672 
L 374.599647 230.394663 
L 375.685448 230.746634 
L 376.77125 233.584571 
L 377.857051 238.196854 
L 378.942852 235.848659 
L 380.028653 237.979244 
L 381.114454 240.655008 
L 382.200255 234.320056 
L 383.286057 238.388993 
L 384.371858 234.393273 
L 385.457659 240.402779 
L 386.54346 238.979054 
L 387.629261 234.854893 
L 388.715062 232.459248 
L 389.800863 232.848215 
L 390.886665 228.421822 
L 391.972466 238.212427 
L 393.058267 231.330281 
L 394.144068 233.549289 
L 395.229869 233.408162 
L 396.31567 234.422513 
L 397.401472 235.660648 
L 398.487273 241.382661 
L 398.487273 241.382661 
" clip-path="url(#p6fdc7dea01)" style="fill: none; stroke: #0000ff; stroke-width: 1.5; stroke-linecap: square"/>
   </g>
   <g id="line2d_32">
    <path d="M 73.832727 288.685198 
L 74.918528 289.742639 
L 76.00433 288.104399 
L 77.090131 289.682328 
L 78.175932 287.16739 
L 79.261733 283.840493 
L 80.347534 273.019395 
L 81.433335 285.668945 
L 82.519137 286.34855 
L 83.604938 288.299544 
L 84.690739 293.289388 
L 85.77654 288.833044 
L 86.862341 286.694359 
L 87.948142 288.584 
L 89.033943 287.072132 
L 90.119745 286.302702 
L 91.205546 286.359456 
L 92.291347 279.996685 
L 93.377148 284.729417 
L 94.462949 282.474996 
L 95.54875 287.992186 
L 96.634552 291.463806 
L 97.720353 286.884699 
L 98.806154 290.672208 
L 99.891955 290.893069 
L 100.977756 278.667701 
L 102.063557 289.60715 
L 103.149358 285.509535 
L 104.23516 284.383296 
L 106.406762 280.429383 
L 107.492563 287.551097 
L 108.578364 289.304 
L 109.664165 282.3142 
L 110.749967 286.783436 
L 111.835768 282.283623 
L 112.921569 283.587496 
L 114.00737 291.196153 
L 115.093171 284.982602 
L 116.178972 290.239041 
L 117.264773 289.413112 
L 118.350575 285.337735 
L 119.436376 284.053147 
L 120.522177 286.303528 
L 121.607978 286.242921 
L 122.693779 284.665297 
L 123.77958 289.109402 
L 124.865382 285.582205 
L 125.951183 285.822479 
L 127.036984 287.327101 
L 128.122785 292.556726 
L 129.208586 290.285188 
L 130.294387 289.747632 
L 131.380189 286.219696 
L 132.46599 288.647934 
L 133.551791 289.261374 
L 134.637592 287.351626 
L 135.723393 286.343716 
L 136.809194 286.925265 
L 137.894995 291.206979 
L 138.980797 281.004788 
L 140.066598 288.587479 
L 141.152399 286.540726 
L 142.2382 291.882016 
L 143.324001 289.707015 
L 144.409802 288.587281 
L 145.495604 288.861458 
L 146.581405 288.107784 
L 147.667206 281.020378 
L 149.838808 293.605517 
L 150.924609 282.455684 
L 152.01041 280.418773 
L 153.096212 281.86803 
L 154.182013 287.914825 
L 155.267814 276.699961 
L 156.353615 285.599129 
L 157.439416 280.707575 
L 158.525217 282.418117 
L 159.611019 284.944782 
L 160.69682 281.068269 
L 161.782621 288.975026 
L 162.868422 280.364907 
L 163.954223 289.839979 
L 165.040024 279.502064 
L 166.125825 287.290556 
L 167.211627 286.670447 
L 168.297428 282.96477 
L 169.383229 284.316905 
L 170.46903 282.517299 
L 171.554831 284.975438 
L 172.640632 289.466312 
L 174.812235 277.112501 
L 175.898036 285.329454 
L 176.983837 282.977947 
L 178.069638 279.300122 
L 179.155439 274.473444 
L 180.24124 281.008934 
L 181.327042 279.51473 
L 182.412843 287.791105 
L 183.498644 287.118692 
L 184.584445 284.030769 
L 185.670246 289.453553 
L 186.756047 277.732096 
L 187.841849 279.842528 
L 188.92765 284.154935 
L 190.013451 289.792351 
L 191.099252 284.595258 
L 192.185053 281.218681 
L 193.270854 279.702003 
L 194.356656 283.137061 
L 195.442457 284.805421 
L 196.528258 284.572577 
L 197.614059 287.562726 
L 198.69986 273.959457 
L 199.785661 283.682649 
L 200.871462 280.989484 
L 201.957264 286.361854 
L 204.128866 279.841095 
L 205.214667 283.613133 
L 206.300468 287.819468 
L 208.472071 279.843871 
L 209.557872 280.182721 
L 210.643673 283.509943 
L 211.729474 277.961315 
L 213.901076 286.520014 
L 214.986877 280.580122 
L 216.072679 283.965017 
L 217.15848 289.089936 
L 218.244281 287.063947 
L 219.330082 287.970221 
L 220.415883 280.136926 
L 221.501684 279.1098 
L 222.587486 286.799252 
L 223.673287 290.374726 
L 224.759088 290.139288 
L 225.844889 292.456045 
L 228.016491 284.85876 
L 229.102292 280.135573 
L 230.188094 282.739758 
L 231.273895 283.188465 
L 232.359696 288.107729 
L 233.445497 288.007953 
L 234.531298 285.257995 
L 235.617099 289.927497 
L 236.702901 283.918029 
L 237.788702 287.446238 
L 238.874503 281.697442 
L 239.960304 286.503279 
L 241.046105 283.635071 
L 242.131906 288.789824 
L 243.217708 286.415531 
L 244.303509 280.931249 
L 245.38931 290.053504 
L 246.475111 286.409284 
L 247.560912 290.824084 
L 248.646713 280.954313 
L 249.732514 288.981174 
L 250.818316 290.506471 
L 251.904117 279.252045 
L 252.989918 286.170903 
L 254.075719 280.369604 
L 255.16152 281.76716 
L 256.247321 283.880342 
L 257.333123 280.730322 
L 258.418924 280.476509 
L 259.504725 288.124236 
L 260.590526 287.583525 
L 261.676327 289.000357 
L 262.762128 286.474122 
L 263.847929 280.900016 
L 264.933731 284.479664 
L 266.019532 279.511721 
L 267.105333 288.169979 
L 268.191134 280.675879 
L 269.276935 281.652658 
L 270.362736 287.505063 
L 271.448538 286.64995 
L 272.534339 284.500724 
L 273.62014 285.538877 
L 274.705941 290.80752 
L 275.791742 285.939485 
L 276.877543 293.214107 
L 277.963344 288.841133 
L 279.049146 292.848309 
L 280.134947 295.488 
L 281.220748 287.409923 
L 282.306549 283.355159 
L 283.39235 286.036051 
L 284.478151 289.332501 
L 285.563953 286.918409 
L 286.649754 280.650973 
L 287.735555 278.875621 
L 288.821356 285.953138 
L 289.907157 283.20972 
L 290.992958 275.850351 
L 292.07876 290.208589 
L 293.164561 287.773276 
L 294.250362 288.200338 
L 295.336163 285.318953 
L 296.421964 279.83592 
L 297.507765 285.688774 
L 298.593566 278.551672 
L 299.679368 287.215001 
L 300.765169 287.687657 
L 301.85097 286.283124 
L 302.936771 283.895061 
L 304.022572 283.249963 
L 305.108373 284.4648 
L 306.194175 292.92395 
L 307.279976 284.323582 
L 308.365777 279.733084 
L 309.451578 285.253982 
L 310.537379 286.045463 
L 311.62318 291.697847 
L 312.708981 286.102741 
L 313.794783 289.260065 
L 314.880584 281.792274 
L 315.966385 288.528641 
L 317.052186 286.050862 
L 318.137987 290.421494 
L 319.223788 291.050871 
L 320.30959 291.426767 
L 321.395391 283.639847 
L 322.481192 286.290709 
L 323.566993 286.801993 
L 324.652794 284.352819 
L 325.738595 288.422955 
L 326.824396 295.08378 
L 327.910198 290.244496 
L 328.995999 288.169181 
L 330.0818 293.614646 
L 331.167601 294.489064 
L 332.253402 287.437026 
L 333.339203 289.655537 
L 334.425005 279.223099 
L 335.510806 287.261999 
L 336.596607 286.193748 
L 337.682408 290.834348 
L 338.768209 281.268138 
L 340.939811 289.895859 
L 342.025613 284.019948 
L 343.111414 290.545757 
L 344.197215 286.464685 
L 345.283016 285.869643 
L 346.368817 291.955974 
L 347.454618 281.304663 
L 348.54042 285.037391 
L 349.626221 283.706286 
L 351.797823 277.442788 
L 352.883624 282.853262 
L 353.969425 279.894999 
L 355.055227 283.86316 
L 356.141028 279.359053 
L 358.31263 280.74312 
L 359.398431 284.070012 
L 360.484232 282.553541 
L 362.655835 288.128432 
L 363.741636 290.081218 
L 364.827437 291.328034 
L 365.913238 287.675991 
L 366.999039 281.754229 
L 368.08484 281.870777 
L 369.170642 279.787684 
L 370.256443 282.388478 
L 371.342244 285.447931 
L 372.428045 282.624511 
L 373.513846 284.507384 
L 374.599647 272.671226 
L 375.685448 281.719497 
L 376.77125 282.476581 
L 377.857051 287.755645 
L 378.942852 282.16541 
L 380.028653 287.359034 
L 381.114454 285.61873 
L 382.200255 281.038999 
L 383.286057 285.079741 
L 384.371858 277.833461 
L 385.457659 284.391962 
L 386.54346 283.973284 
L 387.629261 278.445827 
L 388.715062 276.407567 
L 389.800863 278.737249 
L 390.886665 276.247727 
L 391.972466 285.532866 
L 393.058267 280.255297 
L 394.144068 282.511945 
L 395.229869 283.360833 
L 396.31567 281.028544 
L 397.401472 282.74879 
L 398.487273 287.735102 
L 398.487273 287.735102 
" clip-path="url(#p6fdc7dea01)" style="fill: none; stroke-dasharray: 9.6,2.4,1.5,2.4; stroke-dashoffset: 0; stroke: #008000; stroke-width: 1.5"/>
   </g>
   <g id="line2d_33">
    <path d="M 73.832727 188.559233 
L 74.918528 194.191577 
L 76.00433 197.428919 
L 77.090131 189.647469 
L 78.175932 195.78989 
L 79.261733 186.997956 
L 80.347534 181.275322 
L 81.433335 194.960203 
L 82.519137 192.543145 
L 83.604938 196.210602 
L 84.690739 193.888826 
L 85.77654 200.087327 
L 86.862341 192.898298 
L 87.948142 197.375541 
L 89.033943 190.067155 
L 90.119745 200.615018 
L 91.205546 195.081174 
L 92.291347 192.288318 
L 93.377148 188.123764 
L 94.462949 190.200593 
L 95.54875 189.497583 
L 96.634552 191.176405 
L 97.720353 193.479835 
L 98.806154 182.283148 
L 99.891955 194.287432 
L 100.977756 188.93849 
L 102.063557 193.59757 
L 103.149358 190.646876 
L 104.23516 191.808633 
L 105.320961 187.789788 
L 106.406762 182.805837 
L 107.492563 191.402166 
L 108.578364 192.771702 
L 109.664165 195.035376 
L 110.749967 189.065028 
L 111.835768 188.184367 
L 112.921569 185.927885 
L 114.00737 193.913784 
L 115.093171 187.972755 
L 117.264773 197.125738 
L 118.350575 191.692669 
L 119.436376 188.70816 
L 120.522177 199.406199 
L 122.693779 183.350607 
L 123.77958 194.275041 
L 124.865382 189.739518 
L 125.951183 191.079822 
L 127.036984 189.131218 
L 128.122785 200.17408 
L 129.208586 197.543784 
L 130.294387 194.085851 
L 131.380189 188.485359 
L 132.46599 201.459168 
L 133.551791 199.440344 
L 134.637592 190.19001 
L 135.723393 199.384954 
L 136.809194 194.541175 
L 137.894995 201.347418 
L 138.980797 190.539296 
L 140.066598 190.391837 
L 141.152399 192.018011 
L 142.2382 192.763455 
L 143.324001 200.768093 
L 144.409802 194.874392 
L 145.495604 203.402634 
L 146.581405 188.622725 
L 147.667206 186.410572 
L 148.753007 188.295213 
L 149.838808 187.064635 
L 150.924609 195.121228 
L 152.01041 180.691434 
L 154.182013 192.43278 
L 155.267814 179.602385 
L 156.353615 190.504004 
L 157.439416 188.578474 
L 158.525217 187.115722 
L 159.611019 190.732127 
L 160.69682 178.873904 
L 161.782621 197.440338 
L 162.868422 181.476682 
L 163.954223 197.774966 
L 165.040024 184.01541 
L 166.125825 194.114792 
L 167.211627 191.841793 
L 168.297428 190.179029 
L 169.383229 190.967051 
L 170.46903 183.054571 
L 171.554831 185.213849 
L 172.640632 189.828437 
L 173.726434 192.024204 
L 174.812235 184.854232 
L 175.898036 191.821477 
L 176.983837 182.522886 
L 178.069638 183.252668 
L 179.155439 177.824418 
L 180.24124 188.647574 
L 181.327042 185.725712 
L 182.412843 189.892013 
L 183.498644 185.061283 
L 184.584445 178.304766 
L 185.670246 206.278777 
L 186.756047 185.820661 
L 187.841849 183.207522 
L 188.92765 193.213664 
L 190.013451 192.472213 
L 191.099252 187.620341 
L 192.185053 187.035901 
L 193.270854 187.061398 
L 194.356656 187.842514 
L 195.442457 189.516641 
L 196.528258 187.090732 
L 197.614059 191.051307 
L 198.69986 178.470172 
L 199.785661 191.568038 
L 200.871462 193.118139 
L 201.957264 189.630978 
L 203.043065 187.589273 
L 204.128866 187.973846 
L 205.214667 194.23209 
L 206.300468 194.69225 
L 207.386269 188.831109 
L 208.472071 185.667026 
L 209.557872 188.561943 
L 210.643673 187.727143 
L 211.729474 182.085544 
L 212.815275 191.948632 
L 213.901076 198.978256 
L 214.986877 182.221298 
L 216.072679 193.402084 
L 217.15848 189.890203 
L 218.244281 199.26854 
L 220.415883 186.71573 
L 221.501684 184.725211 
L 222.587486 194.764864 
L 223.673287 196.446379 
L 224.759088 196.477347 
L 225.844889 193.80055 
L 226.93069 194.70417 
L 228.016491 194.173127 
L 229.102292 190.204374 
L 230.188094 187.710591 
L 231.273895 194.406448 
L 232.359696 193.909249 
L 233.445497 198.129182 
L 235.617099 190.491145 
L 236.702901 185.98711 
L 237.788702 192.919126 
L 238.874503 184.587963 
L 239.960304 192.603711 
L 241.046105 177.461456 
L 242.131906 192.667016 
L 243.217708 192.109105 
L 244.303509 182.475506 
L 245.38931 194.83569 
L 246.475111 186.997376 
L 247.560912 193.714714 
L 248.646713 182.03322 
L 249.732514 194.982104 
L 250.818316 204.041348 
L 251.904117 181.601654 
L 252.989918 190.577247 
L 254.075719 190.010181 
L 255.16152 189.943584 
L 256.247321 190.023909 
L 258.418924 187.953314 
L 259.504725 189.226955 
L 260.590526 196.132781 
L 261.676327 192.934218 
L 262.762128 194.966508 
L 263.847929 186.181394 
L 264.933731 184.573028 
L 266.019532 181.813037 
L 267.105333 194.06011 
L 268.191134 182.065396 
L 269.276935 182.641016 
L 270.362736 189.525341 
L 271.448538 197.691732 
L 272.534339 188.525196 
L 273.62014 191.025997 
L 274.705941 201.278979 
L 275.791742 193.225468 
L 276.877543 198.528808 
L 277.963344 183.251221 
L 279.049146 192.755106 
L 280.134947 200.576936 
L 281.220748 193.078098 
L 282.306549 192.211051 
L 283.39235 182.050417 
L 284.478151 202.51626 
L 285.563953 198.772626 
L 286.649754 182.889634 
L 287.735555 184.174312 
L 288.821356 195.822669 
L 290.992958 178.211601 
L 292.07876 191.222332 
L 293.164561 195.291501 
L 294.250362 195.072376 
L 295.336163 190.353102 
L 296.421964 181.041856 
L 297.507765 189.718668 
L 298.593566 182.623184 
L 299.679368 193.555274 
L 300.765169 192.180446 
L 301.85097 190.210713 
L 302.936771 192.776369 
L 304.022572 184.328708 
L 305.108373 191.184942 
L 306.194175 193.239401 
L 307.279976 187.783709 
L 308.365777 180.866183 
L 309.451578 184.808266 
L 310.537379 192.460702 
L 311.62318 189.349309 
L 312.708981 185.441343 
L 313.794783 188.903146 
L 314.880584 187.562326 
L 315.966385 195.530657 
L 317.052186 188.3079 
L 318.137987 195.236979 
L 319.223788 197.252897 
L 320.30959 206.431503 
L 321.395391 188.251573 
L 322.481192 185.958656 
L 323.566993 185.411854 
L 324.652794 191.319236 
L 325.738595 196.4094 
L 326.824396 200.875311 
L 327.910198 194.4597 
L 328.995999 189.319887 
L 330.0818 197.334429 
L 331.167601 202.281508 
L 332.253402 194.673958 
L 333.339203 197.200849 
L 334.425005 183.341767 
L 335.510806 193.931658 
L 336.596607 187.837704 
L 337.682408 200.996772 
L 338.768209 188.193018 
L 339.85401 187.922689 
L 340.939811 192.671657 
L 342.025613 190.399603 
L 343.111414 197.951233 
L 344.197215 190.561931 
L 345.283016 196.857706 
L 346.368817 196.649703 
L 347.454618 187.416878 
L 348.54042 193.497597 
L 349.626221 195.123491 
L 350.712022 185.9563 
L 351.797823 187.078129 
L 352.883624 191.486209 
L 353.969425 189.16569 
L 355.055227 189.427374 
L 356.141028 184.528881 
L 357.226829 188.53107 
L 358.31263 188.137189 
L 359.398431 187.917198 
L 360.484232 185.167204 
L 361.570033 191.03591 
L 362.655835 187.66711 
L 363.741636 186.24355 
L 364.827437 200.580872 
L 365.913238 188.983955 
L 366.999039 194.147158 
L 368.08484 182.881561 
L 369.170642 193.704832 
L 370.256443 189.1013 
L 371.342244 186.197502 
L 372.428045 182.053085 
L 373.513846 183.826057 
L 374.599647 188.1181 
L 375.685448 179.77377 
L 376.77125 184.69256 
L 377.857051 188.638062 
L 378.942852 189.531908 
L 380.028653 188.599454 
L 381.114454 195.691287 
L 382.200255 187.601113 
L 383.286057 191.698245 
L 384.371858 190.953085 
L 385.457659 196.413595 
L 386.54346 193.984825 
L 388.715062 188.510929 
L 389.800863 186.959181 
L 390.886665 180.595917 
L 391.972466 190.891987 
L 393.058267 182.405265 
L 394.144068 184.586632 
L 395.229869 183.455491 
L 396.31567 187.816482 
L 397.401472 188.572505 
L 398.487273 195.03022 
L 398.487273 195.03022 
" clip-path="url(#p6fdc7dea01)" style="fill: none; stroke-dasharray: 9.6,2.4,1.5,2.4; stroke-dashoffset: 0; stroke: #008000; stroke-width: 1.5"/>
   </g>
   <g id="line2d_34">
    <path d="M 73.832727 103.844567 
L 74.918528 144.859661 
L 76.00433 144.859661 
L 77.090131 95.906162 
L 78.175932 110.459905 
L 79.261733 127.659783 
L 80.347534 139.567391 
L 81.433335 134.27512 
L 82.519137 110.459905 
L 83.604938 151.474999 
L 84.690739 68.121743 
L 85.77654 126.336715 
L 86.862341 86.644689 
L 87.948142 158.090336 
L 89.033943 97.229229 
L 90.119745 143.536593 
L 91.205546 114.429107 
L 92.291347 159.413404 
L 93.377148 101.198432 
L 94.462949 159.413404 
L 95.54875 72.090946 
L 96.634552 117.075242 
L 97.720353 119.721377 
L 98.806154 89.290824 
L 99.891955 140.890458 
L 100.977756 109.136837 
L 102.063557 159.413404 
L 103.149358 107.813769 
L 104.23516 119.721377 
L 105.320961 109.136837 
L 106.406762 111.782972 
L 107.492563 57.537203 
L 108.578364 151.474999 
L 109.664165 99.875364 
L 110.749967 72.090946 
L 111.835768 138.244323 
L 112.921569 130.305918 
L 114.00737 156.767269 
L 115.093171 139.567391 
L 116.178972 111.782972 
L 118.350575 106.490702 
L 119.436376 143.536593 
L 120.522177 148.828863 
L 121.607978 156.767269 
L 122.693779 119.721377 
L 123.77958 99.875364 
L 124.865382 72.090946 
L 125.951183 148.828863 
L 127.036984 98.552297 
L 128.122785 118.39831 
L 129.208586 122.367512 
L 130.294387 89.290824 
L 131.380189 107.813769 
L 132.46599 159.413404 
L 133.551791 159.413404 
L 134.637592 102.521499 
L 135.723393 159.413404 
L 136.809194 109.136837 
L 137.894995 159.413404 
L 138.980797 136.921256 
L 140.066598 118.39831 
L 141.152399 147.505796 
L 142.2382 105.167634 
L 143.324001 128.98285 
L 144.409802 159.413404 
L 145.495604 159.413404 
L 146.581405 155.444201 
L 147.667206 132.952053 
L 148.753007 125.013648 
L 149.838808 66.798675 
L 150.924609 128.98285 
L 152.01041 106.490702 
L 153.096212 113.10604 
L 154.182013 142.213526 
L 155.267814 106.490702 
L 156.353615 102.521499 
L 157.439416 154.121134 
L 158.525217 123.69058 
L 159.611019 146.182728 
L 160.69682 114.429107 
L 161.782621 128.98285 
L 162.868422 136.921256 
L 163.954223 123.69058 
L 165.040024 94.583094 
L 167.211627 123.69058 
L 168.297428 144.859661 
L 169.383229 53.568 
L 170.46903 125.013648 
L 171.554831 136.921256 
L 172.640632 69.444811 
L 173.726434 135.598188 
L 174.812235 131.628985 
L 175.898036 159.413404 
L 176.983837 72.090946 
L 178.069638 143.536593 
L 179.155439 72.090946 
L 180.24124 102.521499 
L 181.327042 159.413404 
L 182.412843 159.413404 
L 183.498644 144.859661 
L 184.584445 72.090946 
L 185.670246 159.413404 
L 186.756047 155.444201 
L 187.841849 103.844567 
L 188.92765 159.413404 
L 190.013451 73.414013 
L 191.099252 159.413404 
L 192.185053 128.98285 
L 193.270854 135.598188 
L 194.356656 159.413404 
L 195.442457 117.075242 
L 196.528258 159.413404 
L 197.614059 159.413404 
L 198.69986 115.752175 
L 199.785661 142.213526 
L 200.871462 150.151931 
L 201.957264 101.198432 
L 203.043065 83.998554 
L 204.128866 81.352419 
L 205.214667 159.413404 
L 206.300468 159.413404 
L 207.386269 125.013648 
L 208.472071 159.413404 
L 209.557872 151.474999 
L 210.643673 83.998554 
L 211.729474 83.998554 
L 212.815275 159.413404 
L 213.901076 159.413404 
L 214.986877 147.505796 
L 216.072679 107.813769 
L 217.15848 101.198432 
L 218.244281 115.752175 
L 219.330082 53.568 
L 220.415883 113.10604 
L 221.501684 159.413404 
L 222.587486 158.090336 
L 223.673287 118.39831 
L 224.759088 159.413404 
L 226.93069 58.86027 
L 228.016491 159.413404 
L 229.102292 139.567391 
L 230.188094 159.413404 
L 231.273895 154.121134 
L 232.359696 111.782972 
L 233.445497 156.767269 
L 234.531298 146.182728 
L 235.617099 152.798066 
L 236.702901 147.505796 
L 237.788702 159.413404 
L 238.874503 54.891068 
L 239.960304 146.182728 
L 241.046105 113.10604 
L 242.131906 66.798675 
L 243.217708 150.151931 
L 244.303509 125.013648 
L 245.38931 107.813769 
L 247.560912 132.952053 
L 248.646713 98.552297 
L 249.732514 134.27512 
L 250.818316 159.413404 
L 251.904117 126.336715 
L 252.989918 111.782972 
L 254.075719 121.044445 
L 255.16152 113.10604 
L 256.247321 138.244323 
L 257.333123 144.859661 
L 258.418924 128.98285 
L 259.504725 122.367512 
L 260.590526 139.567391 
L 261.676327 148.828863 
L 262.762128 127.659783 
L 263.847929 148.828863 
L 264.933731 125.013648 
L 266.019532 118.39831 
L 267.105333 95.906162 
L 268.191134 98.552297 
L 269.276935 78.706283 
L 270.362736 86.644689 
L 271.448538 115.752175 
L 272.534339 148.828863 
L 273.62014 134.27512 
L 274.705941 148.828863 
L 275.791742 134.27512 
L 276.877543 132.952053 
L 277.963344 53.568 
L 279.049146 66.798675 
L 280.134947 117.075242 
L 281.220748 105.167634 
L 282.306549 135.598188 
L 283.39235 102.521499 
L 284.478151 122.367512 
L 285.563953 148.828863 
L 286.649754 144.859661 
L 287.735555 114.429107 
L 288.821356 159.413404 
L 290.992958 159.413404 
L 292.07876 126.336715 
L 293.164561 126.336715 
L 294.250362 159.413404 
L 295.336163 135.598188 
L 296.421964 107.813769 
L 297.507765 113.10604 
L 298.593566 128.98285 
L 299.679368 103.844567 
L 300.765169 115.752175 
L 301.85097 83.998554 
L 302.936771 159.413404 
L 304.022572 144.859661 
L 305.108373 154.121134 
L 306.194175 90.613891 
L 307.279976 131.628985 
L 308.365777 105.167634 
L 309.451578 89.290824 
L 310.537379 159.413404 
L 311.62318 103.844567 
L 312.708981 90.613891 
L 313.794783 103.844567 
L 314.880584 101.198432 
L 315.966385 101.198432 
L 317.052186 117.075242 
L 318.137987 101.198432 
L 319.223788 140.890458 
L 320.30959 159.413404 
L 321.395391 134.27512 
L 322.481192 117.075242 
L 323.566993 73.414013 
L 324.652794 107.813769 
L 325.738595 114.429107 
L 326.824396 142.213526 
L 327.910198 101.198432 
L 328.995999 123.69058 
L 330.0818 158.090336 
L 331.167601 155.444201 
L 332.253402 140.890458 
L 333.339203 122.367512 
L 334.425005 101.198432 
L 335.510806 139.567391 
L 336.596607 95.906162 
L 337.682408 158.090336 
L 338.768209 140.890458 
L 339.85401 109.136837 
L 340.939811 72.090946 
L 342.025613 140.890458 
L 343.111414 73.414013 
L 344.197215 80.029351 
L 345.283016 85.321621 
L 346.368817 123.69058 
L 347.454618 122.367512 
L 348.54042 127.659783 
L 349.626221 125.013648 
L 350.712022 102.521499 
L 351.797823 123.69058 
L 352.883624 73.414013 
L 353.969425 159.413404 
L 355.055227 85.321621 
L 356.141028 126.336715 
L 357.226829 113.10604 
L 358.31263 117.075242 
L 359.398431 93.260026 
L 360.484232 140.890458 
L 361.570033 93.260026 
L 362.655835 109.136837 
L 363.741636 134.27512 
L 364.827437 143.536593 
L 365.913238 121.044445 
L 366.999039 151.474999 
L 368.08484 53.568 
L 369.170642 159.413404 
L 370.256443 83.998554 
L 371.342244 114.429107 
L 373.513846 53.568 
L 374.599647 101.198432 
L 375.685448 58.86027 
L 376.77125 74.737081 
L 377.857051 77.383216 
L 378.942852 73.414013 
L 380.028653 93.260026 
L 381.114454 154.121134 
L 382.200255 144.859661 
L 383.286057 93.260026 
L 384.371858 159.413404 
L 385.457659 134.27512 
L 386.54346 155.444201 
L 387.629261 144.859661 
L 388.715062 159.413404 
L 389.800863 159.413404 
L 390.886665 123.69058 
L 391.972466 150.151931 
L 393.058267 107.813769 
L 394.144068 101.198432 
L 395.229869 76.060148 
L 396.31567 69.444811 
L 397.401472 156.767269 
L 398.487273 97.229229 
L 398.487273 97.229229 
" clip-path="url(#p6fdc7dea01)" style="fill: none; stroke: #ff0000; stroke-width: 1.5; stroke-linecap: square"/>
   </g>
   <g id="patch_3">
    <path d="M 57.6 307.584 
L 57.6 41.472 
" style="fill: none; stroke: #000000; stroke-width: 0.8; stroke-linejoin: miter; stroke-linecap: square"/>
   </g>
   <g id="patch_4">
    <path d="M 414.72 307.584 
L 414.72 41.472 
" style="fill: none; stroke: #000000; stroke-width: 0.8; stroke-linejoin: miter; stroke-linecap: square"/>
   </g>
   <g id="patch_5">
    <path d="M 57.6 307.584 
L 414.72 307.584 
" style="fill: none; stroke: #000000; stroke-width: 0.8; stroke-linejoin: miter; stroke-linecap: square"/>
   </g>
   <g id="patch_6">
    <path d="M 57.6 41.472 
L 414.72 41.472 
" style="fill: none; stroke: #000000; stroke-width: 0.8; stroke-linejoin: miter; stroke-linecap: square"/>
   </g>
   <g id="text_18">
    <!-- Population's average and best fitness -->
    <g transform="translate(123.529687 35.472)scale(0.12 -0.12)">
     <defs>
      <path id="DejaVuSans-50" d="M 1259 4147 
L 1259 2394 
L 2053 2394 
Q 2494 2394 2734 2622 
Q 2975 2850 2975 3272 
Q 2975 3691 2734 3919 
Q 2494 4147 2053 4147 
L 1259 4147 
z
M 628 4666 
L 2053 4666 
Q 2838 4666 3239 4311 
Q 3641 3956 3641 3272 
Q 3641 2581 3239 2228 
Q 2838 1875 2053 1875 
L 1259 1875 
L 1259 0 
L 628 0 
L 628 4666 
z
" transform="scale(0.015625)"/>
      <path id="DejaVuSans-70" d="M 1159 525 
L 1159 -1331 
L 581 -1331 
L 581 3500 
L 1159 3500 
L 1159 2969 
Q 1341 3281 1617 3432 
Q 1894 3584 2278 3584 
Q 2916 3584 3314 3078 
Q 3713 2572 3713 1747 
Q 3713 922 3314 415 
Q 2916 -91 2278 -91 
Q 1894 -91 1617 61 
Q 1341 213 1159 525 
z
M 3116 1747 
Q 3116 2381 2855 2742 
Q 2594 3103 2138 3103 
Q 1681 3103 1420 2742 
Q 1159 2381 1159 1747 
Q 1159 1113 1420 752 
Q 1681 391 2138 391 
Q 2594 391 2855 752 
Q 3116 1113 3116 1747 
z
" transform="scale(0.015625)"/>
      <path id="DejaVuSans-75" d="M 544 1381 
L 544 3500 
L 1119 3500 
L 1119 1403 
Q 1119 906 1312 657 
Q 1506 409 1894 409 
Q 2359 409 2629 706 
Q 2900 1003 2900 1516 
L 2900 3500 
L 3475 3500 
L 3475 0 
L 2900 0 
L 2900 538 
Q 2691 219 2414 64 
Q 2138 -91 1772 -91 
Q 1169 -91 856 284 
Q 544 659 544 1381 
z
M 1991 3584 
L 1991 3584 
z
" transform="scale(0.015625)"/>
      <path id="DejaVuSans-6c" d="M 603 4863 
L 1178 4863 
L 1178 0 
L 603 0 
L 603 4863 
z
" transform="scale(0.015625)"/>
      <path id="DejaVuSans-27" d="M 1147 4666 
L 1147 2931 
L 616 2931 
L 616 4666 
L 1147 4666 
z
" transform="scale(0.015625)"/>
      <path id="DejaVuSans-20" transform="scale(0.015625)"/>
      <path id="DejaVuSans-76" d="M 191 3500 
L 800 3500 
L 1894 563 
L 2988 3500 
L 3597 3500 
L 2284 0 
L 1503 0 
L 191 3500 
z
" transform="scale(0.015625)"/>
      <path id="DejaVuSans-67" d="M 2906 1791 
Q 2906 2416 2648 2759 
Q 2391 3103 1925 3103 
Q 1463 3103 1205 2759 
Q 947 2416 947 1791 
Q 947 1169 1205 825 
Q 1463 481 1925 481 
Q 2391 481 2648 825 
Q 2906 1169 2906 1791 
z
M 3481 434 
Q 3481 -459 3084 -895 
Q 2688 -1331 1869 -1331 
Q 1566 -1331 1297 -1286 
Q 1028 -1241 775 -1147 
L 775 -588 
Q 1028 -725 1275 -790 
Q 1522 -856 1778 -856 
Q 2344 -856 2625 -561 
Q 2906 -266 2906 331 
L 2906 616 
Q 2728 306 2450 153 
Q 2172 0 1784 0 
Q 1141 0 747 490 
Q 353 981 353 1791 
Q 353 2603 747 3093 
Q 1141 3584 1784 3584 
Q 2172 3584 2450 3431 
Q 2728 3278 2906 2969 
L 2906 3500 
L 3481 3500 
L 3481 434 
z
" transform="scale(0.015625)"/>
      <path id="DejaVuSans-64" d="M 2906 2969 
L 2906 4863 
L 3481 4863 
L 3481 0 
L 2906 0 
L 2906 525 
Q 2725 213 2448 61 
Q 2172 -91 1784 -91 
Q 1150 -91 751 415 
Q 353 922 353 1747 
Q 353 2572 751 3078 
Q 1150 3584 1784 3584 
Q 2172 3584 2448 3432 
Q 2725 3281 2906 2969 
z
M 947 1747 
Q 947 1113 1208 752 
Q 1469 391 1925 391 
Q 2381 391 2643 752 
Q 2906 1113 2906 1747 
Q 2906 2381 2643 2742 
Q 2381 3103 1925 3103 
Q 1469 3103 1208 2742 
Q 947 2381 947 1747 
z
" transform="scale(0.015625)"/>
      <path id="DejaVuSans-62" d="M 3116 1747 
Q 3116 2381 2855 2742 
Q 2594 3103 2138 3103 
Q 1681 3103 1420 2742 
Q 1159 2381 1159 1747 
Q 1159 1113 1420 752 
Q 1681 391 2138 391 
Q 2594 391 2855 752 
Q 3116 1113 3116 1747 
z
M 1159 2969 
Q 1341 3281 1617 3432 
Q 1894 3584 2278 3584 
Q 2916 3584 3314 3078 
Q 3713 2572 3713 1747 
Q 3713 922 3314 415 
Q 2916 -91 2278 -91 
Q 1894 -91 1617 61 
Q 1341 213 1159 525 
L 1159 0 
L 581 0 
L 581 4863 
L 1159 4863 
L 1159 2969 
z
" transform="scale(0.015625)"/>
      <path id="DejaVuSans-66" d="M 2375 4863 
L 2375 4384 
L 1825 4384 
Q 1516 4384 1395 4259 
Q 1275 4134 1275 3809 
L 1275 3500 
L 2222 3500 
L 2222 3053 
L 1275 3053 
L 1275 0 
L 697 0 
L 697 3053 
L 147 3053 
L 147 3500 
L 697 3500 
L 697 3744 
Q 697 4328 969 4595 
Q 1241 4863 1831 4863 
L 2375 4863 
z
" transform="scale(0.015625)"/>
     </defs>
     <use xlink:href="#DejaVuSans-50"/>
     <use xlink:href="#DejaVuSans-6f" x="56.677734"/>
     <use xlink:href="#DejaVuSans-70" x="117.859375"/>
     <use xlink:href="#DejaVuSans-75" x="181.335938"/>
     <use xlink:href="#DejaVuSans-6c" x="244.714844"/>
     <use xlink:href="#DejaVuSans-61" x="272.498047"/>
     <use xlink:href="#DejaVuSans-74" x="333.777344"/>
     <use xlink:href="#DejaVuSans-69" x="372.986328"/>
     <use xlink:href="#DejaVuSans-6f" x="400.769531"/>
     <use xlink:href="#DejaVuSans-6e" x="461.951172"/>
     <use xlink:href="#DejaVuSans-27" x="525.330078"/>
     <use xlink:href="#DejaVuSans-73" x="552.820312"/>
     <use xlink:href="#DejaVuSans-20" x="604.919922"/>
     <use xlink:href="#DejaVuSans-61" x="636.707031"/>
     <use xlink:href="#DejaVuSans-76" x="697.986328"/>
     <use xlink:href="#DejaVuSans-65" x="757.166016"/>
     <use xlink:href="#DejaVuSans-72" x="818.689453"/>
     <use xlink:href="#DejaVuSans-61" x="859.802734"/>
     <use xlink:href="#DejaVuSans-67" x="921.082031"/>
     <use xlink:href="#DejaVuSans-65" x="984.558594"/>
     <use xlink:href="#DejaVuSans-20" x="1046.082031"/>
     <use xlink:href="#DejaVuSans-61" x="1077.869141"/>
     <use xlink:href="#DejaVuSans-6e" x="1139.148438"/>
     <use xlink:href="#DejaVuSans-64" x="1202.527344"/>
     <use xlink:href="#DejaVuSans-20" x="1266.003906"/>
     <use xlink:href="#DejaVuSans-62" x="1297.791016"/>
     <use xlink:href="#DejaVuSans-65" x="1361.267578"/>
     <use xlink:href="#DejaVuSans-73" x="1422.791016"/>
     <use xlink:href="#DejaVuSans-74" x="1474.890625"/>
     <use xlink:href="#DejaVuSans-20" x="1514.099609"/>
     <use xlink:href="#DejaVuSans-66" x="1545.886719"/>
     <use xlink:href="#DejaVuSans-69" x="1581.091797"/>
     <use xlink:href="#DejaVuSans-74" x="1608.875"/>
     <use xlink:href="#DejaVuSans-6e" x="1648.083984"/>
     <use xlink:href="#DejaVuSans-65" x="1711.462891"/>
     <use xlink:href="#DejaVuSans-73" x="1772.986328"/>
     <use xlink:href="#DejaVuSans-73" x="1825.085938"/>
    </g>
   </g>
   <g id="legend_1">
    <g id="patch_7">
     <path d="M 199.689687 108.1845 
L 272.630313 108.1845 
Q 274.630313 108.1845 274.630313 106.1845 
L 274.630313 48.472 
Q 274.630313 46.472 272.630313 46.472 
L 199.689687 46.472 
Q 197.689687 46.472 197.689687 48.472 
L 197.689687 106.1845 
Q 197.689687 108.1845 199.689687 108.1845 
z
" style="fill: #ffffff; opacity: 0.8; stroke: #cccccc; stroke-linejoin: miter"/>
    </g>
    <g id="line2d_35">
     <path d="M 201.689687 54.570438 
L 211.689687 54.570438 
L 221.689687 54.570438 
" style="fill: none; stroke: #0000ff; stroke-width: 1.5; stroke-linecap: square"/>
    </g>
    <g id="text_19">
     <!-- average -->
     <g transform="translate(229.689687 58.070438)scale(0.1 -0.1)">
      <use xlink:href="#DejaVuSans-61"/>
      <use xlink:href="#DejaVuSans-76" x="61.279297"/>
      <use xlink:href="#DejaVuSans-65" x="120.458984"/>
      <use xlink:href="#DejaVuSans-72" x="181.982422"/>
      <use xlink:href="#DejaVuSans-61" x="223.095703"/>
      <use xlink:href="#DejaVuSans-67" x="284.375"/>
      <use xlink:href="#DejaVuSans-65" x="347.851562"/>
     </g>
    </g>
    <g id="line2d_36">
     <path d="M 201.689687 69.248563 
L 211.689687 69.248563 
L 221.689687 69.248563 
" style="fill: none; stroke-dasharray: 9.6,2.4,1.5,2.4; stroke-dashoffset: 0; stroke: #008000; stroke-width: 1.5"/>
    </g>
    <g id="text_20">
     <!-- -1 sd -->
     <g transform="translate(229.689687 72.748563)scale(0.1 -0.1)">
      <defs>
       <path id="DejaVuSans-2d" d="M 313 2009 
L 1997 2009 
L 1997 1497 
L 313 1497 
L 313 2009 
z
" transform="scale(0.015625)"/>
      </defs>
      <use xlink:href="#DejaVuSans-2d"/>
      <use xlink:href="#DejaVuSans-31" x="36.083984"/>
      <use xlink:href="#DejaVuSans-20" x="99.707031"/>
      <use xlink:href="#DejaVuSans-73" x="131.494141"/>
      <use xlink:href="#DejaVuSans-64" x="183.59375"/>
     </g>
    </g>
    <g id="line2d_37">
     <path d="M 201.689687 83.926688 
L 211.689687 83.926688 
L 221.689687 83.926688 
" style="fill: none; stroke-dasharray: 9.6,2.4,1.5,2.4; stroke-dashoffset: 0; stroke: #008000; stroke-width: 1.5"/>
    </g>
    <g id="text_21">
     <!-- +1 sd -->
     <g transform="translate(229.689687 87.426688)scale(0.1 -0.1)">
      <defs>
       <path id="DejaVuSans-2b" d="M 2944 4013 
L 2944 2272 
L 4684 2272 
L 4684 1741 
L 2944 1741 
L 2944 0 
L 2419 0 
L 2419 1741 
L 678 1741 
L 678 2272 
L 2419 2272 
L 2419 4013 
L 2944 4013 
z
" transform="scale(0.015625)"/>
      </defs>
      <use xlink:href="#DejaVuSans-2b"/>
      <use xlink:href="#DejaVuSans-31" x="83.789062"/>
      <use xlink:href="#DejaVuSans-20" x="147.412109"/>
      <use xlink:href="#DejaVuSans-73" x="179.199219"/>
      <use xlink:href="#DejaVuSans-64" x="231.298828"/>
     </g>
    </g>
    <g id="line2d_38">
     <path d="M 201.689687 98.604813 
L 211.689687 98.604813 
L 221.689687 98.604813 
" style="fill: none; stroke: #ff0000; stroke-width: 1.5; stroke-linecap: square"/>
    </g>
    <g id="text_22">
     <!-- best -->
     <g transform="translate(229.689687 102.104813)scale(0.1 -0.1)">
      <use xlink:href="#DejaVuSans-62"/>
      <use xlink:href="#DejaVuSans-65" x="63.476562"/>
      <use xlink:href="#DejaVuSans-73" x="125"/>
      <use xlink:href="#DejaVuSans-74" x="177.099609"/>
     </g>
    </g>
   </g>
  </g>
 </g>
 <defs>
  <clipPath id="p6fdc7dea01">
   <rect x="57.6" y="41.472" width="357.12" height="266.112"/>
  </clipPath>
 </defs>
</svg>
