<?xml version="1.0" encoding="UTF-8" standalone="no"?>
<!DOCTYPE svg PUBLIC "-//W3C//DTD SVG 1.1//EN"
 "http://www.w3.org/Graphics/SVG/1.1/DTD/svg11.dtd">
<!-- Generated by graphviz version 4.0.0 (20220529.0937)
 -->
<!-- Pages: 1 -->
<svg width="2548pt" height="350pt"
 viewBox="0.00 0.00 2547.99 350.11" xmlns="http://www.w3.org/2000/svg" xmlns:xlink="http://www.w3.org/1999/xlink">
<g id="graph0" class="graph" transform="scale(1 1) rotate(0) translate(4 346.11)">
<polygon fill="white" stroke="transparent" points="-4,4 -4,-346.11 2543.99,-346.11 2543.99,4 -4,4"/>
<!-- GHOST1 X -->
<g id="node1" class="node">
<title>GHOST1 X</title>
<ellipse fill="lightcoral" stroke="black" cx="43.13" cy="-281.3" rx="43.27" ry="43.27"/>
<text text-anchor="middle" x="43.13" y="-279.1" font-family="Times New Roman,serif" font-size="9.00">GHOST1 X</text>
</g>
<!-- GHOST1 Y -->
<g id="node2" class="node">
<title>GHOST1 Y</title>
<ellipse fill="lightcoral" stroke="black" cx="44.13" cy="-142.07" rx="42.35" ry="42.35"/>
<text text-anchor="middle" x="44.13" y="-139.87" font-family="Times New Roman,serif" font-size="9.00">GHOST1 Y</text>
</g>
<!-- RIGHT -->
<g id="node28" class="node">
<title>RIGHT</title>
<ellipse fill="lightblue" stroke="black" cx="88.13" cy="-31.82" rx="31.64" ry="31.64"/>
<text text-anchor="middle" x="88.13" y="-29.62" font-family="Times New Roman,serif" font-size="9.00">RIGHT</text>
</g>
<!-- GHOST1 Y&#45;&gt;RIGHT -->
<g id="edge4" class="edge">
<title>GHOST1 Y&#45;&gt;RIGHT</title>
<path fill="none" stroke="green" stroke-width="0.72" d="M59.77,-102.6C65.25,-89.11 71.31,-74.2 76.42,-61.63"/>
</g>
<!-- GHOST2 X -->
<g id="node3" class="node">
<title>GHOST2 X</title>
<ellipse fill="lightcoral" stroke="black" cx="221.13" cy="-281.3" rx="43.27" ry="43.27"/>
<text text-anchor="middle" x="221.13" y="-279.1" font-family="Times New Roman,serif" font-size="9.00">GHOST2 X</text>
</g>
<!-- GHOST2 Y -->
<g id="node4" class="node">
<title>GHOST2 Y</title>
<ellipse fill="lightcoral" stroke="black" cx="325.13" cy="-281.3" rx="42.35" ry="42.35"/>
<text text-anchor="middle" x="325.13" y="-279.1" font-family="Times New Roman,serif" font-size="9.00">GHOST2 Y</text>
</g>
<!-- UP -->
<g id="node26" class="node">
<title>UP</title>
<ellipse fill="lightblue" stroke="black" cx="325.13" cy="-142.07" rx="20.51" ry="20.51"/>
<text text-anchor="middle" x="325.13" y="-139.87" font-family="Times New Roman,serif" font-size="9.00">UP</text>
</g>
<!-- GHOST2 Y&#45;&gt;UP -->
<g id="edge5" class="edge">
<title>GHOST2 Y&#45;&gt;UP</title>
<path fill="none" stroke="green" stroke-width="0.3" d="M325.13,-238.76C325.13,-213.51 325.13,-182.44 325.13,-162.69"/>
</g>
<!-- GHOST3 X -->
<g id="node5" class="node">
<title>GHOST3 X</title>
<ellipse fill="lightcoral" stroke="black" cx="429.13" cy="-281.3" rx="43.27" ry="43.27"/>
<text text-anchor="middle" x="429.13" y="-279.1" font-family="Times New Roman,serif" font-size="9.00">GHOST3 X</text>
</g>
<!-- GHOST3 Y -->
<g id="node6" class="node">
<title>GHOST3 Y</title>
<ellipse fill="lightcoral" stroke="black" cx="533.13" cy="-281.3" rx="42.35" ry="42.35"/>
<text text-anchor="middle" x="533.13" y="-279.1" font-family="Times New Roman,serif" font-size="9.00">GHOST3 Y</text>
</g>
<!-- GHOST4 X -->
<g id="node7" class="node">
<title>GHOST4 X</title>
<ellipse fill="lightcoral" stroke="black" cx="637.13" cy="-281.3" rx="43.27" ry="43.27"/>
<text text-anchor="middle" x="637.13" y="-279.1" font-family="Times New Roman,serif" font-size="9.00">GHOST4 X</text>
</g>
<!-- DOWN -->
<g id="node27" class="node">
<title>DOWN</title>
<ellipse fill="lightblue" stroke="black" cx="637.13" cy="-142.07" rx="31.64" ry="31.64"/>
<text text-anchor="middle" x="637.13" y="-139.87" font-family="Times New Roman,serif" font-size="9.00">DOWN</text>
</g>
<!-- GHOST4 X&#45;&gt;DOWN -->
<g id="edge6" class="edge">
<title>GHOST4 X&#45;&gt;DOWN</title>
<path fill="none" stroke="green" stroke-width="0.14" d="M637.13,-238.01C637.13,-217.37 637.13,-193 637.13,-174.11"/>
</g>
<!-- GHOST4 Y -->
<g id="node8" class="node">
<title>GHOST4 Y</title>
<ellipse fill="lightcoral" stroke="black" cx="741.13" cy="-281.3" rx="42.35" ry="42.35"/>
<text text-anchor="middle" x="741.13" y="-279.1" font-family="Times New Roman,serif" font-size="9.00">GHOST4 Y</text>
</g>
<!-- GHOST5 X -->
<g id="node9" class="node">
<title>GHOST5 X</title>
<ellipse fill="lightcoral" stroke="black" cx="845.13" cy="-281.3" rx="43.27" ry="43.27"/>
<text text-anchor="middle" x="845.13" y="-279.1" font-family="Times New Roman,serif" font-size="9.00">GHOST5 X</text>
</g>
<!-- GHOST5 Y -->
<g id="node10" class="node">
<title>GHOST5 Y</title>
<ellipse fill="lightcoral" stroke="black" cx="949.13" cy="-281.3" rx="42.35" ry="42.35"/>
<text text-anchor="middle" x="949.13" y="-279.1" font-family="Times New Roman,serif" font-size="9.00">GHOST5 Y</text>
</g>
<!-- GHOST6 X -->
<g id="node11" class="node">
<title>GHOST6 X</title>
<ellipse fill="lightcoral" stroke="black" cx="1053.13" cy="-281.3" rx="43.27" ry="43.27"/>
<text text-anchor="middle" x="1053.13" y="-279.1" font-family="Times New Roman,serif" font-size="9.00">GHOST6 X</text>
</g>
<!-- GHOST6 Y -->
<g id="node12" class="node">
<title>GHOST6 Y</title>
<ellipse fill="lightcoral" stroke="black" cx="1157.13" cy="-281.3" rx="42.35" ry="42.35"/>
<text text-anchor="middle" x="1157.13" y="-279.1" font-family="Times New Roman,serif" font-size="9.00">GHOST6 Y</text>
</g>
<!-- GHOST7 X -->
<g id="node13" class="node">
<title>GHOST7 X</title>
<ellipse fill="lightcoral" stroke="black" cx="1261.13" cy="-281.3" rx="43.27" ry="43.27"/>
<text text-anchor="middle" x="1261.13" y="-279.1" font-family="Times New Roman,serif" font-size="9.00">GHOST7 X</text>
</g>
<!-- GHOST7 Y -->
<g id="node14" class="node">
<title>GHOST7 Y</title>
<ellipse fill="lightcoral" stroke="black" cx="1365.13" cy="-281.3" rx="42.35" ry="42.35"/>
<text text-anchor="middle" x="1365.13" y="-279.1" font-family="Times New Roman,serif" font-size="9.00">GHOST7 Y</text>
</g>
<!-- GHOST8 X -->
<g id="node15" class="node">
<title>GHOST8 X</title>
<ellipse fill="lightcoral" stroke="black" cx="1469.13" cy="-281.3" rx="43.27" ry="43.27"/>
<text text-anchor="middle" x="1469.13" y="-279.1" font-family="Times New Roman,serif" font-size="9.00">GHOST8 X</text>
</g>
<!-- GHOST8 Y -->
<g id="node16" class="node">
<title>GHOST8 Y</title>
<ellipse fill="lightcoral" stroke="black" cx="1573.13" cy="-281.3" rx="42.35" ry="42.35"/>
<text text-anchor="middle" x="1573.13" y="-279.1" font-family="Times New Roman,serif" font-size="9.00">GHOST8 Y</text>
</g>
<!-- LEFT -->
<g id="node29" class="node">
<title>LEFT</title>
<ellipse fill="lightblue" stroke="black" cx="1732.13" cy="-142.07" rx="26.74" ry="26.74"/>
<text text-anchor="middle" x="1732.13" y="-139.87" font-family="Times New Roman,serif" font-size="9.00">LEFT</text>
</g>
<!-- GHOST8 Y&#45;&gt;LEFT -->
<g id="edge9" class="edge">
<title>GHOST8 Y&#45;&gt;LEFT</title>
<path fill="none" stroke="green" stroke-width="0.43" d="M1598.78,-247.34C1606.5,-238.23 1615.29,-228.62 1624.13,-220.49 1651.31,-195.51 1686.7,-171.51 1709.43,-157.03"/>
</g>
<!-- PACMAN X -->
<g id="node17" class="node">
<title>PACMAN X</title>
<ellipse fill="lightcoral" stroke="black" cx="2041.13" cy="-281.3" rx="46.84" ry="46.84"/>
<text text-anchor="middle" x="2041.13" y="-279.1" font-family="Times New Roman,serif" font-size="9.00">PACMAN X</text>
</g>
<!-- PACMAN Y -->
<g id="node18" class="node">
<title>PACMAN Y</title>
<ellipse fill="lightcoral" stroke="black" cx="2152.13" cy="-281.3" rx="45.92" ry="45.92"/>
<text text-anchor="middle" x="2152.13" y="-279.1" font-family="Times New Roman,serif" font-size="9.00">PACMAN Y</text>
</g>
<!-- ND X -->
<g id="node19" class="node">
<title>ND X</title>
<ellipse fill="lightcoral" stroke="black" cx="132.13" cy="-281.3" rx="27.65" ry="27.65"/>
<text text-anchor="middle" x="132.13" y="-279.1" font-family="Times New Roman,serif" font-size="9.00">ND X</text>
</g>
<!-- 38905 -->
<g id="node30" class="node">
<title>38905</title>
<ellipse fill="lightgreen" stroke="black" cx="132.13" cy="-142.07" rx="27.65" ry="27.65"/>
<text text-anchor="middle" x="132.13" y="-139.87" font-family="Times New Roman,serif" font-size="9.00">38905</text>
</g>
<!-- ND X&#45;&gt;38905 -->
<g id="edge7" class="edge">
<title>ND X&#45;&gt;38905</title>
<path fill="none" stroke="green" stroke-width="0.46" d="M132.13,-253.52C132.13,-229.34 132.13,-193.95 132.13,-169.79"/>
</g>
<!-- ND Y -->
<g id="node20" class="node">
<title>ND Y</title>
<ellipse fill="lightcoral" stroke="black" cx="2243.13" cy="-281.3" rx="26.74" ry="26.74"/>
<text text-anchor="middle" x="2243.13" y="-279.1" font-family="Times New Roman,serif" font-size="9.00">ND Y</text>
</g>
<!-- IN_INTERS -->
<g id="node21" class="node">
<title>IN_INTERS</title>
<ellipse fill="lightcoral" stroke="black" cx="1677.13" cy="-281.3" rx="43.68" ry="43.68"/>
<text text-anchor="middle" x="1677.13" y="-279.1" font-family="Times New Roman,serif" font-size="9.00">IN_INTERS</text>
</g>
<!-- IN_INTERS&#45;&gt;LEFT -->
<g id="edge1" class="edge">
<title>IN_INTERS&#45;&gt;LEFT</title>
<path fill="none" stroke="green" stroke-width="2.01" d="M1693.19,-240.24C1702.64,-216.66 1714.28,-187.61 1722.36,-167.45"/>
</g>
<!-- MOVING UP -->
<g id="node22" class="node">
<title>MOVING UP</title>
<ellipse fill="lightcoral" stroke="black" cx="1788.13" cy="-281.3" rx="48.58" ry="48.58"/>
<text text-anchor="middle" x="1788.13" y="-279.1" font-family="Times New Roman,serif" font-size="9.00">MOVING UP</text>
</g>
<!-- MOVING UP&#45;&gt;LEFT -->
<g id="edge2" class="edge">
<title>MOVING UP&#45;&gt;LEFT</title>
<path fill="none" stroke="red" stroke-width="0.19" d="M1769.95,-235.75C1760.69,-213.05 1749.79,-186.33 1742.07,-167.43"/>
</g>
<!-- MOVING DOWN -->
<g id="node23" class="node">
<title>MOVING DOWN</title>
<ellipse fill="lightcoral" stroke="black" cx="1916.13" cy="-281.3" rx="60.62" ry="60.62"/>
<text text-anchor="middle" x="1916.13" y="-279.1" font-family="Times New Roman,serif" font-size="9.00">MOVING DOWN</text>
</g>
<!-- MOVING DOWN&#45;&gt;LEFT -->
<g id="edge3" class="edge">
<title>MOVING DOWN&#45;&gt;LEFT</title>
<path fill="none" stroke="red" stroke-width="0.55" d="M1870.8,-240.31C1862.71,-233.54 1854.27,-226.7 1846.13,-220.49 1815.32,-196.98 1777.85,-172.22 1754.49,-157.21"/>
</g>
<!-- MOVING RIGHT -->
<g id="node24" class="node">
<title>MOVING RIGHT</title>
<ellipse fill="lightcoral" stroke="black" cx="2349.13" cy="-281.3" rx="60.62" ry="60.62"/>
<text text-anchor="middle" x="2349.13" y="-279.1" font-family="Times New Roman,serif" font-size="9.00">MOVING RIGHT</text>
</g>
<!-- MOVING LEFT -->
<g id="node25" class="node">
<title>MOVING LEFT</title>
<ellipse fill="lightcoral" stroke="black" cx="2484.13" cy="-281.3" rx="55.72" ry="55.72"/>
<text text-anchor="middle" x="2484.13" y="-279.1" font-family="Times New Roman,serif" font-size="9.00">MOVING LEFT</text>
</g>
<!-- 38905&#45;&gt;RIGHT -->
<g id="edge8" class="edge">
<title>38905&#45;&gt;RIGHT</title>
<path fill="none" stroke="green" stroke-width="0.75" d="M122.04,-116.23C115.44,-100 106.8,-78.75 99.89,-61.75"/>
</g>
</g>
</svg>
