<?xml version="1.0" encoding="utf-8" standalone="no"?>
<!DOCTYPE svg PUBLIC "-//W3C//DTD SVG 1.1//EN"
  "http://www.w3.org/Graphics/SVG/1.1/DTD/svg11.dtd">
<svg xmlns:xlink="http://www.w3.org/1999/xlink" width="460.8pt" height="345.6pt" viewBox="0 0 460.8 345.6" xmlns="http://www.w3.org/2000/svg" version="1.1">
 <metadata>
  <rdf:RDF xmlns:dc="http://purl.org/dc/elements/1.1/" xmlns:cc="http://creativecommons.org/ns#" xmlns:rdf="http://www.w3.org/1999/02/22-rdf-syntax-ns#">
   <cc:Work>
    <dc:type rdf:resource="http://purl.org/dc/dcmitype/StillImage"/>
    <dc:date>2022-08-02T02:04:12.914262</dc:date>
    <dc:format>image/svg+xml</dc:format>
    <dc:creator>
     <cc:Agent>
      <dc:title>Matplotlib v3.5.2, https://matplotlib.org/</dc:title>
     </cc:Agent>
    </dc:creator>
   </cc:Work>
  </rdf:RDF>
 </metadata>
 <defs>
  <style type="text/css">*{stroke-linejoin: round; stroke-linecap: butt}</style>
 </defs>
 <g id="figure_1">
  <g id="patch_1">
   <path d="M 0 345.6 
L 460.8 345.6 
L 460.8 0 
L 0 0 
z
" style="fill: #ffffff"/>
  </g>
  <g id="axes_1">
   <g id="patch_2">
    <path d="M 57.6 307.584 
L 414.72 307.584 
L 414.72 41.472 
L 57.6 41.472 
z
" style="fill: #ffffff"/>
   </g>
   <g id="matplotlib.axis_1">
    <g id="xtick_1">
     <g id="line2d_1">
      <path d="M 73.832727 307.584 
L 73.832727 41.472 
" clip-path="url(#p1e15c0c417)" style="fill: none; stroke: #b0b0b0; stroke-width: 0.8; stroke-linecap: square"/>
     </g>
     <g id="line2d_2">
      <defs>
       <path id="ma4b31d5ff9" d="M 0 0 
L 0 3.5 
" style="stroke: #000000; stroke-width: 0.8"/>
      </defs>
      <g>
       <use xlink:href="#ma4b31d5ff9" x="73.832727" y="307.584" style="stroke: #000000; stroke-width: 0.8"/>
      </g>
     </g>
     <g id="text_1">
      <!-- 0 -->
      <g transform="translate(70.651477 322.182437)scale(0.1 -0.1)">
       <defs>
        <path id="DejaVuSans-30" d="M 2034 4250 
Q 1547 4250 1301 3770 
Q 1056 3291 1056 2328 
Q 1056 1369 1301 889 
Q 1547 409 2034 409 
Q 2525 409 2770 889 
Q 3016 1369 3016 2328 
Q 3016 3291 2770 3770 
Q 2525 4250 2034 4250 
z
M 2034 4750 
Q 2819 4750 3233 4129 
Q 3647 3509 3647 2328 
Q 3647 1150 3233 529 
Q 2819 -91 2034 -91 
Q 1250 -91 836 529 
Q 422 1150 422 2328 
Q 422 3509 836 4129 
Q 1250 4750 2034 4750 
z
" transform="scale(0.015625)"/>
       </defs>
       <use xlink:href="#DejaVuSans-30"/>
      </g>
     </g>
    </g>
    <g id="xtick_2">
     <g id="line2d_3">
      <path d="M 128.122785 307.584 
L 128.122785 41.472 
" clip-path="url(#p1e15c0c417)" style="fill: none; stroke: #b0b0b0; stroke-width: 0.8; stroke-linecap: square"/>
     </g>
     <g id="line2d_4">
      <g>
       <use xlink:href="#ma4b31d5ff9" x="128.122785" y="307.584" style="stroke: #000000; stroke-width: 0.8"/>
      </g>
     </g>
     <g id="text_2">
      <!-- 50 -->
      <g transform="translate(121.760285 322.182437)scale(0.1 -0.1)">
       <defs>
        <path id="DejaVuSans-35" d="M 691 4666 
L 3169 4666 
L 3169 4134 
L 1269 4134 
L 1269 2991 
Q 1406 3038 1543 3061 
Q 1681 3084 1819 3084 
Q 2600 3084 3056 2656 
Q 3513 2228 3513 1497 
Q 3513 744 3044 326 
Q 2575 -91 1722 -91 
Q 1428 -91 1123 -41 
Q 819 9 494 109 
L 494 744 
Q 775 591 1075 516 
Q 1375 441 1709 441 
Q 2250 441 2565 725 
Q 2881 1009 2881 1497 
Q 2881 1984 2565 2268 
Q 2250 2553 1709 2553 
Q 1456 2553 1204 2497 
Q 953 2441 691 2322 
L 691 4666 
z
" transform="scale(0.015625)"/>
       </defs>
       <use xlink:href="#DejaVuSans-35"/>
       <use xlink:href="#DejaVuSans-30" x="63.623047"/>
      </g>
     </g>
    </g>
    <g id="xtick_3">
     <g id="line2d_5">
      <path d="M 182.412843 307.584 
L 182.412843 41.472 
" clip-path="url(#p1e15c0c417)" style="fill: none; stroke: #b0b0b0; stroke-width: 0.8; stroke-linecap: square"/>
     </g>
     <g id="line2d_6">
      <g>
       <use xlink:href="#ma4b31d5ff9" x="182.412843" y="307.584" style="stroke: #000000; stroke-width: 0.8"/>
      </g>
     </g>
     <g id="text_3">
      <!-- 100 -->
      <g transform="translate(172.869093 322.182437)scale(0.1 -0.1)">
       <defs>
        <path id="DejaVuSans-31" d="M 794 531 
L 1825 531 
L 1825 4091 
L 703 3866 
L 703 4441 
L 1819 4666 
L 2450 4666 
L 2450 531 
L 3481 531 
L 3481 0 
L 794 0 
L 794 531 
z
" transform="scale(0.015625)"/>
       </defs>
       <use xlink:href="#DejaVuSans-31"/>
       <use xlink:href="#DejaVuSans-30" x="63.623047"/>
       <use xlink:href="#DejaVuSans-30" x="127.246094"/>
      </g>
     </g>
    </g>
    <g id="xtick_4">
     <g id="line2d_7">
      <path d="M 236.702901 307.584 
L 236.702901 41.472 
" clip-path="url(#p1e15c0c417)" style="fill: none; stroke: #b0b0b0; stroke-width: 0.8; stroke-linecap: square"/>
     </g>
     <g id="line2d_8">
      <g>
       <use xlink:href="#ma4b31d5ff9" x="236.702901" y="307.584" style="stroke: #000000; stroke-width: 0.8"/>
      </g>
     </g>
     <g id="text_4">
      <!-- 150 -->
      <g transform="translate(227.159151 322.182437)scale(0.1 -0.1)">
       <use xlink:href="#DejaVuSans-31"/>
       <use xlink:href="#DejaVuSans-35" x="63.623047"/>
       <use xlink:href="#DejaVuSans-30" x="127.246094"/>
      </g>
     </g>
    </g>
    <g id="xtick_5">
     <g id="line2d_9">
      <path d="M 290.992958 307.584 
L 290.992958 41.472 
" clip-path="url(#p1e15c0c417)" style="fill: none; stroke: #b0b0b0; stroke-width: 0.8; stroke-linecap: square"/>
     </g>
     <g id="line2d_10">
      <g>
       <use xlink:href="#ma4b31d5ff9" x="290.992958" y="307.584" style="stroke: #000000; stroke-width: 0.8"/>
      </g>
     </g>
     <g id="text_5">
      <!-- 200 -->
      <g transform="translate(281.449208 322.182437)scale(0.1 -0.1)">
       <defs>
        <path id="DejaVuSans-32" d="M 1228 531 
L 3431 531 
L 3431 0 
L 469 0 
L 469 531 
Q 828 903 1448 1529 
Q 2069 2156 2228 2338 
Q 2531 2678 2651 2914 
Q 2772 3150 2772 3378 
Q 2772 3750 2511 3984 
Q 2250 4219 1831 4219 
Q 1534 4219 1204 4116 
Q 875 4013 500 3803 
L 500 4441 
Q 881 4594 1212 4672 
Q 1544 4750 1819 4750 
Q 2544 4750 2975 4387 
Q 3406 4025 3406 3419 
Q 3406 3131 3298 2873 
Q 3191 2616 2906 2266 
Q 2828 2175 2409 1742 
Q 1991 1309 1228 531 
z
" transform="scale(0.015625)"/>
       </defs>
       <use xlink:href="#DejaVuSans-32"/>
       <use xlink:href="#DejaVuSans-30" x="63.623047"/>
       <use xlink:href="#DejaVuSans-30" x="127.246094"/>
      </g>
     </g>
    </g>
    <g id="xtick_6">
     <g id="line2d_11">
      <path d="M 345.283016 307.584 
L 345.283016 41.472 
" clip-path="url(#p1e15c0c417)" style="fill: none; stroke: #b0b0b0; stroke-width: 0.8; stroke-linecap: square"/>
     </g>
     <g id="line2d_12">
      <g>
       <use xlink:href="#ma4b31d5ff9" x="345.283016" y="307.584" style="stroke: #000000; stroke-width: 0.8"/>
      </g>
     </g>
     <g id="text_6">
      <!-- 250 -->
      <g transform="translate(335.739266 322.182437)scale(0.1 -0.1)">
       <use xlink:href="#DejaVuSans-32"/>
       <use xlink:href="#DejaVuSans-35" x="63.623047"/>
       <use xlink:href="#DejaVuSans-30" x="127.246094"/>
      </g>
     </g>
    </g>
    <g id="xtick_7">
     <g id="line2d_13">
      <path d="M 399.573074 307.584 
L 399.573074 41.472 
" clip-path="url(#p1e15c0c417)" style="fill: none; stroke: #b0b0b0; stroke-width: 0.8; stroke-linecap: square"/>
     </g>
     <g id="line2d_14">
      <g>
       <use xlink:href="#ma4b31d5ff9" x="399.573074" y="307.584" style="stroke: #000000; stroke-width: 0.8"/>
      </g>
     </g>
     <g id="text_7">
      <!-- 300 -->
      <g transform="translate(390.029324 322.182437)scale(0.1 -0.1)">
       <defs>
        <path id="DejaVuSans-33" d="M 2597 2516 
Q 3050 2419 3304 2112 
Q 3559 1806 3559 1356 
Q 3559 666 3084 287 
Q 2609 -91 1734 -91 
Q 1441 -91 1130 -33 
Q 819 25 488 141 
L 488 750 
Q 750 597 1062 519 
Q 1375 441 1716 441 
Q 2309 441 2620 675 
Q 2931 909 2931 1356 
Q 2931 1769 2642 2001 
Q 2353 2234 1838 2234 
L 1294 2234 
L 1294 2753 
L 1863 2753 
Q 2328 2753 2575 2939 
Q 2822 3125 2822 3475 
Q 2822 3834 2567 4026 
Q 2313 4219 1838 4219 
Q 1578 4219 1281 4162 
Q 984 4106 628 3988 
L 628 4550 
Q 988 4650 1302 4700 
Q 1616 4750 1894 4750 
Q 2613 4750 3031 4423 
Q 3450 4097 3450 3541 
Q 3450 3153 3228 2886 
Q 3006 2619 2597 2516 
z
" transform="scale(0.015625)"/>
       </defs>
       <use xlink:href="#DejaVuSans-33"/>
       <use xlink:href="#DejaVuSans-30" x="63.623047"/>
       <use xlink:href="#DejaVuSans-30" x="127.246094"/>
      </g>
     </g>
    </g>
    <g id="text_8">
     <!-- Generations -->
     <g transform="translate(205.662344 335.860562)scale(0.1 -0.1)">
      <defs>
       <path id="DejaVuSans-47" d="M 3809 666 
L 3809 1919 
L 2778 1919 
L 2778 2438 
L 4434 2438 
L 4434 434 
Q 4069 175 3628 42 
Q 3188 -91 2688 -91 
Q 1594 -91 976 548 
Q 359 1188 359 2328 
Q 359 3472 976 4111 
Q 1594 4750 2688 4750 
Q 3144 4750 3555 4637 
Q 3966 4525 4313 4306 
L 4313 3634 
Q 3963 3931 3569 4081 
Q 3175 4231 2741 4231 
Q 1884 4231 1454 3753 
Q 1025 3275 1025 2328 
Q 1025 1384 1454 906 
Q 1884 428 2741 428 
Q 3075 428 3337 486 
Q 3600 544 3809 666 
z
" transform="scale(0.015625)"/>
       <path id="DejaVuSans-65" d="M 3597 1894 
L 3597 1613 
L 953 1613 
Q 991 1019 1311 708 
Q 1631 397 2203 397 
Q 2534 397 2845 478 
Q 3156 559 3463 722 
L 3463 178 
Q 3153 47 2828 -22 
Q 2503 -91 2169 -91 
Q 1331 -91 842 396 
Q 353 884 353 1716 
Q 353 2575 817 3079 
Q 1281 3584 2069 3584 
Q 2775 3584 3186 3129 
Q 3597 2675 3597 1894 
z
M 3022 2063 
Q 3016 2534 2758 2815 
Q 2500 3097 2075 3097 
Q 1594 3097 1305 2825 
Q 1016 2553 972 2059 
L 3022 2063 
z
" transform="scale(0.015625)"/>
       <path id="DejaVuSans-6e" d="M 3513 2113 
L 3513 0 
L 2938 0 
L 2938 2094 
Q 2938 2591 2744 2837 
Q 2550 3084 2163 3084 
Q 1697 3084 1428 2787 
Q 1159 2491 1159 1978 
L 1159 0 
L 581 0 
L 581 3500 
L 1159 3500 
L 1159 2956 
Q 1366 3272 1645 3428 
Q 1925 3584 2291 3584 
Q 2894 3584 3203 3211 
Q 3513 2838 3513 2113 
z
" transform="scale(0.015625)"/>
       <path id="DejaVuSans-72" d="M 2631 2963 
Q 2534 3019 2420 3045 
Q 2306 3072 2169 3072 
Q 1681 3072 1420 2755 
Q 1159 2438 1159 1844 
L 1159 0 
L 581 0 
L 581 3500 
L 1159 3500 
L 1159 2956 
Q 1341 3275 1631 3429 
Q 1922 3584 2338 3584 
Q 2397 3584 2469 3576 
Q 2541 3569 2628 3553 
L 2631 2963 
z
" transform="scale(0.015625)"/>
       <path id="DejaVuSans-61" d="M 2194 1759 
Q 1497 1759 1228 1600 
Q 959 1441 959 1056 
Q 959 750 1161 570 
Q 1363 391 1709 391 
Q 2188 391 2477 730 
Q 2766 1069 2766 1631 
L 2766 1759 
L 2194 1759 
z
M 3341 1997 
L 3341 0 
L 2766 0 
L 2766 531 
Q 2569 213 2275 61 
Q 1981 -91 1556 -91 
Q 1019 -91 701 211 
Q 384 513 384 1019 
Q 384 1609 779 1909 
Q 1175 2209 1959 2209 
L 2766 2209 
L 2766 2266 
Q 2766 2663 2505 2880 
Q 2244 3097 1772 3097 
Q 1472 3097 1187 3025 
Q 903 2953 641 2809 
L 641 3341 
Q 956 3463 1253 3523 
Q 1550 3584 1831 3584 
Q 2591 3584 2966 3190 
Q 3341 2797 3341 1997 
z
" transform="scale(0.015625)"/>
       <path id="DejaVuSans-74" d="M 1172 4494 
L 1172 3500 
L 2356 3500 
L 2356 3053 
L 1172 3053 
L 1172 1153 
Q 1172 725 1289 603 
Q 1406 481 1766 481 
L 2356 481 
L 2356 0 
L 1766 0 
Q 1100 0 847 248 
Q 594 497 594 1153 
L 594 3053 
L 172 3053 
L 172 3500 
L 594 3500 
L 594 4494 
L 1172 4494 
z
" transform="scale(0.015625)"/>
       <path id="DejaVuSans-69" d="M 603 3500 
L 1178 3500 
L 1178 0 
L 603 0 
L 603 3500 
z
M 603 4863 
L 1178 4863 
L 1178 4134 
L 603 4134 
L 603 4863 
z
" transform="scale(0.015625)"/>
       <path id="DejaVuSans-6f" d="M 1959 3097 
Q 1497 3097 1228 2736 
Q 959 2375 959 1747 
Q 959 1119 1226 758 
Q 1494 397 1959 397 
Q 2419 397 2687 759 
Q 2956 1122 2956 1747 
Q 2956 2369 2687 2733 
Q 2419 3097 1959 3097 
z
M 1959 3584 
Q 2709 3584 3137 3096 
Q 3566 2609 3566 1747 
Q 3566 888 3137 398 
Q 2709 -91 1959 -91 
Q 1206 -91 779 398 
Q 353 888 353 1747 
Q 353 2609 779 3096 
Q 1206 3584 1959 3584 
z
" transform="scale(0.015625)"/>
       <path id="DejaVuSans-73" d="M 2834 3397 
L 2834 2853 
Q 2591 2978 2328 3040 
Q 2066 3103 1784 3103 
Q 1356 3103 1142 2972 
Q 928 2841 928 2578 
Q 928 2378 1081 2264 
Q 1234 2150 1697 2047 
L 1894 2003 
Q 2506 1872 2764 1633 
Q 3022 1394 3022 966 
Q 3022 478 2636 193 
Q 2250 -91 1575 -91 
Q 1294 -91 989 -36 
Q 684 19 347 128 
L 347 722 
Q 666 556 975 473 
Q 1284 391 1588 391 
Q 1994 391 2212 530 
Q 2431 669 2431 922 
Q 2431 1156 2273 1281 
Q 2116 1406 1581 1522 
L 1381 1569 
Q 847 1681 609 1914 
Q 372 2147 372 2553 
Q 372 3047 722 3315 
Q 1072 3584 1716 3584 
Q 2034 3584 2315 3537 
Q 2597 3491 2834 3397 
z
" transform="scale(0.015625)"/>
      </defs>
      <use xlink:href="#DejaVuSans-47"/>
      <use xlink:href="#DejaVuSans-65" x="77.490234"/>
      <use xlink:href="#DejaVuSans-6e" x="139.013672"/>
      <use xlink:href="#DejaVuSans-65" x="202.392578"/>
      <use xlink:href="#DejaVuSans-72" x="263.916016"/>
      <use xlink:href="#DejaVuSans-61" x="305.029297"/>
      <use xlink:href="#DejaVuSans-74" x="366.308594"/>
      <use xlink:href="#DejaVuSans-69" x="405.517578"/>
      <use xlink:href="#DejaVuSans-6f" x="433.300781"/>
      <use xlink:href="#DejaVuSans-6e" x="494.482422"/>
      <use xlink:href="#DejaVuSans-73" x="557.861328"/>
     </g>
    </g>
   </g>
   <g id="matplotlib.axis_2">
    <g id="ytick_1">
     <g id="line2d_15">
      <path d="M 57.6 293.363102 
L 414.72 293.363102 
" clip-path="url(#p1e15c0c417)" style="fill: none; stroke: #b0b0b0; stroke-width: 0.8; stroke-linecap: square"/>
     </g>
     <g id="line2d_16">
      <defs>
       <path id="m4a2fcaefed" d="M 0 0 
L -3.5 0 
" style="stroke: #000000; stroke-width: 0.8"/>
      </defs>
      <g>
       <use xlink:href="#m4a2fcaefed" x="57.6" y="293.363102" style="stroke: #000000; stroke-width: 0.8"/>
      </g>
     </g>
     <g id="text_9">
      <!-- 0 -->
      <g transform="translate(44.2375 297.16232)scale(0.1 -0.1)">
       <use xlink:href="#DejaVuSans-30"/>
      </g>
     </g>
    </g>
    <g id="ytick_2">
     <g id="line2d_17">
      <path d="M 57.6 260.782245 
L 414.72 260.782245 
" clip-path="url(#p1e15c0c417)" style="fill: none; stroke: #b0b0b0; stroke-width: 0.8; stroke-linecap: square"/>
     </g>
     <g id="line2d_18">
      <g>
       <use xlink:href="#m4a2fcaefed" x="57.6" y="260.782245" style="stroke: #000000; stroke-width: 0.8"/>
      </g>
     </g>
     <g id="text_10">
      <!-- 25 -->
      <g transform="translate(37.875 264.581464)scale(0.1 -0.1)">
       <use xlink:href="#DejaVuSans-32"/>
       <use xlink:href="#DejaVuSans-35" x="63.623047"/>
      </g>
     </g>
    </g>
    <g id="ytick_3">
     <g id="line2d_19">
      <path d="M 57.6 228.201389 
L 414.72 228.201389 
" clip-path="url(#p1e15c0c417)" style="fill: none; stroke: #b0b0b0; stroke-width: 0.8; stroke-linecap: square"/>
     </g>
     <g id="line2d_20">
      <g>
       <use xlink:href="#m4a2fcaefed" x="57.6" y="228.201389" style="stroke: #000000; stroke-width: 0.8"/>
      </g>
     </g>
     <g id="text_11">
      <!-- 50 -->
      <g transform="translate(37.875 232.000608)scale(0.1 -0.1)">
       <use xlink:href="#DejaVuSans-35"/>
       <use xlink:href="#DejaVuSans-30" x="63.623047"/>
      </g>
     </g>
    </g>
    <g id="ytick_4">
     <g id="line2d_21">
      <path d="M 57.6 195.620533 
L 414.72 195.620533 
" clip-path="url(#p1e15c0c417)" style="fill: none; stroke: #b0b0b0; stroke-width: 0.8; stroke-linecap: square"/>
     </g>
     <g id="line2d_22">
      <g>
       <use xlink:href="#m4a2fcaefed" x="57.6" y="195.620533" style="stroke: #000000; stroke-width: 0.8"/>
      </g>
     </g>
     <g id="text_12">
      <!-- 75 -->
      <g transform="translate(37.875 199.419752)scale(0.1 -0.1)">
       <defs>
        <path id="DejaVuSans-37" d="M 525 4666 
L 3525 4666 
L 3525 4397 
L 1831 0 
L 1172 0 
L 2766 4134 
L 525 4134 
L 525 4666 
z
" transform="scale(0.015625)"/>
       </defs>
       <use xlink:href="#DejaVuSans-37"/>
       <use xlink:href="#DejaVuSans-35" x="63.623047"/>
      </g>
     </g>
    </g>
    <g id="ytick_5">
     <g id="line2d_23">
      <path d="M 57.6 163.039677 
L 414.72 163.039677 
" clip-path="url(#p1e15c0c417)" style="fill: none; stroke: #b0b0b0; stroke-width: 0.8; stroke-linecap: square"/>
     </g>
     <g id="line2d_24">
      <g>
       <use xlink:href="#m4a2fcaefed" x="57.6" y="163.039677" style="stroke: #000000; stroke-width: 0.8"/>
      </g>
     </g>
     <g id="text_13">
      <!-- 100 -->
      <g transform="translate(31.5125 166.838896)scale(0.1 -0.1)">
       <use xlink:href="#DejaVuSans-31"/>
       <use xlink:href="#DejaVuSans-30" x="63.623047"/>
       <use xlink:href="#DejaVuSans-30" x="127.246094"/>
      </g>
     </g>
    </g>
    <g id="ytick_6">
     <g id="line2d_25">
      <path d="M 57.6 130.458821 
L 414.72 130.458821 
" clip-path="url(#p1e15c0c417)" style="fill: none; stroke: #b0b0b0; stroke-width: 0.8; stroke-linecap: square"/>
     </g>
     <g id="line2d_26">
      <g>
       <use xlink:href="#m4a2fcaefed" x="57.6" y="130.458821" style="stroke: #000000; stroke-width: 0.8"/>
      </g>
     </g>
     <g id="text_14">
      <!-- 125 -->
      <g transform="translate(31.5125 134.258039)scale(0.1 -0.1)">
       <use xlink:href="#DejaVuSans-31"/>
       <use xlink:href="#DejaVuSans-32" x="63.623047"/>
       <use xlink:href="#DejaVuSans-35" x="127.246094"/>
      </g>
     </g>
    </g>
    <g id="ytick_7">
     <g id="line2d_27">
      <path d="M 57.6 97.877964 
L 414.72 97.877964 
" clip-path="url(#p1e15c0c417)" style="fill: none; stroke: #b0b0b0; stroke-width: 0.8; stroke-linecap: square"/>
     </g>
     <g id="line2d_28">
      <g>
       <use xlink:href="#m4a2fcaefed" x="57.6" y="97.877964" style="stroke: #000000; stroke-width: 0.8"/>
      </g>
     </g>
     <g id="text_15">
      <!-- 150 -->
      <g transform="translate(31.5125 101.677183)scale(0.1 -0.1)">
       <use xlink:href="#DejaVuSans-31"/>
       <use xlink:href="#DejaVuSans-35" x="63.623047"/>
       <use xlink:href="#DejaVuSans-30" x="127.246094"/>
      </g>
     </g>
    </g>
    <g id="ytick_8">
     <g id="line2d_29">
      <path d="M 57.6 65.297108 
L 414.72 65.297108 
" clip-path="url(#p1e15c0c417)" style="fill: none; stroke: #b0b0b0; stroke-width: 0.8; stroke-linecap: square"/>
     </g>
     <g id="line2d_30">
      <g>
       <use xlink:href="#m4a2fcaefed" x="57.6" y="65.297108" style="stroke: #000000; stroke-width: 0.8"/>
      </g>
     </g>
     <g id="text_16">
      <!-- 175 -->
      <g transform="translate(31.5125 69.096327)scale(0.1 -0.1)">
       <use xlink:href="#DejaVuSans-31"/>
       <use xlink:href="#DejaVuSans-37" x="63.623047"/>
       <use xlink:href="#DejaVuSans-35" x="127.246094"/>
      </g>
     </g>
    </g>
    <g id="text_17">
     <!-- Fitness -->
     <g transform="translate(25.432812 191.845187)rotate(-90)scale(0.1 -0.1)">
      <defs>
       <path id="DejaVuSans-46" d="M 628 4666 
L 3309 4666 
L 3309 4134 
L 1259 4134 
L 1259 2759 
L 3109 2759 
L 3109 2228 
L 1259 2228 
L 1259 0 
L 628 0 
L 628 4666 
z
" transform="scale(0.015625)"/>
      </defs>
      <use xlink:href="#DejaVuSans-46"/>
      <use xlink:href="#DejaVuSans-69" x="50.269531"/>
      <use xlink:href="#DejaVuSans-74" x="78.052734"/>
      <use xlink:href="#DejaVuSans-6e" x="117.261719"/>
      <use xlink:href="#DejaVuSans-65" x="180.640625"/>
      <use xlink:href="#DejaVuSans-73" x="242.164062"/>
      <use xlink:href="#DejaVuSans-73" x="294.263672"/>
     </g>
    </g>
   </g>
   <g id="line2d_31">
    <path d="M 73.832727 249.113955 
L 74.918528 240.95042 
L 77.090131 247.439198 
L 78.175932 236.372325 
L 79.261733 243.891984 
L 80.347534 244.83273 
L 81.433335 243.88307 
L 82.519137 237.723687 
L 83.604938 242.719419 
L 84.690739 239.21415 
L 85.77654 237.04414 
L 86.862341 241.924708 
L 87.948142 235.377866 
L 89.033943 239.669851 
L 90.119745 248.092859 
L 91.205546 236.83208 
L 92.291347 245.760299 
L 93.377148 245.777675 
L 94.462949 244.239859 
L 95.54875 243.700256 
L 96.634552 244.474441 
L 97.720353 240.808009 
L 98.806154 238.957416 
L 99.891955 237.471729 
L 100.977756 243.032195 
L 102.063557 247.05018 
L 103.149358 243.570865 
L 104.23516 242.312568 
L 105.320961 241.501283 
L 106.406762 237.975646 
L 107.492563 244.128836 
L 108.578364 237.376863 
L 109.664165 245.222153 
L 111.835768 246.34241 
L 112.921569 244.52243 
L 114.00737 246.88108 
L 115.093171 246.272904 
L 116.178972 241.130163 
L 117.264773 234.988703 
L 118.350575 245.125941 
L 119.436376 242.764376 
L 120.522177 241.260149 
L 121.607978 241.477002 
L 122.693779 253.996739 
L 123.77958 242.232878 
L 124.865382 242.799362 
L 125.951183 239.000857 
L 127.036984 238.307928 
L 128.122785 249.979119 
L 129.208586 247.767051 
L 130.294387 235.447372 
L 131.380189 242.279749 
L 132.46599 241.936792 
L 133.551791 234.812498 
L 134.637592 245.0234 
L 135.723393 241.285516 
L 136.809194 249.303427 
L 137.894995 240.992072 
L 138.980797 240.146265 
L 140.066598 240.755879 
L 141.152399 244.896416 
L 142.2382 238.566848 
L 143.324001 239.687227 
L 144.409802 244.749035 
L 145.495604 238.8344 
L 146.581405 239.707576 
L 147.667206 239.46444 
L 148.753007 231.567358 
L 149.838808 243.434558 
L 150.924609 241.977188 
L 152.01041 237.66287 
L 153.096212 240.434415 
L 154.182013 233.519285 
L 155.267814 240.026709 
L 156.353615 234.227754 
L 157.439416 238.583822 
L 158.525217 232.542627 
L 159.611019 235.744613 
L 160.69682 236.495483 
L 161.782621 234.866252 
L 162.868422 240.512609 
L 163.954223 235.890471 
L 165.040024 229.6697 
L 166.125825 239.339698 
L 167.211627 245.493296 
L 168.297428 241.989608 
L 169.383229 242.650671 
L 170.46903 238.861845 
L 171.554831 233.886639 
L 172.640632 236.967812 
L 173.726434 234.265773 
L 174.812235 242.416136 
L 175.898036 238.801028 
L 176.983837 239.458184 
L 178.069638 244.394955 
L 179.155439 236.423136 
L 180.24124 234.561172 
L 181.327042 238.192852 
L 182.412843 237.228458 
L 183.498644 239.000857 
L 184.584445 241.225158 
L 185.670246 240.750413 
L 186.756047 232.899892 
L 187.841849 231.928639 
L 188.92765 240.344771 
L 190.013451 239.055844 
L 191.099252 243.58128 
L 192.185053 240.437797 
L 193.270854 234.297727 
L 194.356656 239.230774 
L 195.442457 234.630678 
L 196.528258 233.120883 
L 197.614059 239.765421 
L 198.69986 235.600673 
L 199.785661 238.112829 
L 200.871462 235.55163 
L 201.957264 242.667289 
L 203.043065 233.83416 
L 204.128866 236.449375 
L 205.214667 227.010354 
L 206.300468 231.624551 
L 207.386269 230.920805 
L 208.472071 232.093481 
L 209.557872 242.398875 
L 210.643673 238.079905 
L 211.729474 235.658306 
L 212.815275 236.737142 
L 213.901076 237.454352 
L 214.986877 233.709726 
L 216.072679 231.754875 
L 217.15848 240.034756 
L 218.244281 240.668997 
L 219.330082 241.644819 
L 220.415883 242.258943 
L 221.501684 239.27888 
L 222.587486 239.209375 
L 223.673287 235.364919 
L 224.759088 225.628992 
L 225.844889 235.875038 
L 226.93069 236.235142 
L 228.016491 238.913975 
L 229.102292 243.336283 
L 230.188094 242.293696 
L 231.273895 236.324883 
L 232.359696 235.399385 
L 233.445497 238.277402 
L 234.531298 245.464899 
L 235.617099 239.775145 
L 236.702901 240.741782 
L 237.788702 240.122921 
L 238.874503 237.621411 
L 239.960304 236.531522 
L 241.046105 236.624306 
L 242.131906 238.111217 
L 244.303509 242.813148 
L 245.38931 249.365913 
L 246.475111 245.629975 
L 247.560912 245.362098 
L 248.646713 240.599726 
L 249.732514 239.701551 
L 250.818316 241.128064 
L 251.904117 238.653155 
L 252.989918 248.135729 
L 254.075719 242.80102 
L 255.16152 242.675057 
L 256.247321 240.276254 
L 257.333123 238.809716 
L 258.418924 239.771996 
L 259.504725 238.541524 
L 260.590526 242.666426 
L 261.676327 240.731177 
L 262.762128 242.119931 
L 263.847929 236.895334 
L 264.933731 239.388212 
L 266.019532 234.358952 
L 267.105333 239.973939 
L 268.191134 238.446019 
L 269.276935 239.447179 
L 270.362736 239.481702 
L 271.448538 228.653177 
L 272.534339 237.037317 
L 273.62014 231.615863 
L 274.705941 236.133742 
L 275.791742 233.831361 
L 276.877543 237.857568 
L 277.963344 236.484361 
L 279.049146 240.990461 
L 280.134947 248.846001 
L 281.220748 248.239709 
L 282.306549 240.695062 
L 283.39235 244.306258 
L 284.478151 238.262358 
L 285.563953 234.265773 
L 286.649754 236.820112 
L 288.821356 243.166717 
L 289.907157 243.469081 
L 290.992958 244.358042 
L 292.07876 239.073337 
L 293.164561 246.297978 
L 294.250362 243.292842 
L 295.336163 239.843615 
L 296.421964 237.211082 
L 297.507765 243.023507 
L 298.593566 245.298787 
L 299.679368 245.847181 
L 300.765169 241.3373 
L 301.85097 240.22788 
L 302.936771 237.66287 
L 305.108373 239.896202 
L 306.194175 236.568153 
L 308.365777 237.506482 
L 309.451578 247.198871 
L 310.537379 240.4656 
L 311.62318 232.084852 
L 312.708981 239.009545 
L 313.794783 243.153361 
L 314.880584 228.985091 
L 315.966385 244.330006 
L 317.052186 237.132888 
L 318.137987 239.626409 
L 319.223788 238.515064 
L 320.30959 243.028915 
L 321.395391 243.883641 
L 322.481192 245.868412 
L 323.566993 240.560538 
L 324.652794 241.469888 
L 325.738595 235.681954 
L 327.910198 242.102555 
L 328.995999 239.782798 
L 330.0818 241.728961 
L 331.167601 239.424637 
L 332.253402 234.882637 
L 333.339203 247.499613 
L 334.425005 249.053137 
L 335.510806 246.748743 
L 336.596607 243.040883 
L 337.682408 236.738011 
L 338.768209 240.364909 
L 339.85401 235.19862 
L 340.939811 237.58295 
L 342.025613 233.205809 
L 343.111414 238.782616 
L 344.197215 237.132888 
L 345.283016 235.238854 
L 346.368817 231.757234 
L 347.454618 243.051401 
L 348.54042 234.048567 
L 349.626221 240.819459 
L 350.712022 235.822289 
L 351.797823 239.801037 
L 352.883624 236.806188 
L 353.969425 235.708019 
L 355.055227 229.843464 
L 356.141028 238.757587 
L 357.226829 238.273405 
L 358.31263 238.34245 
L 359.398431 242.370782 
L 360.484232 228.437546 
L 361.570033 231.563734 
L 362.655835 239.200686 
L 363.741636 238.898406 
L 364.827437 243.047693 
L 366.999039 232.592152 
L 368.08484 235.303579 
L 369.170642 237.367762 
L 371.342244 242.528278 
L 372.428045 240.094481 
L 373.513846 234.674119 
L 374.599647 243.483983 
L 375.685448 234.639366 
L 376.77125 242.432008 
L 377.857051 234.257084 
L 378.942852 235.447372 
L 380.028653 234.374604 
L 381.114454 234.5881 
L 382.200255 237.455227 
L 383.286057 238.143945 
L 384.371858 237.039216 
L 385.457659 238.310029 
L 386.54346 232.779857 
L 387.629261 236.395581 
L 388.715062 234.743453 
L 389.800863 228.450033 
L 390.886665 239.265761 
L 391.972466 233.345281 
L 393.058267 233.440391 
L 394.144068 237.096619 
L 395.229869 234.428925 
L 396.31567 237.454352 
L 397.401472 238.722201 
L 398.487273 238.140722 
L 398.487273 238.140722 
" clip-path="url(#p1e15c0c417)" style="fill: none; stroke: #0000ff; stroke-width: 1.5; stroke-linecap: square"/>
   </g>
   <g id="line2d_32">
    <path d="M 73.832727 294.39088 
L 74.918528 286.322501 
L 76.00433 289.297085 
L 77.090131 294.16217 
L 78.175932 285.061037 
L 79.261733 287.243185 
L 80.347534 287.267922 
L 81.433335 286.594262 
L 82.519137 282.211136 
L 83.604938 284.874976 
L 84.690739 284.548884 
L 85.77654 283.272215 
L 86.862341 285.85503 
L 87.948142 281.341898 
L 89.033943 287.776438 
L 90.119745 291.616308 
L 91.205546 283.963724 
L 92.291347 285.786835 
L 93.377148 290.462139 
L 94.462949 285.765395 
L 95.54875 286.217747 
L 96.634552 289.900518 
L 97.720353 289.343526 
L 98.806154 287.319919 
L 99.891955 284.572313 
L 100.977756 289.847801 
L 103.149358 287.80725 
L 105.320961 286.484484 
L 106.406762 281.567549 
L 107.492563 287.086862 
L 108.578364 281.380388 
L 109.664165 288.811414 
L 110.749967 291.205898 
L 111.835768 290.304378 
L 112.921569 291.531481 
L 114.00737 288.379264 
L 115.093171 290.189556 
L 116.178972 286.869202 
L 117.264773 284.135056 
L 118.350575 288.818312 
L 119.436376 287.255008 
L 120.522177 288.213372 
L 121.607978 286.091893 
L 122.693779 295.488 
L 123.77958 285.609614 
L 124.865382 286.978703 
L 125.951183 285.975498 
L 127.036984 289.026501 
L 128.122785 290.810651 
L 129.208586 291.18775 
L 130.294387 283.882935 
L 131.380189 286.95713 
L 132.46599 286.960431 
L 133.551791 282.482877 
L 134.637592 290.037476 
L 135.723393 285.689526 
L 136.809194 288.362379 
L 137.894995 287.35028 
L 138.980797 284.237748 
L 140.066598 283.058474 
L 141.152399 287.948874 
L 142.2382 284.645905 
L 143.324001 286.341894 
L 144.409802 285.606667 
L 145.495604 283.94763 
L 146.581405 288.214834 
L 147.667206 287.96828 
L 148.753007 279.183499 
L 149.838808 287.766648 
L 150.924609 284.868137 
L 152.01041 286.481691 
L 153.096212 285.691192 
L 154.182013 281.366856 
L 155.267814 283.889136 
L 156.353615 282.566647 
L 157.439416 285.060261 
L 158.525217 279.358914 
L 159.611019 282.37165 
L 160.69682 283.41323 
L 161.782621 282.896202 
L 162.868422 286.477082 
L 163.954223 284.783761 
L 165.040024 277.842685 
L 166.125825 285.922763 
L 167.211627 291.69623 
L 168.297428 286.989582 
L 169.383229 286.349549 
L 170.46903 287.679423 
L 171.554831 286.352152 
L 172.640632 279.471872 
L 173.726434 275.540523 
L 174.812235 288.500566 
L 175.898036 284.178456 
L 176.983837 287.138152 
L 178.069638 287.419584 
L 179.155439 282.726931 
L 180.24124 279.452733 
L 182.412843 285.396461 
L 183.498644 285.856273 
L 184.584445 281.784828 
L 185.670246 288.27724 
L 186.756047 280.258219 
L 187.841849 280.044648 
L 188.92765 284.580136 
L 190.013451 285.172549 
L 191.099252 288.930483 
L 192.185053 287.156704 
L 193.270854 276.637132 
L 194.356656 284.849726 
L 195.442457 279.74434 
L 196.528258 279.902909 
L 197.614059 285.785474 
L 198.69986 281.573198 
L 199.785661 281.849974 
L 200.871462 279.87112 
L 201.957264 285.150794 
L 203.043065 281.494294 
L 204.128866 284.926953 
L 205.214667 274.591423 
L 207.386269 275.196498 
L 208.472071 277.210866 
L 209.557872 286.995051 
L 210.643673 284.072879 
L 211.729474 280.013725 
L 212.815275 282.622797 
L 213.901076 286.668488 
L 214.986877 280.219951 
L 216.072679 278.942969 
L 218.244281 286.681451 
L 219.330082 286.862354 
L 220.415883 290.824333 
L 221.501684 284.053465 
L 222.587486 281.914788 
L 223.673287 282.793912 
L 224.759088 273.039451 
L 225.844889 278.222381 
L 226.93069 282.063027 
L 228.016491 282.279081 
L 229.102292 288.735694 
L 230.188094 286.952217 
L 231.273895 284.900724 
L 232.359696 282.016344 
L 233.445497 283.226053 
L 234.531298 287.534392 
L 235.617099 287.412675 
L 236.702901 283.087564 
L 237.788702 285.836688 
L 238.874503 280.983853 
L 239.960304 284.093331 
L 241.046105 284.520691 
L 242.131906 281.909076 
L 243.217708 286.384665 
L 244.303509 289.287963 
L 246.475111 289.757763 
L 247.560912 291.616263 
L 248.646713 286.004253 
L 249.732514 286.807343 
L 250.818316 289.36903 
L 251.904117 281.776104 
L 252.989918 291.333218 
L 254.075719 290.267502 
L 255.16152 285.542071 
L 256.247321 288.200736 
L 257.333123 286.649605 
L 258.418924 285.653582 
L 259.504725 283.775816 
L 260.590526 282.81625 
L 261.676327 282.941632 
L 262.762128 285.704449 
L 263.847929 282.576528 
L 264.933731 287.427553 
L 266.019532 280.471558 
L 267.105333 286.915806 
L 268.191134 279.298266 
L 269.276935 286.026672 
L 270.362736 283.703506 
L 271.448538 277.273885 
L 272.534339 281.167754 
L 273.62014 279.598173 
L 274.705941 285.60287 
L 275.791742 276.646344 
L 276.877543 283.216788 
L 277.963344 281.848874 
L 279.049146 283.2057 
L 280.134947 289.011604 
L 281.220748 290.345377 
L 282.306549 286.226564 
L 283.39235 287.966529 
L 284.478151 285.257671 
L 285.563953 280.333211 
L 286.649754 284.226509 
L 287.735555 285.743887 
L 288.821356 289.045066 
L 289.907157 286.115969 
L 290.992958 288.880997 
L 292.07876 287.729366 
L 293.164561 292.546013 
L 294.250362 286.592204 
L 295.336163 287.284126 
L 296.421964 283.911486 
L 297.507765 287.239986 
L 298.593566 287.569914 
L 299.679368 288.45786 
L 300.765169 287.366579 
L 301.85097 288.534136 
L 302.936771 284.084464 
L 304.022572 287.328194 
L 305.108373 284.459369 
L 306.194175 284.720444 
L 307.279976 284.149018 
L 308.365777 285.130979 
L 309.451578 287.853584 
L 310.537379 285.636681 
L 311.62318 279.005772 
L 312.708981 283.990966 
L 313.794783 287.101189 
L 314.880584 277.673873 
L 315.966385 289.877928 
L 317.052186 283.905113 
L 318.137987 284.913607 
L 319.223788 284.970109 
L 320.30959 287.179367 
L 321.395391 288.336582 
L 322.481192 288.586257 
L 323.566993 286.907935 
L 324.652794 286.50099 
L 325.738595 280.478453 
L 326.824396 284.896578 
L 327.910198 291.253591 
L 328.995999 285.600465 
L 330.0818 287.884229 
L 331.167601 285.563704 
L 332.253402 283.560439 
L 333.339203 291.262136 
L 334.425005 289.105348 
L 335.510806 290.871086 
L 336.596607 286.387164 
L 337.682408 283.12851 
L 338.768209 285.360202 
L 339.85401 283.830414 
L 340.939811 284.627235 
L 342.025613 280.239887 
L 343.111414 284.409234 
L 344.197215 283.391496 
L 345.283016 280.850067 
L 346.368817 275.733644 
L 347.454618 283.999215 
L 348.54042 282.014135 
L 349.626221 287.990375 
L 350.712022 282.965627 
L 351.797823 286.421838 
L 352.883624 284.168359 
L 353.969425 285.153965 
L 355.055227 277.381198 
L 356.141028 285.486304 
L 357.226829 287.436126 
L 358.31263 283.741449 
L 359.398431 285.364202 
L 360.484232 280.146712 
L 361.570033 277.562369 
L 362.655835 282.629875 
L 363.741636 283.82363 
L 364.827437 287.169916 
L 365.913238 284.594447 
L 366.999039 281.337726 
L 368.08484 282.860559 
L 369.170642 284.071467 
L 371.342244 291.275858 
L 372.428045 283.866921 
L 373.513846 280.62994 
L 374.599647 286.704464 
L 375.685448 277.671161 
L 376.77125 285.16914 
L 377.857051 279.261051 
L 378.942852 283.086239 
L 380.028653 279.062413 
L 381.114454 280.821027 
L 382.200255 285.530062 
L 383.286057 286.546171 
L 384.371858 281.808515 
L 385.457659 284.157306 
L 386.54346 278.686561 
L 387.629261 284.560466 
L 388.715062 281.617065 
L 389.800863 277.072091 
L 390.886665 284.576103 
L 391.972466 279.420785 
L 393.058267 279.786076 
L 394.144068 283.883797 
L 395.229869 280.862259 
L 396.31567 285.552172 
L 397.401472 286.907473 
L 398.487273 283.48592 
L 398.487273 283.48592 
" clip-path="url(#p1e15c0c417)" style="fill: none; stroke-dasharray: 9.6,2.4,1.5,2.4; stroke-dashoffset: 0; stroke: #008000; stroke-width: 1.5"/>
   </g>
   <g id="line2d_33">
    <path d="M 73.832727 203.837029 
L 74.918528 195.578339 
L 76.00433 199.182633 
L 77.090131 200.716226 
L 78.175932 187.683613 
L 79.261733 200.540783 
L 80.347534 202.397537 
L 81.433335 201.171877 
L 82.519137 193.236239 
L 83.604938 200.563862 
L 84.690739 193.879417 
L 85.77654 190.816064 
L 86.862341 197.994386 
L 87.948142 189.413834 
L 89.033943 191.563263 
L 90.119745 204.569411 
L 91.205546 189.700435 
L 92.291347 205.733763 
L 93.377148 201.093211 
L 94.462949 202.714323 
L 95.54875 201.182764 
L 96.634552 199.048364 
L 97.720353 192.272491 
L 98.806154 190.594913 
L 99.891955 190.371144 
L 100.977756 196.216589 
L 102.063557 205.301193 
L 103.149358 199.33448 
L 104.23516 197.485304 
L 105.320961 196.518082 
L 106.406762 194.383743 
L 107.492563 201.17081 
L 108.578364 193.373338 
L 109.664165 201.632892 
L 110.749967 200.341052 
L 111.835768 202.380442 
L 112.921569 197.513379 
L 114.00737 205.382896 
L 115.093171 202.356252 
L 116.178972 195.391125 
L 117.264773 185.84235 
L 118.350575 201.433571 
L 119.436376 198.273744 
L 120.522177 194.306925 
L 121.607978 196.862111 
L 122.693779 212.505478 
L 123.77958 198.856142 
L 124.865382 198.620022 
L 125.951183 192.026216 
L 127.036984 187.589354 
L 128.122785 209.147588 
L 129.208586 204.346352 
L 130.294387 187.011809 
L 131.380189 197.602367 
L 132.46599 196.913153 
L 133.551791 187.142119 
L 134.637592 200.009323 
L 135.723393 196.881505 
L 136.809194 210.244475 
L 137.894995 194.633865 
L 138.980797 196.054782 
L 140.066598 198.453284 
L 141.152399 201.843959 
L 142.2382 192.487792 
L 143.324001 193.032561 
L 144.409802 203.891402 
L 145.495604 193.721169 
L 146.581405 191.200318 
L 147.667206 190.960601 
L 148.753007 183.951218 
L 149.838808 199.102467 
L 150.924609 199.086238 
L 152.01041 188.844049 
L 153.096212 195.177638 
L 154.182013 185.671713 
L 155.267814 196.164283 
L 156.353615 185.888862 
L 157.439416 192.107383 
L 158.525217 185.726339 
L 159.611019 189.117575 
L 160.69682 189.577735 
L 161.782621 186.836301 
L 162.868422 194.548136 
L 163.954223 186.997182 
L 165.040024 181.496714 
L 166.125825 192.756633 
L 167.211627 199.290362 
L 168.297428 196.989633 
L 169.383229 198.951793 
L 171.554831 181.421127 
L 172.640632 194.463751 
L 173.726434 192.991022 
L 174.812235 196.331707 
L 175.898036 193.4236 
L 176.983837 191.778217 
L 178.069638 201.370326 
L 179.155439 190.11934 
L 180.24124 189.669612 
L 181.327042 193.825004 
L 182.412843 189.060456 
L 183.498644 192.145441 
L 184.584445 200.665488 
L 186.756047 185.541564 
L 187.841849 183.812631 
L 188.92765 196.109405 
L 190.013451 192.939139 
L 191.099252 198.232076 
L 192.185053 193.71889 
L 193.270854 191.958322 
L 194.356656 193.611822 
L 195.442457 189.517016 
L 196.528258 186.338856 
L 197.614059 193.745368 
L 198.69986 189.628148 
L 199.785661 194.375683 
L 200.871462 191.232141 
L 201.957264 200.183785 
L 203.043065 186.174027 
L 204.128866 187.971797 
L 205.214667 179.429285 
L 206.300468 188.364621 
L 207.386269 186.645112 
L 208.472071 186.976096 
L 209.557872 197.802699 
L 210.643673 192.086931 
L 211.729474 191.302886 
L 212.815275 190.851488 
L 213.901076 188.240217 
L 214.986877 187.199501 
L 216.072679 184.566781 
L 217.15848 197.142304 
L 218.244281 194.656542 
L 219.330082 196.427284 
L 220.415883 193.693552 
L 221.501684 194.504296 
L 222.587486 196.503961 
L 223.673287 187.935925 
L 224.759088 178.218533 
L 225.844889 193.527695 
L 226.93069 190.407258 
L 228.016491 195.548869 
L 229.102292 197.936872 
L 230.188094 197.635174 
L 231.273895 187.749042 
L 232.359696 188.782426 
L 233.445497 193.32875 
L 234.531298 203.395406 
L 235.617099 192.137615 
L 236.702901 198.396 
L 237.788702 194.409154 
L 238.874503 194.25897 
L 239.960304 188.969712 
L 241.046105 188.72792 
L 242.131906 194.313359 
L 243.217708 194.736411 
L 244.303509 196.338333 
L 245.38931 209.19509 
L 246.475111 201.502187 
L 247.560912 199.107933 
L 248.646713 195.195198 
L 249.732514 192.595759 
L 250.818316 192.887098 
L 251.904117 195.530206 
L 252.989918 204.938239 
L 254.075719 195.334538 
L 255.16152 199.808043 
L 256.247321 192.351771 
L 257.333123 190.969828 
L 258.418924 193.89041 
L 259.504725 193.307232 
L 260.590526 202.516603 
L 261.676327 198.520722 
L 262.762128 198.535413 
L 263.847929 191.214139 
L 264.933731 191.348872 
L 266.019532 188.246347 
L 268.191134 197.593771 
L 269.276935 192.867686 
L 270.362736 195.259897 
L 271.448538 180.03247 
L 272.534339 192.906881 
L 273.62014 183.633553 
L 274.705941 186.664614 
L 275.791742 191.016379 
L 276.877543 192.498348 
L 277.963344 191.119849 
L 279.049146 198.775223 
L 280.134947 208.680398 
L 281.220748 206.134041 
L 282.306549 195.163559 
L 283.39235 200.645986 
L 284.478151 191.267044 
L 285.563953 188.198335 
L 286.649754 189.413714 
L 287.735555 194.099615 
L 288.821356 197.288368 
L 289.907157 200.822192 
L 290.992958 199.835086 
L 292.07876 190.417307 
L 293.164561 200.049942 
L 294.250362 199.993479 
L 295.336163 192.403104 
L 296.421964 190.510678 
L 297.507765 198.807027 
L 298.593566 203.02766 
L 299.679368 203.236501 
L 300.765169 195.308021 
L 301.85097 191.921624 
L 302.936771 191.241276 
L 304.022572 190.117473 
L 305.108373 195.333035 
L 306.194175 188.415862 
L 307.279976 189.877631 
L 308.365777 189.881985 
L 309.451578 206.544158 
L 311.62318 185.163932 
L 312.708981 194.028125 
L 313.794783 199.205533 
L 314.880584 180.296309 
L 315.966385 198.782084 
L 317.052186 190.360663 
L 318.137987 194.339212 
L 319.223788 192.060019 
L 320.30959 198.878464 
L 321.395391 199.430701 
L 322.481192 203.150568 
L 323.566993 194.213141 
L 324.652794 196.438787 
L 325.738595 190.885455 
L 326.824396 192.722854 
L 327.910198 192.951518 
L 328.995999 193.96513 
L 330.0818 195.573692 
L 331.167601 193.28557 
L 332.253402 186.204835 
L 333.339203 203.73709 
L 334.425005 209.000927 
L 335.510806 202.6264 
L 336.596607 199.694602 
L 337.682408 190.347511 
L 338.768209 195.369615 
L 339.85401 186.566826 
L 340.939811 190.538664 
L 342.025613 186.17173 
L 343.111414 193.155998 
L 344.197215 190.87428 
L 345.283016 189.627641 
L 346.368817 187.780823 
L 347.454618 202.103586 
L 348.54042 186.082999 
L 349.626221 193.648542 
L 350.712022 188.67895 
L 351.797823 193.180237 
L 352.883624 189.444016 
L 353.969425 186.262072 
L 355.055227 182.30573 
L 356.141028 192.028869 
L 357.226829 189.110683 
L 358.31263 192.943452 
L 359.398431 199.377362 
L 360.484232 176.72838 
L 361.570033 185.565098 
L 362.655835 195.771498 
L 363.741636 193.973182 
L 364.827437 198.92547 
L 365.913238 190.595896 
L 366.999039 183.846577 
L 368.08484 187.746598 
L 369.170642 190.664056 
L 370.256443 191.996206 
L 371.342244 193.780697 
L 372.428045 196.32204 
L 373.513846 188.718298 
L 374.599647 200.263501 
L 375.685448 191.607571 
L 376.77125 199.694875 
L 377.857051 189.253118 
L 378.942852 187.808505 
L 380.028653 189.686795 
L 381.114454 188.355173 
L 382.200255 189.380392 
L 383.286057 189.741719 
L 384.371858 192.269918 
L 385.457659 192.462751 
L 386.54346 186.873153 
L 387.629261 188.230696 
L 388.715062 187.86984 
L 389.800863 179.827974 
L 390.886665 193.955418 
L 391.972466 187.269776 
L 393.058267 187.094706 
L 394.144068 190.309441 
L 395.229869 187.99559 
L 396.31567 189.356533 
L 397.401472 190.536929 
L 398.487273 192.795525 
L 398.487273 192.795525 
" clip-path="url(#p1e15c0c417)" style="fill: none; stroke-dasharray: 9.6,2.4,1.5,2.4; stroke-dashoffset: 0; stroke: #008000; stroke-width: 1.5"/>
   </g>
   <g id="line2d_34">
    <path d="M 73.832727 95.271496 
L 74.918528 157.82674 
L 76.00433 112.213541 
L 77.090131 140.884695 
L 78.175932 82.239153 
L 79.261733 157.82674 
L 80.347534 148.7041 
L 81.433335 147.400866 
L 82.519137 110.910307 
L 83.604938 133.065289 
L 84.690739 71.813279 
L 85.77654 130.458821 
L 86.862341 110.910307 
L 87.948142 146.097632 
L 89.033943 86.148856 
L 90.119745 129.155586 
L 91.205546 142.187929 
L 92.291347 139.58146 
L 93.377148 155.220271 
L 94.462949 155.220271 
L 95.54875 135.671758 
L 96.634552 157.82674 
L 97.720353 142.187929 
L 98.806154 83.542388 
L 99.891955 114.82001 
L 100.977756 99.181199 
L 102.063557 157.82674 
L 103.149358 139.58146 
L 104.23516 157.82674 
L 105.320961 96.57473 
L 106.406762 95.271496 
L 107.492563 157.82674 
L 108.578364 156.523506 
L 109.664165 157.82674 
L 110.749967 148.7041 
L 111.835768 134.368523 
L 112.921569 78.329451 
L 114.00737 66.600342 
L 115.093171 130.458821 
L 116.178972 114.82001 
L 117.264773 117.426478 
L 118.350575 103.090901 
L 119.436376 146.097632 
L 120.522177 122.639415 
L 121.607978 150.007334 
L 122.693779 53.568 
L 123.77958 112.213541 
L 124.865382 139.58146 
L 127.036984 109.607073 
L 128.122785 152.613803 
L 129.208586 126.549118 
L 130.294387 143.491163 
L 131.380189 152.613803 
L 132.46599 157.82674 
L 133.551791 157.82674 
L 134.637592 65.297108 
L 135.723393 103.090901 
L 136.809194 157.82674 
L 137.894995 146.097632 
L 138.980797 110.910307 
L 140.066598 133.065289 
L 141.152399 152.613803 
L 142.2382 131.762055 
L 143.324001 117.426478 
L 144.409802 157.82674 
L 145.495604 88.755325 
L 146.581405 130.458821 
L 147.667206 134.368523 
L 148.753007 130.458821 
L 149.838808 157.82674 
L 150.924609 144.794397 
L 152.01041 127.852352 
L 153.096212 150.007334 
L 154.182013 157.82674 
L 155.267814 157.82674 
L 157.439416 122.639415 
L 158.525217 157.82674 
L 159.611019 66.600342 
L 160.69682 65.297108 
L 161.782621 126.549118 
L 162.868422 66.600342 
L 163.954223 57.477703 
L 165.040024 86.148856 
L 166.125825 103.090901 
L 167.211627 108.303838 
L 168.297428 84.845622 
L 169.383229 139.58146 
L 170.46903 88.755325 
L 171.554831 92.665027 
L 172.640632 157.82674 
L 173.726434 157.82674 
L 174.812235 103.090901 
L 175.898036 104.394136 
L 176.983837 108.303838 
L 178.069638 157.82674 
L 179.155439 110.910307 
L 180.24124 93.968262 
L 181.327042 157.82674 
L 182.412843 57.477703 
L 183.498644 104.394136 
L 184.584445 157.82674 
L 185.670246 114.82001 
L 186.756047 122.639415 
L 187.841849 70.510045 
L 188.92765 157.82674 
L 190.013451 133.065289 
L 191.099252 150.007334 
L 192.185053 153.917037 
L 193.270854 153.917037 
L 194.356656 139.58146 
L 195.442457 150.007334 
L 196.528258 157.82674 
L 201.957264 157.82674 
L 203.043065 103.090901 
L 204.128866 155.220271 
L 205.214667 157.82674 
L 207.386269 157.82674 
L 208.472071 148.7041 
L 209.557872 157.82674 
L 210.643673 157.82674 
L 211.729474 152.613803 
L 212.815275 138.278226 
L 213.901076 157.82674 
L 214.986877 157.82674 
L 216.072679 121.336181 
L 217.15848 157.82674 
L 218.244281 153.917037 
L 219.330082 134.368523 
L 220.415883 108.303838 
L 221.501684 113.516775 
L 222.587486 157.82674 
L 223.673287 62.69064 
L 224.759088 120.032947 
L 225.844889 148.7041 
L 226.93069 157.82674 
L 229.102292 157.82674 
L 230.188094 134.368523 
L 231.273895 144.794397 
L 232.359696 157.82674 
L 233.445497 147.400866 
L 234.531298 157.82674 
L 235.617099 53.568 
L 236.702901 157.82674 
L 239.960304 157.82674 
L 241.046105 152.613803 
L 242.131906 108.303838 
L 243.217708 73.116514 
L 244.303509 134.368523 
L 245.38931 157.82674 
L 246.475111 157.82674 
L 247.560912 156.523506 
L 248.646713 133.065289 
L 249.732514 61.387405 
L 250.818316 58.780937 
L 251.904117 157.82674 
L 252.989918 157.82674 
L 254.075719 108.303838 
L 255.16152 148.7041 
L 256.247321 109.607073 
L 258.418924 157.82674 
L 259.504725 83.542388 
L 260.590526 157.82674 
L 263.847929 157.82674 
L 264.933731 108.303838 
L 266.019532 73.116514 
L 268.191134 142.187929 
L 269.276935 157.82674 
L 270.362736 121.336181 
L 271.448538 67.903577 
L 272.534339 157.82674 
L 274.705941 100.484433 
L 275.791742 146.097632 
L 276.877543 156.523506 
L 277.963344 150.007334 
L 279.049146 157.82674 
L 280.134947 152.613803 
L 281.220748 130.458821 
L 282.306549 135.671758 
L 283.39235 118.729712 
L 284.478151 139.58146 
L 285.563953 143.491163 
L 286.649754 121.336181 
L 287.735555 84.845622 
L 288.821356 95.271496 
L 289.907157 130.458821 
L 290.992958 131.762055 
L 292.07876 96.57473 
L 293.164561 125.245884 
L 294.250362 140.884695 
L 295.336163 133.065289 
L 296.421964 143.491163 
L 297.507765 96.57473 
L 298.593566 142.187929 
L 299.679368 153.917037 
L 300.765169 96.57473 
L 301.85097 118.729712 
L 305.108373 130.458821 
L 306.194175 103.090901 
L 307.279976 122.639415 
L 308.365777 104.394136 
L 309.451578 144.794397 
L 310.537379 152.613803 
L 311.62318 92.665027 
L 312.708981 117.426478 
L 313.794783 157.82674 
L 314.880584 127.852352 
L 315.966385 157.82674 
L 317.052186 142.187929 
L 318.137987 113.516775 
L 319.223788 108.303838 
L 320.30959 157.82674 
L 321.395391 151.310569 
L 322.481192 135.671758 
L 323.566993 157.82674 
L 324.652794 156.523506 
L 325.738595 139.58146 
L 326.824396 136.974992 
L 327.910198 78.329451 
L 328.995999 112.213541 
L 330.0818 69.206811 
L 331.167601 96.57473 
L 332.253402 131.762055 
L 333.339203 152.613803 
L 334.425005 157.82674 
L 335.510806 118.729712 
L 336.596607 133.065289 
L 337.682408 73.116514 
L 338.768209 91.361793 
L 339.85401 101.787667 
L 340.939811 80.935919 
L 343.111414 146.097632 
L 344.197215 157.82674 
L 345.283016 125.245884 
L 346.368817 96.57473 
L 347.454618 157.82674 
L 348.54042 97.877964 
L 349.626221 61.387405 
L 350.712022 104.394136 
L 351.797823 120.032947 
L 352.883624 147.400866 
L 353.969425 114.82001 
L 355.055227 109.607073 
L 356.141028 123.942649 
L 357.226829 78.329451 
L 358.31263 116.123244 
L 359.398431 133.065289 
L 360.484232 53.568 
L 361.570033 117.426478 
L 362.655835 84.845622 
L 363.741636 112.213541 
L 364.827437 147.400866 
L 365.913238 88.755325 
L 366.999039 62.69064 
L 368.08484 54.871234 
L 369.170642 129.155586 
L 370.256443 56.174468 
L 371.342244 116.123244 
L 372.428045 147.400866 
L 373.513846 157.82674 
L 376.77125 157.82674 
L 377.857051 121.336181 
L 378.942852 157.82674 
L 380.028653 157.82674 
L 381.114454 125.245884 
L 382.200255 84.845622 
L 383.286057 116.123244 
L 384.371858 95.271496 
L 385.457659 123.942649 
L 386.54346 107.000604 
L 387.629261 123.942649 
L 388.715062 118.729712 
L 389.800863 120.032947 
L 390.886665 96.57473 
L 391.972466 114.82001 
L 393.058267 107.000604 
L 394.144068 104.394136 
L 395.229869 125.245884 
L 396.31567 103.090901 
L 397.401472 108.303838 
L 398.487273 136.974992 
L 398.487273 136.974992 
" clip-path="url(#p1e15c0c417)" style="fill: none; stroke: #ff0000; stroke-width: 1.5; stroke-linecap: square"/>
   </g>
   <g id="patch_3">
    <path d="M 57.6 307.584 
L 57.6 41.472 
" style="fill: none; stroke: #000000; stroke-width: 0.8; stroke-linejoin: miter; stroke-linecap: square"/>
   </g>
   <g id="patch_4">
    <path d="M 414.72 307.584 
L 414.72 41.472 
" style="fill: none; stroke: #000000; stroke-width: 0.8; stroke-linejoin: miter; stroke-linecap: square"/>
   </g>
   <g id="patch_5">
    <path d="M 57.6 307.584 
L 414.72 307.584 
" style="fill: none; stroke: #000000; stroke-width: 0.8; stroke-linejoin: miter; stroke-linecap: square"/>
   </g>
   <g id="patch_6">
    <path d="M 57.6 41.472 
L 414.72 41.472 
" style="fill: none; stroke: #000000; stroke-width: 0.8; stroke-linejoin: miter; stroke-linecap: square"/>
   </g>
   <g id="text_18">
    <!-- Population's average and best fitness -->
    <g transform="translate(123.529687 35.472)scale(0.12 -0.12)">
     <defs>
      <path id="DejaVuSans-50" d="M 1259 4147 
L 1259 2394 
L 2053 2394 
Q 2494 2394 2734 2622 
Q 2975 2850 2975 3272 
Q 2975 3691 2734 3919 
Q 2494 4147 2053 4147 
L 1259 4147 
z
M 628 4666 
L 2053 4666 
Q 2838 4666 3239 4311 
Q 3641 3956 3641 3272 
Q 3641 2581 3239 2228 
Q 2838 1875 2053 1875 
L 1259 1875 
L 1259 0 
L 628 0 
L 628 4666 
z
" transform="scale(0.015625)"/>
      <path id="DejaVuSans-70" d="M 1159 525 
L 1159 -1331 
L 581 -1331 
L 581 3500 
L 1159 3500 
L 1159 2969 
Q 1341 3281 1617 3432 
Q 1894 3584 2278 3584 
Q 2916 3584 3314 3078 
Q 3713 2572 3713 1747 
Q 3713 922 3314 415 
Q 2916 -91 2278 -91 
Q 1894 -91 1617 61 
Q 1341 213 1159 525 
z
M 3116 1747 
Q 3116 2381 2855 2742 
Q 2594 3103 2138 3103 
Q 1681 3103 1420 2742 
Q 1159 2381 1159 1747 
Q 1159 1113 1420 752 
Q 1681 391 2138 391 
Q 2594 391 2855 752 
Q 3116 1113 3116 1747 
z
" transform="scale(0.015625)"/>
      <path id="DejaVuSans-75" d="M 544 1381 
L 544 3500 
L 1119 3500 
L 1119 1403 
Q 1119 906 1312 657 
Q 1506 409 1894 409 
Q 2359 409 2629 706 
Q 2900 1003 2900 1516 
L 2900 3500 
L 3475 3500 
L 3475 0 
L 2900 0 
L 2900 538 
Q 2691 219 2414 64 
Q 2138 -91 1772 -91 
Q 1169 -91 856 284 
Q 544 659 544 1381 
z
M 1991 3584 
L 1991 3584 
z
" transform="scale(0.015625)"/>
      <path id="DejaVuSans-6c" d="M 603 4863 
L 1178 4863 
L 1178 0 
L 603 0 
L 603 4863 
z
" transform="scale(0.015625)"/>
      <path id="DejaVuSans-27" d="M 1147 4666 
L 1147 2931 
L 616 2931 
L 616 4666 
L 1147 4666 
z
" transform="scale(0.015625)"/>
      <path id="DejaVuSans-20" transform="scale(0.015625)"/>
      <path id="DejaVuSans-76" d="M 191 3500 
L 800 3500 
L 1894 563 
L 2988 3500 
L 3597 3500 
L 2284 0 
L 1503 0 
L 191 3500 
z
" transform="scale(0.015625)"/>
      <path id="DejaVuSans-67" d="M 2906 1791 
Q 2906 2416 2648 2759 
Q 2391 3103 1925 3103 
Q 1463 3103 1205 2759 
Q 947 2416 947 1791 
Q 947 1169 1205 825 
Q 1463 481 1925 481 
Q 2391 481 2648 825 
Q 2906 1169 2906 1791 
z
M 3481 434 
Q 3481 -459 3084 -895 
Q 2688 -1331 1869 -1331 
Q 1566 -1331 1297 -1286 
Q 1028 -1241 775 -1147 
L 775 -588 
Q 1028 -725 1275 -790 
Q 1522 -856 1778 -856 
Q 2344 -856 2625 -561 
Q 2906 -266 2906 331 
L 2906 616 
Q 2728 306 2450 153 
Q 2172 0 1784 0 
Q 1141 0 747 490 
Q 353 981 353 1791 
Q 353 2603 747 3093 
Q 1141 3584 1784 3584 
Q 2172 3584 2450 3431 
Q 2728 3278 2906 2969 
L 2906 3500 
L 3481 3500 
L 3481 434 
z
" transform="scale(0.015625)"/>
      <path id="DejaVuSans-64" d="M 2906 2969 
L 2906 4863 
L 3481 4863 
L 3481 0 
L 2906 0 
L 2906 525 
Q 2725 213 2448 61 
Q 2172 -91 1784 -91 
Q 1150 -91 751 415 
Q 353 922 353 1747 
Q 353 2572 751 3078 
Q 1150 3584 1784 3584 
Q 2172 3584 2448 3432 
Q 2725 3281 2906 2969 
z
M 947 1747 
Q 947 1113 1208 752 
Q 1469 391 1925 391 
Q 2381 391 2643 752 
Q 2906 1113 2906 1747 
Q 2906 2381 2643 2742 
Q 2381 3103 1925 3103 
Q 1469 3103 1208 2742 
Q 947 2381 947 1747 
z
" transform="scale(0.015625)"/>
      <path id="DejaVuSans-62" d="M 3116 1747 
Q 3116 2381 2855 2742 
Q 2594 3103 2138 3103 
Q 1681 3103 1420 2742 
Q 1159 2381 1159 1747 
Q 1159 1113 1420 752 
Q 1681 391 2138 391 
Q 2594 391 2855 752 
Q 3116 1113 3116 1747 
z
M 1159 2969 
Q 1341 3281 1617 3432 
Q 1894 3584 2278 3584 
Q 2916 3584 3314 3078 
Q 3713 2572 3713 1747 
Q 3713 922 3314 415 
Q 2916 -91 2278 -91 
Q 1894 -91 1617 61 
Q 1341 213 1159 525 
L 1159 0 
L 581 0 
L 581 4863 
L 1159 4863 
L 1159 2969 
z
" transform="scale(0.015625)"/>
      <path id="DejaVuSans-66" d="M 2375 4863 
L 2375 4384 
L 1825 4384 
Q 1516 4384 1395 4259 
Q 1275 4134 1275 3809 
L 1275 3500 
L 2222 3500 
L 2222 3053 
L 1275 3053 
L 1275 0 
L 697 0 
L 697 3053 
L 147 3053 
L 147 3500 
L 697 3500 
L 697 3744 
Q 697 4328 969 4595 
Q 1241 4863 1831 4863 
L 2375 4863 
z
" transform="scale(0.015625)"/>
     </defs>
     <use xlink:href="#DejaVuSans-50"/>
     <use xlink:href="#DejaVuSans-6f" x="56.677734"/>
     <use xlink:href="#DejaVuSans-70" x="117.859375"/>
     <use xlink:href="#DejaVuSans-75" x="181.335938"/>
     <use xlink:href="#DejaVuSans-6c" x="244.714844"/>
     <use xlink:href="#DejaVuSans-61" x="272.498047"/>
     <use xlink:href="#DejaVuSans-74" x="333.777344"/>
     <use xlink:href="#DejaVuSans-69" x="372.986328"/>
     <use xlink:href="#DejaVuSans-6f" x="400.769531"/>
     <use xlink:href="#DejaVuSans-6e" x="461.951172"/>
     <use xlink:href="#DejaVuSans-27" x="525.330078"/>
     <use xlink:href="#DejaVuSans-73" x="552.820312"/>
     <use xlink:href="#DejaVuSans-20" x="604.919922"/>
     <use xlink:href="#DejaVuSans-61" x="636.707031"/>
     <use xlink:href="#DejaVuSans-76" x="697.986328"/>
     <use xlink:href="#DejaVuSans-65" x="757.166016"/>
     <use xlink:href="#DejaVuSans-72" x="818.689453"/>
     <use xlink:href="#DejaVuSans-61" x="859.802734"/>
     <use xlink:href="#DejaVuSans-67" x="921.082031"/>
     <use xlink:href="#DejaVuSans-65" x="984.558594"/>
     <use xlink:href="#DejaVuSans-20" x="1046.082031"/>
     <use xlink:href="#DejaVuSans-61" x="1077.869141"/>
     <use xlink:href="#DejaVuSans-6e" x="1139.148438"/>
     <use xlink:href="#DejaVuSans-64" x="1202.527344"/>
     <use xlink:href="#DejaVuSans-20" x="1266.003906"/>
     <use xlink:href="#DejaVuSans-62" x="1297.791016"/>
     <use xlink:href="#DejaVuSans-65" x="1361.267578"/>
     <use xlink:href="#DejaVuSans-73" x="1422.791016"/>
     <use xlink:href="#DejaVuSans-74" x="1474.890625"/>
     <use xlink:href="#DejaVuSans-20" x="1514.099609"/>
     <use xlink:href="#DejaVuSans-66" x="1545.886719"/>
     <use xlink:href="#DejaVuSans-69" x="1581.091797"/>
     <use xlink:href="#DejaVuSans-74" x="1608.875"/>
     <use xlink:href="#DejaVuSans-6e" x="1648.083984"/>
     <use xlink:href="#DejaVuSans-65" x="1711.462891"/>
     <use xlink:href="#DejaVuSans-73" x="1772.986328"/>
     <use xlink:href="#DejaVuSans-73" x="1825.085938"/>
    </g>
   </g>
   <g id="legend_1">
    <g id="patch_7">
     <path d="M 199.689687 108.1845 
L 272.630313 108.1845 
Q 274.630313 108.1845 274.630313 106.1845 
L 274.630313 48.472 
Q 274.630313 46.472 272.630313 46.472 
L 199.689687 46.472 
Q 197.689687 46.472 197.689687 48.472 
L 197.689687 106.1845 
Q 197.689687 108.1845 199.689687 108.1845 
z
" style="fill: #ffffff; opacity: 0.8; stroke: #cccccc; stroke-linejoin: miter"/>
    </g>
    <g id="line2d_35">
     <path d="M 201.689687 54.570438 
L 211.689687 54.570438 
L 221.689687 54.570438 
" style="fill: none; stroke: #0000ff; stroke-width: 1.5; stroke-linecap: square"/>
    </g>
    <g id="text_19">
     <!-- average -->
     <g transform="translate(229.689687 58.070438)scale(0.1 -0.1)">
      <use xlink:href="#DejaVuSans-61"/>
      <use xlink:href="#DejaVuSans-76" x="61.279297"/>
      <use xlink:href="#DejaVuSans-65" x="120.458984"/>
      <use xlink:href="#DejaVuSans-72" x="181.982422"/>
      <use xlink:href="#DejaVuSans-61" x="223.095703"/>
      <use xlink:href="#DejaVuSans-67" x="284.375"/>
      <use xlink:href="#DejaVuSans-65" x="347.851562"/>
     </g>
    </g>
    <g id="line2d_36">
     <path d="M 201.689687 69.248563 
L 211.689687 69.248563 
L 221.689687 69.248563 
" style="fill: none; stroke-dasharray: 9.6,2.4,1.5,2.4; stroke-dashoffset: 0; stroke: #008000; stroke-width: 1.5"/>
    </g>
    <g id="text_20">
     <!-- -1 sd -->
     <g transform="translate(229.689687 72.748563)scale(0.1 -0.1)">
      <defs>
       <path id="DejaVuSans-2d" d="M 313 2009 
L 1997 2009 
L 1997 1497 
L 313 1497 
L 313 2009 
z
" transform="scale(0.015625)"/>
      </defs>
      <use xlink:href="#DejaVuSans-2d"/>
      <use xlink:href="#DejaVuSans-31" x="36.083984"/>
      <use xlink:href="#DejaVuSans-20" x="99.707031"/>
      <use xlink:href="#DejaVuSans-73" x="131.494141"/>
      <use xlink:href="#DejaVuSans-64" x="183.59375"/>
     </g>
    </g>
    <g id="line2d_37">
     <path d="M 201.689687 83.926688 
L 211.689687 83.926688 
L 221.689687 83.926688 
" style="fill: none; stroke-dasharray: 9.6,2.4,1.5,2.4; stroke-dashoffset: 0; stroke: #008000; stroke-width: 1.5"/>
    </g>
    <g id="text_21">
     <!-- +1 sd -->
     <g transform="translate(229.689687 87.426688)scale(0.1 -0.1)">
      <defs>
       <path id="DejaVuSans-2b" d="M 2944 4013 
L 2944 2272 
L 4684 2272 
L 4684 1741 
L 2944 1741 
L 2944 0 
L 2419 0 
L 2419 1741 
L 678 1741 
L 678 2272 
L 2419 2272 
L 2419 4013 
L 2944 4013 
z
" transform="scale(0.015625)"/>
      </defs>
      <use xlink:href="#DejaVuSans-2b"/>
      <use xlink:href="#DejaVuSans-31" x="83.789062"/>
      <use xlink:href="#DejaVuSans-20" x="147.412109"/>
      <use xlink:href="#DejaVuSans-73" x="179.199219"/>
      <use xlink:href="#DejaVuSans-64" x="231.298828"/>
     </g>
    </g>
    <g id="line2d_38">
     <path d="M 201.689687 98.604813 
L 211.689687 98.604813 
L 221.689687 98.604813 
" style="fill: none; stroke: #ff0000; stroke-width: 1.5; stroke-linecap: square"/>
    </g>
    <g id="text_22">
     <!-- best -->
     <g transform="translate(229.689687 102.104813)scale(0.1 -0.1)">
      <use xlink:href="#DejaVuSans-62"/>
      <use xlink:href="#DejaVuSans-65" x="63.476562"/>
      <use xlink:href="#DejaVuSans-73" x="125"/>
      <use xlink:href="#DejaVuSans-74" x="177.099609"/>
     </g>
    </g>
   </g>
  </g>
 </g>
 <defs>
  <clipPath id="p1e15c0c417">
   <rect x="57.6" y="41.472" width="357.12" height="266.112"/>
  </clipPath>
 </defs>
</svg>
