<?xml version="1.0" encoding="utf-8" standalone="no"?>
<!DOCTYPE svg PUBLIC "-//W3C//DTD SVG 1.1//EN"
  "http://www.w3.org/Graphics/SVG/1.1/DTD/svg11.dtd">
<svg xmlns:xlink="http://www.w3.org/1999/xlink" width="460.8pt" height="345.6pt" viewBox="0 0 460.8 345.6" xmlns="http://www.w3.org/2000/svg" version="1.1">
 <metadata>
  <rdf:RDF xmlns:dc="http://purl.org/dc/elements/1.1/" xmlns:cc="http://creativecommons.org/ns#" xmlns:rdf="http://www.w3.org/1999/02/22-rdf-syntax-ns#">
   <cc:Work>
    <dc:type rdf:resource="http://purl.org/dc/dcmitype/StillImage"/>
    <dc:date>2022-07-09T15:50:45.175321</dc:date>
    <dc:format>image/svg+xml</dc:format>
    <dc:creator>
     <cc:Agent>
      <dc:title>Matplotlib v3.5.2, https://matplotlib.org/</dc:title>
     </cc:Agent>
    </dc:creator>
   </cc:Work>
  </rdf:RDF>
 </metadata>
 <defs>
  <style type="text/css">*{stroke-linejoin: round; stroke-linecap: butt}</style>
 </defs>
 <g id="figure_1">
  <g id="patch_1">
   <path d="M 0 345.6 
L 460.8 345.6 
L 460.8 0 
L 0 0 
z
" style="fill: #ffffff"/>
  </g>
  <g id="axes_1">
   <g id="patch_2">
    <path d="M 57.6 307.584 
L 414.72 307.584 
L 414.72 41.472 
L 57.6 41.472 
z
" style="fill: #ffffff"/>
   </g>
   <g id="matplotlib.axis_1">
    <g id="xtick_1">
     <g id="line2d_1">
      <path d="M 73.832727 307.584 
L 73.832727 41.472 
" clip-path="url(#p4e4e4a6c73)" style="fill: none; stroke: #b0b0b0; stroke-width: 0.8; stroke-linecap: square"/>
     </g>
     <g id="line2d_2">
      <defs>
       <path id="m9d270a7c9c" d="M 0 0 
L 0 3.5 
" style="stroke: #000000; stroke-width: 0.8"/>
      </defs>
      <g>
       <use xlink:href="#m9d270a7c9c" x="73.832727" y="307.584" style="stroke: #000000; stroke-width: 0.8"/>
      </g>
     </g>
     <g id="text_1">
      <!-- 0 -->
      <g transform="translate(70.651477 322.182437)scale(0.1 -0.1)">
       <defs>
        <path id="DejaVuSans-30" d="M 2034 4250 
Q 1547 4250 1301 3770 
Q 1056 3291 1056 2328 
Q 1056 1369 1301 889 
Q 1547 409 2034 409 
Q 2525 409 2770 889 
Q 3016 1369 3016 2328 
Q 3016 3291 2770 3770 
Q 2525 4250 2034 4250 
z
M 2034 4750 
Q 2819 4750 3233 4129 
Q 3647 3509 3647 2328 
Q 3647 1150 3233 529 
Q 2819 -91 2034 -91 
Q 1250 -91 836 529 
Q 422 1150 422 2328 
Q 422 3509 836 4129 
Q 1250 4750 2034 4750 
z
" transform="scale(0.015625)"/>
       </defs>
       <use xlink:href="#DejaVuSans-30"/>
      </g>
     </g>
    </g>
    <g id="xtick_2">
     <g id="line2d_3">
      <path d="M 114.618474 307.584 
L 114.618474 41.472 
" clip-path="url(#p4e4e4a6c73)" style="fill: none; stroke: #b0b0b0; stroke-width: 0.8; stroke-linecap: square"/>
     </g>
     <g id="line2d_4">
      <g>
       <use xlink:href="#m9d270a7c9c" x="114.618474" y="307.584" style="stroke: #000000; stroke-width: 0.8"/>
      </g>
     </g>
     <g id="text_2">
      <!-- 25 -->
      <g transform="translate(108.255974 322.182437)scale(0.1 -0.1)">
       <defs>
        <path id="DejaVuSans-32" d="M 1228 531 
L 3431 531 
L 3431 0 
L 469 0 
L 469 531 
Q 828 903 1448 1529 
Q 2069 2156 2228 2338 
Q 2531 2678 2651 2914 
Q 2772 3150 2772 3378 
Q 2772 3750 2511 3984 
Q 2250 4219 1831 4219 
Q 1534 4219 1204 4116 
Q 875 4013 500 3803 
L 500 4441 
Q 881 4594 1212 4672 
Q 1544 4750 1819 4750 
Q 2544 4750 2975 4387 
Q 3406 4025 3406 3419 
Q 3406 3131 3298 2873 
Q 3191 2616 2906 2266 
Q 2828 2175 2409 1742 
Q 1991 1309 1228 531 
z
" transform="scale(0.015625)"/>
        <path id="DejaVuSans-35" d="M 691 4666 
L 3169 4666 
L 3169 4134 
L 1269 4134 
L 1269 2991 
Q 1406 3038 1543 3061 
Q 1681 3084 1819 3084 
Q 2600 3084 3056 2656 
Q 3513 2228 3513 1497 
Q 3513 744 3044 326 
Q 2575 -91 1722 -91 
Q 1428 -91 1123 -41 
Q 819 9 494 109 
L 494 744 
Q 775 591 1075 516 
Q 1375 441 1709 441 
Q 2250 441 2565 725 
Q 2881 1009 2881 1497 
Q 2881 1984 2565 2268 
Q 2250 2553 1709 2553 
Q 1456 2553 1204 2497 
Q 953 2441 691 2322 
L 691 4666 
z
" transform="scale(0.015625)"/>
       </defs>
       <use xlink:href="#DejaVuSans-32"/>
       <use xlink:href="#DejaVuSans-35" x="63.623047"/>
      </g>
     </g>
    </g>
    <g id="xtick_3">
     <g id="line2d_5">
      <path d="M 155.404221 307.584 
L 155.404221 41.472 
" clip-path="url(#p4e4e4a6c73)" style="fill: none; stroke: #b0b0b0; stroke-width: 0.8; stroke-linecap: square"/>
     </g>
     <g id="line2d_6">
      <g>
       <use xlink:href="#m9d270a7c9c" x="155.404221" y="307.584" style="stroke: #000000; stroke-width: 0.8"/>
      </g>
     </g>
     <g id="text_3">
      <!-- 50 -->
      <g transform="translate(149.041721 322.182437)scale(0.1 -0.1)">
       <use xlink:href="#DejaVuSans-35"/>
       <use xlink:href="#DejaVuSans-30" x="63.623047"/>
      </g>
     </g>
    </g>
    <g id="xtick_4">
     <g id="line2d_7">
      <path d="M 196.189968 307.584 
L 196.189968 41.472 
" clip-path="url(#p4e4e4a6c73)" style="fill: none; stroke: #b0b0b0; stroke-width: 0.8; stroke-linecap: square"/>
     </g>
     <g id="line2d_8">
      <g>
       <use xlink:href="#m9d270a7c9c" x="196.189968" y="307.584" style="stroke: #000000; stroke-width: 0.8"/>
      </g>
     </g>
     <g id="text_4">
      <!-- 75 -->
      <g transform="translate(189.827468 322.182437)scale(0.1 -0.1)">
       <defs>
        <path id="DejaVuSans-37" d="M 525 4666 
L 3525 4666 
L 3525 4397 
L 1831 0 
L 1172 0 
L 2766 4134 
L 525 4134 
L 525 4666 
z
" transform="scale(0.015625)"/>
       </defs>
       <use xlink:href="#DejaVuSans-37"/>
       <use xlink:href="#DejaVuSans-35" x="63.623047"/>
      </g>
     </g>
    </g>
    <g id="xtick_5">
     <g id="line2d_9">
      <path d="M 236.975715 307.584 
L 236.975715 41.472 
" clip-path="url(#p4e4e4a6c73)" style="fill: none; stroke: #b0b0b0; stroke-width: 0.8; stroke-linecap: square"/>
     </g>
     <g id="line2d_10">
      <g>
       <use xlink:href="#m9d270a7c9c" x="236.975715" y="307.584" style="stroke: #000000; stroke-width: 0.8"/>
      </g>
     </g>
     <g id="text_5">
      <!-- 100 -->
      <g transform="translate(227.431965 322.182437)scale(0.1 -0.1)">
       <defs>
        <path id="DejaVuSans-31" d="M 794 531 
L 1825 531 
L 1825 4091 
L 703 3866 
L 703 4441 
L 1819 4666 
L 2450 4666 
L 2450 531 
L 3481 531 
L 3481 0 
L 794 0 
L 794 531 
z
" transform="scale(0.015625)"/>
       </defs>
       <use xlink:href="#DejaVuSans-31"/>
       <use xlink:href="#DejaVuSans-30" x="63.623047"/>
       <use xlink:href="#DejaVuSans-30" x="127.246094"/>
      </g>
     </g>
    </g>
    <g id="xtick_6">
     <g id="line2d_11">
      <path d="M 277.761462 307.584 
L 277.761462 41.472 
" clip-path="url(#p4e4e4a6c73)" style="fill: none; stroke: #b0b0b0; stroke-width: 0.8; stroke-linecap: square"/>
     </g>
     <g id="line2d_12">
      <g>
       <use xlink:href="#m9d270a7c9c" x="277.761462" y="307.584" style="stroke: #000000; stroke-width: 0.8"/>
      </g>
     </g>
     <g id="text_6">
      <!-- 125 -->
      <g transform="translate(268.217712 322.182437)scale(0.1 -0.1)">
       <use xlink:href="#DejaVuSans-31"/>
       <use xlink:href="#DejaVuSans-32" x="63.623047"/>
       <use xlink:href="#DejaVuSans-35" x="127.246094"/>
      </g>
     </g>
    </g>
    <g id="xtick_7">
     <g id="line2d_13">
      <path d="M 318.547209 307.584 
L 318.547209 41.472 
" clip-path="url(#p4e4e4a6c73)" style="fill: none; stroke: #b0b0b0; stroke-width: 0.8; stroke-linecap: square"/>
     </g>
     <g id="line2d_14">
      <g>
       <use xlink:href="#m9d270a7c9c" x="318.547209" y="307.584" style="stroke: #000000; stroke-width: 0.8"/>
      </g>
     </g>
     <g id="text_7">
      <!-- 150 -->
      <g transform="translate(309.003459 322.182437)scale(0.1 -0.1)">
       <use xlink:href="#DejaVuSans-31"/>
       <use xlink:href="#DejaVuSans-35" x="63.623047"/>
       <use xlink:href="#DejaVuSans-30" x="127.246094"/>
      </g>
     </g>
    </g>
    <g id="xtick_8">
     <g id="line2d_15">
      <path d="M 359.332956 307.584 
L 359.332956 41.472 
" clip-path="url(#p4e4e4a6c73)" style="fill: none; stroke: #b0b0b0; stroke-width: 0.8; stroke-linecap: square"/>
     </g>
     <g id="line2d_16">
      <g>
       <use xlink:href="#m9d270a7c9c" x="359.332956" y="307.584" style="stroke: #000000; stroke-width: 0.8"/>
      </g>
     </g>
     <g id="text_8">
      <!-- 175 -->
      <g transform="translate(349.789206 322.182437)scale(0.1 -0.1)">
       <use xlink:href="#DejaVuSans-31"/>
       <use xlink:href="#DejaVuSans-37" x="63.623047"/>
       <use xlink:href="#DejaVuSans-35" x="127.246094"/>
      </g>
     </g>
    </g>
    <g id="xtick_9">
     <g id="line2d_17">
      <path d="M 400.118703 307.584 
L 400.118703 41.472 
" clip-path="url(#p4e4e4a6c73)" style="fill: none; stroke: #b0b0b0; stroke-width: 0.8; stroke-linecap: square"/>
     </g>
     <g id="line2d_18">
      <g>
       <use xlink:href="#m9d270a7c9c" x="400.118703" y="307.584" style="stroke: #000000; stroke-width: 0.8"/>
      </g>
     </g>
     <g id="text_9">
      <!-- 200 -->
      <g transform="translate(390.574953 322.182437)scale(0.1 -0.1)">
       <use xlink:href="#DejaVuSans-32"/>
       <use xlink:href="#DejaVuSans-30" x="63.623047"/>
       <use xlink:href="#DejaVuSans-30" x="127.246094"/>
      </g>
     </g>
    </g>
    <g id="text_10">
     <!-- Generations -->
     <g transform="translate(205.662344 335.860562)scale(0.1 -0.1)">
      <defs>
       <path id="DejaVuSans-47" d="M 3809 666 
L 3809 1919 
L 2778 1919 
L 2778 2438 
L 4434 2438 
L 4434 434 
Q 4069 175 3628 42 
Q 3188 -91 2688 -91 
Q 1594 -91 976 548 
Q 359 1188 359 2328 
Q 359 3472 976 4111 
Q 1594 4750 2688 4750 
Q 3144 4750 3555 4637 
Q 3966 4525 4313 4306 
L 4313 3634 
Q 3963 3931 3569 4081 
Q 3175 4231 2741 4231 
Q 1884 4231 1454 3753 
Q 1025 3275 1025 2328 
Q 1025 1384 1454 906 
Q 1884 428 2741 428 
Q 3075 428 3337 486 
Q 3600 544 3809 666 
z
" transform="scale(0.015625)"/>
       <path id="DejaVuSans-65" d="M 3597 1894 
L 3597 1613 
L 953 1613 
Q 991 1019 1311 708 
Q 1631 397 2203 397 
Q 2534 397 2845 478 
Q 3156 559 3463 722 
L 3463 178 
Q 3153 47 2828 -22 
Q 2503 -91 2169 -91 
Q 1331 -91 842 396 
Q 353 884 353 1716 
Q 353 2575 817 3079 
Q 1281 3584 2069 3584 
Q 2775 3584 3186 3129 
Q 3597 2675 3597 1894 
z
M 3022 2063 
Q 3016 2534 2758 2815 
Q 2500 3097 2075 3097 
Q 1594 3097 1305 2825 
Q 1016 2553 972 2059 
L 3022 2063 
z
" transform="scale(0.015625)"/>
       <path id="DejaVuSans-6e" d="M 3513 2113 
L 3513 0 
L 2938 0 
L 2938 2094 
Q 2938 2591 2744 2837 
Q 2550 3084 2163 3084 
Q 1697 3084 1428 2787 
Q 1159 2491 1159 1978 
L 1159 0 
L 581 0 
L 581 3500 
L 1159 3500 
L 1159 2956 
Q 1366 3272 1645 3428 
Q 1925 3584 2291 3584 
Q 2894 3584 3203 3211 
Q 3513 2838 3513 2113 
z
" transform="scale(0.015625)"/>
       <path id="DejaVuSans-72" d="M 2631 2963 
Q 2534 3019 2420 3045 
Q 2306 3072 2169 3072 
Q 1681 3072 1420 2755 
Q 1159 2438 1159 1844 
L 1159 0 
L 581 0 
L 581 3500 
L 1159 3500 
L 1159 2956 
Q 1341 3275 1631 3429 
Q 1922 3584 2338 3584 
Q 2397 3584 2469 3576 
Q 2541 3569 2628 3553 
L 2631 2963 
z
" transform="scale(0.015625)"/>
       <path id="DejaVuSans-61" d="M 2194 1759 
Q 1497 1759 1228 1600 
Q 959 1441 959 1056 
Q 959 750 1161 570 
Q 1363 391 1709 391 
Q 2188 391 2477 730 
Q 2766 1069 2766 1631 
L 2766 1759 
L 2194 1759 
z
M 3341 1997 
L 3341 0 
L 2766 0 
L 2766 531 
Q 2569 213 2275 61 
Q 1981 -91 1556 -91 
Q 1019 -91 701 211 
Q 384 513 384 1019 
Q 384 1609 779 1909 
Q 1175 2209 1959 2209 
L 2766 2209 
L 2766 2266 
Q 2766 2663 2505 2880 
Q 2244 3097 1772 3097 
Q 1472 3097 1187 3025 
Q 903 2953 641 2809 
L 641 3341 
Q 956 3463 1253 3523 
Q 1550 3584 1831 3584 
Q 2591 3584 2966 3190 
Q 3341 2797 3341 1997 
z
" transform="scale(0.015625)"/>
       <path id="DejaVuSans-74" d="M 1172 4494 
L 1172 3500 
L 2356 3500 
L 2356 3053 
L 1172 3053 
L 1172 1153 
Q 1172 725 1289 603 
Q 1406 481 1766 481 
L 2356 481 
L 2356 0 
L 1766 0 
Q 1100 0 847 248 
Q 594 497 594 1153 
L 594 3053 
L 172 3053 
L 172 3500 
L 594 3500 
L 594 4494 
L 1172 4494 
z
" transform="scale(0.015625)"/>
       <path id="DejaVuSans-69" d="M 603 3500 
L 1178 3500 
L 1178 0 
L 603 0 
L 603 3500 
z
M 603 4863 
L 1178 4863 
L 1178 4134 
L 603 4134 
L 603 4863 
z
" transform="scale(0.015625)"/>
       <path id="DejaVuSans-6f" d="M 1959 3097 
Q 1497 3097 1228 2736 
Q 959 2375 959 1747 
Q 959 1119 1226 758 
Q 1494 397 1959 397 
Q 2419 397 2687 759 
Q 2956 1122 2956 1747 
Q 2956 2369 2687 2733 
Q 2419 3097 1959 3097 
z
M 1959 3584 
Q 2709 3584 3137 3096 
Q 3566 2609 3566 1747 
Q 3566 888 3137 398 
Q 2709 -91 1959 -91 
Q 1206 -91 779 398 
Q 353 888 353 1747 
Q 353 2609 779 3096 
Q 1206 3584 1959 3584 
z
" transform="scale(0.015625)"/>
       <path id="DejaVuSans-73" d="M 2834 3397 
L 2834 2853 
Q 2591 2978 2328 3040 
Q 2066 3103 1784 3103 
Q 1356 3103 1142 2972 
Q 928 2841 928 2578 
Q 928 2378 1081 2264 
Q 1234 2150 1697 2047 
L 1894 2003 
Q 2506 1872 2764 1633 
Q 3022 1394 3022 966 
Q 3022 478 2636 193 
Q 2250 -91 1575 -91 
Q 1294 -91 989 -36 
Q 684 19 347 128 
L 347 722 
Q 666 556 975 473 
Q 1284 391 1588 391 
Q 1994 391 2212 530 
Q 2431 669 2431 922 
Q 2431 1156 2273 1281 
Q 2116 1406 1581 1522 
L 1381 1569 
Q 847 1681 609 1914 
Q 372 2147 372 2553 
Q 372 3047 722 3315 
Q 1072 3584 1716 3584 
Q 2034 3584 2315 3537 
Q 2597 3491 2834 3397 
z
" transform="scale(0.015625)"/>
      </defs>
      <use xlink:href="#DejaVuSans-47"/>
      <use xlink:href="#DejaVuSans-65" x="77.490234"/>
      <use xlink:href="#DejaVuSans-6e" x="139.013672"/>
      <use xlink:href="#DejaVuSans-65" x="202.392578"/>
      <use xlink:href="#DejaVuSans-72" x="263.916016"/>
      <use xlink:href="#DejaVuSans-61" x="305.029297"/>
      <use xlink:href="#DejaVuSans-74" x="366.308594"/>
      <use xlink:href="#DejaVuSans-69" x="405.517578"/>
      <use xlink:href="#DejaVuSans-6f" x="433.300781"/>
      <use xlink:href="#DejaVuSans-6e" x="494.482422"/>
      <use xlink:href="#DejaVuSans-73" x="557.861328"/>
     </g>
    </g>
   </g>
   <g id="matplotlib.axis_2">
    <g id="ytick_1">
     <g id="line2d_19">
      <path d="M 57.6 290.198726 
L 414.72 290.198726 
" clip-path="url(#p4e4e4a6c73)" style="fill: none; stroke: #b0b0b0; stroke-width: 0.8; stroke-linecap: square"/>
     </g>
     <g id="line2d_20">
      <defs>
       <path id="mf7631da3de" d="M 0 0 
L -3.5 0 
" style="stroke: #000000; stroke-width: 0.8"/>
      </defs>
      <g>
       <use xlink:href="#mf7631da3de" x="57.6" y="290.198726" style="stroke: #000000; stroke-width: 0.8"/>
      </g>
     </g>
     <g id="text_11">
      <!-- 0 -->
      <g transform="translate(44.2375 293.997944)scale(0.1 -0.1)">
       <use xlink:href="#DejaVuSans-30"/>
      </g>
     </g>
    </g>
    <g id="ytick_2">
     <g id="line2d_21">
      <path d="M 57.6 239.630166 
L 414.72 239.630166 
" clip-path="url(#p4e4e4a6c73)" style="fill: none; stroke: #b0b0b0; stroke-width: 0.8; stroke-linecap: square"/>
     </g>
     <g id="line2d_22">
      <g>
       <use xlink:href="#mf7631da3de" x="57.6" y="239.630166" style="stroke: #000000; stroke-width: 0.8"/>
      </g>
     </g>
     <g id="text_12">
      <!-- 20 -->
      <g transform="translate(37.875 243.429385)scale(0.1 -0.1)">
       <use xlink:href="#DejaVuSans-32"/>
       <use xlink:href="#DejaVuSans-30" x="63.623047"/>
      </g>
     </g>
    </g>
    <g id="ytick_3">
     <g id="line2d_23">
      <path d="M 57.6 189.061606 
L 414.72 189.061606 
" clip-path="url(#p4e4e4a6c73)" style="fill: none; stroke: #b0b0b0; stroke-width: 0.8; stroke-linecap: square"/>
     </g>
     <g id="line2d_24">
      <g>
       <use xlink:href="#mf7631da3de" x="57.6" y="189.061606" style="stroke: #000000; stroke-width: 0.8"/>
      </g>
     </g>
     <g id="text_13">
      <!-- 40 -->
      <g transform="translate(37.875 192.860825)scale(0.1 -0.1)">
       <defs>
        <path id="DejaVuSans-34" d="M 2419 4116 
L 825 1625 
L 2419 1625 
L 2419 4116 
z
M 2253 4666 
L 3047 4666 
L 3047 1625 
L 3713 1625 
L 3713 1100 
L 3047 1100 
L 3047 0 
L 2419 0 
L 2419 1100 
L 313 1100 
L 313 1709 
L 2253 4666 
z
" transform="scale(0.015625)"/>
       </defs>
       <use xlink:href="#DejaVuSans-34"/>
       <use xlink:href="#DejaVuSans-30" x="63.623047"/>
      </g>
     </g>
    </g>
    <g id="ytick_4">
     <g id="line2d_25">
      <path d="M 57.6 138.493046 
L 414.72 138.493046 
" clip-path="url(#p4e4e4a6c73)" style="fill: none; stroke: #b0b0b0; stroke-width: 0.8; stroke-linecap: square"/>
     </g>
     <g id="line2d_26">
      <g>
       <use xlink:href="#mf7631da3de" x="57.6" y="138.493046" style="stroke: #000000; stroke-width: 0.8"/>
      </g>
     </g>
     <g id="text_14">
      <!-- 60 -->
      <g transform="translate(37.875 142.292265)scale(0.1 -0.1)">
       <defs>
        <path id="DejaVuSans-36" d="M 2113 2584 
Q 1688 2584 1439 2293 
Q 1191 2003 1191 1497 
Q 1191 994 1439 701 
Q 1688 409 2113 409 
Q 2538 409 2786 701 
Q 3034 994 3034 1497 
Q 3034 2003 2786 2293 
Q 2538 2584 2113 2584 
z
M 3366 4563 
L 3366 3988 
Q 3128 4100 2886 4159 
Q 2644 4219 2406 4219 
Q 1781 4219 1451 3797 
Q 1122 3375 1075 2522 
Q 1259 2794 1537 2939 
Q 1816 3084 2150 3084 
Q 2853 3084 3261 2657 
Q 3669 2231 3669 1497 
Q 3669 778 3244 343 
Q 2819 -91 2113 -91 
Q 1303 -91 875 529 
Q 447 1150 447 2328 
Q 447 3434 972 4092 
Q 1497 4750 2381 4750 
Q 2619 4750 2861 4703 
Q 3103 4656 3366 4563 
z
" transform="scale(0.015625)"/>
       </defs>
       <use xlink:href="#DejaVuSans-36"/>
       <use xlink:href="#DejaVuSans-30" x="63.623047"/>
      </g>
     </g>
    </g>
    <g id="ytick_5">
     <g id="line2d_27">
      <path d="M 57.6 87.924486 
L 414.72 87.924486 
" clip-path="url(#p4e4e4a6c73)" style="fill: none; stroke: #b0b0b0; stroke-width: 0.8; stroke-linecap: square"/>
     </g>
     <g id="line2d_28">
      <g>
       <use xlink:href="#mf7631da3de" x="57.6" y="87.924486" style="stroke: #000000; stroke-width: 0.8"/>
      </g>
     </g>
     <g id="text_15">
      <!-- 80 -->
      <g transform="translate(37.875 91.723705)scale(0.1 -0.1)">
       <defs>
        <path id="DejaVuSans-38" d="M 2034 2216 
Q 1584 2216 1326 1975 
Q 1069 1734 1069 1313 
Q 1069 891 1326 650 
Q 1584 409 2034 409 
Q 2484 409 2743 651 
Q 3003 894 3003 1313 
Q 3003 1734 2745 1975 
Q 2488 2216 2034 2216 
z
M 1403 2484 
Q 997 2584 770 2862 
Q 544 3141 544 3541 
Q 544 4100 942 4425 
Q 1341 4750 2034 4750 
Q 2731 4750 3128 4425 
Q 3525 4100 3525 3541 
Q 3525 3141 3298 2862 
Q 3072 2584 2669 2484 
Q 3125 2378 3379 2068 
Q 3634 1759 3634 1313 
Q 3634 634 3220 271 
Q 2806 -91 2034 -91 
Q 1263 -91 848 271 
Q 434 634 434 1313 
Q 434 1759 690 2068 
Q 947 2378 1403 2484 
z
M 1172 3481 
Q 1172 3119 1398 2916 
Q 1625 2713 2034 2713 
Q 2441 2713 2670 2916 
Q 2900 3119 2900 3481 
Q 2900 3844 2670 4047 
Q 2441 4250 2034 4250 
Q 1625 4250 1398 4047 
Q 1172 3844 1172 3481 
z
" transform="scale(0.015625)"/>
       </defs>
       <use xlink:href="#DejaVuSans-38"/>
       <use xlink:href="#DejaVuSans-30" x="63.623047"/>
      </g>
     </g>
    </g>
    <g id="text_16">
     <!-- Fitness -->
     <g transform="translate(31.795312 191.845187)rotate(-90)scale(0.1 -0.1)">
      <defs>
       <path id="DejaVuSans-46" d="M 628 4666 
L 3309 4666 
L 3309 4134 
L 1259 4134 
L 1259 2759 
L 3109 2759 
L 3109 2228 
L 1259 2228 
L 1259 0 
L 628 0 
L 628 4666 
z
" transform="scale(0.015625)"/>
      </defs>
      <use xlink:href="#DejaVuSans-46"/>
      <use xlink:href="#DejaVuSans-69" x="50.269531"/>
      <use xlink:href="#DejaVuSans-74" x="78.052734"/>
      <use xlink:href="#DejaVuSans-6e" x="117.261719"/>
      <use xlink:href="#DejaVuSans-65" x="180.640625"/>
      <use xlink:href="#DejaVuSans-73" x="242.164062"/>
      <use xlink:href="#DejaVuSans-73" x="294.263672"/>
     </g>
    </g>
   </g>
   <g id="line2d_29">
    <path d="M 73.832727 269.135099 
L 75.464157 268.786782 
L 77.095587 264.000566 
L 78.727017 264.544569 
L 80.358447 264.391015 
L 81.989877 267.031084 
L 83.621307 269.40469 
L 85.252736 266.956666 
L 86.884166 263.946659 
L 88.515596 261.337431 
L 90.147026 263.867922 
L 91.778456 266.040994 
L 93.409886 266.970994 
L 95.041316 265.221964 
L 96.672746 266.388537 
L 98.304175 263.817487 
L 99.935605 264.246914 
L 101.567035 264.245109 
L 103.198465 264.367327 
L 104.829895 268.584882 
L 106.461325 262.414303 
L 108.092755 264.598771 
L 109.724185 264.880263 
L 111.355614 264.076902 
L 112.987044 266.604837 
L 114.618474 263.416905 
L 117.881334 264.234572 
L 119.512764 268.082728 
L 121.144194 265.405682 
L 122.775624 263.388317 
L 124.407053 265.577814 
L 126.038483 265.902437 
L 127.669913 263.061071 
L 129.301343 264.00355 
L 130.932773 264.11017 
L 132.564203 263.674641 
L 134.195633 264.604017 
L 135.827063 265.331957 
L 137.458492 265.034123 
L 139.089922 264.425916 
L 140.721352 264.937811 
L 142.352782 264.181914 
L 143.984212 264.800138 
L 145.615642 266.093947 
L 147.247072 259.065254 
L 148.878502 261.230622 
L 150.509931 260.581684 
L 152.141361 262.974197 
L 153.772791 267.167052 
L 155.404221 266.154565 
L 157.035651 259.961763 
L 158.667081 262.267821 
L 160.298511 264.060775 
L 161.929941 264.581209 
L 163.56137 261.401783 
L 165.1928 262.404376 
L 166.82423 268.247627 
L 168.45566 257.781974 
L 170.08709 258.270437 
L 171.71852 260.501545 
L 173.34995 256.173407 
L 174.98138 261.054779 
L 176.61281 259.214765 
L 178.244239 254.173394 
L 179.875669 261.253345 
L 181.507099 259.77557 
L 183.138529 257.648924 
L 184.769959 259.302034 
L 186.401389 257.347501 
L 188.032819 259.187075 
L 189.664249 253.741043 
L 191.295678 255.780687 
L 192.927108 256.522664 
L 194.558538 253.802962 
L 196.189968 258.521117 
L 197.821398 254.89138 
L 199.452828 257.912401 
L 201.084258 257.997282 
L 202.715688 256.562399 
L 204.347117 254.429499 
L 205.978547 253.644908 
L 207.609977 258.164742 
L 209.241407 255.782955 
L 210.872837 256.672187 
L 212.504267 252.159272 
L 214.135697 250.507073 
L 215.767127 256.050792 
L 217.398556 253.913533 
L 219.029986 252.729362 
L 220.661416 254.410448 
L 222.292846 256.745277 
L 223.924276 255.535158 
L 225.555706 254.831544 
L 227.187136 259.625367 
L 228.818566 256.778894 
L 230.449995 254.42217 
L 232.081425 257.656232 
L 233.712855 257.183507 
L 235.344285 254.317058 
L 236.975715 254.047517 
L 238.607145 257.069761 
L 240.238575 250.037091 
L 241.870005 251.061609 
L 243.501434 257.540261 
L 245.132864 256.041922 
L 246.764294 253.206496 
L 248.395724 253.733119 
L 250.027154 259.12327 
L 251.658584 252.93982 
L 254.921444 255.916938 
L 256.552873 253.504644 
L 258.184303 251.760539 
L 259.815733 256.023269 
L 261.447163 252.517176 
L 263.078593 258.113488 
L 264.710023 254.494106 
L 266.341453 253.96824 
L 267.972883 252.082673 
L 269.604312 256.457694 
L 271.235742 256.505346 
L 274.498602 258.275519 
L 276.130032 259.1618 
L 277.761462 258.986688 
L 279.392892 261.252116 
L 281.024322 255.903297 
L 282.655751 255.92911 
L 284.287181 253.037937 
L 285.918611 255.96814 
L 287.550041 253.8859 
L 289.181471 254.996217 
L 290.812901 260.108728 
L 292.444331 253.683729 
L 294.075761 255.081637 
L 295.70719 257.745577 
L 297.33862 254.846863 
L 298.97005 255.252986 
L 300.60148 257.030488 
L 302.23291 260.13646 
L 303.86434 254.706586 
L 305.49577 259.90875 
L 307.1272 258.801317 
L 308.75863 258.81247 
L 310.390059 257.879275 
L 312.021489 255.59561 
L 313.652919 255.955855 
L 315.284349 254.616466 
L 316.915779 258.693734 
L 318.547209 259.16184 
L 320.178639 253.300458 
L 321.810069 260.416548 
L 323.441498 257.703797 
L 325.072928 257.892377 
L 326.704358 261.618549 
L 328.335788 254.443224 
L 329.967218 258.571365 
L 331.598648 255.112662 
L 333.230078 256.613453 
L 334.861508 261.084444 
L 336.492937 260.727885 
L 338.124367 259.304994 
L 339.755797 258.107286 
L 341.387227 255.084764 
L 343.018657 258.815499 
L 344.650087 255.395433 
L 346.281517 256.389536 
L 347.912947 263.737895 
L 349.544376 256.464986 
L 351.175806 258.965732 
L 352.807236 253.162367 
L 354.438666 253.551099 
L 356.070096 257.183175 
L 357.701526 255.503927 
L 359.332956 254.25409 
L 360.964386 255.790534 
L 362.595815 252.870674 
L 364.227245 255.226617 
L 365.858675 252.979907 
L 367.490105 258.309706 
L 369.121535 256.389081 
L 370.752965 259.526917 
L 372.384395 257.347247 
L 374.015825 256.943829 
L 375.647254 254.403349 
L 377.278684 259.754825 
L 378.910114 257.310072 
L 380.541544 258.597447 
L 382.172974 261.815833 
L 383.804404 263.322786 
L 385.435834 258.968168 
L 387.067264 258.786963 
L 388.698693 258.179105 
L 390.330123 260.55553 
L 391.961553 261.987886 
L 393.592983 261.601219 
L 395.224413 258.903527 
L 396.855843 257.136884 
L 398.487273 260.053179 
L 398.487273 260.053179 
" clip-path="url(#p4e4e4a6c73)" style="fill: none; stroke: #0000ff; stroke-width: 1.5; stroke-linecap: square"/>
   </g>
   <g id="line2d_30">
    <path d="M 73.832727 288.859008 
L 75.464157 283.230799 
L 77.095587 283.592528 
L 78.727017 286.36271 
L 80.358447 289.572311 
L 81.989877 292.402485 
L 83.621307 291.955034 
L 85.252736 294.757408 
L 86.884166 288.230613 
L 88.515596 289.307084 
L 90.147026 287.907865 
L 91.778456 290.756402 
L 93.409886 287.159165 
L 95.041316 283.998348 
L 96.672746 284.213148 
L 98.304175 286.313633 
L 99.935605 287.245855 
L 101.567035 290.115971 
L 103.198465 290.385838 
L 104.829895 288.779462 
L 106.461325 285.934391 
L 108.092755 284.190961 
L 109.724185 287.368818 
L 111.355614 289.145577 
L 112.987044 291.399336 
L 114.618474 292.170602 
L 116.249904 288.072739 
L 117.881334 294.380352 
L 119.512764 289.733588 
L 121.144194 287.835153 
L 122.775624 291.347828 
L 124.407053 287.292093 
L 126.038483 286.312597 
L 127.669913 288.624039 
L 129.301343 288.068896 
L 130.932773 289.650045 
L 132.564203 288.828076 
L 134.195633 288.607224 
L 135.827063 290.709039 
L 139.089922 285.421527 
L 140.721352 291.646446 
L 142.352782 285.389004 
L 143.984212 288.295694 
L 145.615642 291.855889 
L 147.247072 284.971802 
L 148.878502 283.953834 
L 150.509931 287.550108 
L 152.141361 287.05012 
L 153.772791 295.488 
L 155.404221 289.863582 
L 157.035651 286.097678 
L 158.667081 289.403586 
L 160.298511 290.298118 
L 161.929941 290.338808 
L 163.56137 291.605287 
L 165.1928 289.399946 
L 166.82423 291.077052 
L 168.45566 286.569612 
L 170.08709 284.462847 
L 173.34995 281.725444 
L 174.98138 285.72425 
L 176.61281 288.875355 
L 178.244239 280.54418 
L 179.875669 291.619093 
L 181.507099 287.082463 
L 183.138529 286.08735 
L 184.769959 285.352812 
L 186.401389 282.332387 
L 188.032819 284.903611 
L 189.664249 281.827336 
L 191.295678 287.635942 
L 192.927108 282.673846 
L 194.558538 285.202086 
L 196.189968 284.981386 
L 197.821398 282.70727 
L 201.084258 285.929876 
L 202.715688 281.990382 
L 204.347117 282.320509 
L 205.978547 282.137534 
L 207.609977 282.933096 
L 209.241407 281.142381 
L 210.872837 283.291649 
L 212.504267 278.898122 
L 214.135697 280.160666 
L 215.767127 282.34453 
L 217.398556 282.416356 
L 219.029986 281.226276 
L 220.661416 283.404219 
L 222.292846 285.009281 
L 223.924276 283.898444 
L 225.555706 283.605415 
L 227.187136 283.868071 
L 228.818566 284.731574 
L 230.449995 288.075138 
L 232.081425 288.553294 
L 233.712855 285.623232 
L 235.344285 287.090745 
L 236.975715 280.099654 
L 238.607145 285.538157 
L 240.238575 277.893929 
L 241.870005 282.893766 
L 243.501434 283.676579 
L 245.132864 281.513724 
L 246.764294 282.123159 
L 248.395724 283.081643 
L 250.027154 286.576162 
L 253.290014 278.580608 
L 254.921444 285.961454 
L 256.552873 284.620177 
L 258.184303 282.472345 
L 259.815733 283.822864 
L 261.447163 279.667036 
L 263.078593 282.309891 
L 264.710023 280.859105 
L 266.341453 281.190788 
L 267.972883 280.2333 
L 269.604312 282.535851 
L 271.235742 285.892282 
L 272.867172 282.503449 
L 274.498602 286.300223 
L 276.130032 286.213155 
L 277.761462 283.677117 
L 279.392892 287.326225 
L 281.024322 283.72372 
L 282.655751 286.520481 
L 284.287181 281.600212 
L 285.918611 279.897694 
L 287.550041 282.598957 
L 289.181471 284.723271 
L 290.812901 288.34499 
L 292.444331 287.155338 
L 294.075761 282.289417 
L 295.70719 286.989062 
L 298.97005 286.816197 
L 300.60148 284.148232 
L 302.23291 288.975386 
L 303.86434 282.124939 
L 305.49577 288.546286 
L 307.1272 286.206807 
L 308.75863 285.12902 
L 310.390059 283.196379 
L 312.021489 284.834525 
L 313.652919 285.305518 
L 315.284349 285.615586 
L 316.915779 287.661031 
L 318.547209 283.426554 
L 320.178639 283.176546 
L 321.810069 291.023312 
L 323.441498 287.96478 
L 325.072928 287.681661 
L 326.704358 286.203355 
L 328.335788 285.988543 
L 329.967218 282.47095 
L 331.598648 286.473513 
L 333.230078 284.459952 
L 334.861508 286.31399 
L 336.492937 290.725471 
L 338.124367 286.327634 
L 339.755797 287.126652 
L 341.387227 285.172176 
L 343.018657 284.810576 
L 344.650087 282.699062 
L 346.281517 284.242253 
L 347.912947 291.443169 
L 349.544376 283.145772 
L 351.175806 280.675241 
L 352.807236 282.069305 
L 354.438666 284.837514 
L 356.070096 283.338158 
L 357.701526 286.964045 
L 359.332956 283.160959 
L 360.964386 281.483204 
L 362.595815 280.319987 
L 364.227245 282.071993 
L 365.858675 282.748853 
L 367.490105 287.823286 
L 369.121535 285.205223 
L 370.752965 285.369216 
L 372.384395 283.003806 
L 374.015825 285.899287 
L 375.647254 281.561864 
L 377.278684 283.277171 
L 378.910114 282.110046 
L 380.541544 282.877113 
L 382.172974 292.684861 
L 383.804404 291.072542 
L 385.435834 285.51165 
L 387.067264 292.341216 
L 388.698693 283.626984 
L 390.330123 286.450696 
L 391.961553 288.202981 
L 393.592983 289.600229 
L 395.224413 287.650492 
L 396.855843 288.463222 
L 398.487273 286.264895 
L 398.487273 286.264895 
" clip-path="url(#p4e4e4a6c73)" style="fill: none; stroke-dasharray: 9.6,2.4,1.5,2.4; stroke-dashoffset: 0; stroke: #008000; stroke-width: 1.5"/>
   </g>
   <g id="line2d_31">
    <path d="M 73.832727 249.41119 
L 75.464157 254.342765 
L 77.095587 244.408604 
L 78.727017 242.726429 
L 80.358447 239.20972 
L 81.989877 241.659684 
L 83.621307 246.854346 
L 85.252736 239.155924 
L 86.884166 239.662706 
L 88.515596 233.367779 
L 90.147026 239.827979 
L 91.778456 241.325585 
L 93.409886 246.782822 
L 95.041316 246.445581 
L 96.672746 248.563926 
L 98.304175 241.321342 
L 99.935605 241.247972 
L 101.567035 238.374246 
L 103.198465 238.348816 
L 104.829895 248.390303 
L 106.461325 238.894214 
L 108.092755 245.006582 
L 109.724185 242.391708 
L 111.355614 239.008227 
L 112.987044 241.810337 
L 114.618474 234.663208 
L 116.249904 239.618014 
L 117.881334 234.088791 
L 119.512764 246.431868 
L 121.144194 242.976212 
L 122.775624 235.428806 
L 124.407053 243.863534 
L 126.038483 245.492278 
L 127.669913 237.498103 
L 129.301343 239.938204 
L 130.932773 238.570295 
L 132.564203 238.521206 
L 134.195633 240.60081 
L 135.827063 239.954876 
L 137.458492 241.968317 
L 139.089922 243.430306 
L 140.721352 238.229176 
L 142.352782 242.974823 
L 143.984212 241.304581 
L 145.615642 240.332006 
L 147.247072 233.158706 
L 148.878502 238.507409 
L 150.509931 233.613261 
L 152.141361 238.898274 
L 153.772791 238.846104 
L 155.404221 242.445549 
L 157.035651 233.825848 
L 158.667081 235.132057 
L 160.298511 237.823432 
L 161.929941 238.82361 
L 163.56137 231.198279 
L 165.1928 235.408806 
L 166.82423 245.418201 
L 168.45566 228.994337 
L 170.08709 232.078027 
L 171.71852 237.91535 
L 173.34995 230.621371 
L 174.98138 236.385307 
L 176.61281 229.554175 
L 178.244239 227.802608 
L 179.875669 230.887597 
L 181.507099 232.468677 
L 183.138529 229.210498 
L 184.769959 233.251255 
L 186.401389 232.362615 
L 188.032819 233.470539 
L 189.664249 225.654749 
L 191.295678 223.925432 
L 192.927108 230.371482 
L 194.558538 222.403837 
L 196.189968 232.060848 
L 197.821398 227.075489 
L 199.452828 231.532349 
L 201.084258 230.064688 
L 202.715688 231.134416 
L 204.347117 226.538489 
L 205.978547 225.152283 
L 207.609977 233.396388 
L 209.241407 230.423529 
L 210.872837 230.052724 
L 214.135697 220.853481 
L 215.767127 229.757054 
L 217.398556 225.41071 
L 219.029986 224.232449 
L 220.661416 225.416676 
L 222.292846 228.481273 
L 223.924276 227.171873 
L 225.555706 226.057673 
L 227.187136 235.382664 
L 228.818566 228.826214 
L 230.449995 220.769202 
L 232.081425 226.75917 
L 233.712855 228.743782 
L 235.344285 221.543372 
L 236.975715 227.99538 
L 238.607145 228.601364 
L 240.238575 222.180253 
L 241.870005 219.229452 
L 243.501434 231.403943 
L 245.132864 230.570121 
L 246.764294 224.289834 
L 248.395724 224.384596 
L 250.027154 231.670378 
L 251.658584 223.239843 
L 253.290014 230.254497 
L 254.921444 225.872422 
L 256.552873 222.38911 
L 258.184303 221.048733 
L 259.815733 228.223674 
L 261.447163 225.367315 
L 263.078593 233.917085 
L 264.710023 228.129106 
L 266.341453 226.745693 
L 267.972883 223.932045 
L 269.604312 230.379538 
L 271.235742 227.11841 
L 272.867172 232.185344 
L 274.498602 230.250814 
L 276.130032 232.110446 
L 277.761462 234.296259 
L 279.392892 235.178006 
L 281.024322 228.082875 
L 282.655751 225.337738 
L 284.287181 224.475661 
L 285.918611 232.038586 
L 287.550041 225.172843 
L 289.181471 225.269163 
L 290.812901 231.872466 
L 292.444331 220.212119 
L 294.075761 227.873857 
L 295.70719 228.502093 
L 297.33862 222.786344 
L 298.97005 223.689774 
L 300.60148 229.912745 
L 302.23291 231.297534 
L 303.86434 227.288233 
L 305.49577 231.271214 
L 307.1272 231.395826 
L 308.75863 232.495921 
L 310.390059 232.56217 
L 312.021489 226.356696 
L 313.652919 226.606192 
L 315.284349 223.617347 
L 316.915779 229.726437 
L 318.547209 234.897126 
L 320.178639 223.424371 
L 321.810069 229.809784 
L 323.441498 227.442814 
L 325.072928 228.103093 
L 326.704358 237.033744 
L 328.335788 222.897906 
L 329.967218 234.67178 
L 331.598648 223.751812 
L 333.230078 228.766953 
L 334.861508 235.854899 
L 336.492937 230.730299 
L 338.124367 232.282354 
L 339.755797 229.087921 
L 341.387227 224.997353 
L 343.018657 232.820422 
L 344.650087 228.091804 
L 346.281517 228.536818 
L 347.912947 236.032621 
L 349.544376 229.7842 
L 351.175806 237.256223 
L 352.807236 224.25543 
L 354.438666 222.264685 
L 356.070096 231.028192 
L 357.701526 224.04381 
L 359.332956 225.34722 
L 360.964386 230.097864 
L 362.595815 225.421362 
L 364.227245 228.38124 
L 365.858675 223.210961 
L 367.490105 228.796125 
L 369.121535 227.572938 
L 370.752965 233.684618 
L 372.384395 231.690687 
L 374.015825 227.98837 
L 375.647254 227.244834 
L 377.278684 236.232479 
L 378.910114 232.510098 
L 380.541544 234.31778 
L 382.172974 230.946806 
L 383.804404 235.57303 
L 385.435834 232.424685 
L 387.067264 225.232709 
L 388.698693 232.731227 
L 390.330123 234.660365 
L 391.961553 235.772791 
L 393.592983 233.60221 
L 395.224413 230.156563 
L 396.855843 225.810546 
L 398.487273 233.841463 
L 398.487273 233.841463 
" clip-path="url(#p4e4e4a6c73)" style="fill: none; stroke-dasharray: 9.6,2.4,1.5,2.4; stroke-dashoffset: 0; stroke: #008000; stroke-width: 1.5"/>
   </g>
   <g id="line2d_32">
    <path d="M 73.832727 140.94677 
L 75.464157 217.300907 
L 77.095587 164.355978 
L 78.727017 169.621385 
L 80.358447 108.274384 
L 83.621307 196.534217 
L 85.252736 53.568 
L 86.884166 151.634813 
L 88.515596 133.627917 
L 90.147026 174.273191 
L 91.778456 108.959954 
L 93.409886 193.157483 
L 95.041316 190.966537 
L 96.672746 213.269463 
L 98.304175 155.753234 
L 99.935605 168.379723 
L 101.567035 119.432068 
L 103.198465 110.004369 
L 104.829895 194.519476 
L 106.461325 175.280426 
L 108.092755 196.560507 
L 109.724185 119.01325 
L 111.355614 145.579216 
L 112.987044 151.787106 
L 114.618474 105.89319 
L 116.249904 168.013621 
L 117.881334 162.86106 
L 119.512764 179.825644 
L 121.144194 184.874008 
L 122.775624 138.373888 
L 124.407053 180.667208 
L 126.038483 176.020751 
L 127.669913 160.881542 
L 129.301343 156.286811 
L 130.932773 103.638903 
L 132.564203 154.45416 
L 134.195633 141.727803 
L 135.827063 137.329446 
L 137.458492 169.010067 
L 139.089922 190.164718 
L 140.721352 110.764095 
L 142.352782 191.791569 
L 143.984212 109.181658 
L 145.615642 149.146355 
L 147.247072 162.552497 
L 148.878502 164.76545 
L 152.141361 141.150845 
L 153.772791 160.907392 
L 155.404221 150.902773 
L 157.035651 122.905955 
L 158.667081 141.864505 
L 160.298511 127.90666 
L 161.929941 135.817692 
L 163.56137 63.036694 
L 165.1928 160.266474 
L 166.82423 184.309534 
L 168.45566 144.37537 
L 170.08709 177.789563 
L 171.71852 200.153913 
L 173.34995 135.483979 
L 174.98138 172.71285 
L 176.61281 152.172496 
L 178.244239 135.458828 
L 179.875669 129.824241 
L 181.507099 151.881404 
L 183.138529 134.622924 
L 184.769959 157.086125 
L 186.401389 171.582942 
L 188.032819 119.397754 
L 189.664249 157.308101 
L 191.295678 133.34446 
L 192.927108 161.662883 
L 194.558538 115.475001 
L 196.189968 175.404505 
L 197.821398 140.420431 
L 199.452828 170.920413 
L 201.084258 121.623095 
L 202.715688 183.40803 
L 204.347117 133.692193 
L 205.978547 124.276328 
L 207.609977 141.848905 
L 209.241407 168.447469 
L 210.872837 150.999327 
L 212.504267 175.846321 
L 214.135697 150.204226 
L 215.767127 189.726472 
L 217.398556 120.863532 
L 219.029986 167.222728 
L 220.661416 129.450563 
L 222.292846 124.201184 
L 223.924276 126.815622 
L 225.555706 116.160741 
L 227.187136 149.726878 
L 228.818566 176.019509 
L 230.449995 137.79319 
L 232.081425 107.832151 
L 233.712855 170.010591 
L 235.344285 126.654095 
L 236.975715 173.463632 
L 238.607145 158.777225 
L 240.238575 150.789921 
L 241.870005 132.114302 
L 243.501434 175.552595 
L 245.132864 188.679828 
L 246.764294 117.446583 
L 248.395724 158.167301 
L 250.027154 113.660683 
L 251.658584 122.728865 
L 253.290014 187.751599 
L 254.921444 151.29428 
L 256.552873 169.287453 
L 258.184303 146.356559 
L 259.815733 180.189603 
L 261.447163 161.642041 
L 263.078593 178.975002 
L 264.710023 177.840752 
L 266.341453 153.424121 
L 267.972883 151.394709 
L 269.604312 169.611872 
L 271.235742 110.575534 
L 272.867172 179.658925 
L 274.498602 188.210688 
L 276.130032 162.43139 
L 277.761462 138.751818 
L 279.392892 197.99894 
L 281.024322 158.300866 
L 282.655751 124.985746 
L 284.287181 166.162037 
L 285.918611 180.501356 
L 287.550041 156.139795 
L 289.181471 148.774524 
L 290.812901 148.501086 
L 292.444331 74.204516 
L 294.075761 163.860364 
L 295.70719 179.986942 
L 297.33862 151.977967 
L 298.97005 63.30276 
L 300.60148 174.427558 
L 302.23291 151.728974 
L 303.86434 167.439007 
L 305.49577 153.579186 
L 307.1272 170.53507 
L 308.75863 180.883487 
L 310.390059 172.936134 
L 312.021489 176.202412 
L 313.652919 61.904943 
L 316.915779 152.182261 
L 318.547209 192.590239 
L 320.178639 154.46231 
L 321.810069 130.814426 
L 323.441498 139.155261 
L 325.072928 153.568716 
L 326.704358 142.126611 
L 328.335788 106.778913 
L 329.967218 185.737244 
L 331.598648 97.884735 
L 333.230078 120.521926 
L 334.861508 182.74786 
L 336.492937 162.436862 
L 338.124367 136.862741 
L 339.755797 140.041558 
L 341.387227 155.481286 
L 343.018657 177.722179 
L 344.650087 173.721686 
L 346.281517 166.160726 
L 347.912947 153.081137 
L 349.544376 166.653806 
L 351.175806 197.515149 
L 352.807236 100.408055 
L 354.438666 113.080379 
L 356.070096 176.503217 
L 357.701526 102.230514 
L 359.332956 153.747174 
L 360.964386 163.478812 
L 362.595815 137.299195 
L 364.227245 156.331919 
L 365.858675 127.377752 
L 367.490105 129.327033 
L 369.121535 176.323044 
L 370.752965 175.618817 
L 372.384395 169.887025 
L 374.015825 161.506017 
L 375.647254 159.957535 
L 377.278684 190.523884 
L 378.910114 139.230324 
L 380.541544 170.590328 
L 382.172974 112.569176 
L 383.804404 165.484794 
L 385.435834 168.908043 
L 387.067264 81.43766 
L 388.698693 162.026006 
L 390.330123 157.897038 
L 391.961553 191.742433 
L 393.592983 171.620926 
L 395.224413 176.510951 
L 396.855843 129.290968 
L 398.487273 150.114406 
L 398.487273 150.114406 
" clip-path="url(#p4e4e4a6c73)" style="fill: none; stroke: #ff0000; stroke-width: 1.5; stroke-linecap: square"/>
   </g>
   <g id="patch_3">
    <path d="M 57.6 307.584 
L 57.6 41.472 
" style="fill: none; stroke: #000000; stroke-width: 0.8; stroke-linejoin: miter; stroke-linecap: square"/>
   </g>
   <g id="patch_4">
    <path d="M 414.72 307.584 
L 414.72 41.472 
" style="fill: none; stroke: #000000; stroke-width: 0.8; stroke-linejoin: miter; stroke-linecap: square"/>
   </g>
   <g id="patch_5">
    <path d="M 57.6 307.584 
L 414.72 307.584 
" style="fill: none; stroke: #000000; stroke-width: 0.8; stroke-linejoin: miter; stroke-linecap: square"/>
   </g>
   <g id="patch_6">
    <path d="M 57.6 41.472 
L 414.72 41.472 
" style="fill: none; stroke: #000000; stroke-width: 0.8; stroke-linejoin: miter; stroke-linecap: square"/>
   </g>
   <g id="text_17">
    <!-- Population's average and best fitness -->
    <g transform="translate(123.529687 35.472)scale(0.12 -0.12)">
     <defs>
      <path id="DejaVuSans-50" d="M 1259 4147 
L 1259 2394 
L 2053 2394 
Q 2494 2394 2734 2622 
Q 2975 2850 2975 3272 
Q 2975 3691 2734 3919 
Q 2494 4147 2053 4147 
L 1259 4147 
z
M 628 4666 
L 2053 4666 
Q 2838 4666 3239 4311 
Q 3641 3956 3641 3272 
Q 3641 2581 3239 2228 
Q 2838 1875 2053 1875 
L 1259 1875 
L 1259 0 
L 628 0 
L 628 4666 
z
" transform="scale(0.015625)"/>
      <path id="DejaVuSans-70" d="M 1159 525 
L 1159 -1331 
L 581 -1331 
L 581 3500 
L 1159 3500 
L 1159 2969 
Q 1341 3281 1617 3432 
Q 1894 3584 2278 3584 
Q 2916 3584 3314 3078 
Q 3713 2572 3713 1747 
Q 3713 922 3314 415 
Q 2916 -91 2278 -91 
Q 1894 -91 1617 61 
Q 1341 213 1159 525 
z
M 3116 1747 
Q 3116 2381 2855 2742 
Q 2594 3103 2138 3103 
Q 1681 3103 1420 2742 
Q 1159 2381 1159 1747 
Q 1159 1113 1420 752 
Q 1681 391 2138 391 
Q 2594 391 2855 752 
Q 3116 1113 3116 1747 
z
" transform="scale(0.015625)"/>
      <path id="DejaVuSans-75" d="M 544 1381 
L 544 3500 
L 1119 3500 
L 1119 1403 
Q 1119 906 1312 657 
Q 1506 409 1894 409 
Q 2359 409 2629 706 
Q 2900 1003 2900 1516 
L 2900 3500 
L 3475 3500 
L 3475 0 
L 2900 0 
L 2900 538 
Q 2691 219 2414 64 
Q 2138 -91 1772 -91 
Q 1169 -91 856 284 
Q 544 659 544 1381 
z
M 1991 3584 
L 1991 3584 
z
" transform="scale(0.015625)"/>
      <path id="DejaVuSans-6c" d="M 603 4863 
L 1178 4863 
L 1178 0 
L 603 0 
L 603 4863 
z
" transform="scale(0.015625)"/>
      <path id="DejaVuSans-27" d="M 1147 4666 
L 1147 2931 
L 616 2931 
L 616 4666 
L 1147 4666 
z
" transform="scale(0.015625)"/>
      <path id="DejaVuSans-20" transform="scale(0.015625)"/>
      <path id="DejaVuSans-76" d="M 191 3500 
L 800 3500 
L 1894 563 
L 2988 3500 
L 3597 3500 
L 2284 0 
L 1503 0 
L 191 3500 
z
" transform="scale(0.015625)"/>
      <path id="DejaVuSans-67" d="M 2906 1791 
Q 2906 2416 2648 2759 
Q 2391 3103 1925 3103 
Q 1463 3103 1205 2759 
Q 947 2416 947 1791 
Q 947 1169 1205 825 
Q 1463 481 1925 481 
Q 2391 481 2648 825 
Q 2906 1169 2906 1791 
z
M 3481 434 
Q 3481 -459 3084 -895 
Q 2688 -1331 1869 -1331 
Q 1566 -1331 1297 -1286 
Q 1028 -1241 775 -1147 
L 775 -588 
Q 1028 -725 1275 -790 
Q 1522 -856 1778 -856 
Q 2344 -856 2625 -561 
Q 2906 -266 2906 331 
L 2906 616 
Q 2728 306 2450 153 
Q 2172 0 1784 0 
Q 1141 0 747 490 
Q 353 981 353 1791 
Q 353 2603 747 3093 
Q 1141 3584 1784 3584 
Q 2172 3584 2450 3431 
Q 2728 3278 2906 2969 
L 2906 3500 
L 3481 3500 
L 3481 434 
z
" transform="scale(0.015625)"/>
      <path id="DejaVuSans-64" d="M 2906 2969 
L 2906 4863 
L 3481 4863 
L 3481 0 
L 2906 0 
L 2906 525 
Q 2725 213 2448 61 
Q 2172 -91 1784 -91 
Q 1150 -91 751 415 
Q 353 922 353 1747 
Q 353 2572 751 3078 
Q 1150 3584 1784 3584 
Q 2172 3584 2448 3432 
Q 2725 3281 2906 2969 
z
M 947 1747 
Q 947 1113 1208 752 
Q 1469 391 1925 391 
Q 2381 391 2643 752 
Q 2906 1113 2906 1747 
Q 2906 2381 2643 2742 
Q 2381 3103 1925 3103 
Q 1469 3103 1208 2742 
Q 947 2381 947 1747 
z
" transform="scale(0.015625)"/>
      <path id="DejaVuSans-62" d="M 3116 1747 
Q 3116 2381 2855 2742 
Q 2594 3103 2138 3103 
Q 1681 3103 1420 2742 
Q 1159 2381 1159 1747 
Q 1159 1113 1420 752 
Q 1681 391 2138 391 
Q 2594 391 2855 752 
Q 3116 1113 3116 1747 
z
M 1159 2969 
Q 1341 3281 1617 3432 
Q 1894 3584 2278 3584 
Q 2916 3584 3314 3078 
Q 3713 2572 3713 1747 
Q 3713 922 3314 415 
Q 2916 -91 2278 -91 
Q 1894 -91 1617 61 
Q 1341 213 1159 525 
L 1159 0 
L 581 0 
L 581 4863 
L 1159 4863 
L 1159 2969 
z
" transform="scale(0.015625)"/>
      <path id="DejaVuSans-66" d="M 2375 4863 
L 2375 4384 
L 1825 4384 
Q 1516 4384 1395 4259 
Q 1275 4134 1275 3809 
L 1275 3500 
L 2222 3500 
L 2222 3053 
L 1275 3053 
L 1275 0 
L 697 0 
L 697 3053 
L 147 3053 
L 147 3500 
L 697 3500 
L 697 3744 
Q 697 4328 969 4595 
Q 1241 4863 1831 4863 
L 2375 4863 
z
" transform="scale(0.015625)"/>
     </defs>
     <use xlink:href="#DejaVuSans-50"/>
     <use xlink:href="#DejaVuSans-6f" x="56.677734"/>
     <use xlink:href="#DejaVuSans-70" x="117.859375"/>
     <use xlink:href="#DejaVuSans-75" x="181.335938"/>
     <use xlink:href="#DejaVuSans-6c" x="244.714844"/>
     <use xlink:href="#DejaVuSans-61" x="272.498047"/>
     <use xlink:href="#DejaVuSans-74" x="333.777344"/>
     <use xlink:href="#DejaVuSans-69" x="372.986328"/>
     <use xlink:href="#DejaVuSans-6f" x="400.769531"/>
     <use xlink:href="#DejaVuSans-6e" x="461.951172"/>
     <use xlink:href="#DejaVuSans-27" x="525.330078"/>
     <use xlink:href="#DejaVuSans-73" x="552.820312"/>
     <use xlink:href="#DejaVuSans-20" x="604.919922"/>
     <use xlink:href="#DejaVuSans-61" x="636.707031"/>
     <use xlink:href="#DejaVuSans-76" x="697.986328"/>
     <use xlink:href="#DejaVuSans-65" x="757.166016"/>
     <use xlink:href="#DejaVuSans-72" x="818.689453"/>
     <use xlink:href="#DejaVuSans-61" x="859.802734"/>
     <use xlink:href="#DejaVuSans-67" x="921.082031"/>
     <use xlink:href="#DejaVuSans-65" x="984.558594"/>
     <use xlink:href="#DejaVuSans-20" x="1046.082031"/>
     <use xlink:href="#DejaVuSans-61" x="1077.869141"/>
     <use xlink:href="#DejaVuSans-6e" x="1139.148438"/>
     <use xlink:href="#DejaVuSans-64" x="1202.527344"/>
     <use xlink:href="#DejaVuSans-20" x="1266.003906"/>
     <use xlink:href="#DejaVuSans-62" x="1297.791016"/>
     <use xlink:href="#DejaVuSans-65" x="1361.267578"/>
     <use xlink:href="#DejaVuSans-73" x="1422.791016"/>
     <use xlink:href="#DejaVuSans-74" x="1474.890625"/>
     <use xlink:href="#DejaVuSans-20" x="1514.099609"/>
     <use xlink:href="#DejaVuSans-66" x="1545.886719"/>
     <use xlink:href="#DejaVuSans-69" x="1581.091797"/>
     <use xlink:href="#DejaVuSans-74" x="1608.875"/>
     <use xlink:href="#DejaVuSans-6e" x="1648.083984"/>
     <use xlink:href="#DejaVuSans-65" x="1711.462891"/>
     <use xlink:href="#DejaVuSans-73" x="1772.986328"/>
     <use xlink:href="#DejaVuSans-73" x="1825.085938"/>
    </g>
   </g>
   <g id="legend_1">
    <g id="patch_7">
     <path d="M 199.689687 108.1845 
L 272.630313 108.1845 
Q 274.630313 108.1845 274.630313 106.1845 
L 274.630313 48.472 
Q 274.630313 46.472 272.630313 46.472 
L 199.689687 46.472 
Q 197.689687 46.472 197.689687 48.472 
L 197.689687 106.1845 
Q 197.689687 108.1845 199.689687 108.1845 
z
" style="fill: #ffffff; opacity: 0.8; stroke: #cccccc; stroke-linejoin: miter"/>
    </g>
    <g id="line2d_33">
     <path d="M 201.689687 54.570438 
L 211.689687 54.570438 
L 221.689687 54.570438 
" style="fill: none; stroke: #0000ff; stroke-width: 1.5; stroke-linecap: square"/>
    </g>
    <g id="text_18">
     <!-- average -->
     <g transform="translate(229.689687 58.070438)scale(0.1 -0.1)">
      <use xlink:href="#DejaVuSans-61"/>
      <use xlink:href="#DejaVuSans-76" x="61.279297"/>
      <use xlink:href="#DejaVuSans-65" x="120.458984"/>
      <use xlink:href="#DejaVuSans-72" x="181.982422"/>
      <use xlink:href="#DejaVuSans-61" x="223.095703"/>
      <use xlink:href="#DejaVuSans-67" x="284.375"/>
      <use xlink:href="#DejaVuSans-65" x="347.851562"/>
     </g>
    </g>
    <g id="line2d_34">
     <path d="M 201.689687 69.248563 
L 211.689687 69.248563 
L 221.689687 69.248563 
" style="fill: none; stroke-dasharray: 9.6,2.4,1.5,2.4; stroke-dashoffset: 0; stroke: #008000; stroke-width: 1.5"/>
    </g>
    <g id="text_19">
     <!-- -1 sd -->
     <g transform="translate(229.689687 72.748563)scale(0.1 -0.1)">
      <defs>
       <path id="DejaVuSans-2d" d="M 313 2009 
L 1997 2009 
L 1997 1497 
L 313 1497 
L 313 2009 
z
" transform="scale(0.015625)"/>
      </defs>
      <use xlink:href="#DejaVuSans-2d"/>
      <use xlink:href="#DejaVuSans-31" x="36.083984"/>
      <use xlink:href="#DejaVuSans-20" x="99.707031"/>
      <use xlink:href="#DejaVuSans-73" x="131.494141"/>
      <use xlink:href="#DejaVuSans-64" x="183.59375"/>
     </g>
    </g>
    <g id="line2d_35">
     <path d="M 201.689687 83.926688 
L 211.689687 83.926688 
L 221.689687 83.926688 
" style="fill: none; stroke-dasharray: 9.6,2.4,1.5,2.4; stroke-dashoffset: 0; stroke: #008000; stroke-width: 1.5"/>
    </g>
    <g id="text_20">
     <!-- +1 sd -->
     <g transform="translate(229.689687 87.426688)scale(0.1 -0.1)">
      <defs>
       <path id="DejaVuSans-2b" d="M 2944 4013 
L 2944 2272 
L 4684 2272 
L 4684 1741 
L 2944 1741 
L 2944 0 
L 2419 0 
L 2419 1741 
L 678 1741 
L 678 2272 
L 2419 2272 
L 2419 4013 
L 2944 4013 
z
" transform="scale(0.015625)"/>
      </defs>
      <use xlink:href="#DejaVuSans-2b"/>
      <use xlink:href="#DejaVuSans-31" x="83.789062"/>
      <use xlink:href="#DejaVuSans-20" x="147.412109"/>
      <use xlink:href="#DejaVuSans-73" x="179.199219"/>
      <use xlink:href="#DejaVuSans-64" x="231.298828"/>
     </g>
    </g>
    <g id="line2d_36">
     <path d="M 201.689687 98.604813 
L 211.689687 98.604813 
L 221.689687 98.604813 
" style="fill: none; stroke: #ff0000; stroke-width: 1.5; stroke-linecap: square"/>
    </g>
    <g id="text_21">
     <!-- best -->
     <g transform="translate(229.689687 102.104813)scale(0.1 -0.1)">
      <use xlink:href="#DejaVuSans-62"/>
      <use xlink:href="#DejaVuSans-65" x="63.476562"/>
      <use xlink:href="#DejaVuSans-73" x="125"/>
      <use xlink:href="#DejaVuSans-74" x="177.099609"/>
     </g>
    </g>
   </g>
  </g>
 </g>
 <defs>
  <clipPath id="p4e4e4a6c73">
   <rect x="57.6" y="41.472" width="357.12" height="266.112"/>
  </clipPath>
 </defs>
</svg>
