<?xml version="1.0" encoding="UTF-8" standalone="no"?>
<!DOCTYPE svg PUBLIC "-//W3C//DTD SVG 1.1//EN"
 "http://www.w3.org/Graphics/SVG/1.1/DTD/svg11.dtd">
<!-- Generated by graphviz version 4.0.0 (20220529.0937)
 -->
<!-- Pages: 1 -->
<svg width="1889pt" height="512pt"
 viewBox="0.00 0.00 1888.83 511.98" xmlns="http://www.w3.org/2000/svg" xmlns:xlink="http://www.w3.org/1999/xlink">
<g id="graph0" class="graph" transform="scale(1 1) rotate(0) translate(4 507.98)">
<polygon fill="white" stroke="transparent" points="-4,4 -4,-507.98 1884.83,-507.98 1884.83,4 -4,4"/>
<!-- GHOST1 DIST -->
<g id="node1" class="node">
<title>GHOST1 DIST</title>
<ellipse fill="lightcoral" stroke="black" cx="113.33" cy="-444.58" rx="52.15" ry="52.15"/>
<text text-anchor="middle" x="113.33" y="-442.38" font-family="Times New Roman,serif" font-size="9.00">GHOST1 DIST</text>
</g>
<!-- GHOST2 DIST -->
<g id="node2" class="node">
<title>GHOST2 DIST</title>
<ellipse fill="lightcoral" stroke="black" cx="236.33" cy="-444.58" rx="52.15" ry="52.15"/>
<text text-anchor="middle" x="236.33" y="-442.38" font-family="Times New Roman,serif" font-size="9.00">GHOST2 DIST</text>
</g>
<!-- GHOST3 DIST -->
<g id="node3" class="node">
<title>GHOST3 DIST</title>
<ellipse fill="lightcoral" stroke="black" cx="359.33" cy="-444.58" rx="52.15" ry="52.15"/>
<text text-anchor="middle" x="359.33" y="-442.38" font-family="Times New Roman,serif" font-size="9.00">GHOST3 DIST</text>
</g>
<!-- GHOST4 DIST -->
<g id="node4" class="node">
<title>GHOST4 DIST</title>
<ellipse fill="lightcoral" stroke="black" cx="52.33" cy="-293.32" rx="52.15" ry="52.15"/>
<text text-anchor="middle" x="52.33" y="-291.12" font-family="Times New Roman,serif" font-size="9.00">GHOST4 DIST</text>
</g>
<!-- DOWN -->
<g id="node20" class="node">
<title>DOWN</title>
<ellipse fill="lightblue" stroke="black" cx="175.33" cy="-145.6" rx="31.64" ry="31.64"/>
<text text-anchor="middle" x="175.33" y="-143.4" font-family="Times New Roman,serif" font-size="9.00">DOWN</text>
</g>
<!-- GHOST4 DIST&#45;&gt;DOWN -->
<g id="edge1" class="edge">
<title>GHOST4 DIST&#45;&gt;DOWN</title>
<path fill="none" stroke="green" stroke-width="1.36" d="M85.61,-252.89C107.81,-226.59 136.27,-192.88 155.11,-170.55"/>
</g>
<!-- GHOST5 DIST -->
<g id="node5" class="node">
<title>GHOST5 DIST</title>
<ellipse fill="lightcoral" stroke="black" cx="175.33" cy="-293.32" rx="52.15" ry="52.15"/>
<text text-anchor="middle" x="175.33" y="-291.12" font-family="Times New Roman,serif" font-size="9.00">GHOST5 DIST</text>
</g>
<!-- GHOST5 DIST&#45;&gt;DOWN -->
<g id="edge2" class="edge">
<title>GHOST5 DIST&#45;&gt;DOWN</title>
<path fill="none" stroke="red" stroke-width="0.77" d="M175.33,-240.95C175.33,-219.81 175.33,-196.02 175.33,-177.61"/>
</g>
<!-- GHOST6 DIST -->
<g id="node6" class="node">
<title>GHOST6 DIST</title>
<ellipse fill="lightcoral" stroke="black" cx="605.33" cy="-444.58" rx="52.15" ry="52.15"/>
<text text-anchor="middle" x="605.33" y="-442.38" font-family="Times New Roman,serif" font-size="9.00">GHOST6 DIST</text>
</g>
<!-- GHOST7 DIST -->
<g id="node7" class="node">
<title>GHOST7 DIST</title>
<ellipse fill="lightcoral" stroke="black" cx="482.33" cy="-444.58" rx="52.15" ry="52.15"/>
<text text-anchor="middle" x="482.33" y="-442.38" font-family="Times New Roman,serif" font-size="9.00">GHOST7 DIST</text>
</g>
<!-- RIGHT -->
<g id="node21" class="node">
<title>RIGHT</title>
<ellipse fill="lightblue" stroke="black" cx="407.33" cy="-293.32" rx="31.64" ry="31.64"/>
<text text-anchor="middle" x="407.33" y="-291.12" font-family="Times New Roman,serif" font-size="9.00">RIGHT</text>
</g>
<!-- GHOST7 DIST&#45;&gt;RIGHT -->
<g id="edge6" class="edge">
<title>GHOST7 DIST&#45;&gt;RIGHT</title>
<path fill="none" stroke="green" stroke-width="0.69" d="M459.21,-397.58C446.82,-372.91 431.95,-343.33 421.31,-322.16"/>
</g>
<!-- 5510 -->
<g id="node23" class="node">
<title>5510</title>
<ellipse fill="lightgreen" stroke="black" cx="482.33" cy="-293.32" rx="25" ry="25"/>
<text text-anchor="middle" x="482.33" y="-291.12" font-family="Times New Roman,serif" font-size="9.00">5510</text>
</g>
<!-- GHOST7 DIST&#45;&gt;5510 -->
<g id="edge9" class="edge">
<title>GHOST7 DIST&#45;&gt;5510</title>
<path fill="none" stroke="red" stroke-width="0.14" d="M482.33,-392.22C482.33,-367.09 482.33,-338.05 482.33,-318.16"/>
</g>
<!-- 4409 -->
<g id="node25" class="node">
<title>4409</title>
<ellipse fill="lightgreen" stroke="black" cx="508.33" cy="-145.6" rx="25" ry="25"/>
<text text-anchor="middle" x="508.33" y="-143.4" font-family="Times New Roman,serif" font-size="9.00">4409</text>
</g>
<!-- GHOST7 DIST&#45;&gt;4409 -->
<g id="edge4" class="edge">
<title>GHOST7 DIST&#45;&gt;4409</title>
<path fill="none" stroke="green" stroke-width="0.61" d="M502.92,-396.43C508.4,-381.6 513.57,-364.97 516.33,-349.19 527.5,-285.21 518.41,-208.23 512.46,-170.21"/>
</g>
<!-- GHOST8 DIST -->
<g id="node8" class="node">
<title>GHOST8 DIST</title>
<ellipse fill="lightcoral" stroke="black" cx="728.33" cy="-444.58" rx="52.15" ry="52.15"/>
<text text-anchor="middle" x="728.33" y="-442.38" font-family="Times New Roman,serif" font-size="9.00">GHOST8 DIST</text>
</g>
<!-- GHOST1 CORR -->
<g id="node9" class="node">
<title>GHOST1 CORR</title>
<ellipse fill="lightcoral" stroke="black" cx="301.33" cy="-293.32" rx="55.72" ry="55.72"/>
<text text-anchor="middle" x="301.33" y="-291.12" font-family="Times New Roman,serif" font-size="9.00">GHOST1 CORR</text>
</g>
<!-- GHOST1 CORR&#45;&gt;DOWN -->
<g id="edge5" class="edge">
<title>GHOST1 CORR&#45;&gt;DOWN</title>
<path fill="none" stroke="red" stroke-width="0.25" d="M265.22,-250.57C242.68,-224.49 214.48,-191.88 195.74,-170.21"/>
</g>
<!-- GHOST1 CORR&#45;&gt;4409 -->
<g id="edge11" class="edge">
<title>GHOST1 CORR&#45;&gt;4409</title>
<path fill="none" stroke="green" stroke-width="0.18" d="M342.98,-255.79C350.61,-249.5 358.6,-243.16 366.33,-237.46 407.56,-207.08 458.77,-175.77 487.06,-159.01"/>
</g>
<!-- GHOST2 CORR -->
<g id="node10" class="node">
<title>GHOST2 CORR</title>
<ellipse fill="lightcoral" stroke="black" cx="854.33" cy="-444.58" rx="55.72" ry="55.72"/>
<text text-anchor="middle" x="854.33" y="-442.38" font-family="Times New Roman,serif" font-size="9.00">GHOST2 CORR</text>
</g>
<!-- GHOST3 CORR -->
<g id="node11" class="node">
<title>GHOST3 CORR</title>
<ellipse fill="lightcoral" stroke="black" cx="607.33" cy="-145.6" rx="55.72" ry="55.72"/>
<text text-anchor="middle" x="607.33" y="-143.4" font-family="Times New Roman,serif" font-size="9.00">GHOST3 CORR</text>
</g>
<!-- LEFT -->
<g id="node22" class="node">
<title>LEFT</title>
<ellipse fill="lightblue" stroke="black" cx="557.33" cy="-26.87" rx="26.74" ry="26.74"/>
<text text-anchor="middle" x="557.33" y="-24.67" font-family="Times New Roman,serif" font-size="9.00">LEFT</text>
</g>
<!-- GHOST3 CORR&#45;&gt;LEFT -->
<g id="edge8" class="edge">
<title>GHOST3 CORR&#45;&gt;LEFT</title>
<path fill="none" stroke="red" stroke-width="0.14" d="M585.69,-94.08C579.4,-79.42 572.83,-64.08 567.6,-51.86"/>
</g>
<!-- GHOST4 CORR -->
<g id="node12" class="node">
<title>GHOST4 CORR</title>
<ellipse fill="lightcoral" stroke="black" cx="984.33" cy="-444.58" rx="55.72" ry="55.72"/>
<text text-anchor="middle" x="984.33" y="-442.38" font-family="Times New Roman,serif" font-size="9.00">GHOST4 CORR</text>
</g>
<!-- GHOST5 CORR -->
<g id="node13" class="node">
<title>GHOST5 CORR</title>
<ellipse fill="lightcoral" stroke="black" cx="1114.33" cy="-444.58" rx="55.72" ry="55.72"/>
<text text-anchor="middle" x="1114.33" y="-442.38" font-family="Times New Roman,serif" font-size="9.00">GHOST5 CORR</text>
</g>
<!-- GHOST6 CORR -->
<g id="node14" class="node">
<title>GHOST6 CORR</title>
<ellipse fill="lightcoral" stroke="black" cx="1244.33" cy="-444.58" rx="55.72" ry="55.72"/>
<text text-anchor="middle" x="1244.33" y="-442.38" font-family="Times New Roman,serif" font-size="9.00">GHOST6 CORR</text>
</g>
<!-- GHOST7 CORR -->
<g id="node15" class="node">
<title>GHOST7 CORR</title>
<ellipse fill="lightcoral" stroke="black" cx="1374.33" cy="-444.58" rx="55.72" ry="55.72"/>
<text text-anchor="middle" x="1374.33" y="-442.38" font-family="Times New Roman,serif" font-size="9.00">GHOST7 CORR</text>
</g>
<!-- GHOST8 CORR -->
<g id="node16" class="node">
<title>GHOST8 CORR</title>
<ellipse fill="lightcoral" stroke="black" cx="1504.33" cy="-444.58" rx="55.72" ry="55.72"/>
<text text-anchor="middle" x="1504.33" y="-442.38" font-family="Times New Roman,serif" font-size="9.00">GHOST8 CORR</text>
</g>
<!-- PACMAN CORR -->
<g id="node17" class="node">
<title>PACMAN CORR</title>
<ellipse fill="lightcoral" stroke="black" cx="1637.33" cy="-444.58" rx="59.29" ry="59.29"/>
<text text-anchor="middle" x="1637.33" y="-442.38" font-family="Times New Roman,serif" font-size="9.00">PACMAN CORR</text>
</g>
<!-- S_INCREASED -->
<g id="node18" class="node">
<title>S_INCREASED</title>
<ellipse fill="lightcoral" stroke="black" cx="1768.33" cy="-444.58" rx="53.98" ry="53.98"/>
<text text-anchor="middle" x="1768.33" y="-442.38" font-family="Times New Roman,serif" font-size="9.00">S_INCREASED</text>
</g>
<!-- UP -->
<g id="node19" class="node">
<title>UP</title>
<ellipse fill="lightblue" stroke="black" cx="1860.33" cy="-444.58" rx="20.51" ry="20.51"/>
<text text-anchor="middle" x="1860.33" y="-442.38" font-family="Times New Roman,serif" font-size="9.00">UP</text>
</g>
<!-- 5510&#45;&gt;4409 -->
<g id="edge10" class="edge">
<title>5510&#45;&gt;4409</title>
<path fill="none" stroke="green" stroke-width="0.54" d="M486.5,-268.91C491.33,-241.88 499.22,-197.65 504.07,-170.44"/>
</g>
<!-- 5300 -->
<g id="node24" class="node">
<title>5300</title>
<ellipse fill="lightgreen" stroke="black" cx="588.33" cy="-293.32" rx="25" ry="25"/>
<text text-anchor="middle" x="588.33" y="-291.12" font-family="Times New Roman,serif" font-size="9.00">5300</text>
</g>
<!-- 5300&#45;&gt;4409 -->
<g id="edge7" class="edge">
<title>5300&#45;&gt;4409</title>
<path fill="none" stroke="red" stroke-width="0.17" d="M576.69,-271.14C561.53,-243.51 535.15,-195.46 519.97,-167.82"/>
</g>
<!-- 4409&#45;&gt;LEFT -->
<g id="edge3" class="edge">
<title>4409&#45;&gt;LEFT</title>
<path fill="none" stroke="red" stroke-width="0.71" d="M517.66,-122.37C526.1,-102.26 538.5,-72.72 547.18,-52.03"/>
</g>
</g>
</svg>
