<?xml version="1.0" encoding="UTF-8" standalone="no"?>
<!DOCTYPE svg PUBLIC "-//W3C//DTD SVG 1.1//EN"
 "http://www.w3.org/Graphics/SVG/1.1/DTD/svg11.dtd">
<!-- Generated by graphviz version 4.0.0 (20220529.0937)
 -->
<!-- Pages: 1 -->
<svg width="2264pt" height="499pt"
 viewBox="0.00 0.00 2264.36 499.25" xmlns="http://www.w3.org/2000/svg" xmlns:xlink="http://www.w3.org/1999/xlink">
<g id="graph0" class="graph" transform="scale(1 1) rotate(0) translate(4 495.25)">
<polygon fill="white" stroke="transparent" points="-4,4 -4,-495.25 2260.36,-495.25 2260.36,4 -4,4"/>
<!-- GHOST1 X -->
<g id="node1" class="node">
<title>GHOST1 X</title>
<ellipse fill="lightcoral" stroke="black" cx="402.57" cy="-160.45" rx="43.27" ry="43.27"/>
<text text-anchor="middle" x="402.57" y="-158.25" font-family="Times New Roman,serif" font-size="9.00">GHOST1 X</text>
</g>
<!-- RIGHT -->
<g id="node28" class="node">
<title>RIGHT</title>
<ellipse fill="lightblue" stroke="black" cx="454.57" cy="-31.82" rx="31.64" ry="31.64"/>
<text text-anchor="middle" x="454.57" y="-29.62" font-family="Times New Roman,serif" font-size="9.00">RIGHT</text>
</g>
<!-- GHOST1 X&#45;&gt;RIGHT -->
<g id="edge1" class="edge">
<title>GHOST1 X&#45;&gt;RIGHT</title>
<path fill="none" stroke="red" stroke-width="0.35" d="M418.74,-120.08C426.49,-101.2 435.61,-78.99 442.71,-61.71"/>
</g>
<!-- GHOST1 Y -->
<g id="node2" class="node">
<title>GHOST1 Y</title>
<ellipse fill="lightcoral" stroke="black" cx="888.57" cy="-160.45" rx="42.35" ry="42.35"/>
<text text-anchor="middle" x="888.57" y="-158.25" font-family="Times New Roman,serif" font-size="9.00">GHOST1 Y</text>
</g>
<!-- DOWN -->
<g id="node27" class="node">
<title>DOWN</title>
<ellipse fill="lightblue" stroke="black" cx="992.57" cy="-31.82" rx="31.64" ry="31.64"/>
<text text-anchor="middle" x="992.57" y="-29.62" font-family="Times New Roman,serif" font-size="9.00">DOWN</text>
</g>
<!-- GHOST1 Y&#45;&gt;DOWN -->
<g id="edge2" class="edge">
<title>GHOST1 Y&#45;&gt;DOWN</title>
<path fill="none" stroke="green" stroke-width="0.98" d="M915.08,-127.17C933.02,-105.33 956.32,-76.95 972.67,-57.04"/>
</g>
<!-- GHOST2 X -->
<g id="node3" class="node">
<title>GHOST2 X</title>
<ellipse fill="lightcoral" stroke="black" cx="1881.57" cy="-300.4" rx="43.27" ry="43.27"/>
<text text-anchor="middle" x="1881.57" y="-298.2" font-family="Times New Roman,serif" font-size="9.00">GHOST2 X</text>
</g>
<!-- LEFT -->
<g id="node29" class="node">
<title>LEFT</title>
<ellipse fill="lightblue" stroke="black" cx="1768.57" cy="-31.82" rx="26.74" ry="26.74"/>
<text text-anchor="middle" x="1768.57" y="-29.62" font-family="Times New Roman,serif" font-size="9.00">LEFT</text>
</g>
<!-- GHOST2 X&#45;&gt;LEFT -->
<g id="edge27" class="edge">
<title>GHOST2 X&#45;&gt;LEFT</title>
<path fill="none" stroke="red" stroke-width="0.46" d="M1844.14,-278.31C1823.83,-264.78 1800.33,-245.24 1787.57,-221.26 1759.7,-168.86 1761.68,-96.67 1765.28,-58.65"/>
</g>
<!-- 5771 -->
<g id="node30" class="node">
<title>5771</title>
<ellipse fill="lightgreen" stroke="black" cx="1923.57" cy="-160.45" rx="25" ry="25"/>
<text text-anchor="middle" x="1923.57" y="-158.25" font-family="Times New Roman,serif" font-size="9.00">5771</text>
</g>
<!-- GHOST2 X&#45;&gt;5771 -->
<g id="edge31" class="edge">
<title>GHOST2 X&#45;&gt;5771</title>
<path fill="none" stroke="red" stroke-width="0.12" d="M1893.94,-258.75C1901.35,-234.43 1910.48,-204.43 1916.64,-184.22"/>
</g>
<!-- GHOST2 Y -->
<g id="node4" class="node">
<title>GHOST2 Y</title>
<ellipse fill="lightcoral" stroke="black" cx="1838.57" cy="-160.45" rx="42.35" ry="42.35"/>
<text text-anchor="middle" x="1838.57" y="-158.25" font-family="Times New Roman,serif" font-size="9.00">GHOST2 Y</text>
</g>
<!-- GHOST2 Y&#45;&gt;LEFT -->
<g id="edge3" class="edge">
<title>GHOST2 Y&#45;&gt;LEFT</title>
<path fill="none" stroke="red" stroke-width="0.54" d="M1818.32,-122.82C1806.37,-101.2 1791.61,-74.5 1781.28,-55.82"/>
</g>
<!-- GHOST3 X -->
<g id="node5" class="node">
<title>GHOST3 X</title>
<ellipse fill="lightcoral" stroke="black" cx="1407.57" cy="-160.45" rx="43.27" ry="43.27"/>
<text text-anchor="middle" x="1407.57" y="-158.25" font-family="Times New Roman,serif" font-size="9.00">GHOST3 X</text>
</g>
<!-- UP -->
<g id="node26" class="node">
<title>UP</title>
<ellipse fill="lightblue" stroke="black" cx="1407.57" cy="-31.82" rx="20.51" ry="20.51"/>
<text text-anchor="middle" x="1407.57" y="-29.62" font-family="Times New Roman,serif" font-size="9.00">UP</text>
</g>
<!-- GHOST3 X&#45;&gt;UP -->
<g id="edge4" class="edge">
<title>GHOST3 X&#45;&gt;UP</title>
<path fill="none" stroke="red" stroke-width="0.45" d="M1407.57,-117.28C1407.57,-95.41 1407.57,-69.74 1407.57,-52.48"/>
</g>
<!-- GHOST3 X&#45;&gt;DOWN -->
<g id="edge5" class="edge">
<title>GHOST3 X&#45;&gt;DOWN</title>
<path fill="none" stroke="green" stroke-width="0.18" d="M1383.33,-124.36C1375.22,-115 1365.44,-105.78 1354.57,-99.64 1245.22,-37.88 1090.46,-31.56 1024.42,-31.96"/>
</g>
<!-- GHOST3 X&#45;&gt;LEFT -->
<g id="edge35" class="edge">
<title>GHOST3 X&#45;&gt;LEFT</title>
<path fill="none" stroke="green" stroke-width="0.45" d="M1431.63,-124.26C1439.53,-115 1449.03,-105.87 1459.57,-99.64 1552.64,-44.6 1685.45,-34.7 1741.73,-33.06"/>
</g>
<!-- GHOST3 Y -->
<g id="node6" class="node">
<title>GHOST3 Y</title>
<ellipse fill="lightcoral" stroke="black" cx="1200.57" cy="-160.45" rx="42.35" ry="42.35"/>
<text text-anchor="middle" x="1200.57" y="-158.25" font-family="Times New Roman,serif" font-size="9.00">GHOST3 Y</text>
</g>
<!-- GHOST3 Y&#45;&gt;UP -->
<g id="edge6" class="edge">
<title>GHOST3 Y&#45;&gt;UP</title>
<path fill="none" stroke="red" stroke-width="0.8" d="M1225.2,-125.84C1233.18,-116.51 1242.57,-106.95 1252.57,-99.64 1296.1,-67.83 1357.13,-47.23 1388.02,-38.15"/>
</g>
<!-- GHOST3 Y&#45;&gt;DOWN -->
<g id="edge7" class="edge">
<title>GHOST3 Y&#45;&gt;DOWN</title>
<path fill="none" stroke="red" stroke-width="0.23" d="M1175.95,-125.82C1167.97,-116.49 1158.58,-106.93 1148.57,-99.64 1109.4,-71.09 1056.16,-51.64 1023.1,-41.38"/>
</g>
<!-- GHOST4 X -->
<g id="node7" class="node">
<title>GHOST4 X</title>
<ellipse fill="lightcoral" stroke="black" cx="2079.57" cy="-300.4" rx="43.27" ry="43.27"/>
<text text-anchor="middle" x="2079.57" y="-298.2" font-family="Times New Roman,serif" font-size="9.00">GHOST4 X</text>
</g>
<!-- 5693 -->
<g id="node33" class="node">
<title>5693</title>
<ellipse fill="lightgreen" stroke="black" cx="2097.57" cy="-160.45" rx="25" ry="25"/>
<text text-anchor="middle" x="2097.57" y="-158.25" font-family="Times New Roman,serif" font-size="9.00">5693</text>
</g>
<!-- GHOST4 X&#45;&gt;5693 -->
<g id="edge29" class="edge">
<title>GHOST4 X&#45;&gt;5693</title>
<path fill="none" stroke="green" stroke-width="0.42" d="M2085.07,-257.26C2088.15,-233.65 2091.88,-205.06 2094.46,-185.3"/>
</g>
<!-- GHOST4 Y -->
<g id="node8" class="node">
<title>GHOST4 Y</title>
<ellipse fill="lightcoral" stroke="black" cx="1303.57" cy="-160.45" rx="42.35" ry="42.35"/>
<text text-anchor="middle" x="1303.57" y="-158.25" font-family="Times New Roman,serif" font-size="9.00">GHOST4 Y</text>
</g>
<!-- GHOST4 Y&#45;&gt;UP -->
<g id="edge8" class="edge">
<title>GHOST4 Y&#45;&gt;UP</title>
<path fill="none" stroke="red" stroke-width="0.68" d="M1330.08,-127.17C1350.91,-101.82 1378.97,-67.64 1394.98,-48.15"/>
</g>
<!-- GHOST4 Y&#45;&gt;RIGHT -->
<g id="edge9" class="edge">
<title>GHOST4 Y&#45;&gt;RIGHT</title>
<path fill="none" stroke="green" stroke-width="0.37" d="M1280.79,-124.31C1272.75,-114.7 1262.86,-105.37 1251.57,-99.64 1216.86,-82.03 631.39,-44 486.71,-34.84"/>
</g>
<!-- GHOST4 Y&#45;&gt;LEFT -->
<g id="edge10" class="edge">
<title>GHOST4 Y&#45;&gt;LEFT</title>
<path fill="none" stroke="red" stroke-width="0.16" d="M1326.89,-124.53C1334.9,-115.05 1344.63,-105.73 1355.57,-99.64 1422.77,-62.25 1661.36,-41 1741.84,-34.77"/>
</g>
<!-- GHOST5 X -->
<g id="node9" class="node">
<title>GHOST5 X</title>
<ellipse fill="lightcoral" stroke="black" cx="1890.57" cy="-435.39" rx="43.27" ry="43.27"/>
<text text-anchor="middle" x="1890.57" y="-433.19" font-family="Times New Roman,serif" font-size="9.00">GHOST5 X</text>
</g>
<!-- GHOST5 Y -->
<g id="node10" class="node">
<title>GHOST5 Y</title>
<ellipse fill="lightcoral" stroke="black" cx="506.57" cy="-160.45" rx="42.35" ry="42.35"/>
<text text-anchor="middle" x="506.57" y="-158.25" font-family="Times New Roman,serif" font-size="9.00">GHOST5 Y</text>
</g>
<!-- GHOST5 Y&#45;&gt;RIGHT -->
<g id="edge11" class="edge">
<title>GHOST5 Y&#45;&gt;RIGHT</title>
<path fill="none" stroke="green" stroke-width="0.61" d="M490.69,-120.77C482.86,-101.71 473.59,-79.13 466.4,-61.62"/>
</g>
<!-- GHOST6 X -->
<g id="node11" class="node">
<title>GHOST6 X</title>
<ellipse fill="lightcoral" stroke="black" cx="1994.57" cy="-435.39" rx="43.27" ry="43.27"/>
<text text-anchor="middle" x="1994.57" y="-433.19" font-family="Times New Roman,serif" font-size="9.00">GHOST6 X</text>
</g>
<!-- GHOST6 Y -->
<g id="node12" class="node">
<title>GHOST6 Y</title>
<ellipse fill="lightcoral" stroke="black" cx="646.57" cy="-160.45" rx="42.35" ry="42.35"/>
<text text-anchor="middle" x="646.57" y="-158.25" font-family="Times New Roman,serif" font-size="9.00">GHOST6 Y</text>
</g>
<!-- GHOST6 Y&#45;&gt;DOWN -->
<g id="edge12" class="edge">
<title>GHOST6 Y&#45;&gt;DOWN</title>
<path fill="none" stroke="red" stroke-width="1.92" d="M669.83,-124.63C677.64,-115.27 687.06,-105.99 697.57,-99.64 782.73,-48.16 903.46,-36.28 960.43,-33.58"/>
</g>
<!-- GHOST6 Y&#45;&gt;RIGHT -->
<g id="edge13" class="edge">
<title>GHOST6 Y&#45;&gt;RIGHT</title>
<path fill="none" stroke="red" stroke-width="0.21" d="M620.02,-126.85C611.28,-117.34 601.09,-107.43 590.57,-99.64 557.06,-74.82 512.91,-55.12 484.14,-43.71"/>
</g>
<!-- GHOST7 X -->
<g id="node13" class="node">
<title>GHOST7 X</title>
<ellipse fill="lightcoral" stroke="black" cx="992.57" cy="-160.45" rx="43.27" ry="43.27"/>
<text text-anchor="middle" x="992.57" y="-158.25" font-family="Times New Roman,serif" font-size="9.00">GHOST7 X</text>
</g>
<!-- GHOST7 X&#45;&gt;DOWN -->
<g id="edge14" class="edge">
<title>GHOST7 X&#45;&gt;DOWN</title>
<path fill="none" stroke="green" stroke-width="0.21" d="M992.57,-117.28C992.57,-99.87 992.57,-80.05 992.57,-63.99"/>
</g>
<!-- GHOST7 Y -->
<g id="node14" class="node">
<title>GHOST7 Y</title>
<ellipse fill="lightcoral" stroke="black" cx="2098.57" cy="-435.39" rx="42.35" ry="42.35"/>
<text text-anchor="middle" x="2098.57" y="-433.19" font-family="Times New Roman,serif" font-size="9.00">GHOST7 Y</text>
</g>
<!-- GHOST8 X -->
<g id="node15" class="node">
<title>GHOST8 X</title>
<ellipse fill="lightcoral" stroke="black" cx="1096.57" cy="-160.45" rx="43.27" ry="43.27"/>
<text text-anchor="middle" x="1096.57" y="-158.25" font-family="Times New Roman,serif" font-size="9.00">GHOST8 X</text>
</g>
<!-- GHOST8 X&#45;&gt;DOWN -->
<g id="edge15" class="edge">
<title>GHOST8 X&#45;&gt;DOWN</title>
<path fill="none" stroke="green" stroke-width="0.2" d="M1069.52,-126.51C1051.7,-104.82 1028.77,-76.89 1012.59,-57.19"/>
</g>
<!-- GHOST8 Y -->
<g id="node16" class="node">
<title>GHOST8 Y</title>
<ellipse fill="lightcoral" stroke="black" cx="1657.57" cy="-435.39" rx="42.35" ry="42.35"/>
<text text-anchor="middle" x="1657.57" y="-433.19" font-family="Times New Roman,serif" font-size="9.00">GHOST8 Y</text>
</g>
<!-- GHOST8 Y&#45;&gt;RIGHT -->
<g id="edge16" class="edge">
<title>GHOST8 Y&#45;&gt;RIGHT</title>
<path fill="none" stroke="green" stroke-width="0.27" d="M1615.08,-432.13C1369.11,-418.6 135.07,-344.86 26.57,-221.26 -9.09,-180.64 -8.58,-140.7 26.57,-99.64 77.86,-39.72 332.42,-33.13 422.73,-32.71"/>
</g>
<!-- GHOST8 Y&#45;&gt;LEFT -->
<g id="edge17" class="edge">
<title>GHOST8 Y&#45;&gt;LEFT</title>
<path fill="none" stroke="red" stroke-width="0.38" d="M1650.3,-393.33C1640.7,-327.11 1630.49,-194.56 1681.57,-99.64 1695.38,-73.98 1723.76,-55.12 1744.36,-44.1"/>
</g>
<!-- 6060 -->
<g id="node31" class="node">
<title>6060</title>
<ellipse fill="lightgreen" stroke="black" cx="1715.57" cy="-300.4" rx="25" ry="25"/>
<text text-anchor="middle" x="1715.57" y="-298.2" font-family="Times New Roman,serif" font-size="9.00">6060</text>
</g>
<!-- GHOST8 Y&#45;&gt;6060 -->
<g id="edge38" class="edge">
<title>GHOST8 Y&#45;&gt;6060</title>
<path fill="none" stroke="red" stroke-width="0.32" d="M1674.19,-396.28C1684.5,-372.64 1697.38,-343.1 1706.01,-323.32"/>
</g>
<!-- PACMAN X -->
<g id="node17" class="node">
<title>PACMAN X</title>
<ellipse fill="lightcoral" stroke="black" cx="82.57" cy="-160.45" rx="46.84" ry="46.84"/>
<text text-anchor="middle" x="82.57" y="-158.25" font-family="Times New Roman,serif" font-size="9.00">PACMAN X</text>
</g>
<!-- PACMAN X&#45;&gt;RIGHT -->
<g id="edge28" class="edge">
<title>PACMAN X&#45;&gt;RIGHT</title>
<path fill="none" stroke="green" stroke-width="0.24" d="M110.34,-122.68C118.55,-113.96 128.16,-105.51 138.57,-99.64 232.36,-46.77 363.21,-35.62 422.78,-33.35"/>
</g>
<!-- PACMAN Y -->
<g id="node18" class="node">
<title>PACMAN Y</title>
<ellipse fill="lightcoral" stroke="black" cx="1588.57" cy="-160.45" rx="45.92" ry="45.92"/>
<text text-anchor="middle" x="1588.57" y="-158.25" font-family="Times New Roman,serif" font-size="9.00">PACMAN Y</text>
</g>
<!-- PACMAN Y&#45;&gt;UP -->
<g id="edge18" class="edge">
<title>PACMAN Y&#45;&gt;UP</title>
<path fill="none" stroke="red" stroke-width="0.37" d="M1559.86,-124.23C1551.88,-115.6 1542.84,-106.79 1533.57,-99.64 1498.88,-72.86 1451.93,-51.17 1426.25,-40.33"/>
</g>
<!-- PACMAN Y&#45;&gt;LEFT -->
<g id="edge19" class="edge">
<title>PACMAN Y&#45;&gt;LEFT</title>
<path fill="none" stroke="red" stroke-width="0.33" d="M1619.13,-125.74C1628.15,-116.72 1638.35,-107.34 1648.57,-99.64 1679.42,-76.39 1719.28,-55.8 1744.39,-43.83"/>
</g>
<!-- ND X -->
<g id="node19" class="node">
<title>ND X</title>
<ellipse fill="lightcoral" stroke="black" cx="1496.57" cy="-160.45" rx="27.65" ry="27.65"/>
<text text-anchor="middle" x="1496.57" y="-158.25" font-family="Times New Roman,serif" font-size="9.00">ND X</text>
</g>
<!-- ND X&#45;&gt;UP -->
<g id="edge20" class="edge">
<title>ND X&#45;&gt;UP</title>
<path fill="none" stroke="red" stroke-width="0.33" d="M1483.08,-136.36C1476.3,-125.1 1467.8,-111.47 1459.57,-99.64 1446.9,-81.42 1431.08,-61.44 1420.24,-48.12"/>
</g>
<!-- ND Y -->
<g id="node20" class="node">
<title>ND Y</title>
<ellipse fill="lightcoral" stroke="black" cx="174.57" cy="-160.45" rx="26.74" ry="26.74"/>
<text text-anchor="middle" x="174.57" y="-158.25" font-family="Times New Roman,serif" font-size="9.00">ND Y</text>
</g>
<!-- ND Y&#45;&gt;RIGHT -->
<g id="edge21" class="edge">
<title>ND Y&#45;&gt;RIGHT</title>
<path fill="none" stroke="green" stroke-width="0.99" d="M184,-135.08C189.91,-122.8 198.69,-108.64 210.57,-99.64 275,-50.85 372.86,-37.68 422.81,-34.13"/>
</g>
<!-- IN_INTERS -->
<g id="node21" class="node">
<title>IN_INTERS</title>
<ellipse fill="lightcoral" stroke="black" cx="2010.57" cy="-160.45" rx="43.68" ry="43.68"/>
<text text-anchor="middle" x="2010.57" y="-158.25" font-family="Times New Roman,serif" font-size="9.00">IN_INTERS</text>
</g>
<!-- IN_INTERS&#45;&gt;LEFT -->
<g id="edge22" class="edge">
<title>IN_INTERS&#45;&gt;LEFT</title>
<path fill="none" stroke="red" stroke-width="0.33" d="M1984.86,-124.48C1976.91,-115.45 1967.58,-106.38 1957.57,-99.64 1905.61,-64.64 1833.28,-45.83 1794.91,-37.74"/>
</g>
<!-- MOVING UP -->
<g id="node22" class="node">
<title>MOVING UP</title>
<ellipse fill="lightcoral" stroke="black" cx="2207.57" cy="-435.39" rx="48.58" ry="48.58"/>
<text text-anchor="middle" x="2207.57" y="-433.19" font-family="Times New Roman,serif" font-size="9.00">MOVING UP</text>
</g>
<!-- MOVING DOWN -->
<g id="node23" class="node">
<title>MOVING DOWN</title>
<ellipse fill="lightcoral" stroke="black" cx="280.57" cy="-160.45" rx="60.62" ry="60.62"/>
<text text-anchor="middle" x="280.57" y="-158.25" font-family="Times New Roman,serif" font-size="9.00">MOVING DOWN</text>
</g>
<!-- MOVING DOWN&#45;&gt;RIGHT -->
<g id="edge23" class="edge">
<title>MOVING DOWN&#45;&gt;RIGHT</title>
<path fill="none" stroke="green" stroke-width="1.88" d="M325.78,-119.28C333.88,-112.53 342.36,-105.74 350.57,-99.64 375.72,-80.95 406.01,-61.85 427.4,-48.88"/>
</g>
<!-- MOVING RIGHT -->
<g id="node24" class="node">
<title>MOVING RIGHT</title>
<ellipse fill="lightcoral" stroke="black" cx="767.57" cy="-160.45" rx="60.62" ry="60.62"/>
<text text-anchor="middle" x="767.57" y="-158.25" font-family="Times New Roman,serif" font-size="9.00">MOVING RIGHT</text>
</g>
<!-- MOVING RIGHT&#45;&gt;DOWN -->
<g id="edge33" class="edge">
<title>MOVING RIGHT&#45;&gt;DOWN</title>
<path fill="none" stroke="red" stroke-width="0.26" d="M811.6,-118.42C819.9,-111.69 828.75,-105.13 837.57,-99.64 878.24,-74.31 930.18,-54.08 962.41,-42.77"/>
</g>
<!-- MOVING RIGHT&#45;&gt;RIGHT -->
<g id="edge24" class="edge">
<title>MOVING RIGHT&#45;&gt;RIGHT</title>
<path fill="none" stroke="red" stroke-width="0.48" d="M724.14,-117.38C715.78,-110.76 706.75,-104.51 697.57,-99.64 627.22,-62.32 534.08,-44.29 486.11,-36.99"/>
</g>
<!-- MOVING LEFT -->
<g id="node25" class="node">
<title>MOVING LEFT</title>
<ellipse fill="lightcoral" stroke="black" cx="1773.57" cy="-435.39" rx="55.72" ry="55.72"/>
<text text-anchor="middle" x="1773.57" y="-433.19" font-family="Times New Roman,serif" font-size="9.00">MOVING LEFT</text>
</g>
<!-- MOVING LEFT&#45;&gt;RIGHT -->
<g id="edge25" class="edge">
<title>MOVING LEFT&#45;&gt;RIGHT</title>
<path fill="none" stroke="green" stroke-width="0.18" d="M1782.83,-379.94C1786.23,-339.85 1782.88,-287.29 1749.57,-257.26 1654.29,-171.36 697.73,-298.85 595.57,-221.26 550.47,-187.01 591.8,-144.75 557.57,-99.64 538.5,-74.51 507.06,-56.1 483.92,-45.04"/>
</g>
<!-- MOVING LEFT&#45;&gt;LEFT -->
<g id="edge26" class="edge">
<title>MOVING LEFT&#45;&gt;LEFT</title>
<path fill="none" stroke="red" stroke-width="0.52" d="M1812.72,-395.31C1820.73,-389.13 1829.5,-383.49 1838.57,-379.53 1898.69,-353.28 2088.1,-392.66 2131.57,-343.53 2203.39,-262.34 2200.93,-182.94 2131.57,-99.64 2088.57,-48 1872.35,-36.12 1795.62,-33.52"/>
</g>
<!-- MOVING LEFT&#45;&gt;6060 -->
<g id="edge36" class="edge">
<title>MOVING LEFT&#45;&gt;6060</title>
<path fill="none" stroke="green" stroke-width="0.16" d="M1751.48,-383.73C1742.39,-362.88 1732.33,-339.83 1725.18,-323.43"/>
</g>
<!-- 5771&#45;&gt;LEFT -->
<g id="edge32" class="edge">
<title>5771&#45;&gt;LEFT</title>
<path fill="none" stroke="red" stroke-width="0.16" d="M1914.59,-137.32C1908.81,-125.1 1900.36,-110.3 1889.57,-99.64 1861.74,-72.15 1820.3,-52.58 1793.86,-41.99"/>
</g>
<!-- 6030 -->
<g id="node32" class="node">
<title>6030</title>
<ellipse fill="lightgreen" stroke="black" cx="1715.57" cy="-160.45" rx="25" ry="25"/>
<text text-anchor="middle" x="1715.57" y="-158.25" font-family="Times New Roman,serif" font-size="9.00">6030</text>
</g>
<!-- 6060&#45;&gt;6030 -->
<g id="edge37" class="edge">
<title>6060&#45;&gt;6030</title>
<path fill="none" stroke="green" stroke-width="0.77" d="M1715.57,-275.37C1715.57,-250.05 1715.57,-210.42 1715.57,-185.2"/>
</g>
<!-- 6030&#45;&gt;LEFT -->
<g id="edge34" class="edge">
<title>6030&#45;&gt;LEFT</title>
<path fill="none" stroke="red" stroke-width="0.35" d="M1724.8,-137.39C1734.23,-114.86 1748.83,-79.98 1758.54,-56.78"/>
</g>
<!-- 5693&#45;&gt;LEFT -->
<g id="edge30" class="edge">
<title>5693&#45;&gt;LEFT</title>
<path fill="none" stroke="red" stroke-width="0.35" d="M2089.91,-136.67C2084.48,-123.94 2075.94,-108.82 2063.57,-99.64 1980.7,-38.16 1851.24,-31.69 1795.54,-32.01"/>
</g>
</g>
</svg>
