<?xml version="1.0" encoding="utf-8" standalone="no"?>
<!DOCTYPE svg PUBLIC "-//W3C//DTD SVG 1.1//EN"
  "http://www.w3.org/Graphics/SVG/1.1/DTD/svg11.dtd">
<svg xmlns:xlink="http://www.w3.org/1999/xlink" width="460.8pt" height="345.6pt" viewBox="0 0 460.8 345.6" xmlns="http://www.w3.org/2000/svg" version="1.1">
 <metadata>
  <rdf:RDF xmlns:dc="http://purl.org/dc/elements/1.1/" xmlns:cc="http://creativecommons.org/ns#" xmlns:rdf="http://www.w3.org/1999/02/22-rdf-syntax-ns#">
   <cc:Work>
    <dc:type rdf:resource="http://purl.org/dc/dcmitype/StillImage"/>
    <dc:date>2022-07-29T08:44:09.479069</dc:date>
    <dc:format>image/svg+xml</dc:format>
    <dc:creator>
     <cc:Agent>
      <dc:title>Matplotlib v3.5.2, https://matplotlib.org/</dc:title>
     </cc:Agent>
    </dc:creator>
   </cc:Work>
  </rdf:RDF>
 </metadata>
 <defs>
  <style type="text/css">*{stroke-linejoin: round; stroke-linecap: butt}</style>
 </defs>
 <g id="figure_1">
  <g id="patch_1">
   <path d="M 0 345.6 
L 460.8 345.6 
L 460.8 0 
L 0 0 
z
" style="fill: #ffffff"/>
  </g>
  <g id="axes_1">
   <g id="patch_2">
    <path d="M 57.6 307.584 
L 414.72 307.584 
L 414.72 41.472 
L 57.6 41.472 
z
" style="fill: #ffffff"/>
   </g>
   <g id="matplotlib.axis_1">
    <g id="xtick_1">
     <g id="line2d_1">
      <path d="M 73.832727 307.584 
L 73.832727 41.472 
" clip-path="url(#p892382e70b)" style="fill: none; stroke: #b0b0b0; stroke-width: 0.8; stroke-linecap: square"/>
     </g>
     <g id="line2d_2">
      <defs>
       <path id="m4f11b714c8" d="M 0 0 
L 0 3.5 
" style="stroke: #000000; stroke-width: 0.8"/>
      </defs>
      <g>
       <use xlink:href="#m4f11b714c8" x="73.832727" y="307.584" style="stroke: #000000; stroke-width: 0.8"/>
      </g>
     </g>
     <g id="text_1">
      <!-- 0 -->
      <g transform="translate(70.651477 322.182437)scale(0.1 -0.1)">
       <defs>
        <path id="DejaVuSans-30" d="M 2034 4250 
Q 1547 4250 1301 3770 
Q 1056 3291 1056 2328 
Q 1056 1369 1301 889 
Q 1547 409 2034 409 
Q 2525 409 2770 889 
Q 3016 1369 3016 2328 
Q 3016 3291 2770 3770 
Q 2525 4250 2034 4250 
z
M 2034 4750 
Q 2819 4750 3233 4129 
Q 3647 3509 3647 2328 
Q 3647 1150 3233 529 
Q 2819 -91 2034 -91 
Q 1250 -91 836 529 
Q 422 1150 422 2328 
Q 422 3509 836 4129 
Q 1250 4750 2034 4750 
z
" transform="scale(0.015625)"/>
       </defs>
       <use xlink:href="#DejaVuSans-30"/>
      </g>
     </g>
    </g>
    <g id="xtick_2">
     <g id="line2d_3">
      <path d="M 114.618474 307.584 
L 114.618474 41.472 
" clip-path="url(#p892382e70b)" style="fill: none; stroke: #b0b0b0; stroke-width: 0.8; stroke-linecap: square"/>
     </g>
     <g id="line2d_4">
      <g>
       <use xlink:href="#m4f11b714c8" x="114.618474" y="307.584" style="stroke: #000000; stroke-width: 0.8"/>
      </g>
     </g>
     <g id="text_2">
      <!-- 25 -->
      <g transform="translate(108.255974 322.182437)scale(0.1 -0.1)">
       <defs>
        <path id="DejaVuSans-32" d="M 1228 531 
L 3431 531 
L 3431 0 
L 469 0 
L 469 531 
Q 828 903 1448 1529 
Q 2069 2156 2228 2338 
Q 2531 2678 2651 2914 
Q 2772 3150 2772 3378 
Q 2772 3750 2511 3984 
Q 2250 4219 1831 4219 
Q 1534 4219 1204 4116 
Q 875 4013 500 3803 
L 500 4441 
Q 881 4594 1212 4672 
Q 1544 4750 1819 4750 
Q 2544 4750 2975 4387 
Q 3406 4025 3406 3419 
Q 3406 3131 3298 2873 
Q 3191 2616 2906 2266 
Q 2828 2175 2409 1742 
Q 1991 1309 1228 531 
z
" transform="scale(0.015625)"/>
        <path id="DejaVuSans-35" d="M 691 4666 
L 3169 4666 
L 3169 4134 
L 1269 4134 
L 1269 2991 
Q 1406 3038 1543 3061 
Q 1681 3084 1819 3084 
Q 2600 3084 3056 2656 
Q 3513 2228 3513 1497 
Q 3513 744 3044 326 
Q 2575 -91 1722 -91 
Q 1428 -91 1123 -41 
Q 819 9 494 109 
L 494 744 
Q 775 591 1075 516 
Q 1375 441 1709 441 
Q 2250 441 2565 725 
Q 2881 1009 2881 1497 
Q 2881 1984 2565 2268 
Q 2250 2553 1709 2553 
Q 1456 2553 1204 2497 
Q 953 2441 691 2322 
L 691 4666 
z
" transform="scale(0.015625)"/>
       </defs>
       <use xlink:href="#DejaVuSans-32"/>
       <use xlink:href="#DejaVuSans-35" x="63.623047"/>
      </g>
     </g>
    </g>
    <g id="xtick_3">
     <g id="line2d_5">
      <path d="M 155.404221 307.584 
L 155.404221 41.472 
" clip-path="url(#p892382e70b)" style="fill: none; stroke: #b0b0b0; stroke-width: 0.8; stroke-linecap: square"/>
     </g>
     <g id="line2d_6">
      <g>
       <use xlink:href="#m4f11b714c8" x="155.404221" y="307.584" style="stroke: #000000; stroke-width: 0.8"/>
      </g>
     </g>
     <g id="text_3">
      <!-- 50 -->
      <g transform="translate(149.041721 322.182437)scale(0.1 -0.1)">
       <use xlink:href="#DejaVuSans-35"/>
       <use xlink:href="#DejaVuSans-30" x="63.623047"/>
      </g>
     </g>
    </g>
    <g id="xtick_4">
     <g id="line2d_7">
      <path d="M 196.189968 307.584 
L 196.189968 41.472 
" clip-path="url(#p892382e70b)" style="fill: none; stroke: #b0b0b0; stroke-width: 0.8; stroke-linecap: square"/>
     </g>
     <g id="line2d_8">
      <g>
       <use xlink:href="#m4f11b714c8" x="196.189968" y="307.584" style="stroke: #000000; stroke-width: 0.8"/>
      </g>
     </g>
     <g id="text_4">
      <!-- 75 -->
      <g transform="translate(189.827468 322.182437)scale(0.1 -0.1)">
       <defs>
        <path id="DejaVuSans-37" d="M 525 4666 
L 3525 4666 
L 3525 4397 
L 1831 0 
L 1172 0 
L 2766 4134 
L 525 4134 
L 525 4666 
z
" transform="scale(0.015625)"/>
       </defs>
       <use xlink:href="#DejaVuSans-37"/>
       <use xlink:href="#DejaVuSans-35" x="63.623047"/>
      </g>
     </g>
    </g>
    <g id="xtick_5">
     <g id="line2d_9">
      <path d="M 236.975715 307.584 
L 236.975715 41.472 
" clip-path="url(#p892382e70b)" style="fill: none; stroke: #b0b0b0; stroke-width: 0.8; stroke-linecap: square"/>
     </g>
     <g id="line2d_10">
      <g>
       <use xlink:href="#m4f11b714c8" x="236.975715" y="307.584" style="stroke: #000000; stroke-width: 0.8"/>
      </g>
     </g>
     <g id="text_5">
      <!-- 100 -->
      <g transform="translate(227.431965 322.182437)scale(0.1 -0.1)">
       <defs>
        <path id="DejaVuSans-31" d="M 794 531 
L 1825 531 
L 1825 4091 
L 703 3866 
L 703 4441 
L 1819 4666 
L 2450 4666 
L 2450 531 
L 3481 531 
L 3481 0 
L 794 0 
L 794 531 
z
" transform="scale(0.015625)"/>
       </defs>
       <use xlink:href="#DejaVuSans-31"/>
       <use xlink:href="#DejaVuSans-30" x="63.623047"/>
       <use xlink:href="#DejaVuSans-30" x="127.246094"/>
      </g>
     </g>
    </g>
    <g id="xtick_6">
     <g id="line2d_11">
      <path d="M 277.761462 307.584 
L 277.761462 41.472 
" clip-path="url(#p892382e70b)" style="fill: none; stroke: #b0b0b0; stroke-width: 0.8; stroke-linecap: square"/>
     </g>
     <g id="line2d_12">
      <g>
       <use xlink:href="#m4f11b714c8" x="277.761462" y="307.584" style="stroke: #000000; stroke-width: 0.8"/>
      </g>
     </g>
     <g id="text_6">
      <!-- 125 -->
      <g transform="translate(268.217712 322.182437)scale(0.1 -0.1)">
       <use xlink:href="#DejaVuSans-31"/>
       <use xlink:href="#DejaVuSans-32" x="63.623047"/>
       <use xlink:href="#DejaVuSans-35" x="127.246094"/>
      </g>
     </g>
    </g>
    <g id="xtick_7">
     <g id="line2d_13">
      <path d="M 318.547209 307.584 
L 318.547209 41.472 
" clip-path="url(#p892382e70b)" style="fill: none; stroke: #b0b0b0; stroke-width: 0.8; stroke-linecap: square"/>
     </g>
     <g id="line2d_14">
      <g>
       <use xlink:href="#m4f11b714c8" x="318.547209" y="307.584" style="stroke: #000000; stroke-width: 0.8"/>
      </g>
     </g>
     <g id="text_7">
      <!-- 150 -->
      <g transform="translate(309.003459 322.182437)scale(0.1 -0.1)">
       <use xlink:href="#DejaVuSans-31"/>
       <use xlink:href="#DejaVuSans-35" x="63.623047"/>
       <use xlink:href="#DejaVuSans-30" x="127.246094"/>
      </g>
     </g>
    </g>
    <g id="xtick_8">
     <g id="line2d_15">
      <path d="M 359.332956 307.584 
L 359.332956 41.472 
" clip-path="url(#p892382e70b)" style="fill: none; stroke: #b0b0b0; stroke-width: 0.8; stroke-linecap: square"/>
     </g>
     <g id="line2d_16">
      <g>
       <use xlink:href="#m4f11b714c8" x="359.332956" y="307.584" style="stroke: #000000; stroke-width: 0.8"/>
      </g>
     </g>
     <g id="text_8">
      <!-- 175 -->
      <g transform="translate(349.789206 322.182437)scale(0.1 -0.1)">
       <use xlink:href="#DejaVuSans-31"/>
       <use xlink:href="#DejaVuSans-37" x="63.623047"/>
       <use xlink:href="#DejaVuSans-35" x="127.246094"/>
      </g>
     </g>
    </g>
    <g id="xtick_9">
     <g id="line2d_17">
      <path d="M 400.118703 307.584 
L 400.118703 41.472 
" clip-path="url(#p892382e70b)" style="fill: none; stroke: #b0b0b0; stroke-width: 0.8; stroke-linecap: square"/>
     </g>
     <g id="line2d_18">
      <g>
       <use xlink:href="#m4f11b714c8" x="400.118703" y="307.584" style="stroke: #000000; stroke-width: 0.8"/>
      </g>
     </g>
     <g id="text_9">
      <!-- 200 -->
      <g transform="translate(390.574953 322.182437)scale(0.1 -0.1)">
       <use xlink:href="#DejaVuSans-32"/>
       <use xlink:href="#DejaVuSans-30" x="63.623047"/>
       <use xlink:href="#DejaVuSans-30" x="127.246094"/>
      </g>
     </g>
    </g>
    <g id="text_10">
     <!-- Generations -->
     <g transform="translate(205.662344 335.860562)scale(0.1 -0.1)">
      <defs>
       <path id="DejaVuSans-47" d="M 3809 666 
L 3809 1919 
L 2778 1919 
L 2778 2438 
L 4434 2438 
L 4434 434 
Q 4069 175 3628 42 
Q 3188 -91 2688 -91 
Q 1594 -91 976 548 
Q 359 1188 359 2328 
Q 359 3472 976 4111 
Q 1594 4750 2688 4750 
Q 3144 4750 3555 4637 
Q 3966 4525 4313 4306 
L 4313 3634 
Q 3963 3931 3569 4081 
Q 3175 4231 2741 4231 
Q 1884 4231 1454 3753 
Q 1025 3275 1025 2328 
Q 1025 1384 1454 906 
Q 1884 428 2741 428 
Q 3075 428 3337 486 
Q 3600 544 3809 666 
z
" transform="scale(0.015625)"/>
       <path id="DejaVuSans-65" d="M 3597 1894 
L 3597 1613 
L 953 1613 
Q 991 1019 1311 708 
Q 1631 397 2203 397 
Q 2534 397 2845 478 
Q 3156 559 3463 722 
L 3463 178 
Q 3153 47 2828 -22 
Q 2503 -91 2169 -91 
Q 1331 -91 842 396 
Q 353 884 353 1716 
Q 353 2575 817 3079 
Q 1281 3584 2069 3584 
Q 2775 3584 3186 3129 
Q 3597 2675 3597 1894 
z
M 3022 2063 
Q 3016 2534 2758 2815 
Q 2500 3097 2075 3097 
Q 1594 3097 1305 2825 
Q 1016 2553 972 2059 
L 3022 2063 
z
" transform="scale(0.015625)"/>
       <path id="DejaVuSans-6e" d="M 3513 2113 
L 3513 0 
L 2938 0 
L 2938 2094 
Q 2938 2591 2744 2837 
Q 2550 3084 2163 3084 
Q 1697 3084 1428 2787 
Q 1159 2491 1159 1978 
L 1159 0 
L 581 0 
L 581 3500 
L 1159 3500 
L 1159 2956 
Q 1366 3272 1645 3428 
Q 1925 3584 2291 3584 
Q 2894 3584 3203 3211 
Q 3513 2838 3513 2113 
z
" transform="scale(0.015625)"/>
       <path id="DejaVuSans-72" d="M 2631 2963 
Q 2534 3019 2420 3045 
Q 2306 3072 2169 3072 
Q 1681 3072 1420 2755 
Q 1159 2438 1159 1844 
L 1159 0 
L 581 0 
L 581 3500 
L 1159 3500 
L 1159 2956 
Q 1341 3275 1631 3429 
Q 1922 3584 2338 3584 
Q 2397 3584 2469 3576 
Q 2541 3569 2628 3553 
L 2631 2963 
z
" transform="scale(0.015625)"/>
       <path id="DejaVuSans-61" d="M 2194 1759 
Q 1497 1759 1228 1600 
Q 959 1441 959 1056 
Q 959 750 1161 570 
Q 1363 391 1709 391 
Q 2188 391 2477 730 
Q 2766 1069 2766 1631 
L 2766 1759 
L 2194 1759 
z
M 3341 1997 
L 3341 0 
L 2766 0 
L 2766 531 
Q 2569 213 2275 61 
Q 1981 -91 1556 -91 
Q 1019 -91 701 211 
Q 384 513 384 1019 
Q 384 1609 779 1909 
Q 1175 2209 1959 2209 
L 2766 2209 
L 2766 2266 
Q 2766 2663 2505 2880 
Q 2244 3097 1772 3097 
Q 1472 3097 1187 3025 
Q 903 2953 641 2809 
L 641 3341 
Q 956 3463 1253 3523 
Q 1550 3584 1831 3584 
Q 2591 3584 2966 3190 
Q 3341 2797 3341 1997 
z
" transform="scale(0.015625)"/>
       <path id="DejaVuSans-74" d="M 1172 4494 
L 1172 3500 
L 2356 3500 
L 2356 3053 
L 1172 3053 
L 1172 1153 
Q 1172 725 1289 603 
Q 1406 481 1766 481 
L 2356 481 
L 2356 0 
L 1766 0 
Q 1100 0 847 248 
Q 594 497 594 1153 
L 594 3053 
L 172 3053 
L 172 3500 
L 594 3500 
L 594 4494 
L 1172 4494 
z
" transform="scale(0.015625)"/>
       <path id="DejaVuSans-69" d="M 603 3500 
L 1178 3500 
L 1178 0 
L 603 0 
L 603 3500 
z
M 603 4863 
L 1178 4863 
L 1178 4134 
L 603 4134 
L 603 4863 
z
" transform="scale(0.015625)"/>
       <path id="DejaVuSans-6f" d="M 1959 3097 
Q 1497 3097 1228 2736 
Q 959 2375 959 1747 
Q 959 1119 1226 758 
Q 1494 397 1959 397 
Q 2419 397 2687 759 
Q 2956 1122 2956 1747 
Q 2956 2369 2687 2733 
Q 2419 3097 1959 3097 
z
M 1959 3584 
Q 2709 3584 3137 3096 
Q 3566 2609 3566 1747 
Q 3566 888 3137 398 
Q 2709 -91 1959 -91 
Q 1206 -91 779 398 
Q 353 888 353 1747 
Q 353 2609 779 3096 
Q 1206 3584 1959 3584 
z
" transform="scale(0.015625)"/>
       <path id="DejaVuSans-73" d="M 2834 3397 
L 2834 2853 
Q 2591 2978 2328 3040 
Q 2066 3103 1784 3103 
Q 1356 3103 1142 2972 
Q 928 2841 928 2578 
Q 928 2378 1081 2264 
Q 1234 2150 1697 2047 
L 1894 2003 
Q 2506 1872 2764 1633 
Q 3022 1394 3022 966 
Q 3022 478 2636 193 
Q 2250 -91 1575 -91 
Q 1294 -91 989 -36 
Q 684 19 347 128 
L 347 722 
Q 666 556 975 473 
Q 1284 391 1588 391 
Q 1994 391 2212 530 
Q 2431 669 2431 922 
Q 2431 1156 2273 1281 
Q 2116 1406 1581 1522 
L 1381 1569 
Q 847 1681 609 1914 
Q 372 2147 372 2553 
Q 372 3047 722 3315 
Q 1072 3584 1716 3584 
Q 2034 3584 2315 3537 
Q 2597 3491 2834 3397 
z
" transform="scale(0.015625)"/>
      </defs>
      <use xlink:href="#DejaVuSans-47"/>
      <use xlink:href="#DejaVuSans-65" x="77.490234"/>
      <use xlink:href="#DejaVuSans-6e" x="139.013672"/>
      <use xlink:href="#DejaVuSans-65" x="202.392578"/>
      <use xlink:href="#DejaVuSans-72" x="263.916016"/>
      <use xlink:href="#DejaVuSans-61" x="305.029297"/>
      <use xlink:href="#DejaVuSans-74" x="366.308594"/>
      <use xlink:href="#DejaVuSans-69" x="405.517578"/>
      <use xlink:href="#DejaVuSans-6f" x="433.300781"/>
      <use xlink:href="#DejaVuSans-6e" x="494.482422"/>
      <use xlink:href="#DejaVuSans-73" x="557.861328"/>
     </g>
    </g>
   </g>
   <g id="matplotlib.axis_2">
    <g id="ytick_1">
     <g id="line2d_19">
      <path d="M 57.6 283.853605 
L 414.72 283.853605 
" clip-path="url(#p892382e70b)" style="fill: none; stroke: #b0b0b0; stroke-width: 0.8; stroke-linecap: square"/>
     </g>
     <g id="line2d_20">
      <defs>
       <path id="m91c3dca8b1" d="M 0 0 
L -3.5 0 
" style="stroke: #000000; stroke-width: 0.8"/>
      </defs>
      <g>
       <use xlink:href="#m91c3dca8b1" x="57.6" y="283.853605" style="stroke: #000000; stroke-width: 0.8"/>
      </g>
     </g>
     <g id="text_11">
      <!-- 0 -->
      <g transform="translate(44.2375 287.652824)scale(0.1 -0.1)">
       <use xlink:href="#DejaVuSans-30"/>
      </g>
     </g>
    </g>
    <g id="ytick_2">
     <g id="line2d_21">
      <path d="M 57.6 250.38186 
L 414.72 250.38186 
" clip-path="url(#p892382e70b)" style="fill: none; stroke: #b0b0b0; stroke-width: 0.8; stroke-linecap: square"/>
     </g>
     <g id="line2d_22">
      <g>
       <use xlink:href="#m91c3dca8b1" x="57.6" y="250.38186" style="stroke: #000000; stroke-width: 0.8"/>
      </g>
     </g>
     <g id="text_12">
      <!-- 25 -->
      <g transform="translate(37.875 254.181079)scale(0.1 -0.1)">
       <use xlink:href="#DejaVuSans-32"/>
       <use xlink:href="#DejaVuSans-35" x="63.623047"/>
      </g>
     </g>
    </g>
    <g id="ytick_3">
     <g id="line2d_23">
      <path d="M 57.6 216.910115 
L 414.72 216.910115 
" clip-path="url(#p892382e70b)" style="fill: none; stroke: #b0b0b0; stroke-width: 0.8; stroke-linecap: square"/>
     </g>
     <g id="line2d_24">
      <g>
       <use xlink:href="#m91c3dca8b1" x="57.6" y="216.910115" style="stroke: #000000; stroke-width: 0.8"/>
      </g>
     </g>
     <g id="text_13">
      <!-- 50 -->
      <g transform="translate(37.875 220.709334)scale(0.1 -0.1)">
       <use xlink:href="#DejaVuSans-35"/>
       <use xlink:href="#DejaVuSans-30" x="63.623047"/>
      </g>
     </g>
    </g>
    <g id="ytick_4">
     <g id="line2d_25">
      <path d="M 57.6 183.43837 
L 414.72 183.43837 
" clip-path="url(#p892382e70b)" style="fill: none; stroke: #b0b0b0; stroke-width: 0.8; stroke-linecap: square"/>
     </g>
     <g id="line2d_26">
      <g>
       <use xlink:href="#m91c3dca8b1" x="57.6" y="183.43837" style="stroke: #000000; stroke-width: 0.8"/>
      </g>
     </g>
     <g id="text_14">
      <!-- 75 -->
      <g transform="translate(37.875 187.237589)scale(0.1 -0.1)">
       <use xlink:href="#DejaVuSans-37"/>
       <use xlink:href="#DejaVuSans-35" x="63.623047"/>
      </g>
     </g>
    </g>
    <g id="ytick_5">
     <g id="line2d_27">
      <path d="M 57.6 149.966625 
L 414.72 149.966625 
" clip-path="url(#p892382e70b)" style="fill: none; stroke: #b0b0b0; stroke-width: 0.8; stroke-linecap: square"/>
     </g>
     <g id="line2d_28">
      <g>
       <use xlink:href="#m91c3dca8b1" x="57.6" y="149.966625" style="stroke: #000000; stroke-width: 0.8"/>
      </g>
     </g>
     <g id="text_15">
      <!-- 100 -->
      <g transform="translate(31.5125 153.765844)scale(0.1 -0.1)">
       <use xlink:href="#DejaVuSans-31"/>
       <use xlink:href="#DejaVuSans-30" x="63.623047"/>
       <use xlink:href="#DejaVuSans-30" x="127.246094"/>
      </g>
     </g>
    </g>
    <g id="ytick_6">
     <g id="line2d_29">
      <path d="M 57.6 116.49488 
L 414.72 116.49488 
" clip-path="url(#p892382e70b)" style="fill: none; stroke: #b0b0b0; stroke-width: 0.8; stroke-linecap: square"/>
     </g>
     <g id="line2d_30">
      <g>
       <use xlink:href="#m91c3dca8b1" x="57.6" y="116.49488" style="stroke: #000000; stroke-width: 0.8"/>
      </g>
     </g>
     <g id="text_16">
      <!-- 125 -->
      <g transform="translate(31.5125 120.294099)scale(0.1 -0.1)">
       <use xlink:href="#DejaVuSans-31"/>
       <use xlink:href="#DejaVuSans-32" x="63.623047"/>
       <use xlink:href="#DejaVuSans-35" x="127.246094"/>
      </g>
     </g>
    </g>
    <g id="ytick_7">
     <g id="line2d_31">
      <path d="M 57.6 83.023136 
L 414.72 83.023136 
" clip-path="url(#p892382e70b)" style="fill: none; stroke: #b0b0b0; stroke-width: 0.8; stroke-linecap: square"/>
     </g>
     <g id="line2d_32">
      <g>
       <use xlink:href="#m91c3dca8b1" x="57.6" y="83.023136" style="stroke: #000000; stroke-width: 0.8"/>
      </g>
     </g>
     <g id="text_17">
      <!-- 150 -->
      <g transform="translate(31.5125 86.822354)scale(0.1 -0.1)">
       <use xlink:href="#DejaVuSans-31"/>
       <use xlink:href="#DejaVuSans-35" x="63.623047"/>
       <use xlink:href="#DejaVuSans-30" x="127.246094"/>
      </g>
     </g>
    </g>
    <g id="ytick_8">
     <g id="line2d_33">
      <path d="M 57.6 49.551391 
L 414.72 49.551391 
" clip-path="url(#p892382e70b)" style="fill: none; stroke: #b0b0b0; stroke-width: 0.8; stroke-linecap: square"/>
     </g>
     <g id="line2d_34">
      <g>
       <use xlink:href="#m91c3dca8b1" x="57.6" y="49.551391" style="stroke: #000000; stroke-width: 0.8"/>
      </g>
     </g>
     <g id="text_18">
      <!-- 175 -->
      <g transform="translate(31.5125 53.350609)scale(0.1 -0.1)">
       <use xlink:href="#DejaVuSans-31"/>
       <use xlink:href="#DejaVuSans-37" x="63.623047"/>
       <use xlink:href="#DejaVuSans-35" x="127.246094"/>
      </g>
     </g>
    </g>
    <g id="text_19">
     <!-- Fitness -->
     <g transform="translate(25.432812 191.845187)rotate(-90)scale(0.1 -0.1)">
      <defs>
       <path id="DejaVuSans-46" d="M 628 4666 
L 3309 4666 
L 3309 4134 
L 1259 4134 
L 1259 2759 
L 3109 2759 
L 3109 2228 
L 1259 2228 
L 1259 0 
L 628 0 
L 628 4666 
z
" transform="scale(0.015625)"/>
      </defs>
      <use xlink:href="#DejaVuSans-46"/>
      <use xlink:href="#DejaVuSans-69" x="50.269531"/>
      <use xlink:href="#DejaVuSans-74" x="78.052734"/>
      <use xlink:href="#DejaVuSans-6e" x="117.261719"/>
      <use xlink:href="#DejaVuSans-65" x="180.640625"/>
      <use xlink:href="#DejaVuSans-73" x="242.164062"/>
      <use xlink:href="#DejaVuSans-73" x="294.263672"/>
     </g>
    </g>
   </g>
   <g id="line2d_35">
    <path d="M 73.832727 236.396098 
L 75.464157 238.739899 
L 77.095587 241.795242 
L 78.727017 232.284951 
L 80.358447 228.826056 
L 81.989877 240.233227 
L 83.621307 231.289577 
L 85.252736 233.90208 
L 86.884166 234.067155 
L 88.515596 241.482839 
L 90.147026 236.02025 
L 91.778456 231.936215 
L 93.409886 235.289974 
L 95.041316 230.298813 
L 96.672746 235.742959 
L 98.304175 225.617144 
L 99.935605 234.659186 
L 101.567035 241.055003 
L 103.198465 241.036549 
L 104.829895 238.340898 
L 106.461325 243.350577 
L 108.092755 233.372929 
L 109.724185 239.293502 
L 111.355614 241.207457 
L 112.987044 242.348641 
L 114.618474 247.308749 
L 116.249904 244.356946 
L 117.881334 242.553935 
L 119.512764 236.022706 
L 121.144194 237.698783 
L 122.775624 235.294864 
L 124.407053 238.171367 
L 126.038483 242.916109 
L 127.669913 237.715447 
L 129.301343 237.814335 
L 130.932773 237.171678 
L 132.564203 231.871311 
L 134.195633 237.065533 
L 135.827063 246.463434 
L 137.458492 234.770638 
L 139.089922 235.020091 
L 140.721352 240.48127 
L 142.352782 244.17197 
L 143.984212 241.860973 
L 145.615642 242.242941 
L 147.247072 247.463124 
L 148.878502 248.677032 
L 150.509931 239.374373 
L 152.141361 240.299901 
L 153.772791 242.938801 
L 155.404221 239.452132 
L 157.035651 244.964722 
L 158.667081 235.610538 
L 160.298511 240.414718 
L 161.929941 233.672413 
L 163.56137 237.961129 
L 165.1928 240.146553 
L 166.82423 233.783421 
L 168.45566 237.879946 
L 170.08709 245.182872 
L 173.34995 238.438432 
L 174.98138 242.093199 
L 176.61281 238.997091 
L 178.244239 233.931613 
L 179.875669 227.014119 
L 181.507099 234.432237 
L 183.138529 232.652774 
L 184.769959 239.817745 
L 186.401389 237.064568 
L 188.032819 233.96498 
L 189.664249 232.28034 
L 191.295678 240.727904 
L 192.927108 234.27948 
L 194.558538 237.430526 
L 196.189968 235.417485 
L 197.821398 237.685061 
L 199.452828 231.529854 
L 201.084258 240.569354 
L 202.715688 238.314415 
L 204.347117 233.210181 
L 205.978547 234.998336 
L 207.609977 234.794224 
L 209.241407 234.747032 
L 210.872837 233.676615 
L 212.504267 234.641332 
L 214.135697 240.683862 
L 215.767127 234.394698 
L 217.398556 239.776602 
L 219.029986 238.965281 
L 220.661416 241.259694 
L 222.292846 244.678275 
L 223.924276 242.803857 
L 225.555706 242.905755 
L 227.187136 239.086831 
L 228.818566 239.779459 
L 230.449995 241.188287 
L 232.081425 242.916109 
L 233.712855 247.039119 
L 235.344285 238.03748 
L 236.975715 237.53403 
L 238.607145 239.501311 
L 240.238575 236.984176 
L 241.870005 234.072808 
L 243.501434 243.10344 
L 245.132864 244.622024 
L 246.764294 235.787293 
L 248.395724 243.572244 
L 250.027154 243.935778 
L 251.658584 237.997314 
L 253.290014 240.688443 
L 254.921444 237.250296 
L 256.552873 233.455354 
L 258.184303 234.084889 
L 259.815733 238.546251 
L 261.447163 239.394202 
L 263.078593 238.689064 
L 264.710023 233.540287 
L 266.341453 241.617548 
L 267.972883 238.631516 
L 269.604312 233.162753 
L 271.235742 243.714835 
L 272.867172 227.814857 
L 274.498602 229.970746 
L 276.130032 237.824486 
L 277.761462 239.018855 
L 279.392892 233.889821 
L 281.024322 237.268029 
L 282.655751 234.549051 
L 284.287181 241.617548 
L 285.918611 243.203052 
L 287.550041 238.962088 
L 289.181471 238.816491 
L 290.812901 241.674831 
L 292.444331 241.29021 
L 294.075761 238.41345 
L 295.70719 231.928359 
L 297.33862 239.440368 
L 298.97005 236.182793 
L 300.60148 239.478384 
L 302.23291 229.076757 
L 303.86434 234.351608 
L 305.49577 236.725388 
L 307.1272 234.005088 
L 308.75863 235.020561 
L 310.390059 239.554866 
L 312.021489 236.445034 
L 313.652919 243.274169 
L 315.284349 236.868201 
L 316.915779 235.211018 
L 318.547209 237.972604 
L 320.178639 237.287713 
L 321.810069 231.343131 
L 323.441498 234.324469 
L 325.072928 227.477302 
L 326.704358 235.457925 
L 328.335788 238.223475 
L 329.967218 242.312698 
L 331.598648 249.201541 
L 333.230078 241.71444 
L 334.861508 237.037791 
L 336.492937 239.564501 
L 338.124367 243.617959 
L 339.755797 239.76016 
L 341.387227 242.570308 
L 343.018657 241.169372 
L 344.650087 238.349765 
L 346.281517 243.767311 
L 347.912947 245.043882 
L 349.544376 231.267732 
L 351.175806 232.227843 
L 352.807236 239.307367 
L 354.438666 238.288562 
L 356.070096 245.821065 
L 357.701526 237.213371 
L 359.332956 240.563481 
L 360.964386 238.680138 
L 362.595815 230.027539 
L 364.227245 240.185169 
L 365.858675 236.63613 
L 367.490105 238.305607 
L 369.121535 238.042546 
L 370.752965 229.704745 
L 372.384395 236.710815 
L 374.015825 238.196336 
L 375.647254 240.581333 
L 377.278684 242.348641 
L 378.910114 237.768297 
L 380.541544 227.930744 
L 382.172974 240.780513 
L 383.804404 240.084894 
L 385.435834 242.697114 
L 387.067264 241.552556 
L 388.698693 242.809709 
L 390.330123 240.572407 
L 391.961553 237.348372 
L 393.592983 242.924976 
L 395.224413 238.395357 
L 396.855843 235.290758 
L 398.487273 244.374797 
L 398.487273 244.374797 
" clip-path="url(#p892382e70b)" style="fill: none; stroke: #0000ff; stroke-width: 1.5; stroke-linecap: square"/>
   </g>
   <g id="line2d_36">
    <path d="M 73.832727 290.287104 
L 75.464157 293.262826 
L 77.095587 288.754577 
L 78.727017 289.426539 
L 80.358447 282.655449 
L 81.989877 290.936698 
L 83.621307 288.619981 
L 85.252736 288.832198 
L 86.884166 283.816944 
L 88.515596 288.729867 
L 90.147026 283.772162 
L 91.778456 288.881443 
L 93.409886 284.239051 
L 95.041316 281.541172 
L 96.672746 284.44497 
L 98.304175 283.873669 
L 99.935605 288.020969 
L 101.567035 282.663264 
L 103.198465 287.254125 
L 104.829895 287.462028 
L 106.461325 288.362387 
L 108.092755 284.745435 
L 109.724185 291.121269 
L 111.355614 286.050407 
L 112.987044 289.362611 
L 114.618474 290.82779 
L 116.249904 291.65671 
L 117.881334 287.310314 
L 119.512764 285.386297 
L 121.144194 286.220289 
L 122.775624 285.155032 
L 124.407053 291.010645 
L 126.038483 292.057038 
L 129.301343 286.012603 
L 130.932773 288.658761 
L 132.564203 284.175686 
L 134.195633 280.824251 
L 135.827063 289.725326 
L 137.458492 289.295981 
L 139.089922 286.440578 
L 140.721352 291.984763 
L 142.352782 287.482459 
L 143.984212 291.338726 
L 145.615642 295.488 
L 147.247072 292.16295 
L 148.878502 290.78625 
L 150.509931 291.007429 
L 152.141361 287.149317 
L 153.772791 293.119571 
L 155.404221 287.488174 
L 157.035651 293.543828 
L 158.667081 288.104381 
L 160.298511 287.691447 
L 161.929941 285.522289 
L 163.56137 288.781686 
L 165.1928 288.786085 
L 166.82423 286.074901 
L 168.45566 289.05975 
L 170.08709 290.39706 
L 171.71852 287.235107 
L 173.34995 287.362935 
L 174.98138 289.86333 
L 176.61281 289.191406 
L 178.244239 286.682027 
L 179.875669 283.112729 
L 181.507099 288.524136 
L 183.138529 283.556768 
L 184.769959 288.505874 
L 186.401389 282.614954 
L 188.032819 282.370372 
L 189.664249 281.426582 
L 191.295678 290.49212 
L 192.927108 286.059375 
L 194.558538 288.865551 
L 196.189968 287.209969 
L 197.821398 285.123723 
L 199.452828 283.650537 
L 201.084258 289.359554 
L 202.715688 285.044814 
L 204.347117 286.02135 
L 205.978547 287.482476 
L 207.609977 286.116013 
L 209.241407 284.909436 
L 210.872837 284.195023 
L 214.135697 287.922044 
L 215.767127 288.939478 
L 217.398556 288.324426 
L 219.029986 289.043657 
L 220.661416 288.019137 
L 222.292846 287.740077 
L 223.924276 290.346325 
L 225.555706 291.740388 
L 227.187136 286.277254 
L 230.449995 290.522364 
L 232.081425 286.451078 
L 233.712855 290.127164 
L 235.344285 286.625204 
L 236.975715 287.546747 
L 238.607145 287.345831 
L 240.238575 285.546665 
L 241.870005 284.339679 
L 243.501434 289.951769 
L 245.132864 293.016308 
L 246.764294 290.98617 
L 248.395724 294.728053 
L 250.027154 292.707632 
L 251.658584 291.782006 
L 253.290014 290.710998 
L 256.552873 287.088856 
L 258.184303 286.200284 
L 259.815733 291.347781 
L 261.447163 290.772691 
L 263.078593 290.90285 
L 264.710023 285.798997 
L 266.341453 292.694444 
L 267.972883 285.341017 
L 269.604312 284.047047 
L 271.235742 293.290904 
L 272.867172 285.82773 
L 274.498602 285.468445 
L 276.130032 284.388341 
L 277.761462 290.470861 
L 279.392892 285.598302 
L 281.024322 287.936595 
L 282.655751 289.703605 
L 284.287181 289.160782 
L 285.918611 291.618065 
L 287.550041 288.073561 
L 289.181471 288.851768 
L 290.812901 289.943401 
L 292.444331 289.252036 
L 294.075761 289.455267 
L 295.70719 285.739941 
L 297.33862 287.922281 
L 298.97005 291.98842 
L 300.60148 289.238604 
L 302.23291 285.310772 
L 303.86434 289.377705 
L 305.49577 288.12218 
L 307.1272 285.71657 
L 308.75863 284.116436 
L 310.390059 288.400667 
L 312.021489 289.75734 
L 313.652919 289.68507 
L 315.284349 284.377607 
L 316.915779 288.685777 
L 318.547209 285.893713 
L 320.178639 288.923641 
L 321.810069 287.473959 
L 323.441498 290.480807 
L 325.072928 284.292203 
L 326.704358 290.511883 
L 328.335788 285.643908 
L 329.967218 291.083692 
L 331.598648 293.197254 
L 333.230078 290.300732 
L 334.861508 289.683 
L 336.492937 285.058559 
L 338.124367 290.79597 
L 339.755797 289.603213 
L 341.387227 286.053708 
L 343.018657 285.438891 
L 344.650087 287.214653 
L 346.281517 285.727622 
L 347.912947 286.11368 
L 349.544376 282.76299 
L 351.175806 285.804152 
L 352.807236 287.114689 
L 354.438666 287.046943 
L 356.070096 289.418324 
L 357.701526 285.059901 
L 359.332956 289.106124 
L 360.964386 287.31692 
L 362.595815 282.122573 
L 364.227245 288.252992 
L 365.858675 288.337466 
L 367.490105 287.692977 
L 369.121535 282.963234 
L 370.752965 281.353101 
L 372.384395 283.791603 
L 374.015825 290.079201 
L 375.647254 286.399724 
L 377.278684 287.803357 
L 378.910114 286.216909 
L 380.541544 281.978076 
L 382.172974 286.866703 
L 383.804404 290.945308 
L 385.435834 289.382747 
L 387.067264 286.902146 
L 388.698693 288.880325 
L 390.330123 289.216085 
L 391.961553 287.09678 
L 393.592983 287.833094 
L 395.224413 288.198194 
L 396.855843 286.431943 
L 398.487273 292.894803 
L 398.487273 292.894803 
" clip-path="url(#p892382e70b)" style="fill: none; stroke-dasharray: 9.6,2.4,1.5,2.4; stroke-dashoffset: 0; stroke: #008000; stroke-width: 1.5"/>
   </g>
   <g id="line2d_37">
    <path d="M 73.832727 182.505093 
L 75.464157 184.216973 
L 77.095587 194.835907 
L 78.727017 175.143363 
L 80.358447 174.996663 
L 81.989877 189.529756 
L 83.621307 173.959172 
L 86.884166 184.317366 
L 88.515596 194.235811 
L 90.147026 188.268338 
L 91.778456 174.990986 
L 93.409886 186.340897 
L 95.041316 179.056454 
L 96.672746 187.040948 
L 98.304175 167.360619 
L 99.935605 181.297403 
L 101.567035 199.446743 
L 103.198465 194.818973 
L 104.829895 189.219769 
L 106.461325 198.338767 
L 108.092755 182.000422 
L 109.724185 187.465735 
L 111.355614 196.364506 
L 112.987044 195.334671 
L 114.618474 203.789709 
L 116.249904 197.057182 
L 117.881334 197.797555 
L 119.512764 186.659115 
L 121.144194 189.177277 
L 122.775624 185.434697 
L 124.407053 185.33209 
L 126.038483 193.775181 
L 127.669913 186.407479 
L 129.301343 189.616068 
L 130.932773 185.684595 
L 132.564203 179.566936 
L 134.195633 193.306816 
L 135.827063 203.201543 
L 137.458492 180.245295 
L 139.089922 183.599603 
L 140.721352 188.977777 
L 142.352782 200.861482 
L 143.984212 192.383221 
L 145.615642 188.997882 
L 147.247072 202.763297 
L 148.878502 206.567815 
L 150.509931 187.741318 
L 152.141361 193.450484 
L 153.772791 192.758031 
L 155.404221 191.41609 
L 157.035651 196.385617 
L 158.667081 183.116695 
L 160.298511 193.13799 
L 161.929941 181.822536 
L 163.56137 187.140572 
L 165.1928 191.50702 
L 166.82423 181.491942 
L 168.45566 186.700142 
L 170.08709 199.968684 
L 171.71852 196.398173 
L 173.34995 189.51393 
L 174.98138 194.323067 
L 176.61281 188.802777 
L 178.244239 181.1812 
L 179.875669 170.915509 
L 181.507099 180.340337 
L 183.138529 181.748779 
L 184.769959 191.129616 
L 186.401389 191.514183 
L 188.032819 185.559587 
L 189.664249 183.134099 
L 191.295678 190.963688 
L 192.927108 182.499584 
L 194.558538 185.995501 
L 196.189968 183.625002 
L 197.821398 190.246399 
L 199.452828 179.409172 
L 201.084258 191.779154 
L 202.715688 191.584016 
L 204.347117 180.399012 
L 205.978547 182.514196 
L 207.609977 183.472434 
L 209.241407 184.584627 
L 210.872837 183.158208 
L 212.504267 183.240331 
L 214.135697 193.44568 
L 215.767127 179.849917 
L 217.398556 191.228778 
L 219.029986 188.886905 
L 220.661416 194.50025 
L 222.292846 201.616473 
L 223.924276 195.261389 
L 225.555706 194.071122 
L 227.187136 191.896408 
L 228.818566 191.095455 
L 230.449995 191.854211 
L 232.081425 199.38114 
L 233.712855 203.951074 
L 235.344285 189.449757 
L 236.975715 187.521313 
L 238.607145 191.656792 
L 240.238575 188.421688 
L 241.870005 183.805938 
L 243.501434 196.255111 
L 245.132864 196.22774 
L 246.764294 180.588415 
L 248.395724 192.416435 
L 250.027154 195.163925 
L 251.658584 184.212622 
L 253.290014 190.665888 
L 254.921444 185.559417 
L 256.552873 179.821852 
L 258.184303 181.969493 
L 259.815733 185.744721 
L 261.447163 188.015713 
L 263.078593 186.475278 
L 264.710023 181.281577 
L 266.341453 190.540651 
L 267.972883 191.922015 
L 269.604312 182.278459 
L 271.235742 194.138766 
L 272.867172 169.801984 
L 274.498602 174.473046 
L 276.130032 191.260632 
L 277.761462 187.566849 
L 279.392892 182.181341 
L 281.024322 186.599464 
L 282.655751 179.394496 
L 284.287181 194.074313 
L 285.918611 194.788038 
L 287.550041 189.850616 
L 289.181471 188.781215 
L 290.812901 193.406261 
L 292.444331 193.328385 
L 294.075761 187.371632 
L 295.70719 178.116776 
L 297.33862 190.958455 
L 298.97005 180.377167 
L 300.60148 189.718165 
L 302.23291 172.842743 
L 303.86434 179.325511 
L 305.49577 185.328596 
L 307.1272 182.293607 
L 308.75863 185.924685 
L 310.390059 190.709065 
L 312.021489 183.132728 
L 313.652919 196.863268 
L 316.915779 181.736259 
L 318.547209 190.051495 
L 320.178639 185.651786 
L 321.810069 175.212304 
L 323.441498 178.16813 
L 325.072928 170.662402 
L 328.335788 190.803041 
L 329.967218 193.541704 
L 331.598648 205.205827 
L 333.230078 193.128147 
L 334.861508 184.392582 
L 336.492937 194.070443 
L 338.124367 196.439948 
L 339.755797 189.917106 
L 341.387227 199.086909 
L 343.018657 196.899853 
L 344.650087 189.484877 
L 346.281517 201.807001 
L 347.912947 203.974085 
L 349.544376 179.772474 
L 351.175806 178.651533 
L 352.807236 191.500046 
L 354.438666 189.530181 
L 356.070096 202.223805 
L 357.701526 189.366841 
L 359.332956 192.020839 
L 360.964386 190.043356 
L 362.595815 177.932504 
L 364.227245 192.117347 
L 365.858675 184.934795 
L 369.121535 193.121859 
L 370.752965 178.056389 
L 372.384395 189.630027 
L 374.015825 186.31347 
L 375.647254 194.762942 
L 377.278684 196.893925 
L 378.910114 189.319686 
L 380.541544 173.883412 
L 382.172974 194.694323 
L 383.804404 189.22448 
L 385.435834 196.011482 
L 387.067264 196.202967 
L 388.698693 196.739092 
L 390.330123 191.92873 
L 391.961553 187.599965 
L 393.592983 198.016858 
L 395.224413 188.592519 
L 396.855843 184.149573 
L 398.487273 195.854792 
L 398.487273 195.854792 
" clip-path="url(#p892382e70b)" style="fill: none; stroke-dasharray: 9.6,2.4,1.5,2.4; stroke-dashoffset: 0; stroke: #008000; stroke-width: 1.5"/>
   </g>
   <g id="line2d_38">
    <path d="M 73.832727 88.378615 
L 75.464157 81.684266 
L 83.621307 81.684266 
L 85.252736 89.717484 
L 86.884166 89.717484 
L 88.515596 81.684266 
L 91.778456 81.684266 
L 93.409886 89.717484 
L 95.041316 81.684266 
L 96.672746 89.717484 
L 98.304175 87.039745 
L 99.935605 81.684266 
L 101.567035 89.717484 
L 103.198465 81.684266 
L 106.461325 81.684266 
L 108.092755 89.717484 
L 109.724185 81.684266 
L 111.355614 89.717484 
L 112.987044 81.684266 
L 114.618474 89.717484 
L 116.249904 81.684266 
L 126.038483 81.684266 
L 127.669913 77.667656 
L 129.301343 89.717484 
L 130.932773 81.684266 
L 132.564203 81.684266 
L 134.195633 89.717484 
L 135.827063 81.684266 
L 140.721352 81.684266 
L 142.352782 96.411833 
L 143.984212 81.684266 
L 145.615642 81.684266 
L 147.247072 89.717484 
L 148.878502 81.684266 
L 150.509931 81.684266 
L 152.141361 89.717484 
L 153.772791 81.684266 
L 161.929941 81.684266 
L 163.56137 89.717484 
L 165.1928 81.684266 
L 166.82423 89.717484 
L 168.45566 81.684266 
L 178.244239 81.684266 
L 179.875669 57.584609 
L 181.507099 81.684266 
L 183.138529 89.717484 
L 184.769959 81.684266 
L 186.401389 89.717484 
L 188.032819 81.684266 
L 189.664249 89.717484 
L 191.295678 81.684266 
L 192.927108 81.684266 
L 194.558538 89.717484 
L 196.189968 89.717484 
L 197.821398 88.378615 
L 199.452828 89.717484 
L 201.084258 81.684266 
L 202.715688 89.717484 
L 204.347117 81.684266 
L 205.978547 89.717484 
L 207.609977 112.478271 
L 209.241407 89.717484 
L 212.504267 73.651047 
L 214.135697 81.684266 
L 228.818566 81.684266 
L 230.449995 77.667656 
L 232.081425 81.684266 
L 236.975715 81.684266 
L 238.607145 89.717484 
L 240.238575 89.717484 
L 241.870005 81.684266 
L 251.658584 81.684266 
L 253.290014 89.717484 
L 254.921444 81.684266 
L 258.184303 81.684266 
L 259.815733 89.717484 
L 261.447163 81.684266 
L 267.972883 81.684266 
L 269.604312 89.717484 
L 271.235742 81.684266 
L 276.130032 81.684266 
L 277.761462 89.717484 
L 279.392892 81.684266 
L 282.655751 81.684266 
L 284.287181 89.717484 
L 285.918611 88.378615 
L 287.550041 81.684266 
L 289.181471 87.039745 
L 290.812901 81.684266 
L 292.444331 88.378615 
L 294.075761 87.039745 
L 295.70719 89.717484 
L 297.33862 81.684266 
L 298.97005 81.684266 
L 300.60148 89.717484 
L 302.23291 81.684266 
L 315.284349 81.684266 
L 316.915779 83.023136 
L 318.547209 81.684266 
L 326.704358 81.684266 
L 328.335788 89.717484 
L 329.967218 89.717484 
L 331.598648 81.684266 
L 333.230078 81.684266 
L 334.861508 84.362005 
L 336.492937 89.717484 
L 343.018657 89.717484 
L 344.650087 83.023136 
L 346.281517 89.717484 
L 347.912947 100.428443 
L 349.544376 89.717484 
L 351.175806 89.717484 
L 352.807236 68.295568 
L 354.438666 53.568 
L 356.070096 88.378615 
L 357.701526 89.717484 
L 359.332956 88.378615 
L 360.964386 88.378615 
L 362.595815 84.362005 
L 364.227245 89.717484 
L 365.858675 61.601219 
L 367.490105 89.717484 
L 369.121535 96.411833 
L 370.752965 89.717484 
L 372.384395 73.651047 
L 374.015825 81.684266 
L 375.647254 81.684266 
L 377.278684 87.039745 
L 378.910114 72.312177 
L 380.541544 88.378615 
L 382.172974 88.378615 
L 383.804404 74.989917 
L 385.435834 89.717484 
L 387.067264 65.617828 
L 388.698693 81.684266 
L 390.330123 81.684266 
L 391.961553 57.584609 
L 393.592983 81.684266 
L 395.224413 81.684266 
L 396.855843 61.601219 
L 398.487273 76.328787 
L 398.487273 76.328787 
" clip-path="url(#p892382e70b)" style="fill: none; stroke: #ff0000; stroke-width: 1.5; stroke-linecap: square"/>
   </g>
   <g id="patch_3">
    <path d="M 57.6 307.584 
L 57.6 41.472 
" style="fill: none; stroke: #000000; stroke-width: 0.8; stroke-linejoin: miter; stroke-linecap: square"/>
   </g>
   <g id="patch_4">
    <path d="M 414.72 307.584 
L 414.72 41.472 
" style="fill: none; stroke: #000000; stroke-width: 0.8; stroke-linejoin: miter; stroke-linecap: square"/>
   </g>
   <g id="patch_5">
    <path d="M 57.6 307.584 
L 414.72 307.584 
" style="fill: none; stroke: #000000; stroke-width: 0.8; stroke-linejoin: miter; stroke-linecap: square"/>
   </g>
   <g id="patch_6">
    <path d="M 57.6 41.472 
L 414.72 41.472 
" style="fill: none; stroke: #000000; stroke-width: 0.8; stroke-linejoin: miter; stroke-linecap: square"/>
   </g>
   <g id="text_20">
    <!-- Population's average and best fitness -->
    <g transform="translate(123.529687 35.472)scale(0.12 -0.12)">
     <defs>
      <path id="DejaVuSans-50" d="M 1259 4147 
L 1259 2394 
L 2053 2394 
Q 2494 2394 2734 2622 
Q 2975 2850 2975 3272 
Q 2975 3691 2734 3919 
Q 2494 4147 2053 4147 
L 1259 4147 
z
M 628 4666 
L 2053 4666 
Q 2838 4666 3239 4311 
Q 3641 3956 3641 3272 
Q 3641 2581 3239 2228 
Q 2838 1875 2053 1875 
L 1259 1875 
L 1259 0 
L 628 0 
L 628 4666 
z
" transform="scale(0.015625)"/>
      <path id="DejaVuSans-70" d="M 1159 525 
L 1159 -1331 
L 581 -1331 
L 581 3500 
L 1159 3500 
L 1159 2969 
Q 1341 3281 1617 3432 
Q 1894 3584 2278 3584 
Q 2916 3584 3314 3078 
Q 3713 2572 3713 1747 
Q 3713 922 3314 415 
Q 2916 -91 2278 -91 
Q 1894 -91 1617 61 
Q 1341 213 1159 525 
z
M 3116 1747 
Q 3116 2381 2855 2742 
Q 2594 3103 2138 3103 
Q 1681 3103 1420 2742 
Q 1159 2381 1159 1747 
Q 1159 1113 1420 752 
Q 1681 391 2138 391 
Q 2594 391 2855 752 
Q 3116 1113 3116 1747 
z
" transform="scale(0.015625)"/>
      <path id="DejaVuSans-75" d="M 544 1381 
L 544 3500 
L 1119 3500 
L 1119 1403 
Q 1119 906 1312 657 
Q 1506 409 1894 409 
Q 2359 409 2629 706 
Q 2900 1003 2900 1516 
L 2900 3500 
L 3475 3500 
L 3475 0 
L 2900 0 
L 2900 538 
Q 2691 219 2414 64 
Q 2138 -91 1772 -91 
Q 1169 -91 856 284 
Q 544 659 544 1381 
z
M 1991 3584 
L 1991 3584 
z
" transform="scale(0.015625)"/>
      <path id="DejaVuSans-6c" d="M 603 4863 
L 1178 4863 
L 1178 0 
L 603 0 
L 603 4863 
z
" transform="scale(0.015625)"/>
      <path id="DejaVuSans-27" d="M 1147 4666 
L 1147 2931 
L 616 2931 
L 616 4666 
L 1147 4666 
z
" transform="scale(0.015625)"/>
      <path id="DejaVuSans-20" transform="scale(0.015625)"/>
      <path id="DejaVuSans-76" d="M 191 3500 
L 800 3500 
L 1894 563 
L 2988 3500 
L 3597 3500 
L 2284 0 
L 1503 0 
L 191 3500 
z
" transform="scale(0.015625)"/>
      <path id="DejaVuSans-67" d="M 2906 1791 
Q 2906 2416 2648 2759 
Q 2391 3103 1925 3103 
Q 1463 3103 1205 2759 
Q 947 2416 947 1791 
Q 947 1169 1205 825 
Q 1463 481 1925 481 
Q 2391 481 2648 825 
Q 2906 1169 2906 1791 
z
M 3481 434 
Q 3481 -459 3084 -895 
Q 2688 -1331 1869 -1331 
Q 1566 -1331 1297 -1286 
Q 1028 -1241 775 -1147 
L 775 -588 
Q 1028 -725 1275 -790 
Q 1522 -856 1778 -856 
Q 2344 -856 2625 -561 
Q 2906 -266 2906 331 
L 2906 616 
Q 2728 306 2450 153 
Q 2172 0 1784 0 
Q 1141 0 747 490 
Q 353 981 353 1791 
Q 353 2603 747 3093 
Q 1141 3584 1784 3584 
Q 2172 3584 2450 3431 
Q 2728 3278 2906 2969 
L 2906 3500 
L 3481 3500 
L 3481 434 
z
" transform="scale(0.015625)"/>
      <path id="DejaVuSans-64" d="M 2906 2969 
L 2906 4863 
L 3481 4863 
L 3481 0 
L 2906 0 
L 2906 525 
Q 2725 213 2448 61 
Q 2172 -91 1784 -91 
Q 1150 -91 751 415 
Q 353 922 353 1747 
Q 353 2572 751 3078 
Q 1150 3584 1784 3584 
Q 2172 3584 2448 3432 
Q 2725 3281 2906 2969 
z
M 947 1747 
Q 947 1113 1208 752 
Q 1469 391 1925 391 
Q 2381 391 2643 752 
Q 2906 1113 2906 1747 
Q 2906 2381 2643 2742 
Q 2381 3103 1925 3103 
Q 1469 3103 1208 2742 
Q 947 2381 947 1747 
z
" transform="scale(0.015625)"/>
      <path id="DejaVuSans-62" d="M 3116 1747 
Q 3116 2381 2855 2742 
Q 2594 3103 2138 3103 
Q 1681 3103 1420 2742 
Q 1159 2381 1159 1747 
Q 1159 1113 1420 752 
Q 1681 391 2138 391 
Q 2594 391 2855 752 
Q 3116 1113 3116 1747 
z
M 1159 2969 
Q 1341 3281 1617 3432 
Q 1894 3584 2278 3584 
Q 2916 3584 3314 3078 
Q 3713 2572 3713 1747 
Q 3713 922 3314 415 
Q 2916 -91 2278 -91 
Q 1894 -91 1617 61 
Q 1341 213 1159 525 
L 1159 0 
L 581 0 
L 581 4863 
L 1159 4863 
L 1159 2969 
z
" transform="scale(0.015625)"/>
      <path id="DejaVuSans-66" d="M 2375 4863 
L 2375 4384 
L 1825 4384 
Q 1516 4384 1395 4259 
Q 1275 4134 1275 3809 
L 1275 3500 
L 2222 3500 
L 2222 3053 
L 1275 3053 
L 1275 0 
L 697 0 
L 697 3053 
L 147 3053 
L 147 3500 
L 697 3500 
L 697 3744 
Q 697 4328 969 4595 
Q 1241 4863 1831 4863 
L 2375 4863 
z
" transform="scale(0.015625)"/>
     </defs>
     <use xlink:href="#DejaVuSans-50"/>
     <use xlink:href="#DejaVuSans-6f" x="56.677734"/>
     <use xlink:href="#DejaVuSans-70" x="117.859375"/>
     <use xlink:href="#DejaVuSans-75" x="181.335938"/>
     <use xlink:href="#DejaVuSans-6c" x="244.714844"/>
     <use xlink:href="#DejaVuSans-61" x="272.498047"/>
     <use xlink:href="#DejaVuSans-74" x="333.777344"/>
     <use xlink:href="#DejaVuSans-69" x="372.986328"/>
     <use xlink:href="#DejaVuSans-6f" x="400.769531"/>
     <use xlink:href="#DejaVuSans-6e" x="461.951172"/>
     <use xlink:href="#DejaVuSans-27" x="525.330078"/>
     <use xlink:href="#DejaVuSans-73" x="552.820312"/>
     <use xlink:href="#DejaVuSans-20" x="604.919922"/>
     <use xlink:href="#DejaVuSans-61" x="636.707031"/>
     <use xlink:href="#DejaVuSans-76" x="697.986328"/>
     <use xlink:href="#DejaVuSans-65" x="757.166016"/>
     <use xlink:href="#DejaVuSans-72" x="818.689453"/>
     <use xlink:href="#DejaVuSans-61" x="859.802734"/>
     <use xlink:href="#DejaVuSans-67" x="921.082031"/>
     <use xlink:href="#DejaVuSans-65" x="984.558594"/>
     <use xlink:href="#DejaVuSans-20" x="1046.082031"/>
     <use xlink:href="#DejaVuSans-61" x="1077.869141"/>
     <use xlink:href="#DejaVuSans-6e" x="1139.148438"/>
     <use xlink:href="#DejaVuSans-64" x="1202.527344"/>
     <use xlink:href="#DejaVuSans-20" x="1266.003906"/>
     <use xlink:href="#DejaVuSans-62" x="1297.791016"/>
     <use xlink:href="#DejaVuSans-65" x="1361.267578"/>
     <use xlink:href="#DejaVuSans-73" x="1422.791016"/>
     <use xlink:href="#DejaVuSans-74" x="1474.890625"/>
     <use xlink:href="#DejaVuSans-20" x="1514.099609"/>
     <use xlink:href="#DejaVuSans-66" x="1545.886719"/>
     <use xlink:href="#DejaVuSans-69" x="1581.091797"/>
     <use xlink:href="#DejaVuSans-74" x="1608.875"/>
     <use xlink:href="#DejaVuSans-6e" x="1648.083984"/>
     <use xlink:href="#DejaVuSans-65" x="1711.462891"/>
     <use xlink:href="#DejaVuSans-73" x="1772.986328"/>
     <use xlink:href="#DejaVuSans-73" x="1825.085938"/>
    </g>
   </g>
   <g id="legend_1">
    <g id="patch_7">
     <path d="M 334.779375 108.1845 
L 407.72 108.1845 
Q 409.72 108.1845 409.72 106.1845 
L 409.72 48.472 
Q 409.72 46.472 407.72 46.472 
L 334.779375 46.472 
Q 332.779375 46.472 332.779375 48.472 
L 332.779375 106.1845 
Q 332.779375 108.1845 334.779375 108.1845 
z
" style="fill: #ffffff; opacity: 0.8; stroke: #cccccc; stroke-linejoin: miter"/>
    </g>
    <g id="line2d_39">
     <path d="M 336.779375 54.570438 
L 346.779375 54.570438 
L 356.779375 54.570438 
" style="fill: none; stroke: #0000ff; stroke-width: 1.5; stroke-linecap: square"/>
    </g>
    <g id="text_21">
     <!-- average -->
     <g transform="translate(364.779375 58.070438)scale(0.1 -0.1)">
      <use xlink:href="#DejaVuSans-61"/>
      <use xlink:href="#DejaVuSans-76" x="61.279297"/>
      <use xlink:href="#DejaVuSans-65" x="120.458984"/>
      <use xlink:href="#DejaVuSans-72" x="181.982422"/>
      <use xlink:href="#DejaVuSans-61" x="223.095703"/>
      <use xlink:href="#DejaVuSans-67" x="284.375"/>
      <use xlink:href="#DejaVuSans-65" x="347.851562"/>
     </g>
    </g>
    <g id="line2d_40">
     <path d="M 336.779375 69.248563 
L 346.779375 69.248563 
L 356.779375 69.248563 
" style="fill: none; stroke-dasharray: 9.6,2.4,1.5,2.4; stroke-dashoffset: 0; stroke: #008000; stroke-width: 1.5"/>
    </g>
    <g id="text_22">
     <!-- -1 sd -->
     <g transform="translate(364.779375 72.748563)scale(0.1 -0.1)">
      <defs>
       <path id="DejaVuSans-2d" d="M 313 2009 
L 1997 2009 
L 1997 1497 
L 313 1497 
L 313 2009 
z
" transform="scale(0.015625)"/>
      </defs>
      <use xlink:href="#DejaVuSans-2d"/>
      <use xlink:href="#DejaVuSans-31" x="36.083984"/>
      <use xlink:href="#DejaVuSans-20" x="99.707031"/>
      <use xlink:href="#DejaVuSans-73" x="131.494141"/>
      <use xlink:href="#DejaVuSans-64" x="183.59375"/>
     </g>
    </g>
    <g id="line2d_41">
     <path d="M 336.779375 83.926688 
L 346.779375 83.926688 
L 356.779375 83.926688 
" style="fill: none; stroke-dasharray: 9.6,2.4,1.5,2.4; stroke-dashoffset: 0; stroke: #008000; stroke-width: 1.5"/>
    </g>
    <g id="text_23">
     <!-- +1 sd -->
     <g transform="translate(364.779375 87.426688)scale(0.1 -0.1)">
      <defs>
       <path id="DejaVuSans-2b" d="M 2944 4013 
L 2944 2272 
L 4684 2272 
L 4684 1741 
L 2944 1741 
L 2944 0 
L 2419 0 
L 2419 1741 
L 678 1741 
L 678 2272 
L 2419 2272 
L 2419 4013 
L 2944 4013 
z
" transform="scale(0.015625)"/>
      </defs>
      <use xlink:href="#DejaVuSans-2b"/>
      <use xlink:href="#DejaVuSans-31" x="83.789062"/>
      <use xlink:href="#DejaVuSans-20" x="147.412109"/>
      <use xlink:href="#DejaVuSans-73" x="179.199219"/>
      <use xlink:href="#DejaVuSans-64" x="231.298828"/>
     </g>
    </g>
    <g id="line2d_42">
     <path d="M 336.779375 98.604813 
L 346.779375 98.604813 
L 356.779375 98.604813 
" style="fill: none; stroke: #ff0000; stroke-width: 1.5; stroke-linecap: square"/>
    </g>
    <g id="text_24">
     <!-- best -->
     <g transform="translate(364.779375 102.104813)scale(0.1 -0.1)">
      <use xlink:href="#DejaVuSans-62"/>
      <use xlink:href="#DejaVuSans-65" x="63.476562"/>
      <use xlink:href="#DejaVuSans-73" x="125"/>
      <use xlink:href="#DejaVuSans-74" x="177.099609"/>
     </g>
    </g>
   </g>
  </g>
 </g>
 <defs>
  <clipPath id="p892382e70b">
   <rect x="57.6" y="41.472" width="357.12" height="266.112"/>
  </clipPath>
 </defs>
</svg>
