<?xml version="1.0" encoding="utf-8" standalone="no"?>
<!DOCTYPE svg PUBLIC "-//W3C//DTD SVG 1.1//EN"
  "http://www.w3.org/Graphics/SVG/1.1/DTD/svg11.dtd">
<svg xmlns:xlink="http://www.w3.org/1999/xlink" width="460.8pt" height="345.6pt" viewBox="0 0 460.8 345.6" xmlns="http://www.w3.org/2000/svg" version="1.1">
 <metadata>
  <rdf:RDF xmlns:dc="http://purl.org/dc/elements/1.1/" xmlns:cc="http://creativecommons.org/ns#" xmlns:rdf="http://www.w3.org/1999/02/22-rdf-syntax-ns#">
   <cc:Work>
    <dc:type rdf:resource="http://purl.org/dc/dcmitype/StillImage"/>
    <dc:date>2022-08-01T09:41:28.345271</dc:date>
    <dc:format>image/svg+xml</dc:format>
    <dc:creator>
     <cc:Agent>
      <dc:title>Matplotlib v3.5.2, https://matplotlib.org/</dc:title>
     </cc:Agent>
    </dc:creator>
   </cc:Work>
  </rdf:RDF>
 </metadata>
 <defs>
  <style type="text/css">*{stroke-linejoin: round; stroke-linecap: butt}</style>
 </defs>
 <g id="figure_1">
  <g id="patch_1">
   <path d="M 0 345.6 
L 460.8 345.6 
L 460.8 0 
L 0 0 
z
" style="fill: #ffffff"/>
  </g>
  <g id="axes_1">
   <g id="patch_2">
    <path d="M 57.6 307.584 
L 414.72 307.584 
L 414.72 41.472 
L 57.6 41.472 
z
" style="fill: #ffffff"/>
   </g>
   <g id="matplotlib.axis_1">
    <g id="xtick_1">
     <g id="line2d_1">
      <path d="M 73.832727 307.584 
L 73.832727 41.472 
" clip-path="url(#p4c56d613fb)" style="fill: none; stroke: #b0b0b0; stroke-width: 0.8; stroke-linecap: square"/>
     </g>
     <g id="line2d_2">
      <defs>
       <path id="md7d1a31e08" d="M 0 0 
L 0 3.5 
" style="stroke: #000000; stroke-width: 0.8"/>
      </defs>
      <g>
       <use xlink:href="#md7d1a31e08" x="73.832727" y="307.584" style="stroke: #000000; stroke-width: 0.8"/>
      </g>
     </g>
     <g id="text_1">
      <!-- 0 -->
      <g transform="translate(70.651477 322.182437)scale(0.1 -0.1)">
       <defs>
        <path id="DejaVuSans-30" d="M 2034 4250 
Q 1547 4250 1301 3770 
Q 1056 3291 1056 2328 
Q 1056 1369 1301 889 
Q 1547 409 2034 409 
Q 2525 409 2770 889 
Q 3016 1369 3016 2328 
Q 3016 3291 2770 3770 
Q 2525 4250 2034 4250 
z
M 2034 4750 
Q 2819 4750 3233 4129 
Q 3647 3509 3647 2328 
Q 3647 1150 3233 529 
Q 2819 -91 2034 -91 
Q 1250 -91 836 529 
Q 422 1150 422 2328 
Q 422 3509 836 4129 
Q 1250 4750 2034 4750 
z
" transform="scale(0.015625)"/>
       </defs>
       <use xlink:href="#DejaVuSans-30"/>
      </g>
     </g>
    </g>
    <g id="xtick_2">
     <g id="line2d_3">
      <path d="M 128.122785 307.584 
L 128.122785 41.472 
" clip-path="url(#p4c56d613fb)" style="fill: none; stroke: #b0b0b0; stroke-width: 0.8; stroke-linecap: square"/>
     </g>
     <g id="line2d_4">
      <g>
       <use xlink:href="#md7d1a31e08" x="128.122785" y="307.584" style="stroke: #000000; stroke-width: 0.8"/>
      </g>
     </g>
     <g id="text_2">
      <!-- 50 -->
      <g transform="translate(121.760285 322.182437)scale(0.1 -0.1)">
       <defs>
        <path id="DejaVuSans-35" d="M 691 4666 
L 3169 4666 
L 3169 4134 
L 1269 4134 
L 1269 2991 
Q 1406 3038 1543 3061 
Q 1681 3084 1819 3084 
Q 2600 3084 3056 2656 
Q 3513 2228 3513 1497 
Q 3513 744 3044 326 
Q 2575 -91 1722 -91 
Q 1428 -91 1123 -41 
Q 819 9 494 109 
L 494 744 
Q 775 591 1075 516 
Q 1375 441 1709 441 
Q 2250 441 2565 725 
Q 2881 1009 2881 1497 
Q 2881 1984 2565 2268 
Q 2250 2553 1709 2553 
Q 1456 2553 1204 2497 
Q 953 2441 691 2322 
L 691 4666 
z
" transform="scale(0.015625)"/>
       </defs>
       <use xlink:href="#DejaVuSans-35"/>
       <use xlink:href="#DejaVuSans-30" x="63.623047"/>
      </g>
     </g>
    </g>
    <g id="xtick_3">
     <g id="line2d_5">
      <path d="M 182.412843 307.584 
L 182.412843 41.472 
" clip-path="url(#p4c56d613fb)" style="fill: none; stroke: #b0b0b0; stroke-width: 0.8; stroke-linecap: square"/>
     </g>
     <g id="line2d_6">
      <g>
       <use xlink:href="#md7d1a31e08" x="182.412843" y="307.584" style="stroke: #000000; stroke-width: 0.8"/>
      </g>
     </g>
     <g id="text_3">
      <!-- 100 -->
      <g transform="translate(172.869093 322.182437)scale(0.1 -0.1)">
       <defs>
        <path id="DejaVuSans-31" d="M 794 531 
L 1825 531 
L 1825 4091 
L 703 3866 
L 703 4441 
L 1819 4666 
L 2450 4666 
L 2450 531 
L 3481 531 
L 3481 0 
L 794 0 
L 794 531 
z
" transform="scale(0.015625)"/>
       </defs>
       <use xlink:href="#DejaVuSans-31"/>
       <use xlink:href="#DejaVuSans-30" x="63.623047"/>
       <use xlink:href="#DejaVuSans-30" x="127.246094"/>
      </g>
     </g>
    </g>
    <g id="xtick_4">
     <g id="line2d_7">
      <path d="M 236.702901 307.584 
L 236.702901 41.472 
" clip-path="url(#p4c56d613fb)" style="fill: none; stroke: #b0b0b0; stroke-width: 0.8; stroke-linecap: square"/>
     </g>
     <g id="line2d_8">
      <g>
       <use xlink:href="#md7d1a31e08" x="236.702901" y="307.584" style="stroke: #000000; stroke-width: 0.8"/>
      </g>
     </g>
     <g id="text_4">
      <!-- 150 -->
      <g transform="translate(227.159151 322.182437)scale(0.1 -0.1)">
       <use xlink:href="#DejaVuSans-31"/>
       <use xlink:href="#DejaVuSans-35" x="63.623047"/>
       <use xlink:href="#DejaVuSans-30" x="127.246094"/>
      </g>
     </g>
    </g>
    <g id="xtick_5">
     <g id="line2d_9">
      <path d="M 290.992958 307.584 
L 290.992958 41.472 
" clip-path="url(#p4c56d613fb)" style="fill: none; stroke: #b0b0b0; stroke-width: 0.8; stroke-linecap: square"/>
     </g>
     <g id="line2d_10">
      <g>
       <use xlink:href="#md7d1a31e08" x="290.992958" y="307.584" style="stroke: #000000; stroke-width: 0.8"/>
      </g>
     </g>
     <g id="text_5">
      <!-- 200 -->
      <g transform="translate(281.449208 322.182437)scale(0.1 -0.1)">
       <defs>
        <path id="DejaVuSans-32" d="M 1228 531 
L 3431 531 
L 3431 0 
L 469 0 
L 469 531 
Q 828 903 1448 1529 
Q 2069 2156 2228 2338 
Q 2531 2678 2651 2914 
Q 2772 3150 2772 3378 
Q 2772 3750 2511 3984 
Q 2250 4219 1831 4219 
Q 1534 4219 1204 4116 
Q 875 4013 500 3803 
L 500 4441 
Q 881 4594 1212 4672 
Q 1544 4750 1819 4750 
Q 2544 4750 2975 4387 
Q 3406 4025 3406 3419 
Q 3406 3131 3298 2873 
Q 3191 2616 2906 2266 
Q 2828 2175 2409 1742 
Q 1991 1309 1228 531 
z
" transform="scale(0.015625)"/>
       </defs>
       <use xlink:href="#DejaVuSans-32"/>
       <use xlink:href="#DejaVuSans-30" x="63.623047"/>
       <use xlink:href="#DejaVuSans-30" x="127.246094"/>
      </g>
     </g>
    </g>
    <g id="xtick_6">
     <g id="line2d_11">
      <path d="M 345.283016 307.584 
L 345.283016 41.472 
" clip-path="url(#p4c56d613fb)" style="fill: none; stroke: #b0b0b0; stroke-width: 0.8; stroke-linecap: square"/>
     </g>
     <g id="line2d_12">
      <g>
       <use xlink:href="#md7d1a31e08" x="345.283016" y="307.584" style="stroke: #000000; stroke-width: 0.8"/>
      </g>
     </g>
     <g id="text_6">
      <!-- 250 -->
      <g transform="translate(335.739266 322.182437)scale(0.1 -0.1)">
       <use xlink:href="#DejaVuSans-32"/>
       <use xlink:href="#DejaVuSans-35" x="63.623047"/>
       <use xlink:href="#DejaVuSans-30" x="127.246094"/>
      </g>
     </g>
    </g>
    <g id="xtick_7">
     <g id="line2d_13">
      <path d="M 399.573074 307.584 
L 399.573074 41.472 
" clip-path="url(#p4c56d613fb)" style="fill: none; stroke: #b0b0b0; stroke-width: 0.8; stroke-linecap: square"/>
     </g>
     <g id="line2d_14">
      <g>
       <use xlink:href="#md7d1a31e08" x="399.573074" y="307.584" style="stroke: #000000; stroke-width: 0.8"/>
      </g>
     </g>
     <g id="text_7">
      <!-- 300 -->
      <g transform="translate(390.029324 322.182437)scale(0.1 -0.1)">
       <defs>
        <path id="DejaVuSans-33" d="M 2597 2516 
Q 3050 2419 3304 2112 
Q 3559 1806 3559 1356 
Q 3559 666 3084 287 
Q 2609 -91 1734 -91 
Q 1441 -91 1130 -33 
Q 819 25 488 141 
L 488 750 
Q 750 597 1062 519 
Q 1375 441 1716 441 
Q 2309 441 2620 675 
Q 2931 909 2931 1356 
Q 2931 1769 2642 2001 
Q 2353 2234 1838 2234 
L 1294 2234 
L 1294 2753 
L 1863 2753 
Q 2328 2753 2575 2939 
Q 2822 3125 2822 3475 
Q 2822 3834 2567 4026 
Q 2313 4219 1838 4219 
Q 1578 4219 1281 4162 
Q 984 4106 628 3988 
L 628 4550 
Q 988 4650 1302 4700 
Q 1616 4750 1894 4750 
Q 2613 4750 3031 4423 
Q 3450 4097 3450 3541 
Q 3450 3153 3228 2886 
Q 3006 2619 2597 2516 
z
" transform="scale(0.015625)"/>
       </defs>
       <use xlink:href="#DejaVuSans-33"/>
       <use xlink:href="#DejaVuSans-30" x="63.623047"/>
       <use xlink:href="#DejaVuSans-30" x="127.246094"/>
      </g>
     </g>
    </g>
    <g id="text_8">
     <!-- Generations -->
     <g transform="translate(205.662344 335.860562)scale(0.1 -0.1)">
      <defs>
       <path id="DejaVuSans-47" d="M 3809 666 
L 3809 1919 
L 2778 1919 
L 2778 2438 
L 4434 2438 
L 4434 434 
Q 4069 175 3628 42 
Q 3188 -91 2688 -91 
Q 1594 -91 976 548 
Q 359 1188 359 2328 
Q 359 3472 976 4111 
Q 1594 4750 2688 4750 
Q 3144 4750 3555 4637 
Q 3966 4525 4313 4306 
L 4313 3634 
Q 3963 3931 3569 4081 
Q 3175 4231 2741 4231 
Q 1884 4231 1454 3753 
Q 1025 3275 1025 2328 
Q 1025 1384 1454 906 
Q 1884 428 2741 428 
Q 3075 428 3337 486 
Q 3600 544 3809 666 
z
" transform="scale(0.015625)"/>
       <path id="DejaVuSans-65" d="M 3597 1894 
L 3597 1613 
L 953 1613 
Q 991 1019 1311 708 
Q 1631 397 2203 397 
Q 2534 397 2845 478 
Q 3156 559 3463 722 
L 3463 178 
Q 3153 47 2828 -22 
Q 2503 -91 2169 -91 
Q 1331 -91 842 396 
Q 353 884 353 1716 
Q 353 2575 817 3079 
Q 1281 3584 2069 3584 
Q 2775 3584 3186 3129 
Q 3597 2675 3597 1894 
z
M 3022 2063 
Q 3016 2534 2758 2815 
Q 2500 3097 2075 3097 
Q 1594 3097 1305 2825 
Q 1016 2553 972 2059 
L 3022 2063 
z
" transform="scale(0.015625)"/>
       <path id="DejaVuSans-6e" d="M 3513 2113 
L 3513 0 
L 2938 0 
L 2938 2094 
Q 2938 2591 2744 2837 
Q 2550 3084 2163 3084 
Q 1697 3084 1428 2787 
Q 1159 2491 1159 1978 
L 1159 0 
L 581 0 
L 581 3500 
L 1159 3500 
L 1159 2956 
Q 1366 3272 1645 3428 
Q 1925 3584 2291 3584 
Q 2894 3584 3203 3211 
Q 3513 2838 3513 2113 
z
" transform="scale(0.015625)"/>
       <path id="DejaVuSans-72" d="M 2631 2963 
Q 2534 3019 2420 3045 
Q 2306 3072 2169 3072 
Q 1681 3072 1420 2755 
Q 1159 2438 1159 1844 
L 1159 0 
L 581 0 
L 581 3500 
L 1159 3500 
L 1159 2956 
Q 1341 3275 1631 3429 
Q 1922 3584 2338 3584 
Q 2397 3584 2469 3576 
Q 2541 3569 2628 3553 
L 2631 2963 
z
" transform="scale(0.015625)"/>
       <path id="DejaVuSans-61" d="M 2194 1759 
Q 1497 1759 1228 1600 
Q 959 1441 959 1056 
Q 959 750 1161 570 
Q 1363 391 1709 391 
Q 2188 391 2477 730 
Q 2766 1069 2766 1631 
L 2766 1759 
L 2194 1759 
z
M 3341 1997 
L 3341 0 
L 2766 0 
L 2766 531 
Q 2569 213 2275 61 
Q 1981 -91 1556 -91 
Q 1019 -91 701 211 
Q 384 513 384 1019 
Q 384 1609 779 1909 
Q 1175 2209 1959 2209 
L 2766 2209 
L 2766 2266 
Q 2766 2663 2505 2880 
Q 2244 3097 1772 3097 
Q 1472 3097 1187 3025 
Q 903 2953 641 2809 
L 641 3341 
Q 956 3463 1253 3523 
Q 1550 3584 1831 3584 
Q 2591 3584 2966 3190 
Q 3341 2797 3341 1997 
z
" transform="scale(0.015625)"/>
       <path id="DejaVuSans-74" d="M 1172 4494 
L 1172 3500 
L 2356 3500 
L 2356 3053 
L 1172 3053 
L 1172 1153 
Q 1172 725 1289 603 
Q 1406 481 1766 481 
L 2356 481 
L 2356 0 
L 1766 0 
Q 1100 0 847 248 
Q 594 497 594 1153 
L 594 3053 
L 172 3053 
L 172 3500 
L 594 3500 
L 594 4494 
L 1172 4494 
z
" transform="scale(0.015625)"/>
       <path id="DejaVuSans-69" d="M 603 3500 
L 1178 3500 
L 1178 0 
L 603 0 
L 603 3500 
z
M 603 4863 
L 1178 4863 
L 1178 4134 
L 603 4134 
L 603 4863 
z
" transform="scale(0.015625)"/>
       <path id="DejaVuSans-6f" d="M 1959 3097 
Q 1497 3097 1228 2736 
Q 959 2375 959 1747 
Q 959 1119 1226 758 
Q 1494 397 1959 397 
Q 2419 397 2687 759 
Q 2956 1122 2956 1747 
Q 2956 2369 2687 2733 
Q 2419 3097 1959 3097 
z
M 1959 3584 
Q 2709 3584 3137 3096 
Q 3566 2609 3566 1747 
Q 3566 888 3137 398 
Q 2709 -91 1959 -91 
Q 1206 -91 779 398 
Q 353 888 353 1747 
Q 353 2609 779 3096 
Q 1206 3584 1959 3584 
z
" transform="scale(0.015625)"/>
       <path id="DejaVuSans-73" d="M 2834 3397 
L 2834 2853 
Q 2591 2978 2328 3040 
Q 2066 3103 1784 3103 
Q 1356 3103 1142 2972 
Q 928 2841 928 2578 
Q 928 2378 1081 2264 
Q 1234 2150 1697 2047 
L 1894 2003 
Q 2506 1872 2764 1633 
Q 3022 1394 3022 966 
Q 3022 478 2636 193 
Q 2250 -91 1575 -91 
Q 1294 -91 989 -36 
Q 684 19 347 128 
L 347 722 
Q 666 556 975 473 
Q 1284 391 1588 391 
Q 1994 391 2212 530 
Q 2431 669 2431 922 
Q 2431 1156 2273 1281 
Q 2116 1406 1581 1522 
L 1381 1569 
Q 847 1681 609 1914 
Q 372 2147 372 2553 
Q 372 3047 722 3315 
Q 1072 3584 1716 3584 
Q 2034 3584 2315 3537 
Q 2597 3491 2834 3397 
z
" transform="scale(0.015625)"/>
      </defs>
      <use xlink:href="#DejaVuSans-47"/>
      <use xlink:href="#DejaVuSans-65" x="77.490234"/>
      <use xlink:href="#DejaVuSans-6e" x="139.013672"/>
      <use xlink:href="#DejaVuSans-65" x="202.392578"/>
      <use xlink:href="#DejaVuSans-72" x="263.916016"/>
      <use xlink:href="#DejaVuSans-61" x="305.029297"/>
      <use xlink:href="#DejaVuSans-74" x="366.308594"/>
      <use xlink:href="#DejaVuSans-69" x="405.517578"/>
      <use xlink:href="#DejaVuSans-6f" x="433.300781"/>
      <use xlink:href="#DejaVuSans-6e" x="494.482422"/>
      <use xlink:href="#DejaVuSans-73" x="557.861328"/>
     </g>
    </g>
   </g>
   <g id="matplotlib.axis_2">
    <g id="ytick_1">
     <g id="line2d_15">
      <path d="M 57.6 291.650845 
L 414.72 291.650845 
" clip-path="url(#p4c56d613fb)" style="fill: none; stroke: #b0b0b0; stroke-width: 0.8; stroke-linecap: square"/>
     </g>
     <g id="line2d_16">
      <defs>
       <path id="m87f0e067b0" d="M 0 0 
L -3.5 0 
" style="stroke: #000000; stroke-width: 0.8"/>
      </defs>
      <g>
       <use xlink:href="#m87f0e067b0" x="57.6" y="291.650845" style="stroke: #000000; stroke-width: 0.8"/>
      </g>
     </g>
     <g id="text_9">
      <!-- 0 -->
      <g transform="translate(44.2375 295.450063)scale(0.1 -0.1)">
       <use xlink:href="#DejaVuSans-30"/>
      </g>
     </g>
    </g>
    <g id="ytick_2">
     <g id="line2d_17">
      <path d="M 57.6 259.302632 
L 414.72 259.302632 
" clip-path="url(#p4c56d613fb)" style="fill: none; stroke: #b0b0b0; stroke-width: 0.8; stroke-linecap: square"/>
     </g>
     <g id="line2d_18">
      <g>
       <use xlink:href="#m87f0e067b0" x="57.6" y="259.302632" style="stroke: #000000; stroke-width: 0.8"/>
      </g>
     </g>
     <g id="text_10">
      <!-- 25 -->
      <g transform="translate(37.875 263.101851)scale(0.1 -0.1)">
       <use xlink:href="#DejaVuSans-32"/>
       <use xlink:href="#DejaVuSans-35" x="63.623047"/>
      </g>
     </g>
    </g>
    <g id="ytick_3">
     <g id="line2d_19">
      <path d="M 57.6 226.95442 
L 414.72 226.95442 
" clip-path="url(#p4c56d613fb)" style="fill: none; stroke: #b0b0b0; stroke-width: 0.8; stroke-linecap: square"/>
     </g>
     <g id="line2d_20">
      <g>
       <use xlink:href="#m87f0e067b0" x="57.6" y="226.95442" style="stroke: #000000; stroke-width: 0.8"/>
      </g>
     </g>
     <g id="text_11">
      <!-- 50 -->
      <g transform="translate(37.875 230.753638)scale(0.1 -0.1)">
       <use xlink:href="#DejaVuSans-35"/>
       <use xlink:href="#DejaVuSans-30" x="63.623047"/>
      </g>
     </g>
    </g>
    <g id="ytick_4">
     <g id="line2d_21">
      <path d="M 57.6 194.606207 
L 414.72 194.606207 
" clip-path="url(#p4c56d613fb)" style="fill: none; stroke: #b0b0b0; stroke-width: 0.8; stroke-linecap: square"/>
     </g>
     <g id="line2d_22">
      <g>
       <use xlink:href="#m87f0e067b0" x="57.6" y="194.606207" style="stroke: #000000; stroke-width: 0.8"/>
      </g>
     </g>
     <g id="text_12">
      <!-- 75 -->
      <g transform="translate(37.875 198.405426)scale(0.1 -0.1)">
       <defs>
        <path id="DejaVuSans-37" d="M 525 4666 
L 3525 4666 
L 3525 4397 
L 1831 0 
L 1172 0 
L 2766 4134 
L 525 4134 
L 525 4666 
z
" transform="scale(0.015625)"/>
       </defs>
       <use xlink:href="#DejaVuSans-37"/>
       <use xlink:href="#DejaVuSans-35" x="63.623047"/>
      </g>
     </g>
    </g>
    <g id="ytick_5">
     <g id="line2d_23">
      <path d="M 57.6 162.257994 
L 414.72 162.257994 
" clip-path="url(#p4c56d613fb)" style="fill: none; stroke: #b0b0b0; stroke-width: 0.8; stroke-linecap: square"/>
     </g>
     <g id="line2d_24">
      <g>
       <use xlink:href="#m87f0e067b0" x="57.6" y="162.257994" style="stroke: #000000; stroke-width: 0.8"/>
      </g>
     </g>
     <g id="text_13">
      <!-- 100 -->
      <g transform="translate(31.5125 166.057213)scale(0.1 -0.1)">
       <use xlink:href="#DejaVuSans-31"/>
       <use xlink:href="#DejaVuSans-30" x="63.623047"/>
       <use xlink:href="#DejaVuSans-30" x="127.246094"/>
      </g>
     </g>
    </g>
    <g id="ytick_6">
     <g id="line2d_25">
      <path d="M 57.6 129.909782 
L 414.72 129.909782 
" clip-path="url(#p4c56d613fb)" style="fill: none; stroke: #b0b0b0; stroke-width: 0.8; stroke-linecap: square"/>
     </g>
     <g id="line2d_26">
      <g>
       <use xlink:href="#m87f0e067b0" x="57.6" y="129.909782" style="stroke: #000000; stroke-width: 0.8"/>
      </g>
     </g>
     <g id="text_14">
      <!-- 125 -->
      <g transform="translate(31.5125 133.709)scale(0.1 -0.1)">
       <use xlink:href="#DejaVuSans-31"/>
       <use xlink:href="#DejaVuSans-32" x="63.623047"/>
       <use xlink:href="#DejaVuSans-35" x="127.246094"/>
      </g>
     </g>
    </g>
    <g id="ytick_7">
     <g id="line2d_27">
      <path d="M 57.6 97.561569 
L 414.72 97.561569 
" clip-path="url(#p4c56d613fb)" style="fill: none; stroke: #b0b0b0; stroke-width: 0.8; stroke-linecap: square"/>
     </g>
     <g id="line2d_28">
      <g>
       <use xlink:href="#m87f0e067b0" x="57.6" y="97.561569" style="stroke: #000000; stroke-width: 0.8"/>
      </g>
     </g>
     <g id="text_15">
      <!-- 150 -->
      <g transform="translate(31.5125 101.360788)scale(0.1 -0.1)">
       <use xlink:href="#DejaVuSans-31"/>
       <use xlink:href="#DejaVuSans-35" x="63.623047"/>
       <use xlink:href="#DejaVuSans-30" x="127.246094"/>
      </g>
     </g>
    </g>
    <g id="ytick_8">
     <g id="line2d_29">
      <path d="M 57.6 65.213357 
L 414.72 65.213357 
" clip-path="url(#p4c56d613fb)" style="fill: none; stroke: #b0b0b0; stroke-width: 0.8; stroke-linecap: square"/>
     </g>
     <g id="line2d_30">
      <g>
       <use xlink:href="#m87f0e067b0" x="57.6" y="65.213357" style="stroke: #000000; stroke-width: 0.8"/>
      </g>
     </g>
     <g id="text_16">
      <!-- 175 -->
      <g transform="translate(31.5125 69.012575)scale(0.1 -0.1)">
       <use xlink:href="#DejaVuSans-31"/>
       <use xlink:href="#DejaVuSans-37" x="63.623047"/>
       <use xlink:href="#DejaVuSans-35" x="127.246094"/>
      </g>
     </g>
    </g>
    <g id="text_17">
     <!-- Fitness -->
     <g transform="translate(25.432812 191.845187)rotate(-90)scale(0.1 -0.1)">
      <defs>
       <path id="DejaVuSans-46" d="M 628 4666 
L 3309 4666 
L 3309 4134 
L 1259 4134 
L 1259 2759 
L 3109 2759 
L 3109 2228 
L 1259 2228 
L 1259 0 
L 628 0 
L 628 4666 
z
" transform="scale(0.015625)"/>
      </defs>
      <use xlink:href="#DejaVuSans-46"/>
      <use xlink:href="#DejaVuSans-69" x="50.269531"/>
      <use xlink:href="#DejaVuSans-74" x="78.052734"/>
      <use xlink:href="#DejaVuSans-6e" x="117.261719"/>
      <use xlink:href="#DejaVuSans-65" x="180.640625"/>
      <use xlink:href="#DejaVuSans-73" x="242.164062"/>
      <use xlink:href="#DejaVuSans-73" x="294.263672"/>
     </g>
    </g>
   </g>
   <g id="line2d_31">
    <path d="M 73.832727 243.467004 
L 74.918528 237.640041 
L 76.00433 239.676602 
L 77.090131 238.078731 
L 78.175932 236.175817 
L 79.261733 241.005267 
L 80.347534 243.245761 
L 81.433335 251.987623 
L 82.519137 248.554399 
L 83.604938 240.03265 
L 84.690739 243.019975 
L 85.77654 239.402012 
L 86.862341 251.935866 
L 87.948142 246.846414 
L 89.033943 247.070695 
L 90.119745 244.922773 
L 91.205546 247.931486 
L 92.291347 236.52949 
L 93.377148 239.479647 
L 94.462949 243.441297 
L 95.54875 242.171019 
L 96.634552 240.293172 
L 97.720353 231.578057 
L 98.806154 240.092107 
L 99.891955 234.994029 
L 100.977756 237.116071 
L 102.063557 245.500728 
L 103.149358 241.45684 
L 104.23516 239.634919 
L 105.320961 247.796221 
L 106.406762 249.350672 
L 107.492563 244.062065 
L 108.578364 241.650362 
L 109.664165 238.366869 
L 110.749967 245.05205 
L 111.835768 240.169743 
L 112.921569 244.9314 
L 114.00737 243.559835 
L 115.093171 234.820819 
L 116.178972 248.295614 
L 117.264773 243.430442 
L 118.350575 244.310314 
L 119.436376 237.392688 
L 120.522177 244.939157 
L 121.607978 248.23523 
L 122.693779 244.612231 
L 123.77958 244.77416 
L 124.865382 244.172295 
L 125.951183 234.398822 
L 127.036984 233.4412 
L 128.122785 232.984126 
L 129.208586 235.356329 
L 130.294387 238.099457 
L 131.380189 242.884308 
L 132.46599 240.57923 
L 133.551791 240.150776 
L 134.637592 232.425392 
L 135.723393 244.339956 
L 136.809194 239.537657 
L 137.894995 238.860299 
L 138.980797 240.730445 
L 140.066598 234.536841 
L 141.152399 230.673393 
L 142.2382 234.950898 
L 143.324001 241.478981 
L 144.409802 240.85344 
L 145.495604 230.896188 
L 146.581405 240.471659 
L 147.667206 245.681878 
L 148.753007 232.595948 
L 149.838808 232.535564 
L 150.924609 243.171657 
L 152.01041 245.33683 
L 153.096212 241.506802 
L 154.182013 241.891044 
L 155.267814 247.94385 
L 156.353615 236.783135 
L 157.439416 244.663988 
L 158.525217 241.006483 
L 159.611019 236.663225 
L 160.69682 242.119262 
L 161.782621 231.931731 
L 162.868422 239.738433 
L 163.954223 234.90651 
L 165.040024 243.295623 
L 166.125825 237.117328 
L 167.211627 240.433556 
L 168.297428 240.510677 
L 169.383229 238.796865 
L 170.46903 235.735881 
L 171.554831 229.603065 
L 172.640632 231.810965 
L 173.726434 240.359519 
L 174.812235 238.617028 
L 175.898036 234.579045 
L 176.983837 236.262079 
L 178.069638 239.859654 
L 179.155439 242.40444 
L 180.24124 236.808842 
L 181.327042 243.266545 
L 182.412843 247.374497 
L 183.498644 233.663996 
L 184.584445 236.952174 
L 185.670246 248.77868 
L 186.756047 246.734273 
L 187.841849 240.359519 
L 188.92765 239.936836 
L 190.013451 230.197867 
L 191.099252 245.198811 
L 192.185053 239.876336 
L 193.270854 243.671281 
L 194.356656 241.015109 
L 196.528258 244.586352 
L 197.614059 243.085395 
L 198.69986 241.273324 
L 199.785661 242.68998 
L 200.871462 247.303602 
L 201.957264 246.234811 
L 203.043065 237.857924 
L 204.128866 237.374857 
L 205.214667 231.374618 
L 206.300468 238.979328 
L 207.386269 232.087003 
L 208.472071 240.9461 
L 209.557872 234.231682 
L 210.643673 236.706646 
L 211.729474 235.045786 
L 212.815275 240.592426 
L 213.901076 233.971159 
L 214.986877 244.053381 
L 216.072679 233.719321 
L 217.15848 244.189547 
L 218.244281 232.010167 
L 219.330082 232.318653 
L 220.415883 239.574536 
L 221.501684 240.784887 
L 222.587486 237.719905 
L 223.673287 232.564338 
L 224.759088 244.698492 
L 226.93069 236.5985 
L 228.016491 228.51576 
L 229.102292 242.284473 
L 230.188094 231.8886 
L 231.273895 234.985402 
L 232.359696 239.936836 
L 233.445497 236.287957 
L 234.531298 241.118624 
L 235.617099 242.464309 
L 236.702901 231.77646 
L 237.788702 242.360795 
L 238.874503 242.541545 
L 239.960304 232.25867 
L 241.046105 237.573259 
L 242.131906 236.926295 
L 243.217708 233.424062 
L 244.303509 236.9608 
L 245.38931 243.801369 
L 246.475111 238.573898 
L 247.560912 239.112137 
L 248.646713 242.033 
L 249.732514 239.574536 
L 250.818316 238.74545 
L 251.904117 236.788276 
L 252.989918 237.811422 
L 254.075719 243.628845 
L 255.16152 240.41475 
L 256.247321 243.506283 
L 257.333123 237.650895 
L 258.418924 241.796037 
L 259.504725 238.287149 
L 260.590526 237.210959 
L 261.676327 239.307124 
L 262.762128 246.474745 
L 263.847929 237.857924 
L 266.019532 240.816707 
L 267.105333 234.503764 
L 269.276935 245.025998 
L 270.362736 244.852316 
L 271.448538 241.480924 
L 272.534339 243.509849 
L 273.62014 243.559835 
L 274.705941 242.644374 
L 275.791742 239.747059 
L 276.877543 242.962413 
L 277.963344 241.143919 
L 279.049146 233.432805 
L 280.134947 237.786699 
L 281.220748 239.094769 
L 282.306549 244.131538 
L 283.39235 242.021305 
L 284.478151 237.314417 
L 285.563953 235.658245 
L 286.649754 237.462161 
L 287.735555 231.781113 
L 288.821356 241.84311 
L 289.907157 239.01966 
L 290.992958 238.677412 
L 292.07876 242.240028 
L 293.164561 235.155013 
L 294.250362 241.989869 
L 295.336163 239.482795 
L 296.421964 235.408669 
L 297.507765 243.977941 
L 298.593566 245.035368 
L 299.679368 235.071664 
L 300.765169 242.601528 
L 301.85097 236.571456 
L 302.936771 241.790884 
L 304.022572 244.1252 
L 305.108373 240.75918 
L 306.194175 240.33364 
L 307.279976 242.352169 
L 308.365777 242.577087 
L 309.451578 239.849991 
L 310.537379 240.247378 
L 311.62318 238.174256 
L 312.708981 240.687314 
L 313.794783 240.247378 
L 314.880584 240.544953 
L 315.966385 246.311933 
L 317.052186 238.434778 
L 318.137987 241.291147 
L 320.30959 234.186709 
L 321.395391 244.249931 
L 322.481192 239.685287 
L 323.566993 245.914785 
L 324.652794 238.849936 
L 325.738595 243.559835 
L 326.824396 240.920221 
L 327.910198 243.059516 
L 328.995999 243.13281 
L 330.0818 236.952174 
L 331.167601 248.881731 
L 332.253402 240.788165 
L 333.339203 240.484222 
L 334.425005 244.896895 
L 335.510806 240.373572 
L 336.596607 245.720725 
L 337.682408 241.213685 
L 338.768209 249.874206 
L 339.85401 243.54102 
L 340.939811 243.602966 
L 342.025613 245.233316 
L 343.111414 243.263129 
L 344.197215 246.216702 
L 345.283016 243.973892 
L 346.368817 246.656638 
L 347.454618 251.194014 
L 348.54042 244.826264 
L 349.626221 236.762398 
L 350.712022 253.704235 
L 351.797823 232.6132 
L 352.883624 237.897113 
L 353.969425 238.822572 
L 355.055227 240.117986 
L 356.141028 237.571489 
L 357.226829 231.983488 
L 359.398431 240.100733 
L 360.484232 235.292118 
L 361.570033 232.414798 
L 362.655835 235.720571 
L 363.741636 245.198811 
L 364.827437 230.047851 
L 365.913238 241.598948 
L 366.999039 246.173571 
L 368.08484 233.846745 
L 369.170642 233.424062 
L 370.256443 239.074217 
L 371.342244 233.038454 
L 372.428045 248.381876 
L 373.513846 240.879147 
L 374.599647 231.504592 
L 376.77125 242.387302 
L 377.857051 240.440802 
L 378.942852 232.112765 
L 380.028653 244.658509 
L 381.114454 241.642257 
L 382.200255 247.456192 
L 383.286057 237.054009 
L 384.371858 240.2215 
L 385.457659 235.322391 
L 386.54346 242.188271 
L 387.629261 238.323738 
L 388.715062 231.336524 
L 389.800863 239.24674 
L 390.886665 242.7576 
L 391.972466 232.561443 
L 393.058267 234.467831 
L 394.144068 239.402012 
L 395.229869 234.959524 
L 396.31567 241.498176 
L 397.401472 240.15249 
L 398.487273 236.822781 
L 398.487273 236.822781 
" clip-path="url(#p4c56d613fb)" style="fill: none; stroke: #0000ff; stroke-width: 1.5; stroke-linecap: square"/>
   </g>
   <g id="line2d_32">
    <path d="M 73.832727 287.527489 
L 74.918528 284.276054 
L 76.00433 285.519675 
L 78.175932 283.413552 
L 79.261733 286.326625 
L 80.347534 289.947647 
L 81.433335 295.488 
L 83.604938 287.708003 
L 84.690739 288.335898 
L 85.77654 285.471359 
L 86.862341 289.565225 
L 87.948142 289.11929 
L 89.033943 293.039366 
L 90.119745 287.958697 
L 91.205546 293.354932 
L 92.291347 285.557373 
L 93.377148 284.470993 
L 94.462949 287.252386 
L 95.54875 284.253658 
L 96.634552 283.685707 
L 97.720353 281.272178 
L 98.806154 281.112902 
L 100.977756 285.235458 
L 102.063557 288.639527 
L 103.149358 285.864852 
L 104.23516 284.341725 
L 105.320961 289.946451 
L 106.406762 286.737619 
L 108.578364 285.299149 
L 109.664165 288.260204 
L 110.749967 289.805802 
L 111.835768 284.895915 
L 112.921569 288.076274 
L 114.00737 286.32619 
L 115.093171 282.499614 
L 116.178972 291.646852 
L 117.264773 284.5515 
L 118.350575 288.020382 
L 119.436376 285.16423 
L 121.607978 291.568646 
L 123.77958 287.190396 
L 124.865382 288.821628 
L 125.951183 279.970814 
L 127.036984 280.52619 
L 128.122785 278.262216 
L 129.208586 285.090952 
L 130.294387 286.685232 
L 131.380189 284.31336 
L 132.46599 287.251686 
L 133.551791 283.544459 
L 134.637592 279.257769 
L 135.723393 285.79864 
L 136.809194 284.312713 
L 137.894995 283.131896 
L 138.980797 284.10881 
L 140.066598 282.262058 
L 141.152399 280.736625 
L 142.2382 282.506263 
L 143.324001 286.244596 
L 144.409802 286.397762 
L 145.495604 277.855817 
L 146.581405 283.212199 
L 147.667206 286.845266 
L 148.753007 277.986419 
L 149.838808 279.956738 
L 150.924609 286.342528 
L 152.01041 290.032974 
L 153.096212 286.047256 
L 154.182013 285.647584 
L 155.267814 292.577391 
L 156.353615 279.311747 
L 157.439416 288.227478 
L 158.525217 283.250697 
L 159.611019 281.058673 
L 160.69682 286.437681 
L 161.782621 279.833362 
L 162.868422 282.961048 
L 163.954223 280.415015 
L 165.040024 285.043119 
L 166.125825 282.552926 
L 167.211627 284.761649 
L 168.297428 283.713277 
L 169.383229 282.148553 
L 170.46903 282.505406 
L 171.554831 275.384803 
L 173.726434 281.289753 
L 174.812235 283.58993 
L 175.898036 280.620897 
L 176.983837 282.292409 
L 178.069638 284.607133 
L 179.155439 283.861597 
L 180.24124 282.635034 
L 181.327042 289.93939 
L 182.412843 289.911116 
L 183.498644 283.154338 
L 184.584445 283.92015 
L 185.670246 288.780585 
L 186.756047 285.480562 
L 187.841849 282.967121 
L 188.92765 287.782903 
L 190.013451 279.351654 
L 191.099252 287.826703 
L 192.185053 281.900509 
L 193.270854 287.850532 
L 194.356656 286.461215 
L 195.442457 286.319826 
L 196.528258 289.996802 
L 197.614059 288.548444 
L 198.69986 288.526075 
L 199.785661 290.72293 
L 200.871462 291.510506 
L 201.957264 289.496891 
L 203.043065 283.934945 
L 204.128866 282.39236 
L 205.214667 279.181531 
L 206.300468 282.506782 
L 207.386269 281.784957 
L 208.472071 285.15439 
L 209.557872 285.257333 
L 210.643673 284.374547 
L 211.729474 281.471485 
L 212.815275 286.071667 
L 213.901076 280.58904 
L 214.986877 288.676024 
L 216.072679 283.736924 
L 217.15848 285.468725 
L 218.244281 278.718374 
L 219.330082 281.923122 
L 220.415883 287.912291 
L 221.501684 283.806004 
L 222.587486 282.141765 
L 223.673287 281.000199 
L 224.759088 289.52008 
L 225.844889 287.644779 
L 226.93069 282.708997 
L 228.016491 276.333097 
L 229.102292 287.684025 
L 230.188094 280.243544 
L 231.273895 282.007388 
L 232.359696 283.082555 
L 233.445497 282.749081 
L 235.617099 288.120245 
L 236.702901 279.468658 
L 237.788702 283.46792 
L 238.874503 286.030256 
L 239.960304 278.140693 
L 241.046105 280.351847 
L 242.131906 279.513267 
L 243.217708 277.705162 
L 244.303509 282.30142 
L 245.38931 287.547245 
L 246.475111 282.960101 
L 247.560912 284.612346 
L 248.646713 288.472353 
L 249.732514 283.384526 
L 250.818316 281.61821 
L 251.904117 284.413517 
L 252.989918 281.012774 
L 254.075719 289.803673 
L 255.16152 286.256233 
L 256.247321 286.487302 
L 257.333123 282.675558 
L 258.418924 284.721332 
L 259.504725 284.000682 
L 260.590526 282.101166 
L 261.676327 285.874072 
L 262.762128 286.962206 
L 263.847929 281.128138 
L 264.933731 282.888343 
L 266.019532 283.815734 
L 267.105333 281.383777 
L 268.191134 285.921168 
L 269.276935 287.583804 
L 270.362736 288.573641 
L 271.448538 285.301157 
L 272.534339 283.61163 
L 273.62014 286.688478 
L 274.705941 287.803841 
L 275.791742 285.41193 
L 276.877543 282.601354 
L 277.963344 285.597019 
L 279.049146 281.197802 
L 280.134947 284.878789 
L 281.220748 282.381184 
L 282.306549 287.400885 
L 283.39235 287.821137 
L 284.478151 285.390837 
L 285.563953 283.241727 
L 286.649754 284.673725 
L 287.735555 278.947418 
L 288.821356 283.747009 
L 289.907157 283.687674 
L 290.992958 282.067121 
L 292.07876 287.054655 
L 293.164561 279.020335 
L 294.250362 286.901347 
L 295.336163 284.796522 
L 296.421964 280.072995 
L 297.507765 285.178687 
L 298.593566 288.191211 
L 299.679368 282.032035 
L 300.765169 289.096315 
L 301.85097 283.340755 
L 302.936771 286.964186 
L 304.022572 289.860263 
L 305.108373 287.715829 
L 306.194175 288.373968 
L 307.279976 286.633205 
L 308.365777 288.473731 
L 309.451578 284.787529 
L 310.537379 285.545694 
L 311.62318 283.263557 
L 312.708981 286.479171 
L 313.794783 283.960437 
L 314.880584 287.151098 
L 315.966385 288.622998 
L 317.052186 285.902544 
L 318.137987 285.62528 
L 319.223788 283.097613 
L 320.30959 282.862205 
L 321.395391 290.683859 
L 322.481192 285.670221 
L 323.566993 290.910018 
L 324.652794 284.218372 
L 325.738595 286.681231 
L 326.824396 284.950385 
L 327.910198 285.308884 
L 328.995999 287.360367 
L 330.0818 282.57654 
L 331.167601 291.426431 
L 332.253402 283.281098 
L 334.425005 288.462058 
L 335.510806 283.077657 
L 336.596607 291.144265 
L 337.682408 286.712574 
L 338.768209 288.723775 
L 339.85401 289.034125 
L 340.939811 287.913212 
L 342.025613 289.713677 
L 343.111414 289.049894 
L 344.197215 291.645335 
L 345.283016 287.052382 
L 346.368817 289.149046 
L 347.454618 290.295972 
L 348.54042 288.632309 
L 349.626221 282.155079 
L 350.712022 293.698836 
L 351.797823 278.784163 
L 352.883624 283.340113 
L 353.969425 286.208438 
L 355.055227 285.378795 
L 356.141028 282.718927 
L 357.226829 275.308661 
L 358.31263 280.529487 
L 359.398431 286.850325 
L 360.484232 279.088822 
L 361.570033 279.208011 
L 362.655835 282.849384 
L 363.741636 289.184451 
L 364.827437 278.188684 
L 365.913238 286.702172 
L 366.999039 287.411917 
L 368.08484 281.272475 
L 369.170642 279.668971 
L 370.256443 284.580885 
L 371.342244 278.318679 
L 372.428045 289.132333 
L 373.513846 285.660991 
L 374.599647 276.390836 
L 375.685448 282.289134 
L 376.77125 286.133969 
L 377.857051 284.373842 
L 378.942852 279.42634 
L 380.028653 288.119151 
L 381.114454 282.660619 
L 382.200255 289.892396 
L 383.286057 283.910266 
L 384.371858 286.172588 
L 385.457659 281.840146 
L 386.54346 287.048643 
L 387.629261 282.861097 
L 388.715062 277.967713 
L 389.800863 282.105994 
L 390.886665 287.618578 
L 391.972466 282.373415 
L 393.058267 281.759268 
L 394.144068 282.109146 
L 395.229869 279.883108 
L 396.31567 286.474972 
L 397.401472 283.312846 
L 398.487273 282.922132 
L 398.487273 282.922132 
" clip-path="url(#p4c56d613fb)" style="fill: none; stroke-dasharray: 9.6,2.4,1.5,2.4; stroke-dashoffset: 0; stroke: #008000; stroke-width: 1.5"/>
   </g>
   <g id="line2d_33">
    <path d="M 73.832727 199.406519 
L 74.918528 191.004028 
L 76.00433 193.83353 
L 77.090131 191.7661 
L 78.175932 188.938081 
L 79.261733 195.683909 
L 80.347534 196.543875 
L 81.433335 208.487246 
L 82.519137 205.420703 
L 83.604938 192.357297 
L 84.690739 197.704052 
L 85.77654 193.332664 
L 86.862341 214.306507 
L 87.948142 204.573537 
L 89.033943 201.102023 
L 90.119745 201.88685 
L 91.205546 202.50804 
L 92.291347 187.501608 
L 93.377148 194.488301 
L 94.462949 199.630208 
L 95.54875 200.088379 
L 96.634552 196.900638 
L 97.720353 181.883937 
L 98.806154 199.071312 
L 99.891955 186.742098 
L 100.977756 188.996684 
L 102.063557 202.361929 
L 103.149358 197.048827 
L 104.23516 194.928113 
L 105.320961 205.645991 
L 106.406762 211.963725 
L 107.492563 202.112061 
L 108.578364 198.001576 
L 109.664165 188.473534 
L 110.749967 200.298299 
L 111.835768 195.44357 
L 112.921569 201.786526 
L 114.00737 200.793481 
L 115.093171 187.142025 
L 116.178972 204.944375 
L 117.264773 202.309385 
L 118.350575 200.600245 
L 119.436376 189.621147 
L 120.522177 201.528799 
L 121.607978 204.901815 
L 122.693779 199.938108 
L 123.77958 202.357924 
L 124.865382 199.522962 
L 125.951183 188.826829 
L 127.036984 186.35621 
L 128.122785 187.706037 
L 129.208586 185.621706 
L 130.294387 189.513682 
L 131.380189 201.455255 
L 132.46599 193.906773 
L 133.551791 196.757094 
L 134.637592 185.593016 
L 135.723393 202.881271 
L 136.809194 194.762601 
L 137.894995 194.588701 
L 138.980797 197.35208 
L 140.066598 186.811624 
L 141.152399 180.610161 
L 142.2382 187.395532 
L 143.324001 196.713366 
L 144.409802 195.309118 
L 145.495604 183.93656 
L 146.581405 197.73112 
L 147.667206 204.51849 
L 148.753007 187.205477 
L 149.838808 185.114391 
L 150.924609 200.000786 
L 152.01041 200.640687 
L 153.096212 196.966348 
L 154.182013 198.134503 
L 155.267814 203.31031 
L 156.353615 194.254522 
L 157.439416 201.100497 
L 158.525217 198.762269 
L 159.611019 192.267778 
L 160.69682 197.800842 
L 161.782621 184.0301 
L 162.868422 196.515818 
L 163.954223 189.398005 
L 165.040024 201.548126 
L 166.125825 191.681731 
L 167.211627 196.105462 
L 168.297428 197.308077 
L 169.383229 195.445176 
L 170.46903 188.966356 
L 171.554831 183.821327 
L 172.640632 185.37643 
L 173.726434 199.429284 
L 174.812235 193.644127 
L 175.898036 188.537194 
L 176.983837 190.231748 
L 178.069638 195.112174 
L 179.155439 200.947283 
L 180.24124 190.98265 
L 181.327042 196.5937 
L 182.412843 204.837877 
L 183.498644 184.173653 
L 184.584445 189.984198 
L 185.670246 208.776776 
L 186.756047 207.987985 
L 187.841849 197.751917 
L 188.92765 192.090768 
L 190.013451 181.04408 
L 191.099252 202.57092 
L 192.185053 197.852164 
L 193.270854 199.49203 
L 194.356656 195.569003 
L 195.442457 199.294546 
L 196.528258 199.175902 
L 197.614059 197.622345 
L 198.69986 194.020572 
L 199.785661 194.657029 
L 200.871462 203.096697 
L 201.957264 202.972731 
L 203.043065 191.780902 
L 204.128866 192.357354 
L 205.214667 183.567705 
L 206.300468 195.451874 
L 207.386269 182.389048 
L 208.472071 196.737809 
L 209.557872 183.206031 
L 210.643673 189.038745 
L 211.729474 188.620086 
L 212.815275 195.113185 
L 213.901076 187.353279 
L 214.986877 199.430738 
L 216.072679 183.701717 
L 217.15848 202.91037 
L 218.244281 185.30196 
L 219.330082 182.714184 
L 220.415883 191.23678 
L 221.501684 197.76377 
L 222.587486 193.298044 
L 223.673287 184.128477 
L 224.759088 199.876905 
L 225.844889 193.281287 
L 226.93069 190.488003 
L 228.016491 180.698423 
L 229.102292 196.884921 
L 230.188094 183.533657 
L 231.273895 187.963417 
L 232.359696 196.791116 
L 233.445497 189.826833 
L 234.531298 196.698405 
L 235.617099 196.808373 
L 236.702901 184.084262 
L 237.788702 201.253669 
L 238.874503 199.052834 
L 239.960304 186.376646 
L 241.046105 194.794672 
L 242.131906 194.339324 
L 243.217708 189.142963 
L 244.303509 191.62018 
L 245.38931 200.055493 
L 246.475111 194.187694 
L 247.560912 193.611928 
L 248.646713 195.593646 
L 250.818316 195.872691 
L 251.904117 189.163035 
L 252.989918 194.61007 
L 254.075719 197.454016 
L 255.16152 194.573266 
L 256.247321 200.525265 
L 257.333123 192.626232 
L 258.418924 198.870741 
L 259.504725 192.573617 
L 260.590526 192.320753 
L 261.676327 192.740176 
L 262.762128 205.987284 
L 263.847929 194.587709 
L 264.933731 195.870778 
L 266.019532 197.81768 
L 267.105333 187.623751 
L 268.191134 193.314165 
L 269.276935 202.468192 
L 270.362736 201.130992 
L 271.448538 197.66069 
L 272.534339 203.408068 
L 274.705941 197.484906 
L 275.791742 194.082189 
L 276.877543 203.323473 
L 277.963344 196.69082 
L 279.049146 185.667808 
L 282.306549 200.86219 
L 283.39235 196.221473 
L 284.478151 189.237996 
L 285.563953 188.074763 
L 286.649754 190.250598 
L 287.735555 184.614808 
L 288.821356 199.939211 
L 289.907157 194.351646 
L 290.992958 195.287703 
L 292.07876 197.425401 
L 293.164561 191.289691 
L 294.250362 197.07839 
L 295.336163 194.169067 
L 296.421964 190.744342 
L 297.507765 202.777196 
L 298.593566 201.879525 
L 299.679368 188.111294 
L 300.765169 196.106742 
L 301.85097 189.802157 
L 302.936771 196.617582 
L 304.022572 198.390138 
L 305.108373 193.802531 
L 306.194175 192.293313 
L 307.279976 198.071132 
L 308.365777 196.680442 
L 309.451578 194.912453 
L 310.537379 194.949063 
L 311.62318 193.084955 
L 313.794783 196.53432 
L 314.880584 193.938809 
L 315.966385 204.000867 
L 317.052186 190.967013 
L 318.137987 196.957015 
L 319.223788 192.559507 
L 320.30959 185.511212 
L 321.395391 197.816002 
L 322.481192 193.700352 
L 323.566993 200.919553 
L 324.652794 193.481499 
L 325.738595 200.43844 
L 326.824396 196.890058 
L 327.910198 200.810149 
L 328.995999 198.905254 
L 330.0818 191.327808 
L 331.167601 206.337031 
L 332.253402 198.295233 
L 333.339203 195.034008 
L 334.425005 201.331731 
L 335.510806 197.669487 
L 336.596607 200.297185 
L 337.682408 195.714797 
L 338.768209 211.024638 
L 339.85401 198.047915 
L 340.939811 199.292721 
L 342.025613 200.752956 
L 343.111414 197.476364 
L 344.197215 200.788069 
L 345.283016 200.895403 
L 346.368817 204.164229 
L 347.454618 212.092055 
L 348.54042 201.020219 
L 349.626221 191.369716 
L 350.712022 213.709633 
L 351.797823 186.442237 
L 352.883624 192.454113 
L 353.969425 191.436706 
L 355.055227 194.857176 
L 356.141028 192.42405 
L 357.226829 188.658316 
L 358.31263 191.922804 
L 359.398431 193.351141 
L 360.484232 191.495413 
L 361.570033 185.621584 
L 362.655835 188.591758 
L 363.741636 201.213172 
L 364.827437 181.907019 
L 365.913238 196.495725 
L 366.999039 204.935225 
L 368.08484 186.421016 
L 369.170642 187.179154 
L 370.256443 193.567548 
L 371.342244 187.75823 
L 372.428045 207.631418 
L 373.513846 196.097303 
L 374.599647 186.618348 
L 375.685448 191.688451 
L 376.77125 198.640635 
L 377.857051 196.507761 
L 378.942852 184.79919 
L 380.028653 201.197866 
L 381.114454 200.623894 
L 382.200255 205.019988 
L 383.286057 190.197752 
L 384.371858 194.270411 
L 385.457659 188.804637 
L 386.54346 197.327899 
L 387.629261 193.786379 
L 388.715062 184.705335 
L 389.800863 196.387487 
L 390.886665 197.896621 
L 391.972466 182.749472 
L 393.058267 187.176394 
L 394.144068 196.694877 
L 395.229869 190.03594 
L 396.31567 196.52138 
L 397.401472 196.992135 
L 398.487273 190.72343 
L 398.487273 190.72343 
" clip-path="url(#p4c56d613fb)" style="fill: none; stroke-dasharray: 9.6,2.4,1.5,2.4; stroke-dashoffset: 0; stroke: #008000; stroke-width: 1.5"/>
   </g>
   <g id="line2d_34">
    <path d="M 73.832727 102.737283 
L 74.918528 111.794783 
L 76.00433 100.149426 
L 77.090131 83.328356 
L 78.175932 53.568 
L 79.261733 157.08228 
L 80.347534 135.085496 
L 81.433335 157.08228 
L 82.519137 157.08228 
L 83.604938 78.152642 
L 84.690739 118.264425 
L 85.77654 53.568 
L 86.862341 157.08228 
L 87.948142 157.08228 
L 89.033943 144.142995 
L 90.119745 119.558354 
L 91.205546 120.852282 
L 92.291347 80.740499 
L 93.377148 132.497639 
L 94.462949 137.673353 
L 95.54875 127.321925 
L 96.634552 145.436924 
L 97.720353 83.328356 
L 98.806154 144.142995 
L 99.891955 67.801214 
L 100.977756 93.679784 
L 102.063557 102.737283 
L 103.149358 127.321925 
L 104.23516 94.973712 
L 105.320961 115.676568 
L 106.406762 148.024781 
L 107.492563 132.497639 
L 108.578364 128.615853 
L 109.664165 105.32514 
L 110.749967 132.497639 
L 111.835768 109.206926 
L 112.921569 116.970497 
L 114.00737 150.612638 
L 115.093171 122.146211 
L 116.178972 141.555138 
L 117.264773 154.494423 
L 118.350575 113.088711 
L 119.436376 126.027996 
L 120.522177 157.08228 
L 121.607978 157.08228 
L 122.693779 120.852282 
L 123.77958 157.08228 
L 124.865382 157.08228 
L 125.951183 154.494423 
L 127.036984 140.26121 
L 128.122785 157.08228 
L 129.208586 69.095142 
L 130.294387 96.267641 
L 131.380189 157.08228 
L 132.46599 105.32514 
L 133.551791 157.08228 
L 134.637592 119.558354 
L 135.723393 157.08228 
L 136.809194 128.615853 
L 137.894995 80.740499 
L 138.980797 157.08228 
L 140.066598 150.612638 
L 141.152399 157.08228 
L 143.324001 157.08228 
L 144.409802 123.440139 
L 145.495604 136.379424 
L 146.581405 157.08228 
L 147.667206 146.730852 
L 148.753007 100.149426 
L 149.838808 135.085496 
L 150.924609 157.08228 
L 152.01041 100.149426 
L 153.096212 128.615853 
L 154.182013 122.146211 
L 155.267814 145.436924 
L 156.353615 157.08228 
L 157.439416 101.443355 
L 158.525217 151.906566 
L 159.611019 136.379424 
L 160.69682 157.08228 
L 161.782621 82.034427 
L 162.868422 157.08228 
L 165.040024 157.08228 
L 166.125825 89.797998 
L 167.211627 157.08228 
L 182.412843 157.08228 
L 183.498644 88.50407 
L 184.584445 131.20371 
L 185.670246 137.673353 
L 186.756047 157.08228 
L 187.841849 157.08228 
L 188.92765 53.568 
L 190.013451 114.38264 
L 191.099252 157.08228 
L 198.69986 157.08228 
L 199.785661 54.861929 
L 200.871462 154.494423 
L 201.957264 100.149426 
L 203.043065 157.08228 
L 204.128866 148.024781 
L 205.214667 80.740499 
L 206.300468 157.08228 
L 207.386269 85.916213 
L 208.472071 79.44657 
L 209.557872 96.267641 
L 210.643673 84.622284 
L 211.729474 96.267641 
L 212.815275 127.321925 
L 213.901076 107.912997 
L 214.986877 91.091927 
L 216.072679 84.622284 
L 217.15848 153.200495 
L 218.244281 136.379424 
L 219.330082 54.861929 
L 220.415883 96.267641 
L 221.501684 111.794783 
L 222.587486 146.730852 
L 223.673287 102.737283 
L 224.759088 157.08228 
L 225.844889 122.146211 
L 226.93069 83.328356 
L 228.016491 142.849067 
L 229.102292 110.500854 
L 230.188094 114.38264 
L 231.273895 97.561569 
L 232.359696 157.08228 
L 260.590526 157.08228 
L 261.676327 136.379424 
L 262.762128 157.08228 
L 311.62318 157.08228 
L 312.708981 107.912997 
L 313.794783 157.08228 
L 322.481192 157.08228 
L 323.566993 127.321925 
L 324.652794 157.08228 
L 336.596607 157.08228 
L 337.682408 144.142995 
L 338.768209 157.08228 
L 340.939811 157.08228 
L 342.025613 137.673353 
L 343.111414 157.08228 
L 346.368817 157.08228 
L 347.454618 150.612638 
L 348.54042 137.673353 
L 349.626221 157.08228 
L 351.797823 157.08228 
L 352.883624 127.321925 
L 353.969425 105.32514 
L 355.055227 124.734068 
L 356.141028 75.564785 
L 357.226829 157.08228 
L 358.31263 110.500854 
L 359.398431 157.08228 
L 360.484232 142.849067 
L 361.570033 149.318709 
L 362.655835 71.682999 
L 363.741636 157.08228 
L 364.827437 122.146211 
L 365.913238 124.734068 
L 366.999039 157.08228 
L 368.08484 157.08228 
L 369.170642 126.027996 
L 370.256443 157.08228 
L 376.77125 157.08228 
L 377.857051 115.676568 
L 378.942852 104.031212 
L 380.028653 157.08228 
L 383.286057 157.08228 
L 384.371858 127.321925 
L 385.457659 106.619069 
L 386.54346 138.967281 
L 387.629261 157.08228 
L 390.886665 157.08228 
L 391.972466 116.970497 
L 393.058267 157.08228 
L 394.144068 157.08228 
L 396.31567 85.916213 
L 397.401472 114.38264 
L 398.487273 83.328356 
L 398.487273 83.328356 
" clip-path="url(#p4c56d613fb)" style="fill: none; stroke: #ff0000; stroke-width: 1.5; stroke-linecap: square"/>
   </g>
   <g id="patch_3">
    <path d="M 57.6 307.584 
L 57.6 41.472 
" style="fill: none; stroke: #000000; stroke-width: 0.8; stroke-linejoin: miter; stroke-linecap: square"/>
   </g>
   <g id="patch_4">
    <path d="M 414.72 307.584 
L 414.72 41.472 
" style="fill: none; stroke: #000000; stroke-width: 0.8; stroke-linejoin: miter; stroke-linecap: square"/>
   </g>
   <g id="patch_5">
    <path d="M 57.6 307.584 
L 414.72 307.584 
" style="fill: none; stroke: #000000; stroke-width: 0.8; stroke-linejoin: miter; stroke-linecap: square"/>
   </g>
   <g id="patch_6">
    <path d="M 57.6 41.472 
L 414.72 41.472 
" style="fill: none; stroke: #000000; stroke-width: 0.8; stroke-linejoin: miter; stroke-linecap: square"/>
   </g>
   <g id="text_18">
    <!-- Population's average and best fitness -->
    <g transform="translate(123.529687 35.472)scale(0.12 -0.12)">
     <defs>
      <path id="DejaVuSans-50" d="M 1259 4147 
L 1259 2394 
L 2053 2394 
Q 2494 2394 2734 2622 
Q 2975 2850 2975 3272 
Q 2975 3691 2734 3919 
Q 2494 4147 2053 4147 
L 1259 4147 
z
M 628 4666 
L 2053 4666 
Q 2838 4666 3239 4311 
Q 3641 3956 3641 3272 
Q 3641 2581 3239 2228 
Q 2838 1875 2053 1875 
L 1259 1875 
L 1259 0 
L 628 0 
L 628 4666 
z
" transform="scale(0.015625)"/>
      <path id="DejaVuSans-70" d="M 1159 525 
L 1159 -1331 
L 581 -1331 
L 581 3500 
L 1159 3500 
L 1159 2969 
Q 1341 3281 1617 3432 
Q 1894 3584 2278 3584 
Q 2916 3584 3314 3078 
Q 3713 2572 3713 1747 
Q 3713 922 3314 415 
Q 2916 -91 2278 -91 
Q 1894 -91 1617 61 
Q 1341 213 1159 525 
z
M 3116 1747 
Q 3116 2381 2855 2742 
Q 2594 3103 2138 3103 
Q 1681 3103 1420 2742 
Q 1159 2381 1159 1747 
Q 1159 1113 1420 752 
Q 1681 391 2138 391 
Q 2594 391 2855 752 
Q 3116 1113 3116 1747 
z
" transform="scale(0.015625)"/>
      <path id="DejaVuSans-75" d="M 544 1381 
L 544 3500 
L 1119 3500 
L 1119 1403 
Q 1119 906 1312 657 
Q 1506 409 1894 409 
Q 2359 409 2629 706 
Q 2900 1003 2900 1516 
L 2900 3500 
L 3475 3500 
L 3475 0 
L 2900 0 
L 2900 538 
Q 2691 219 2414 64 
Q 2138 -91 1772 -91 
Q 1169 -91 856 284 
Q 544 659 544 1381 
z
M 1991 3584 
L 1991 3584 
z
" transform="scale(0.015625)"/>
      <path id="DejaVuSans-6c" d="M 603 4863 
L 1178 4863 
L 1178 0 
L 603 0 
L 603 4863 
z
" transform="scale(0.015625)"/>
      <path id="DejaVuSans-27" d="M 1147 4666 
L 1147 2931 
L 616 2931 
L 616 4666 
L 1147 4666 
z
" transform="scale(0.015625)"/>
      <path id="DejaVuSans-20" transform="scale(0.015625)"/>
      <path id="DejaVuSans-76" d="M 191 3500 
L 800 3500 
L 1894 563 
L 2988 3500 
L 3597 3500 
L 2284 0 
L 1503 0 
L 191 3500 
z
" transform="scale(0.015625)"/>
      <path id="DejaVuSans-67" d="M 2906 1791 
Q 2906 2416 2648 2759 
Q 2391 3103 1925 3103 
Q 1463 3103 1205 2759 
Q 947 2416 947 1791 
Q 947 1169 1205 825 
Q 1463 481 1925 481 
Q 2391 481 2648 825 
Q 2906 1169 2906 1791 
z
M 3481 434 
Q 3481 -459 3084 -895 
Q 2688 -1331 1869 -1331 
Q 1566 -1331 1297 -1286 
Q 1028 -1241 775 -1147 
L 775 -588 
Q 1028 -725 1275 -790 
Q 1522 -856 1778 -856 
Q 2344 -856 2625 -561 
Q 2906 -266 2906 331 
L 2906 616 
Q 2728 306 2450 153 
Q 2172 0 1784 0 
Q 1141 0 747 490 
Q 353 981 353 1791 
Q 353 2603 747 3093 
Q 1141 3584 1784 3584 
Q 2172 3584 2450 3431 
Q 2728 3278 2906 2969 
L 2906 3500 
L 3481 3500 
L 3481 434 
z
" transform="scale(0.015625)"/>
      <path id="DejaVuSans-64" d="M 2906 2969 
L 2906 4863 
L 3481 4863 
L 3481 0 
L 2906 0 
L 2906 525 
Q 2725 213 2448 61 
Q 2172 -91 1784 -91 
Q 1150 -91 751 415 
Q 353 922 353 1747 
Q 353 2572 751 3078 
Q 1150 3584 1784 3584 
Q 2172 3584 2448 3432 
Q 2725 3281 2906 2969 
z
M 947 1747 
Q 947 1113 1208 752 
Q 1469 391 1925 391 
Q 2381 391 2643 752 
Q 2906 1113 2906 1747 
Q 2906 2381 2643 2742 
Q 2381 3103 1925 3103 
Q 1469 3103 1208 2742 
Q 947 2381 947 1747 
z
" transform="scale(0.015625)"/>
      <path id="DejaVuSans-62" d="M 3116 1747 
Q 3116 2381 2855 2742 
Q 2594 3103 2138 3103 
Q 1681 3103 1420 2742 
Q 1159 2381 1159 1747 
Q 1159 1113 1420 752 
Q 1681 391 2138 391 
Q 2594 391 2855 752 
Q 3116 1113 3116 1747 
z
M 1159 2969 
Q 1341 3281 1617 3432 
Q 1894 3584 2278 3584 
Q 2916 3584 3314 3078 
Q 3713 2572 3713 1747 
Q 3713 922 3314 415 
Q 2916 -91 2278 -91 
Q 1894 -91 1617 61 
Q 1341 213 1159 525 
L 1159 0 
L 581 0 
L 581 4863 
L 1159 4863 
L 1159 2969 
z
" transform="scale(0.015625)"/>
      <path id="DejaVuSans-66" d="M 2375 4863 
L 2375 4384 
L 1825 4384 
Q 1516 4384 1395 4259 
Q 1275 4134 1275 3809 
L 1275 3500 
L 2222 3500 
L 2222 3053 
L 1275 3053 
L 1275 0 
L 697 0 
L 697 3053 
L 147 3053 
L 147 3500 
L 697 3500 
L 697 3744 
Q 697 4328 969 4595 
Q 1241 4863 1831 4863 
L 2375 4863 
z
" transform="scale(0.015625)"/>
     </defs>
     <use xlink:href="#DejaVuSans-50"/>
     <use xlink:href="#DejaVuSans-6f" x="56.677734"/>
     <use xlink:href="#DejaVuSans-70" x="117.859375"/>
     <use xlink:href="#DejaVuSans-75" x="181.335938"/>
     <use xlink:href="#DejaVuSans-6c" x="244.714844"/>
     <use xlink:href="#DejaVuSans-61" x="272.498047"/>
     <use xlink:href="#DejaVuSans-74" x="333.777344"/>
     <use xlink:href="#DejaVuSans-69" x="372.986328"/>
     <use xlink:href="#DejaVuSans-6f" x="400.769531"/>
     <use xlink:href="#DejaVuSans-6e" x="461.951172"/>
     <use xlink:href="#DejaVuSans-27" x="525.330078"/>
     <use xlink:href="#DejaVuSans-73" x="552.820312"/>
     <use xlink:href="#DejaVuSans-20" x="604.919922"/>
     <use xlink:href="#DejaVuSans-61" x="636.707031"/>
     <use xlink:href="#DejaVuSans-76" x="697.986328"/>
     <use xlink:href="#DejaVuSans-65" x="757.166016"/>
     <use xlink:href="#DejaVuSans-72" x="818.689453"/>
     <use xlink:href="#DejaVuSans-61" x="859.802734"/>
     <use xlink:href="#DejaVuSans-67" x="921.082031"/>
     <use xlink:href="#DejaVuSans-65" x="984.558594"/>
     <use xlink:href="#DejaVuSans-20" x="1046.082031"/>
     <use xlink:href="#DejaVuSans-61" x="1077.869141"/>
     <use xlink:href="#DejaVuSans-6e" x="1139.148438"/>
     <use xlink:href="#DejaVuSans-64" x="1202.527344"/>
     <use xlink:href="#DejaVuSans-20" x="1266.003906"/>
     <use xlink:href="#DejaVuSans-62" x="1297.791016"/>
     <use xlink:href="#DejaVuSans-65" x="1361.267578"/>
     <use xlink:href="#DejaVuSans-73" x="1422.791016"/>
     <use xlink:href="#DejaVuSans-74" x="1474.890625"/>
     <use xlink:href="#DejaVuSans-20" x="1514.099609"/>
     <use xlink:href="#DejaVuSans-66" x="1545.886719"/>
     <use xlink:href="#DejaVuSans-69" x="1581.091797"/>
     <use xlink:href="#DejaVuSans-74" x="1608.875"/>
     <use xlink:href="#DejaVuSans-6e" x="1648.083984"/>
     <use xlink:href="#DejaVuSans-65" x="1711.462891"/>
     <use xlink:href="#DejaVuSans-73" x="1772.986328"/>
     <use xlink:href="#DejaVuSans-73" x="1825.085938"/>
    </g>
   </g>
   <g id="legend_1">
    <g id="patch_7">
     <path d="M 334.779375 108.1845 
L 407.72 108.1845 
Q 409.72 108.1845 409.72 106.1845 
L 409.72 48.472 
Q 409.72 46.472 407.72 46.472 
L 334.779375 46.472 
Q 332.779375 46.472 332.779375 48.472 
L 332.779375 106.1845 
Q 332.779375 108.1845 334.779375 108.1845 
z
" style="fill: #ffffff; opacity: 0.8; stroke: #cccccc; stroke-linejoin: miter"/>
    </g>
    <g id="line2d_35">
     <path d="M 336.779375 54.570438 
L 346.779375 54.570438 
L 356.779375 54.570438 
" style="fill: none; stroke: #0000ff; stroke-width: 1.5; stroke-linecap: square"/>
    </g>
    <g id="text_19">
     <!-- average -->
     <g transform="translate(364.779375 58.070438)scale(0.1 -0.1)">
      <use xlink:href="#DejaVuSans-61"/>
      <use xlink:href="#DejaVuSans-76" x="61.279297"/>
      <use xlink:href="#DejaVuSans-65" x="120.458984"/>
      <use xlink:href="#DejaVuSans-72" x="181.982422"/>
      <use xlink:href="#DejaVuSans-61" x="223.095703"/>
      <use xlink:href="#DejaVuSans-67" x="284.375"/>
      <use xlink:href="#DejaVuSans-65" x="347.851562"/>
     </g>
    </g>
    <g id="line2d_36">
     <path d="M 336.779375 69.248563 
L 346.779375 69.248563 
L 356.779375 69.248563 
" style="fill: none; stroke-dasharray: 9.6,2.4,1.5,2.4; stroke-dashoffset: 0; stroke: #008000; stroke-width: 1.5"/>
    </g>
    <g id="text_20">
     <!-- -1 sd -->
     <g transform="translate(364.779375 72.748563)scale(0.1 -0.1)">
      <defs>
       <path id="DejaVuSans-2d" d="M 313 2009 
L 1997 2009 
L 1997 1497 
L 313 1497 
L 313 2009 
z
" transform="scale(0.015625)"/>
      </defs>
      <use xlink:href="#DejaVuSans-2d"/>
      <use xlink:href="#DejaVuSans-31" x="36.083984"/>
      <use xlink:href="#DejaVuSans-20" x="99.707031"/>
      <use xlink:href="#DejaVuSans-73" x="131.494141"/>
      <use xlink:href="#DejaVuSans-64" x="183.59375"/>
     </g>
    </g>
    <g id="line2d_37">
     <path d="M 336.779375 83.926688 
L 346.779375 83.926688 
L 356.779375 83.926688 
" style="fill: none; stroke-dasharray: 9.6,2.4,1.5,2.4; stroke-dashoffset: 0; stroke: #008000; stroke-width: 1.5"/>
    </g>
    <g id="text_21">
     <!-- +1 sd -->
     <g transform="translate(364.779375 87.426688)scale(0.1 -0.1)">
      <defs>
       <path id="DejaVuSans-2b" d="M 2944 4013 
L 2944 2272 
L 4684 2272 
L 4684 1741 
L 2944 1741 
L 2944 0 
L 2419 0 
L 2419 1741 
L 678 1741 
L 678 2272 
L 2419 2272 
L 2419 4013 
L 2944 4013 
z
" transform="scale(0.015625)"/>
      </defs>
      <use xlink:href="#DejaVuSans-2b"/>
      <use xlink:href="#DejaVuSans-31" x="83.789062"/>
      <use xlink:href="#DejaVuSans-20" x="147.412109"/>
      <use xlink:href="#DejaVuSans-73" x="179.199219"/>
      <use xlink:href="#DejaVuSans-64" x="231.298828"/>
     </g>
    </g>
    <g id="line2d_38">
     <path d="M 336.779375 98.604813 
L 346.779375 98.604813 
L 356.779375 98.604813 
" style="fill: none; stroke: #ff0000; stroke-width: 1.5; stroke-linecap: square"/>
    </g>
    <g id="text_22">
     <!-- best -->
     <g transform="translate(364.779375 102.104813)scale(0.1 -0.1)">
      <use xlink:href="#DejaVuSans-62"/>
      <use xlink:href="#DejaVuSans-65" x="63.476562"/>
      <use xlink:href="#DejaVuSans-73" x="125"/>
      <use xlink:href="#DejaVuSans-74" x="177.099609"/>
     </g>
    </g>
   </g>
  </g>
 </g>
 <defs>
  <clipPath id="p4c56d613fb">
   <rect x="57.6" y="41.472" width="357.12" height="266.112"/>
  </clipPath>
 </defs>
</svg>
