<?xml version="1.0" encoding="utf-8" standalone="no"?>
<!DOCTYPE svg PUBLIC "-//W3C//DTD SVG 1.1//EN"
  "http://www.w3.org/Graphics/SVG/1.1/DTD/svg11.dtd">
<svg xmlns:xlink="http://www.w3.org/1999/xlink" width="460.8pt" height="345.6pt" viewBox="0 0 460.8 345.6" xmlns="http://www.w3.org/2000/svg" version="1.1">
 <metadata>
  <rdf:RDF xmlns:dc="http://purl.org/dc/elements/1.1/" xmlns:cc="http://creativecommons.org/ns#" xmlns:rdf="http://www.w3.org/1999/02/22-rdf-syntax-ns#">
   <cc:Work>
    <dc:type rdf:resource="http://purl.org/dc/dcmitype/StillImage"/>
    <dc:date>2022-07-31T21:07:27.970881</dc:date>
    <dc:format>image/svg+xml</dc:format>
    <dc:creator>
     <cc:Agent>
      <dc:title>Matplotlib v3.5.2, https://matplotlib.org/</dc:title>
     </cc:Agent>
    </dc:creator>
   </cc:Work>
  </rdf:RDF>
 </metadata>
 <defs>
  <style type="text/css">*{stroke-linejoin: round; stroke-linecap: butt}</style>
 </defs>
 <g id="figure_1">
  <g id="patch_1">
   <path d="M 0 345.6 
L 460.8 345.6 
L 460.8 0 
L 0 0 
z
" style="fill: #ffffff"/>
  </g>
  <g id="axes_1">
   <g id="patch_2">
    <path d="M 57.6 307.584 
L 414.72 307.584 
L 414.72 41.472 
L 57.6 41.472 
z
" style="fill: #ffffff"/>
   </g>
   <g id="matplotlib.axis_1">
    <g id="xtick_1">
     <g id="line2d_1">
      <path d="M 73.832727 307.584 
L 73.832727 41.472 
" clip-path="url(#p0bbc946923)" style="fill: none; stroke: #b0b0b0; stroke-width: 0.8; stroke-linecap: square"/>
     </g>
     <g id="line2d_2">
      <defs>
       <path id="m5f2af24a5f" d="M 0 0 
L 0 3.5 
" style="stroke: #000000; stroke-width: 0.8"/>
      </defs>
      <g>
       <use xlink:href="#m5f2af24a5f" x="73.832727" y="307.584" style="stroke: #000000; stroke-width: 0.8"/>
      </g>
     </g>
     <g id="text_1">
      <!-- 0 -->
      <g transform="translate(70.651477 322.182437)scale(0.1 -0.1)">
       <defs>
        <path id="DejaVuSans-30" d="M 2034 4250 
Q 1547 4250 1301 3770 
Q 1056 3291 1056 2328 
Q 1056 1369 1301 889 
Q 1547 409 2034 409 
Q 2525 409 2770 889 
Q 3016 1369 3016 2328 
Q 3016 3291 2770 3770 
Q 2525 4250 2034 4250 
z
M 2034 4750 
Q 2819 4750 3233 4129 
Q 3647 3509 3647 2328 
Q 3647 1150 3233 529 
Q 2819 -91 2034 -91 
Q 1250 -91 836 529 
Q 422 1150 422 2328 
Q 422 3509 836 4129 
Q 1250 4750 2034 4750 
z
" transform="scale(0.015625)"/>
       </defs>
       <use xlink:href="#DejaVuSans-30"/>
      </g>
     </g>
    </g>
    <g id="xtick_2">
     <g id="line2d_3">
      <path d="M 114.618474 307.584 
L 114.618474 41.472 
" clip-path="url(#p0bbc946923)" style="fill: none; stroke: #b0b0b0; stroke-width: 0.8; stroke-linecap: square"/>
     </g>
     <g id="line2d_4">
      <g>
       <use xlink:href="#m5f2af24a5f" x="114.618474" y="307.584" style="stroke: #000000; stroke-width: 0.8"/>
      </g>
     </g>
     <g id="text_2">
      <!-- 25 -->
      <g transform="translate(108.255974 322.182437)scale(0.1 -0.1)">
       <defs>
        <path id="DejaVuSans-32" d="M 1228 531 
L 3431 531 
L 3431 0 
L 469 0 
L 469 531 
Q 828 903 1448 1529 
Q 2069 2156 2228 2338 
Q 2531 2678 2651 2914 
Q 2772 3150 2772 3378 
Q 2772 3750 2511 3984 
Q 2250 4219 1831 4219 
Q 1534 4219 1204 4116 
Q 875 4013 500 3803 
L 500 4441 
Q 881 4594 1212 4672 
Q 1544 4750 1819 4750 
Q 2544 4750 2975 4387 
Q 3406 4025 3406 3419 
Q 3406 3131 3298 2873 
Q 3191 2616 2906 2266 
Q 2828 2175 2409 1742 
Q 1991 1309 1228 531 
z
" transform="scale(0.015625)"/>
        <path id="DejaVuSans-35" d="M 691 4666 
L 3169 4666 
L 3169 4134 
L 1269 4134 
L 1269 2991 
Q 1406 3038 1543 3061 
Q 1681 3084 1819 3084 
Q 2600 3084 3056 2656 
Q 3513 2228 3513 1497 
Q 3513 744 3044 326 
Q 2575 -91 1722 -91 
Q 1428 -91 1123 -41 
Q 819 9 494 109 
L 494 744 
Q 775 591 1075 516 
Q 1375 441 1709 441 
Q 2250 441 2565 725 
Q 2881 1009 2881 1497 
Q 2881 1984 2565 2268 
Q 2250 2553 1709 2553 
Q 1456 2553 1204 2497 
Q 953 2441 691 2322 
L 691 4666 
z
" transform="scale(0.015625)"/>
       </defs>
       <use xlink:href="#DejaVuSans-32"/>
       <use xlink:href="#DejaVuSans-35" x="63.623047"/>
      </g>
     </g>
    </g>
    <g id="xtick_3">
     <g id="line2d_5">
      <path d="M 155.404221 307.584 
L 155.404221 41.472 
" clip-path="url(#p0bbc946923)" style="fill: none; stroke: #b0b0b0; stroke-width: 0.8; stroke-linecap: square"/>
     </g>
     <g id="line2d_6">
      <g>
       <use xlink:href="#m5f2af24a5f" x="155.404221" y="307.584" style="stroke: #000000; stroke-width: 0.8"/>
      </g>
     </g>
     <g id="text_3">
      <!-- 50 -->
      <g transform="translate(149.041721 322.182437)scale(0.1 -0.1)">
       <use xlink:href="#DejaVuSans-35"/>
       <use xlink:href="#DejaVuSans-30" x="63.623047"/>
      </g>
     </g>
    </g>
    <g id="xtick_4">
     <g id="line2d_7">
      <path d="M 196.189968 307.584 
L 196.189968 41.472 
" clip-path="url(#p0bbc946923)" style="fill: none; stroke: #b0b0b0; stroke-width: 0.8; stroke-linecap: square"/>
     </g>
     <g id="line2d_8">
      <g>
       <use xlink:href="#m5f2af24a5f" x="196.189968" y="307.584" style="stroke: #000000; stroke-width: 0.8"/>
      </g>
     </g>
     <g id="text_4">
      <!-- 75 -->
      <g transform="translate(189.827468 322.182437)scale(0.1 -0.1)">
       <defs>
        <path id="DejaVuSans-37" d="M 525 4666 
L 3525 4666 
L 3525 4397 
L 1831 0 
L 1172 0 
L 2766 4134 
L 525 4134 
L 525 4666 
z
" transform="scale(0.015625)"/>
       </defs>
       <use xlink:href="#DejaVuSans-37"/>
       <use xlink:href="#DejaVuSans-35" x="63.623047"/>
      </g>
     </g>
    </g>
    <g id="xtick_5">
     <g id="line2d_9">
      <path d="M 236.975715 307.584 
L 236.975715 41.472 
" clip-path="url(#p0bbc946923)" style="fill: none; stroke: #b0b0b0; stroke-width: 0.8; stroke-linecap: square"/>
     </g>
     <g id="line2d_10">
      <g>
       <use xlink:href="#m5f2af24a5f" x="236.975715" y="307.584" style="stroke: #000000; stroke-width: 0.8"/>
      </g>
     </g>
     <g id="text_5">
      <!-- 100 -->
      <g transform="translate(227.431965 322.182437)scale(0.1 -0.1)">
       <defs>
        <path id="DejaVuSans-31" d="M 794 531 
L 1825 531 
L 1825 4091 
L 703 3866 
L 703 4441 
L 1819 4666 
L 2450 4666 
L 2450 531 
L 3481 531 
L 3481 0 
L 794 0 
L 794 531 
z
" transform="scale(0.015625)"/>
       </defs>
       <use xlink:href="#DejaVuSans-31"/>
       <use xlink:href="#DejaVuSans-30" x="63.623047"/>
       <use xlink:href="#DejaVuSans-30" x="127.246094"/>
      </g>
     </g>
    </g>
    <g id="xtick_6">
     <g id="line2d_11">
      <path d="M 277.761462 307.584 
L 277.761462 41.472 
" clip-path="url(#p0bbc946923)" style="fill: none; stroke: #b0b0b0; stroke-width: 0.8; stroke-linecap: square"/>
     </g>
     <g id="line2d_12">
      <g>
       <use xlink:href="#m5f2af24a5f" x="277.761462" y="307.584" style="stroke: #000000; stroke-width: 0.8"/>
      </g>
     </g>
     <g id="text_6">
      <!-- 125 -->
      <g transform="translate(268.217712 322.182437)scale(0.1 -0.1)">
       <use xlink:href="#DejaVuSans-31"/>
       <use xlink:href="#DejaVuSans-32" x="63.623047"/>
       <use xlink:href="#DejaVuSans-35" x="127.246094"/>
      </g>
     </g>
    </g>
    <g id="xtick_7">
     <g id="line2d_13">
      <path d="M 318.547209 307.584 
L 318.547209 41.472 
" clip-path="url(#p0bbc946923)" style="fill: none; stroke: #b0b0b0; stroke-width: 0.8; stroke-linecap: square"/>
     </g>
     <g id="line2d_14">
      <g>
       <use xlink:href="#m5f2af24a5f" x="318.547209" y="307.584" style="stroke: #000000; stroke-width: 0.8"/>
      </g>
     </g>
     <g id="text_7">
      <!-- 150 -->
      <g transform="translate(309.003459 322.182437)scale(0.1 -0.1)">
       <use xlink:href="#DejaVuSans-31"/>
       <use xlink:href="#DejaVuSans-35" x="63.623047"/>
       <use xlink:href="#DejaVuSans-30" x="127.246094"/>
      </g>
     </g>
    </g>
    <g id="xtick_8">
     <g id="line2d_15">
      <path d="M 359.332956 307.584 
L 359.332956 41.472 
" clip-path="url(#p0bbc946923)" style="fill: none; stroke: #b0b0b0; stroke-width: 0.8; stroke-linecap: square"/>
     </g>
     <g id="line2d_16">
      <g>
       <use xlink:href="#m5f2af24a5f" x="359.332956" y="307.584" style="stroke: #000000; stroke-width: 0.8"/>
      </g>
     </g>
     <g id="text_8">
      <!-- 175 -->
      <g transform="translate(349.789206 322.182437)scale(0.1 -0.1)">
       <use xlink:href="#DejaVuSans-31"/>
       <use xlink:href="#DejaVuSans-37" x="63.623047"/>
       <use xlink:href="#DejaVuSans-35" x="127.246094"/>
      </g>
     </g>
    </g>
    <g id="xtick_9">
     <g id="line2d_17">
      <path d="M 400.118703 307.584 
L 400.118703 41.472 
" clip-path="url(#p0bbc946923)" style="fill: none; stroke: #b0b0b0; stroke-width: 0.8; stroke-linecap: square"/>
     </g>
     <g id="line2d_18">
      <g>
       <use xlink:href="#m5f2af24a5f" x="400.118703" y="307.584" style="stroke: #000000; stroke-width: 0.8"/>
      </g>
     </g>
     <g id="text_9">
      <!-- 200 -->
      <g transform="translate(390.574953 322.182437)scale(0.1 -0.1)">
       <use xlink:href="#DejaVuSans-32"/>
       <use xlink:href="#DejaVuSans-30" x="63.623047"/>
       <use xlink:href="#DejaVuSans-30" x="127.246094"/>
      </g>
     </g>
    </g>
    <g id="text_10">
     <!-- Generations -->
     <g transform="translate(205.662344 335.860562)scale(0.1 -0.1)">
      <defs>
       <path id="DejaVuSans-47" d="M 3809 666 
L 3809 1919 
L 2778 1919 
L 2778 2438 
L 4434 2438 
L 4434 434 
Q 4069 175 3628 42 
Q 3188 -91 2688 -91 
Q 1594 -91 976 548 
Q 359 1188 359 2328 
Q 359 3472 976 4111 
Q 1594 4750 2688 4750 
Q 3144 4750 3555 4637 
Q 3966 4525 4313 4306 
L 4313 3634 
Q 3963 3931 3569 4081 
Q 3175 4231 2741 4231 
Q 1884 4231 1454 3753 
Q 1025 3275 1025 2328 
Q 1025 1384 1454 906 
Q 1884 428 2741 428 
Q 3075 428 3337 486 
Q 3600 544 3809 666 
z
" transform="scale(0.015625)"/>
       <path id="DejaVuSans-65" d="M 3597 1894 
L 3597 1613 
L 953 1613 
Q 991 1019 1311 708 
Q 1631 397 2203 397 
Q 2534 397 2845 478 
Q 3156 559 3463 722 
L 3463 178 
Q 3153 47 2828 -22 
Q 2503 -91 2169 -91 
Q 1331 -91 842 396 
Q 353 884 353 1716 
Q 353 2575 817 3079 
Q 1281 3584 2069 3584 
Q 2775 3584 3186 3129 
Q 3597 2675 3597 1894 
z
M 3022 2063 
Q 3016 2534 2758 2815 
Q 2500 3097 2075 3097 
Q 1594 3097 1305 2825 
Q 1016 2553 972 2059 
L 3022 2063 
z
" transform="scale(0.015625)"/>
       <path id="DejaVuSans-6e" d="M 3513 2113 
L 3513 0 
L 2938 0 
L 2938 2094 
Q 2938 2591 2744 2837 
Q 2550 3084 2163 3084 
Q 1697 3084 1428 2787 
Q 1159 2491 1159 1978 
L 1159 0 
L 581 0 
L 581 3500 
L 1159 3500 
L 1159 2956 
Q 1366 3272 1645 3428 
Q 1925 3584 2291 3584 
Q 2894 3584 3203 3211 
Q 3513 2838 3513 2113 
z
" transform="scale(0.015625)"/>
       <path id="DejaVuSans-72" d="M 2631 2963 
Q 2534 3019 2420 3045 
Q 2306 3072 2169 3072 
Q 1681 3072 1420 2755 
Q 1159 2438 1159 1844 
L 1159 0 
L 581 0 
L 581 3500 
L 1159 3500 
L 1159 2956 
Q 1341 3275 1631 3429 
Q 1922 3584 2338 3584 
Q 2397 3584 2469 3576 
Q 2541 3569 2628 3553 
L 2631 2963 
z
" transform="scale(0.015625)"/>
       <path id="DejaVuSans-61" d="M 2194 1759 
Q 1497 1759 1228 1600 
Q 959 1441 959 1056 
Q 959 750 1161 570 
Q 1363 391 1709 391 
Q 2188 391 2477 730 
Q 2766 1069 2766 1631 
L 2766 1759 
L 2194 1759 
z
M 3341 1997 
L 3341 0 
L 2766 0 
L 2766 531 
Q 2569 213 2275 61 
Q 1981 -91 1556 -91 
Q 1019 -91 701 211 
Q 384 513 384 1019 
Q 384 1609 779 1909 
Q 1175 2209 1959 2209 
L 2766 2209 
L 2766 2266 
Q 2766 2663 2505 2880 
Q 2244 3097 1772 3097 
Q 1472 3097 1187 3025 
Q 903 2953 641 2809 
L 641 3341 
Q 956 3463 1253 3523 
Q 1550 3584 1831 3584 
Q 2591 3584 2966 3190 
Q 3341 2797 3341 1997 
z
" transform="scale(0.015625)"/>
       <path id="DejaVuSans-74" d="M 1172 4494 
L 1172 3500 
L 2356 3500 
L 2356 3053 
L 1172 3053 
L 1172 1153 
Q 1172 725 1289 603 
Q 1406 481 1766 481 
L 2356 481 
L 2356 0 
L 1766 0 
Q 1100 0 847 248 
Q 594 497 594 1153 
L 594 3053 
L 172 3053 
L 172 3500 
L 594 3500 
L 594 4494 
L 1172 4494 
z
" transform="scale(0.015625)"/>
       <path id="DejaVuSans-69" d="M 603 3500 
L 1178 3500 
L 1178 0 
L 603 0 
L 603 3500 
z
M 603 4863 
L 1178 4863 
L 1178 4134 
L 603 4134 
L 603 4863 
z
" transform="scale(0.015625)"/>
       <path id="DejaVuSans-6f" d="M 1959 3097 
Q 1497 3097 1228 2736 
Q 959 2375 959 1747 
Q 959 1119 1226 758 
Q 1494 397 1959 397 
Q 2419 397 2687 759 
Q 2956 1122 2956 1747 
Q 2956 2369 2687 2733 
Q 2419 3097 1959 3097 
z
M 1959 3584 
Q 2709 3584 3137 3096 
Q 3566 2609 3566 1747 
Q 3566 888 3137 398 
Q 2709 -91 1959 -91 
Q 1206 -91 779 398 
Q 353 888 353 1747 
Q 353 2609 779 3096 
Q 1206 3584 1959 3584 
z
" transform="scale(0.015625)"/>
       <path id="DejaVuSans-73" d="M 2834 3397 
L 2834 2853 
Q 2591 2978 2328 3040 
Q 2066 3103 1784 3103 
Q 1356 3103 1142 2972 
Q 928 2841 928 2578 
Q 928 2378 1081 2264 
Q 1234 2150 1697 2047 
L 1894 2003 
Q 2506 1872 2764 1633 
Q 3022 1394 3022 966 
Q 3022 478 2636 193 
Q 2250 -91 1575 -91 
Q 1294 -91 989 -36 
Q 684 19 347 128 
L 347 722 
Q 666 556 975 473 
Q 1284 391 1588 391 
Q 1994 391 2212 530 
Q 2431 669 2431 922 
Q 2431 1156 2273 1281 
Q 2116 1406 1581 1522 
L 1381 1569 
Q 847 1681 609 1914 
Q 372 2147 372 2553 
Q 372 3047 722 3315 
Q 1072 3584 1716 3584 
Q 2034 3584 2315 3537 
Q 2597 3491 2834 3397 
z
" transform="scale(0.015625)"/>
      </defs>
      <use xlink:href="#DejaVuSans-47"/>
      <use xlink:href="#DejaVuSans-65" x="77.490234"/>
      <use xlink:href="#DejaVuSans-6e" x="139.013672"/>
      <use xlink:href="#DejaVuSans-65" x="202.392578"/>
      <use xlink:href="#DejaVuSans-72" x="263.916016"/>
      <use xlink:href="#DejaVuSans-61" x="305.029297"/>
      <use xlink:href="#DejaVuSans-74" x="366.308594"/>
      <use xlink:href="#DejaVuSans-69" x="405.517578"/>
      <use xlink:href="#DejaVuSans-6f" x="433.300781"/>
      <use xlink:href="#DejaVuSans-6e" x="494.482422"/>
      <use xlink:href="#DejaVuSans-73" x="557.861328"/>
     </g>
    </g>
   </g>
   <g id="matplotlib.axis_2">
    <g id="ytick_1">
     <g id="line2d_19">
      <path d="M 57.6 289.57275 
L 414.72 289.57275 
" clip-path="url(#p0bbc946923)" style="fill: none; stroke: #b0b0b0; stroke-width: 0.8; stroke-linecap: square"/>
     </g>
     <g id="line2d_20">
      <defs>
       <path id="m1a3f904c75" d="M 0 0 
L -3.5 0 
" style="stroke: #000000; stroke-width: 0.8"/>
      </defs>
      <g>
       <use xlink:href="#m1a3f904c75" x="57.6" y="289.57275" style="stroke: #000000; stroke-width: 0.8"/>
      </g>
     </g>
     <g id="text_11">
      <!-- 0 -->
      <g transform="translate(44.2375 293.371968)scale(0.1 -0.1)">
       <use xlink:href="#DejaVuSans-30"/>
      </g>
     </g>
    </g>
    <g id="ytick_2">
     <g id="line2d_21">
      <path d="M 57.6 257.506887 
L 414.72 257.506887 
" clip-path="url(#p0bbc946923)" style="fill: none; stroke: #b0b0b0; stroke-width: 0.8; stroke-linecap: square"/>
     </g>
     <g id="line2d_22">
      <g>
       <use xlink:href="#m1a3f904c75" x="57.6" y="257.506887" style="stroke: #000000; stroke-width: 0.8"/>
      </g>
     </g>
     <g id="text_12">
      <!-- 25 -->
      <g transform="translate(37.875 261.306106)scale(0.1 -0.1)">
       <use xlink:href="#DejaVuSans-32"/>
       <use xlink:href="#DejaVuSans-35" x="63.623047"/>
      </g>
     </g>
    </g>
    <g id="ytick_3">
     <g id="line2d_23">
      <path d="M 57.6 225.441024 
L 414.72 225.441024 
" clip-path="url(#p0bbc946923)" style="fill: none; stroke: #b0b0b0; stroke-width: 0.8; stroke-linecap: square"/>
     </g>
     <g id="line2d_24">
      <g>
       <use xlink:href="#m1a3f904c75" x="57.6" y="225.441024" style="stroke: #000000; stroke-width: 0.8"/>
      </g>
     </g>
     <g id="text_13">
      <!-- 50 -->
      <g transform="translate(37.875 229.240243)scale(0.1 -0.1)">
       <use xlink:href="#DejaVuSans-35"/>
       <use xlink:href="#DejaVuSans-30" x="63.623047"/>
      </g>
     </g>
    </g>
    <g id="ytick_4">
     <g id="line2d_25">
      <path d="M 57.6 193.375161 
L 414.72 193.375161 
" clip-path="url(#p0bbc946923)" style="fill: none; stroke: #b0b0b0; stroke-width: 0.8; stroke-linecap: square"/>
     </g>
     <g id="line2d_26">
      <g>
       <use xlink:href="#m1a3f904c75" x="57.6" y="193.375161" style="stroke: #000000; stroke-width: 0.8"/>
      </g>
     </g>
     <g id="text_14">
      <!-- 75 -->
      <g transform="translate(37.875 197.17438)scale(0.1 -0.1)">
       <use xlink:href="#DejaVuSans-37"/>
       <use xlink:href="#DejaVuSans-35" x="63.623047"/>
      </g>
     </g>
    </g>
    <g id="ytick_5">
     <g id="line2d_27">
      <path d="M 57.6 161.309299 
L 414.72 161.309299 
" clip-path="url(#p0bbc946923)" style="fill: none; stroke: #b0b0b0; stroke-width: 0.8; stroke-linecap: square"/>
     </g>
     <g id="line2d_28">
      <g>
       <use xlink:href="#m1a3f904c75" x="57.6" y="161.309299" style="stroke: #000000; stroke-width: 0.8"/>
      </g>
     </g>
     <g id="text_15">
      <!-- 100 -->
      <g transform="translate(31.5125 165.108518)scale(0.1 -0.1)">
       <use xlink:href="#DejaVuSans-31"/>
       <use xlink:href="#DejaVuSans-30" x="63.623047"/>
       <use xlink:href="#DejaVuSans-30" x="127.246094"/>
      </g>
     </g>
    </g>
    <g id="ytick_6">
     <g id="line2d_29">
      <path d="M 57.6 129.243436 
L 414.72 129.243436 
" clip-path="url(#p0bbc946923)" style="fill: none; stroke: #b0b0b0; stroke-width: 0.8; stroke-linecap: square"/>
     </g>
     <g id="line2d_30">
      <g>
       <use xlink:href="#m1a3f904c75" x="57.6" y="129.243436" style="stroke: #000000; stroke-width: 0.8"/>
      </g>
     </g>
     <g id="text_16">
      <!-- 125 -->
      <g transform="translate(31.5125 133.042655)scale(0.1 -0.1)">
       <use xlink:href="#DejaVuSans-31"/>
       <use xlink:href="#DejaVuSans-32" x="63.623047"/>
       <use xlink:href="#DejaVuSans-35" x="127.246094"/>
      </g>
     </g>
    </g>
    <g id="ytick_7">
     <g id="line2d_31">
      <path d="M 57.6 97.177573 
L 414.72 97.177573 
" clip-path="url(#p0bbc946923)" style="fill: none; stroke: #b0b0b0; stroke-width: 0.8; stroke-linecap: square"/>
     </g>
     <g id="line2d_32">
      <g>
       <use xlink:href="#m1a3f904c75" x="57.6" y="97.177573" style="stroke: #000000; stroke-width: 0.8"/>
      </g>
     </g>
     <g id="text_17">
      <!-- 150 -->
      <g transform="translate(31.5125 100.976792)scale(0.1 -0.1)">
       <use xlink:href="#DejaVuSans-31"/>
       <use xlink:href="#DejaVuSans-35" x="63.623047"/>
       <use xlink:href="#DejaVuSans-30" x="127.246094"/>
      </g>
     </g>
    </g>
    <g id="ytick_8">
     <g id="line2d_33">
      <path d="M 57.6 65.111711 
L 414.72 65.111711 
" clip-path="url(#p0bbc946923)" style="fill: none; stroke: #b0b0b0; stroke-width: 0.8; stroke-linecap: square"/>
     </g>
     <g id="line2d_34">
      <g>
       <use xlink:href="#m1a3f904c75" x="57.6" y="65.111711" style="stroke: #000000; stroke-width: 0.8"/>
      </g>
     </g>
     <g id="text_18">
      <!-- 175 -->
      <g transform="translate(31.5125 68.910929)scale(0.1 -0.1)">
       <use xlink:href="#DejaVuSans-31"/>
       <use xlink:href="#DejaVuSans-37" x="63.623047"/>
       <use xlink:href="#DejaVuSans-35" x="127.246094"/>
      </g>
     </g>
    </g>
    <g id="text_19">
     <!-- Fitness -->
     <g transform="translate(25.432812 191.845187)rotate(-90)scale(0.1 -0.1)">
      <defs>
       <path id="DejaVuSans-46" d="M 628 4666 
L 3309 4666 
L 3309 4134 
L 1259 4134 
L 1259 2759 
L 3109 2759 
L 3109 2228 
L 1259 2228 
L 1259 0 
L 628 0 
L 628 4666 
z
" transform="scale(0.015625)"/>
      </defs>
      <use xlink:href="#DejaVuSans-46"/>
      <use xlink:href="#DejaVuSans-69" x="50.269531"/>
      <use xlink:href="#DejaVuSans-74" x="78.052734"/>
      <use xlink:href="#DejaVuSans-6e" x="117.261719"/>
      <use xlink:href="#DejaVuSans-65" x="180.640625"/>
      <use xlink:href="#DejaVuSans-73" x="242.164062"/>
      <use xlink:href="#DejaVuSans-73" x="294.263672"/>
     </g>
    </g>
   </g>
   <g id="line2d_35">
    <path d="M 73.832727 247.117547 
L 75.464157 243.905796 
L 77.095587 252.179678 
L 78.727017 237.137632 
L 80.358447 243.134585 
L 81.989877 239.074325 
L 83.621307 248.800262 
L 85.252736 240.858291 
L 86.884166 238.301346 
L 88.515596 239.165213 
L 90.147026 245.262003 
L 91.778456 242.038824 
L 93.409886 247.946984 
L 95.041316 246.298899 
L 96.672746 244.817356 
L 98.304175 246.953129 
L 99.935605 245.885702 
L 101.567035 251.899694 
L 103.198465 251.931702 
L 104.829895 247.485236 
L 106.461325 253.245786 
L 108.092755 250.215669 
L 109.724185 249.888038 
L 111.355614 253.23427 
L 112.987044 249.9992 
L 114.618474 256.198428 
L 116.249904 252.453307 
L 117.881334 254.565378 
L 119.512764 249.828182 
L 121.144194 250.255727 
L 122.775624 250.230074 
L 124.407053 253.727391 
L 126.038483 244.473943 
L 127.669913 245.011818 
L 129.301343 240.600215 
L 130.932773 245.04209 
L 132.564203 254.522624 
L 135.827063 243.527032 
L 137.458492 247.314218 
L 139.089922 247.485236 
L 140.721352 250.055793 
L 142.352782 247.600223 
L 143.984212 246.09059 
L 145.615642 257.076473 
L 147.247072 245.877667 
L 148.878502 252.049234 
L 150.509931 244.577242 
L 152.141361 248.425835 
L 153.772791 246.929428 
L 155.404221 244.911416 
L 157.035651 248.418746 
L 158.667081 243.346602 
L 160.298511 244.861316 
L 161.929941 238.797525 
L 163.56137 241.288877 
L 165.1928 242.020582 
L 166.82423 245.385566 
L 168.45566 244.731847 
L 170.08709 246.125643 
L 171.71852 242.795327 
L 173.34995 237.372108 
L 174.98138 244.043587 
L 176.61281 244.69753 
L 178.244239 246.999477 
L 179.875669 247.767416 
L 181.507099 246.638697 
L 183.138529 249.501182 
L 184.769959 243.759455 
L 186.401389 244.663209 
L 188.032819 250.597762 
L 189.664249 243.652735 
L 191.295678 245.04823 
L 192.927108 243.645883 
L 194.558538 244.723583 
L 196.189968 241.978458 
L 197.821398 240.703514 
L 199.452828 253.693649 
L 201.084258 251.837642 
L 202.715688 251.481087 
L 204.347117 250.999023 
L 205.978547 245.610237 
L 207.609977 248.967468 
L 209.241407 238.583752 
L 210.872837 241.719292 
L 212.504267 250.252782 
L 214.135697 242.303393 
L 215.767127 255.779606 
L 217.398556 250.792424 
L 219.029986 247.587847 
L 220.661416 255.352061 
L 222.292846 250.181236 
L 223.924276 251.350241 
L 225.555706 250.691822 
L 227.187136 249.123044 
L 228.818566 249.135559 
L 230.449995 248.743653 
L 232.081425 250.034895 
L 233.712855 253.616229 
L 235.344285 251.709379 
L 236.975715 252.974912 
L 238.607145 255.845488 
L 240.238575 246.707104 
L 241.870005 251.255106 
L 243.501434 253.225776 
L 245.132864 249.33223 
L 246.764294 247.09947 
L 248.395724 243.48399 
L 250.027154 240.376399 
L 251.658584 251.290385 
L 253.290014 240.27683 
L 254.921444 240.610315 
L 256.552873 244.121003 
L 258.184303 246.557148 
L 259.815733 243.703701 
L 261.447163 247.916858 
L 263.078593 244.748496 
L 264.710023 248.078249 
L 266.341453 249.641195 
L 267.972883 245.433021 
L 269.604312 244.364159 
L 271.235742 238.241717 
L 272.867172 236.588754 
L 274.498602 245.64467 
L 276.130032 236.571537 
L 277.761462 240.147989 
L 279.392892 242.175531 
L 281.024322 247.699008 
L 282.655751 235.641842 
L 284.287181 243.851105 
L 285.918611 244.654717 
L 287.550041 243.99647 
L 289.181471 241.627872 
L 290.812901 241.79889 
L 292.444331 239.473046 
L 294.075761 243.191309 
L 295.70719 242.106722 
L 297.33862 241.927153 
L 298.97005 252.273049 
L 300.60148 247.755467 
L 302.23291 251.541345 
L 303.86434 249.067152 
L 305.49577 241.13192 
L 308.75863 245.472504 
L 310.390059 237.574747 
L 312.021489 241.792491 
L 313.652919 244.850427 
L 315.284349 244.23884 
L 316.915779 244.476679 
L 320.178639 235.932975 
L 321.810069 236.198052 
L 323.441498 244.329955 
L 325.072928 244.081979 
L 326.704358 242.722387 
L 328.335788 242.66253 
L 329.967218 242.730937 
L 331.598648 249.000995 
L 333.230078 239.031853 
L 334.861508 244.783153 
L 336.492937 238.853474 
L 338.124367 239.943345 
L 339.755797 247.033454 
L 341.387227 241.053489 
L 343.018657 248.621882 
L 344.650087 242.628327 
L 346.281517 240.730028 
L 347.912947 239.102769 
L 349.544376 246.184027 
L 351.175806 236.740022 
L 352.807236 241.288311 
L 354.438666 240.550459 
L 356.070096 242.209333 
L 357.701526 245.265905 
L 359.332956 242.890019 
L 360.964386 235.45944 
L 362.595815 239.212012 
L 364.227245 247.228709 
L 365.858675 243.423732 
L 367.490105 245.050698 
L 369.121535 249.930792 
L 370.752965 248.821127 
L 372.384395 246.38217 
L 374.015825 242.038315 
L 375.647254 245.130738 
L 378.910114 237.822723 
L 380.541544 243.070793 
L 382.172974 239.789429 
L 383.804404 246.401972 
L 385.435834 241.265846 
L 387.067264 245.309118 
L 388.698693 245.279105 
L 390.330123 243.933046 
L 391.961553 236.189501 
L 393.592983 240.328135 
L 395.224413 243.613114 
L 396.855843 245.894769 
L 398.487273 241.702075 
L 398.487273 241.702075 
" clip-path="url(#p0bbc946923)" style="fill: none; stroke: #0000ff; stroke-width: 1.5; stroke-linecap: square"/>
   </g>
   <g id="line2d_36">
    <path d="M 73.832727 287.830436 
L 75.464157 285.265197 
L 77.095587 293.898697 
L 78.727017 284.194515 
L 80.358447 286.306586 
L 81.989877 285.052345 
L 83.621307 290.043859 
L 85.252736 281.448616 
L 86.884166 285.643079 
L 88.515596 281.022028 
L 90.147026 285.92471 
L 91.778456 286.665403 
L 93.409886 288.176637 
L 95.041316 289.183502 
L 96.672746 288.058729 
L 98.304175 287.311409 
L 99.935605 290.168919 
L 101.567035 290.529888 
L 103.198465 292.178091 
L 104.829895 287.008528 
L 106.461325 290.297574 
L 108.092755 291.100434 
L 109.724185 288.392498 
L 111.355614 286.520872 
L 112.987044 288.432999 
L 114.618474 293.227323 
L 116.249904 288.801226 
L 117.881334 293.536801 
L 119.512764 291.586944 
L 121.144194 293.079584 
L 122.775624 289.722304 
L 124.407053 289.663378 
L 126.038483 291.483905 
L 127.669913 290.23408 
L 129.301343 284.278361 
L 130.932773 284.604319 
L 132.564203 289.372065 
L 134.195633 290.884918 
L 135.827063 282.73932 
L 137.458492 292.289119 
L 139.089922 289.733949 
L 140.721352 292.91048 
L 142.352782 286.502005 
L 143.984212 289.538411 
L 145.615642 294.68677 
L 147.247072 291.031422 
L 148.878502 295.459896 
L 150.509931 287.588106 
L 152.141361 289.466002 
L 153.772791 290.589256 
L 155.404221 290.118432 
L 157.035651 289.786115 
L 158.667081 289.243865 
L 160.298511 287.758436 
L 161.929941 284.335009 
L 163.56137 286.786367 
L 165.1928 287.504484 
L 166.82423 291.086709 
L 168.45566 286.48349 
L 170.08709 287.226371 
L 171.71852 286.927272 
L 173.34995 282.220565 
L 174.98138 288.532584 
L 176.61281 286.149128 
L 178.244239 286.910261 
L 179.875669 285.790004 
L 181.507099 285.962884 
L 183.138529 293.386274 
L 184.769959 289.546029 
L 186.401389 284.475723 
L 188.032819 290.754886 
L 189.664249 288.497233 
L 191.295678 289.339648 
L 192.927108 287.004165 
L 194.558538 288.234154 
L 196.189968 284.61267 
L 197.821398 285.461045 
L 199.452828 293.472074 
L 201.084258 292.684607 
L 202.715688 290.925261 
L 204.347117 291.862719 
L 205.978547 287.944572 
L 207.609977 289.121041 
L 209.241407 284.519008 
L 210.872837 287.938565 
L 212.504267 291.010211 
L 214.135697 288.198865 
L 215.767127 295.488 
L 217.398556 289.263536 
L 219.029986 288.915402 
L 220.661416 292.59747 
L 222.292846 292.532374 
L 223.924276 291.517254 
L 225.555706 289.93852 
L 227.187136 287.552434 
L 228.818566 290.609884 
L 230.449995 287.951057 
L 232.081425 289.32257 
L 233.712855 291.863239 
L 235.344285 289.401006 
L 236.975715 291.254957 
L 238.607145 289.518037 
L 240.238575 288.542563 
L 241.870005 291.60073 
L 243.501434 292.723628 
L 245.132864 291.952651 
L 246.764294 289.87248 
L 248.395724 286.691849 
L 250.027154 285.323316 
L 251.658584 294.408464 
L 253.290014 288.258658 
L 254.921444 286.135408 
L 256.552873 284.739768 
L 258.184303 286.244056 
L 259.815733 284.767566 
L 261.447163 287.735846 
L 263.078593 291.157467 
L 264.710023 291.143591 
L 266.341453 288.750907 
L 267.972883 288.714714 
L 269.604312 286.257166 
L 271.235742 288.298538 
L 272.867172 282.949233 
L 274.498602 287.209941 
L 276.130032 283.392565 
L 277.761462 288.838223 
L 279.392892 286.330181 
L 281.024322 291.641335 
L 282.655751 282.625084 
L 284.287181 288.754339 
L 285.918611 286.965994 
L 287.550041 287.576776 
L 289.181471 286.846919 
L 290.812901 287.466667 
L 292.444331 283.930283 
L 294.075761 288.101852 
L 295.70719 285.409774 
L 297.33862 285.144231 
L 298.97005 291.127445 
L 300.60148 289.827733 
L 302.23291 291.372772 
L 303.86434 293.298835 
L 305.49577 288.052136 
L 308.75863 285.908537 
L 310.390059 283.153504 
L 312.021489 285.021715 
L 313.652919 288.218162 
L 315.284349 285.951157 
L 316.915779 287.489087 
L 318.547209 287.685934 
L 320.178639 280.993215 
L 321.810069 284.571297 
L 323.441498 286.800176 
L 325.072928 284.716916 
L 326.704358 285.620122 
L 328.335788 291.232982 
L 329.967218 289.183731 
L 331.598648 291.272584 
L 333.230078 284.922485 
L 334.861508 286.432389 
L 336.492937 284.420452 
L 338.124367 283.82868 
L 339.755797 291.816543 
L 341.387227 286.432872 
L 343.018657 291.086975 
L 344.650087 285.289761 
L 346.281517 283.545313 
L 347.912947 283.392108 
L 349.544376 289.047152 
L 351.175806 283.563748 
L 352.807236 286.8274 
L 354.438666 284.808814 
L 356.070096 287.304859 
L 357.701526 286.012543 
L 359.332956 282.095851 
L 360.964386 281.513842 
L 362.595815 282.002656 
L 364.227245 286.101631 
L 365.858675 284.709293 
L 367.490105 288.342709 
L 369.121535 292.412491 
L 370.752965 288.494289 
L 372.384395 290.823435 
L 374.015825 285.242408 
L 375.647254 287.987873 
L 377.278684 283.436363 
L 378.910114 283.399881 
L 380.541544 285.749898 
L 382.172974 285.011318 
L 383.804404 289.255238 
L 385.435834 285.852284 
L 387.067264 287.810824 
L 388.698693 288.252189 
L 390.330123 286.210756 
L 391.961553 283.662153 
L 393.592983 281.391113 
L 395.224413 285.131739 
L 396.855843 284.50009 
L 398.487273 284.541049 
L 398.487273 284.541049 
" clip-path="url(#p0bbc946923)" style="fill: none; stroke-dasharray: 9.6,2.4,1.5,2.4; stroke-dashoffset: 0; stroke: #008000; stroke-width: 1.5"/>
   </g>
   <g id="line2d_37">
    <path d="M 73.832727 206.404659 
L 75.464157 202.546396 
L 77.095587 210.460659 
L 78.727017 190.080748 
L 80.358447 199.962584 
L 81.989877 193.096305 
L 83.621307 207.556664 
L 85.252736 200.267966 
L 86.884166 190.959614 
L 88.515596 197.308399 
L 90.147026 204.599296 
L 91.778456 197.412246 
L 93.409886 207.717332 
L 95.041316 203.414297 
L 96.672746 201.575983 
L 98.304175 206.594849 
L 99.935605 201.602485 
L 101.567035 213.269501 
L 103.198465 211.685314 
L 104.829895 207.961944 
L 106.461325 216.193998 
L 108.092755 209.330905 
L 109.724185 211.383578 
L 111.355614 219.947668 
L 112.987044 211.5654 
L 114.618474 219.169532 
L 116.249904 216.105388 
L 117.881334 215.593956 
L 119.512764 208.069419 
L 121.144194 207.431869 
L 122.775624 210.737844 
L 124.407053 217.791403 
L 126.038483 197.463981 
L 127.669913 199.789556 
L 129.301343 196.922069 
L 130.932773 205.47986 
L 132.564203 219.673183 
L 134.195633 206.981152 
L 135.827063 204.314743 
L 137.458492 202.339317 
L 139.089922 205.236523 
L 140.721352 207.201106 
L 142.352782 208.698441 
L 143.984212 202.642769 
L 145.615642 219.466176 
L 147.247072 200.723913 
L 148.878502 208.638572 
L 150.509931 201.566379 
L 152.141361 207.385667 
L 153.772791 203.2696 
L 155.404221 199.7044 
L 157.035651 207.051378 
L 158.667081 197.449339 
L 160.298511 201.964196 
L 161.929941 193.260041 
L 163.56137 195.791388 
L 165.1928 196.53668 
L 168.45566 202.980205 
L 170.08709 205.024916 
L 173.34995 192.52365 
L 174.98138 199.55459 
L 178.244239 207.088693 
L 179.875669 209.744828 
L 181.507099 207.31451 
L 183.138529 205.616089 
L 184.769959 197.972882 
L 186.401389 204.850695 
L 188.032819 210.440639 
L 189.664249 198.808237 
L 191.295678 200.756813 
L 192.927108 200.287601 
L 194.558538 201.213012 
L 196.189968 199.344246 
L 197.821398 195.945983 
L 199.452828 213.915224 
L 201.084258 210.990678 
L 202.715688 212.036913 
L 204.347117 210.135327 
L 205.978547 203.275901 
L 207.609977 208.813894 
L 209.241407 192.648497 
L 210.872837 195.500019 
L 212.504267 209.495353 
L 214.135697 196.40792 
L 215.767127 216.071212 
L 217.398556 212.321313 
L 219.029986 206.260292 
L 220.661416 218.106652 
L 222.292846 207.830098 
L 223.924276 211.183229 
L 225.555706 211.445124 
L 227.187136 210.693655 
L 228.818566 207.661234 
L 230.449995 209.536248 
L 232.081425 210.747221 
L 233.712855 215.369219 
L 235.344285 214.017752 
L 236.975715 214.694867 
L 238.607145 222.172939 
L 240.238575 204.871646 
L 241.870005 210.909481 
L 243.501434 213.727923 
L 245.132864 206.711809 
L 246.764294 204.32646 
L 248.395724 200.276131 
L 250.027154 195.429482 
L 251.658584 208.172306 
L 253.290014 192.295002 
L 254.921444 195.085222 
L 256.552873 203.502238 
L 258.184303 206.87024 
L 259.815733 202.639836 
L 261.447163 208.09787 
L 263.078593 198.339525 
L 264.710023 205.012907 
L 266.341453 210.531482 
L 267.972883 202.151328 
L 269.604312 202.471151 
L 271.235742 188.184895 
L 272.867172 190.228274 
L 274.498602 204.079399 
L 276.130032 189.750509 
L 277.761462 191.457754 
L 279.392892 198.020881 
L 281.024322 203.756682 
L 282.655751 188.6586 
L 284.287181 198.947871 
L 285.918611 202.34344 
L 287.550041 200.416164 
L 289.181471 196.408824 
L 290.812901 196.131112 
L 292.444331 195.015809 
L 294.075761 198.280765 
L 295.70719 198.80367 
L 297.33862 198.710075 
L 298.97005 213.418654 
L 300.60148 205.683201 
L 302.23291 211.709919 
L 303.86434 204.835469 
L 305.49577 194.211703 
L 308.75863 205.036471 
L 310.390059 191.995989 
L 312.021489 198.563266 
L 313.652919 201.482693 
L 315.284349 202.526523 
L 316.915779 201.464271 
L 318.547209 192.696709 
L 320.178639 190.872734 
L 321.810069 187.824808 
L 323.441498 201.859734 
L 325.072928 203.447042 
L 326.704358 199.824651 
L 328.335788 194.092079 
L 329.967218 196.278144 
L 331.598648 206.729406 
L 333.230078 193.141222 
L 334.861508 203.133916 
L 336.492937 193.286496 
L 338.124367 196.05801 
L 339.755797 202.250365 
L 341.387227 195.674106 
L 343.018657 206.15679 
L 344.650087 199.966893 
L 346.281517 197.914742 
L 347.912947 194.813431 
L 349.544376 203.320903 
L 351.175806 189.916295 
L 352.807236 195.749222 
L 354.438666 196.292104 
L 356.070096 197.113806 
L 357.701526 204.519267 
L 359.332956 203.684186 
L 360.964386 189.405037 
L 362.595815 196.421369 
L 364.227245 208.355787 
L 365.858675 202.138172 
L 367.490105 201.758687 
L 369.121535 207.449094 
L 370.752965 209.147965 
L 372.384395 201.940906 
L 374.015825 198.834221 
L 375.647254 202.273603 
L 377.278684 199.682566 
L 378.910114 192.245564 
L 380.541544 200.391687 
L 382.172974 194.56754 
L 383.804404 203.548706 
L 385.435834 196.679408 
L 387.067264 202.807412 
L 388.698693 202.30602 
L 390.330123 201.655337 
L 391.961553 188.71685 
L 393.592983 199.265158 
L 395.224413 202.09449 
L 396.855843 207.289449 
L 398.487273 198.863101 
L 398.487273 198.863101 
" clip-path="url(#p0bbc946923)" style="fill: none; stroke-dasharray: 9.6,2.4,1.5,2.4; stroke-dashoffset: 0; stroke: #008000; stroke-width: 1.5"/>
   </g>
   <g id="line2d_38">
    <path d="M 73.832727 95.894939 
L 75.464157 102.308111 
L 77.095587 65.111711 
L 78.727017 92.047035 
L 80.358447 108.721284 
L 81.989877 98.460208 
L 83.621307 83.068594 
L 85.252736 156.178761 
L 86.884166 67.67698 
L 88.515596 145.917685 
L 91.778456 138.221878 
L 93.409886 156.178761 
L 95.041316 102.308111 
L 96.672746 156.178761 
L 98.304175 138.221878 
L 99.935605 103.590746 
L 101.567035 130.526071 
L 103.198465 148.482954 
L 104.829895 156.178761 
L 106.461325 143.352416 
L 108.092755 117.699725 
L 109.724185 156.178761 
L 111.355614 154.896126 
L 112.987044 156.178761 
L 116.249904 156.178761 
L 117.881334 133.09134 
L 119.512764 97.177573 
L 121.144194 145.917685 
L 122.775624 156.178761 
L 124.407053 153.613492 
L 126.038483 54.850635 
L 127.669913 68.959614 
L 129.301343 120.264994 
L 130.932773 154.896126 
L 132.564203 144.63505 
L 134.195633 107.438649 
L 135.827063 147.200319 
L 137.458492 125.395533 
L 139.089922 131.808705 
L 140.721352 130.526071 
L 142.352782 149.765588 
L 143.984212 133.09134 
L 145.615642 140.787147 
L 147.247072 106.156015 
L 148.878502 68.959614 
L 150.509931 111.286553 
L 152.141361 80.503325 
L 153.772791 101.025477 
L 155.404221 53.568 
L 157.035651 110.003918 
L 158.667081 144.63505 
L 160.298511 118.98236 
L 161.929941 118.98236 
L 163.56137 121.547629 
L 165.1928 81.785959 
L 166.82423 75.372787 
L 168.45566 133.09134 
L 170.08709 133.09134 
L 171.71852 115.134456 
L 173.34995 131.808705 
L 174.98138 102.308111 
L 176.61281 116.417091 
L 178.244239 129.243436 
L 179.875669 127.960802 
L 181.507099 129.243436 
L 183.138529 53.568 
L 184.769959 101.025477 
L 186.401389 120.264994 
L 188.032819 148.482954 
L 189.664249 57.415904 
L 191.295678 84.351228 
L 192.927108 126.678167 
L 194.558538 102.308111 
L 196.189968 125.395533 
L 197.821398 113.851822 
L 199.452828 134.373974 
L 201.084258 133.09134 
L 202.715688 133.09134 
L 204.347117 143.352416 
L 205.978547 135.656609 
L 207.609977 156.178761 
L 209.241407 134.373974 
L 210.872837 70.242249 
L 212.504267 138.221878 
L 214.135697 122.830263 
L 215.767127 71.524883 
L 217.398556 145.917685 
L 219.029986 106.156015 
L 220.661416 156.178761 
L 222.292846 116.417091 
L 223.924276 107.438649 
L 225.555706 112.569187 
L 227.187136 115.134456 
L 228.818566 113.851822 
L 230.449995 143.352416 
L 232.081425 129.243436 
L 233.712855 110.003918 
L 235.344285 117.699725 
L 236.975715 93.32967 
L 238.607145 110.003918 
L 240.238575 127.960802 
L 241.870005 117.699725 
L 243.501434 120.264994 
L 245.132864 120.264994 
L 246.764294 112.569187 
L 248.395724 115.134456 
L 250.027154 97.177573 
L 251.658584 80.503325 
L 253.290014 90.764401 
L 254.921444 81.785959 
L 256.552873 94.612304 
L 258.184303 122.830263 
L 259.815733 104.87338 
L 261.447163 101.025477 
L 263.078593 102.308111 
L 264.710023 107.438649 
L 266.341453 116.417091 
L 267.972883 89.481766 
L 269.604312 121.547629 
L 271.235742 126.678167 
L 272.867172 92.047035 
L 274.498602 130.526071 
L 276.130032 127.960802 
L 277.761462 80.503325 
L 279.392892 111.286553 
L 281.024322 92.047035 
L 282.655751 116.417091 
L 284.287181 85.633863 
L 285.918611 122.830263 
L 287.550041 93.32967 
L 289.181471 79.22069 
L 290.812901 89.481766 
L 292.444331 111.286553 
L 294.075761 74.090152 
L 295.70719 107.438649 
L 298.97005 130.526071 
L 300.60148 124.112898 
L 302.23291 140.787147 
L 303.86434 101.025477 
L 305.49577 126.678167 
L 307.1272 112.569187 
L 308.75863 130.526071 
L 310.390059 104.87338 
L 312.021489 130.526071 
L 313.652919 99.742842 
L 315.284349 135.656609 
L 316.915779 142.069781 
L 318.547209 116.417091 
L 320.178639 139.504512 
L 321.810069 88.199132 
L 323.441498 156.178761 
L 325.072928 90.764401 
L 326.704358 152.330857 
L 328.335788 106.156015 
L 329.967218 107.438649 
L 331.598648 156.178761 
L 333.230078 111.286553 
L 334.861508 92.047035 
L 336.492937 130.526071 
L 338.124367 151.048223 
L 339.755797 117.699725 
L 341.387227 111.286553 
L 343.018657 124.112898 
L 344.650087 151.048223 
L 346.281517 94.612304 
L 347.912947 156.178761 
L 349.544376 117.699725 
L 351.175806 97.177573 
L 352.807236 71.524883 
L 354.438666 86.916497 
L 356.070096 131.808705 
L 357.701526 152.330857 
L 359.332956 130.526071 
L 360.964386 112.569187 
L 362.595815 127.960802 
L 364.227245 156.178761 
L 365.858675 156.178761 
L 367.490105 53.568 
L 369.121535 103.590746 
L 370.752965 107.438649 
L 372.384395 104.87338 
L 374.015825 104.87338 
L 375.647254 97.177573 
L 377.278684 129.243436 
L 378.910114 112.569187 
L 380.541544 115.134456 
L 382.172974 80.503325 
L 383.804404 92.047035 
L 385.435834 143.352416 
L 387.067264 156.178761 
L 388.698693 127.960802 
L 390.330123 115.134456 
L 391.961553 143.352416 
L 393.592983 135.656609 
L 395.224413 144.63505 
L 396.855843 98.460208 
L 398.487273 135.656609 
L 398.487273 135.656609 
" clip-path="url(#p0bbc946923)" style="fill: none; stroke: #ff0000; stroke-width: 1.5; stroke-linecap: square"/>
   </g>
   <g id="patch_3">
    <path d="M 57.6 307.584 
L 57.6 41.472 
" style="fill: none; stroke: #000000; stroke-width: 0.8; stroke-linejoin: miter; stroke-linecap: square"/>
   </g>
   <g id="patch_4">
    <path d="M 414.72 307.584 
L 414.72 41.472 
" style="fill: none; stroke: #000000; stroke-width: 0.8; stroke-linejoin: miter; stroke-linecap: square"/>
   </g>
   <g id="patch_5">
    <path d="M 57.6 307.584 
L 414.72 307.584 
" style="fill: none; stroke: #000000; stroke-width: 0.8; stroke-linejoin: miter; stroke-linecap: square"/>
   </g>
   <g id="patch_6">
    <path d="M 57.6 41.472 
L 414.72 41.472 
" style="fill: none; stroke: #000000; stroke-width: 0.8; stroke-linejoin: miter; stroke-linecap: square"/>
   </g>
   <g id="text_20">
    <!-- Population's average and best fitness -->
    <g transform="translate(123.529687 35.472)scale(0.12 -0.12)">
     <defs>
      <path id="DejaVuSans-50" d="M 1259 4147 
L 1259 2394 
L 2053 2394 
Q 2494 2394 2734 2622 
Q 2975 2850 2975 3272 
Q 2975 3691 2734 3919 
Q 2494 4147 2053 4147 
L 1259 4147 
z
M 628 4666 
L 2053 4666 
Q 2838 4666 3239 4311 
Q 3641 3956 3641 3272 
Q 3641 2581 3239 2228 
Q 2838 1875 2053 1875 
L 1259 1875 
L 1259 0 
L 628 0 
L 628 4666 
z
" transform="scale(0.015625)"/>
      <path id="DejaVuSans-70" d="M 1159 525 
L 1159 -1331 
L 581 -1331 
L 581 3500 
L 1159 3500 
L 1159 2969 
Q 1341 3281 1617 3432 
Q 1894 3584 2278 3584 
Q 2916 3584 3314 3078 
Q 3713 2572 3713 1747 
Q 3713 922 3314 415 
Q 2916 -91 2278 -91 
Q 1894 -91 1617 61 
Q 1341 213 1159 525 
z
M 3116 1747 
Q 3116 2381 2855 2742 
Q 2594 3103 2138 3103 
Q 1681 3103 1420 2742 
Q 1159 2381 1159 1747 
Q 1159 1113 1420 752 
Q 1681 391 2138 391 
Q 2594 391 2855 752 
Q 3116 1113 3116 1747 
z
" transform="scale(0.015625)"/>
      <path id="DejaVuSans-75" d="M 544 1381 
L 544 3500 
L 1119 3500 
L 1119 1403 
Q 1119 906 1312 657 
Q 1506 409 1894 409 
Q 2359 409 2629 706 
Q 2900 1003 2900 1516 
L 2900 3500 
L 3475 3500 
L 3475 0 
L 2900 0 
L 2900 538 
Q 2691 219 2414 64 
Q 2138 -91 1772 -91 
Q 1169 -91 856 284 
Q 544 659 544 1381 
z
M 1991 3584 
L 1991 3584 
z
" transform="scale(0.015625)"/>
      <path id="DejaVuSans-6c" d="M 603 4863 
L 1178 4863 
L 1178 0 
L 603 0 
L 603 4863 
z
" transform="scale(0.015625)"/>
      <path id="DejaVuSans-27" d="M 1147 4666 
L 1147 2931 
L 616 2931 
L 616 4666 
L 1147 4666 
z
" transform="scale(0.015625)"/>
      <path id="DejaVuSans-20" transform="scale(0.015625)"/>
      <path id="DejaVuSans-76" d="M 191 3500 
L 800 3500 
L 1894 563 
L 2988 3500 
L 3597 3500 
L 2284 0 
L 1503 0 
L 191 3500 
z
" transform="scale(0.015625)"/>
      <path id="DejaVuSans-67" d="M 2906 1791 
Q 2906 2416 2648 2759 
Q 2391 3103 1925 3103 
Q 1463 3103 1205 2759 
Q 947 2416 947 1791 
Q 947 1169 1205 825 
Q 1463 481 1925 481 
Q 2391 481 2648 825 
Q 2906 1169 2906 1791 
z
M 3481 434 
Q 3481 -459 3084 -895 
Q 2688 -1331 1869 -1331 
Q 1566 -1331 1297 -1286 
Q 1028 -1241 775 -1147 
L 775 -588 
Q 1028 -725 1275 -790 
Q 1522 -856 1778 -856 
Q 2344 -856 2625 -561 
Q 2906 -266 2906 331 
L 2906 616 
Q 2728 306 2450 153 
Q 2172 0 1784 0 
Q 1141 0 747 490 
Q 353 981 353 1791 
Q 353 2603 747 3093 
Q 1141 3584 1784 3584 
Q 2172 3584 2450 3431 
Q 2728 3278 2906 2969 
L 2906 3500 
L 3481 3500 
L 3481 434 
z
" transform="scale(0.015625)"/>
      <path id="DejaVuSans-64" d="M 2906 2969 
L 2906 4863 
L 3481 4863 
L 3481 0 
L 2906 0 
L 2906 525 
Q 2725 213 2448 61 
Q 2172 -91 1784 -91 
Q 1150 -91 751 415 
Q 353 922 353 1747 
Q 353 2572 751 3078 
Q 1150 3584 1784 3584 
Q 2172 3584 2448 3432 
Q 2725 3281 2906 2969 
z
M 947 1747 
Q 947 1113 1208 752 
Q 1469 391 1925 391 
Q 2381 391 2643 752 
Q 2906 1113 2906 1747 
Q 2906 2381 2643 2742 
Q 2381 3103 1925 3103 
Q 1469 3103 1208 2742 
Q 947 2381 947 1747 
z
" transform="scale(0.015625)"/>
      <path id="DejaVuSans-62" d="M 3116 1747 
Q 3116 2381 2855 2742 
Q 2594 3103 2138 3103 
Q 1681 3103 1420 2742 
Q 1159 2381 1159 1747 
Q 1159 1113 1420 752 
Q 1681 391 2138 391 
Q 2594 391 2855 752 
Q 3116 1113 3116 1747 
z
M 1159 2969 
Q 1341 3281 1617 3432 
Q 1894 3584 2278 3584 
Q 2916 3584 3314 3078 
Q 3713 2572 3713 1747 
Q 3713 922 3314 415 
Q 2916 -91 2278 -91 
Q 1894 -91 1617 61 
Q 1341 213 1159 525 
L 1159 0 
L 581 0 
L 581 4863 
L 1159 4863 
L 1159 2969 
z
" transform="scale(0.015625)"/>
      <path id="DejaVuSans-66" d="M 2375 4863 
L 2375 4384 
L 1825 4384 
Q 1516 4384 1395 4259 
Q 1275 4134 1275 3809 
L 1275 3500 
L 2222 3500 
L 2222 3053 
L 1275 3053 
L 1275 0 
L 697 0 
L 697 3053 
L 147 3053 
L 147 3500 
L 697 3500 
L 697 3744 
Q 697 4328 969 4595 
Q 1241 4863 1831 4863 
L 2375 4863 
z
" transform="scale(0.015625)"/>
     </defs>
     <use xlink:href="#DejaVuSans-50"/>
     <use xlink:href="#DejaVuSans-6f" x="56.677734"/>
     <use xlink:href="#DejaVuSans-70" x="117.859375"/>
     <use xlink:href="#DejaVuSans-75" x="181.335938"/>
     <use xlink:href="#DejaVuSans-6c" x="244.714844"/>
     <use xlink:href="#DejaVuSans-61" x="272.498047"/>
     <use xlink:href="#DejaVuSans-74" x="333.777344"/>
     <use xlink:href="#DejaVuSans-69" x="372.986328"/>
     <use xlink:href="#DejaVuSans-6f" x="400.769531"/>
     <use xlink:href="#DejaVuSans-6e" x="461.951172"/>
     <use xlink:href="#DejaVuSans-27" x="525.330078"/>
     <use xlink:href="#DejaVuSans-73" x="552.820312"/>
     <use xlink:href="#DejaVuSans-20" x="604.919922"/>
     <use xlink:href="#DejaVuSans-61" x="636.707031"/>
     <use xlink:href="#DejaVuSans-76" x="697.986328"/>
     <use xlink:href="#DejaVuSans-65" x="757.166016"/>
     <use xlink:href="#DejaVuSans-72" x="818.689453"/>
     <use xlink:href="#DejaVuSans-61" x="859.802734"/>
     <use xlink:href="#DejaVuSans-67" x="921.082031"/>
     <use xlink:href="#DejaVuSans-65" x="984.558594"/>
     <use xlink:href="#DejaVuSans-20" x="1046.082031"/>
     <use xlink:href="#DejaVuSans-61" x="1077.869141"/>
     <use xlink:href="#DejaVuSans-6e" x="1139.148438"/>
     <use xlink:href="#DejaVuSans-64" x="1202.527344"/>
     <use xlink:href="#DejaVuSans-20" x="1266.003906"/>
     <use xlink:href="#DejaVuSans-62" x="1297.791016"/>
     <use xlink:href="#DejaVuSans-65" x="1361.267578"/>
     <use xlink:href="#DejaVuSans-73" x="1422.791016"/>
     <use xlink:href="#DejaVuSans-74" x="1474.890625"/>
     <use xlink:href="#DejaVuSans-20" x="1514.099609"/>
     <use xlink:href="#DejaVuSans-66" x="1545.886719"/>
     <use xlink:href="#DejaVuSans-69" x="1581.091797"/>
     <use xlink:href="#DejaVuSans-74" x="1608.875"/>
     <use xlink:href="#DejaVuSans-6e" x="1648.083984"/>
     <use xlink:href="#DejaVuSans-65" x="1711.462891"/>
     <use xlink:href="#DejaVuSans-73" x="1772.986328"/>
     <use xlink:href="#DejaVuSans-73" x="1825.085938"/>
    </g>
   </g>
   <g id="legend_1">
    <g id="patch_7">
     <path d="M 64.6 108.1845 
L 137.540625 108.1845 
Q 139.540625 108.1845 139.540625 106.1845 
L 139.540625 48.472 
Q 139.540625 46.472 137.540625 46.472 
L 64.6 46.472 
Q 62.6 46.472 62.6 48.472 
L 62.6 106.1845 
Q 62.6 108.1845 64.6 108.1845 
z
" style="fill: #ffffff; opacity: 0.8; stroke: #cccccc; stroke-linejoin: miter"/>
    </g>
    <g id="line2d_39">
     <path d="M 66.6 54.570438 
L 76.6 54.570438 
L 86.6 54.570438 
" style="fill: none; stroke: #0000ff; stroke-width: 1.5; stroke-linecap: square"/>
    </g>
    <g id="text_21">
     <!-- average -->
     <g transform="translate(94.6 58.070438)scale(0.1 -0.1)">
      <use xlink:href="#DejaVuSans-61"/>
      <use xlink:href="#DejaVuSans-76" x="61.279297"/>
      <use xlink:href="#DejaVuSans-65" x="120.458984"/>
      <use xlink:href="#DejaVuSans-72" x="181.982422"/>
      <use xlink:href="#DejaVuSans-61" x="223.095703"/>
      <use xlink:href="#DejaVuSans-67" x="284.375"/>
      <use xlink:href="#DejaVuSans-65" x="347.851562"/>
     </g>
    </g>
    <g id="line2d_40">
     <path d="M 66.6 69.248563 
L 76.6 69.248563 
L 86.6 69.248563 
" style="fill: none; stroke-dasharray: 9.6,2.4,1.5,2.4; stroke-dashoffset: 0; stroke: #008000; stroke-width: 1.5"/>
    </g>
    <g id="text_22">
     <!-- -1 sd -->
     <g transform="translate(94.6 72.748563)scale(0.1 -0.1)">
      <defs>
       <path id="DejaVuSans-2d" d="M 313 2009 
L 1997 2009 
L 1997 1497 
L 313 1497 
L 313 2009 
z
" transform="scale(0.015625)"/>
      </defs>
      <use xlink:href="#DejaVuSans-2d"/>
      <use xlink:href="#DejaVuSans-31" x="36.083984"/>
      <use xlink:href="#DejaVuSans-20" x="99.707031"/>
      <use xlink:href="#DejaVuSans-73" x="131.494141"/>
      <use xlink:href="#DejaVuSans-64" x="183.59375"/>
     </g>
    </g>
    <g id="line2d_41">
     <path d="M 66.6 83.926688 
L 76.6 83.926688 
L 86.6 83.926688 
" style="fill: none; stroke-dasharray: 9.6,2.4,1.5,2.4; stroke-dashoffset: 0; stroke: #008000; stroke-width: 1.5"/>
    </g>
    <g id="text_23">
     <!-- +1 sd -->
     <g transform="translate(94.6 87.426688)scale(0.1 -0.1)">
      <defs>
       <path id="DejaVuSans-2b" d="M 2944 4013 
L 2944 2272 
L 4684 2272 
L 4684 1741 
L 2944 1741 
L 2944 0 
L 2419 0 
L 2419 1741 
L 678 1741 
L 678 2272 
L 2419 2272 
L 2419 4013 
L 2944 4013 
z
" transform="scale(0.015625)"/>
      </defs>
      <use xlink:href="#DejaVuSans-2b"/>
      <use xlink:href="#DejaVuSans-31" x="83.789062"/>
      <use xlink:href="#DejaVuSans-20" x="147.412109"/>
      <use xlink:href="#DejaVuSans-73" x="179.199219"/>
      <use xlink:href="#DejaVuSans-64" x="231.298828"/>
     </g>
    </g>
    <g id="line2d_42">
     <path d="M 66.6 98.604813 
L 76.6 98.604813 
L 86.6 98.604813 
" style="fill: none; stroke: #ff0000; stroke-width: 1.5; stroke-linecap: square"/>
    </g>
    <g id="text_24">
     <!-- best -->
     <g transform="translate(94.6 102.104813)scale(0.1 -0.1)">
      <use xlink:href="#DejaVuSans-62"/>
      <use xlink:href="#DejaVuSans-65" x="63.476562"/>
      <use xlink:href="#DejaVuSans-73" x="125"/>
      <use xlink:href="#DejaVuSans-74" x="177.099609"/>
     </g>
    </g>
   </g>
  </g>
 </g>
 <defs>
  <clipPath id="p0bbc946923">
   <rect x="57.6" y="41.472" width="357.12" height="266.112"/>
  </clipPath>
 </defs>
</svg>
