<?xml version="1.0" encoding="UTF-8" standalone="no"?>
<!DOCTYPE svg PUBLIC "-//W3C//DTD SVG 1.1//EN"
 "http://www.w3.org/Graphics/SVG/1.1/DTD/svg11.dtd">
<!-- Generated by graphviz version 4.0.0 (20220529.0937)
 -->
<!-- Pages: 1 -->
<svg width="2169pt" height="363pt"
 viewBox="0.00 0.00 2168.71 362.84" xmlns="http://www.w3.org/2000/svg" xmlns:xlink="http://www.w3.org/1999/xlink">
<g id="graph0" class="graph" transform="scale(1 1) rotate(0) translate(4 358.84)">
<polygon fill="white" stroke="transparent" points="-4,4 -4,-358.84 2164.71,-358.84 2164.71,4 -4,4"/>
<!-- GHOST1 X -->
<g id="node1" class="node">
<title>GHOST1 X</title>
<ellipse fill="lightcoral" stroke="black" cx="43.13" cy="-294.03" rx="43.27" ry="43.27"/>
<text text-anchor="middle" x="43.13" y="-291.83" font-family="Times New Roman,serif" font-size="9.00">GHOST1 X</text>
</g>
<!-- GHOST1 Y -->
<g id="node2" class="node">
<title>GHOST1 Y</title>
<ellipse fill="lightcoral" stroke="black" cx="147.13" cy="-294.03" rx="42.35" ry="42.35"/>
<text text-anchor="middle" x="147.13" y="-291.83" font-family="Times New Roman,serif" font-size="9.00">GHOST1 Y</text>
</g>
<!-- GHOST2 X -->
<g id="node3" class="node">
<title>GHOST2 X</title>
<ellipse fill="lightcoral" stroke="black" cx="251.13" cy="-294.03" rx="43.27" ry="43.27"/>
<text text-anchor="middle" x="251.13" y="-291.83" font-family="Times New Roman,serif" font-size="9.00">GHOST2 X</text>
</g>
<!-- GHOST2 Y -->
<g id="node4" class="node">
<title>GHOST2 Y</title>
<ellipse fill="lightcoral" stroke="black" cx="91.13" cy="-148.43" rx="42.35" ry="42.35"/>
<text text-anchor="middle" x="91.13" y="-146.23" font-family="Times New Roman,serif" font-size="9.00">GHOST2 Y</text>
</g>
<!-- UP -->
<g id="node26" class="node">
<title>UP</title>
<ellipse fill="lightblue" stroke="black" cx="91.13" cy="-31.82" rx="20.51" ry="20.51"/>
<text text-anchor="middle" x="91.13" y="-29.62" font-family="Times New Roman,serif" font-size="9.00">UP</text>
</g>
<!-- GHOST2 Y&#45;&gt;UP -->
<g id="edge2" class="edge">
<title>GHOST2 Y&#45;&gt;UP</title>
<path fill="none" stroke="green" stroke-width="0.35" d="M91.13,-105.73C91.13,-87.55 91.13,-67.11 91.13,-52.5"/>
</g>
<!-- LEFT -->
<g id="node29" class="node">
<title>LEFT</title>
<ellipse fill="lightblue" stroke="black" cx="282.13" cy="-31.82" rx="26.74" ry="26.74"/>
<text text-anchor="middle" x="282.13" y="-29.62" font-family="Times New Roman,serif" font-size="9.00">LEFT</text>
</g>
<!-- GHOST2 Y&#45;&gt;LEFT -->
<g id="edge8" class="edge">
<title>GHOST2 Y&#45;&gt;LEFT</title>
<path fill="none" stroke="red" stroke-width="0.29" d="M120.67,-117.53C127.7,-111.2 135.42,-104.87 143.13,-99.64 180.26,-74.48 228.31,-53.64 257.09,-42.23"/>
</g>
<!-- GHOST3 X -->
<g id="node5" class="node">
<title>GHOST3 X</title>
<ellipse fill="lightcoral" stroke="black" cx="500.13" cy="-294.03" rx="43.27" ry="43.27"/>
<text text-anchor="middle" x="500.13" y="-291.83" font-family="Times New Roman,serif" font-size="9.00">GHOST3 X</text>
</g>
<!-- GHOST3 Y -->
<g id="node6" class="node">
<title>GHOST3 Y</title>
<ellipse fill="lightcoral" stroke="black" cx="194.13" cy="-148.43" rx="42.35" ry="42.35"/>
<text text-anchor="middle" x="194.13" y="-146.23" font-family="Times New Roman,serif" font-size="9.00">GHOST3 Y</text>
</g>
<!-- GHOST3 Y&#45;&gt;LEFT -->
<g id="edge3" class="edge">
<title>GHOST3 Y&#45;&gt;LEFT</title>
<path fill="none" stroke="green" stroke-width="0.54" d="M219.59,-114.28C234.61,-94.71 253.17,-70.54 266.15,-53.63"/>
</g>
<!-- GHOST4 X -->
<g id="node7" class="node">
<title>GHOST4 X</title>
<ellipse fill="lightcoral" stroke="black" cx="517.13" cy="-148.43" rx="43.27" ry="43.27"/>
<text text-anchor="middle" x="517.13" y="-146.23" font-family="Times New Roman,serif" font-size="9.00">GHOST4 X</text>
</g>
<!-- 21965 -->
<g id="node33" class="node">
<title>21965</title>
<ellipse fill="lightgreen" stroke="black" cx="634.13" cy="-31.82" rx="27.65" ry="27.65"/>
<text text-anchor="middle" x="634.13" y="-29.62" font-family="Times New Roman,serif" font-size="9.00">21965</text>
</g>
<!-- GHOST4 X&#45;&gt;21965 -->
<g id="edge5" class="edge">
<title>GHOST4 X&#45;&gt;21965</title>
<path fill="none" stroke="green" stroke-width="1.17" d="M547.57,-117.62C568.83,-96.79 596.57,-69.62 614.85,-51.71"/>
</g>
<!-- GHOST4 Y -->
<g id="node8" class="node">
<title>GHOST4 Y</title>
<ellipse fill="lightcoral" stroke="black" cx="755.13" cy="-294.03" rx="42.35" ry="42.35"/>
<text text-anchor="middle" x="755.13" y="-291.83" font-family="Times New Roman,serif" font-size="9.00">GHOST4 Y</text>
</g>
<!-- GHOST5 X -->
<g id="node9" class="node">
<title>GHOST5 X</title>
<ellipse fill="lightcoral" stroke="black" cx="355.13" cy="-294.03" rx="43.27" ry="43.27"/>
<text text-anchor="middle" x="355.13" y="-291.83" font-family="Times New Roman,serif" font-size="9.00">GHOST5 X</text>
</g>
<!-- 23575 -->
<g id="node34" class="node">
<title>23575</title>
<ellipse fill="lightgreen" stroke="black" cx="355.13" cy="-148.43" rx="27.65" ry="27.65"/>
<text text-anchor="middle" x="355.13" y="-146.23" font-family="Times New Roman,serif" font-size="9.00">23575</text>
</g>
<!-- GHOST5 X&#45;&gt;23575 -->
<g id="edge13" class="edge">
<title>GHOST5 X&#45;&gt;23575</title>
<path fill="none" stroke="green" stroke-width="0.54" d="M355.13,-250.72C355.13,-226.57 355.13,-197.02 355.13,-176.08"/>
</g>
<!-- GHOST5 Y -->
<g id="node10" class="node">
<title>GHOST5 Y</title>
<ellipse fill="lightcoral" stroke="black" cx="858.13" cy="-294.03" rx="42.35" ry="42.35"/>
<text text-anchor="middle" x="858.13" y="-291.83" font-family="Times New Roman,serif" font-size="9.00">GHOST5 Y</text>
</g>
<!-- GHOST6 X -->
<g id="node11" class="node">
<title>GHOST6 X</title>
<ellipse fill="lightcoral" stroke="black" cx="962.13" cy="-294.03" rx="43.27" ry="43.27"/>
<text text-anchor="middle" x="962.13" y="-291.83" font-family="Times New Roman,serif" font-size="9.00">GHOST6 X</text>
</g>
<!-- GHOST6 Y -->
<g id="node12" class="node">
<title>GHOST6 Y</title>
<ellipse fill="lightcoral" stroke="black" cx="1066.13" cy="-294.03" rx="42.35" ry="42.35"/>
<text text-anchor="middle" x="1066.13" y="-291.83" font-family="Times New Roman,serif" font-size="9.00">GHOST6 Y</text>
</g>
<!-- 23813 -->
<g id="node31" class="node">
<title>23813</title>
<ellipse fill="lightgreen" stroke="black" cx="1066.13" cy="-148.43" rx="27.65" ry="27.65"/>
<text text-anchor="middle" x="1066.13" y="-146.23" font-family="Times New Roman,serif" font-size="9.00">23813</text>
</g>
<!-- GHOST6 Y&#45;&gt;23813 -->
<g id="edge15" class="edge">
<title>GHOST6 Y&#45;&gt;23813</title>
<path fill="none" stroke="green" stroke-width="0.28" d="M1066.13,-251.5C1066.13,-227.31 1066.13,-197.51 1066.13,-176.37"/>
</g>
<!-- GHOST7 X -->
<g id="node13" class="node">
<title>GHOST7 X</title>
<ellipse fill="lightcoral" stroke="black" cx="1170.13" cy="-294.03" rx="43.27" ry="43.27"/>
<text text-anchor="middle" x="1170.13" y="-291.83" font-family="Times New Roman,serif" font-size="9.00">GHOST7 X</text>
</g>
<!-- GHOST7 Y -->
<g id="node14" class="node">
<title>GHOST7 Y</title>
<ellipse fill="lightcoral" stroke="black" cx="1274.13" cy="-294.03" rx="42.35" ry="42.35"/>
<text text-anchor="middle" x="1274.13" y="-291.83" font-family="Times New Roman,serif" font-size="9.00">GHOST7 Y</text>
</g>
<!-- GHOST8 X -->
<g id="node15" class="node">
<title>GHOST8 X</title>
<ellipse fill="lightcoral" stroke="black" cx="1378.13" cy="-294.03" rx="43.27" ry="43.27"/>
<text text-anchor="middle" x="1378.13" y="-291.83" font-family="Times New Roman,serif" font-size="9.00">GHOST8 X</text>
</g>
<!-- GHOST8 Y -->
<g id="node16" class="node">
<title>GHOST8 Y</title>
<ellipse fill="lightcoral" stroke="black" cx="1482.13" cy="-294.03" rx="42.35" ry="42.35"/>
<text text-anchor="middle" x="1482.13" y="-291.83" font-family="Times New Roman,serif" font-size="9.00">GHOST8 Y</text>
</g>
<!-- PACMAN X -->
<g id="node17" class="node">
<title>PACMAN X</title>
<ellipse fill="lightcoral" stroke="black" cx="1589.13" cy="-294.03" rx="46.84" ry="46.84"/>
<text text-anchor="middle" x="1589.13" y="-291.83" font-family="Times New Roman,serif" font-size="9.00">PACMAN X</text>
</g>
<!-- PACMAN Y -->
<g id="node18" class="node">
<title>PACMAN Y</title>
<ellipse fill="lightcoral" stroke="black" cx="1700.13" cy="-294.03" rx="45.92" ry="45.92"/>
<text text-anchor="middle" x="1700.13" y="-291.83" font-family="Times New Roman,serif" font-size="9.00">PACMAN Y</text>
</g>
<!-- ND X -->
<g id="node19" class="node">
<title>ND X</title>
<ellipse fill="lightcoral" stroke="black" cx="282.13" cy="-148.43" rx="27.65" ry="27.65"/>
<text text-anchor="middle" x="282.13" y="-146.23" font-family="Times New Roman,serif" font-size="9.00">ND X</text>
</g>
<!-- ND X&#45;&gt;LEFT -->
<g id="edge6" class="edge">
<title>ND X&#45;&gt;LEFT</title>
<path fill="none" stroke="red" stroke-width="0.21" d="M282.13,-120.85C282.13,-102.2 282.13,-77.39 282.13,-58.86"/>
</g>
<!-- ND Y -->
<g id="node20" class="node">
<title>ND Y</title>
<ellipse fill="lightcoral" stroke="black" cx="1791.13" cy="-294.03" rx="26.74" ry="26.74"/>
<text text-anchor="middle" x="1791.13" y="-291.83" font-family="Times New Roman,serif" font-size="9.00">ND Y</text>
</g>
<!-- IN_INTERS -->
<g id="node21" class="node">
<title>IN_INTERS</title>
<ellipse fill="lightcoral" stroke="black" cx="850.13" cy="-148.43" rx="43.68" ry="43.68"/>
<text text-anchor="middle" x="850.13" y="-146.23" font-family="Times New Roman,serif" font-size="9.00">IN_INTERS</text>
</g>
<!-- RIGHT -->
<g id="node28" class="node">
<title>RIGHT</title>
<ellipse fill="lightblue" stroke="black" cx="794.13" cy="-31.82" rx="31.64" ry="31.64"/>
<text text-anchor="middle" x="794.13" y="-29.62" font-family="Times New Roman,serif" font-size="9.00">RIGHT</text>
</g>
<!-- IN_INTERS&#45;&gt;RIGHT -->
<g id="edge1" class="edge">
<title>IN_INTERS&#45;&gt;RIGHT</title>
<path fill="none" stroke="green" stroke-width="1.59" d="M831.17,-108.63C823.5,-92.91 814.8,-75.12 807.77,-60.72"/>
</g>
<!-- MOVING UP -->
<g id="node22" class="node">
<title>MOVING UP</title>
<ellipse fill="lightcoral" stroke="black" cx="739.13" cy="-148.43" rx="48.58" ry="48.58"/>
<text text-anchor="middle" x="739.13" y="-146.23" font-family="Times New Roman,serif" font-size="9.00">MOVING UP</text>
</g>
<!-- MOVING UP&#45;&gt;RIGHT -->
<g id="edge4" class="edge">
<title>MOVING UP&#45;&gt;RIGHT</title>
<path fill="none" stroke="green" stroke-width="0.15" d="M759.93,-104.1C766.86,-89.65 774.4,-73.93 780.64,-60.94"/>
</g>
<!-- MOVING UP&#45;&gt;21965 -->
<g id="edge10" class="edge">
<title>MOVING UP&#45;&gt;21965</title>
<path fill="none" stroke="green" stroke-width="0.39" d="M706.49,-111.79C688.67,-92.34 667.27,-68.99 652.39,-52.74"/>
</g>
<!-- MOVING DOWN -->
<g id="node23" class="node">
<title>MOVING DOWN</title>
<ellipse fill="lightcoral" stroke="black" cx="1897.13" cy="-294.03" rx="60.62" ry="60.62"/>
<text text-anchor="middle" x="1897.13" y="-291.83" font-family="Times New Roman,serif" font-size="9.00">MOVING DOWN</text>
</g>
<!-- MOVING RIGHT -->
<g id="node24" class="node">
<title>MOVING RIGHT</title>
<ellipse fill="lightcoral" stroke="black" cx="634.13" cy="-294.03" rx="60.62" ry="60.62"/>
<text text-anchor="middle" x="634.13" y="-291.83" font-family="Times New Roman,serif" font-size="9.00">MOVING RIGHT</text>
</g>
<!-- 23491 -->
<g id="node30" class="node">
<title>23491</title>
<ellipse fill="lightgreen" stroke="black" cx="606.13" cy="-148.43" rx="27.65" ry="27.65"/>
<text text-anchor="middle" x="606.13" y="-146.23" font-family="Times New Roman,serif" font-size="9.00">23491</text>
</g>
<!-- MOVING RIGHT&#45;&gt;23491 -->
<g id="edge11" class="edge">
<title>MOVING RIGHT&#45;&gt;23491</title>
<path fill="none" stroke="green" stroke-width="0.22" d="M622.66,-234.21C618.71,-213.92 614.47,-192.19 611.28,-175.81"/>
</g>
<!-- MOVING RIGHT&#45;&gt;21965 -->
<g id="edge9" class="edge">
<title>MOVING RIGHT&#45;&gt;21965</title>
<path fill="none" stroke="green" stroke-width="0.47" d="M640.59,-233.55C641.65,-221.54 642.58,-208.99 643.13,-197.22 645.16,-153.9 646.03,-142.91 643.13,-99.64 642.23,-86.21 640.33,-71.36 638.5,-59.08"/>
</g>
<!-- MOVING LEFT -->
<g id="node25" class="node">
<title>MOVING LEFT</title>
<ellipse fill="lightcoral" stroke="black" cx="2032.13" cy="-294.03" rx="55.72" ry="55.72"/>
<text text-anchor="middle" x="2032.13" y="-291.83" font-family="Times New Roman,serif" font-size="9.00">MOVING LEFT</text>
</g>
<!-- DOWN -->
<g id="node27" class="node">
<title>DOWN</title>
<ellipse fill="lightblue" stroke="black" cx="1066.13" cy="-31.82" rx="31.64" ry="31.64"/>
<text text-anchor="middle" x="1066.13" y="-29.62" font-family="Times New Roman,serif" font-size="9.00">DOWN</text>
</g>
<!-- 23491&#45;&gt;21965 -->
<g id="edge12" class="edge">
<title>23491&#45;&gt;21965</title>
<path fill="none" stroke="red" stroke-width="0.28" d="M612.49,-121.42C617.07,-102.67 623.23,-77.46 627.81,-58.72"/>
</g>
<!-- 23813&#45;&gt;DOWN -->
<g id="edge16" class="edge">
<title>23813&#45;&gt;DOWN</title>
<path fill="none" stroke="red" stroke-width="0.39" d="M1066.13,-120.85C1066.13,-103.79 1066.13,-81.57 1066.13,-63.72"/>
</g>
<!-- 22538 -->
<g id="node32" class="node">
<title>22538</title>
<ellipse fill="lightgreen" stroke="black" cx="2133.13" cy="-294.03" rx="27.65" ry="27.65"/>
<text text-anchor="middle" x="2133.13" y="-291.83" font-family="Times New Roman,serif" font-size="9.00">22538</text>
</g>
<!-- 23575&#45;&gt;LEFT -->
<g id="edge14" class="edge">
<title>23575&#45;&gt;LEFT</title>
<path fill="none" stroke="green" stroke-width="0.17" d="M340.71,-124.79C327.83,-104.56 309.07,-75.11 296.28,-55.03"/>
</g>
<!-- 23131 -->
<g id="node35" class="node">
<title>23131</title>
<ellipse fill="lightgreen" stroke="black" cx="428.13" cy="-148.43" rx="27.65" ry="27.65"/>
<text text-anchor="middle" x="428.13" y="-146.23" font-family="Times New Roman,serif" font-size="9.00">23131</text>
</g>
<!-- 23131&#45;&gt;LEFT -->
<g id="edge7" class="edge">
<title>23131&#45;&gt;LEFT</title>
<path fill="none" stroke="green" stroke-width="0.15" d="M413.6,-124.56C407.59,-116.13 400.14,-106.89 392.13,-99.64 365.79,-75.8 329.74,-55.8 306.2,-44.06"/>
</g>
</g>
</svg>
