<?xml version="1.0" encoding="utf-8" standalone="no"?>
<!DOCTYPE svg PUBLIC "-//W3C//DTD SVG 1.1//EN"
  "http://www.w3.org/Graphics/SVG/1.1/DTD/svg11.dtd">
<svg xmlns:xlink="http://www.w3.org/1999/xlink" width="460.8pt" height="345.6pt" viewBox="0 0 460.8 345.6" xmlns="http://www.w3.org/2000/svg" version="1.1">
 <metadata>
  <rdf:RDF xmlns:dc="http://purl.org/dc/elements/1.1/" xmlns:cc="http://creativecommons.org/ns#" xmlns:rdf="http://www.w3.org/1999/02/22-rdf-syntax-ns#">
   <cc:Work>
    <dc:type rdf:resource="http://purl.org/dc/dcmitype/StillImage"/>
    <dc:date>2022-07-30T21:27:29.452421</dc:date>
    <dc:format>image/svg+xml</dc:format>
    <dc:creator>
     <cc:Agent>
      <dc:title>Matplotlib v3.5.2, https://matplotlib.org/</dc:title>
     </cc:Agent>
    </dc:creator>
   </cc:Work>
  </rdf:RDF>
 </metadata>
 <defs>
  <style type="text/css">*{stroke-linejoin: round; stroke-linecap: butt}</style>
 </defs>
 <g id="figure_1">
  <g id="patch_1">
   <path d="M 0 345.6 
L 460.8 345.6 
L 460.8 0 
L 0 0 
z
" style="fill: #ffffff"/>
  </g>
  <g id="axes_1">
   <g id="patch_2">
    <path d="M 57.6 307.584 
L 414.72 307.584 
L 414.72 41.472 
L 57.6 41.472 
z
" style="fill: #ffffff"/>
   </g>
   <g id="matplotlib.axis_1">
    <g id="xtick_1">
     <g id="line2d_1">
      <path d="M 73.832727 307.584 
L 73.832727 41.472 
" clip-path="url(#pf6d63b0228)" style="fill: none; stroke: #b0b0b0; stroke-width: 0.8; stroke-linecap: square"/>
     </g>
     <g id="line2d_2">
      <defs>
       <path id="m95cfc493ae" d="M 0 0 
L 0 3.5 
" style="stroke: #000000; stroke-width: 0.8"/>
      </defs>
      <g>
       <use xlink:href="#m95cfc493ae" x="73.832727" y="307.584" style="stroke: #000000; stroke-width: 0.8"/>
      </g>
     </g>
     <g id="text_1">
      <!-- 0 -->
      <g transform="translate(70.651477 322.182437)scale(0.1 -0.1)">
       <defs>
        <path id="DejaVuSans-30" d="M 2034 4250 
Q 1547 4250 1301 3770 
Q 1056 3291 1056 2328 
Q 1056 1369 1301 889 
Q 1547 409 2034 409 
Q 2525 409 2770 889 
Q 3016 1369 3016 2328 
Q 3016 3291 2770 3770 
Q 2525 4250 2034 4250 
z
M 2034 4750 
Q 2819 4750 3233 4129 
Q 3647 3509 3647 2328 
Q 3647 1150 3233 529 
Q 2819 -91 2034 -91 
Q 1250 -91 836 529 
Q 422 1150 422 2328 
Q 422 3509 836 4129 
Q 1250 4750 2034 4750 
z
" transform="scale(0.015625)"/>
       </defs>
       <use xlink:href="#DejaVuSans-30"/>
      </g>
     </g>
    </g>
    <g id="xtick_2">
     <g id="line2d_3">
      <path d="M 114.618474 307.584 
L 114.618474 41.472 
" clip-path="url(#pf6d63b0228)" style="fill: none; stroke: #b0b0b0; stroke-width: 0.8; stroke-linecap: square"/>
     </g>
     <g id="line2d_4">
      <g>
       <use xlink:href="#m95cfc493ae" x="114.618474" y="307.584" style="stroke: #000000; stroke-width: 0.8"/>
      </g>
     </g>
     <g id="text_2">
      <!-- 25 -->
      <g transform="translate(108.255974 322.182437)scale(0.1 -0.1)">
       <defs>
        <path id="DejaVuSans-32" d="M 1228 531 
L 3431 531 
L 3431 0 
L 469 0 
L 469 531 
Q 828 903 1448 1529 
Q 2069 2156 2228 2338 
Q 2531 2678 2651 2914 
Q 2772 3150 2772 3378 
Q 2772 3750 2511 3984 
Q 2250 4219 1831 4219 
Q 1534 4219 1204 4116 
Q 875 4013 500 3803 
L 500 4441 
Q 881 4594 1212 4672 
Q 1544 4750 1819 4750 
Q 2544 4750 2975 4387 
Q 3406 4025 3406 3419 
Q 3406 3131 3298 2873 
Q 3191 2616 2906 2266 
Q 2828 2175 2409 1742 
Q 1991 1309 1228 531 
z
" transform="scale(0.015625)"/>
        <path id="DejaVuSans-35" d="M 691 4666 
L 3169 4666 
L 3169 4134 
L 1269 4134 
L 1269 2991 
Q 1406 3038 1543 3061 
Q 1681 3084 1819 3084 
Q 2600 3084 3056 2656 
Q 3513 2228 3513 1497 
Q 3513 744 3044 326 
Q 2575 -91 1722 -91 
Q 1428 -91 1123 -41 
Q 819 9 494 109 
L 494 744 
Q 775 591 1075 516 
Q 1375 441 1709 441 
Q 2250 441 2565 725 
Q 2881 1009 2881 1497 
Q 2881 1984 2565 2268 
Q 2250 2553 1709 2553 
Q 1456 2553 1204 2497 
Q 953 2441 691 2322 
L 691 4666 
z
" transform="scale(0.015625)"/>
       </defs>
       <use xlink:href="#DejaVuSans-32"/>
       <use xlink:href="#DejaVuSans-35" x="63.623047"/>
      </g>
     </g>
    </g>
    <g id="xtick_3">
     <g id="line2d_5">
      <path d="M 155.404221 307.584 
L 155.404221 41.472 
" clip-path="url(#pf6d63b0228)" style="fill: none; stroke: #b0b0b0; stroke-width: 0.8; stroke-linecap: square"/>
     </g>
     <g id="line2d_6">
      <g>
       <use xlink:href="#m95cfc493ae" x="155.404221" y="307.584" style="stroke: #000000; stroke-width: 0.8"/>
      </g>
     </g>
     <g id="text_3">
      <!-- 50 -->
      <g transform="translate(149.041721 322.182437)scale(0.1 -0.1)">
       <use xlink:href="#DejaVuSans-35"/>
       <use xlink:href="#DejaVuSans-30" x="63.623047"/>
      </g>
     </g>
    </g>
    <g id="xtick_4">
     <g id="line2d_7">
      <path d="M 196.189968 307.584 
L 196.189968 41.472 
" clip-path="url(#pf6d63b0228)" style="fill: none; stroke: #b0b0b0; stroke-width: 0.8; stroke-linecap: square"/>
     </g>
     <g id="line2d_8">
      <g>
       <use xlink:href="#m95cfc493ae" x="196.189968" y="307.584" style="stroke: #000000; stroke-width: 0.8"/>
      </g>
     </g>
     <g id="text_4">
      <!-- 75 -->
      <g transform="translate(189.827468 322.182437)scale(0.1 -0.1)">
       <defs>
        <path id="DejaVuSans-37" d="M 525 4666 
L 3525 4666 
L 3525 4397 
L 1831 0 
L 1172 0 
L 2766 4134 
L 525 4134 
L 525 4666 
z
" transform="scale(0.015625)"/>
       </defs>
       <use xlink:href="#DejaVuSans-37"/>
       <use xlink:href="#DejaVuSans-35" x="63.623047"/>
      </g>
     </g>
    </g>
    <g id="xtick_5">
     <g id="line2d_9">
      <path d="M 236.975715 307.584 
L 236.975715 41.472 
" clip-path="url(#pf6d63b0228)" style="fill: none; stroke: #b0b0b0; stroke-width: 0.8; stroke-linecap: square"/>
     </g>
     <g id="line2d_10">
      <g>
       <use xlink:href="#m95cfc493ae" x="236.975715" y="307.584" style="stroke: #000000; stroke-width: 0.8"/>
      </g>
     </g>
     <g id="text_5">
      <!-- 100 -->
      <g transform="translate(227.431965 322.182437)scale(0.1 -0.1)">
       <defs>
        <path id="DejaVuSans-31" d="M 794 531 
L 1825 531 
L 1825 4091 
L 703 3866 
L 703 4441 
L 1819 4666 
L 2450 4666 
L 2450 531 
L 3481 531 
L 3481 0 
L 794 0 
L 794 531 
z
" transform="scale(0.015625)"/>
       </defs>
       <use xlink:href="#DejaVuSans-31"/>
       <use xlink:href="#DejaVuSans-30" x="63.623047"/>
       <use xlink:href="#DejaVuSans-30" x="127.246094"/>
      </g>
     </g>
    </g>
    <g id="xtick_6">
     <g id="line2d_11">
      <path d="M 277.761462 307.584 
L 277.761462 41.472 
" clip-path="url(#pf6d63b0228)" style="fill: none; stroke: #b0b0b0; stroke-width: 0.8; stroke-linecap: square"/>
     </g>
     <g id="line2d_12">
      <g>
       <use xlink:href="#m95cfc493ae" x="277.761462" y="307.584" style="stroke: #000000; stroke-width: 0.8"/>
      </g>
     </g>
     <g id="text_6">
      <!-- 125 -->
      <g transform="translate(268.217712 322.182437)scale(0.1 -0.1)">
       <use xlink:href="#DejaVuSans-31"/>
       <use xlink:href="#DejaVuSans-32" x="63.623047"/>
       <use xlink:href="#DejaVuSans-35" x="127.246094"/>
      </g>
     </g>
    </g>
    <g id="xtick_7">
     <g id="line2d_13">
      <path d="M 318.547209 307.584 
L 318.547209 41.472 
" clip-path="url(#pf6d63b0228)" style="fill: none; stroke: #b0b0b0; stroke-width: 0.8; stroke-linecap: square"/>
     </g>
     <g id="line2d_14">
      <g>
       <use xlink:href="#m95cfc493ae" x="318.547209" y="307.584" style="stroke: #000000; stroke-width: 0.8"/>
      </g>
     </g>
     <g id="text_7">
      <!-- 150 -->
      <g transform="translate(309.003459 322.182437)scale(0.1 -0.1)">
       <use xlink:href="#DejaVuSans-31"/>
       <use xlink:href="#DejaVuSans-35" x="63.623047"/>
       <use xlink:href="#DejaVuSans-30" x="127.246094"/>
      </g>
     </g>
    </g>
    <g id="xtick_8">
     <g id="line2d_15">
      <path d="M 359.332956 307.584 
L 359.332956 41.472 
" clip-path="url(#pf6d63b0228)" style="fill: none; stroke: #b0b0b0; stroke-width: 0.8; stroke-linecap: square"/>
     </g>
     <g id="line2d_16">
      <g>
       <use xlink:href="#m95cfc493ae" x="359.332956" y="307.584" style="stroke: #000000; stroke-width: 0.8"/>
      </g>
     </g>
     <g id="text_8">
      <!-- 175 -->
      <g transform="translate(349.789206 322.182437)scale(0.1 -0.1)">
       <use xlink:href="#DejaVuSans-31"/>
       <use xlink:href="#DejaVuSans-37" x="63.623047"/>
       <use xlink:href="#DejaVuSans-35" x="127.246094"/>
      </g>
     </g>
    </g>
    <g id="xtick_9">
     <g id="line2d_17">
      <path d="M 400.118703 307.584 
L 400.118703 41.472 
" clip-path="url(#pf6d63b0228)" style="fill: none; stroke: #b0b0b0; stroke-width: 0.8; stroke-linecap: square"/>
     </g>
     <g id="line2d_18">
      <g>
       <use xlink:href="#m95cfc493ae" x="400.118703" y="307.584" style="stroke: #000000; stroke-width: 0.8"/>
      </g>
     </g>
     <g id="text_9">
      <!-- 200 -->
      <g transform="translate(390.574953 322.182437)scale(0.1 -0.1)">
       <use xlink:href="#DejaVuSans-32"/>
       <use xlink:href="#DejaVuSans-30" x="63.623047"/>
       <use xlink:href="#DejaVuSans-30" x="127.246094"/>
      </g>
     </g>
    </g>
    <g id="text_10">
     <!-- Generations -->
     <g transform="translate(205.662344 335.860562)scale(0.1 -0.1)">
      <defs>
       <path id="DejaVuSans-47" d="M 3809 666 
L 3809 1919 
L 2778 1919 
L 2778 2438 
L 4434 2438 
L 4434 434 
Q 4069 175 3628 42 
Q 3188 -91 2688 -91 
Q 1594 -91 976 548 
Q 359 1188 359 2328 
Q 359 3472 976 4111 
Q 1594 4750 2688 4750 
Q 3144 4750 3555 4637 
Q 3966 4525 4313 4306 
L 4313 3634 
Q 3963 3931 3569 4081 
Q 3175 4231 2741 4231 
Q 1884 4231 1454 3753 
Q 1025 3275 1025 2328 
Q 1025 1384 1454 906 
Q 1884 428 2741 428 
Q 3075 428 3337 486 
Q 3600 544 3809 666 
z
" transform="scale(0.015625)"/>
       <path id="DejaVuSans-65" d="M 3597 1894 
L 3597 1613 
L 953 1613 
Q 991 1019 1311 708 
Q 1631 397 2203 397 
Q 2534 397 2845 478 
Q 3156 559 3463 722 
L 3463 178 
Q 3153 47 2828 -22 
Q 2503 -91 2169 -91 
Q 1331 -91 842 396 
Q 353 884 353 1716 
Q 353 2575 817 3079 
Q 1281 3584 2069 3584 
Q 2775 3584 3186 3129 
Q 3597 2675 3597 1894 
z
M 3022 2063 
Q 3016 2534 2758 2815 
Q 2500 3097 2075 3097 
Q 1594 3097 1305 2825 
Q 1016 2553 972 2059 
L 3022 2063 
z
" transform="scale(0.015625)"/>
       <path id="DejaVuSans-6e" d="M 3513 2113 
L 3513 0 
L 2938 0 
L 2938 2094 
Q 2938 2591 2744 2837 
Q 2550 3084 2163 3084 
Q 1697 3084 1428 2787 
Q 1159 2491 1159 1978 
L 1159 0 
L 581 0 
L 581 3500 
L 1159 3500 
L 1159 2956 
Q 1366 3272 1645 3428 
Q 1925 3584 2291 3584 
Q 2894 3584 3203 3211 
Q 3513 2838 3513 2113 
z
" transform="scale(0.015625)"/>
       <path id="DejaVuSans-72" d="M 2631 2963 
Q 2534 3019 2420 3045 
Q 2306 3072 2169 3072 
Q 1681 3072 1420 2755 
Q 1159 2438 1159 1844 
L 1159 0 
L 581 0 
L 581 3500 
L 1159 3500 
L 1159 2956 
Q 1341 3275 1631 3429 
Q 1922 3584 2338 3584 
Q 2397 3584 2469 3576 
Q 2541 3569 2628 3553 
L 2631 2963 
z
" transform="scale(0.015625)"/>
       <path id="DejaVuSans-61" d="M 2194 1759 
Q 1497 1759 1228 1600 
Q 959 1441 959 1056 
Q 959 750 1161 570 
Q 1363 391 1709 391 
Q 2188 391 2477 730 
Q 2766 1069 2766 1631 
L 2766 1759 
L 2194 1759 
z
M 3341 1997 
L 3341 0 
L 2766 0 
L 2766 531 
Q 2569 213 2275 61 
Q 1981 -91 1556 -91 
Q 1019 -91 701 211 
Q 384 513 384 1019 
Q 384 1609 779 1909 
Q 1175 2209 1959 2209 
L 2766 2209 
L 2766 2266 
Q 2766 2663 2505 2880 
Q 2244 3097 1772 3097 
Q 1472 3097 1187 3025 
Q 903 2953 641 2809 
L 641 3341 
Q 956 3463 1253 3523 
Q 1550 3584 1831 3584 
Q 2591 3584 2966 3190 
Q 3341 2797 3341 1997 
z
" transform="scale(0.015625)"/>
       <path id="DejaVuSans-74" d="M 1172 4494 
L 1172 3500 
L 2356 3500 
L 2356 3053 
L 1172 3053 
L 1172 1153 
Q 1172 725 1289 603 
Q 1406 481 1766 481 
L 2356 481 
L 2356 0 
L 1766 0 
Q 1100 0 847 248 
Q 594 497 594 1153 
L 594 3053 
L 172 3053 
L 172 3500 
L 594 3500 
L 594 4494 
L 1172 4494 
z
" transform="scale(0.015625)"/>
       <path id="DejaVuSans-69" d="M 603 3500 
L 1178 3500 
L 1178 0 
L 603 0 
L 603 3500 
z
M 603 4863 
L 1178 4863 
L 1178 4134 
L 603 4134 
L 603 4863 
z
" transform="scale(0.015625)"/>
       <path id="DejaVuSans-6f" d="M 1959 3097 
Q 1497 3097 1228 2736 
Q 959 2375 959 1747 
Q 959 1119 1226 758 
Q 1494 397 1959 397 
Q 2419 397 2687 759 
Q 2956 1122 2956 1747 
Q 2956 2369 2687 2733 
Q 2419 3097 1959 3097 
z
M 1959 3584 
Q 2709 3584 3137 3096 
Q 3566 2609 3566 1747 
Q 3566 888 3137 398 
Q 2709 -91 1959 -91 
Q 1206 -91 779 398 
Q 353 888 353 1747 
Q 353 2609 779 3096 
Q 1206 3584 1959 3584 
z
" transform="scale(0.015625)"/>
       <path id="DejaVuSans-73" d="M 2834 3397 
L 2834 2853 
Q 2591 2978 2328 3040 
Q 2066 3103 1784 3103 
Q 1356 3103 1142 2972 
Q 928 2841 928 2578 
Q 928 2378 1081 2264 
Q 1234 2150 1697 2047 
L 1894 2003 
Q 2506 1872 2764 1633 
Q 3022 1394 3022 966 
Q 3022 478 2636 193 
Q 2250 -91 1575 -91 
Q 1294 -91 989 -36 
Q 684 19 347 128 
L 347 722 
Q 666 556 975 473 
Q 1284 391 1588 391 
Q 1994 391 2212 530 
Q 2431 669 2431 922 
Q 2431 1156 2273 1281 
Q 2116 1406 1581 1522 
L 1381 1569 
Q 847 1681 609 1914 
Q 372 2147 372 2553 
Q 372 3047 722 3315 
Q 1072 3584 1716 3584 
Q 2034 3584 2315 3537 
Q 2597 3491 2834 3397 
z
" transform="scale(0.015625)"/>
      </defs>
      <use xlink:href="#DejaVuSans-47"/>
      <use xlink:href="#DejaVuSans-65" x="77.490234"/>
      <use xlink:href="#DejaVuSans-6e" x="139.013672"/>
      <use xlink:href="#DejaVuSans-65" x="202.392578"/>
      <use xlink:href="#DejaVuSans-72" x="263.916016"/>
      <use xlink:href="#DejaVuSans-61" x="305.029297"/>
      <use xlink:href="#DejaVuSans-74" x="366.308594"/>
      <use xlink:href="#DejaVuSans-69" x="405.517578"/>
      <use xlink:href="#DejaVuSans-6f" x="433.300781"/>
      <use xlink:href="#DejaVuSans-6e" x="494.482422"/>
      <use xlink:href="#DejaVuSans-73" x="557.861328"/>
     </g>
    </g>
   </g>
   <g id="matplotlib.axis_2">
    <g id="ytick_1">
     <g id="line2d_19">
      <path d="M 57.6 293.711987 
L 414.72 293.711987 
" clip-path="url(#pf6d63b0228)" style="fill: none; stroke: #b0b0b0; stroke-width: 0.8; stroke-linecap: square"/>
     </g>
     <g id="line2d_20">
      <defs>
       <path id="m5b8a1a8a4e" d="M 0 0 
L -3.5 0 
" style="stroke: #000000; stroke-width: 0.8"/>
      </defs>
      <g>
       <use xlink:href="#m5b8a1a8a4e" x="57.6" y="293.711987" style="stroke: #000000; stroke-width: 0.8"/>
      </g>
     </g>
     <g id="text_11">
      <!-- 0 -->
      <g transform="translate(44.2375 297.511206)scale(0.1 -0.1)">
       <use xlink:href="#DejaVuSans-30"/>
      </g>
     </g>
    </g>
    <g id="ytick_2">
     <g id="line2d_21">
      <path d="M 57.6 261.083728 
L 414.72 261.083728 
" clip-path="url(#pf6d63b0228)" style="fill: none; stroke: #b0b0b0; stroke-width: 0.8; stroke-linecap: square"/>
     </g>
     <g id="line2d_22">
      <g>
       <use xlink:href="#m5b8a1a8a4e" x="57.6" y="261.083728" style="stroke: #000000; stroke-width: 0.8"/>
      </g>
     </g>
     <g id="text_12">
      <!-- 25 -->
      <g transform="translate(37.875 264.882947)scale(0.1 -0.1)">
       <use xlink:href="#DejaVuSans-32"/>
       <use xlink:href="#DejaVuSans-35" x="63.623047"/>
      </g>
     </g>
    </g>
    <g id="ytick_3">
     <g id="line2d_23">
      <path d="M 57.6 228.455469 
L 414.72 228.455469 
" clip-path="url(#pf6d63b0228)" style="fill: none; stroke: #b0b0b0; stroke-width: 0.8; stroke-linecap: square"/>
     </g>
     <g id="line2d_24">
      <g>
       <use xlink:href="#m5b8a1a8a4e" x="57.6" y="228.455469" style="stroke: #000000; stroke-width: 0.8"/>
      </g>
     </g>
     <g id="text_13">
      <!-- 50 -->
      <g transform="translate(37.875 232.254688)scale(0.1 -0.1)">
       <use xlink:href="#DejaVuSans-35"/>
       <use xlink:href="#DejaVuSans-30" x="63.623047"/>
      </g>
     </g>
    </g>
    <g id="ytick_4">
     <g id="line2d_25">
      <path d="M 57.6 195.82721 
L 414.72 195.82721 
" clip-path="url(#pf6d63b0228)" style="fill: none; stroke: #b0b0b0; stroke-width: 0.8; stroke-linecap: square"/>
     </g>
     <g id="line2d_26">
      <g>
       <use xlink:href="#m5b8a1a8a4e" x="57.6" y="195.82721" style="stroke: #000000; stroke-width: 0.8"/>
      </g>
     </g>
     <g id="text_14">
      <!-- 75 -->
      <g transform="translate(37.875 199.626428)scale(0.1 -0.1)">
       <use xlink:href="#DejaVuSans-37"/>
       <use xlink:href="#DejaVuSans-35" x="63.623047"/>
      </g>
     </g>
    </g>
    <g id="ytick_5">
     <g id="line2d_27">
      <path d="M 57.6 163.198951 
L 414.72 163.198951 
" clip-path="url(#pf6d63b0228)" style="fill: none; stroke: #b0b0b0; stroke-width: 0.8; stroke-linecap: square"/>
     </g>
     <g id="line2d_28">
      <g>
       <use xlink:href="#m5b8a1a8a4e" x="57.6" y="163.198951" style="stroke: #000000; stroke-width: 0.8"/>
      </g>
     </g>
     <g id="text_15">
      <!-- 100 -->
      <g transform="translate(31.5125 166.998169)scale(0.1 -0.1)">
       <use xlink:href="#DejaVuSans-31"/>
       <use xlink:href="#DejaVuSans-30" x="63.623047"/>
       <use xlink:href="#DejaVuSans-30" x="127.246094"/>
      </g>
     </g>
    </g>
    <g id="ytick_6">
     <g id="line2d_29">
      <path d="M 57.6 130.570691 
L 414.72 130.570691 
" clip-path="url(#pf6d63b0228)" style="fill: none; stroke: #b0b0b0; stroke-width: 0.8; stroke-linecap: square"/>
     </g>
     <g id="line2d_30">
      <g>
       <use xlink:href="#m5b8a1a8a4e" x="57.6" y="130.570691" style="stroke: #000000; stroke-width: 0.8"/>
      </g>
     </g>
     <g id="text_16">
      <!-- 125 -->
      <g transform="translate(31.5125 134.36991)scale(0.1 -0.1)">
       <use xlink:href="#DejaVuSans-31"/>
       <use xlink:href="#DejaVuSans-32" x="63.623047"/>
       <use xlink:href="#DejaVuSans-35" x="127.246094"/>
      </g>
     </g>
    </g>
    <g id="ytick_7">
     <g id="line2d_31">
      <path d="M 57.6 97.942432 
L 414.72 97.942432 
" clip-path="url(#pf6d63b0228)" style="fill: none; stroke: #b0b0b0; stroke-width: 0.8; stroke-linecap: square"/>
     </g>
     <g id="line2d_32">
      <g>
       <use xlink:href="#m5b8a1a8a4e" x="57.6" y="97.942432" style="stroke: #000000; stroke-width: 0.8"/>
      </g>
     </g>
     <g id="text_17">
      <!-- 150 -->
      <g transform="translate(31.5125 101.741651)scale(0.1 -0.1)">
       <use xlink:href="#DejaVuSans-31"/>
       <use xlink:href="#DejaVuSans-35" x="63.623047"/>
       <use xlink:href="#DejaVuSans-30" x="127.246094"/>
      </g>
     </g>
    </g>
    <g id="ytick_8">
     <g id="line2d_33">
      <path d="M 57.6 65.314173 
L 414.72 65.314173 
" clip-path="url(#pf6d63b0228)" style="fill: none; stroke: #b0b0b0; stroke-width: 0.8; stroke-linecap: square"/>
     </g>
     <g id="line2d_34">
      <g>
       <use xlink:href="#m5b8a1a8a4e" x="57.6" y="65.314173" style="stroke: #000000; stroke-width: 0.8"/>
      </g>
     </g>
     <g id="text_18">
      <!-- 175 -->
      <g transform="translate(31.5125 69.113392)scale(0.1 -0.1)">
       <use xlink:href="#DejaVuSans-31"/>
       <use xlink:href="#DejaVuSans-37" x="63.623047"/>
       <use xlink:href="#DejaVuSans-35" x="127.246094"/>
      </g>
     </g>
    </g>
    <g id="text_19">
     <!-- Fitness -->
     <g transform="translate(25.432812 191.845187)rotate(-90)scale(0.1 -0.1)">
      <defs>
       <path id="DejaVuSans-46" d="M 628 4666 
L 3309 4666 
L 3309 4134 
L 1259 4134 
L 1259 2759 
L 3109 2759 
L 3109 2228 
L 1259 2228 
L 1259 0 
L 628 0 
L 628 4666 
z
" transform="scale(0.015625)"/>
      </defs>
      <use xlink:href="#DejaVuSans-46"/>
      <use xlink:href="#DejaVuSans-69" x="50.269531"/>
      <use xlink:href="#DejaVuSans-74" x="78.052734"/>
      <use xlink:href="#DejaVuSans-6e" x="117.261719"/>
      <use xlink:href="#DejaVuSans-65" x="180.640625"/>
      <use xlink:href="#DejaVuSans-73" x="242.164062"/>
      <use xlink:href="#DejaVuSans-73" x="294.263672"/>
     </g>
    </g>
   </g>
   <g id="line2d_35">
    <path d="M 73.832727 228.699093 
L 75.464157 227.689792 
L 77.095587 223.190855 
L 78.727017 229.585414 
L 80.358447 227.002424 
L 81.989877 223.304554 
L 83.621307 227.31456 
L 85.252736 228.040593 
L 86.884166 219.502274 
L 88.515596 231.039452 
L 90.147026 221.480076 
L 91.778456 220.34439 
L 93.409886 215.456025 
L 95.041316 220.075158 
L 96.672746 233.589558 
L 98.304175 218.240648 
L 99.935605 222.989688 
L 101.567035 225.750132 
L 103.198465 221.27293 
L 104.829895 230.64221 
L 106.461325 219.223847 
L 108.092755 227.994323 
L 109.724185 226.597171 
L 111.355614 223.278452 
L 112.987044 233.312974 
L 116.249904 215.44767 
L 117.881334 233.049528 
L 119.512764 230.7699 
L 121.144194 224.170863 
L 122.775624 222.16474 
L 124.407053 221.229714 
L 126.038483 227.34049 
L 127.669913 212.776503 
L 129.301343 223.939718 
L 130.932773 218.841008 
L 132.564203 218.939253 
L 134.195633 221.616586 
L 135.827063 213.081033 
L 137.458492 217.858847 
L 139.089922 221.048206 
L 140.721352 216.374427 
L 142.352782 214.116321 
L 143.984212 212.527727 
L 145.615642 220.401441 
L 147.247072 223.028874 
L 148.878502 217.814306 
L 150.509931 221.825407 
L 152.141361 223.269293 
L 153.772791 218.083572 
L 155.404221 223.693039 
L 157.035651 220.046575 
L 158.667081 225.775601 
L 160.298511 214.699395 
L 161.929941 227.86381 
L 163.56137 225.63777 
L 165.1928 227.668933 
L 166.82423 226.254149 
L 168.45566 221.616586 
L 170.08709 224.419072 
L 171.71852 228.245246 
L 173.34995 214.316557 
L 174.98138 222.582382 
L 176.61281 226.254149 
L 178.244239 226.899684 
L 179.875669 219.15424 
L 181.507099 227.881211 
L 183.138529 232.858109 
L 184.769959 227.681091 
L 186.401389 236.744343 
L 188.032819 224.899208 
L 189.664249 217.055025 
L 191.295678 244.612983 
L 192.927108 238.317414 
L 194.558538 233.935288 
L 196.189968 236.207943 
L 197.821398 235.912114 
L 199.452828 226.228046 
L 201.084258 228.438296 
L 202.715688 229.734321 
L 204.347117 227.994323 
L 205.978547 222.761947 
L 207.609977 224.759059 
L 209.241407 226.056851 
L 210.872837 222.043687 
L 212.504267 221.474335 
L 214.135697 231.761227 
L 215.767127 217.716611 
L 217.398556 228.482104 
L 219.029986 229.87371 
L 220.661416 226.866988 
L 222.292846 233.852359 
L 223.924276 226.65106 
L 225.555706 232.433435 
L 227.187136 229.181502 
L 228.818566 232.388146 
L 230.449995 230.391266 
L 232.081425 225.897764 
L 233.712855 233.650061 
L 235.344285 233.283598 
L 236.975715 233.823905 
L 238.607145 220.024327 
L 240.238575 224.023281 
L 241.870005 231.718295 
L 243.501434 231.46929 
L 245.132864 232.49349 
L 246.764294 232.073045 
L 248.395724 225.205608 
L 250.027154 230.924634 
L 253.290014 217.988496 
L 254.921444 230.084692 
L 256.552873 241.06028 
L 258.184303 227.36932 
L 259.815733 223.252008 
L 261.447163 230.681868 
L 263.078593 239.190382 
L 264.710023 233.547194 
L 266.341453 229.603984 
L 267.972883 232.353687 
L 269.604312 229.475372 
L 271.235742 240.543253 
L 272.867172 226.524229 
L 274.498602 224.548664 
L 276.130032 231.246044 
L 277.761462 225.647721 
L 279.392892 215.190909 
L 281.024322 224.479172 
L 282.655751 231.512452 
L 284.287181 224.347374 
L 285.918611 228.101096 
L 287.550041 219.672294 
L 289.181471 221.162612 
L 290.812901 221.268551 
L 292.444331 226.326968 
L 294.075761 218.760215 
L 295.70719 218.697648 
L 297.33862 225.210045 
L 298.97005 227.759399 
L 300.60148 230.830806 
L 302.23291 237.208543 
L 303.86434 224.418266 
L 305.49577 230.873026 
L 307.1272 220.572131 
L 308.75863 226.445568 
L 310.390059 228.709487 
L 312.021489 220.868311 
L 313.652919 229.151538 
L 315.284349 231.206825 
L 316.915779 222.908665 
L 318.547209 228.986222 
L 320.178639 237.808903 
L 321.810069 227.924716 
L 323.441498 235.690621 
L 325.072928 232.4855 
L 326.704358 235.918362 
L 328.335788 234.639509 
L 329.967218 236.747397 
L 331.598648 221.710835 
L 333.230078 226.682961 
L 334.861508 227.379618 
L 336.492937 226.020393 
L 338.124367 223.35676 
L 339.755797 216.013226 
L 341.387227 230.282651 
L 343.018657 229.177641 
L 344.650087 226.804609 
L 346.281517 229.959394 
L 347.912947 220.667903 
L 349.544376 216.925377 
L 351.175806 229.029726 
L 352.807236 221.051029 
L 354.438666 225.958319 
L 356.070096 220.502874 
L 357.701526 220.23052 
L 359.332956 221.224341 
L 360.964386 219.162941 
L 362.595815 229.682291 
L 364.227245 229.081931 
L 365.858675 223.534775 
L 367.490105 216.596184 
L 369.121535 220.398464 
L 370.752965 221.561928 
L 372.384395 215.386647 
L 374.015825 226.088832 
L 375.647254 226.845808 
L 377.278684 212.054331 
L 378.910114 221.709356 
L 380.541544 225.088232 
L 382.172974 220.878705 
L 385.435834 225.531977 
L 387.067264 225.757615 
L 390.330123 219.989523 
L 391.961553 221.816706 
L 393.592983 224.049559 
L 395.224413 225.636387 
L 396.855843 222.919614 
L 398.487273 221.684558 
L 398.487273 221.684558 
" clip-path="url(#pf6d63b0228)" style="fill: none; stroke: #0000ff; stroke-width: 1.5; stroke-linecap: square"/>
   </g>
   <g id="line2d_36">
    <path d="M 73.832727 287.897441 
L 75.464157 285.244549 
L 77.095587 283.13945 
L 78.727017 289.885068 
L 80.358447 287.294462 
L 81.989877 281.946176 
L 83.621307 285.162324 
L 85.252736 284.070848 
L 86.884166 277.357106 
L 88.515596 285.820185 
L 90.147026 279.273549 
L 91.778456 275.869684 
L 93.409886 273.35984 
L 95.041316 280.87801 
L 96.672746 288.984295 
L 98.304175 275.175205 
L 99.935605 277.318821 
L 101.567035 284.809025 
L 103.198465 277.016261 
L 104.829895 290.235686 
L 106.461325 275.033617 
L 108.092755 281.496207 
L 109.724185 280.098226 
L 111.355614 279.598906 
L 112.987044 286.836737 
L 114.618474 285.558589 
L 116.249904 275.77339 
L 117.881334 288.078942 
L 119.512764 289.763938 
L 121.144194 283.389399 
L 122.775624 279.615599 
L 124.407053 277.867392 
L 126.038483 285.800659 
L 127.669913 269.320435 
L 129.301343 279.096289 
L 130.932773 276.049289 
L 132.564203 275.874272 
L 134.195633 280.744163 
L 135.827063 273.604544 
L 137.458492 274.999617 
L 139.089922 278.082196 
L 140.721352 273.98496 
L 142.352782 274.199647 
L 143.984212 270.917647 
L 145.615642 280.64293 
L 147.247072 281.25481 
L 148.878502 273.920085 
L 152.141361 284.028526 
L 153.772791 282.295541 
L 155.404221 282.454188 
L 157.035651 279.298329 
L 158.667081 284.987068 
L 160.298511 275.529976 
L 161.929941 283.704803 
L 163.56137 283.442576 
L 165.1928 287.73932 
L 166.82423 281.163831 
L 168.45566 281.059828 
L 170.08709 278.024377 
L 171.71852 285.813555 
L 173.34995 272.126891 
L 174.98138 284.520914 
L 176.61281 281.53134 
L 178.244239 281.682164 
L 179.875669 277.49815 
L 181.507099 293.163215 
L 183.138529 286.285104 
L 184.769959 283.932482 
L 186.401389 288.616856 
L 188.032819 285.577452 
L 189.664249 273.916711 
L 191.295678 295.488 
L 192.927108 292.167171 
L 194.558538 289.214512 
L 196.189968 290.2303 
L 197.821398 287.326153 
L 199.452828 280.61938 
L 201.084258 282.690304 
L 202.715688 283.289079 
L 204.347117 277.365097 
L 205.978547 277.442366 
L 207.609977 279.620481 
L 209.241407 281.117446 
L 210.872837 279.39132 
L 212.504267 278.213526 
L 214.135697 284.276331 
L 215.767127 271.556575 
L 217.398556 281.608862 
L 219.029986 284.17214 
L 220.661416 282.897047 
L 222.292846 289.750967 
L 223.924276 280.082535 
L 225.555706 288.381504 
L 227.187136 284.130093 
L 228.818566 287.560125 
L 230.449995 284.637479 
L 232.081425 283.628642 
L 233.712855 291.9607 
L 235.344285 285.361361 
L 236.975715 288.796917 
L 238.607145 273.504237 
L 240.238575 279.353929 
L 241.870005 288.749957 
L 243.501434 287.27837 
L 245.132864 288.333063 
L 246.764294 284.240388 
L 248.395724 277.97731 
L 250.027154 284.75795 
L 251.658584 282.674009 
L 253.290014 277.233016 
L 254.921444 285.616027 
L 256.552873 290.497515 
L 258.184303 283.3408 
L 259.815733 277.87297 
L 263.078593 292.215277 
L 264.710023 292.262558 
L 266.341453 288.485456 
L 267.972883 290.302757 
L 269.604312 285.723149 
L 271.235742 294.067034 
L 272.867172 286.850622 
L 274.498602 289.032556 
L 276.130032 288.987447 
L 277.761462 284.045783 
L 279.392892 272.539133 
L 281.024322 282.811021 
L 282.655751 284.905652 
L 284.287181 281.405913 
L 285.918611 284.400399 
L 287.550041 279.220256 
L 289.181471 280.365607 
L 290.812901 282.165202 
L 292.444331 286.772179 
L 294.075761 279.115757 
L 295.70719 275.708525 
L 297.33862 282.285638 
L 300.60148 286.613503 
L 302.23291 290.935451 
L 303.86434 282.559218 
L 305.49577 285.850179 
L 307.1272 280.392162 
L 308.75863 285.137293 
L 310.390059 283.805102 
L 312.021489 279.658002 
L 313.652919 283.749405 
L 315.284349 288.231552 
L 316.915779 282.200926 
L 318.547209 287.081599 
L 320.178639 294.008048 
L 321.810069 284.848771 
L 323.441498 290.933526 
L 325.072928 289.257136 
L 326.704358 292.254598 
L 328.335788 293.400713 
L 329.967218 292.905452 
L 331.598648 280.620489 
L 333.230078 283.693734 
L 334.861508 284.167224 
L 336.492937 281.512137 
L 338.124367 281.002039 
L 339.755797 276.708882 
L 341.387227 290.603211 
L 343.018657 281.886498 
L 344.650087 284.441461 
L 346.281517 284.266418 
L 347.912947 281.133103 
L 349.544376 277.590245 
L 351.175806 285.29492 
L 352.807236 281.355113 
L 354.438666 285.624133 
L 356.070096 284.789936 
L 357.701526 278.546523 
L 359.332956 279.135123 
L 360.964386 282.238406 
L 362.595815 289.451606 
L 364.227245 286.354946 
L 365.858675 285.902834 
L 367.490105 279.697573 
L 369.121535 283.613092 
L 370.752965 283.565846 
L 372.384395 277.846307 
L 374.015825 290.536092 
L 375.647254 293.010025 
L 377.278684 276.778519 
L 378.910114 281.467386 
L 382.172974 284.566267 
L 383.804404 282.451548 
L 385.435834 282.730781 
L 387.067264 283.222688 
L 388.698693 280.714011 
L 390.330123 276.982488 
L 391.961553 281.989101 
L 393.592983 283.773884 
L 395.224413 293.259788 
L 396.855843 283.900769 
L 398.487273 284.733971 
L 398.487273 284.733971 
" clip-path="url(#pf6d63b0228)" style="fill: none; stroke-dasharray: 9.6,2.4,1.5,2.4; stroke-dashoffset: 0; stroke: #008000; stroke-width: 1.5"/>
   </g>
   <g id="line2d_37">
    <path d="M 73.832727 169.500746 
L 75.464157 170.135036 
L 77.095587 163.24226 
L 78.727017 169.28576 
L 80.358447 166.710385 
L 81.989877 164.662933 
L 83.621307 169.466796 
L 85.252736 172.010338 
L 86.884166 161.647443 
L 88.515596 176.258718 
L 90.147026 163.686603 
L 91.778456 164.819096 
L 93.409886 157.552209 
L 95.041316 159.272306 
L 96.672746 178.194821 
L 98.304175 161.306092 
L 99.935605 168.660555 
L 101.567035 166.691239 
L 103.198465 165.529599 
L 104.829895 171.048735 
L 106.461325 163.414076 
L 108.092755 174.492438 
L 109.724185 173.096115 
L 111.355614 166.957998 
L 112.987044 179.789211 
L 114.618474 162.657242 
L 116.249904 155.121949 
L 117.881334 178.020114 
L 119.512764 171.775862 
L 121.144194 164.952327 
L 122.775624 164.713882 
L 124.407053 164.592036 
L 126.038483 168.880321 
L 127.669913 156.23257 
L 129.301343 168.783146 
L 130.932773 161.632728 
L 134.195633 162.489008 
L 135.827063 152.557522 
L 137.458492 160.718078 
L 139.089922 164.014216 
L 140.721352 158.763893 
L 142.352782 154.032996 
L 143.984212 154.137806 
L 145.615642 160.159951 
L 147.247072 164.802939 
L 148.878502 161.708527 
L 150.509931 164.822125 
L 152.141361 162.51006 
L 153.772791 153.871603 
L 155.404221 164.931891 
L 157.035651 160.794821 
L 158.667081 166.564134 
L 160.298511 153.868814 
L 161.929941 172.022817 
L 163.56137 167.832964 
L 165.1928 167.598546 
L 166.82423 171.344467 
L 168.45566 162.173343 
L 170.08709 170.813767 
L 171.71852 170.676938 
L 173.34995 156.506222 
L 174.98138 160.64385 
L 176.61281 170.976958 
L 178.244239 172.117204 
L 179.875669 160.810329 
L 181.507099 162.599208 
L 183.138529 179.431114 
L 184.769959 171.429701 
L 186.401389 184.87183 
L 188.032819 164.220963 
L 189.664249 160.19334 
L 191.295678 193.737965 
L 192.927108 184.467657 
L 194.558538 178.656064 
L 196.189968 182.185587 
L 197.821398 184.498074 
L 199.452828 171.836712 
L 201.084258 174.186288 
L 202.715688 176.179564 
L 204.347117 178.623548 
L 205.978547 168.081528 
L 207.609977 169.897637 
L 209.241407 170.996255 
L 210.872837 164.696055 
L 212.504267 164.735144 
L 214.135697 179.246122 
L 215.767127 163.876647 
L 217.398556 175.355347 
L 219.029986 175.575281 
L 220.661416 170.836928 
L 222.292846 177.953751 
L 223.924276 173.219586 
L 225.555706 176.485366 
L 227.187136 174.23291 
L 228.818566 177.216167 
L 230.449995 176.145053 
L 232.081425 168.166885 
L 233.712855 175.339421 
L 235.344285 181.205835 
L 236.975715 178.850893 
L 238.607145 166.544416 
L 240.238575 168.692634 
L 241.870005 174.686632 
L 245.132864 176.653916 
L 246.764294 179.905701 
L 248.395724 172.433905 
L 250.027154 177.091318 
L 251.658584 165.805099 
L 253.290014 158.743976 
L 254.921444 174.553357 
L 256.552873 191.623046 
L 258.184303 171.39784 
L 259.815733 168.631045 
L 261.447163 176.335353 
L 263.078593 186.165487 
L 264.710023 174.831831 
L 266.341453 170.722511 
L 267.972883 174.404617 
L 269.604312 173.227595 
L 271.235742 187.019473 
L 272.867172 166.197835 
L 274.498602 160.064772 
L 276.130032 173.50464 
L 277.761462 167.24966 
L 279.392892 157.842684 
L 281.024322 166.147322 
L 282.655751 178.119252 
L 284.287181 167.288834 
L 285.918611 171.801792 
L 287.550041 160.124332 
L 289.181471 161.959617 
L 290.812901 160.3719 
L 292.444331 165.881756 
L 294.075761 158.404673 
L 295.70719 161.686772 
L 297.33862 168.134452 
L 298.97005 171.019658 
L 300.60148 175.048109 
L 302.23291 183.481635 
L 303.86434 166.277313 
L 305.49577 175.895873 
L 307.1272 160.7521 
L 308.75863 167.753843 
L 310.390059 173.613873 
L 312.021489 162.07862 
L 313.652919 174.553671 
L 315.284349 174.182098 
L 316.915779 163.616404 
L 318.547209 170.890845 
L 320.178639 181.609758 
L 321.810069 171.000661 
L 323.441498 180.447716 
L 325.072928 175.713864 
L 326.704358 179.582126 
L 328.335788 175.878306 
L 329.967218 180.589342 
L 331.598648 162.801182 
L 333.230078 169.672187 
L 334.861508 170.592012 
L 336.492937 170.52865 
L 338.124367 165.71148 
L 339.755797 155.31757 
L 341.387227 169.962092 
L 343.018657 176.468784 
L 344.650087 169.167756 
L 346.281517 175.65237 
L 347.912947 160.202703 
L 349.544376 156.260508 
L 351.175806 172.764532 
L 352.807236 160.746945 
L 354.438666 166.292506 
L 356.070096 156.215813 
L 357.701526 161.914516 
L 359.332956 163.313559 
L 360.964386 156.087475 
L 362.595815 169.912976 
L 364.227245 171.808917 
L 365.858675 161.166715 
L 367.490105 153.494796 
L 369.121535 157.183836 
L 370.752965 159.55801 
L 372.384395 152.926986 
L 374.015825 161.641573 
L 375.647254 160.681591 
L 377.278684 147.330142 
L 378.910114 161.951326 
L 380.541544 167.227662 
L 382.172974 157.191144 
L 383.804404 164.070552 
L 385.435834 168.333173 
L 387.067264 168.292543 
L 388.698693 165.029851 
L 390.330123 162.996558 
L 391.961553 161.64431 
L 393.592983 164.325234 
L 395.224413 158.012986 
L 396.855843 161.938458 
L 398.487273 158.635144 
L 398.487273 158.635144 
" clip-path="url(#pf6d63b0228)" style="fill: none; stroke-dasharray: 9.6,2.4,1.5,2.4; stroke-dashoffset: 0; stroke: #008000; stroke-width: 1.5"/>
   </g>
   <g id="line2d_38">
    <path d="M 73.832727 69.229564 
L 75.464157 61.398782 
L 77.095587 71.839825 
L 78.727017 67.924434 
L 80.358447 58.788521 
L 81.989877 71.839825 
L 83.621307 60.093652 
L 85.252736 53.568 
L 86.884166 54.87313 
L 88.515596 100.552693 
L 90.147026 90.11165 
L 91.778456 58.788521 
L 93.409886 53.568 
L 95.041316 57.483391 
L 96.672746 64.009043 
L 98.304175 100.552693 
L 99.935605 56.178261 
L 101.567035 53.568 
L 103.198465 95.332172 
L 104.829895 53.568 
L 106.461325 66.619304 
L 108.092755 75.755216 
L 109.724185 127.960431 
L 111.355614 62.703913 
L 112.987044 67.924434 
L 114.618474 53.568 
L 116.249904 64.009043 
L 117.881334 71.839825 
L 119.512764 53.568 
L 121.144194 61.398782 
L 122.775624 53.568 
L 124.407053 74.450086 
L 126.038483 74.450086 
L 127.669913 53.568 
L 129.301343 78.365477 
L 130.932773 53.568 
L 132.564203 53.568 
L 134.195633 71.839825 
L 135.827063 60.093652 
L 137.458492 53.568 
L 139.089922 61.398782 
L 140.721352 53.568 
L 143.984212 53.568 
L 145.615642 75.755216 
L 147.247072 75.755216 
L 148.878502 84.891129 
L 150.509931 53.568 
L 152.141361 75.755216 
L 153.772791 54.87313 
L 155.404221 53.568 
L 157.035651 69.229564 
L 158.667081 95.332172 
L 160.298511 53.568 
L 161.929941 103.162954 
L 163.56137 53.568 
L 166.82423 64.009043 
L 168.45566 67.924434 
L 170.08709 53.568 
L 171.71852 70.534695 
L 173.34995 53.568 
L 176.61281 53.568 
L 178.244239 100.552693 
L 179.875669 53.568 
L 181.507099 53.568 
L 183.138529 78.365477 
L 184.769959 79.670607 
L 186.401389 112.298866 
L 188.032819 66.619304 
L 189.664249 53.568 
L 191.295678 69.229564 
L 192.927108 61.398782 
L 194.558538 90.11165 
L 196.189968 86.196259 
L 197.821398 157.978429 
L 199.452828 143.621995 
L 201.084258 157.978429 
L 202.715688 100.552693 
L 204.347117 138.401474 
L 205.978547 130.570691 
L 207.609977 87.501389 
L 209.241407 53.568 
L 210.872837 75.755216 
L 212.504267 54.87313 
L 214.135697 141.011734 
L 215.767127 157.978429 
L 217.398556 154.063038 
L 219.029986 121.434779 
L 220.661416 109.688606 
L 222.292846 53.568 
L 223.924276 75.755216 
L 225.555706 114.909127 
L 227.187136 53.568 
L 228.818566 92.721911 
L 230.449995 86.196259 
L 232.081425 82.280868 
L 233.712855 90.11165 
L 235.344285 101.857823 
L 236.975715 94.027041 
L 238.607145 101.857823 
L 240.238575 56.178261 
L 241.870005 96.637302 
L 243.501434 53.568 
L 245.132864 96.637302 
L 246.764294 86.196259 
L 248.395724 73.144955 
L 250.027154 91.416781 
L 251.658584 57.483391 
L 253.290014 77.060347 
L 254.921444 78.365477 
L 256.552873 143.621995 
L 258.184303 86.196259 
L 259.815733 117.519388 
L 261.447163 57.483391 
L 263.078593 116.214257 
L 264.710023 57.483391 
L 266.341453 71.839825 
L 267.972883 60.093652 
L 269.604312 77.060347 
L 271.235742 71.839825 
L 272.867172 64.009043 
L 274.498602 61.398782 
L 276.130032 78.365477 
L 277.761462 53.568 
L 279.392892 79.670607 
L 281.024322 53.568 
L 282.655751 97.942432 
L 284.287181 73.144955 
L 285.918611 100.552693 
L 287.550041 53.568 
L 289.181471 53.568 
L 290.812901 56.178261 
L 292.444331 53.568 
L 295.70719 53.568 
L 298.97005 61.398782 
L 300.60148 57.483391 
L 302.23291 90.11165 
L 303.86434 53.568 
L 305.49577 53.568 
L 307.1272 71.839825 
L 308.75863 53.568 
L 310.390059 71.839825 
L 312.021489 67.924434 
L 313.652919 71.839825 
L 315.284349 73.144955 
L 316.915779 61.398782 
L 318.547209 53.568 
L 320.178639 64.009043 
L 321.810069 66.619304 
L 323.441498 53.568 
L 325.072928 75.755216 
L 326.704358 69.229564 
L 328.335788 92.721911 
L 329.967218 57.483391 
L 331.598648 53.568 
L 333.230078 74.450086 
L 334.861508 65.314173 
L 336.492937 65.314173 
L 338.124367 70.534695 
L 339.755797 53.568 
L 341.387227 70.534695 
L 343.018657 99.247563 
L 344.650087 53.568 
L 346.281517 108.383475 
L 347.912947 53.568 
L 349.544376 53.568 
L 351.175806 57.483391 
L 352.807236 92.721911 
L 354.438666 53.568 
L 357.701526 53.568 
L 359.332956 69.229564 
L 360.964386 70.534695 
L 362.595815 53.568 
L 364.227245 86.196259 
L 365.858675 53.568 
L 378.910114 53.568 
L 380.541544 73.144955 
L 382.172974 53.568 
L 383.804404 58.788521 
L 385.435834 53.568 
L 387.067264 57.483391 
L 388.698693 75.755216 
L 390.330123 56.178261 
L 391.961553 57.483391 
L 393.592983 79.670607 
L 395.224413 53.568 
L 396.855843 70.534695 
L 398.487273 53.568 
L 398.487273 53.568 
" clip-path="url(#pf6d63b0228)" style="fill: none; stroke: #ff0000; stroke-width: 1.5; stroke-linecap: square"/>
   </g>
   <g id="patch_3">
    <path d="M 57.6 307.584 
L 57.6 41.472 
" style="fill: none; stroke: #000000; stroke-width: 0.8; stroke-linejoin: miter; stroke-linecap: square"/>
   </g>
   <g id="patch_4">
    <path d="M 414.72 307.584 
L 414.72 41.472 
" style="fill: none; stroke: #000000; stroke-width: 0.8; stroke-linejoin: miter; stroke-linecap: square"/>
   </g>
   <g id="patch_5">
    <path d="M 57.6 307.584 
L 414.72 307.584 
" style="fill: none; stroke: #000000; stroke-width: 0.8; stroke-linejoin: miter; stroke-linecap: square"/>
   </g>
   <g id="patch_6">
    <path d="M 57.6 41.472 
L 414.72 41.472 
" style="fill: none; stroke: #000000; stroke-width: 0.8; stroke-linejoin: miter; stroke-linecap: square"/>
   </g>
   <g id="text_20">
    <!-- Population's average and best fitness -->
    <g transform="translate(123.529687 35.472)scale(0.12 -0.12)">
     <defs>
      <path id="DejaVuSans-50" d="M 1259 4147 
L 1259 2394 
L 2053 2394 
Q 2494 2394 2734 2622 
Q 2975 2850 2975 3272 
Q 2975 3691 2734 3919 
Q 2494 4147 2053 4147 
L 1259 4147 
z
M 628 4666 
L 2053 4666 
Q 2838 4666 3239 4311 
Q 3641 3956 3641 3272 
Q 3641 2581 3239 2228 
Q 2838 1875 2053 1875 
L 1259 1875 
L 1259 0 
L 628 0 
L 628 4666 
z
" transform="scale(0.015625)"/>
      <path id="DejaVuSans-70" d="M 1159 525 
L 1159 -1331 
L 581 -1331 
L 581 3500 
L 1159 3500 
L 1159 2969 
Q 1341 3281 1617 3432 
Q 1894 3584 2278 3584 
Q 2916 3584 3314 3078 
Q 3713 2572 3713 1747 
Q 3713 922 3314 415 
Q 2916 -91 2278 -91 
Q 1894 -91 1617 61 
Q 1341 213 1159 525 
z
M 3116 1747 
Q 3116 2381 2855 2742 
Q 2594 3103 2138 3103 
Q 1681 3103 1420 2742 
Q 1159 2381 1159 1747 
Q 1159 1113 1420 752 
Q 1681 391 2138 391 
Q 2594 391 2855 752 
Q 3116 1113 3116 1747 
z
" transform="scale(0.015625)"/>
      <path id="DejaVuSans-75" d="M 544 1381 
L 544 3500 
L 1119 3500 
L 1119 1403 
Q 1119 906 1312 657 
Q 1506 409 1894 409 
Q 2359 409 2629 706 
Q 2900 1003 2900 1516 
L 2900 3500 
L 3475 3500 
L 3475 0 
L 2900 0 
L 2900 538 
Q 2691 219 2414 64 
Q 2138 -91 1772 -91 
Q 1169 -91 856 284 
Q 544 659 544 1381 
z
M 1991 3584 
L 1991 3584 
z
" transform="scale(0.015625)"/>
      <path id="DejaVuSans-6c" d="M 603 4863 
L 1178 4863 
L 1178 0 
L 603 0 
L 603 4863 
z
" transform="scale(0.015625)"/>
      <path id="DejaVuSans-27" d="M 1147 4666 
L 1147 2931 
L 616 2931 
L 616 4666 
L 1147 4666 
z
" transform="scale(0.015625)"/>
      <path id="DejaVuSans-20" transform="scale(0.015625)"/>
      <path id="DejaVuSans-76" d="M 191 3500 
L 800 3500 
L 1894 563 
L 2988 3500 
L 3597 3500 
L 2284 0 
L 1503 0 
L 191 3500 
z
" transform="scale(0.015625)"/>
      <path id="DejaVuSans-67" d="M 2906 1791 
Q 2906 2416 2648 2759 
Q 2391 3103 1925 3103 
Q 1463 3103 1205 2759 
Q 947 2416 947 1791 
Q 947 1169 1205 825 
Q 1463 481 1925 481 
Q 2391 481 2648 825 
Q 2906 1169 2906 1791 
z
M 3481 434 
Q 3481 -459 3084 -895 
Q 2688 -1331 1869 -1331 
Q 1566 -1331 1297 -1286 
Q 1028 -1241 775 -1147 
L 775 -588 
Q 1028 -725 1275 -790 
Q 1522 -856 1778 -856 
Q 2344 -856 2625 -561 
Q 2906 -266 2906 331 
L 2906 616 
Q 2728 306 2450 153 
Q 2172 0 1784 0 
Q 1141 0 747 490 
Q 353 981 353 1791 
Q 353 2603 747 3093 
Q 1141 3584 1784 3584 
Q 2172 3584 2450 3431 
Q 2728 3278 2906 2969 
L 2906 3500 
L 3481 3500 
L 3481 434 
z
" transform="scale(0.015625)"/>
      <path id="DejaVuSans-64" d="M 2906 2969 
L 2906 4863 
L 3481 4863 
L 3481 0 
L 2906 0 
L 2906 525 
Q 2725 213 2448 61 
Q 2172 -91 1784 -91 
Q 1150 -91 751 415 
Q 353 922 353 1747 
Q 353 2572 751 3078 
Q 1150 3584 1784 3584 
Q 2172 3584 2448 3432 
Q 2725 3281 2906 2969 
z
M 947 1747 
Q 947 1113 1208 752 
Q 1469 391 1925 391 
Q 2381 391 2643 752 
Q 2906 1113 2906 1747 
Q 2906 2381 2643 2742 
Q 2381 3103 1925 3103 
Q 1469 3103 1208 2742 
Q 947 2381 947 1747 
z
" transform="scale(0.015625)"/>
      <path id="DejaVuSans-62" d="M 3116 1747 
Q 3116 2381 2855 2742 
Q 2594 3103 2138 3103 
Q 1681 3103 1420 2742 
Q 1159 2381 1159 1747 
Q 1159 1113 1420 752 
Q 1681 391 2138 391 
Q 2594 391 2855 752 
Q 3116 1113 3116 1747 
z
M 1159 2969 
Q 1341 3281 1617 3432 
Q 1894 3584 2278 3584 
Q 2916 3584 3314 3078 
Q 3713 2572 3713 1747 
Q 3713 922 3314 415 
Q 2916 -91 2278 -91 
Q 1894 -91 1617 61 
Q 1341 213 1159 525 
L 1159 0 
L 581 0 
L 581 4863 
L 1159 4863 
L 1159 2969 
z
" transform="scale(0.015625)"/>
      <path id="DejaVuSans-66" d="M 2375 4863 
L 2375 4384 
L 1825 4384 
Q 1516 4384 1395 4259 
Q 1275 4134 1275 3809 
L 1275 3500 
L 2222 3500 
L 2222 3053 
L 1275 3053 
L 1275 0 
L 697 0 
L 697 3053 
L 147 3053 
L 147 3500 
L 697 3500 
L 697 3744 
Q 697 4328 969 4595 
Q 1241 4863 1831 4863 
L 2375 4863 
z
" transform="scale(0.015625)"/>
     </defs>
     <use xlink:href="#DejaVuSans-50"/>
     <use xlink:href="#DejaVuSans-6f" x="56.677734"/>
     <use xlink:href="#DejaVuSans-70" x="117.859375"/>
     <use xlink:href="#DejaVuSans-75" x="181.335938"/>
     <use xlink:href="#DejaVuSans-6c" x="244.714844"/>
     <use xlink:href="#DejaVuSans-61" x="272.498047"/>
     <use xlink:href="#DejaVuSans-74" x="333.777344"/>
     <use xlink:href="#DejaVuSans-69" x="372.986328"/>
     <use xlink:href="#DejaVuSans-6f" x="400.769531"/>
     <use xlink:href="#DejaVuSans-6e" x="461.951172"/>
     <use xlink:href="#DejaVuSans-27" x="525.330078"/>
     <use xlink:href="#DejaVuSans-73" x="552.820312"/>
     <use xlink:href="#DejaVuSans-20" x="604.919922"/>
     <use xlink:href="#DejaVuSans-61" x="636.707031"/>
     <use xlink:href="#DejaVuSans-76" x="697.986328"/>
     <use xlink:href="#DejaVuSans-65" x="757.166016"/>
     <use xlink:href="#DejaVuSans-72" x="818.689453"/>
     <use xlink:href="#DejaVuSans-61" x="859.802734"/>
     <use xlink:href="#DejaVuSans-67" x="921.082031"/>
     <use xlink:href="#DejaVuSans-65" x="984.558594"/>
     <use xlink:href="#DejaVuSans-20" x="1046.082031"/>
     <use xlink:href="#DejaVuSans-61" x="1077.869141"/>
     <use xlink:href="#DejaVuSans-6e" x="1139.148438"/>
     <use xlink:href="#DejaVuSans-64" x="1202.527344"/>
     <use xlink:href="#DejaVuSans-20" x="1266.003906"/>
     <use xlink:href="#DejaVuSans-62" x="1297.791016"/>
     <use xlink:href="#DejaVuSans-65" x="1361.267578"/>
     <use xlink:href="#DejaVuSans-73" x="1422.791016"/>
     <use xlink:href="#DejaVuSans-74" x="1474.890625"/>
     <use xlink:href="#DejaVuSans-20" x="1514.099609"/>
     <use xlink:href="#DejaVuSans-66" x="1545.886719"/>
     <use xlink:href="#DejaVuSans-69" x="1581.091797"/>
     <use xlink:href="#DejaVuSans-74" x="1608.875"/>
     <use xlink:href="#DejaVuSans-6e" x="1648.083984"/>
     <use xlink:href="#DejaVuSans-65" x="1711.462891"/>
     <use xlink:href="#DejaVuSans-73" x="1772.986328"/>
     <use xlink:href="#DejaVuSans-73" x="1825.085938"/>
    </g>
   </g>
   <g id="legend_1">
    <g id="patch_7">
     <path d="M 199.689687 108.1845 
L 272.630313 108.1845 
Q 274.630313 108.1845 274.630313 106.1845 
L 274.630313 48.472 
Q 274.630313 46.472 272.630313 46.472 
L 199.689687 46.472 
Q 197.689687 46.472 197.689687 48.472 
L 197.689687 106.1845 
Q 197.689687 108.1845 199.689687 108.1845 
z
" style="fill: #ffffff; opacity: 0.8; stroke: #cccccc; stroke-linejoin: miter"/>
    </g>
    <g id="line2d_39">
     <path d="M 201.689687 54.570438 
L 211.689687 54.570438 
L 221.689687 54.570438 
" style="fill: none; stroke: #0000ff; stroke-width: 1.5; stroke-linecap: square"/>
    </g>
    <g id="text_21">
     <!-- average -->
     <g transform="translate(229.689687 58.070438)scale(0.1 -0.1)">
      <use xlink:href="#DejaVuSans-61"/>
      <use xlink:href="#DejaVuSans-76" x="61.279297"/>
      <use xlink:href="#DejaVuSans-65" x="120.458984"/>
      <use xlink:href="#DejaVuSans-72" x="181.982422"/>
      <use xlink:href="#DejaVuSans-61" x="223.095703"/>
      <use xlink:href="#DejaVuSans-67" x="284.375"/>
      <use xlink:href="#DejaVuSans-65" x="347.851562"/>
     </g>
    </g>
    <g id="line2d_40">
     <path d="M 201.689687 69.248563 
L 211.689687 69.248563 
L 221.689687 69.248563 
" style="fill: none; stroke-dasharray: 9.6,2.4,1.5,2.4; stroke-dashoffset: 0; stroke: #008000; stroke-width: 1.5"/>
    </g>
    <g id="text_22">
     <!-- -1 sd -->
     <g transform="translate(229.689687 72.748563)scale(0.1 -0.1)">
      <defs>
       <path id="DejaVuSans-2d" d="M 313 2009 
L 1997 2009 
L 1997 1497 
L 313 1497 
L 313 2009 
z
" transform="scale(0.015625)"/>
      </defs>
      <use xlink:href="#DejaVuSans-2d"/>
      <use xlink:href="#DejaVuSans-31" x="36.083984"/>
      <use xlink:href="#DejaVuSans-20" x="99.707031"/>
      <use xlink:href="#DejaVuSans-73" x="131.494141"/>
      <use xlink:href="#DejaVuSans-64" x="183.59375"/>
     </g>
    </g>
    <g id="line2d_41">
     <path d="M 201.689687 83.926688 
L 211.689687 83.926688 
L 221.689687 83.926688 
" style="fill: none; stroke-dasharray: 9.6,2.4,1.5,2.4; stroke-dashoffset: 0; stroke: #008000; stroke-width: 1.5"/>
    </g>
    <g id="text_23">
     <!-- +1 sd -->
     <g transform="translate(229.689687 87.426688)scale(0.1 -0.1)">
      <defs>
       <path id="DejaVuSans-2b" d="M 2944 4013 
L 2944 2272 
L 4684 2272 
L 4684 1741 
L 2944 1741 
L 2944 0 
L 2419 0 
L 2419 1741 
L 678 1741 
L 678 2272 
L 2419 2272 
L 2419 4013 
L 2944 4013 
z
" transform="scale(0.015625)"/>
      </defs>
      <use xlink:href="#DejaVuSans-2b"/>
      <use xlink:href="#DejaVuSans-31" x="83.789062"/>
      <use xlink:href="#DejaVuSans-20" x="147.412109"/>
      <use xlink:href="#DejaVuSans-73" x="179.199219"/>
      <use xlink:href="#DejaVuSans-64" x="231.298828"/>
     </g>
    </g>
    <g id="line2d_42">
     <path d="M 201.689687 98.604813 
L 211.689687 98.604813 
L 221.689687 98.604813 
" style="fill: none; stroke: #ff0000; stroke-width: 1.5; stroke-linecap: square"/>
    </g>
    <g id="text_24">
     <!-- best -->
     <g transform="translate(229.689687 102.104813)scale(0.1 -0.1)">
      <use xlink:href="#DejaVuSans-62"/>
      <use xlink:href="#DejaVuSans-65" x="63.476562"/>
      <use xlink:href="#DejaVuSans-73" x="125"/>
      <use xlink:href="#DejaVuSans-74" x="177.099609"/>
     </g>
    </g>
   </g>
  </g>
 </g>
 <defs>
  <clipPath id="pf6d63b0228">
   <rect x="57.6" y="41.472" width="357.12" height="266.112"/>
  </clipPath>
 </defs>
</svg>
