<?xml version="1.0" encoding="UTF-8" standalone="no"?>
<!DOCTYPE svg PUBLIC "-//W3C//DTD SVG 1.1//EN"
 "http://www.w3.org/Graphics/SVG/1.1/DTD/svg11.dtd">
<!-- Generated by graphviz version 4.0.0 (20220529.0937)
 -->
<!-- Pages: 1 -->
<svg width="2074pt" height="657pt"
 viewBox="0.00 0.00 2073.67 656.87" xmlns="http://www.w3.org/2000/svg" xmlns:xlink="http://www.w3.org/1999/xlink">
<g id="graph0" class="graph" transform="scale(1 1) rotate(0) translate(4 652.87)">
<polygon fill="white" stroke="transparent" points="-4,4 -4,-652.87 2069.67,-652.87 2069.67,4 -4,4"/>
<!-- GHOST1 X -->
<g id="node1" class="node">
<title>GHOST1 X</title>
<ellipse fill="lightcoral" stroke="black" cx="182.81" cy="-282.72" rx="43.27" ry="43.27"/>
<text text-anchor="middle" x="182.81" y="-280.52" font-family="Times New Roman,serif" font-size="9.00">GHOST1 X</text>
</g>
<!-- UP -->
<g id="node26" class="node">
<title>UP</title>
<ellipse fill="lightblue" stroke="black" cx="136.81" cy="-142.77" rx="20.51" ry="20.51"/>
<text text-anchor="middle" x="136.81" y="-140.57" font-family="Times New Roman,serif" font-size="9.00">UP</text>
</g>
<!-- GHOST1 X&#45;&gt;UP -->
<g id="edge2" class="edge">
<title>GHOST1 X&#45;&gt;UP</title>
<path fill="none" stroke="green" stroke-width="0.31" d="M169.38,-241.45C160.68,-215.36 149.76,-182.61 143.04,-162.44"/>
</g>
<!-- RIGHT -->
<g id="node28" class="node">
<title>RIGHT</title>
<ellipse fill="lightblue" stroke="black" cx="494.81" cy="-142.77" rx="31.64" ry="31.64"/>
<text text-anchor="middle" x="494.81" y="-140.57" font-family="Times New Roman,serif" font-size="9.00">RIGHT</text>
</g>
<!-- GHOST1 X&#45;&gt;RIGHT -->
<g id="edge4" class="edge">
<title>GHOST1 X&#45;&gt;RIGHT</title>
<path fill="none" stroke="red" stroke-width="0.8" d="M207.19,-247.05C215.11,-237.81 224.52,-228.55 234.81,-221.91 308.25,-174.47 411.78,-154.75 463.23,-147.49"/>
</g>
<!-- 4992 -->
<g id="node30" class="node">
<title>4992</title>
<ellipse fill="lightgreen" stroke="black" cx="228.81" cy="-142.77" rx="25" ry="25"/>
<text text-anchor="middle" x="228.81" y="-140.57" font-family="Times New Roman,serif" font-size="9.00">4992</text>
</g>
<!-- GHOST1 X&#45;&gt;4992 -->
<g id="edge14" class="edge">
<title>GHOST1 X&#45;&gt;4992</title>
<path fill="none" stroke="green" stroke-width="0.36" d="M196.24,-241.45C204.35,-217.11 214.4,-186.98 221.18,-166.67"/>
</g>
<!-- GHOST1 Y -->
<g id="node2" class="node">
<title>GHOST1 Y</title>
<ellipse fill="lightcoral" stroke="black" cx="598.81" cy="-593.01" rx="42.35" ry="42.35"/>
<text text-anchor="middle" x="598.81" y="-590.81" font-family="Times New Roman,serif" font-size="9.00">GHOST1 Y</text>
</g>
<!-- GHOST2 X -->
<g id="node3" class="node">
<title>GHOST2 X</title>
<ellipse fill="lightcoral" stroke="black" cx="787.81" cy="-142.77" rx="43.27" ry="43.27"/>
<text text-anchor="middle" x="787.81" y="-140.57" font-family="Times New Roman,serif" font-size="9.00">GHOST2 X</text>
</g>
<!-- DOWN -->
<g id="node27" class="node">
<title>DOWN</title>
<ellipse fill="lightblue" stroke="black" cx="701.81" cy="-31.82" rx="31.64" ry="31.64"/>
<text text-anchor="middle" x="701.81" y="-29.62" font-family="Times New Roman,serif" font-size="9.00">DOWN</text>
</g>
<!-- GHOST2 X&#45;&gt;DOWN -->
<g id="edge7" class="edge">
<title>GHOST2 X&#45;&gt;DOWN</title>
<path fill="none" stroke="green" stroke-width="0.25" d="M761.54,-108.49C748.5,-91.97 733.03,-72.37 721.1,-57.25"/>
</g>
<!-- GHOST2 Y -->
<g id="node4" class="node">
<title>GHOST2 Y</title>
<ellipse fill="lightcoral" stroke="black" cx="701.81" cy="-593.01" rx="42.35" ry="42.35"/>
<text text-anchor="middle" x="701.81" y="-590.81" font-family="Times New Roman,serif" font-size="9.00">GHOST2 Y</text>
</g>
<!-- GHOST3 X -->
<g id="node5" class="node">
<title>GHOST3 X</title>
<ellipse fill="lightcoral" stroke="black" cx="805.81" cy="-593.01" rx="43.27" ry="43.27"/>
<text text-anchor="middle" x="805.81" y="-590.81" font-family="Times New Roman,serif" font-size="9.00">GHOST3 X</text>
</g>
<!-- GHOST3 Y -->
<g id="node6" class="node">
<title>GHOST3 Y</title>
<ellipse fill="lightcoral" stroke="black" cx="909.81" cy="-593.01" rx="42.35" ry="42.35"/>
<text text-anchor="middle" x="909.81" y="-590.81" font-family="Times New Roman,serif" font-size="9.00">GHOST3 Y</text>
</g>
<!-- GHOST4 X -->
<g id="node7" class="node">
<title>GHOST4 X</title>
<ellipse fill="lightcoral" stroke="black" cx="1013.81" cy="-593.01" rx="43.27" ry="43.27"/>
<text text-anchor="middle" x="1013.81" y="-590.81" font-family="Times New Roman,serif" font-size="9.00">GHOST4 X</text>
</g>
<!-- GHOST4 Y -->
<g id="node8" class="node">
<title>GHOST4 Y</title>
<ellipse fill="lightcoral" stroke="black" cx="407.81" cy="-440.34" rx="42.35" ry="42.35"/>
<text text-anchor="middle" x="407.81" y="-438.14" font-family="Times New Roman,serif" font-size="9.00">GHOST4 Y</text>
</g>
<!-- 4536 -->
<g id="node32" class="node">
<title>4536</title>
<ellipse fill="lightgreen" stroke="black" cx="494.81" cy="-282.72" rx="25" ry="25"/>
<text text-anchor="middle" x="494.81" y="-280.52" font-family="Times New Roman,serif" font-size="9.00">4536</text>
</g>
<!-- GHOST4 Y&#45;&gt;4536 -->
<g id="edge8" class="edge">
<title>GHOST4 Y&#45;&gt;4536</title>
<path fill="none" stroke="green" stroke-width="0.24" d="M428.4,-402.99C438.51,-385.1 450.84,-363.21 461.81,-343.53 468.97,-330.69 476.94,-316.25 483.25,-304.78"/>
</g>
<!-- GHOST5 X -->
<g id="node9" class="node">
<title>GHOST5 X</title>
<ellipse fill="lightcoral" stroke="black" cx="494.81" cy="-593.01" rx="43.27" ry="43.27"/>
<text text-anchor="middle" x="494.81" y="-590.81" font-family="Times New Roman,serif" font-size="9.00">GHOST5 X</text>
</g>
<!-- LEFT -->
<g id="node29" class="node">
<title>LEFT</title>
<ellipse fill="lightblue" stroke="black" cx="494.81" cy="-440.34" rx="26.74" ry="26.74"/>
<text text-anchor="middle" x="494.81" y="-438.14" font-family="Times New Roman,serif" font-size="9.00">LEFT</text>
</g>
<!-- GHOST5 X&#45;&gt;LEFT -->
<g id="edge11" class="edge">
<title>GHOST5 X&#45;&gt;LEFT</title>
<path fill="none" stroke="green" stroke-width="0.19" d="M494.81,-549.64C494.81,-523.18 494.81,-489.96 494.81,-467.34"/>
</g>
<!-- GHOST5 Y -->
<g id="node10" class="node">
<title>GHOST5 Y</title>
<ellipse fill="lightcoral" stroke="black" cx="1117.81" cy="-593.01" rx="42.35" ry="42.35"/>
<text text-anchor="middle" x="1117.81" y="-590.81" font-family="Times New Roman,serif" font-size="9.00">GHOST5 Y</text>
</g>
<!-- GHOST6 X -->
<g id="node11" class="node">
<title>GHOST6 X</title>
<ellipse fill="lightcoral" stroke="black" cx="1221.81" cy="-593.01" rx="43.27" ry="43.27"/>
<text text-anchor="middle" x="1221.81" y="-590.81" font-family="Times New Roman,serif" font-size="9.00">GHOST6 X</text>
</g>
<!-- GHOST6 Y -->
<g id="node12" class="node">
<title>GHOST6 Y</title>
<ellipse fill="lightcoral" stroke="black" cx="1325.81" cy="-593.01" rx="42.35" ry="42.35"/>
<text text-anchor="middle" x="1325.81" y="-590.81" font-family="Times New Roman,serif" font-size="9.00">GHOST6 Y</text>
</g>
<!-- GHOST7 X -->
<g id="node13" class="node">
<title>GHOST7 X</title>
<ellipse fill="lightcoral" stroke="black" cx="1429.81" cy="-593.01" rx="43.27" ry="43.27"/>
<text text-anchor="middle" x="1429.81" y="-590.81" font-family="Times New Roman,serif" font-size="9.00">GHOST7 X</text>
</g>
<!-- GHOST7 Y -->
<g id="node14" class="node">
<title>GHOST7 Y</title>
<ellipse fill="lightcoral" stroke="black" cx="1533.81" cy="-593.01" rx="42.35" ry="42.35"/>
<text text-anchor="middle" x="1533.81" y="-590.81" font-family="Times New Roman,serif" font-size="9.00">GHOST7 Y</text>
</g>
<!-- GHOST8 X -->
<g id="node15" class="node">
<title>GHOST8 X</title>
<ellipse fill="lightcoral" stroke="black" cx="1637.81" cy="-593.01" rx="43.27" ry="43.27"/>
<text text-anchor="middle" x="1637.81" y="-590.81" font-family="Times New Roman,serif" font-size="9.00">GHOST8 X</text>
</g>
<!-- GHOST8 Y -->
<g id="node16" class="node">
<title>GHOST8 Y</title>
<ellipse fill="lightcoral" stroke="black" cx="752.81" cy="-282.72" rx="42.35" ry="42.35"/>
<text text-anchor="middle" x="752.81" y="-280.52" font-family="Times New Roman,serif" font-size="9.00">GHOST8 Y</text>
</g>
<!-- 4417 -->
<g id="node31" class="node">
<title>4417</title>
<ellipse fill="lightgreen" stroke="black" cx="701.81" cy="-142.77" rx="25" ry="25"/>
<text text-anchor="middle" x="701.81" y="-140.57" font-family="Times New Roman,serif" font-size="9.00">4417</text>
</g>
<!-- GHOST8 Y&#45;&gt;4417 -->
<g id="edge5" class="edge">
<title>GHOST8 Y&#45;&gt;4417</title>
<path fill="none" stroke="green" stroke-width="0.78" d="M738.33,-242.56C729.2,-217.86 717.74,-186.86 710.12,-166.24"/>
</g>
<!-- PACMAN X -->
<g id="node17" class="node">
<title>PACMAN X</title>
<ellipse fill="lightcoral" stroke="black" cx="405.81" cy="-282.72" rx="46.84" ry="46.84"/>
<text text-anchor="middle" x="405.81" y="-280.52" font-family="Times New Roman,serif" font-size="9.00">PACMAN X</text>
</g>
<!-- PACMAN X&#45;&gt;RIGHT -->
<g id="edge12" class="edge">
<title>PACMAN X&#45;&gt;RIGHT</title>
<path fill="none" stroke="red" stroke-width="0.27" d="M430.84,-242.93C445.85,-219.66 464.55,-190.68 477.84,-170.07"/>
</g>
<!-- PACMAN Y -->
<g id="node18" class="node">
<title>PACMAN Y</title>
<ellipse fill="lightcoral" stroke="black" cx="1744.81" cy="-593.01" rx="45.92" ry="45.92"/>
<text text-anchor="middle" x="1744.81" y="-590.81" font-family="Times New Roman,serif" font-size="9.00">PACMAN Y</text>
</g>
<!-- ND X -->
<g id="node19" class="node">
<title>ND X</title>
<ellipse fill="lightcoral" stroke="black" cx="1836.81" cy="-593.01" rx="27.65" ry="27.65"/>
<text text-anchor="middle" x="1836.81" y="-590.81" font-family="Times New Roman,serif" font-size="9.00">ND X</text>
</g>
<!-- ND Y -->
<g id="node20" class="node">
<title>ND Y</title>
<ellipse fill="lightcoral" stroke="black" cx="1908.81" cy="-593.01" rx="26.74" ry="26.74"/>
<text text-anchor="middle" x="1908.81" y="-590.81" font-family="Times New Roman,serif" font-size="9.00">ND Y</text>
</g>
<!-- IN_INTERS -->
<g id="node21" class="node">
<title>IN_INTERS</title>
<ellipse fill="lightcoral" stroke="black" cx="648.81" cy="-282.72" rx="43.68" ry="43.68"/>
<text text-anchor="middle" x="648.81" y="-280.52" font-family="Times New Roman,serif" font-size="9.00">IN_INTERS</text>
</g>
<!-- IN_INTERS&#45;&gt;DOWN -->
<g id="edge13" class="edge">
<title>IN_INTERS&#45;&gt;DOWN</title>
<path fill="none" stroke="red" stroke-width="0.42" d="M648.9,-238.55C650.02,-201.11 654.17,-145.82 667.81,-99.64 671.94,-85.66 678.97,-71.12 685.56,-59.19"/>
</g>
<!-- IN_INTERS&#45;&gt;RIGHT -->
<g id="edge1" class="edge">
<title>IN_INTERS&#45;&gt;RIGHT</title>
<path fill="none" stroke="green" stroke-width="1.43" d="M621.26,-248.4C613.37,-239.48 604.52,-230.06 595.81,-221.91 571.85,-199.49 541.84,-176.88 520.78,-161.79"/>
</g>
<!-- IN_INTERS&#45;&gt;4417 -->
<g id="edge10" class="edge">
<title>IN_INTERS&#45;&gt;4417</title>
<path fill="none" stroke="red" stroke-width="0.12" d="M664.28,-241.45C673.69,-216.95 685.36,-186.58 693.17,-166.27"/>
</g>
<!-- MOVING UP -->
<g id="node22" class="node">
<title>MOVING UP</title>
<ellipse fill="lightcoral" stroke="black" cx="292.81" cy="-282.72" rx="48.58" ry="48.58"/>
<text text-anchor="middle" x="292.81" y="-280.52" font-family="Times New Roman,serif" font-size="9.00">MOVING UP</text>
</g>
<!-- MOVING UP&#45;&gt;4992 -->
<g id="edge15" class="edge">
<title>MOVING UP&#45;&gt;4992</title>
<path fill="none" stroke="green" stroke-width="0.36" d="M272.56,-238.07C261.36,-213.92 247.92,-184.95 238.92,-165.55"/>
</g>
<!-- MOVING DOWN -->
<g id="node23" class="node">
<title>MOVING DOWN</title>
<ellipse fill="lightcoral" stroke="black" cx="600.81" cy="-440.34" rx="60.62" ry="60.62"/>
<text text-anchor="middle" x="600.81" y="-438.14" font-family="Times New Roman,serif" font-size="9.00">MOVING DOWN</text>
</g>
<!-- 5499 -->
<g id="node33" class="node">
<title>5499</title>
<ellipse fill="lightgreen" stroke="black" cx="561.81" cy="-282.72" rx="25" ry="25"/>
<text text-anchor="middle" x="561.81" y="-280.52" font-family="Times New Roman,serif" font-size="9.00">5499</text>
</g>
<!-- MOVING DOWN&#45;&gt;5499 -->
<g id="edge17" class="edge">
<title>MOVING DOWN&#45;&gt;5499</title>
<path fill="none" stroke="green" stroke-width="0.5" d="M586.18,-380.95C579.74,-355.25 572.54,-326.53 567.65,-307.01"/>
</g>
<!-- MOVING RIGHT -->
<g id="node24" class="node">
<title>MOVING RIGHT</title>
<ellipse fill="lightcoral" stroke="black" cx="60.81" cy="-282.72" rx="60.62" ry="60.62"/>
<text text-anchor="middle" x="60.81" y="-280.52" font-family="Times New Roman,serif" font-size="9.00">MOVING RIGHT</text>
</g>
<!-- MOVING RIGHT&#45;&gt;UP -->
<g id="edge3" class="edge">
<title>MOVING RIGHT&#45;&gt;UP</title>
<path fill="none" stroke="red" stroke-width="0.17" d="M89.76,-229.17C103.02,-205.11 117.83,-178.22 127.23,-161.16"/>
</g>
<!-- MOVING LEFT -->
<g id="node25" class="node">
<title>MOVING LEFT</title>
<ellipse fill="lightcoral" stroke="black" cx="2009.81" cy="-593.01" rx="55.72" ry="55.72"/>
<text text-anchor="middle" x="2009.81" y="-590.81" font-family="Times New Roman,serif" font-size="9.00">MOVING LEFT</text>
</g>
<!-- LEFT&#45;&gt;4536 -->
<g id="edge16" class="edge">
<title>LEFT&#45;&gt;4536</title>
<path fill="none" stroke="green" stroke-width="0.31" d="M494.81,-413.29C494.81,-383.79 494.81,-336.11 494.81,-307.55"/>
</g>
<!-- 4417&#45;&gt;DOWN -->
<g id="edge6" class="edge">
<title>4417&#45;&gt;DOWN</title>
<path fill="none" stroke="red" stroke-width="0.22" d="M701.81,-117.86C701.81,-101.95 701.81,-80.9 701.81,-63.72"/>
</g>
<!-- 4536&#45;&gt;RIGHT -->
<g id="edge9" class="edge">
<title>4536&#45;&gt;RIGHT</title>
<path fill="none" stroke="red" stroke-width="0.64" d="M494.81,-257.69C494.81,-234.69 494.81,-199.87 494.81,-174.78"/>
</g>
<!-- 5499&#45;&gt;RIGHT -->
<g id="edge18" class="edge">
<title>5499&#45;&gt;RIGHT</title>
<path fill="none" stroke="red" stroke-width="0.36" d="M551.34,-260.16C539.79,-236.37 521.14,-197.99 508.45,-171.85"/>
</g>
</g>
</svg>
