<?xml version="1.0" encoding="UTF-8" standalone="no"?>
<!DOCTYPE svg PUBLIC "-//W3C//DTD SVG 1.1//EN"
 "http://www.w3.org/Graphics/SVG/1.1/DTD/svg11.dtd">
<!-- Generated by graphviz version 4.0.0 (20220529.0937)
 -->
<!-- Pages: 1 -->
<svg width="2181pt" height="682pt"
 viewBox="0.00 0.00 2180.80 682.33" xmlns="http://www.w3.org/2000/svg" xmlns:xlink="http://www.w3.org/1999/xlink">
<g id="graph0" class="graph" transform="scale(1 1) rotate(0) translate(4 678.33)">
<polygon fill="white" stroke="transparent" points="-4,4 -4,-678.33 2176.8,-678.33 2176.8,4 -4,4"/>
<!-- GHOST1 DIST -->
<g id="node1" class="node">
<title>GHOST1 DIST</title>
<ellipse fill="lightcoral" stroke="black" cx="332.4" cy="-613.52" rx="52.15" ry="52.15"/>
<text text-anchor="middle" x="332.4" y="-611.32" font-family="Times New Roman,serif" font-size="9.00">GHOST1 DIST</text>
</g>
<!-- GHOST2 DIST -->
<g id="node2" class="node">
<title>GHOST2 DIST</title>
<ellipse fill="lightcoral" stroke="black" cx="907.4" cy="-306.76" rx="52.15" ry="52.15"/>
<text text-anchor="middle" x="907.4" y="-304.56" font-family="Times New Roman,serif" font-size="9.00">GHOST2 DIST</text>
</g>
<!-- DOWN -->
<g id="node26" class="node">
<title>DOWN</title>
<ellipse fill="lightblue" stroke="black" cx="233.4" cy="-31.82" rx="31.64" ry="31.64"/>
<text text-anchor="middle" x="233.4" y="-29.62" font-family="Times New Roman,serif" font-size="9.00">DOWN</text>
</g>
<!-- GHOST2 DIST&#45;&gt;DOWN -->
<g id="edge1" class="edge">
<title>GHOST2 DIST&#45;&gt;DOWN</title>
<path fill="none" stroke="red" stroke-width="0.14" d="M855.19,-303.05C701.77,-294.57 260.48,-266.18 218.4,-218.43 180.03,-174.9 202.84,-101.16 219.9,-60.97"/>
</g>
<!-- LEFT -->
<g id="node28" class="node">
<title>LEFT</title>
<ellipse fill="lightblue" stroke="black" cx="1923.4" cy="-31.82" rx="26.74" ry="26.74"/>
<text text-anchor="middle" x="1923.4" y="-29.62" font-family="Times New Roman,serif" font-size="9.00">LEFT</text>
</g>
<!-- GHOST2 DIST&#45;&gt;LEFT -->
<g id="edge2" class="edge">
<title>GHOST2 DIST&#45;&gt;LEFT</title>
<path fill="none" stroke="green" stroke-width="0.48" d="M958.68,-295.86C1021.36,-284.13 1130.77,-264.88 1225.4,-254.43 1291.78,-247.1 1772.66,-259.41 1825.4,-218.43 1869.17,-184.42 1835.83,-147.73 1863.4,-99.64 1874.1,-80.97 1890.7,-63.02 1903.73,-50.43"/>
</g>
<!-- 7694 -->
<g id="node31" class="node">
<title>7694</title>
<ellipse fill="lightgreen" stroke="black" cx="907.4" cy="-159.04" rx="25" ry="25"/>
<text text-anchor="middle" x="907.4" y="-156.84" font-family="Times New Roman,serif" font-size="9.00">7694</text>
</g>
<!-- GHOST2 DIST&#45;&gt;7694 -->
<g id="edge50" class="edge">
<title>GHOST2 DIST&#45;&gt;7694</title>
<path fill="none" stroke="green" stroke-width="0.55" d="M907.4,-254.38C907.4,-230.46 907.4,-203.13 907.4,-184.07"/>
</g>
<!-- GHOST3 DIST -->
<g id="node3" class="node">
<title>GHOST3 DIST</title>
<ellipse fill="lightcoral" stroke="black" cx="1239.4" cy="-613.52" rx="52.15" ry="52.15"/>
<text text-anchor="middle" x="1239.4" y="-611.32" font-family="Times New Roman,serif" font-size="9.00">GHOST3 DIST</text>
</g>
<!-- GHOST4 DIST -->
<g id="node4" class="node">
<title>GHOST4 DIST</title>
<ellipse fill="lightcoral" stroke="black" cx="378.4" cy="-159.04" rx="52.15" ry="52.15"/>
<text text-anchor="middle" x="378.4" y="-156.84" font-family="Times New Roman,serif" font-size="9.00">GHOST4 DIST</text>
</g>
<!-- UP -->
<g id="node25" class="node">
<title>UP</title>
<ellipse fill="lightblue" stroke="black" cx="698.4" cy="-31.82" rx="20.51" ry="20.51"/>
<text text-anchor="middle" x="698.4" y="-29.62" font-family="Times New Roman,serif" font-size="9.00">UP</text>
</g>
<!-- GHOST4 DIST&#45;&gt;UP -->
<g id="edge3" class="edge">
<title>GHOST4 DIST&#45;&gt;UP</title>
<path fill="none" stroke="green" stroke-width="0.77" d="M414.49,-120.76C423.64,-112.88 433.88,-105.26 444.4,-99.64 524.23,-56.98 632.97,-40.3 677.8,-34.96"/>
</g>
<!-- GHOST4 DIST&#45;&gt;DOWN -->
<g id="edge4" class="edge">
<title>GHOST4 DIST&#45;&gt;DOWN</title>
<path fill="none" stroke="red" stroke-width="0.11" d="M341.13,-122.05C333.08,-114.53 324.54,-106.73 316.4,-99.64 297.29,-82.99 274.86,-65.03 258.14,-51.92"/>
</g>
<!-- GHOST5 DIST -->
<g id="node5" class="node">
<title>GHOST5 DIST</title>
<ellipse fill="lightcoral" stroke="black" cx="812.4" cy="-159.04" rx="52.15" ry="52.15"/>
<text text-anchor="middle" x="812.4" y="-156.84" font-family="Times New Roman,serif" font-size="9.00">GHOST5 DIST</text>
</g>
<!-- GHOST5 DIST&#45;&gt;UP -->
<g id="edge5" class="edge">
<title>GHOST5 DIST&#45;&gt;UP</title>
<path fill="none" stroke="red" stroke-width="0.36" d="M777.58,-119.79C755.45,-95.48 728.03,-65.36 711.95,-47.7"/>
</g>
<!-- GHOST6 DIST -->
<g id="node6" class="node">
<title>GHOST6 DIST</title>
<ellipse fill="lightcoral" stroke="black" cx="1246.4" cy="-455.9" rx="52.15" ry="52.15"/>
<text text-anchor="middle" x="1246.4" y="-453.7" font-family="Times New Roman,serif" font-size="9.00">GHOST6 DIST</text>
</g>
<!-- GHOST6 DIST&#45;&gt;DOWN -->
<g id="edge6" class="edge">
<title>GHOST6 DIST&#45;&gt;DOWN</title>
<path fill="none" stroke="red" stroke-width="0.51" d="M1204.51,-424.17C1187.58,-413.24 1167.34,-401.94 1147.4,-395.09 1019.99,-351.27 979.29,-381.29 846.4,-359.09 553.58,-310.15 379.92,-449.4 193.4,-218.43 160.23,-177.36 179.33,-150.53 193.4,-99.64 197.58,-84.52 206.18,-69.39 214.35,-57.35"/>
</g>
<!-- GHOST6 DIST&#45;&gt;LEFT -->
<g id="edge7" class="edge">
<title>GHOST6 DIST&#45;&gt;LEFT</title>
<path fill="none" stroke="green" stroke-width="0.41" d="M1278.84,-414.82C1287.27,-406.94 1296.95,-399.69 1307.4,-395.09 1374.2,-365.64 1913.22,-412.1 1963.4,-359.09 2044.22,-273.71 1969.07,-114.47 1936.63,-55.53"/>
</g>
<!-- 6415 -->
<g id="node32" class="node">
<title>6415</title>
<ellipse fill="lightgreen" stroke="black" cx="1259.4" cy="-306.76" rx="25" ry="25"/>
<text text-anchor="middle" x="1259.4" y="-304.56" font-family="Times New Roman,serif" font-size="9.00">6415</text>
</g>
<!-- GHOST6 DIST&#45;&gt;6415 -->
<g id="edge45" class="edge">
<title>GHOST6 DIST&#45;&gt;6415</title>
<path fill="none" stroke="green" stroke-width="0.34" d="M1250.95,-403.44C1253.1,-379.07 1255.57,-351.14 1257.28,-331.77"/>
</g>
<!-- GHOST7 DIST -->
<g id="node7" class="node">
<title>GHOST7 DIST</title>
<ellipse fill="lightcoral" stroke="black" cx="1902.4" cy="-306.76" rx="52.15" ry="52.15"/>
<text text-anchor="middle" x="1902.4" y="-304.56" font-family="Times New Roman,serif" font-size="9.00">GHOST7 DIST</text>
</g>
<!-- GHOST7 DIST&#45;&gt;LEFT -->
<g id="edge8" class="edge">
<title>GHOST7 DIST&#45;&gt;LEFT</title>
<path fill="none" stroke="green" stroke-width="0.59" d="M1921.33,-257.95C1925.49,-245.3 1929.28,-231.52 1931.4,-218.43 1940.54,-161.92 1933.16,-94.54 1927.77,-58.53"/>
</g>
<!-- 6537 -->
<g id="node29" class="node">
<title>6537</title>
<ellipse fill="lightgreen" stroke="black" cx="1897.4" cy="-159.04" rx="25" ry="25"/>
<text text-anchor="middle" x="1897.4" y="-156.84" font-family="Times New Roman,serif" font-size="9.00">6537</text>
</g>
<!-- GHOST7 DIST&#45;&gt;6537 -->
<g id="edge39" class="edge">
<title>GHOST7 DIST&#45;&gt;6537</title>
<path fill="none" stroke="green" stroke-width="0.27" d="M1900.64,-254.38C1899.82,-230.46 1898.88,-203.13 1898.23,-184.07"/>
</g>
<!-- GHOST8 DIST -->
<g id="node8" class="node">
<title>GHOST8 DIST</title>
<ellipse fill="lightcoral" stroke="black" cx="81.4" cy="-159.04" rx="52.15" ry="52.15"/>
<text text-anchor="middle" x="81.4" y="-156.84" font-family="Times New Roman,serif" font-size="9.00">GHOST8 DIST</text>
</g>
<!-- GHOST8 DIST&#45;&gt;DOWN -->
<g id="edge9" class="edge">
<title>GHOST8 DIST&#45;&gt;DOWN</title>
<path fill="none" stroke="red" stroke-width="0.79" d="M119.78,-123.34C128.75,-115.44 138.33,-107.16 147.4,-99.64 167.48,-82.98 190.91,-64.87 208.23,-51.7"/>
</g>
<!-- GHOST1 CORR -->
<g id="node9" class="node">
<title>GHOST1 CORR</title>
<ellipse fill="lightcoral" stroke="black" cx="1006.4" cy="-159.04" rx="55.72" ry="55.72"/>
<text text-anchor="middle" x="1006.4" y="-156.84" font-family="Times New Roman,serif" font-size="9.00">GHOST1 CORR</text>
</g>
<!-- GHOST1 CORR&#45;&gt;DOWN -->
<g id="edge10" class="edge">
<title>GHOST1 CORR&#45;&gt;DOWN</title>
<path fill="none" stroke="green" stroke-width="0.37" d="M969.08,-117.4C960.66,-110.38 951.27,-103.96 941.4,-99.64 909.99,-85.87 399.49,-45.65 265.43,-35.28"/>
</g>
<!-- RIGHT -->
<g id="node27" class="node">
<title>RIGHT</title>
<ellipse fill="lightblue" stroke="black" cx="1245.4" cy="-31.82" rx="31.64" ry="31.64"/>
<text text-anchor="middle" x="1245.4" y="-29.62" font-family="Times New Roman,serif" font-size="9.00">RIGHT</text>
</g>
<!-- GHOST1 CORR&#45;&gt;RIGHT -->
<g id="edge11" class="edge">
<title>GHOST1 CORR&#45;&gt;RIGHT</title>
<path fill="none" stroke="green" stroke-width="0.17" d="M1055.19,-131.33C1073.68,-121.3 1094.96,-109.85 1114.4,-99.64 1149.66,-81.12 1190.59,-60.36 1217.19,-46.96"/>
</g>
<!-- GHOST2 CORR -->
<g id="node10" class="node">
<title>GHOST2 CORR</title>
<ellipse fill="lightcoral" stroke="black" cx="1113.4" cy="-613.52" rx="55.72" ry="55.72"/>
<text text-anchor="middle" x="1113.4" y="-611.32" font-family="Times New Roman,serif" font-size="9.00">GHOST2 CORR</text>
</g>
<!-- GHOST2 CORR&#45;&gt;UP -->
<g id="edge12" class="edge">
<title>GHOST2 CORR&#45;&gt;UP</title>
<path fill="none" stroke="red" stroke-width="0.46" d="M1063.19,-589.02C961.48,-538.25 733.33,-407.43 645.4,-218.43 623.13,-170.56 628.03,-149.5 645.4,-99.64 652.9,-78.11 670.56,-58.3 683.44,-45.94"/>
</g>
<!-- GHOST2 CORR&#45;&gt;RIGHT -->
<g id="edge13" class="edge">
<title>GHOST2 CORR&#45;&gt;RIGHT</title>
<path fill="none" stroke="green" stroke-width="0.22" d="M1134.16,-561.5C1139.24,-547.21 1144.15,-531.53 1147.4,-516.71 1187.28,-334.9 1110.99,-270.25 1185.4,-99.64 1193.32,-81.49 1208.14,-64.9 1221.08,-52.8"/>
</g>
<!-- 6738 -->
<g id="node35" class="node">
<title>6738</title>
<ellipse fill="lightgreen" stroke="black" cx="1113.4" cy="-455.9" rx="25" ry="25"/>
<text text-anchor="middle" x="1113.4" y="-453.7" font-family="Times New Roman,serif" font-size="9.00">6738</text>
</g>
<!-- GHOST2 CORR&#45;&gt;6738 -->
<g id="edge48" class="edge">
<title>GHOST2 CORR&#45;&gt;6738</title>
<path fill="none" stroke="red" stroke-width="0.15" d="M1113.4,-557.65C1113.4,-531.4 1113.4,-501.32 1113.4,-480.91"/>
</g>
<!-- GHOST3 CORR -->
<g id="node11" class="node">
<title>GHOST3 CORR</title>
<ellipse fill="lightcoral" stroke="black" cx="1760.4" cy="-159.04" rx="55.72" ry="55.72"/>
<text text-anchor="middle" x="1760.4" y="-156.84" font-family="Times New Roman,serif" font-size="9.00">GHOST3 CORR</text>
</g>
<!-- GHOST3 CORR&#45;&gt;RIGHT -->
<g id="edge14" class="edge">
<title>GHOST3 CORR&#45;&gt;RIGHT</title>
<path fill="none" stroke="red" stroke-width="0.19" d="M1722.54,-117.51C1714.22,-110.57 1705.01,-104.16 1695.4,-99.64 1620.54,-64.42 1366.83,-42.1 1277.14,-35.15"/>
</g>
<!-- GHOST3 CORR&#45;&gt;LEFT -->
<g id="edge15" class="edge">
<title>GHOST3 CORR&#45;&gt;LEFT</title>
<path fill="none" stroke="green" stroke-width="0.13" d="M1802.57,-122.02C1811.65,-114.5 1821.27,-106.72 1830.4,-99.64 1854.29,-81.13 1882.6,-61.05 1901.65,-47.78"/>
</g>
<!-- 6004 -->
<g id="node36" class="node">
<title>6004</title>
<ellipse fill="lightgreen" stroke="black" cx="1577.4" cy="-31.82" rx="25" ry="25"/>
<text text-anchor="middle" x="1577.4" y="-29.62" font-family="Times New Roman,serif" font-size="9.00">6004</text>
</g>
<!-- GHOST3 CORR&#45;&gt;6004 -->
<g id="edge34" class="edge">
<title>GHOST3 CORR&#45;&gt;6004</title>
<path fill="none" stroke="red" stroke-width="0.53" d="M1720.27,-119.56C1712.29,-112.61 1703.77,-105.66 1695.4,-99.64 1663.87,-76.96 1623.96,-55.75 1599.58,-43.55"/>
</g>
<!-- GHOST4 CORR -->
<g id="node12" class="node">
<title>GHOST4 CORR</title>
<ellipse fill="lightcoral" stroke="black" cx="458.4" cy="-613.52" rx="55.72" ry="55.72"/>
<text text-anchor="middle" x="458.4" y="-611.32" font-family="Times New Roman,serif" font-size="9.00">GHOST4 CORR</text>
</g>
<!-- GHOST4 CORR&#45;&gt;UP -->
<g id="edge16" class="edge">
<title>GHOST4 CORR&#45;&gt;UP</title>
<path fill="none" stroke="red" stroke-width="0.93" d="M452.71,-557.56C441.76,-440.13 423.31,-169.75 477.4,-99.64 526.12,-36.48 632.64,-31.14 677.66,-31.89"/>
</g>
<!-- GHOST4 CORR&#45;&gt;DOWN -->
<g id="edge17" class="edge">
<title>GHOST4 CORR&#45;&gt;DOWN</title>
<path fill="none" stroke="green" stroke-width="0.51" d="M417.56,-574.79C409.57,-567.45 401.23,-559.82 393.4,-552.71 228.6,-403.05 111.18,-421.69 20.4,-218.43 -1.13,-170.23 -10.85,-142.2 20.4,-99.64 62.38,-42.47 153.19,-32.89 201.56,-32.08"/>
</g>
<!-- GHOST4 CORR&#45;&gt;6738 -->
<g id="edge37" class="edge">
<title>GHOST4 CORR&#45;&gt;6738</title>
<path fill="none" stroke="red" stroke-width="0.13" d="M512.56,-599.65C647.57,-567.57 995.01,-485.02 1089.42,-462.59"/>
</g>
<!-- GHOST5 CORR -->
<g id="node13" class="node">
<title>GHOST5 CORR</title>
<ellipse fill="lightcoral" stroke="black" cx="1365.4" cy="-613.52" rx="55.72" ry="55.72"/>
<text text-anchor="middle" x="1365.4" y="-611.32" font-family="Times New Roman,serif" font-size="9.00">GHOST5 CORR</text>
</g>
<!-- GHOST6 CORR -->
<g id="node14" class="node">
<title>GHOST6 CORR</title>
<ellipse fill="lightcoral" stroke="black" cx="1394.4" cy="-159.04" rx="55.72" ry="55.72"/>
<text text-anchor="middle" x="1394.4" y="-156.84" font-family="Times New Roman,serif" font-size="9.00">GHOST6 CORR</text>
</g>
<!-- GHOST6 CORR&#45;&gt;UP -->
<g id="edge18" class="edge">
<title>GHOST6 CORR&#45;&gt;UP</title>
<path fill="none" stroke="green" stroke-width="0.11" d="M1344.65,-133.52C1318.16,-121.48 1284.67,-107.83 1253.4,-99.64 1049.68,-46.26 792.55,-35.37 718.93,-33.28"/>
</g>
<!-- GHOST6 CORR&#45;&gt;6004 -->
<g id="edge31" class="edge">
<title>GHOST6 CORR&#45;&gt;6004</title>
<path fill="none" stroke="red" stroke-width="0.26" d="M1434.53,-119.56C1442.51,-112.61 1451.03,-105.66 1459.4,-99.64 1490.93,-76.96 1530.84,-55.75 1555.22,-43.55"/>
</g>
<!-- GHOST7 CORR -->
<g id="node15" class="node">
<title>GHOST7 CORR</title>
<ellipse fill="lightcoral" stroke="black" cx="1495.4" cy="-613.52" rx="55.72" ry="55.72"/>
<text text-anchor="middle" x="1495.4" y="-611.32" font-family="Times New Roman,serif" font-size="9.00">GHOST7 CORR</text>
</g>
<!-- GHOST8 CORR -->
<g id="node16" class="node">
<title>GHOST8 CORR</title>
<ellipse fill="lightcoral" stroke="black" cx="542.4" cy="-159.04" rx="55.72" ry="55.72"/>
<text text-anchor="middle" x="542.4" y="-156.84" font-family="Times New Roman,serif" font-size="9.00">GHOST8 CORR</text>
</g>
<!-- GHOST8 CORR&#45;&gt;UP -->
<g id="edge19" class="edge">
<title>GHOST8 CORR&#45;&gt;UP</title>
<path fill="none" stroke="green" stroke-width="0.24" d="M584.78,-122.28C593.84,-114.75 603.4,-106.89 612.4,-99.64 636.55,-80.19 665.05,-58.24 682.42,-44.97"/>
</g>
<!-- PACMAN CORR -->
<g id="node17" class="node">
<title>PACMAN CORR</title>
<ellipse fill="lightcoral" stroke="black" cx="2113.4" cy="-159.04" rx="59.29" ry="59.29"/>
<text text-anchor="middle" x="2113.4" y="-156.84" font-family="Times New Roman,serif" font-size="9.00">PACMAN CORR</text>
</g>
<!-- PACMAN CORR&#45;&gt;LEFT -->
<g id="edge20" class="edge">
<title>PACMAN CORR&#45;&gt;LEFT</title>
<path fill="none" stroke="red" stroke-width="0.55" d="M2068.28,-120.15C2059.24,-113.08 2049.66,-105.93 2040.4,-99.64 2009.25,-78.47 1971,-57.5 1946.91,-44.85"/>
</g>
<!-- ND CORR -->
<g id="node18" class="node">
<title>ND CORR</title>
<ellipse fill="lightcoral" stroke="black" cx="267.4" cy="-159.04" rx="40.11" ry="40.11"/>
<text text-anchor="middle" x="267.4" y="-156.84" font-family="Times New Roman,serif" font-size="9.00">ND CORR</text>
</g>
<!-- ND CORR&#45;&gt;UP -->
<g id="edge21" class="edge">
<title>ND CORR&#45;&gt;UP</title>
<path fill="none" stroke="green" stroke-width="1.05" d="M289.03,-124.94C296.86,-115.38 306.5,-105.85 317.4,-99.64 380.41,-63.72 608.33,-40.84 678.02,-34.57"/>
</g>
<!-- ND CORR&#45;&gt;DOWN -->
<g id="edge22" class="edge">
<title>ND CORR&#45;&gt;DOWN</title>
<path fill="none" stroke="green" stroke-width="0.39" d="M257.01,-119.79C252.05,-101.52 246.2,-79.97 241.57,-62.9"/>
</g>
<!-- ND DIST -->
<g id="node19" class="node">
<title>ND DIST</title>
<ellipse fill="lightcoral" stroke="black" cx="1606.4" cy="-613.52" rx="37.45" ry="37.45"/>
<text text-anchor="middle" x="1606.4" y="-611.32" font-family="Times New Roman,serif" font-size="9.00">ND DIST</text>
</g>
<!-- IN_INTERS -->
<g id="node20" class="node">
<title>IN_INTERS</title>
<ellipse fill="lightcoral" stroke="black" cx="698.4" cy="-159.04" rx="43.68" ry="43.68"/>
<text text-anchor="middle" x="698.4" y="-156.84" font-family="Times New Roman,serif" font-size="9.00">IN_INTERS</text>
</g>
<!-- IN_INTERS&#45;&gt;UP -->
<g id="edge23" class="edge">
<title>IN_INTERS&#45;&gt;UP</title>
<path fill="none" stroke="red" stroke-width="1.08" d="M698.4,-114.94C698.4,-93.72 698.4,-69.17 698.4,-52.48"/>
</g>
<!-- IN_INTERS&#45;&gt;DOWN -->
<g id="edge24" class="edge">
<title>IN_INTERS&#45;&gt;DOWN</title>
<path fill="none" stroke="green" stroke-width="0.1" d="M663.86,-131.28C647.55,-119.89 627.32,-107.45 607.4,-99.64 486.89,-52.39 331.35,-38.31 265.32,-34.32"/>
</g>
<!-- IN_INTERS&#45;&gt;RIGHT -->
<g id="edge25" class="edge">
<title>IN_INTERS&#45;&gt;RIGHT</title>
<path fill="none" stroke="green" stroke-width="0.17" d="M723.14,-122.84C731.14,-113.9 740.74,-105.25 751.4,-99.64 832.5,-56.99 1117.42,-39.18 1213.49,-34.3"/>
</g>
<!-- MOVING UP -->
<g id="node21" class="node">
<title>MOVING UP</title>
<ellipse fill="lightcoral" stroke="black" cx="1365.4" cy="-455.9" rx="48.58" ry="48.58"/>
<text text-anchor="middle" x="1365.4" y="-453.7" font-family="Times New Roman,serif" font-size="9.00">MOVING UP</text>
</g>
<!-- MOVING UP&#45;&gt;UP -->
<g id="edge26" class="edge">
<title>MOVING UP&#45;&gt;UP</title>
<path fill="none" stroke="green" stroke-width="0.2" d="M1334.02,-418.01C1325.9,-409.8 1316.78,-401.61 1307.4,-395.09 1274.71,-372.37 1255.21,-385.46 1225.4,-359.09 1124.98,-270.22 1181.6,-176.04 1071.4,-99.64 1013.14,-59.25 788.65,-39.51 719.08,-34.28"/>
</g>
<!-- MOVING UP&#45;&gt;6415 -->
<g id="edge32" class="edge">
<title>MOVING UP&#45;&gt;6415</title>
<path fill="none" stroke="red" stroke-width="0.18" d="M1337.27,-415.85C1316.79,-387.42 1289.89,-350.08 1273.66,-327.56"/>
</g>
<!-- 7292 -->
<g id="node37" class="node">
<title>7292</title>
<ellipse fill="lightgreen" stroke="black" cx="1365.4" cy="-306.76" rx="25" ry="25"/>
<text text-anchor="middle" x="1365.4" y="-304.56" font-family="Times New Roman,serif" font-size="9.00">7292</text>
</g>
<!-- MOVING UP&#45;&gt;7292 -->
<g id="edge43" class="edge">
<title>MOVING UP&#45;&gt;7292</title>
<path fill="none" stroke="green" stroke-width="0.37" d="M1365.4,-406.72C1365.4,-381.57 1365.4,-351.92 1365.4,-331.68"/>
</g>
<!-- MOVING DOWN -->
<g id="node22" class="node">
<title>MOVING DOWN</title>
<ellipse fill="lightcoral" stroke="black" cx="1722.4" cy="-613.52" rx="60.62" ry="60.62"/>
<text text-anchor="middle" x="1722.4" y="-611.32" font-family="Times New Roman,serif" font-size="9.00">MOVING DOWN</text>
</g>
<!-- MOVING RIGHT -->
<g id="node23" class="node">
<title>MOVING RIGHT</title>
<ellipse fill="lightcoral" stroke="black" cx="1661.4" cy="-455.9" rx="60.62" ry="60.62"/>
<text text-anchor="middle" x="1661.4" y="-453.7" font-family="Times New Roman,serif" font-size="9.00">MOVING RIGHT</text>
</g>
<!-- MOVING RIGHT&#45;&gt;RIGHT -->
<g id="edge27" class="edge">
<title>MOVING RIGHT&#45;&gt;RIGHT</title>
<path fill="none" stroke="green" stroke-width="0.68" d="M1639.49,-398.97C1635,-386.02 1630.65,-372.19 1627.4,-359.09 1613.37,-302.53 1629.64,-141.79 1589.4,-99.64 1546.6,-54.81 1354.02,-39.01 1277.19,-34.43"/>
</g>
<!-- MOVING RIGHT&#45;&gt;LEFT -->
<g id="edge28" class="edge">
<title>MOVING RIGHT&#45;&gt;LEFT</title>
<path fill="none" stroke="green" stroke-width="1.03" d="M1721.57,-446.74C1810.07,-433.38 1968.56,-403.75 2002.4,-359.09 2072.04,-267.18 2050.93,-204.24 2002.4,-99.64 1991.06,-75.2 1965.89,-56.46 1946.98,-45.13"/>
</g>
<!-- 7421 -->
<g id="node38" class="node">
<title>7421</title>
<ellipse fill="lightgreen" stroke="black" cx="1661.4" cy="-306.76" rx="25" ry="25"/>
<text text-anchor="middle" x="1661.4" y="-304.56" font-family="Times New Roman,serif" font-size="9.00">7421</text>
</g>
<!-- MOVING RIGHT&#45;&gt;7421 -->
<g id="edge46" class="edge">
<title>MOVING RIGHT&#45;&gt;7421</title>
<path fill="none" stroke="green" stroke-width="0.49" d="M1661.4,-395.05C1661.4,-372.77 1661.4,-348.76 1661.4,-331.56"/>
</g>
<!-- MOVING LEFT -->
<g id="node24" class="node">
<title>MOVING LEFT</title>
<ellipse fill="lightcoral" stroke="black" cx="1524.4" cy="-159.04" rx="55.72" ry="55.72"/>
<text text-anchor="middle" x="1524.4" y="-156.84" font-family="Times New Roman,serif" font-size="9.00">MOVING LEFT</text>
</g>
<!-- MOVING LEFT&#45;&gt;UP -->
<g id="edge29" class="edge">
<title>MOVING LEFT&#45;&gt;UP</title>
<path fill="none" stroke="green" stroke-width="0.31" d="M1487.1,-117.35C1478.68,-110.33 1469.28,-103.93 1459.4,-99.64 1389.61,-69.32 833.35,-39.66 718.93,-33.85"/>
</g>
<!-- MOVING LEFT&#45;&gt;LEFT -->
<g id="edge30" class="edge">
<title>MOVING LEFT&#45;&gt;LEFT</title>
<path fill="none" stroke="red" stroke-width="0.57" d="M1570.91,-127.82C1588.12,-117.69 1608.13,-107.09 1627.4,-99.64 1722.73,-62.79 1843.56,-43.42 1896.5,-36.19"/>
</g>
<!-- 6537&#45;&gt;LEFT -->
<g id="edge35" class="edge">
<title>6537&#45;&gt;LEFT</title>
<path fill="none" stroke="green" stroke-width="0.44" d="M1902.29,-134.48C1906.79,-112.81 1913.45,-80.73 1918.08,-58.42"/>
</g>
<!-- 6956 -->
<g id="node30" class="node">
<title>6956</title>
<ellipse fill="lightgreen" stroke="black" cx="1826.4" cy="-613.52" rx="25" ry="25"/>
<text text-anchor="middle" x="1826.4" y="-611.32" font-family="Times New Roman,serif" font-size="9.00">6956</text>
</g>
<!-- 7694&#45;&gt;UP -->
<g id="edge51" class="edge">
<title>7694&#45;&gt;UP</title>
<path fill="none" stroke="red" stroke-width="0.17" d="M898.72,-135.56C893.08,-123.51 884.67,-109.21 873.4,-99.64 826.68,-59.95 753.88,-42.48 718.74,-36.03"/>
</g>
<!-- 6415&#45;&gt;RIGHT -->
<g id="edge33" class="edge">
<title>6415&#45;&gt;RIGHT</title>
<path fill="none" stroke="green" stroke-width="0.45" d="M1259.4,-281.92C1259.25,-243.5 1258.29,-165.51 1253.4,-99.64 1252.52,-87.76 1251.07,-74.73 1249.64,-63.37"/>
</g>
<!-- 6415&#45;&gt;6537 -->
<g id="edge36" class="edge">
<title>6415&#45;&gt;6537</title>
<path fill="none" stroke="red" stroke-width="0.11" d="M1277.02,-288.91C1290.69,-276.98 1310.73,-261.83 1331.4,-254.43 1441.92,-214.87 1756.83,-277.28 1858.4,-218.43 1872.33,-210.37 1882.26,-195.09 1888.62,-182.19"/>
</g>
<!-- 7248 -->
<g id="node33" class="node">
<title>7248</title>
<ellipse fill="lightgreen" stroke="black" cx="1219.4" cy="-159.04" rx="25" ry="25"/>
<text text-anchor="middle" x="1219.4" y="-156.84" font-family="Times New Roman,serif" font-size="9.00">7248</text>
</g>
<!-- 6415&#45;&gt;7248 -->
<g id="edge41" class="edge">
<title>6415&#45;&gt;7248</title>
<path fill="none" stroke="green" stroke-width="0.39" d="M1253.06,-282.67C1245.57,-255.38 1233.19,-210.26 1225.71,-183.02"/>
</g>
<!-- 7248&#45;&gt;RIGHT -->
<g id="edge42" class="edge">
<title>7248&#45;&gt;RIGHT</title>
<path fill="none" stroke="green" stroke-width="0.26" d="M1224.29,-134.48C1228.47,-114.36 1234.51,-85.29 1239.06,-63.38"/>
</g>
<!-- 7133 -->
<g id="node34" class="node">
<title>7133</title>
<ellipse fill="lightgreen" stroke="black" cx="1661.4" cy="-159.04" rx="25" ry="25"/>
<text text-anchor="middle" x="1661.4" y="-156.84" font-family="Times New Roman,serif" font-size="9.00">7133</text>
</g>
<!-- 7133&#45;&gt;RIGHT -->
<g id="edge40" class="edge">
<title>7133&#45;&gt;RIGHT</title>
<path fill="none" stroke="red" stroke-width="0.58" d="M1652,-135.82C1645.52,-123.23 1635.67,-108.31 1622.4,-99.64 1565.29,-62.33 1357.42,-41.89 1277.24,-35.26"/>
</g>
<!-- 6738&#45;&gt;RIGHT -->
<g id="edge38" class="edge">
<title>6738&#45;&gt;RIGHT</title>
<path fill="none" stroke="green" stroke-width="0.55" d="M1109.79,-431.29C1101.83,-371.21 1088.26,-209.48 1152.4,-99.64 1166.94,-74.75 1194.84,-56.62 1216.31,-45.57"/>
</g>
<!-- 6738&#45;&gt;6415 -->
<g id="edge52" class="edge">
<title>6738&#45;&gt;6415</title>
<path fill="none" stroke="red" stroke-width="0.54" d="M1130.43,-437.73C1158.57,-409.38 1214.41,-353.1 1242.48,-324.82"/>
</g>
<!-- 7292&#45;&gt;RIGHT -->
<g id="edge44" class="edge">
<title>7292&#45;&gt;RIGHT</title>
<path fill="none" stroke="green" stroke-width="0.35" d="M1355.78,-283.89C1334.2,-234.8 1281.94,-115.93 1257.89,-61.23"/>
</g>
<!-- 7292&#45;&gt;6537 -->
<g id="edge49" class="edge">
<title>7292&#45;&gt;6537</title>
<path fill="none" stroke="red" stroke-width="0.25" d="M1389.54,-300.7C1435.66,-291.12 1539.52,-269.88 1627.4,-254.43 1729.74,-236.44 1770.83,-274.35 1858.4,-218.43 1871.86,-209.84 1881.76,-194.75 1888.21,-182.06"/>
</g>
<!-- 7421&#45;&gt;7133 -->
<g id="edge47" class="edge">
<title>7421&#45;&gt;7133</title>
<path fill="none" stroke="green" stroke-width="0.63" d="M1661.4,-281.7C1661.4,-254.7 1661.4,-211.15 1661.4,-184.14"/>
</g>
</g>
</svg>
