<?xml version="1.0" encoding="utf-8" standalone="no"?>
<!DOCTYPE svg PUBLIC "-//W3C//DTD SVG 1.1//EN"
  "http://www.w3.org/Graphics/SVG/1.1/DTD/svg11.dtd">
<svg xmlns:xlink="http://www.w3.org/1999/xlink" width="460.8pt" height="345.6pt" viewBox="0 0 460.8 345.6" xmlns="http://www.w3.org/2000/svg" version="1.1">
 <metadata>
  <rdf:RDF xmlns:dc="http://purl.org/dc/elements/1.1/" xmlns:cc="http://creativecommons.org/ns#" xmlns:rdf="http://www.w3.org/1999/02/22-rdf-syntax-ns#">
   <cc:Work>
    <dc:type rdf:resource="http://purl.org/dc/dcmitype/StillImage"/>
    <dc:date>2022-07-08T15:51:17.258125</dc:date>
    <dc:format>image/svg+xml</dc:format>
    <dc:creator>
     <cc:Agent>
      <dc:title>Matplotlib v3.5.2, https://matplotlib.org/</dc:title>
     </cc:Agent>
    </dc:creator>
   </cc:Work>
  </rdf:RDF>
 </metadata>
 <defs>
  <style type="text/css">*{stroke-linejoin: round; stroke-linecap: butt}</style>
 </defs>
 <g id="figure_1">
  <g id="patch_1">
   <path d="M 0 345.6 
L 460.8 345.6 
L 460.8 0 
L 0 0 
z
" style="fill: #ffffff"/>
  </g>
  <g id="axes_1">
   <g id="patch_2">
    <path d="M 57.6 307.584 
L 414.72 307.584 
L 414.72 41.472 
L 57.6 41.472 
z
" style="fill: #ffffff"/>
   </g>
   <g id="matplotlib.axis_1">
    <g id="xtick_1">
     <g id="line2d_1">
      <path d="M 73.832727 307.584 
L 73.832727 41.472 
" clip-path="url(#p501ff4c2f5)" style="fill: none; stroke: #b0b0b0; stroke-width: 0.8; stroke-linecap: square"/>
     </g>
     <g id="line2d_2">
      <defs>
       <path id="mb5cc7465b4" d="M 0 0 
L 0 3.5 
" style="stroke: #000000; stroke-width: 0.8"/>
      </defs>
      <g>
       <use xlink:href="#mb5cc7465b4" x="73.832727" y="307.584" style="stroke: #000000; stroke-width: 0.8"/>
      </g>
     </g>
     <g id="text_1">
      <!-- 0 -->
      <g transform="translate(70.651477 322.182437)scale(0.1 -0.1)">
       <defs>
        <path id="DejaVuSans-30" d="M 2034 4250 
Q 1547 4250 1301 3770 
Q 1056 3291 1056 2328 
Q 1056 1369 1301 889 
Q 1547 409 2034 409 
Q 2525 409 2770 889 
Q 3016 1369 3016 2328 
Q 3016 3291 2770 3770 
Q 2525 4250 2034 4250 
z
M 2034 4750 
Q 2819 4750 3233 4129 
Q 3647 3509 3647 2328 
Q 3647 1150 3233 529 
Q 2819 -91 2034 -91 
Q 1250 -91 836 529 
Q 422 1150 422 2328 
Q 422 3509 836 4129 
Q 1250 4750 2034 4750 
z
" transform="scale(0.015625)"/>
       </defs>
       <use xlink:href="#DejaVuSans-30"/>
      </g>
     </g>
    </g>
    <g id="xtick_2">
     <g id="line2d_3">
      <path d="M 114.618474 307.584 
L 114.618474 41.472 
" clip-path="url(#p501ff4c2f5)" style="fill: none; stroke: #b0b0b0; stroke-width: 0.8; stroke-linecap: square"/>
     </g>
     <g id="line2d_4">
      <g>
       <use xlink:href="#mb5cc7465b4" x="114.618474" y="307.584" style="stroke: #000000; stroke-width: 0.8"/>
      </g>
     </g>
     <g id="text_2">
      <!-- 25 -->
      <g transform="translate(108.255974 322.182437)scale(0.1 -0.1)">
       <defs>
        <path id="DejaVuSans-32" d="M 1228 531 
L 3431 531 
L 3431 0 
L 469 0 
L 469 531 
Q 828 903 1448 1529 
Q 2069 2156 2228 2338 
Q 2531 2678 2651 2914 
Q 2772 3150 2772 3378 
Q 2772 3750 2511 3984 
Q 2250 4219 1831 4219 
Q 1534 4219 1204 4116 
Q 875 4013 500 3803 
L 500 4441 
Q 881 4594 1212 4672 
Q 1544 4750 1819 4750 
Q 2544 4750 2975 4387 
Q 3406 4025 3406 3419 
Q 3406 3131 3298 2873 
Q 3191 2616 2906 2266 
Q 2828 2175 2409 1742 
Q 1991 1309 1228 531 
z
" transform="scale(0.015625)"/>
        <path id="DejaVuSans-35" d="M 691 4666 
L 3169 4666 
L 3169 4134 
L 1269 4134 
L 1269 2991 
Q 1406 3038 1543 3061 
Q 1681 3084 1819 3084 
Q 2600 3084 3056 2656 
Q 3513 2228 3513 1497 
Q 3513 744 3044 326 
Q 2575 -91 1722 -91 
Q 1428 -91 1123 -41 
Q 819 9 494 109 
L 494 744 
Q 775 591 1075 516 
Q 1375 441 1709 441 
Q 2250 441 2565 725 
Q 2881 1009 2881 1497 
Q 2881 1984 2565 2268 
Q 2250 2553 1709 2553 
Q 1456 2553 1204 2497 
Q 953 2441 691 2322 
L 691 4666 
z
" transform="scale(0.015625)"/>
       </defs>
       <use xlink:href="#DejaVuSans-32"/>
       <use xlink:href="#DejaVuSans-35" x="63.623047"/>
      </g>
     </g>
    </g>
    <g id="xtick_3">
     <g id="line2d_5">
      <path d="M 155.404221 307.584 
L 155.404221 41.472 
" clip-path="url(#p501ff4c2f5)" style="fill: none; stroke: #b0b0b0; stroke-width: 0.8; stroke-linecap: square"/>
     </g>
     <g id="line2d_6">
      <g>
       <use xlink:href="#mb5cc7465b4" x="155.404221" y="307.584" style="stroke: #000000; stroke-width: 0.8"/>
      </g>
     </g>
     <g id="text_3">
      <!-- 50 -->
      <g transform="translate(149.041721 322.182437)scale(0.1 -0.1)">
       <use xlink:href="#DejaVuSans-35"/>
       <use xlink:href="#DejaVuSans-30" x="63.623047"/>
      </g>
     </g>
    </g>
    <g id="xtick_4">
     <g id="line2d_7">
      <path d="M 196.189968 307.584 
L 196.189968 41.472 
" clip-path="url(#p501ff4c2f5)" style="fill: none; stroke: #b0b0b0; stroke-width: 0.8; stroke-linecap: square"/>
     </g>
     <g id="line2d_8">
      <g>
       <use xlink:href="#mb5cc7465b4" x="196.189968" y="307.584" style="stroke: #000000; stroke-width: 0.8"/>
      </g>
     </g>
     <g id="text_4">
      <!-- 75 -->
      <g transform="translate(189.827468 322.182437)scale(0.1 -0.1)">
       <defs>
        <path id="DejaVuSans-37" d="M 525 4666 
L 3525 4666 
L 3525 4397 
L 1831 0 
L 1172 0 
L 2766 4134 
L 525 4134 
L 525 4666 
z
" transform="scale(0.015625)"/>
       </defs>
       <use xlink:href="#DejaVuSans-37"/>
       <use xlink:href="#DejaVuSans-35" x="63.623047"/>
      </g>
     </g>
    </g>
    <g id="xtick_5">
     <g id="line2d_9">
      <path d="M 236.975715 307.584 
L 236.975715 41.472 
" clip-path="url(#p501ff4c2f5)" style="fill: none; stroke: #b0b0b0; stroke-width: 0.8; stroke-linecap: square"/>
     </g>
     <g id="line2d_10">
      <g>
       <use xlink:href="#mb5cc7465b4" x="236.975715" y="307.584" style="stroke: #000000; stroke-width: 0.8"/>
      </g>
     </g>
     <g id="text_5">
      <!-- 100 -->
      <g transform="translate(227.431965 322.182437)scale(0.1 -0.1)">
       <defs>
        <path id="DejaVuSans-31" d="M 794 531 
L 1825 531 
L 1825 4091 
L 703 3866 
L 703 4441 
L 1819 4666 
L 2450 4666 
L 2450 531 
L 3481 531 
L 3481 0 
L 794 0 
L 794 531 
z
" transform="scale(0.015625)"/>
       </defs>
       <use xlink:href="#DejaVuSans-31"/>
       <use xlink:href="#DejaVuSans-30" x="63.623047"/>
       <use xlink:href="#DejaVuSans-30" x="127.246094"/>
      </g>
     </g>
    </g>
    <g id="xtick_6">
     <g id="line2d_11">
      <path d="M 277.761462 307.584 
L 277.761462 41.472 
" clip-path="url(#p501ff4c2f5)" style="fill: none; stroke: #b0b0b0; stroke-width: 0.8; stroke-linecap: square"/>
     </g>
     <g id="line2d_12">
      <g>
       <use xlink:href="#mb5cc7465b4" x="277.761462" y="307.584" style="stroke: #000000; stroke-width: 0.8"/>
      </g>
     </g>
     <g id="text_6">
      <!-- 125 -->
      <g transform="translate(268.217712 322.182437)scale(0.1 -0.1)">
       <use xlink:href="#DejaVuSans-31"/>
       <use xlink:href="#DejaVuSans-32" x="63.623047"/>
       <use xlink:href="#DejaVuSans-35" x="127.246094"/>
      </g>
     </g>
    </g>
    <g id="xtick_7">
     <g id="line2d_13">
      <path d="M 318.547209 307.584 
L 318.547209 41.472 
" clip-path="url(#p501ff4c2f5)" style="fill: none; stroke: #b0b0b0; stroke-width: 0.8; stroke-linecap: square"/>
     </g>
     <g id="line2d_14">
      <g>
       <use xlink:href="#mb5cc7465b4" x="318.547209" y="307.584" style="stroke: #000000; stroke-width: 0.8"/>
      </g>
     </g>
     <g id="text_7">
      <!-- 150 -->
      <g transform="translate(309.003459 322.182437)scale(0.1 -0.1)">
       <use xlink:href="#DejaVuSans-31"/>
       <use xlink:href="#DejaVuSans-35" x="63.623047"/>
       <use xlink:href="#DejaVuSans-30" x="127.246094"/>
      </g>
     </g>
    </g>
    <g id="xtick_8">
     <g id="line2d_15">
      <path d="M 359.332956 307.584 
L 359.332956 41.472 
" clip-path="url(#p501ff4c2f5)" style="fill: none; stroke: #b0b0b0; stroke-width: 0.8; stroke-linecap: square"/>
     </g>
     <g id="line2d_16">
      <g>
       <use xlink:href="#mb5cc7465b4" x="359.332956" y="307.584" style="stroke: #000000; stroke-width: 0.8"/>
      </g>
     </g>
     <g id="text_8">
      <!-- 175 -->
      <g transform="translate(349.789206 322.182437)scale(0.1 -0.1)">
       <use xlink:href="#DejaVuSans-31"/>
       <use xlink:href="#DejaVuSans-37" x="63.623047"/>
       <use xlink:href="#DejaVuSans-35" x="127.246094"/>
      </g>
     </g>
    </g>
    <g id="xtick_9">
     <g id="line2d_17">
      <path d="M 400.118703 307.584 
L 400.118703 41.472 
" clip-path="url(#p501ff4c2f5)" style="fill: none; stroke: #b0b0b0; stroke-width: 0.8; stroke-linecap: square"/>
     </g>
     <g id="line2d_18">
      <g>
       <use xlink:href="#mb5cc7465b4" x="400.118703" y="307.584" style="stroke: #000000; stroke-width: 0.8"/>
      </g>
     </g>
     <g id="text_9">
      <!-- 200 -->
      <g transform="translate(390.574953 322.182437)scale(0.1 -0.1)">
       <use xlink:href="#DejaVuSans-32"/>
       <use xlink:href="#DejaVuSans-30" x="63.623047"/>
       <use xlink:href="#DejaVuSans-30" x="127.246094"/>
      </g>
     </g>
    </g>
    <g id="text_10">
     <!-- Generations -->
     <g transform="translate(205.662344 335.860562)scale(0.1 -0.1)">
      <defs>
       <path id="DejaVuSans-47" d="M 3809 666 
L 3809 1919 
L 2778 1919 
L 2778 2438 
L 4434 2438 
L 4434 434 
Q 4069 175 3628 42 
Q 3188 -91 2688 -91 
Q 1594 -91 976 548 
Q 359 1188 359 2328 
Q 359 3472 976 4111 
Q 1594 4750 2688 4750 
Q 3144 4750 3555 4637 
Q 3966 4525 4313 4306 
L 4313 3634 
Q 3963 3931 3569 4081 
Q 3175 4231 2741 4231 
Q 1884 4231 1454 3753 
Q 1025 3275 1025 2328 
Q 1025 1384 1454 906 
Q 1884 428 2741 428 
Q 3075 428 3337 486 
Q 3600 544 3809 666 
z
" transform="scale(0.015625)"/>
       <path id="DejaVuSans-65" d="M 3597 1894 
L 3597 1613 
L 953 1613 
Q 991 1019 1311 708 
Q 1631 397 2203 397 
Q 2534 397 2845 478 
Q 3156 559 3463 722 
L 3463 178 
Q 3153 47 2828 -22 
Q 2503 -91 2169 -91 
Q 1331 -91 842 396 
Q 353 884 353 1716 
Q 353 2575 817 3079 
Q 1281 3584 2069 3584 
Q 2775 3584 3186 3129 
Q 3597 2675 3597 1894 
z
M 3022 2063 
Q 3016 2534 2758 2815 
Q 2500 3097 2075 3097 
Q 1594 3097 1305 2825 
Q 1016 2553 972 2059 
L 3022 2063 
z
" transform="scale(0.015625)"/>
       <path id="DejaVuSans-6e" d="M 3513 2113 
L 3513 0 
L 2938 0 
L 2938 2094 
Q 2938 2591 2744 2837 
Q 2550 3084 2163 3084 
Q 1697 3084 1428 2787 
Q 1159 2491 1159 1978 
L 1159 0 
L 581 0 
L 581 3500 
L 1159 3500 
L 1159 2956 
Q 1366 3272 1645 3428 
Q 1925 3584 2291 3584 
Q 2894 3584 3203 3211 
Q 3513 2838 3513 2113 
z
" transform="scale(0.015625)"/>
       <path id="DejaVuSans-72" d="M 2631 2963 
Q 2534 3019 2420 3045 
Q 2306 3072 2169 3072 
Q 1681 3072 1420 2755 
Q 1159 2438 1159 1844 
L 1159 0 
L 581 0 
L 581 3500 
L 1159 3500 
L 1159 2956 
Q 1341 3275 1631 3429 
Q 1922 3584 2338 3584 
Q 2397 3584 2469 3576 
Q 2541 3569 2628 3553 
L 2631 2963 
z
" transform="scale(0.015625)"/>
       <path id="DejaVuSans-61" d="M 2194 1759 
Q 1497 1759 1228 1600 
Q 959 1441 959 1056 
Q 959 750 1161 570 
Q 1363 391 1709 391 
Q 2188 391 2477 730 
Q 2766 1069 2766 1631 
L 2766 1759 
L 2194 1759 
z
M 3341 1997 
L 3341 0 
L 2766 0 
L 2766 531 
Q 2569 213 2275 61 
Q 1981 -91 1556 -91 
Q 1019 -91 701 211 
Q 384 513 384 1019 
Q 384 1609 779 1909 
Q 1175 2209 1959 2209 
L 2766 2209 
L 2766 2266 
Q 2766 2663 2505 2880 
Q 2244 3097 1772 3097 
Q 1472 3097 1187 3025 
Q 903 2953 641 2809 
L 641 3341 
Q 956 3463 1253 3523 
Q 1550 3584 1831 3584 
Q 2591 3584 2966 3190 
Q 3341 2797 3341 1997 
z
" transform="scale(0.015625)"/>
       <path id="DejaVuSans-74" d="M 1172 4494 
L 1172 3500 
L 2356 3500 
L 2356 3053 
L 1172 3053 
L 1172 1153 
Q 1172 725 1289 603 
Q 1406 481 1766 481 
L 2356 481 
L 2356 0 
L 1766 0 
Q 1100 0 847 248 
Q 594 497 594 1153 
L 594 3053 
L 172 3053 
L 172 3500 
L 594 3500 
L 594 4494 
L 1172 4494 
z
" transform="scale(0.015625)"/>
       <path id="DejaVuSans-69" d="M 603 3500 
L 1178 3500 
L 1178 0 
L 603 0 
L 603 3500 
z
M 603 4863 
L 1178 4863 
L 1178 4134 
L 603 4134 
L 603 4863 
z
" transform="scale(0.015625)"/>
       <path id="DejaVuSans-6f" d="M 1959 3097 
Q 1497 3097 1228 2736 
Q 959 2375 959 1747 
Q 959 1119 1226 758 
Q 1494 397 1959 397 
Q 2419 397 2687 759 
Q 2956 1122 2956 1747 
Q 2956 2369 2687 2733 
Q 2419 3097 1959 3097 
z
M 1959 3584 
Q 2709 3584 3137 3096 
Q 3566 2609 3566 1747 
Q 3566 888 3137 398 
Q 2709 -91 1959 -91 
Q 1206 -91 779 398 
Q 353 888 353 1747 
Q 353 2609 779 3096 
Q 1206 3584 1959 3584 
z
" transform="scale(0.015625)"/>
       <path id="DejaVuSans-73" d="M 2834 3397 
L 2834 2853 
Q 2591 2978 2328 3040 
Q 2066 3103 1784 3103 
Q 1356 3103 1142 2972 
Q 928 2841 928 2578 
Q 928 2378 1081 2264 
Q 1234 2150 1697 2047 
L 1894 2003 
Q 2506 1872 2764 1633 
Q 3022 1394 3022 966 
Q 3022 478 2636 193 
Q 2250 -91 1575 -91 
Q 1294 -91 989 -36 
Q 684 19 347 128 
L 347 722 
Q 666 556 975 473 
Q 1284 391 1588 391 
Q 1994 391 2212 530 
Q 2431 669 2431 922 
Q 2431 1156 2273 1281 
Q 2116 1406 1581 1522 
L 1381 1569 
Q 847 1681 609 1914 
Q 372 2147 372 2553 
Q 372 3047 722 3315 
Q 1072 3584 1716 3584 
Q 2034 3584 2315 3537 
Q 2597 3491 2834 3397 
z
" transform="scale(0.015625)"/>
      </defs>
      <use xlink:href="#DejaVuSans-47"/>
      <use xlink:href="#DejaVuSans-65" x="77.490234"/>
      <use xlink:href="#DejaVuSans-6e" x="139.013672"/>
      <use xlink:href="#DejaVuSans-65" x="202.392578"/>
      <use xlink:href="#DejaVuSans-72" x="263.916016"/>
      <use xlink:href="#DejaVuSans-61" x="305.029297"/>
      <use xlink:href="#DejaVuSans-74" x="366.308594"/>
      <use xlink:href="#DejaVuSans-69" x="405.517578"/>
      <use xlink:href="#DejaVuSans-6f" x="433.300781"/>
      <use xlink:href="#DejaVuSans-6e" x="494.482422"/>
      <use xlink:href="#DejaVuSans-73" x="557.861328"/>
     </g>
    </g>
   </g>
   <g id="matplotlib.axis_2">
    <g id="ytick_1">
     <g id="line2d_19">
      <path d="M 57.6 289.826767 
L 414.72 289.826767 
" clip-path="url(#p501ff4c2f5)" style="fill: none; stroke: #b0b0b0; stroke-width: 0.8; stroke-linecap: square"/>
     </g>
     <g id="line2d_20">
      <defs>
       <path id="m83c0827f32" d="M 0 0 
L -3.5 0 
" style="stroke: #000000; stroke-width: 0.8"/>
      </defs>
      <g>
       <use xlink:href="#m83c0827f32" x="57.6" y="289.826767" style="stroke: #000000; stroke-width: 0.8"/>
      </g>
     </g>
     <g id="text_11">
      <!-- 0 -->
      <g transform="translate(44.2375 293.625986)scale(0.1 -0.1)">
       <use xlink:href="#DejaVuSans-30"/>
      </g>
     </g>
    </g>
    <g id="ytick_2">
     <g id="line2d_21">
      <path d="M 57.6 239.089044 
L 414.72 239.089044 
" clip-path="url(#p501ff4c2f5)" style="fill: none; stroke: #b0b0b0; stroke-width: 0.8; stroke-linecap: square"/>
     </g>
     <g id="line2d_22">
      <g>
       <use xlink:href="#m83c0827f32" x="57.6" y="239.089044" style="stroke: #000000; stroke-width: 0.8"/>
      </g>
     </g>
     <g id="text_12">
      <!-- 20 -->
      <g transform="translate(37.875 242.888263)scale(0.1 -0.1)">
       <use xlink:href="#DejaVuSans-32"/>
       <use xlink:href="#DejaVuSans-30" x="63.623047"/>
      </g>
     </g>
    </g>
    <g id="ytick_3">
     <g id="line2d_23">
      <path d="M 57.6 188.351321 
L 414.72 188.351321 
" clip-path="url(#p501ff4c2f5)" style="fill: none; stroke: #b0b0b0; stroke-width: 0.8; stroke-linecap: square"/>
     </g>
     <g id="line2d_24">
      <g>
       <use xlink:href="#m83c0827f32" x="57.6" y="188.351321" style="stroke: #000000; stroke-width: 0.8"/>
      </g>
     </g>
     <g id="text_13">
      <!-- 40 -->
      <g transform="translate(37.875 192.15054)scale(0.1 -0.1)">
       <defs>
        <path id="DejaVuSans-34" d="M 2419 4116 
L 825 1625 
L 2419 1625 
L 2419 4116 
z
M 2253 4666 
L 3047 4666 
L 3047 1625 
L 3713 1625 
L 3713 1100 
L 3047 1100 
L 3047 0 
L 2419 0 
L 2419 1100 
L 313 1100 
L 313 1709 
L 2253 4666 
z
" transform="scale(0.015625)"/>
       </defs>
       <use xlink:href="#DejaVuSans-34"/>
       <use xlink:href="#DejaVuSans-30" x="63.623047"/>
      </g>
     </g>
    </g>
    <g id="ytick_4">
     <g id="line2d_25">
      <path d="M 57.6 137.613598 
L 414.72 137.613598 
" clip-path="url(#p501ff4c2f5)" style="fill: none; stroke: #b0b0b0; stroke-width: 0.8; stroke-linecap: square"/>
     </g>
     <g id="line2d_26">
      <g>
       <use xlink:href="#m83c0827f32" x="57.6" y="137.613598" style="stroke: #000000; stroke-width: 0.8"/>
      </g>
     </g>
     <g id="text_14">
      <!-- 60 -->
      <g transform="translate(37.875 141.412817)scale(0.1 -0.1)">
       <defs>
        <path id="DejaVuSans-36" d="M 2113 2584 
Q 1688 2584 1439 2293 
Q 1191 2003 1191 1497 
Q 1191 994 1439 701 
Q 1688 409 2113 409 
Q 2538 409 2786 701 
Q 3034 994 3034 1497 
Q 3034 2003 2786 2293 
Q 2538 2584 2113 2584 
z
M 3366 4563 
L 3366 3988 
Q 3128 4100 2886 4159 
Q 2644 4219 2406 4219 
Q 1781 4219 1451 3797 
Q 1122 3375 1075 2522 
Q 1259 2794 1537 2939 
Q 1816 3084 2150 3084 
Q 2853 3084 3261 2657 
Q 3669 2231 3669 1497 
Q 3669 778 3244 343 
Q 2819 -91 2113 -91 
Q 1303 -91 875 529 
Q 447 1150 447 2328 
Q 447 3434 972 4092 
Q 1497 4750 2381 4750 
Q 2619 4750 2861 4703 
Q 3103 4656 3366 4563 
z
" transform="scale(0.015625)"/>
       </defs>
       <use xlink:href="#DejaVuSans-36"/>
       <use xlink:href="#DejaVuSans-30" x="63.623047"/>
      </g>
     </g>
    </g>
    <g id="ytick_5">
     <g id="line2d_27">
      <path d="M 57.6 86.875875 
L 414.72 86.875875 
" clip-path="url(#p501ff4c2f5)" style="fill: none; stroke: #b0b0b0; stroke-width: 0.8; stroke-linecap: square"/>
     </g>
     <g id="line2d_28">
      <g>
       <use xlink:href="#m83c0827f32" x="57.6" y="86.875875" style="stroke: #000000; stroke-width: 0.8"/>
      </g>
     </g>
     <g id="text_15">
      <!-- 80 -->
      <g transform="translate(37.875 90.675094)scale(0.1 -0.1)">
       <defs>
        <path id="DejaVuSans-38" d="M 2034 2216 
Q 1584 2216 1326 1975 
Q 1069 1734 1069 1313 
Q 1069 891 1326 650 
Q 1584 409 2034 409 
Q 2484 409 2743 651 
Q 3003 894 3003 1313 
Q 3003 1734 2745 1975 
Q 2488 2216 2034 2216 
z
M 1403 2484 
Q 997 2584 770 2862 
Q 544 3141 544 3541 
Q 544 4100 942 4425 
Q 1341 4750 2034 4750 
Q 2731 4750 3128 4425 
Q 3525 4100 3525 3541 
Q 3525 3141 3298 2862 
Q 3072 2584 2669 2484 
Q 3125 2378 3379 2068 
Q 3634 1759 3634 1313 
Q 3634 634 3220 271 
Q 2806 -91 2034 -91 
Q 1263 -91 848 271 
Q 434 634 434 1313 
Q 434 1759 690 2068 
Q 947 2378 1403 2484 
z
M 1172 3481 
Q 1172 3119 1398 2916 
Q 1625 2713 2034 2713 
Q 2441 2713 2670 2916 
Q 2900 3119 2900 3481 
Q 2900 3844 2670 4047 
Q 2441 4250 2034 4250 
Q 1625 4250 1398 4047 
Q 1172 3844 1172 3481 
z
" transform="scale(0.015625)"/>
       </defs>
       <use xlink:href="#DejaVuSans-38"/>
       <use xlink:href="#DejaVuSans-30" x="63.623047"/>
      </g>
     </g>
    </g>
    <g id="text_16">
     <!-- Fitness -->
     <g transform="translate(31.795312 191.845187)rotate(-90)scale(0.1 -0.1)">
      <defs>
       <path id="DejaVuSans-46" d="M 628 4666 
L 3309 4666 
L 3309 4134 
L 1259 4134 
L 1259 2759 
L 3109 2759 
L 3109 2228 
L 1259 2228 
L 1259 0 
L 628 0 
L 628 4666 
z
" transform="scale(0.015625)"/>
      </defs>
      <use xlink:href="#DejaVuSans-46"/>
      <use xlink:href="#DejaVuSans-69" x="50.269531"/>
      <use xlink:href="#DejaVuSans-74" x="78.052734"/>
      <use xlink:href="#DejaVuSans-6e" x="117.261719"/>
      <use xlink:href="#DejaVuSans-65" x="180.640625"/>
      <use xlink:href="#DejaVuSans-73" x="242.164062"/>
      <use xlink:href="#DejaVuSans-73" x="294.263672"/>
     </g>
    </g>
   </g>
   <g id="line2d_29">
    <path d="M 73.832727 270.058885 
L 75.464157 266.469253 
L 77.095587 267.290513 
L 78.727017 267.067865 
L 80.358447 266.71275 
L 81.989877 266.545775 
L 83.621307 263.032212 
L 85.252736 266.344891 
L 86.884166 267.523583 
L 88.515596 265.315522 
L 90.147026 260.539085 
L 91.778456 260.882152 
L 93.409886 266.556833 
L 95.041316 265.93504 
L 96.672746 262.877598 
L 98.304175 266.706547 
L 99.935605 265.894524 
L 101.567035 268.17188 
L 103.198465 263.403474 
L 104.829895 262.201201 
L 106.461325 262.315419 
L 108.092755 264.309493 
L 109.724185 264.218119 
L 111.355614 262.439228 
L 112.987044 263.769498 
L 114.618474 266.797011 
L 116.249904 264.020762 
L 117.881334 262.915229 
L 119.512764 262.86291 
L 121.144194 264.816188 
L 122.775624 264.567144 
L 124.407053 265.733878 
L 126.038483 260.749217 
L 127.669913 262.852727 
L 129.301343 265.460097 
L 132.564203 260.457504 
L 134.195633 264.856777 
L 135.827063 266.4881 
L 137.458492 259.926943 
L 139.089922 263.869083 
L 140.721352 263.777708 
L 142.352782 260.294726 
L 143.984212 261.573754 
L 145.615642 260.873784 
L 147.247072 261.149673 
L 148.878502 256.84852 
L 150.509931 261.216563 
L 152.141361 257.880978 
L 153.772791 258.091317 
L 155.404221 259.070307 
L 157.035651 255.865526 
L 158.667081 259.671965 
L 160.298511 261.282208 
L 161.929941 257.573861 
L 163.56137 260.393139 
L 165.1928 258.561573 
L 166.82423 255.036561 
L 168.45566 266.336471 
L 170.08709 261.735995 
L 171.71852 262.651783 
L 173.34995 262.37841 
L 174.98138 259.690185 
L 176.61281 261.177438 
L 178.244239 260.880939 
L 179.875669 259.710261 
L 181.507099 258.778382 
L 183.138529 259.010252 
L 184.769959 261.233039 
L 186.401389 260.606077 
L 188.032819 256.891692 
L 189.664249 257.595018 
L 191.295678 258.046761 
L 192.927108 255.32426 
L 194.558538 258.23408 
L 196.189968 258.038661 
L 197.821398 250.588523 
L 199.452828 259.134091 
L 201.084258 262.540504 
L 202.715688 259.964979 
L 204.347117 259.397635 
L 205.978547 258.653804 
L 207.609977 261.243582 
L 209.241407 258.357565 
L 210.872837 260.014692 
L 212.504267 259.131173 
L 214.135697 261.063644 
L 215.767127 257.031878 
L 217.398556 253.52614 
L 219.029986 257.459923 
L 220.661416 256.3283 
L 222.292846 259.366156 
L 223.924276 255.24991 
L 225.555706 254.686015 
L 227.187136 258.279287 
L 228.818566 255.519876 
L 230.449995 258.010654 
L 232.081425 261.485025 
L 233.712855 260.596189 
L 235.344285 264.411182 
L 236.975715 264.512055 
L 238.607145 266.168306 
L 240.238575 257.133612 
L 241.870005 263.206793 
L 243.501434 262.227451 
L 245.132864 258.234034 
L 246.764294 259.609748 
L 248.395724 258.37836 
L 250.027154 260.203816 
L 251.658584 262.350826 
L 253.290014 259.520399 
L 254.921444 260.711879 
L 256.552873 261.489411 
L 258.184303 260.319718 
L 259.815733 260.578632 
L 261.447163 258.750238 
L 264.710023 260.432517 
L 266.341453 263.437423 
L 267.972883 260.395454 
L 269.604312 253.510162 
L 271.235742 262.573208 
L 272.867172 258.123917 
L 274.498602 263.732218 
L 276.130032 259.742831 
L 277.761462 254.897951 
L 279.392892 254.342397 
L 281.024322 259.801858 
L 282.655751 258.242409 
L 284.287181 260.075353 
L 285.918611 255.922059 
L 287.550041 255.821443 
L 289.181471 259.128241 
L 290.812901 255.065094 
L 292.444331 256.559201 
L 294.075761 260.575909 
L 295.70719 263.217022 
L 297.33862 257.571845 
L 298.97005 260.909652 
L 300.60148 256.84175 
L 302.23291 261.742977 
L 303.86434 261.387886 
L 305.49577 260.609658 
L 307.1272 258.052153 
L 308.75863 258.909219 
L 310.390059 260.63841 
L 312.021489 255.666836 
L 313.652919 259.811759 
L 315.284349 259.282979 
L 316.915779 265.206988 
L 318.547209 258.962851 
L 320.178639 262.594312 
L 321.810069 261.19062 
L 323.441498 262.525682 
L 325.072928 260.133627 
L 326.704358 257.402852 
L 328.335788 261.623824 
L 329.967218 258.635771 
L 331.598648 263.151742 
L 333.230078 262.140817 
L 334.861508 258.809152 
L 336.492937 261.237282 
L 338.124367 255.52382 
L 339.755797 251.664846 
L 341.387227 256.933457 
L 343.018657 253.48838 
L 344.650087 252.615157 
L 346.281517 256.26677 
L 347.912947 256.604597 
L 349.544376 261.77706 
L 351.175806 256.629607 
L 352.807236 261.806618 
L 354.438666 260.423654 
L 356.070096 265.273461 
L 357.701526 258.947301 
L 359.332956 254.622004 
L 360.964386 257.401693 
L 362.595815 255.112943 
L 364.227245 259.733806 
L 365.858675 255.067051 
L 367.490105 253.136236 
L 369.121535 252.640039 
L 370.752965 254.871762 
L 372.384395 258.182311 
L 374.015825 255.414903 
L 375.647254 248.978046 
L 377.278684 249.536604 
L 378.910114 259.310082 
L 380.541544 260.392132 
L 382.172974 258.778615 
L 383.804404 257.8545 
L 385.435834 254.281425 
L 387.067264 262.932519 
L 388.698693 262.339145 
L 390.330123 257.268341 
L 391.961553 255.156406 
L 393.592983 255.590765 
L 395.224413 260.066295 
L 396.855843 258.943814 
L 398.487273 258.123775 
L 398.487273 258.123775 
" clip-path="url(#p501ff4c2f5)" style="fill: none; stroke: #0000ff; stroke-width: 1.5; stroke-linecap: square"/>
   </g>
   <g id="line2d_30">
    <path d="M 73.832727 285.56707 
L 75.464157 286.933989 
L 77.095587 288.809946 
L 78.727017 288.173879 
L 80.358447 285.25092 
L 81.989877 285.262164 
L 83.621307 286.284059 
L 85.252736 290.011763 
L 86.884166 285.541549 
L 88.515596 288.848755 
L 90.147026 287.171293 
L 91.778456 286.074006 
L 93.409886 288.617213 
L 95.041316 288.749374 
L 96.672746 287.644907 
L 98.304175 292.08013 
L 99.935605 286.703312 
L 101.567035 292.355981 
L 103.198465 290.397215 
L 104.829895 292.699624 
L 106.461325 288.038044 
L 108.092755 284.775968 
L 109.724185 285.79937 
L 111.355614 284.611653 
L 112.987044 285.31803 
L 114.618474 284.11602 
L 116.249904 289.422712 
L 117.881334 289.39515 
L 119.512764 286.947784 
L 121.144194 288.30683 
L 122.775624 289.144053 
L 124.407053 288.032528 
L 126.038483 285.562173 
L 127.669913 289.668573 
L 129.301343 283.770761 
L 130.932773 289.849899 
L 132.564203 286.940518 
L 134.195633 291.328238 
L 135.827063 289.981558 
L 137.458492 285.169631 
L 139.089922 292.96538 
L 140.721352 286.749318 
L 142.352782 283.937782 
L 143.984212 286.742155 
L 145.615642 287.752632 
L 147.247072 282.403475 
L 148.878502 280.725619 
L 150.509931 287.008288 
L 152.141361 281.642456 
L 153.772791 286.936932 
L 155.404221 281.481598 
L 157.035651 280.822969 
L 158.667081 285.801844 
L 160.298511 287.308345 
L 161.929941 285.57005 
L 163.56137 284.766326 
L 165.1928 288.159236 
L 166.82423 280.259161 
L 168.45566 291.986115 
L 170.08709 290.341086 
L 171.71852 291.362466 
L 173.34995 288.982249 
L 174.98138 284.718426 
L 176.61281 286.699391 
L 178.244239 285.55874 
L 179.875669 288.021267 
L 181.507099 284.499847 
L 184.769959 290.123117 
L 186.401389 289.508238 
L 188.032819 289.19707 
L 189.664249 287.040855 
L 191.295678 287.840314 
L 192.927108 283.467561 
L 194.558538 284.927608 
L 196.189968 289.450901 
L 197.821398 283.14319 
L 199.452828 283.868814 
L 201.084258 287.743445 
L 202.715688 283.853898 
L 204.347117 284.837474 
L 205.978547 284.197598 
L 207.609977 289.674701 
L 209.241407 287.091324 
L 210.872837 286.112408 
L 212.504267 285.839912 
L 214.135697 285.969486 
L 215.767127 284.083791 
L 217.398556 285.86631 
L 219.029986 287.217434 
L 220.661416 284.114685 
L 222.292846 286.948151 
L 223.924276 281.343952 
L 225.555706 280.799941 
L 227.187136 285.627893 
L 228.818566 282.956521 
L 230.449995 287.719245 
L 232.081425 285.668701 
L 233.712855 286.371801 
L 235.344285 293.927175 
L 236.975715 294.475466 
L 238.607145 292.36259 
L 240.238575 285.114894 
L 241.870005 290.093907 
L 243.501434 290.775323 
L 245.132864 287.471704 
L 246.764294 289.189328 
L 248.395724 288.716787 
L 250.027154 287.652982 
L 251.658584 289.901656 
L 253.290014 287.094596 
L 256.552873 289.57266 
L 258.184303 288.340769 
L 259.815733 290.133467 
L 261.447163 288.585007 
L 263.078593 286.43515 
L 264.710023 289.582242 
L 266.341453 287.439846 
L 267.972883 288.578686 
L 269.604312 282.7969 
L 271.235742 290.034018 
L 272.867172 287.377511 
L 274.498602 293.034312 
L 276.130032 285.680879 
L 277.761462 282.111474 
L 279.392892 284.757862 
L 281.024322 286.484416 
L 282.655751 282.36484 
L 284.287181 287.628455 
L 285.918611 285.444461 
L 287.550041 285.197878 
L 289.181471 288.189302 
L 290.812901 284.914757 
L 292.444331 285.397898 
L 294.075761 292.795472 
L 295.70719 291.436528 
L 297.33862 286.415856 
L 298.97005 287.880999 
L 300.60148 285.514046 
L 302.23291 289.968055 
L 303.86434 287.898852 
L 305.49577 287.466356 
L 307.1272 288.190373 
L 308.75863 287.779717 
L 310.390059 288.749692 
L 312.021489 287.540543 
L 313.652919 289.241109 
L 315.284349 288.272129 
L 316.915779 293.715136 
L 318.547209 288.755571 
L 320.178639 287.952205 
L 321.810069 295.488 
L 323.441498 291.127061 
L 325.072928 292.963326 
L 326.704358 286.575952 
L 328.335788 291.827342 
L 329.967218 286.308325 
L 331.598648 289.847728 
L 333.230078 288.428763 
L 334.861508 286.682883 
L 336.492937 290.839592 
L 339.755797 279.862233 
L 341.387227 285.258255 
L 343.018657 284.965655 
L 344.650087 285.708843 
L 346.281517 282.30924 
L 347.912947 286.037733 
L 349.544376 287.547755 
L 351.175806 282.48359 
L 352.807236 290.398172 
L 354.438666 290.818741 
L 356.070096 290.644197 
L 357.701526 288.809393 
L 359.332956 278.83125 
L 360.964386 285.594636 
L 362.595815 282.199398 
L 364.227245 291.465083 
L 365.858675 293.515465 
L 367.490105 285.878503 
L 369.121535 283.681004 
L 370.752965 285.1942 
L 372.384395 285.273568 
L 374.015825 284.354027 
L 375.647254 283.174779 
L 377.278684 275.261597 
L 378.910114 287.988541 
L 380.541544 286.861023 
L 382.172974 286.880008 
L 383.804404 287.40899 
L 385.435834 280.767737 
L 387.067264 288.113275 
L 388.698693 288.810258 
L 390.330123 284.032532 
L 391.961553 283.19335 
L 393.592983 284.280048 
L 395.224413 289.159005 
L 396.855843 290.23847 
L 398.487273 286.042061 
L 398.487273 286.042061 
" clip-path="url(#p501ff4c2f5)" style="fill: none; stroke-dasharray: 9.6,2.4,1.5,2.4; stroke-dashoffset: 0; stroke: #008000; stroke-width: 1.5"/>
   </g>
   <g id="line2d_31">
    <path d="M 73.832727 254.550701 
L 75.464157 246.004517 
L 77.095587 245.771079 
L 78.727017 245.96185 
L 80.358447 248.174579 
L 81.989877 247.829386 
L 83.621307 239.780365 
L 85.252736 242.678018 
L 86.884166 249.505616 
L 90.147026 233.906878 
L 91.778456 235.690298 
L 93.409886 244.496454 
L 95.041316 243.120705 
L 96.672746 238.11029 
L 98.304175 241.332964 
L 99.935605 245.085737 
L 101.567035 243.98778 
L 103.198465 236.409733 
L 104.829895 231.702779 
L 106.461325 236.592793 
L 108.092755 243.843018 
L 109.724185 242.636868 
L 111.355614 240.266803 
L 112.987044 242.220965 
L 114.618474 249.478002 
L 116.249904 238.618812 
L 117.881334 236.435309 
L 119.512764 238.778037 
L 121.144194 241.325546 
L 122.775624 239.990235 
L 124.407053 243.435229 
L 126.038483 235.936261 
L 127.669913 236.036882 
L 129.301343 247.149432 
L 130.932773 236.017276 
L 132.564203 233.974491 
L 135.827063 242.994642 
L 137.458492 234.684256 
L 139.089922 234.772787 
L 140.721352 240.806098 
L 142.352782 236.651671 
L 143.984212 236.405354 
L 145.615642 233.994935 
L 147.247072 239.895871 
L 148.878502 232.971421 
L 150.509931 235.424838 
L 152.141361 234.119501 
L 153.772791 229.245702 
L 155.404221 236.659016 
L 157.035651 230.908083 
L 158.667081 233.542087 
L 160.298511 235.25607 
L 161.929941 229.577672 
L 163.56137 236.019952 
L 165.1928 228.96391 
L 166.82423 229.813961 
L 168.45566 240.686828 
L 170.08709 233.130903 
L 171.71852 233.9411 
L 173.34995 235.774572 
L 174.98138 234.661943 
L 176.61281 235.655486 
L 178.244239 236.203138 
L 179.875669 231.399256 
L 181.507099 233.056916 
L 183.138529 230.685416 
L 184.769959 232.34296 
L 186.401389 231.703916 
L 188.032819 224.586314 
L 189.664249 228.149181 
L 191.295678 228.253208 
L 192.927108 227.18096 
L 194.558538 231.540553 
L 196.189968 226.626422 
L 197.821398 218.033857 
L 199.452828 234.399369 
L 201.084258 237.337563 
L 202.715688 236.07606 
L 204.347117 233.957795 
L 205.978547 233.11001 
L 207.609977 232.812463 
L 209.241407 229.623807 
L 210.872837 233.916975 
L 212.504267 232.422435 
L 214.135697 236.157802 
L 215.767127 229.979965 
L 217.398556 221.18597 
L 219.029986 227.702411 
L 220.661416 228.541914 
L 222.292846 231.78416 
L 223.924276 229.155867 
L 225.555706 228.57209 
L 227.187136 230.930681 
L 228.818566 228.083231 
L 230.449995 228.302062 
L 232.081425 237.301348 
L 233.712855 234.820578 
L 235.344285 234.89519 
L 236.975715 234.548644 
L 238.607145 239.974022 
L 240.238575 229.152329 
L 241.870005 236.319679 
L 243.501434 233.679579 
L 245.132864 228.996364 
L 246.764294 230.030167 
L 248.395724 228.039933 
L 250.027154 232.754649 
L 251.658584 234.799997 
L 253.290014 231.946203 
L 254.921444 233.098986 
L 256.552873 233.406163 
L 258.184303 232.298667 
L 259.815733 231.023798 
L 261.447163 228.915468 
L 263.078593 232.705914 
L 264.710023 231.282792 
L 266.341453 239.435 
L 267.972883 232.212221 
L 269.604312 224.223424 
L 271.235742 235.112398 
L 272.867172 228.870322 
L 274.498602 234.430124 
L 276.130032 233.804782 
L 277.761462 227.684428 
L 279.392892 223.926933 
L 281.024322 233.1193 
L 282.655751 234.119978 
L 284.287181 232.522251 
L 285.918611 226.399658 
L 287.550041 226.445008 
L 289.181471 230.06718 
L 290.812901 225.215431 
L 292.444331 227.720504 
L 294.075761 228.356347 
L 295.70719 234.997517 
L 297.33862 228.727834 
L 298.97005 233.938306 
L 300.60148 228.169454 
L 302.23291 233.517899 
L 303.86434 234.876921 
L 305.49577 233.752961 
L 307.1272 227.913932 
L 308.75863 230.03872 
L 310.390059 232.527128 
L 312.021489 223.793128 
L 313.652919 230.38241 
L 315.284349 230.293829 
L 316.915779 236.698841 
L 318.547209 229.170131 
L 320.178639 237.236418 
L 321.810069 226.893239 
L 323.441498 233.924303 
L 325.072928 227.303929 
L 326.704358 228.229751 
L 328.335788 231.420305 
L 329.967218 230.963217 
L 331.598648 236.455756 
L 333.230078 235.852871 
L 334.861508 230.935421 
L 336.492937 231.634971 
L 338.124367 225.616796 
L 339.755797 223.467459 
L 341.387227 228.608659 
L 343.018657 222.011105 
L 344.650087 219.521471 
L 346.281517 230.2243 
L 347.912947 227.171461 
L 349.544376 236.006365 
L 351.175806 230.775624 
L 352.807236 233.215063 
L 354.438666 230.028567 
L 356.070096 239.902725 
L 357.701526 229.085209 
L 359.332956 230.412758 
L 362.595815 228.026488 
L 364.227245 228.002529 
L 365.858675 216.618636 
L 367.490105 220.393969 
L 369.121535 221.599074 
L 370.752965 224.549323 
L 372.384395 231.091055 
L 374.015825 226.47578 
L 375.647254 214.781312 
L 377.278684 223.811611 
L 378.910114 230.631624 
L 380.541544 233.92324 
L 382.172974 230.677222 
L 383.804404 228.300009 
L 385.435834 227.795113 
L 387.067264 237.751763 
L 388.698693 235.868031 
L 390.330123 230.504151 
L 391.961553 227.119462 
L 393.592983 226.901483 
L 395.224413 230.973585 
L 396.855843 227.649158 
L 398.487273 230.20549 
L 398.487273 230.20549 
" clip-path="url(#p501ff4c2f5)" style="fill: none; stroke-dasharray: 9.6,2.4,1.5,2.4; stroke-dashoffset: 0; stroke: #008000; stroke-width: 1.5"/>
   </g>
   <g id="line2d_32">
    <path d="M 73.832727 205.510708 
L 77.095587 103.401116 
L 78.727017 90.830149 
L 80.358447 184.133788 
L 81.989877 176.465902 
L 83.621307 145.116059 
L 85.252736 106.72201 
L 86.884166 196.987116 
L 88.515596 109.057781 
L 90.147026 144.719708 
L 91.778456 94.915416 
L 93.409886 174.770364 
L 95.041316 158.721571 
L 96.672746 147.632933 
L 98.304175 144.275552 
L 99.935605 170.921606 
L 101.567035 180.33897 
L 103.198465 131.558124 
L 106.461325 166.331318 
L 108.092755 181.887073 
L 109.724185 158.559992 
L 111.355614 185.84339 
L 112.987044 166.896657 
L 114.618474 190.593177 
L 116.249904 123.620099 
L 117.881334 152.137017 
L 119.512764 171.89082 
L 121.144194 157.83367 
L 122.775624 153.60318 
L 124.407053 180.085645 
L 126.038483 168.776898 
L 127.669913 148.38114 
L 129.301343 184.606931 
L 130.932773 146.486069 
L 132.564203 145.948345 
L 134.195633 132.679102 
L 135.827063 180.083266 
L 137.458492 140.290158 
L 139.089922 145.882916 
L 140.721352 192.191059 
L 143.984212 155.385487 
L 145.615642 141.791868 
L 147.247072 190.595186 
L 148.878502 166.654303 
L 150.509931 154.511257 
L 152.141361 136.524963 
L 153.772791 111.41439 
L 155.404221 185.920799 
L 157.035651 180.919131 
L 158.667081 162.690868 
L 160.298511 131.447373 
L 161.929941 151.36501 
L 163.56137 155.052858 
L 165.1928 118.235248 
L 166.82423 161.099952 
L 168.45566 150.851797 
L 170.08709 148.915179 
L 171.71852 183.700485 
L 173.34995 164.425483 
L 174.98138 177.867751 
L 176.61281 147.143007 
L 178.244239 188.982914 
L 179.875669 149.575035 
L 181.507099 172.401164 
L 183.138529 126.673027 
L 184.769959 124.097304 
L 186.401389 128.138218 
L 188.032819 80.561766 
L 189.664249 130.619867 
L 191.295678 123.714032 
L 192.927108 154.046712 
L 194.558538 137.407097 
L 196.189968 141.786151 
L 197.821398 111.282395 
L 199.452828 170.887611 
L 201.084258 172.090975 
L 202.715688 166.350151 
L 204.347117 178.423231 
L 205.978547 177.727057 
L 207.609977 132.261276 
L 209.241407 110.087225 
L 210.872837 168.04912 
L 212.504267 162.134243 
L 214.135697 163.303819 
L 215.767127 181.993114 
L 217.398556 119.122625 
L 219.029986 93.575624 
L 220.661416 140.270978 
L 222.292846 132.646281 
L 223.924276 120.013338 
L 225.555706 136.88607 
L 227.187136 174.92154 
L 228.818566 135.807681 
L 230.449995 137.264206 
L 232.081425 180.764718 
L 233.712855 183.636159 
L 235.344285 149.727383 
L 236.975715 122.833428 
L 238.607145 177.181388 
L 240.238575 164.699249 
L 241.870005 167.089729 
L 243.501434 171.067129 
L 245.132864 137.465465 
L 246.764294 142.206828 
L 248.395724 147.613759 
L 250.027154 158.975791 
L 251.658584 168.039098 
L 253.290014 166.974254 
L 254.921444 164.552163 
L 256.552873 146.829526 
L 258.184303 156.473498 
L 259.815733 131.709198 
L 261.447163 164.703509 
L 263.078593 143.864568 
L 264.710023 186.061679 
L 266.341453 191.454272 
L 267.972883 170.411509 
L 269.604312 157.214461 
L 271.235742 168.298155 
L 272.867172 117.910016 
L 274.498602 140.230549 
L 276.130032 169.056265 
L 277.761462 114.594128 
L 279.392892 133.850095 
L 281.024322 172.303198 
L 282.655751 180.185703 
L 284.287181 158.744271 
L 285.918611 125.078648 
L 287.550041 138.945956 
L 289.181471 150.462778 
L 290.812901 140.486782 
L 292.444331 159.841699 
L 294.075761 131.011499 
L 295.70719 145.871549 
L 297.33862 154.960151 
L 298.97005 175.342134 
L 300.60148 158.109048 
L 302.23291 165.687078 
L 303.86434 166.255006 
L 305.49577 170.830712 
L 307.1272 151.292734 
L 308.75863 173.536302 
L 310.390059 164.583416 
L 312.021489 132.438503 
L 313.652919 126.518794 
L 315.284349 147.544306 
L 316.915779 115.528774 
L 318.547209 151.977719 
L 320.178639 194.841002 
L 321.810069 138.625593 
L 323.441498 165.501429 
L 325.072928 53.568 
L 326.704358 110.962204 
L 328.335788 87.291456 
L 329.967218 160.569614 
L 331.598648 176.602788 
L 333.230078 180.453816 
L 334.861508 168.577527 
L 336.492937 164.079926 
L 338.124367 161.877644 
L 339.755797 174.707239 
L 341.387227 155.422181 
L 343.018657 145.752591 
L 344.650087 106.745385 
L 346.281517 157.770418 
L 347.912947 144.557343 
L 349.544376 184.93404 
L 351.175806 156.438275 
L 352.807236 148.126742 
L 354.438666 170.299549 
L 356.070096 170.332861 
L 359.332956 194.441088 
L 360.964386 112.253035 
L 362.595815 163.277587 
L 364.227245 176.737492 
L 365.858675 87.047252 
L 367.490105 154.259942 
L 369.121535 137.72552 
L 370.752965 90.640087 
L 372.384395 193.134705 
L 375.647254 120.787849 
L 377.278684 165.887961 
L 378.910114 156.233091 
L 380.541544 168.014026 
L 382.172974 127.22165 
L 383.804404 107.072627 
L 385.435834 160.163714 
L 387.067264 157.250239 
L 388.698693 193.1017 
L 390.330123 136.469652 
L 391.961553 148.1234 
L 393.592983 156.178094 
L 395.224413 150.734461 
L 396.855843 117.581299 
L 398.487273 182.876912 
L 398.487273 182.876912 
" clip-path="url(#p501ff4c2f5)" style="fill: none; stroke: #ff0000; stroke-width: 1.5; stroke-linecap: square"/>
   </g>
   <g id="patch_3">
    <path d="M 57.6 307.584 
L 57.6 41.472 
" style="fill: none; stroke: #000000; stroke-width: 0.8; stroke-linejoin: miter; stroke-linecap: square"/>
   </g>
   <g id="patch_4">
    <path d="M 414.72 307.584 
L 414.72 41.472 
" style="fill: none; stroke: #000000; stroke-width: 0.8; stroke-linejoin: miter; stroke-linecap: square"/>
   </g>
   <g id="patch_5">
    <path d="M 57.6 307.584 
L 414.72 307.584 
" style="fill: none; stroke: #000000; stroke-width: 0.8; stroke-linejoin: miter; stroke-linecap: square"/>
   </g>
   <g id="patch_6">
    <path d="M 57.6 41.472 
L 414.72 41.472 
" style="fill: none; stroke: #000000; stroke-width: 0.8; stroke-linejoin: miter; stroke-linecap: square"/>
   </g>
   <g id="text_17">
    <!-- Population's average and best fitness -->
    <g transform="translate(123.529687 35.472)scale(0.12 -0.12)">
     <defs>
      <path id="DejaVuSans-50" d="M 1259 4147 
L 1259 2394 
L 2053 2394 
Q 2494 2394 2734 2622 
Q 2975 2850 2975 3272 
Q 2975 3691 2734 3919 
Q 2494 4147 2053 4147 
L 1259 4147 
z
M 628 4666 
L 2053 4666 
Q 2838 4666 3239 4311 
Q 3641 3956 3641 3272 
Q 3641 2581 3239 2228 
Q 2838 1875 2053 1875 
L 1259 1875 
L 1259 0 
L 628 0 
L 628 4666 
z
" transform="scale(0.015625)"/>
      <path id="DejaVuSans-70" d="M 1159 525 
L 1159 -1331 
L 581 -1331 
L 581 3500 
L 1159 3500 
L 1159 2969 
Q 1341 3281 1617 3432 
Q 1894 3584 2278 3584 
Q 2916 3584 3314 3078 
Q 3713 2572 3713 1747 
Q 3713 922 3314 415 
Q 2916 -91 2278 -91 
Q 1894 -91 1617 61 
Q 1341 213 1159 525 
z
M 3116 1747 
Q 3116 2381 2855 2742 
Q 2594 3103 2138 3103 
Q 1681 3103 1420 2742 
Q 1159 2381 1159 1747 
Q 1159 1113 1420 752 
Q 1681 391 2138 391 
Q 2594 391 2855 752 
Q 3116 1113 3116 1747 
z
" transform="scale(0.015625)"/>
      <path id="DejaVuSans-75" d="M 544 1381 
L 544 3500 
L 1119 3500 
L 1119 1403 
Q 1119 906 1312 657 
Q 1506 409 1894 409 
Q 2359 409 2629 706 
Q 2900 1003 2900 1516 
L 2900 3500 
L 3475 3500 
L 3475 0 
L 2900 0 
L 2900 538 
Q 2691 219 2414 64 
Q 2138 -91 1772 -91 
Q 1169 -91 856 284 
Q 544 659 544 1381 
z
M 1991 3584 
L 1991 3584 
z
" transform="scale(0.015625)"/>
      <path id="DejaVuSans-6c" d="M 603 4863 
L 1178 4863 
L 1178 0 
L 603 0 
L 603 4863 
z
" transform="scale(0.015625)"/>
      <path id="DejaVuSans-27" d="M 1147 4666 
L 1147 2931 
L 616 2931 
L 616 4666 
L 1147 4666 
z
" transform="scale(0.015625)"/>
      <path id="DejaVuSans-20" transform="scale(0.015625)"/>
      <path id="DejaVuSans-76" d="M 191 3500 
L 800 3500 
L 1894 563 
L 2988 3500 
L 3597 3500 
L 2284 0 
L 1503 0 
L 191 3500 
z
" transform="scale(0.015625)"/>
      <path id="DejaVuSans-67" d="M 2906 1791 
Q 2906 2416 2648 2759 
Q 2391 3103 1925 3103 
Q 1463 3103 1205 2759 
Q 947 2416 947 1791 
Q 947 1169 1205 825 
Q 1463 481 1925 481 
Q 2391 481 2648 825 
Q 2906 1169 2906 1791 
z
M 3481 434 
Q 3481 -459 3084 -895 
Q 2688 -1331 1869 -1331 
Q 1566 -1331 1297 -1286 
Q 1028 -1241 775 -1147 
L 775 -588 
Q 1028 -725 1275 -790 
Q 1522 -856 1778 -856 
Q 2344 -856 2625 -561 
Q 2906 -266 2906 331 
L 2906 616 
Q 2728 306 2450 153 
Q 2172 0 1784 0 
Q 1141 0 747 490 
Q 353 981 353 1791 
Q 353 2603 747 3093 
Q 1141 3584 1784 3584 
Q 2172 3584 2450 3431 
Q 2728 3278 2906 2969 
L 2906 3500 
L 3481 3500 
L 3481 434 
z
" transform="scale(0.015625)"/>
      <path id="DejaVuSans-64" d="M 2906 2969 
L 2906 4863 
L 3481 4863 
L 3481 0 
L 2906 0 
L 2906 525 
Q 2725 213 2448 61 
Q 2172 -91 1784 -91 
Q 1150 -91 751 415 
Q 353 922 353 1747 
Q 353 2572 751 3078 
Q 1150 3584 1784 3584 
Q 2172 3584 2448 3432 
Q 2725 3281 2906 2969 
z
M 947 1747 
Q 947 1113 1208 752 
Q 1469 391 1925 391 
Q 2381 391 2643 752 
Q 2906 1113 2906 1747 
Q 2906 2381 2643 2742 
Q 2381 3103 1925 3103 
Q 1469 3103 1208 2742 
Q 947 2381 947 1747 
z
" transform="scale(0.015625)"/>
      <path id="DejaVuSans-62" d="M 3116 1747 
Q 3116 2381 2855 2742 
Q 2594 3103 2138 3103 
Q 1681 3103 1420 2742 
Q 1159 2381 1159 1747 
Q 1159 1113 1420 752 
Q 1681 391 2138 391 
Q 2594 391 2855 752 
Q 3116 1113 3116 1747 
z
M 1159 2969 
Q 1341 3281 1617 3432 
Q 1894 3584 2278 3584 
Q 2916 3584 3314 3078 
Q 3713 2572 3713 1747 
Q 3713 922 3314 415 
Q 2916 -91 2278 -91 
Q 1894 -91 1617 61 
Q 1341 213 1159 525 
L 1159 0 
L 581 0 
L 581 4863 
L 1159 4863 
L 1159 2969 
z
" transform="scale(0.015625)"/>
      <path id="DejaVuSans-66" d="M 2375 4863 
L 2375 4384 
L 1825 4384 
Q 1516 4384 1395 4259 
Q 1275 4134 1275 3809 
L 1275 3500 
L 2222 3500 
L 2222 3053 
L 1275 3053 
L 1275 0 
L 697 0 
L 697 3053 
L 147 3053 
L 147 3500 
L 697 3500 
L 697 3744 
Q 697 4328 969 4595 
Q 1241 4863 1831 4863 
L 2375 4863 
z
" transform="scale(0.015625)"/>
     </defs>
     <use xlink:href="#DejaVuSans-50"/>
     <use xlink:href="#DejaVuSans-6f" x="56.677734"/>
     <use xlink:href="#DejaVuSans-70" x="117.859375"/>
     <use xlink:href="#DejaVuSans-75" x="181.335938"/>
     <use xlink:href="#DejaVuSans-6c" x="244.714844"/>
     <use xlink:href="#DejaVuSans-61" x="272.498047"/>
     <use xlink:href="#DejaVuSans-74" x="333.777344"/>
     <use xlink:href="#DejaVuSans-69" x="372.986328"/>
     <use xlink:href="#DejaVuSans-6f" x="400.769531"/>
     <use xlink:href="#DejaVuSans-6e" x="461.951172"/>
     <use xlink:href="#DejaVuSans-27" x="525.330078"/>
     <use xlink:href="#DejaVuSans-73" x="552.820312"/>
     <use xlink:href="#DejaVuSans-20" x="604.919922"/>
     <use xlink:href="#DejaVuSans-61" x="636.707031"/>
     <use xlink:href="#DejaVuSans-76" x="697.986328"/>
     <use xlink:href="#DejaVuSans-65" x="757.166016"/>
     <use xlink:href="#DejaVuSans-72" x="818.689453"/>
     <use xlink:href="#DejaVuSans-61" x="859.802734"/>
     <use xlink:href="#DejaVuSans-67" x="921.082031"/>
     <use xlink:href="#DejaVuSans-65" x="984.558594"/>
     <use xlink:href="#DejaVuSans-20" x="1046.082031"/>
     <use xlink:href="#DejaVuSans-61" x="1077.869141"/>
     <use xlink:href="#DejaVuSans-6e" x="1139.148438"/>
     <use xlink:href="#DejaVuSans-64" x="1202.527344"/>
     <use xlink:href="#DejaVuSans-20" x="1266.003906"/>
     <use xlink:href="#DejaVuSans-62" x="1297.791016"/>
     <use xlink:href="#DejaVuSans-65" x="1361.267578"/>
     <use xlink:href="#DejaVuSans-73" x="1422.791016"/>
     <use xlink:href="#DejaVuSans-74" x="1474.890625"/>
     <use xlink:href="#DejaVuSans-20" x="1514.099609"/>
     <use xlink:href="#DejaVuSans-66" x="1545.886719"/>
     <use xlink:href="#DejaVuSans-69" x="1581.091797"/>
     <use xlink:href="#DejaVuSans-74" x="1608.875"/>
     <use xlink:href="#DejaVuSans-6e" x="1648.083984"/>
     <use xlink:href="#DejaVuSans-65" x="1711.462891"/>
     <use xlink:href="#DejaVuSans-73" x="1772.986328"/>
     <use xlink:href="#DejaVuSans-73" x="1825.085938"/>
    </g>
   </g>
   <g id="legend_1">
    <g id="patch_7">
     <path d="M 199.689687 108.1845 
L 272.630313 108.1845 
Q 274.630313 108.1845 274.630313 106.1845 
L 274.630313 48.472 
Q 274.630313 46.472 272.630313 46.472 
L 199.689687 46.472 
Q 197.689687 46.472 197.689687 48.472 
L 197.689687 106.1845 
Q 197.689687 108.1845 199.689687 108.1845 
z
" style="fill: #ffffff; opacity: 0.8; stroke: #cccccc; stroke-linejoin: miter"/>
    </g>
    <g id="line2d_33">
     <path d="M 201.689687 54.570438 
L 211.689687 54.570438 
L 221.689687 54.570438 
" style="fill: none; stroke: #0000ff; stroke-width: 1.5; stroke-linecap: square"/>
    </g>
    <g id="text_18">
     <!-- average -->
     <g transform="translate(229.689687 58.070438)scale(0.1 -0.1)">
      <use xlink:href="#DejaVuSans-61"/>
      <use xlink:href="#DejaVuSans-76" x="61.279297"/>
      <use xlink:href="#DejaVuSans-65" x="120.458984"/>
      <use xlink:href="#DejaVuSans-72" x="181.982422"/>
      <use xlink:href="#DejaVuSans-61" x="223.095703"/>
      <use xlink:href="#DejaVuSans-67" x="284.375"/>
      <use xlink:href="#DejaVuSans-65" x="347.851562"/>
     </g>
    </g>
    <g id="line2d_34">
     <path d="M 201.689687 69.248563 
L 211.689687 69.248563 
L 221.689687 69.248563 
" style="fill: none; stroke-dasharray: 9.6,2.4,1.5,2.4; stroke-dashoffset: 0; stroke: #008000; stroke-width: 1.5"/>
    </g>
    <g id="text_19">
     <!-- -1 sd -->
     <g transform="translate(229.689687 72.748563)scale(0.1 -0.1)">
      <defs>
       <path id="DejaVuSans-2d" d="M 313 2009 
L 1997 2009 
L 1997 1497 
L 313 1497 
L 313 2009 
z
" transform="scale(0.015625)"/>
      </defs>
      <use xlink:href="#DejaVuSans-2d"/>
      <use xlink:href="#DejaVuSans-31" x="36.083984"/>
      <use xlink:href="#DejaVuSans-20" x="99.707031"/>
      <use xlink:href="#DejaVuSans-73" x="131.494141"/>
      <use xlink:href="#DejaVuSans-64" x="183.59375"/>
     </g>
    </g>
    <g id="line2d_35">
     <path d="M 201.689687 83.926688 
L 211.689687 83.926688 
L 221.689687 83.926688 
" style="fill: none; stroke-dasharray: 9.6,2.4,1.5,2.4; stroke-dashoffset: 0; stroke: #008000; stroke-width: 1.5"/>
    </g>
    <g id="text_20">
     <!-- +1 sd -->
     <g transform="translate(229.689687 87.426688)scale(0.1 -0.1)">
      <defs>
       <path id="DejaVuSans-2b" d="M 2944 4013 
L 2944 2272 
L 4684 2272 
L 4684 1741 
L 2944 1741 
L 2944 0 
L 2419 0 
L 2419 1741 
L 678 1741 
L 678 2272 
L 2419 2272 
L 2419 4013 
L 2944 4013 
z
" transform="scale(0.015625)"/>
      </defs>
      <use xlink:href="#DejaVuSans-2b"/>
      <use xlink:href="#DejaVuSans-31" x="83.789062"/>
      <use xlink:href="#DejaVuSans-20" x="147.412109"/>
      <use xlink:href="#DejaVuSans-73" x="179.199219"/>
      <use xlink:href="#DejaVuSans-64" x="231.298828"/>
     </g>
    </g>
    <g id="line2d_36">
     <path d="M 201.689687 98.604813 
L 211.689687 98.604813 
L 221.689687 98.604813 
" style="fill: none; stroke: #ff0000; stroke-width: 1.5; stroke-linecap: square"/>
    </g>
    <g id="text_21">
     <!-- best -->
     <g transform="translate(229.689687 102.104813)scale(0.1 -0.1)">
      <use xlink:href="#DejaVuSans-62"/>
      <use xlink:href="#DejaVuSans-65" x="63.476562"/>
      <use xlink:href="#DejaVuSans-73" x="125"/>
      <use xlink:href="#DejaVuSans-74" x="177.099609"/>
     </g>
    </g>
   </g>
  </g>
 </g>
 <defs>
  <clipPath id="p501ff4c2f5">
   <rect x="57.6" y="41.472" width="357.12" height="266.112"/>
  </clipPath>
 </defs>
</svg>
