<?xml version="1.0" encoding="utf-8" standalone="no"?>
<!DOCTYPE svg PUBLIC "-//W3C//DTD SVG 1.1//EN"
  "http://www.w3.org/Graphics/SVG/1.1/DTD/svg11.dtd">
<svg xmlns:xlink="http://www.w3.org/1999/xlink" width="460.8pt" height="345.6pt" viewBox="0 0 460.8 345.6" xmlns="http://www.w3.org/2000/svg" version="1.1">
 <metadata>
  <rdf:RDF xmlns:dc="http://purl.org/dc/elements/1.1/" xmlns:cc="http://creativecommons.org/ns#" xmlns:rdf="http://www.w3.org/1999/02/22-rdf-syntax-ns#">
   <cc:Work>
    <dc:type rdf:resource="http://purl.org/dc/dcmitype/StillImage"/>
    <dc:date>2022-07-01T15:15:52.279031</dc:date>
    <dc:format>image/svg+xml</dc:format>
    <dc:creator>
     <cc:Agent>
      <dc:title>Matplotlib v3.5.2, https://matplotlib.org/</dc:title>
     </cc:Agent>
    </dc:creator>
   </cc:Work>
  </rdf:RDF>
 </metadata>
 <defs>
  <style type="text/css">*{stroke-linejoin: round; stroke-linecap: butt}</style>
 </defs>
 <g id="figure_1">
  <g id="patch_1">
   <path d="M 0 345.6 
L 460.8 345.6 
L 460.8 0 
L 0 0 
z
" style="fill: #ffffff"/>
  </g>
  <g id="axes_1">
   <g id="patch_2">
    <path d="M 57.6 307.584 
L 414.72 307.584 
L 414.72 41.472 
L 57.6 41.472 
z
" style="fill: #ffffff"/>
   </g>
   <g id="matplotlib.axis_1">
    <g id="xtick_1">
     <g id="line2d_1">
      <path d="M 73.832727 307.584 
L 73.832727 41.472 
" clip-path="url(#pbf96792541)" style="fill: none; stroke: #b0b0b0; stroke-width: 0.8; stroke-linecap: square"/>
     </g>
     <g id="line2d_2">
      <defs>
       <path id="m331a22f877" d="M 0 0 
L 0 3.5 
" style="stroke: #000000; stroke-width: 0.8"/>
      </defs>
      <g>
       <use xlink:href="#m331a22f877" x="73.832727" y="307.584" style="stroke: #000000; stroke-width: 0.8"/>
      </g>
     </g>
     <g id="text_1">
      <!-- 0 -->
      <g transform="translate(70.651477 322.182437)scale(0.1 -0.1)">
       <defs>
        <path id="DejaVuSans-30" d="M 2034 4250 
Q 1547 4250 1301 3770 
Q 1056 3291 1056 2328 
Q 1056 1369 1301 889 
Q 1547 409 2034 409 
Q 2525 409 2770 889 
Q 3016 1369 3016 2328 
Q 3016 3291 2770 3770 
Q 2525 4250 2034 4250 
z
M 2034 4750 
Q 2819 4750 3233 4129 
Q 3647 3509 3647 2328 
Q 3647 1150 3233 529 
Q 2819 -91 2034 -91 
Q 1250 -91 836 529 
Q 422 1150 422 2328 
Q 422 3509 836 4129 
Q 1250 4750 2034 4750 
z
" transform="scale(0.015625)"/>
       </defs>
       <use xlink:href="#DejaVuSans-30"/>
      </g>
     </g>
    </g>
    <g id="xtick_2">
     <g id="line2d_3">
      <path d="M 114.618474 307.584 
L 114.618474 41.472 
" clip-path="url(#pbf96792541)" style="fill: none; stroke: #b0b0b0; stroke-width: 0.8; stroke-linecap: square"/>
     </g>
     <g id="line2d_4">
      <g>
       <use xlink:href="#m331a22f877" x="114.618474" y="307.584" style="stroke: #000000; stroke-width: 0.8"/>
      </g>
     </g>
     <g id="text_2">
      <!-- 25 -->
      <g transform="translate(108.255974 322.182437)scale(0.1 -0.1)">
       <defs>
        <path id="DejaVuSans-32" d="M 1228 531 
L 3431 531 
L 3431 0 
L 469 0 
L 469 531 
Q 828 903 1448 1529 
Q 2069 2156 2228 2338 
Q 2531 2678 2651 2914 
Q 2772 3150 2772 3378 
Q 2772 3750 2511 3984 
Q 2250 4219 1831 4219 
Q 1534 4219 1204 4116 
Q 875 4013 500 3803 
L 500 4441 
Q 881 4594 1212 4672 
Q 1544 4750 1819 4750 
Q 2544 4750 2975 4387 
Q 3406 4025 3406 3419 
Q 3406 3131 3298 2873 
Q 3191 2616 2906 2266 
Q 2828 2175 2409 1742 
Q 1991 1309 1228 531 
z
" transform="scale(0.015625)"/>
        <path id="DejaVuSans-35" d="M 691 4666 
L 3169 4666 
L 3169 4134 
L 1269 4134 
L 1269 2991 
Q 1406 3038 1543 3061 
Q 1681 3084 1819 3084 
Q 2600 3084 3056 2656 
Q 3513 2228 3513 1497 
Q 3513 744 3044 326 
Q 2575 -91 1722 -91 
Q 1428 -91 1123 -41 
Q 819 9 494 109 
L 494 744 
Q 775 591 1075 516 
Q 1375 441 1709 441 
Q 2250 441 2565 725 
Q 2881 1009 2881 1497 
Q 2881 1984 2565 2268 
Q 2250 2553 1709 2553 
Q 1456 2553 1204 2497 
Q 953 2441 691 2322 
L 691 4666 
z
" transform="scale(0.015625)"/>
       </defs>
       <use xlink:href="#DejaVuSans-32"/>
       <use xlink:href="#DejaVuSans-35" x="63.623047"/>
      </g>
     </g>
    </g>
    <g id="xtick_3">
     <g id="line2d_5">
      <path d="M 155.404221 307.584 
L 155.404221 41.472 
" clip-path="url(#pbf96792541)" style="fill: none; stroke: #b0b0b0; stroke-width: 0.8; stroke-linecap: square"/>
     </g>
     <g id="line2d_6">
      <g>
       <use xlink:href="#m331a22f877" x="155.404221" y="307.584" style="stroke: #000000; stroke-width: 0.8"/>
      </g>
     </g>
     <g id="text_3">
      <!-- 50 -->
      <g transform="translate(149.041721 322.182437)scale(0.1 -0.1)">
       <use xlink:href="#DejaVuSans-35"/>
       <use xlink:href="#DejaVuSans-30" x="63.623047"/>
      </g>
     </g>
    </g>
    <g id="xtick_4">
     <g id="line2d_7">
      <path d="M 196.189968 307.584 
L 196.189968 41.472 
" clip-path="url(#pbf96792541)" style="fill: none; stroke: #b0b0b0; stroke-width: 0.8; stroke-linecap: square"/>
     </g>
     <g id="line2d_8">
      <g>
       <use xlink:href="#m331a22f877" x="196.189968" y="307.584" style="stroke: #000000; stroke-width: 0.8"/>
      </g>
     </g>
     <g id="text_4">
      <!-- 75 -->
      <g transform="translate(189.827468 322.182437)scale(0.1 -0.1)">
       <defs>
        <path id="DejaVuSans-37" d="M 525 4666 
L 3525 4666 
L 3525 4397 
L 1831 0 
L 1172 0 
L 2766 4134 
L 525 4134 
L 525 4666 
z
" transform="scale(0.015625)"/>
       </defs>
       <use xlink:href="#DejaVuSans-37"/>
       <use xlink:href="#DejaVuSans-35" x="63.623047"/>
      </g>
     </g>
    </g>
    <g id="xtick_5">
     <g id="line2d_9">
      <path d="M 236.975715 307.584 
L 236.975715 41.472 
" clip-path="url(#pbf96792541)" style="fill: none; stroke: #b0b0b0; stroke-width: 0.8; stroke-linecap: square"/>
     </g>
     <g id="line2d_10">
      <g>
       <use xlink:href="#m331a22f877" x="236.975715" y="307.584" style="stroke: #000000; stroke-width: 0.8"/>
      </g>
     </g>
     <g id="text_5">
      <!-- 100 -->
      <g transform="translate(227.431965 322.182437)scale(0.1 -0.1)">
       <defs>
        <path id="DejaVuSans-31" d="M 794 531 
L 1825 531 
L 1825 4091 
L 703 3866 
L 703 4441 
L 1819 4666 
L 2450 4666 
L 2450 531 
L 3481 531 
L 3481 0 
L 794 0 
L 794 531 
z
" transform="scale(0.015625)"/>
       </defs>
       <use xlink:href="#DejaVuSans-31"/>
       <use xlink:href="#DejaVuSans-30" x="63.623047"/>
       <use xlink:href="#DejaVuSans-30" x="127.246094"/>
      </g>
     </g>
    </g>
    <g id="xtick_6">
     <g id="line2d_11">
      <path d="M 277.761462 307.584 
L 277.761462 41.472 
" clip-path="url(#pbf96792541)" style="fill: none; stroke: #b0b0b0; stroke-width: 0.8; stroke-linecap: square"/>
     </g>
     <g id="line2d_12">
      <g>
       <use xlink:href="#m331a22f877" x="277.761462" y="307.584" style="stroke: #000000; stroke-width: 0.8"/>
      </g>
     </g>
     <g id="text_6">
      <!-- 125 -->
      <g transform="translate(268.217712 322.182437)scale(0.1 -0.1)">
       <use xlink:href="#DejaVuSans-31"/>
       <use xlink:href="#DejaVuSans-32" x="63.623047"/>
       <use xlink:href="#DejaVuSans-35" x="127.246094"/>
      </g>
     </g>
    </g>
    <g id="xtick_7">
     <g id="line2d_13">
      <path d="M 318.547209 307.584 
L 318.547209 41.472 
" clip-path="url(#pbf96792541)" style="fill: none; stroke: #b0b0b0; stroke-width: 0.8; stroke-linecap: square"/>
     </g>
     <g id="line2d_14">
      <g>
       <use xlink:href="#m331a22f877" x="318.547209" y="307.584" style="stroke: #000000; stroke-width: 0.8"/>
      </g>
     </g>
     <g id="text_7">
      <!-- 150 -->
      <g transform="translate(309.003459 322.182437)scale(0.1 -0.1)">
       <use xlink:href="#DejaVuSans-31"/>
       <use xlink:href="#DejaVuSans-35" x="63.623047"/>
       <use xlink:href="#DejaVuSans-30" x="127.246094"/>
      </g>
     </g>
    </g>
    <g id="xtick_8">
     <g id="line2d_15">
      <path d="M 359.332956 307.584 
L 359.332956 41.472 
" clip-path="url(#pbf96792541)" style="fill: none; stroke: #b0b0b0; stroke-width: 0.8; stroke-linecap: square"/>
     </g>
     <g id="line2d_16">
      <g>
       <use xlink:href="#m331a22f877" x="359.332956" y="307.584" style="stroke: #000000; stroke-width: 0.8"/>
      </g>
     </g>
     <g id="text_8">
      <!-- 175 -->
      <g transform="translate(349.789206 322.182437)scale(0.1 -0.1)">
       <use xlink:href="#DejaVuSans-31"/>
       <use xlink:href="#DejaVuSans-37" x="63.623047"/>
       <use xlink:href="#DejaVuSans-35" x="127.246094"/>
      </g>
     </g>
    </g>
    <g id="xtick_9">
     <g id="line2d_17">
      <path d="M 400.118703 307.584 
L 400.118703 41.472 
" clip-path="url(#pbf96792541)" style="fill: none; stroke: #b0b0b0; stroke-width: 0.8; stroke-linecap: square"/>
     </g>
     <g id="line2d_18">
      <g>
       <use xlink:href="#m331a22f877" x="400.118703" y="307.584" style="stroke: #000000; stroke-width: 0.8"/>
      </g>
     </g>
     <g id="text_9">
      <!-- 200 -->
      <g transform="translate(390.574953 322.182437)scale(0.1 -0.1)">
       <use xlink:href="#DejaVuSans-32"/>
       <use xlink:href="#DejaVuSans-30" x="63.623047"/>
       <use xlink:href="#DejaVuSans-30" x="127.246094"/>
      </g>
     </g>
    </g>
    <g id="text_10">
     <!-- Generations -->
     <g transform="translate(205.662344 335.860562)scale(0.1 -0.1)">
      <defs>
       <path id="DejaVuSans-47" d="M 3809 666 
L 3809 1919 
L 2778 1919 
L 2778 2438 
L 4434 2438 
L 4434 434 
Q 4069 175 3628 42 
Q 3188 -91 2688 -91 
Q 1594 -91 976 548 
Q 359 1188 359 2328 
Q 359 3472 976 4111 
Q 1594 4750 2688 4750 
Q 3144 4750 3555 4637 
Q 3966 4525 4313 4306 
L 4313 3634 
Q 3963 3931 3569 4081 
Q 3175 4231 2741 4231 
Q 1884 4231 1454 3753 
Q 1025 3275 1025 2328 
Q 1025 1384 1454 906 
Q 1884 428 2741 428 
Q 3075 428 3337 486 
Q 3600 544 3809 666 
z
" transform="scale(0.015625)"/>
       <path id="DejaVuSans-65" d="M 3597 1894 
L 3597 1613 
L 953 1613 
Q 991 1019 1311 708 
Q 1631 397 2203 397 
Q 2534 397 2845 478 
Q 3156 559 3463 722 
L 3463 178 
Q 3153 47 2828 -22 
Q 2503 -91 2169 -91 
Q 1331 -91 842 396 
Q 353 884 353 1716 
Q 353 2575 817 3079 
Q 1281 3584 2069 3584 
Q 2775 3584 3186 3129 
Q 3597 2675 3597 1894 
z
M 3022 2063 
Q 3016 2534 2758 2815 
Q 2500 3097 2075 3097 
Q 1594 3097 1305 2825 
Q 1016 2553 972 2059 
L 3022 2063 
z
" transform="scale(0.015625)"/>
       <path id="DejaVuSans-6e" d="M 3513 2113 
L 3513 0 
L 2938 0 
L 2938 2094 
Q 2938 2591 2744 2837 
Q 2550 3084 2163 3084 
Q 1697 3084 1428 2787 
Q 1159 2491 1159 1978 
L 1159 0 
L 581 0 
L 581 3500 
L 1159 3500 
L 1159 2956 
Q 1366 3272 1645 3428 
Q 1925 3584 2291 3584 
Q 2894 3584 3203 3211 
Q 3513 2838 3513 2113 
z
" transform="scale(0.015625)"/>
       <path id="DejaVuSans-72" d="M 2631 2963 
Q 2534 3019 2420 3045 
Q 2306 3072 2169 3072 
Q 1681 3072 1420 2755 
Q 1159 2438 1159 1844 
L 1159 0 
L 581 0 
L 581 3500 
L 1159 3500 
L 1159 2956 
Q 1341 3275 1631 3429 
Q 1922 3584 2338 3584 
Q 2397 3584 2469 3576 
Q 2541 3569 2628 3553 
L 2631 2963 
z
" transform="scale(0.015625)"/>
       <path id="DejaVuSans-61" d="M 2194 1759 
Q 1497 1759 1228 1600 
Q 959 1441 959 1056 
Q 959 750 1161 570 
Q 1363 391 1709 391 
Q 2188 391 2477 730 
Q 2766 1069 2766 1631 
L 2766 1759 
L 2194 1759 
z
M 3341 1997 
L 3341 0 
L 2766 0 
L 2766 531 
Q 2569 213 2275 61 
Q 1981 -91 1556 -91 
Q 1019 -91 701 211 
Q 384 513 384 1019 
Q 384 1609 779 1909 
Q 1175 2209 1959 2209 
L 2766 2209 
L 2766 2266 
Q 2766 2663 2505 2880 
Q 2244 3097 1772 3097 
Q 1472 3097 1187 3025 
Q 903 2953 641 2809 
L 641 3341 
Q 956 3463 1253 3523 
Q 1550 3584 1831 3584 
Q 2591 3584 2966 3190 
Q 3341 2797 3341 1997 
z
" transform="scale(0.015625)"/>
       <path id="DejaVuSans-74" d="M 1172 4494 
L 1172 3500 
L 2356 3500 
L 2356 3053 
L 1172 3053 
L 1172 1153 
Q 1172 725 1289 603 
Q 1406 481 1766 481 
L 2356 481 
L 2356 0 
L 1766 0 
Q 1100 0 847 248 
Q 594 497 594 1153 
L 594 3053 
L 172 3053 
L 172 3500 
L 594 3500 
L 594 4494 
L 1172 4494 
z
" transform="scale(0.015625)"/>
       <path id="DejaVuSans-69" d="M 603 3500 
L 1178 3500 
L 1178 0 
L 603 0 
L 603 3500 
z
M 603 4863 
L 1178 4863 
L 1178 4134 
L 603 4134 
L 603 4863 
z
" transform="scale(0.015625)"/>
       <path id="DejaVuSans-6f" d="M 1959 3097 
Q 1497 3097 1228 2736 
Q 959 2375 959 1747 
Q 959 1119 1226 758 
Q 1494 397 1959 397 
Q 2419 397 2687 759 
Q 2956 1122 2956 1747 
Q 2956 2369 2687 2733 
Q 2419 3097 1959 3097 
z
M 1959 3584 
Q 2709 3584 3137 3096 
Q 3566 2609 3566 1747 
Q 3566 888 3137 398 
Q 2709 -91 1959 -91 
Q 1206 -91 779 398 
Q 353 888 353 1747 
Q 353 2609 779 3096 
Q 1206 3584 1959 3584 
z
" transform="scale(0.015625)"/>
       <path id="DejaVuSans-73" d="M 2834 3397 
L 2834 2853 
Q 2591 2978 2328 3040 
Q 2066 3103 1784 3103 
Q 1356 3103 1142 2972 
Q 928 2841 928 2578 
Q 928 2378 1081 2264 
Q 1234 2150 1697 2047 
L 1894 2003 
Q 2506 1872 2764 1633 
Q 3022 1394 3022 966 
Q 3022 478 2636 193 
Q 2250 -91 1575 -91 
Q 1294 -91 989 -36 
Q 684 19 347 128 
L 347 722 
Q 666 556 975 473 
Q 1284 391 1588 391 
Q 1994 391 2212 530 
Q 2431 669 2431 922 
Q 2431 1156 2273 1281 
Q 2116 1406 1581 1522 
L 1381 1569 
Q 847 1681 609 1914 
Q 372 2147 372 2553 
Q 372 3047 722 3315 
Q 1072 3584 1716 3584 
Q 2034 3584 2315 3537 
Q 2597 3491 2834 3397 
z
" transform="scale(0.015625)"/>
      </defs>
      <use xlink:href="#DejaVuSans-47"/>
      <use xlink:href="#DejaVuSans-65" x="77.490234"/>
      <use xlink:href="#DejaVuSans-6e" x="139.013672"/>
      <use xlink:href="#DejaVuSans-65" x="202.392578"/>
      <use xlink:href="#DejaVuSans-72" x="263.916016"/>
      <use xlink:href="#DejaVuSans-61" x="305.029297"/>
      <use xlink:href="#DejaVuSans-74" x="366.308594"/>
      <use xlink:href="#DejaVuSans-69" x="405.517578"/>
      <use xlink:href="#DejaVuSans-6f" x="433.300781"/>
      <use xlink:href="#DejaVuSans-6e" x="494.482422"/>
      <use xlink:href="#DejaVuSans-73" x="557.861328"/>
     </g>
    </g>
   </g>
   <g id="matplotlib.axis_2">
    <g id="ytick_1">
     <g id="line2d_19">
      <path d="M 57.6 287.977558 
L 414.72 287.977558 
" clip-path="url(#pbf96792541)" style="fill: none; stroke: #b0b0b0; stroke-width: 0.8; stroke-linecap: square"/>
     </g>
     <g id="line2d_20">
      <defs>
       <path id="mb5d06f517e" d="M 0 0 
L -3.5 0 
" style="stroke: #000000; stroke-width: 0.8"/>
      </defs>
      <g>
       <use xlink:href="#mb5d06f517e" x="57.6" y="287.977558" style="stroke: #000000; stroke-width: 0.8"/>
      </g>
     </g>
     <g id="text_11">
      <!-- 0 -->
      <g transform="translate(44.2375 291.776777)scale(0.1 -0.1)">
       <use xlink:href="#DejaVuSans-30"/>
      </g>
     </g>
    </g>
    <g id="ytick_2">
     <g id="line2d_21">
      <path d="M 57.6 232.770682 
L 414.72 232.770682 
" clip-path="url(#pbf96792541)" style="fill: none; stroke: #b0b0b0; stroke-width: 0.8; stroke-linecap: square"/>
     </g>
     <g id="line2d_22">
      <g>
       <use xlink:href="#mb5d06f517e" x="57.6" y="232.770682" style="stroke: #000000; stroke-width: 0.8"/>
      </g>
     </g>
     <g id="text_12">
      <!-- 20 -->
      <g transform="translate(37.875 236.5699)scale(0.1 -0.1)">
       <use xlink:href="#DejaVuSans-32"/>
       <use xlink:href="#DejaVuSans-30" x="63.623047"/>
      </g>
     </g>
    </g>
    <g id="ytick_3">
     <g id="line2d_23">
      <path d="M 57.6 177.563805 
L 414.72 177.563805 
" clip-path="url(#pbf96792541)" style="fill: none; stroke: #b0b0b0; stroke-width: 0.8; stroke-linecap: square"/>
     </g>
     <g id="line2d_24">
      <g>
       <use xlink:href="#mb5d06f517e" x="57.6" y="177.563805" style="stroke: #000000; stroke-width: 0.8"/>
      </g>
     </g>
     <g id="text_13">
      <!-- 40 -->
      <g transform="translate(37.875 181.363024)scale(0.1 -0.1)">
       <defs>
        <path id="DejaVuSans-34" d="M 2419 4116 
L 825 1625 
L 2419 1625 
L 2419 4116 
z
M 2253 4666 
L 3047 4666 
L 3047 1625 
L 3713 1625 
L 3713 1100 
L 3047 1100 
L 3047 0 
L 2419 0 
L 2419 1100 
L 313 1100 
L 313 1709 
L 2253 4666 
z
" transform="scale(0.015625)"/>
       </defs>
       <use xlink:href="#DejaVuSans-34"/>
       <use xlink:href="#DejaVuSans-30" x="63.623047"/>
      </g>
     </g>
    </g>
    <g id="ytick_4">
     <g id="line2d_25">
      <path d="M 57.6 122.356929 
L 414.72 122.356929 
" clip-path="url(#pbf96792541)" style="fill: none; stroke: #b0b0b0; stroke-width: 0.8; stroke-linecap: square"/>
     </g>
     <g id="line2d_26">
      <g>
       <use xlink:href="#mb5d06f517e" x="57.6" y="122.356929" style="stroke: #000000; stroke-width: 0.8"/>
      </g>
     </g>
     <g id="text_14">
      <!-- 60 -->
      <g transform="translate(37.875 126.156148)scale(0.1 -0.1)">
       <defs>
        <path id="DejaVuSans-36" d="M 2113 2584 
Q 1688 2584 1439 2293 
Q 1191 2003 1191 1497 
Q 1191 994 1439 701 
Q 1688 409 2113 409 
Q 2538 409 2786 701 
Q 3034 994 3034 1497 
Q 3034 2003 2786 2293 
Q 2538 2584 2113 2584 
z
M 3366 4563 
L 3366 3988 
Q 3128 4100 2886 4159 
Q 2644 4219 2406 4219 
Q 1781 4219 1451 3797 
Q 1122 3375 1075 2522 
Q 1259 2794 1537 2939 
Q 1816 3084 2150 3084 
Q 2853 3084 3261 2657 
Q 3669 2231 3669 1497 
Q 3669 778 3244 343 
Q 2819 -91 2113 -91 
Q 1303 -91 875 529 
Q 447 1150 447 2328 
Q 447 3434 972 4092 
Q 1497 4750 2381 4750 
Q 2619 4750 2861 4703 
Q 3103 4656 3366 4563 
z
" transform="scale(0.015625)"/>
       </defs>
       <use xlink:href="#DejaVuSans-36"/>
       <use xlink:href="#DejaVuSans-30" x="63.623047"/>
      </g>
     </g>
    </g>
    <g id="ytick_5">
     <g id="line2d_27">
      <path d="M 57.6 67.150053 
L 414.72 67.150053 
" clip-path="url(#pbf96792541)" style="fill: none; stroke: #b0b0b0; stroke-width: 0.8; stroke-linecap: square"/>
     </g>
     <g id="line2d_28">
      <g>
       <use xlink:href="#mb5d06f517e" x="57.6" y="67.150053" style="stroke: #000000; stroke-width: 0.8"/>
      </g>
     </g>
     <g id="text_15">
      <!-- 80 -->
      <g transform="translate(37.875 70.949271)scale(0.1 -0.1)">
       <defs>
        <path id="DejaVuSans-38" d="M 2034 2216 
Q 1584 2216 1326 1975 
Q 1069 1734 1069 1313 
Q 1069 891 1326 650 
Q 1584 409 2034 409 
Q 2484 409 2743 651 
Q 3003 894 3003 1313 
Q 3003 1734 2745 1975 
Q 2488 2216 2034 2216 
z
M 1403 2484 
Q 997 2584 770 2862 
Q 544 3141 544 3541 
Q 544 4100 942 4425 
Q 1341 4750 2034 4750 
Q 2731 4750 3128 4425 
Q 3525 4100 3525 3541 
Q 3525 3141 3298 2862 
Q 3072 2584 2669 2484 
Q 3125 2378 3379 2068 
Q 3634 1759 3634 1313 
Q 3634 634 3220 271 
Q 2806 -91 2034 -91 
Q 1263 -91 848 271 
Q 434 634 434 1313 
Q 434 1759 690 2068 
Q 947 2378 1403 2484 
z
M 1172 3481 
Q 1172 3119 1398 2916 
Q 1625 2713 2034 2713 
Q 2441 2713 2670 2916 
Q 2900 3119 2900 3481 
Q 2900 3844 2670 4047 
Q 2441 4250 2034 4250 
Q 1625 4250 1398 4047 
Q 1172 3844 1172 3481 
z
" transform="scale(0.015625)"/>
       </defs>
       <use xlink:href="#DejaVuSans-38"/>
       <use xlink:href="#DejaVuSans-30" x="63.623047"/>
      </g>
     </g>
    </g>
    <g id="text_16">
     <!-- Fitness -->
     <g transform="translate(31.795312 191.845187)rotate(-90)scale(0.1 -0.1)">
      <defs>
       <path id="DejaVuSans-46" d="M 628 4666 
L 3309 4666 
L 3309 4134 
L 1259 4134 
L 1259 2759 
L 3109 2759 
L 3109 2228 
L 1259 2228 
L 1259 0 
L 628 0 
L 628 4666 
z
" transform="scale(0.015625)"/>
      </defs>
      <use xlink:href="#DejaVuSans-46"/>
      <use xlink:href="#DejaVuSans-69" x="50.269531"/>
      <use xlink:href="#DejaVuSans-74" x="78.052734"/>
      <use xlink:href="#DejaVuSans-6e" x="117.261719"/>
      <use xlink:href="#DejaVuSans-65" x="180.640625"/>
      <use xlink:href="#DejaVuSans-73" x="242.164062"/>
      <use xlink:href="#DejaVuSans-73" x="294.263672"/>
     </g>
    </g>
   </g>
   <g id="line2d_29">
    <path d="M 73.832727 258.978101 
L 77.095587 260.859888 
L 78.727017 260.393532 
L 80.358447 260.503847 
L 81.989877 260.806031 
L 83.621307 256.801754 
L 85.252736 261.80112 
L 88.515596 258.941849 
L 90.147026 257.856408 
L 91.778456 259.248033 
L 95.041316 256.552832 
L 96.672746 262.442261 
L 98.304175 260.582335 
L 99.935605 254.964796 
L 101.567035 259.007709 
L 103.198465 261.407523 
L 104.829895 261.378698 
L 106.461325 259.372204 
L 108.092755 261.382555 
L 109.724185 259.261152 
L 111.355614 261.11901 
L 112.987044 259.380763 
L 114.618474 258.921703 
L 116.249904 259.070494 
L 117.881334 260.015476 
L 119.512764 258.459908 
L 121.144194 261.152792 
L 122.775624 263.202062 
L 124.407053 256.847621 
L 126.038483 254.708741 
L 127.669913 259.332542 
L 129.301343 254.891719 
L 130.932773 258.956531 
L 132.564203 259.671447 
L 134.195633 259.7141 
L 135.827063 256.385271 
L 137.458492 258.150403 
L 139.089922 259.07181 
L 140.721352 259.233135 
L 142.352782 261.531982 
L 143.984212 262.885689 
L 145.615642 259.068101 
L 147.247072 258.187968 
L 148.878502 259.748722 
L 150.509931 257.209763 
L 152.141361 260.144015 
L 153.772791 261.308107 
L 155.404221 261.76788 
L 157.035651 260.324885 
L 158.667081 259.810356 
L 160.298511 254.764304 
L 163.56137 259.302699 
L 165.1928 257.035776 
L 166.82423 259.002151 
L 168.45566 258.899771 
L 170.08709 259.152954 
L 171.71852 260.35786 
L 173.34995 257.725101 
L 174.98138 252.282654 
L 176.61281 260.039219 
L 178.244239 261.637195 
L 179.875669 259.033377 
L 181.507099 260.305932 
L 183.138529 259.341428 
L 184.769959 257.906419 
L 186.401389 260.032502 
L 188.032819 261.884217 
L 189.664249 257.153584 
L 191.295678 261.090606 
L 192.927108 257.22267 
L 194.558538 255.12974 
L 196.189968 255.758432 
L 197.821398 261.981633 
L 199.452828 262.665205 
L 201.084258 260.826495 
L 202.715688 261.23644 
L 204.347117 262.47367 
L 205.978547 258.435089 
L 207.609977 259.260495 
L 209.241407 256.022631 
L 210.872837 258.566769 
L 212.504267 255.692612 
L 214.135697 255.840137 
L 215.767127 260.196256 
L 217.398556 260.074174 
L 219.029986 257.964844 
L 220.661416 258.454039 
L 222.292846 259.38952 
L 223.924276 256.220063 
L 225.555706 254.266744 
L 227.187136 256.809909 
L 228.818566 257.699819 
L 230.449995 257.210217 
L 232.081425 254.261879 
L 233.712855 256.869375 
L 235.344285 259.039017 
L 236.975715 254.794841 
L 238.607145 256.470828 
L 240.238575 256.667919 
L 241.870005 256.465049 
L 243.501434 258.04594 
L 245.132864 257.312343 
L 246.764294 259.214475 
L 250.027154 255.336857 
L 251.658584 253.924198 
L 253.290014 257.054012 
L 254.921444 261.652316 
L 256.552873 257.959826 
L 258.184303 259.457862 
L 259.815733 262.022702 
L 263.078593 256.797741 
L 264.710023 260.541078 
L 266.341453 259.109058 
L 267.972883 263.77006 
L 269.604312 264.240209 
L 271.235742 261.87811 
L 272.867172 260.403747 
L 274.498602 255.427626 
L 276.130032 262.905472 
L 277.761462 264.996636 
L 279.392892 258.006208 
L 281.024322 262.883227 
L 282.655751 255.57545 
L 284.287181 259.13502 
L 285.918611 259.442573 
L 287.550041 260.291043 
L 289.181471 258.719679 
L 290.812901 262.437991 
L 292.444331 261.387833 
L 294.075761 258.686113 
L 295.70719 257.349249 
L 297.33862 261.717161 
L 300.60148 260.541521 
L 302.23291 262.317278 
L 303.86434 261.963302 
L 305.49577 262.046818 
L 307.1272 261.665983 
L 308.75863 263.732912 
L 310.390059 263.046225 
L 312.021489 261.631912 
L 313.652919 261.367067 
L 315.284349 263.397628 
L 316.915779 262.560307 
L 318.547209 264.551556 
L 320.178639 260.699001 
L 321.810069 264.930137 
L 323.441498 260.483234 
L 326.704358 257.738097 
L 328.335788 260.437283 
L 329.967218 261.196023 
L 331.598648 259.568239 
L 333.230078 258.1753 
L 334.861508 256.274467 
L 336.492937 265.038779 
L 338.124367 263.379312 
L 339.755797 258.978339 
L 341.387227 260.889377 
L 343.018657 259.057389 
L 344.650087 259.340188 
L 346.281517 258.124958 
L 347.912947 259.875154 
L 349.544376 259.247175 
L 351.175806 258.791896 
L 352.807236 259.116927 
L 354.438666 256.617279 
L 356.070096 259.639083 
L 357.701526 264.019773 
L 359.332956 259.666682 
L 360.964386 253.598478 
L 364.227245 256.218622 
L 365.858675 257.82889 
L 367.490105 252.580305 
L 369.121535 256.157835 
L 370.752965 254.091924 
L 372.384395 258.609065 
L 374.015825 257.946727 
L 375.647254 255.342019 
L 377.278684 258.930134 
L 378.910114 260.900438 
L 380.541544 258.383749 
L 382.172974 259.664857 
L 383.804404 257.865908 
L 385.435834 260.098683 
L 387.067264 260.165738 
L 388.698693 261.055901 
L 390.330123 263.430498 
L 391.961553 257.390551 
L 393.592983 257.14633 
L 395.224413 261.989113 
L 396.855843 259.490505 
L 398.487273 260.274833 
L 398.487273 260.274833 
" clip-path="url(#pbf96792541)" style="fill: none; stroke: #0000ff; stroke-width: 1.5; stroke-linecap: square"/>
   </g>
   <g id="line2d_30">
    <path d="M 73.832727 280.91413 
L 75.464157 280.458566 
L 77.095587 281.063833 
L 78.727017 279.441627 
L 80.358447 280.57103 
L 81.989877 282.236413 
L 83.621307 279.33992 
L 85.252736 279.955952 
L 86.884166 283.728992 
L 88.515596 284.542764 
L 90.147026 283.924952 
L 91.778456 283.771915 
L 93.409886 286.174366 
L 95.041316 282.355763 
L 96.672746 281.217715 
L 98.304175 282.480655 
L 99.935605 287.906988 
L 101.567035 283.367701 
L 103.198465 286.770854 
L 104.829895 287.230227 
L 106.461325 286.26756 
L 108.092755 286.732482 
L 109.724185 287.715512 
L 111.355614 283.171125 
L 112.987044 284.803384 
L 114.618474 285.752285 
L 116.249904 285.490296 
L 117.881334 287.223764 
L 119.512764 283.864737 
L 121.144194 288.726444 
L 122.775624 288.97653 
L 124.407053 285.601603 
L 126.038483 283.36654 
L 127.669913 283.407386 
L 129.301343 280.751325 
L 130.932773 287.087776 
L 132.564203 285.355762 
L 134.195633 287.61707 
L 135.827063 283.51241 
L 137.458492 285.868104 
L 139.089922 289.225124 
L 140.721352 285.378632 
L 142.352782 284.707045 
L 143.984212 285.765546 
L 145.615642 288.567034 
L 147.247072 287.256768 
L 148.878502 285.431037 
L 150.509931 289.085885 
L 152.141361 288.209247 
L 153.772791 291.975455 
L 155.404221 288.205858 
L 157.035651 280.845903 
L 158.667081 285.424199 
L 160.298511 282.275538 
L 161.929941 285.561523 
L 163.56137 285.22433 
L 166.82423 288.595758 
L 168.45566 287.825209 
L 170.08709 285.01231 
L 171.71852 288.288886 
L 173.34995 281.279952 
L 174.98138 286.011631 
L 176.61281 290.042637 
L 178.244239 288.844454 
L 181.507099 287.80354 
L 183.138529 288.202009 
L 184.769959 284.062301 
L 186.401389 288.541902 
L 188.032819 287.268066 
L 189.664249 284.541694 
L 191.295678 287.353708 
L 192.927108 286.237761 
L 194.558538 285.996666 
L 196.189968 287.695002 
L 197.821398 287.197172 
L 199.452828 288.457065 
L 201.084258 286.000454 
L 202.715688 284.28388 
L 204.347117 285.285066 
L 205.978547 288.067191 
L 207.609977 287.361365 
L 209.241407 284.857905 
L 210.872837 283.518239 
L 212.504267 283.369107 
L 214.135697 290.676077 
L 215.767127 285.383259 
L 217.398556 285.357256 
L 219.029986 284.607008 
L 220.661416 285.179476 
L 222.292846 285.471759 
L 223.924276 282.903285 
L 225.555706 283.096735 
L 227.187136 284.057526 
L 228.818566 286.156826 
L 230.449995 281.955434 
L 232.081425 282.746952 
L 233.712855 284.246956 
L 235.344285 284.68771 
L 236.975715 284.101301 
L 238.607145 284.085967 
L 240.238575 286.216933 
L 241.870005 285.768817 
L 243.501434 288.000989 
L 245.132864 291.503106 
L 246.764294 290.067859 
L 248.395724 285.78262 
L 250.027154 286.165212 
L 251.658584 281.846419 
L 253.290014 288.24774 
L 254.921444 282.63931 
L 256.552873 284.390504 
L 258.184303 288.943123 
L 259.815733 283.819106 
L 261.447163 285.868863 
L 263.078593 283.069642 
L 264.710023 287.604421 
L 266.341453 283.86372 
L 267.972883 292.572101 
L 269.604312 292.015682 
L 271.235742 288.158963 
L 272.867172 287.302098 
L 274.498602 287.270316 
L 276.130032 286.849216 
L 277.761462 288.673286 
L 279.392892 284.508827 
L 281.024322 288.604336 
L 282.655751 288.344369 
L 284.287181 283.653925 
L 285.918611 287.429319 
L 287.550041 290.87229 
L 289.181471 290.544862 
L 290.812901 289.116972 
L 292.444331 290.81592 
L 294.075761 287.080723 
L 295.70719 286.606706 
L 297.33862 292.396833 
L 298.97005 287.559149 
L 300.60148 288.056257 
L 302.23291 289.065736 
L 303.86434 289.341951 
L 305.49577 289.273289 
L 307.1272 289.47799 
L 308.75863 290.497609 
L 310.390059 288.388927 
L 312.021489 287.039763 
L 313.652919 288.045945 
L 315.284349 284.700882 
L 316.915779 286.586671 
L 318.547209 289.954814 
L 320.178639 284.102785 
L 321.810069 293.131221 
L 323.441498 290.035555 
L 325.072928 286.343107 
L 326.704358 286.932141 
L 328.335788 283.975283 
L 329.967218 289.526224 
L 331.598648 284.918812 
L 333.230078 284.001005 
L 334.861508 285.858984 
L 336.492937 290.485298 
L 338.124367 286.169306 
L 339.755797 283.519087 
L 341.387227 283.248504 
L 344.650087 288.6937 
L 346.281517 285.320908 
L 347.912947 288.350153 
L 349.544376 285.317044 
L 351.175806 287.624613 
L 352.807236 290.382177 
L 354.438666 282.908567 
L 356.070096 288.498418 
L 357.701526 290.440452 
L 359.332956 287.185499 
L 360.964386 282.897352 
L 362.595815 287.810868 
L 364.227245 280.409579 
L 365.858675 282.591375 
L 367.490105 284.298185 
L 369.121535 291.309202 
L 370.752965 290.693681 
L 372.384395 285.622972 
L 374.015825 286.624751 
L 375.647254 284.111521 
L 377.278684 286.181139 
L 378.910114 288.955845 
L 380.541544 283.523796 
L 382.172974 283.487072 
L 383.804404 289.002756 
L 385.435834 290.590776 
L 387.067264 289.789757 
L 388.698693 288.446795 
L 390.330123 294.092409 
L 391.961553 290.560846 
L 393.592983 288.551532 
L 395.224413 295.488 
L 396.855843 285.705944 
L 398.487273 288.554346 
L 398.487273 288.554346 
" clip-path="url(#pbf96792541)" style="fill: none; stroke-dasharray: 9.6,2.4,1.5,2.4; stroke-dashoffset: 0; stroke: #008000; stroke-width: 1.5"/>
   </g>
   <g id="line2d_31">
    <path d="M 73.832727 237.042072 
L 75.464157 239.355184 
L 77.095587 240.655943 
L 78.727017 241.345437 
L 80.358447 240.436664 
L 81.989877 239.375648 
L 83.621307 234.263587 
L 85.252736 243.646288 
L 86.884166 237.109541 
L 88.515596 233.340935 
L 90.147026 231.787863 
L 91.778456 234.724151 
L 93.409886 229.480043 
L 95.041316 230.7499 
L 96.672746 243.666807 
L 98.304175 238.684016 
L 99.935605 222.022605 
L 101.567035 234.647716 
L 103.198465 236.044191 
L 104.829895 235.527169 
L 106.461325 232.476848 
L 108.092755 236.032627 
L 109.724185 230.806793 
L 111.355614 239.066894 
L 112.987044 233.958143 
L 114.618474 232.091122 
L 116.249904 232.650692 
L 119.512764 233.055078 
L 121.144194 233.57914 
L 122.775624 237.427594 
L 124.407053 228.093638 
L 126.038483 226.050943 
L 127.669913 235.257698 
L 129.301343 229.032112 
L 130.932773 230.825286 
L 132.564203 233.987132 
L 134.195633 231.81113 
L 135.827063 229.258132 
L 137.458492 230.432702 
L 139.089922 228.918495 
L 140.721352 233.087638 
L 142.352782 238.35692 
L 143.984212 240.005833 
L 145.615642 229.569169 
L 147.247072 229.119168 
L 148.878502 234.066408 
L 150.509931 225.333641 
L 152.141361 232.078784 
L 153.772791 230.640759 
L 157.035651 239.803868 
L 158.667081 234.196514 
L 160.298511 227.253071 
L 161.929941 228.40949 
L 163.56137 233.381067 
L 165.1928 227.213301 
L 166.82423 229.408544 
L 168.45566 229.974333 
L 170.08709 233.293598 
L 171.71852 232.426834 
L 173.34995 234.170249 
L 174.98138 218.553676 
L 176.61281 230.035802 
L 178.244239 234.429936 
L 179.875669 229.714819 
L 181.507099 232.808324 
L 183.138529 230.480847 
L 184.769959 231.750538 
L 186.401389 231.523103 
L 188.032819 236.500368 
L 189.664249 229.765474 
L 191.295678 234.827505 
L 192.927108 228.20758 
L 194.558538 224.262814 
L 196.189968 223.821862 
L 197.821398 236.766094 
L 199.452828 236.873345 
L 201.084258 235.652536 
L 202.715688 238.189 
L 204.347117 239.662275 
L 205.978547 228.802987 
L 207.609977 231.159625 
L 209.241407 227.187357 
L 210.872837 233.615299 
L 212.504267 228.016117 
L 214.135697 221.004197 
L 215.767127 235.009252 
L 217.398556 234.791092 
L 219.029986 231.32268 
L 220.661416 231.728603 
L 222.292846 233.30728 
L 223.924276 229.536841 
L 225.555706 225.436752 
L 227.187136 229.562292 
L 228.818566 229.242811 
L 230.449995 232.464999 
L 232.081425 225.776806 
L 235.344285 233.390323 
L 236.975715 225.488382 
L 238.607145 228.855689 
L 240.238575 227.118905 
L 241.870005 227.161281 
L 243.501434 228.090891 
L 245.132864 223.121579 
L 246.764294 228.361091 
L 248.395724 228.615083 
L 250.027154 224.508501 
L 251.658584 226.001977 
L 253.290014 225.860285 
L 254.921444 240.665322 
L 256.552873 231.529148 
L 258.184303 229.972602 
L 259.815733 240.226297 
L 261.447163 232.770751 
L 263.078593 230.525841 
L 264.710023 233.477734 
L 266.341453 234.354396 
L 267.972883 234.968018 
L 269.604312 236.464736 
L 271.235742 235.597257 
L 272.867172 233.505395 
L 274.498602 223.584935 
L 276.130032 238.961728 
L 277.761462 241.319985 
L 279.392892 231.503588 
L 281.024322 237.162118 
L 282.655751 222.806532 
L 284.287181 234.616115 
L 285.918611 231.455827 
L 287.550041 229.709796 
L 289.181471 226.894496 
L 290.812901 235.75901 
L 292.444331 231.959747 
L 294.075761 230.291503 
L 295.70719 228.091792 
L 297.33862 231.03749 
L 298.97005 234.584069 
L 300.60148 233.026784 
L 302.23291 235.568819 
L 303.86434 234.584654 
L 305.49577 234.820346 
L 307.1272 233.853976 
L 308.75863 236.968216 
L 310.390059 237.703524 
L 313.652919 234.688189 
L 315.284349 242.094374 
L 316.915779 238.533943 
L 318.547209 239.148298 
L 320.178639 237.295218 
L 321.810069 236.729054 
L 323.441498 230.930914 
L 325.072928 231.774877 
L 326.704358 228.544053 
L 328.335788 236.899283 
L 329.967218 232.865822 
L 331.598648 234.217666 
L 333.230078 232.349595 
L 334.861508 226.689951 
L 336.492937 239.59226 
L 338.124367 240.589318 
L 339.755797 234.437591 
L 341.387227 238.53025 
L 343.018657 232.236232 
L 344.650087 229.986676 
L 346.281517 230.929008 
L 347.912947 231.400155 
L 349.544376 233.177306 
L 351.175806 229.959179 
L 352.807236 227.851676 
L 354.438666 230.325991 
L 356.070096 230.779749 
L 357.701526 237.599094 
L 359.332956 232.147864 
L 360.964386 224.299605 
L 362.595815 221.927033 
L 364.227245 232.027665 
L 365.858675 233.066405 
L 367.490105 220.862426 
L 369.121535 221.006468 
L 370.752965 217.490167 
L 372.384395 231.595158 
L 374.015825 229.268703 
L 375.647254 226.572518 
L 377.278684 231.679128 
L 378.910114 232.845031 
L 380.541544 233.243701 
L 382.172974 235.842641 
L 383.804404 226.729059 
L 385.435834 229.60659 
L 387.067264 230.541719 
L 388.698693 233.665008 
L 390.330123 232.768588 
L 391.961553 224.220257 
L 393.592983 225.741128 
L 395.224413 228.490227 
L 396.855843 233.275066 
L 398.487273 231.995321 
L 398.487273 231.995321 
" clip-path="url(#pbf96792541)" style="fill: none; stroke-dasharray: 9.6,2.4,1.5,2.4; stroke-dashoffset: 0; stroke: #008000; stroke-width: 1.5"/>
   </g>
   <g id="line2d_32">
    <path d="M 73.832727 137.998248 
L 75.464157 168.729321 
L 77.095587 97.155471 
L 78.727017 146.179515 
L 80.358447 152.479257 
L 81.989877 149.050216 
L 83.621307 85.074583 
L 85.252736 181.416544 
L 86.884166 94.35289 
L 88.515596 135.826111 
L 90.147026 124.402792 
L 91.778456 127.046021 
L 93.409886 145.91411 
L 95.041316 161.750388 
L 96.672746 191.388645 
L 98.304175 159.330922 
L 99.935605 87.703956 
L 101.567035 121.10283 
L 103.198465 146.720344 
L 106.461325 150.157779 
L 108.092755 161.007105 
L 109.724185 114.843327 
L 111.355614 177.191943 
L 112.987044 122.890319 
L 114.618474 146.532005 
L 116.249904 100.19038 
L 117.881334 107.824002 
L 119.512764 153.625362 
L 121.144194 152.81476 
L 122.775624 173.545527 
L 124.407053 116.812515 
L 126.038483 110.220561 
L 127.669913 125.259453 
L 129.301343 146.119677 
L 130.932773 129.30841 
L 132.564203 178.790149 
L 134.195633 121.655352 
L 135.827063 140.071271 
L 137.458492 114.628989 
L 139.089922 74.658988 
L 140.721352 143.717151 
L 143.984212 181.280596 
L 145.615642 122.857181 
L 147.247072 153.197048 
L 148.878502 157.135556 
L 150.509931 66.030336 
L 152.141361 143.718291 
L 153.772791 131.195998 
L 155.404221 155.478973 
L 157.035651 170.202135 
L 158.667081 151.851837 
L 160.298511 155.429148 
L 161.929941 102.98964 
L 163.56137 150.837455 
L 165.1928 133.827359 
L 166.82423 90.950212 
L 168.45566 101.994338 
L 170.08709 165.303865 
L 171.71852 152.389394 
L 173.34995 157.986307 
L 174.98138 104.187482 
L 176.61281 112.595417 
L 178.244239 179.542688 
L 179.875669 109.970481 
L 181.507099 135.591651 
L 183.138529 120.243829 
L 184.769959 158.48762 
L 186.401389 143.624304 
L 188.032819 117.067838 
L 189.664249 144.98854 
L 191.295678 125.190263 
L 192.927108 118.719905 
L 194.558538 101.192034 
L 196.189968 105.690183 
L 197.821398 173.262416 
L 199.452828 192.387332 
L 201.084258 184.436501 
L 202.715688 190.620242 
L 204.347117 168.754703 
L 207.609977 112.611129 
L 209.241407 107.345555 
L 210.872837 156.508084 
L 212.504267 126.491713 
L 214.135697 80.705926 
L 215.767127 160.295558 
L 219.029986 127.750899 
L 220.661416 139.639971 
L 222.292846 113.958379 
L 223.924276 149.555392 
L 225.555706 140.902249 
L 227.187136 148.556138 
L 228.818566 158.109644 
L 230.449995 168.716082 
L 232.081425 146.961811 
L 233.712855 127.916219 
L 235.344285 148.632679 
L 236.975715 122.01661 
L 238.607145 158.953586 
L 240.238575 144.82442 
L 241.870005 115.030782 
L 243.501434 113.87277 
L 245.132864 60.225887 
L 246.764294 127.248786 
L 248.395724 139.672996 
L 250.027154 135.964228 
L 251.658584 146.936744 
L 253.290014 97.897513 
L 254.921444 176.852791 
L 256.552873 174.756496 
L 258.184303 120.991126 
L 259.815733 158.336437 
L 261.447163 165.990904 
L 263.078593 144.391203 
L 264.710023 126.33574 
L 266.341453 135.691948 
L 267.972883 100.705357 
L 269.604312 179.558369 
L 272.867172 127.609925 
L 274.498602 122.137357 
L 276.130032 131.94652 
L 277.761462 180.237114 
L 279.392892 146.853779 
L 281.024322 157.533112 
L 282.655751 53.568 
L 284.287181 136.081342 
L 285.918611 145.743305 
L 287.550041 142.098109 
L 289.181471 123.01674 
L 290.812901 157.816579 
L 292.444331 124.076088 
L 294.075761 153.841586 
L 295.70719 138.723311 
L 297.33862 64.996128 
L 298.97005 159.342895 
L 300.60148 165.786831 
L 302.23291 144.531062 
L 303.86434 162.032687 
L 305.49577 135.65659 
L 307.1272 141.785695 
L 308.75863 154.620794 
L 310.390059 132.961255 
L 312.021489 167.603134 
L 313.652919 142.31232 
L 315.284349 192.266387 
L 316.915779 138.104652 
L 318.547209 154.771801 
L 321.810069 126.00101 
L 323.441498 146.45285 
L 325.072928 143.148497 
L 326.704358 131.941258 
L 328.335788 177.15041 
L 329.967218 142.001105 
L 331.598648 149.594994 
L 333.230078 151.917782 
L 334.861508 128.342709 
L 336.492937 156.878252 
L 338.124367 143.781626 
L 339.755797 127.252286 
L 341.387227 176.674821 
L 343.018657 162.928889 
L 344.650087 145.258687 
L 346.281517 156.281902 
L 347.912947 104.958144 
L 349.544376 136.318829 
L 351.175806 140.392569 
L 352.807236 82.313157 
L 354.438666 158.580659 
L 356.070096 156.430227 
L 357.701526 143.709034 
L 359.332956 126.897871 
L 360.964386 164.587081 
L 362.595815 109.424392 
L 364.227245 180.777754 
L 365.858675 177.825686 
L 367.490105 138.90106 
L 369.121535 86.802869 
L 370.752965 86.429762 
L 372.384395 150.061053 
L 374.015825 103.436187 
L 375.647254 98.106547 
L 378.910114 149.104462 
L 380.541544 162.14945 
L 382.172974 181.930211 
L 383.804404 73.003698 
L 385.435834 144.130516 
L 387.067264 122.14946 
L 388.698693 160.367841 
L 390.330123 148.514976 
L 391.961553 148.202053 
L 393.592983 148.549248 
L 395.224413 119.807471 
L 398.487273 101.059698 
L 398.487273 101.059698 
" clip-path="url(#pbf96792541)" style="fill: none; stroke: #ff0000; stroke-width: 1.5; stroke-linecap: square"/>
   </g>
   <g id="patch_3">
    <path d="M 57.6 307.584 
L 57.6 41.472 
" style="fill: none; stroke: #000000; stroke-width: 0.8; stroke-linejoin: miter; stroke-linecap: square"/>
   </g>
   <g id="patch_4">
    <path d="M 414.72 307.584 
L 414.72 41.472 
" style="fill: none; stroke: #000000; stroke-width: 0.8; stroke-linejoin: miter; stroke-linecap: square"/>
   </g>
   <g id="patch_5">
    <path d="M 57.6 307.584 
L 414.72 307.584 
" style="fill: none; stroke: #000000; stroke-width: 0.8; stroke-linejoin: miter; stroke-linecap: square"/>
   </g>
   <g id="patch_6">
    <path d="M 57.6 41.472 
L 414.72 41.472 
" style="fill: none; stroke: #000000; stroke-width: 0.8; stroke-linejoin: miter; stroke-linecap: square"/>
   </g>
   <g id="text_17">
    <!-- Population's average and best fitness -->
    <g transform="translate(123.529687 35.472)scale(0.12 -0.12)">
     <defs>
      <path id="DejaVuSans-50" d="M 1259 4147 
L 1259 2394 
L 2053 2394 
Q 2494 2394 2734 2622 
Q 2975 2850 2975 3272 
Q 2975 3691 2734 3919 
Q 2494 4147 2053 4147 
L 1259 4147 
z
M 628 4666 
L 2053 4666 
Q 2838 4666 3239 4311 
Q 3641 3956 3641 3272 
Q 3641 2581 3239 2228 
Q 2838 1875 2053 1875 
L 1259 1875 
L 1259 0 
L 628 0 
L 628 4666 
z
" transform="scale(0.015625)"/>
      <path id="DejaVuSans-70" d="M 1159 525 
L 1159 -1331 
L 581 -1331 
L 581 3500 
L 1159 3500 
L 1159 2969 
Q 1341 3281 1617 3432 
Q 1894 3584 2278 3584 
Q 2916 3584 3314 3078 
Q 3713 2572 3713 1747 
Q 3713 922 3314 415 
Q 2916 -91 2278 -91 
Q 1894 -91 1617 61 
Q 1341 213 1159 525 
z
M 3116 1747 
Q 3116 2381 2855 2742 
Q 2594 3103 2138 3103 
Q 1681 3103 1420 2742 
Q 1159 2381 1159 1747 
Q 1159 1113 1420 752 
Q 1681 391 2138 391 
Q 2594 391 2855 752 
Q 3116 1113 3116 1747 
z
" transform="scale(0.015625)"/>
      <path id="DejaVuSans-75" d="M 544 1381 
L 544 3500 
L 1119 3500 
L 1119 1403 
Q 1119 906 1312 657 
Q 1506 409 1894 409 
Q 2359 409 2629 706 
Q 2900 1003 2900 1516 
L 2900 3500 
L 3475 3500 
L 3475 0 
L 2900 0 
L 2900 538 
Q 2691 219 2414 64 
Q 2138 -91 1772 -91 
Q 1169 -91 856 284 
Q 544 659 544 1381 
z
M 1991 3584 
L 1991 3584 
z
" transform="scale(0.015625)"/>
      <path id="DejaVuSans-6c" d="M 603 4863 
L 1178 4863 
L 1178 0 
L 603 0 
L 603 4863 
z
" transform="scale(0.015625)"/>
      <path id="DejaVuSans-27" d="M 1147 4666 
L 1147 2931 
L 616 2931 
L 616 4666 
L 1147 4666 
z
" transform="scale(0.015625)"/>
      <path id="DejaVuSans-20" transform="scale(0.015625)"/>
      <path id="DejaVuSans-76" d="M 191 3500 
L 800 3500 
L 1894 563 
L 2988 3500 
L 3597 3500 
L 2284 0 
L 1503 0 
L 191 3500 
z
" transform="scale(0.015625)"/>
      <path id="DejaVuSans-67" d="M 2906 1791 
Q 2906 2416 2648 2759 
Q 2391 3103 1925 3103 
Q 1463 3103 1205 2759 
Q 947 2416 947 1791 
Q 947 1169 1205 825 
Q 1463 481 1925 481 
Q 2391 481 2648 825 
Q 2906 1169 2906 1791 
z
M 3481 434 
Q 3481 -459 3084 -895 
Q 2688 -1331 1869 -1331 
Q 1566 -1331 1297 -1286 
Q 1028 -1241 775 -1147 
L 775 -588 
Q 1028 -725 1275 -790 
Q 1522 -856 1778 -856 
Q 2344 -856 2625 -561 
Q 2906 -266 2906 331 
L 2906 616 
Q 2728 306 2450 153 
Q 2172 0 1784 0 
Q 1141 0 747 490 
Q 353 981 353 1791 
Q 353 2603 747 3093 
Q 1141 3584 1784 3584 
Q 2172 3584 2450 3431 
Q 2728 3278 2906 2969 
L 2906 3500 
L 3481 3500 
L 3481 434 
z
" transform="scale(0.015625)"/>
      <path id="DejaVuSans-64" d="M 2906 2969 
L 2906 4863 
L 3481 4863 
L 3481 0 
L 2906 0 
L 2906 525 
Q 2725 213 2448 61 
Q 2172 -91 1784 -91 
Q 1150 -91 751 415 
Q 353 922 353 1747 
Q 353 2572 751 3078 
Q 1150 3584 1784 3584 
Q 2172 3584 2448 3432 
Q 2725 3281 2906 2969 
z
M 947 1747 
Q 947 1113 1208 752 
Q 1469 391 1925 391 
Q 2381 391 2643 752 
Q 2906 1113 2906 1747 
Q 2906 2381 2643 2742 
Q 2381 3103 1925 3103 
Q 1469 3103 1208 2742 
Q 947 2381 947 1747 
z
" transform="scale(0.015625)"/>
      <path id="DejaVuSans-62" d="M 3116 1747 
Q 3116 2381 2855 2742 
Q 2594 3103 2138 3103 
Q 1681 3103 1420 2742 
Q 1159 2381 1159 1747 
Q 1159 1113 1420 752 
Q 1681 391 2138 391 
Q 2594 391 2855 752 
Q 3116 1113 3116 1747 
z
M 1159 2969 
Q 1341 3281 1617 3432 
Q 1894 3584 2278 3584 
Q 2916 3584 3314 3078 
Q 3713 2572 3713 1747 
Q 3713 922 3314 415 
Q 2916 -91 2278 -91 
Q 1894 -91 1617 61 
Q 1341 213 1159 525 
L 1159 0 
L 581 0 
L 581 4863 
L 1159 4863 
L 1159 2969 
z
" transform="scale(0.015625)"/>
      <path id="DejaVuSans-66" d="M 2375 4863 
L 2375 4384 
L 1825 4384 
Q 1516 4384 1395 4259 
Q 1275 4134 1275 3809 
L 1275 3500 
L 2222 3500 
L 2222 3053 
L 1275 3053 
L 1275 0 
L 697 0 
L 697 3053 
L 147 3053 
L 147 3500 
L 697 3500 
L 697 3744 
Q 697 4328 969 4595 
Q 1241 4863 1831 4863 
L 2375 4863 
z
" transform="scale(0.015625)"/>
     </defs>
     <use xlink:href="#DejaVuSans-50"/>
     <use xlink:href="#DejaVuSans-6f" x="56.677734"/>
     <use xlink:href="#DejaVuSans-70" x="117.859375"/>
     <use xlink:href="#DejaVuSans-75" x="181.335938"/>
     <use xlink:href="#DejaVuSans-6c" x="244.714844"/>
     <use xlink:href="#DejaVuSans-61" x="272.498047"/>
     <use xlink:href="#DejaVuSans-74" x="333.777344"/>
     <use xlink:href="#DejaVuSans-69" x="372.986328"/>
     <use xlink:href="#DejaVuSans-6f" x="400.769531"/>
     <use xlink:href="#DejaVuSans-6e" x="461.951172"/>
     <use xlink:href="#DejaVuSans-27" x="525.330078"/>
     <use xlink:href="#DejaVuSans-73" x="552.820312"/>
     <use xlink:href="#DejaVuSans-20" x="604.919922"/>
     <use xlink:href="#DejaVuSans-61" x="636.707031"/>
     <use xlink:href="#DejaVuSans-76" x="697.986328"/>
     <use xlink:href="#DejaVuSans-65" x="757.166016"/>
     <use xlink:href="#DejaVuSans-72" x="818.689453"/>
     <use xlink:href="#DejaVuSans-61" x="859.802734"/>
     <use xlink:href="#DejaVuSans-67" x="921.082031"/>
     <use xlink:href="#DejaVuSans-65" x="984.558594"/>
     <use xlink:href="#DejaVuSans-20" x="1046.082031"/>
     <use xlink:href="#DejaVuSans-61" x="1077.869141"/>
     <use xlink:href="#DejaVuSans-6e" x="1139.148438"/>
     <use xlink:href="#DejaVuSans-64" x="1202.527344"/>
     <use xlink:href="#DejaVuSans-20" x="1266.003906"/>
     <use xlink:href="#DejaVuSans-62" x="1297.791016"/>
     <use xlink:href="#DejaVuSans-65" x="1361.267578"/>
     <use xlink:href="#DejaVuSans-73" x="1422.791016"/>
     <use xlink:href="#DejaVuSans-74" x="1474.890625"/>
     <use xlink:href="#DejaVuSans-20" x="1514.099609"/>
     <use xlink:href="#DejaVuSans-66" x="1545.886719"/>
     <use xlink:href="#DejaVuSans-69" x="1581.091797"/>
     <use xlink:href="#DejaVuSans-74" x="1608.875"/>
     <use xlink:href="#DejaVuSans-6e" x="1648.083984"/>
     <use xlink:href="#DejaVuSans-65" x="1711.462891"/>
     <use xlink:href="#DejaVuSans-73" x="1772.986328"/>
     <use xlink:href="#DejaVuSans-73" x="1825.085938"/>
    </g>
   </g>
   <g id="legend_1">
    <g id="patch_7">
     <path d="M 199.689687 108.1845 
L 272.630313 108.1845 
Q 274.630313 108.1845 274.630313 106.1845 
L 274.630313 48.472 
Q 274.630313 46.472 272.630313 46.472 
L 199.689687 46.472 
Q 197.689687 46.472 197.689687 48.472 
L 197.689687 106.1845 
Q 197.689687 108.1845 199.689687 108.1845 
z
" style="fill: #ffffff; opacity: 0.8; stroke: #cccccc; stroke-linejoin: miter"/>
    </g>
    <g id="line2d_33">
     <path d="M 201.689687 54.570438 
L 211.689687 54.570438 
L 221.689687 54.570438 
" style="fill: none; stroke: #0000ff; stroke-width: 1.5; stroke-linecap: square"/>
    </g>
    <g id="text_18">
     <!-- average -->
     <g transform="translate(229.689687 58.070438)scale(0.1 -0.1)">
      <use xlink:href="#DejaVuSans-61"/>
      <use xlink:href="#DejaVuSans-76" x="61.279297"/>
      <use xlink:href="#DejaVuSans-65" x="120.458984"/>
      <use xlink:href="#DejaVuSans-72" x="181.982422"/>
      <use xlink:href="#DejaVuSans-61" x="223.095703"/>
      <use xlink:href="#DejaVuSans-67" x="284.375"/>
      <use xlink:href="#DejaVuSans-65" x="347.851562"/>
     </g>
    </g>
    <g id="line2d_34">
     <path d="M 201.689687 69.248563 
L 211.689687 69.248563 
L 221.689687 69.248563 
" style="fill: none; stroke-dasharray: 9.6,2.4,1.5,2.4; stroke-dashoffset: 0; stroke: #008000; stroke-width: 1.5"/>
    </g>
    <g id="text_19">
     <!-- -1 sd -->
     <g transform="translate(229.689687 72.748563)scale(0.1 -0.1)">
      <defs>
       <path id="DejaVuSans-2d" d="M 313 2009 
L 1997 2009 
L 1997 1497 
L 313 1497 
L 313 2009 
z
" transform="scale(0.015625)"/>
      </defs>
      <use xlink:href="#DejaVuSans-2d"/>
      <use xlink:href="#DejaVuSans-31" x="36.083984"/>
      <use xlink:href="#DejaVuSans-20" x="99.707031"/>
      <use xlink:href="#DejaVuSans-73" x="131.494141"/>
      <use xlink:href="#DejaVuSans-64" x="183.59375"/>
     </g>
    </g>
    <g id="line2d_35">
     <path d="M 201.689687 83.926688 
L 211.689687 83.926688 
L 221.689687 83.926688 
" style="fill: none; stroke-dasharray: 9.6,2.4,1.5,2.4; stroke-dashoffset: 0; stroke: #008000; stroke-width: 1.5"/>
    </g>
    <g id="text_20">
     <!-- +1 sd -->
     <g transform="translate(229.689687 87.426688)scale(0.1 -0.1)">
      <defs>
       <path id="DejaVuSans-2b" d="M 2944 4013 
L 2944 2272 
L 4684 2272 
L 4684 1741 
L 2944 1741 
L 2944 0 
L 2419 0 
L 2419 1741 
L 678 1741 
L 678 2272 
L 2419 2272 
L 2419 4013 
L 2944 4013 
z
" transform="scale(0.015625)"/>
      </defs>
      <use xlink:href="#DejaVuSans-2b"/>
      <use xlink:href="#DejaVuSans-31" x="83.789062"/>
      <use xlink:href="#DejaVuSans-20" x="147.412109"/>
      <use xlink:href="#DejaVuSans-73" x="179.199219"/>
      <use xlink:href="#DejaVuSans-64" x="231.298828"/>
     </g>
    </g>
    <g id="line2d_36">
     <path d="M 201.689687 98.604813 
L 211.689687 98.604813 
L 221.689687 98.604813 
" style="fill: none; stroke: #ff0000; stroke-width: 1.5; stroke-linecap: square"/>
    </g>
    <g id="text_21">
     <!-- best -->
     <g transform="translate(229.689687 102.104813)scale(0.1 -0.1)">
      <use xlink:href="#DejaVuSans-62"/>
      <use xlink:href="#DejaVuSans-65" x="63.476562"/>
      <use xlink:href="#DejaVuSans-73" x="125"/>
      <use xlink:href="#DejaVuSans-74" x="177.099609"/>
     </g>
    </g>
   </g>
  </g>
 </g>
 <defs>
  <clipPath id="pbf96792541">
   <rect x="57.6" y="41.472" width="357.12" height="266.112"/>
  </clipPath>
 </defs>
</svg>
