<?xml version="1.0" encoding="UTF-8" standalone="no"?>
<!DOCTYPE svg PUBLIC "-//W3C//DTD SVG 1.1//EN"
 "http://www.w3.org/Graphics/SVG/1.1/DTD/svg11.dtd">
<!-- Generated by graphviz version 4.0.0 (20220529.0937)
 -->
<!-- Pages: 1 -->
<svg width="1715pt" height="762pt"
 viewBox="0.00 0.00 1715.07 762.17" xmlns="http://www.w3.org/2000/svg" xmlns:xlink="http://www.w3.org/1999/xlink">
<g id="graph0" class="graph" transform="scale(1 1) rotate(0) translate(4 758.17)">
<polygon fill="white" stroke="transparent" points="-4,4 -4,-758.17 1711.07,-758.17 1711.07,4 -4,4"/>
<!-- GHOST1 DIST -->
<g id="node1" class="node">
<title>GHOST1 DIST</title>
<ellipse fill="lightcoral" stroke="black" cx="52.33" cy="-694.77" rx="52.15" ry="52.15"/>
<text text-anchor="middle" x="52.33" y="-692.57" font-family="Times New Roman,serif" font-size="9.00">GHOST1 DIST</text>
</g>
<!-- GHOST2 DIST -->
<g id="node2" class="node">
<title>GHOST2 DIST</title>
<ellipse fill="lightcoral" stroke="black" cx="175.33" cy="-694.77" rx="52.15" ry="52.15"/>
<text text-anchor="middle" x="175.33" y="-692.57" font-family="Times New Roman,serif" font-size="9.00">GHOST2 DIST</text>
</g>
<!-- GHOST3 DIST -->
<g id="node3" class="node">
<title>GHOST3 DIST</title>
<ellipse fill="lightcoral" stroke="black" cx="547.33" cy="-399.33" rx="52.15" ry="52.15"/>
<text text-anchor="middle" x="547.33" y="-397.13" font-family="Times New Roman,serif" font-size="9.00">GHOST3 DIST</text>
</g>
<!-- RIGHT -->
<g id="node21" class="node">
<title>RIGHT</title>
<ellipse fill="lightblue" stroke="black" cx="642.33" cy="-279.18" rx="31.64" ry="31.64"/>
<text text-anchor="middle" x="642.33" y="-276.98" font-family="Times New Roman,serif" font-size="9.00">RIGHT</text>
</g>
<!-- GHOST3 DIST&#45;&gt;RIGHT -->
<g id="edge12" class="edge">
<title>GHOST3 DIST&#45;&gt;RIGHT</title>
<path fill="none" stroke="green" stroke-width="0.21" d="M579.75,-358C594.05,-340.22 610.38,-319.91 622.77,-304.5"/>
</g>
<!-- GHOST4 DIST -->
<g id="node4" class="node">
<title>GHOST4 DIST</title>
<ellipse fill="lightcoral" stroke="black" cx="337.33" cy="-155.5" rx="52.15" ry="52.15"/>
<text text-anchor="middle" x="337.33" y="-153.3" font-family="Times New Roman,serif" font-size="9.00">GHOST4 DIST</text>
</g>
<!-- DOWN -->
<g id="node20" class="node">
<title>DOWN</title>
<ellipse fill="lightblue" stroke="black" cx="523.33" cy="-31.82" rx="31.64" ry="31.64"/>
<text text-anchor="middle" x="523.33" y="-29.62" font-family="Times New Roman,serif" font-size="9.00">DOWN</text>
</g>
<!-- GHOST4 DIST&#45;&gt;DOWN -->
<g id="edge4" class="edge">
<title>GHOST4 DIST&#45;&gt;DOWN</title>
<path fill="none" stroke="green" stroke-width="2.94" d="M374.89,-118.82C382.7,-112.11 391.08,-105.4 399.33,-99.64 430.21,-78.09 468.81,-58.28 494.66,-45.93"/>
</g>
<!-- GHOST5 DIST -->
<g id="node5" class="node">
<title>GHOST5 DIST</title>
<ellipse fill="lightcoral" stroke="black" cx="460.33" cy="-155.5" rx="52.15" ry="52.15"/>
<text text-anchor="middle" x="460.33" y="-153.3" font-family="Times New Roman,serif" font-size="9.00">GHOST5 DIST</text>
</g>
<!-- GHOST5 DIST&#45;&gt;DOWN -->
<g id="edge2" class="edge">
<title>GHOST5 DIST&#45;&gt;DOWN</title>
<path fill="none" stroke="red" stroke-width="1.39" d="M484.14,-108.5C492.51,-92.35 501.64,-74.71 508.98,-60.53"/>
</g>
<!-- GHOST6 DIST -->
<g id="node6" class="node">
<title>GHOST6 DIST</title>
<ellipse fill="lightcoral" stroke="black" cx="756.33" cy="-694.77" rx="52.15" ry="52.15"/>
<text text-anchor="middle" x="756.33" y="-692.57" font-family="Times New Roman,serif" font-size="9.00">GHOST6 DIST</text>
</g>
<!-- GHOST7 DIST -->
<g id="node7" class="node">
<title>GHOST7 DIST</title>
<ellipse fill="lightcoral" stroke="black" cx="879.33" cy="-694.77" rx="52.15" ry="52.15"/>
<text text-anchor="middle" x="879.33" y="-692.57" font-family="Times New Roman,serif" font-size="9.00">GHOST7 DIST</text>
</g>
<!-- GHOST8 DIST -->
<g id="node8" class="node">
<title>GHOST8 DIST</title>
<ellipse fill="lightcoral" stroke="black" cx="633.33" cy="-694.77" rx="52.15" ry="52.15"/>
<text text-anchor="middle" x="633.33" y="-692.57" font-family="Times New Roman,serif" font-size="9.00">GHOST8 DIST</text>
</g>
<!-- LEFT -->
<g id="node22" class="node">
<title>LEFT</title>
<ellipse fill="lightblue" stroke="black" cx="570.33" cy="-543.52" rx="26.74" ry="26.74"/>
<text text-anchor="middle" x="570.33" y="-541.32" font-family="Times New Roman,serif" font-size="9.00">LEFT</text>
</g>
<!-- GHOST8 DIST&#45;&gt;LEFT -->
<g id="edge17" class="edge">
<title>GHOST8 DIST&#45;&gt;LEFT</title>
<path fill="none" stroke="red" stroke-width="0.64" d="M613.22,-646.14C602.34,-620.37 589.37,-589.65 580.57,-568.78"/>
</g>
<!-- GHOST1 CORR -->
<g id="node9" class="node">
<title>GHOST1 CORR</title>
<ellipse fill="lightcoral" stroke="black" cx="1005.33" cy="-694.77" rx="55.72" ry="55.72"/>
<text text-anchor="middle" x="1005.33" y="-692.57" font-family="Times New Roman,serif" font-size="9.00">GHOST1 CORR</text>
</g>
<!-- GHOST2 CORR -->
<g id="node10" class="node">
<title>GHOST2 CORR</title>
<ellipse fill="lightcoral" stroke="black" cx="1135.33" cy="-694.77" rx="55.72" ry="55.72"/>
<text text-anchor="middle" x="1135.33" y="-692.57" font-family="Times New Roman,serif" font-size="9.00">GHOST2 CORR</text>
</g>
<!-- GHOST3 CORR -->
<g id="node11" class="node">
<title>GHOST3 CORR</title>
<ellipse fill="lightcoral" stroke="black" cx="586.33" cy="-155.5" rx="55.72" ry="55.72"/>
<text text-anchor="middle" x="586.33" y="-153.3" font-family="Times New Roman,serif" font-size="9.00">GHOST3 CORR</text>
</g>
<!-- GHOST3 CORR&#45;&gt;DOWN -->
<g id="edge9" class="edge">
<title>GHOST3 CORR&#45;&gt;DOWN</title>
<path fill="none" stroke="red" stroke-width="0.34" d="M560.88,-105.36C552.96,-90.06 544.51,-73.73 537.63,-60.45"/>
</g>
<!-- GHOST4 CORR -->
<g id="node12" class="node">
<title>GHOST4 CORR</title>
<ellipse fill="lightcoral" stroke="black" cx="1265.33" cy="-694.77" rx="55.72" ry="55.72"/>
<text text-anchor="middle" x="1265.33" y="-692.57" font-family="Times New Roman,serif" font-size="9.00">GHOST4 CORR</text>
</g>
<!-- GHOST5 CORR -->
<g id="node13" class="node">
<title>GHOST5 CORR</title>
<ellipse fill="lightcoral" stroke="black" cx="1395.33" cy="-694.77" rx="55.72" ry="55.72"/>
<text text-anchor="middle" x="1395.33" y="-692.57" font-family="Times New Roman,serif" font-size="9.00">GHOST5 CORR</text>
</g>
<!-- GHOST6 CORR -->
<g id="node14" class="node">
<title>GHOST6 CORR</title>
<ellipse fill="lightcoral" stroke="black" cx="507.33" cy="-694.77" rx="55.72" ry="55.72"/>
<text text-anchor="middle" x="507.33" y="-692.57" font-family="Times New Roman,serif" font-size="9.00">GHOST6 CORR</text>
</g>
<!-- GHOST6 CORR&#45;&gt;LEFT -->
<g id="edge6" class="edge">
<title>GHOST6 CORR&#45;&gt;LEFT</title>
<path fill="none" stroke="green" stroke-width="0.24" d="M528.83,-642.82C539.45,-617.66 551.77,-588.48 560.21,-568.49"/>
</g>
<!-- GHOST7 CORR -->
<g id="node15" class="node">
<title>GHOST7 CORR</title>
<ellipse fill="lightcoral" stroke="black" cx="1525.33" cy="-694.77" rx="55.72" ry="55.72"/>
<text text-anchor="middle" x="1525.33" y="-692.57" font-family="Times New Roman,serif" font-size="9.00">GHOST7 CORR</text>
</g>
<!-- GHOST8 CORR -->
<g id="node16" class="node">
<title>GHOST8 CORR</title>
<ellipse fill="lightcoral" stroke="black" cx="465.33" cy="-543.52" rx="55.72" ry="55.72"/>
<text text-anchor="middle" x="465.33" y="-541.32" font-family="Times New Roman,serif" font-size="9.00">GHOST8 CORR</text>
</g>
<!-- UP -->
<g id="node19" class="node">
<title>UP</title>
<ellipse fill="lightblue" stroke="black" cx="299.33" cy="-399.33" rx="20.51" ry="20.51"/>
<text text-anchor="middle" x="299.33" y="-397.13" font-family="Times New Roman,serif" font-size="9.00">UP</text>
</g>
<!-- GHOST8 CORR&#45;&gt;UP -->
<g id="edge5" class="edge">
<title>GHOST8 CORR&#45;&gt;UP</title>
<path fill="none" stroke="red" stroke-width="0.25" d="M423.01,-506.27C387.66,-475.99 339.23,-434.51 314.78,-413.57"/>
</g>
<!-- PACMAN CORR -->
<g id="node17" class="node">
<title>PACMAN CORR</title>
<ellipse fill="lightcoral" stroke="black" cx="305.33" cy="-694.77" rx="59.29" ry="59.29"/>
<text text-anchor="middle" x="305.33" y="-692.57" font-family="Times New Roman,serif" font-size="9.00">PACMAN CORR</text>
</g>
<!-- PACMAN CORR&#45;&gt;UP -->
<g id="edge3" class="edge">
<title>PACMAN CORR&#45;&gt;UP</title>
<path fill="none" stroke="green" stroke-width="0.15" d="M278.83,-641.55C273.25,-628.14 268.2,-613.51 265.33,-599.38 255.44,-550.72 256.16,-536.46 265.33,-487.65 270.07,-462.39 281.91,-435.05 290.28,-417.81"/>
</g>
<!-- PACMAN CORR&#45;&gt;LEFT -->
<g id="edge1" class="edge">
<title>PACMAN CORR&#45;&gt;LEFT</title>
<path fill="none" stroke="green" stroke-width="0.21" d="M359.58,-670.43C384.72,-659.67 415.01,-646.79 442.33,-635.38 481.32,-619.09 497.06,-625.44 530.33,-599.38 541.37,-590.73 550.79,-578.26 557.71,-567.4"/>
</g>
<!-- 5432 -->
<g id="node30" class="node">
<title>5432</title>
<ellipse fill="lightgreen" stroke="black" cx="299.33" cy="-543.52" rx="25" ry="25"/>
<text text-anchor="middle" x="299.33" y="-541.32" font-family="Times New Roman,serif" font-size="9.00">5432</text>
</g>
<!-- PACMAN CORR&#45;&gt;5432 -->
<g id="edge22" class="edge">
<title>PACMAN CORR&#45;&gt;5432</title>
<path fill="none" stroke="red" stroke-width="0.54" d="M302.97,-635.21C302.03,-611.85 301.01,-586.29 300.28,-568.28"/>
</g>
<!-- 5243 -->
<g id="node31" class="node">
<title>5243</title>
<ellipse fill="lightgreen" stroke="black" cx="366.33" cy="-543.52" rx="25" ry="25"/>
<text text-anchor="middle" x="366.33" y="-541.32" font-family="Times New Roman,serif" font-size="9.00">5243</text>
</g>
<!-- PACMAN CORR&#45;&gt;5243 -->
<g id="edge20" class="edge">
<title>PACMAN CORR&#45;&gt;5243</title>
<path fill="none" stroke="red" stroke-width="0.19" d="M327.52,-639.47C337.81,-614.29 349.46,-585.78 357.29,-566.63"/>
</g>
<!-- S_INCREASED -->
<g id="node18" class="node">
<title>S_INCREASED</title>
<ellipse fill="lightcoral" stroke="black" cx="1653.33" cy="-694.77" rx="53.98" ry="53.98"/>
<text text-anchor="middle" x="1653.33" y="-692.57" font-family="Times New Roman,serif" font-size="9.00">S_INCREASED</text>
</g>
<!-- 4301 -->
<g id="node25" class="node">
<title>4301</title>
<ellipse fill="lightgreen" stroke="black" cx="291.33" cy="-279.18" rx="25" ry="25"/>
<text text-anchor="middle" x="291.33" y="-276.98" font-family="Times New Roman,serif" font-size="9.00">4301</text>
</g>
<!-- UP&#45;&gt;4301 -->
<g id="edge13" class="edge">
<title>UP&#45;&gt;4301</title>
<path fill="none" stroke="green" stroke-width="0.38" d="M298,-378.82C296.62,-358.37 294.44,-326.22 292.95,-304.22"/>
</g>
<!-- 4232 -->
<g id="node23" class="node">
<title>4232</title>
<ellipse fill="lightgreen" stroke="black" cx="685.33" cy="-155.5" rx="25" ry="25"/>
<text text-anchor="middle" x="685.33" y="-153.3" font-family="Times New Roman,serif" font-size="9.00">4232</text>
</g>
<!-- RIGHT&#45;&gt;4232 -->
<g id="edge24" class="edge">
<title>RIGHT&#45;&gt;4232</title>
<path fill="none" stroke="red" stroke-width="0.46" d="M652.63,-249.04C660.18,-227.66 670.29,-199.05 677.26,-179.33"/>
</g>
<!-- 2581 -->
<g id="node27" class="node">
<title>2581</title>
<ellipse fill="lightgreen" stroke="black" cx="642.33" cy="-399.33" rx="25" ry="25"/>
<text text-anchor="middle" x="642.33" y="-397.13" font-family="Times New Roman,serif" font-size="9.00">2581</text>
</g>
<!-- LEFT&#45;&gt;2581 -->
<g id="edge18" class="edge">
<title>LEFT&#45;&gt;2581</title>
<path fill="none" stroke="green" stroke-width="0.2" d="M582.22,-519.04C595.88,-492.06 618.11,-448.16 631.36,-421.98"/>
</g>
<!-- 4232&#45;&gt;DOWN -->
<g id="edge11" class="edge">
<title>4232&#45;&gt;DOWN</title>
<path fill="none" stroke="green" stroke-width="0.49" d="M675.36,-132.79C669.53,-121.84 661.34,-108.94 651.33,-99.64 622.58,-72.94 581.15,-53.91 553.28,-43.16"/>
</g>
<!-- 3371 -->
<g id="node24" class="node">
<title>3371</title>
<ellipse fill="lightgreen" stroke="black" cx="718.33" cy="-399.33" rx="25" ry="25"/>
<text text-anchor="middle" x="718.33" y="-397.13" font-family="Times New Roman,serif" font-size="9.00">3371</text>
</g>
<!-- 2543 -->
<g id="node26" class="node">
<title>2543</title>
<ellipse fill="lightgreen" stroke="black" cx="718.33" cy="-279.18" rx="25" ry="25"/>
<text text-anchor="middle" x="718.33" y="-276.98" font-family="Times New Roman,serif" font-size="9.00">2543</text>
</g>
<!-- 3371&#45;&gt;2543 -->
<g id="edge8" class="edge">
<title>3371&#45;&gt;2543</title>
<path fill="none" stroke="red" stroke-width="0.39" d="M718.33,-374.42C718.33,-353.92 718.33,-324.54 718.33,-304.06"/>
</g>
<!-- 4301&#45;&gt;DOWN -->
<g id="edge19" class="edge">
<title>4301&#45;&gt;DOWN</title>
<path fill="none" stroke="red" stroke-width="0.22" d="M281.06,-256.62C265.4,-220.2 240.88,-145.95 276.33,-99.64 302.52,-65.42 430.86,-44.69 491.49,-36.66"/>
</g>
<!-- 2543&#45;&gt;4232 -->
<g id="edge10" class="edge">
<title>2543&#45;&gt;4232</title>
<path fill="none" stroke="green" stroke-width="0.63" d="M712.04,-255.01C706.17,-233.36 697.45,-201.21 691.59,-179.59"/>
</g>
<!-- 4790 -->
<g id="node28" class="node">
<title>4790</title>
<ellipse fill="lightgreen" stroke="black" cx="752.33" cy="-155.5" rx="25" ry="25"/>
<text text-anchor="middle" x="752.33" y="-153.3" font-family="Times New Roman,serif" font-size="9.00">4790</text>
</g>
<!-- 2543&#45;&gt;4790 -->
<g id="edge15" class="edge">
<title>2543&#45;&gt;4790</title>
<path fill="none" stroke="green" stroke-width="0.1" d="M724.8,-255.01C730.85,-233.36 739.83,-201.21 745.87,-179.59"/>
</g>
<!-- 2581&#45;&gt;RIGHT -->
<g id="edge7" class="edge">
<title>2581&#45;&gt;RIGHT</title>
<path fill="none" stroke="green" stroke-width="0.1" d="M642.33,-374.42C642.33,-356.21 642.33,-331 642.33,-311.24"/>
</g>
<!-- 4790&#45;&gt;DOWN -->
<g id="edge16" class="edge">
<title>4790&#45;&gt;DOWN</title>
<path fill="none" stroke="green" stroke-width="0.32" d="M743.34,-132.14C737.87,-121.01 729.88,-108.15 719.33,-99.64 670.36,-60.13 596.75,-43.41 555.07,-36.79"/>
</g>
<!-- 4407 -->
<g id="node29" class="node">
<title>4407</title>
<ellipse fill="lightgreen" stroke="black" cx="642.33" cy="-543.52" rx="25" ry="25"/>
<text text-anchor="middle" x="642.33" y="-541.32" font-family="Times New Roman,serif" font-size="9.00">4407</text>
</g>
<!-- 4407&#45;&gt;2581 -->
<g id="edge14" class="edge">
<title>4407&#45;&gt;2581</title>
<path fill="none" stroke="green" stroke-width="0.2" d="M642.33,-518.72C642.33,-492.47 642.33,-450.48 642.33,-424.2"/>
</g>
<!-- 5432&#45;&gt;UP -->
<g id="edge23" class="edge">
<title>5432&#45;&gt;UP</title>
<path fill="none" stroke="red" stroke-width="0.25" d="M299.33,-518.72C299.33,-491.05 299.33,-445.88 299.33,-420.07"/>
</g>
<!-- 5243&#45;&gt;UP -->
<g id="edge21" class="edge">
<title>5243&#45;&gt;UP</title>
<path fill="none" stroke="red" stroke-width="0.63" d="M356.15,-520.92C342.9,-492.8 319.98,-444.16 307.69,-418.07"/>
</g>
</g>
</svg>
