<?xml version="1.0" encoding="UTF-8" standalone="no"?>
<!DOCTYPE svg PUBLIC "-//W3C//DTD SVG 1.1//EN"
 "http://www.w3.org/Graphics/SVG/1.1/DTD/svg11.dtd">
<!-- Generated by graphviz version 4.0.0 (20220529.0937)
 -->
<!-- Pages: 1 -->
<svg width="871pt" height="624pt"
 viewBox="0.00 0.00 870.50 624.48" xmlns="http://www.w3.org/2000/svg" xmlns:xlink="http://www.w3.org/1999/xlink">
<g id="graph0" class="graph" transform="scale(1 1) rotate(0) translate(4 620.48)">
<polygon fill="white" stroke="transparent" points="-4,4 -4,-620.48 866.5,-620.48 866.5,4 -4,4"/>
<!-- &#45;1 -->
<g id="node1" class="node">
<title>&#45;1</title>
<polygon fill="lightgray" stroke="black" points="244,-290.24 220,-290.24 220,-272.24 244,-272.24 244,-290.24"/>
<text text-anchor="middle" x="232" y="-279.04" font-family="Times New Roman,serif" font-size="9.00">&#45;1</text>
</g>
<!-- 0 -->
<g id="node19" class="node">
<title>0</title>
<ellipse fill="lightblue" stroke="black" cx="216" cy="-195.74" rx="14.7" ry="14.7"/>
<text text-anchor="middle" x="216" y="-193.54" font-family="Times New Roman,serif" font-size="9.00">0</text>
</g>
<!-- &#45;1&#45;&gt;0 -->
<g id="edge14" class="edge">
<title>&#45;1&#45;&gt;0</title>
<path fill="none" stroke="green" stroke-width="0.14" stroke-dasharray="1,5" d="M230.47,-272.24C228.21,-260.47 223.91,-238.03 220.58,-220.66"/>
<polygon fill="green" stroke="green" stroke-width="0.14" points="223.98,-219.81 218.66,-210.65 217.11,-221.13 223.98,-219.81"/>
</g>
<!-- 1 -->
<g id="node20" class="node">
<title>1</title>
<ellipse fill="lightblue" stroke="black" cx="365" cy="-195.74" rx="14.7" ry="14.7"/>
<text text-anchor="middle" x="365" y="-193.54" font-family="Times New Roman,serif" font-size="9.00">1</text>
</g>
<!-- &#45;1&#45;&gt;1 -->
<g id="edge7" class="edge">
<title>&#45;1&#45;&gt;1</title>
<path fill="none" stroke="green" stroke-width="0.55" d="M244.27,-272.54C267.04,-258.24 316.03,-227.49 344.11,-209.86"/>
<polygon fill="green" stroke="green" stroke-width="0.55" points="346.15,-212.71 352.76,-204.43 342.43,-206.78 346.15,-212.71"/>
</g>
<!-- &#45;2 -->
<g id="node2" class="node">
<title>&#45;2</title>
<polygon fill="lightgray" stroke="black" points="472,-290.24 448,-290.24 448,-272.24 472,-272.24 472,-290.24"/>
<text text-anchor="middle" x="460" y="-279.04" font-family="Times New Roman,serif" font-size="9.00">&#45;2</text>
</g>
<!-- &#45;2&#45;&gt;1 -->
<g id="edge1" class="edge">
<title>&#45;2&#45;&gt;1</title>
<path fill="none" stroke="green" stroke-width="0.86" stroke-dasharray="1,5" d="M453.32,-272.02C449.34,-267.3 444.09,-261.36 439,-256.49 421.74,-239.99 400.37,-223.06 385.03,-211.46"/>
<polygon fill="green" stroke="green" stroke-width="0.86" points="386.89,-208.48 376.78,-205.29 382.69,-214.08 386.89,-208.48"/>
</g>
<!-- &#45;3 -->
<g id="node3" class="node">
<title>&#45;3</title>
<polygon fill="lightgray" stroke="black" points="317,-616.48 293,-616.48 293,-598.48 317,-598.48 317,-616.48"/>
<text text-anchor="middle" x="305" y="-605.28" font-family="Times New Roman,serif" font-size="9.00">&#45;3</text>
</g>
<!-- &#45;4 -->
<g id="node4" class="node">
<title>&#45;4</title>
<polygon fill="lightgray" stroke="black" points="221,-375.74 197,-375.74 197,-357.74 221,-357.74 221,-375.74"/>
<text text-anchor="middle" x="209" y="-364.54" font-family="Times New Roman,serif" font-size="9.00">&#45;4</text>
</g>
<!-- &#45;4&#45;&gt;1 -->
<g id="edge5" class="edge">
<title>&#45;4&#45;&gt;1</title>
<path fill="none" stroke="red" stroke-width="2" d="M221.25,-363.32C246.11,-357.76 302.71,-341.71 333,-305.99 353.51,-281.81 360.88,-245.03 363.52,-220.94"/>
<polygon fill="red" stroke="red" stroke-width="2" points="367.02,-221.13 364.44,-210.86 360.05,-220.5 367.02,-221.13"/>
</g>
<!-- 4644 -->
<g id="node27" class="node">
<title>4644</title>
<ellipse fill="white" stroke="black" cx="147" cy="-195.74" rx="25" ry="25"/>
<text text-anchor="middle" x="147" y="-193.54" font-family="Times New Roman,serif" font-size="9.00">4644</text>
</g>
<!-- &#45;4&#45;&gt;4644 -->
<g id="edge16" class="edge">
<title>&#45;4&#45;&gt;4644</title>
<path fill="none" stroke="green" stroke-width="0.38" d="M200.6,-357.73C189.94,-347.03 171.89,-326.96 163,-305.99 152.91,-282.18 149.01,-253.12 147.58,-230.96"/>
<polygon fill="green" stroke="green" stroke-width="0.38" points="151.06,-230.5 147.06,-220.69 144.07,-230.85 151.06,-230.5"/>
</g>
<!-- 5285 -->
<g id="node29" class="node">
<title>5285</title>
<ellipse fill="white" stroke="black" cx="91" cy="-281.24" rx="25" ry="25"/>
<text text-anchor="middle" x="91" y="-279.04" font-family="Times New Roman,serif" font-size="9.00">5285</text>
</g>
<!-- &#45;4&#45;&gt;5285 -->
<g id="edge41" class="edge">
<title>&#45;4&#45;&gt;5285</title>
<path fill="none" stroke="green" stroke-width="0.38" d="M197.69,-357.73C179.83,-345.1 144.58,-320.15 119.48,-302.4"/>
<polygon fill="green" stroke="green" stroke-width="0.38" points="121.26,-299.37 111.08,-296.45 117.22,-305.08 121.26,-299.37"/>
</g>
<!-- 4017 -->
<g id="node30" class="node">
<title>4017</title>
<ellipse fill="white" stroke="black" cx="216" cy="-24.75" rx="25" ry="25"/>
<text text-anchor="middle" x="216" y="-22.55" font-family="Times New Roman,serif" font-size="9.00">4017</text>
</g>
<!-- &#45;4&#45;&gt;4017 -->
<g id="edge9" class="edge">
<title>&#45;4&#45;&gt;4017</title>
<path fill="none" stroke="green" stroke-width="0.51" d="M217.87,-357.46C228.6,-346.78 246.09,-327.04 253,-305.99 264.1,-272.2 283.96,-209.43 250,-85.5 246.99,-74.51 241.49,-63.4 235.79,-53.8"/>
<polygon fill="green" stroke="green" stroke-width="0.51" points="238.61,-51.71 230.32,-45.1 232.68,-55.43 238.61,-51.71"/>
</g>
<!-- &#45;5 -->
<g id="node5" class="node">
<title>&#45;5</title>
<polygon fill="lightgray" stroke="black" points="514,-290.24 490,-290.24 490,-272.24 514,-272.24 514,-290.24"/>
<text text-anchor="middle" x="502" y="-279.04" font-family="Times New Roman,serif" font-size="9.00">&#45;5</text>
</g>
<!-- &#45;5&#45;&gt;1 -->
<g id="edge6" class="edge">
<title>&#45;5&#45;&gt;1</title>
<path fill="none" stroke="green" stroke-width="0.5" d="M496.03,-272.06C492.14,-267.13 486.73,-260.95 481,-256.49 451.9,-233.85 412.92,-215.85 388.38,-205.74"/>
<polygon fill="green" stroke="green" stroke-width="0.5" points="389.4,-202.38 378.82,-201.9 386.79,-208.87 389.4,-202.38"/>
</g>
<!-- 5029 -->
<g id="node28" class="node">
<title>5029</title>
<ellipse fill="white" stroke="black" cx="216" cy="-110.25" rx="25" ry="25"/>
<text text-anchor="middle" x="216" y="-108.05" font-family="Times New Roman,serif" font-size="9.00">5029</text>
</g>
<!-- &#45;5&#45;&gt;5029 -->
<g id="edge34" class="edge">
<title>&#45;5&#45;&gt;5029</title>
<path fill="none" stroke="red" stroke-width="0.18" stroke-dasharray="1,5" d="M495.81,-272.1C480.14,-252.01 436.73,-199.65 389,-170.99 376.72,-163.62 295.95,-137.01 249.24,-121.9"/>
<polygon fill="red" stroke="red" stroke-width="0.18" points="250.13,-118.52 239.54,-118.78 247.99,-125.18 250.13,-118.52"/>
</g>
<!-- 4727 -->
<g id="node37" class="node">
<title>4727</title>
<ellipse fill="white" stroke="black" cx="524" cy="-195.74" rx="25" ry="25"/>
<text text-anchor="middle" x="524" y="-193.54" font-family="Times New Roman,serif" font-size="9.00">4727</text>
</g>
<!-- &#45;5&#45;&gt;4727 -->
<g id="edge29" class="edge">
<title>&#45;5&#45;&gt;4727</title>
<path fill="none" stroke="green" stroke-width="0.35" d="M504.11,-272.24C506.69,-262.46 511.2,-245.31 515.29,-229.82"/>
<polygon fill="green" stroke="green" stroke-width="0.35" points="518.71,-230.54 517.88,-219.98 511.95,-228.76 518.71,-230.54"/>
</g>
<!-- &#45;6 -->
<g id="node6" class="node">
<title>&#45;6</title>
<polygon fill="lightgray" stroke="black" points="482,-616.48 458,-616.48 458,-598.48 482,-598.48 482,-616.48"/>
<text text-anchor="middle" x="470" y="-605.28" font-family="Times New Roman,serif" font-size="9.00">&#45;6</text>
</g>
<!-- &#45;7 -->
<g id="node7" class="node">
<title>&#45;7</title>
<polygon fill="lightgray" stroke="black" points="324,-290.24 300,-290.24 300,-272.24 324,-272.24 324,-290.24"/>
<text text-anchor="middle" x="312" y="-279.04" font-family="Times New Roman,serif" font-size="9.00">&#45;7</text>
</g>
<!-- &#45;7&#45;&gt;1 -->
<g id="edge4" class="edge">
<title>&#45;7&#45;&gt;1</title>
<path fill="none" stroke="red" stroke-width="0.1" d="M317.08,-272.24C325.07,-259.65 340.81,-234.86 352.07,-217.11"/>
<polygon fill="red" stroke="red" stroke-width="0.1" points="355.08,-218.9 357.49,-208.58 349.17,-215.15 355.08,-218.9"/>
</g>
<!-- &#45;8 -->
<g id="node8" class="node">
<title>&#45;8</title>
<polygon fill="lightgray" stroke="black" points="585,-616.48 561,-616.48 561,-598.48 585,-598.48 585,-616.48"/>
<text text-anchor="middle" x="573" y="-605.28" font-family="Times New Roman,serif" font-size="9.00">&#45;8</text>
</g>
<!-- 3 -->
<g id="node22" class="node">
<title>3</title>
<ellipse fill="lightblue" stroke="black" cx="573" cy="-537.73" rx="14.7" ry="14.7"/>
<text text-anchor="middle" x="573" y="-535.53" font-family="Times New Roman,serif" font-size="9.00">3</text>
</g>
<!-- &#45;8&#45;&gt;3 -->
<g id="edge8" class="edge">
<title>&#45;8&#45;&gt;3</title>
<path fill="none" stroke="red" stroke-width="0.48" stroke-dasharray="1,5" d="M573,-598.44C573,-589.72 573,-575.35 573,-562.9"/>
<polygon fill="red" stroke="red" stroke-width="0.48" points="576.5,-562.64 573,-552.64 569.5,-562.64 576.5,-562.64"/>
</g>
<!-- &#45;9 -->
<g id="node9" class="node">
<title>&#45;9</title>
<polygon fill="lightgray" stroke="black" points="627,-616.48 603,-616.48 603,-598.48 627,-598.48 627,-616.48"/>
<text text-anchor="middle" x="615" y="-605.28" font-family="Times New Roman,serif" font-size="9.00">&#45;9</text>
</g>
<!-- &#45;10 -->
<g id="node10" class="node">
<title>&#45;10</title>
<polygon fill="lightgray" stroke="black" points="674.5,-616.48 645.5,-616.48 645.5,-598.48 674.5,-598.48 674.5,-616.48"/>
<text text-anchor="middle" x="660" y="-605.28" font-family="Times New Roman,serif" font-size="9.00">&#45;10</text>
</g>
<!-- 4212 -->
<g id="node36" class="node">
<title>4212</title>
<ellipse fill="white" stroke="black" cx="660" cy="-537.73" rx="25" ry="25"/>
<text text-anchor="middle" x="660" y="-535.53" font-family="Times New Roman,serif" font-size="9.00">4212</text>
</g>
<!-- &#45;10&#45;&gt;4212 -->
<g id="edge11" class="edge">
<title>&#45;10&#45;&gt;4212</title>
<path fill="none" stroke="green" stroke-width="0.34" d="M660,-598.44C660,-592.01 660,-582.51 660,-572.98"/>
<polygon fill="green" stroke="green" stroke-width="0.34" points="663.5,-572.75 660,-562.75 656.5,-572.75 663.5,-572.75"/>
</g>
<!-- &#45;11 -->
<g id="node11" class="node">
<title>&#45;11</title>
<polygon fill="lightgray" stroke="black" points="721.5,-616.48 692.5,-616.48 692.5,-598.48 721.5,-598.48 721.5,-616.48"/>
<text text-anchor="middle" x="707" y="-605.28" font-family="Times New Roman,serif" font-size="9.00">&#45;11</text>
</g>
<!-- &#45;12 -->
<g id="node12" class="node">
<title>&#45;12</title>
<polygon fill="lightgray" stroke="black" points="201.5,-290.24 172.5,-290.24 172.5,-272.24 201.5,-272.24 201.5,-290.24"/>
<text text-anchor="middle" x="187" y="-279.04" font-family="Times New Roman,serif" font-size="9.00">&#45;12</text>
</g>
<!-- &#45;12&#45;&gt;0 -->
<g id="edge3" class="edge">
<title>&#45;12&#45;&gt;0</title>
<path fill="none" stroke="red" stroke-width="1.28" d="M189.78,-272.24C193.95,-260.22 201.99,-237.09 208.07,-219.58"/>
<polygon fill="red" stroke="red" stroke-width="1.28" points="211.41,-220.64 211.38,-210.04 204.79,-218.34 211.41,-220.64"/>
</g>
<!-- &#45;12&#45;&gt;4644 -->
<g id="edge19" class="edge">
<title>&#45;12&#45;&gt;4644</title>
<path fill="none" stroke="green" stroke-width="0.41" d="M183.16,-272.24C178.26,-262 169.48,-243.68 161.81,-227.65"/>
<polygon fill="green" stroke="green" stroke-width="0.41" points="164.93,-226.06 157.45,-218.56 158.61,-229.09 164.93,-226.06"/>
</g>
<!-- &#45;13 -->
<g id="node13" class="node">
<title>&#45;13</title>
<polygon fill="lightgray" stroke="black" points="768.5,-616.48 739.5,-616.48 739.5,-598.48 768.5,-598.48 768.5,-616.48"/>
<text text-anchor="middle" x="754" y="-605.28" font-family="Times New Roman,serif" font-size="9.00">&#45;13</text>
</g>
<!-- &#45;14 -->
<g id="node14" class="node">
<title>&#45;14</title>
<polygon fill="lightgray" stroke="black" points="561.5,-290.24 532.5,-290.24 532.5,-272.24 561.5,-272.24 561.5,-290.24"/>
<text text-anchor="middle" x="547" y="-279.04" font-family="Times New Roman,serif" font-size="9.00">&#45;14</text>
</g>
<!-- &#45;14&#45;&gt;4727 -->
<g id="edge18" class="edge">
<title>&#45;14&#45;&gt;4727</title>
<path fill="none" stroke="green" stroke-width="0.56" d="M544.79,-272.24C542.1,-262.46 537.38,-245.31 533.11,-229.82"/>
<polygon fill="green" stroke="green" stroke-width="0.56" points="536.43,-228.69 530.4,-219.98 529.68,-230.55 536.43,-228.69"/>
</g>
<!-- &#45;15 -->
<g id="node15" class="node">
<title>&#45;15</title>
<polygon fill="lightgray" stroke="black" points="815.5,-616.48 786.5,-616.48 786.5,-598.48 815.5,-598.48 815.5,-616.48"/>
<text text-anchor="middle" x="801" y="-605.28" font-family="Times New Roman,serif" font-size="9.00">&#45;15</text>
</g>
<!-- &#45;16 -->
<g id="node16" class="node">
<title>&#45;16</title>
<polygon fill="lightgray" stroke="black" points="410.5,-375.74 381.5,-375.74 381.5,-357.74 410.5,-357.74 410.5,-375.74"/>
<text text-anchor="middle" x="396" y="-364.54" font-family="Times New Roman,serif" font-size="9.00">&#45;16</text>
</g>
<!-- 4706 -->
<g id="node33" class="node">
<title>4706</title>
<ellipse fill="white" stroke="black" cx="405" cy="-281.24" rx="25" ry="25"/>
<text text-anchor="middle" x="405" y="-279.04" font-family="Times New Roman,serif" font-size="9.00">4706</text>
</g>
<!-- &#45;16&#45;&gt;4706 -->
<g id="edge31" class="edge">
<title>&#45;16&#45;&gt;4706</title>
<path fill="none" stroke="green" stroke-width="0.33" d="M396.86,-357.73C397.89,-348.18 399.68,-331.59 401.32,-316.39"/>
<polygon fill="green" stroke="green" stroke-width="0.33" points="404.83,-316.51 402.42,-306.2 397.87,-315.76 404.83,-316.51"/>
</g>
<!-- &#45;17 -->
<g id="node17" class="node">
<title>&#45;17</title>
<polygon fill="lightgray" stroke="black" points="862.5,-616.48 833.5,-616.48 833.5,-598.48 862.5,-598.48 862.5,-616.48"/>
<text text-anchor="middle" x="848" y="-605.28" font-family="Times New Roman,serif" font-size="9.00">&#45;17</text>
</g>
<!-- &#45;18 -->
<g id="node18" class="node">
<title>&#45;18</title>
<polygon fill="lightgray" stroke="black" points="178.5,-616.48 149.5,-616.48 149.5,-598.48 178.5,-598.48 178.5,-616.48"/>
<text text-anchor="middle" x="164" y="-605.28" font-family="Times New Roman,serif" font-size="9.00">&#45;18</text>
</g>
<!-- 2 -->
<g id="node21" class="node">
<title>2</title>
<ellipse fill="lightblue" stroke="black" cx="594" cy="-281.24" rx="14.7" ry="14.7"/>
<text text-anchor="middle" x="594" y="-279.04" font-family="Times New Roman,serif" font-size="9.00">2</text>
</g>
<!-- &#45;18&#45;&gt;2 -->
<g id="edge2" class="edge">
<title>&#45;18&#45;&gt;2</title>
<path fill="none" stroke="green" stroke-width="0.19" stroke-dasharray="1,5" d="M175.62,-598.21C187.8,-589.48 207.42,-575.25 224,-562.48 347.59,-467.34 365.59,-425.99 497,-341.99 527.48,-322.51 540.54,-326.98 570,-305.99 572.42,-304.27 574.82,-302.3 577.11,-300.25"/>
<polygon fill="green" stroke="green" stroke-width="0.19" points="579.64,-302.67 584.38,-293.19 574.77,-297.64 579.64,-302.67"/>
</g>
<!-- 5642 -->
<g id="node24" class="node">
<title>5642</title>
<ellipse fill="white" stroke="black" cx="190" cy="-537.73" rx="25" ry="25"/>
<text text-anchor="middle" x="190" y="-535.53" font-family="Times New Roman,serif" font-size="9.00">5642</text>
</g>
<!-- &#45;18&#45;&gt;5642 -->
<g id="edge39" class="edge">
<title>&#45;18&#45;&gt;5642</title>
<path fill="none" stroke="green" stroke-width="0.18" d="M167.08,-598.44C169.78,-591.41 173.88,-580.73 177.88,-570.33"/>
<polygon fill="green" stroke="green" stroke-width="0.18" points="181.15,-571.56 181.47,-560.97 174.62,-569.05 181.15,-571.56"/>
</g>
<!-- 5527 -->
<g id="node26" class="node">
<title>5527</title>
<ellipse fill="white" stroke="black" cx="144" cy="-452.24" rx="25" ry="25"/>
<text text-anchor="middle" x="144" y="-450.04" font-family="Times New Roman,serif" font-size="9.00">5527</text>
</g>
<!-- &#45;18&#45;&gt;5527 -->
<g id="edge37" class="edge">
<title>&#45;18&#45;&gt;5527</title>
<path fill="none" stroke="red" stroke-width="0.13" stroke-dasharray="1,5" d="M162.35,-598.4C160.6,-589.6 157.84,-575.08 156,-562.48 152.34,-537.33 149.24,-508.78 147.11,-487.17"/>
<polygon fill="red" stroke="red" stroke-width="0.13" points="150.58,-486.78 146.14,-477.17 143.62,-487.46 150.58,-486.78"/>
</g>
<!-- &#45;18&#45;&gt;4017 -->
<g id="edge10" class="edge">
<title>&#45;18&#45;&gt;4017</title>
<path fill="none" stroke="green" stroke-width="0.17" stroke-dasharray="1,5" d="M149.45,-601.12C109.31,-585.28 0,-534.68 0,-453.24 0,-453.24 0,-453.24 0,-194.74 0,-103.37 121.37,-54.03 182.15,-35.04"/>
<polygon fill="green" stroke="green" stroke-width="0.17" points="183.5,-38.29 192.06,-32.05 181.47,-31.59 183.5,-38.29"/>
</g>
<!-- 4791 -->
<g id="node31" class="node">
<title>4791</title>
<ellipse fill="white" stroke="black" cx="515" cy="-537.73" rx="25" ry="25"/>
<text text-anchor="middle" x="515" y="-535.53" font-family="Times New Roman,serif" font-size="9.00">4791</text>
</g>
<!-- &#45;18&#45;&gt;4791 -->
<g id="edge21" class="edge">
<title>&#45;18&#45;&gt;4791</title>
<path fill="none" stroke="red" stroke-width="0.35" d="M178.66,-605.37C221.5,-601.88 349.96,-589.72 453,-562.48 463.01,-559.84 473.62,-556.12 483.19,-552.42"/>
<polygon fill="red" stroke="red" stroke-width="0.35" points="484.73,-555.57 492.71,-548.61 482.12,-549.08 484.73,-555.57"/>
</g>
<!-- 4421 -->
<g id="node32" class="node">
<title>4421</title>
<ellipse fill="white" stroke="black" cx="91" cy="-366.74" rx="25" ry="25"/>
<text text-anchor="middle" x="91" y="-364.54" font-family="Times New Roman,serif" font-size="9.00">4421</text>
</g>
<!-- &#45;18&#45;&gt;4421 -->
<g id="edge13" class="edge">
<title>&#45;18&#45;&gt;4421</title>
<path fill="none" stroke="green" stroke-width="0.33" stroke-dasharray="1,5" d="M159.79,-598.23C149.68,-578.07 123.84,-524.46 110,-476.98 102.78,-452.21 97.91,-423.42 94.91,-401.62"/>
<polygon fill="green" stroke="green" stroke-width="0.33" points="98.36,-400.99 93.59,-391.53 91.42,-401.9 98.36,-400.99"/>
</g>
<!-- 4226 -->
<g id="node23" class="node">
<title>4226</title>
<ellipse fill="white" stroke="black" cx="656" cy="-366.74" rx="25" ry="25"/>
<text text-anchor="middle" x="656" y="-364.54" font-family="Times New Roman,serif" font-size="9.00">4226</text>
</g>
<!-- 4226&#45;&gt;2 -->
<g id="edge12" class="edge">
<title>4226&#45;&gt;2</title>
<path fill="none" stroke="red" stroke-width="0.26" stroke-dasharray="1,5" d="M641.62,-346.37C631.64,-332.94 618.4,-315.11 608.42,-301.66"/>
<polygon fill="red" stroke="red" stroke-width="0.26" points="611.17,-299.49 602.39,-293.55 605.55,-303.66 611.17,-299.49"/>
</g>
<!-- 5642&#45;&gt;5527 -->
<g id="edge40" class="edge">
<title>5642&#45;&gt;5527</title>
<path fill="none" stroke="green" stroke-width="0.27" d="M178.39,-515.66C173,-505.87 166.49,-494.05 160.59,-483.35"/>
<polygon fill="green" stroke="green" stroke-width="0.27" points="163.49,-481.37 155.6,-474.3 157.36,-484.75 163.49,-481.37"/>
</g>
<!-- 5005 -->
<g id="node25" class="node">
<title>5005</title>
<ellipse fill="white" stroke="black" cx="568" cy="-452.24" rx="25" ry="25"/>
<text text-anchor="middle" x="568" y="-450.04" font-family="Times New Roman,serif" font-size="9.00">5005</text>
</g>
<!-- 4837 -->
<g id="node34" class="node">
<title>4837</title>
<ellipse fill="white" stroke="black" cx="550" cy="-366.74" rx="25" ry="25"/>
<text text-anchor="middle" x="550" y="-364.54" font-family="Times New Roman,serif" font-size="9.00">4837</text>
</g>
<!-- 5005&#45;&gt;4837 -->
<g id="edge26" class="edge">
<title>5005&#45;&gt;4837</title>
<path fill="none" stroke="green" stroke-width="0.6" d="M562.99,-427.98C561.19,-419.63 559.12,-410.05 557.18,-401.03"/>
<polygon fill="green" stroke="green" stroke-width="0.6" points="560.58,-400.2 555.05,-391.16 553.74,-401.68 560.58,-400.2"/>
</g>
<!-- 5527&#45;&gt;4421 -->
<g id="edge38" class="edge">
<title>5527&#45;&gt;4421</title>
<path fill="none" stroke="green" stroke-width="0.17" d="M131.17,-431.02C124.64,-420.74 116.59,-408.06 109.42,-396.75"/>
<polygon fill="green" stroke="green" stroke-width="0.17" points="112.21,-394.62 103.9,-388.05 106.3,-398.37 112.21,-394.62"/>
</g>
<!-- 4644&#45;&gt;5029 -->
<g id="edge27" class="edge">
<title>4644&#45;&gt;5029</title>
<path fill="none" stroke="green" stroke-width="0.51" stroke-dasharray="1,5" d="M162.31,-176.21C171.69,-164.86 183.85,-150.15 194.22,-137.6"/>
<polygon fill="green" stroke="green" stroke-width="0.51" points="197.06,-139.66 200.73,-129.73 191.66,-135.2 197.06,-139.66"/>
</g>
<!-- 4644&#45;&gt;4017 -->
<g id="edge15" class="edge">
<title>4644&#45;&gt;4017</title>
<path fill="none" stroke="green" stroke-width="0.66" d="M152.9,-171.64C158.98,-149.17 169.35,-114.31 182,-85.5 186.54,-75.15 192.38,-64.27 197.93,-54.68"/>
<polygon fill="green" stroke="green" stroke-width="0.66" points="201.03,-56.33 203.11,-45.94 195,-52.76 201.03,-56.33"/>
</g>
<!-- 5029&#45;&gt;4017 -->
<g id="edge28" class="edge">
<title>5029&#45;&gt;4017</title>
<path fill="none" stroke="green" stroke-width="0.37" stroke-dasharray="1,5" d="M216,-85.1C216,-77.15 216,-68.17 216,-59.64"/>
<polygon fill="green" stroke="green" stroke-width="0.37" points="219.5,-59.56 216,-49.56 212.5,-59.56 219.5,-59.56"/>
</g>
<!-- 5285&#45;&gt;4644 -->
<g id="edge33" class="edge">
<title>5285&#45;&gt;4644</title>
<path fill="none" stroke="red" stroke-width="0.6" d="M104.56,-260.03C111.57,-249.57 120.25,-236.62 127.94,-225.17"/>
<polygon fill="red" stroke="red" stroke-width="0.6" points="130.91,-227.02 133.57,-216.77 125.09,-223.13 130.91,-227.02"/>
</g>
<!-- 4791&#45;&gt;2 -->
<g id="edge22" class="edge">
<title>4791&#45;&gt;2</title>
<path fill="none" stroke="green" stroke-width="0.16" stroke-dasharray="1,5" d="M508.57,-513.74C499.24,-475.49 486.1,-397.51 516,-341.99 529.68,-316.59 547.65,-324.22 570,-305.99 572.3,-304.11 574.63,-302.05 576.89,-299.95"/>
<polygon fill="green" stroke="green" stroke-width="0.16" points="579.43,-302.36 584.13,-292.86 574.53,-297.35 579.43,-302.36"/>
</g>
<!-- 4791&#45;&gt;5005 -->
<g id="edge25" class="edge">
<title>4791&#45;&gt;5005</title>
<path fill="none" stroke="red" stroke-width="0.34" d="M527.83,-516.52C534.36,-506.24 542.41,-493.56 549.58,-482.25"/>
<polygon fill="red" stroke="red" stroke-width="0.34" points="552.7,-483.87 555.1,-473.55 546.79,-480.12 552.7,-483.87"/>
</g>
<!-- 4791&#45;&gt;4837 -->
<g id="edge23" class="edge">
<title>4791&#45;&gt;4837</title>
<path fill="none" stroke="green" stroke-width="0.27" d="M518.47,-513.17C521.89,-490.97 527.54,-456.82 534,-427.49 535.94,-418.67 538.34,-409.2 540.67,-400.45"/>
<polygon fill="green" stroke="green" stroke-width="0.27" points="544.11,-401.17 543.36,-390.6 537.35,-399.33 544.11,-401.17"/>
</g>
<!-- 5501 -->
<g id="node38" class="node">
<title>5501</title>
<ellipse fill="white" stroke="black" cx="635" cy="-452.24" rx="25" ry="25"/>
<text text-anchor="middle" x="635" y="-450.04" font-family="Times New Roman,serif" font-size="9.00">5501</text>
</g>
<!-- 4791&#45;&gt;5501 -->
<g id="edge35" class="edge">
<title>4791&#45;&gt;5501</title>
<path fill="none" stroke="green" stroke-width="0.44" d="M535.11,-522.63C539.67,-519.44 544.49,-516.09 549,-512.98 572.45,-496.83 578.66,-493.3 602,-476.98 603.61,-475.86 605.25,-474.7 606.91,-473.53"/>
<polygon fill="green" stroke="green" stroke-width="0.44" points="609.06,-476.3 615.17,-467.64 604.99,-470.6 609.06,-476.3"/>
</g>
<!-- 4421&#45;&gt;4644 -->
<g id="edge20" class="edge">
<title>4421&#45;&gt;4644</title>
<path fill="none" stroke="green" stroke-width="0.49" stroke-dasharray="1,5" d="M76.39,-346.71C61.03,-324.21 41.13,-286.07 57,-256.49 69.09,-233.95 93.85,-218.47 114.34,-208.92"/>
<polygon fill="green" stroke="green" stroke-width="0.49" points="115.93,-212.04 123.69,-204.83 113.12,-205.63 115.93,-212.04"/>
</g>
<!-- 4421&#45;&gt;5285 -->
<g id="edge32" class="edge">
<title>4421&#45;&gt;5285</title>
<path fill="none" stroke="green" stroke-width="0.2" d="M91,-341.59C91,-333.64 91,-324.66 91,-316.13"/>
<polygon fill="green" stroke="green" stroke-width="0.2" points="94.5,-316.05 91,-306.05 87.5,-316.05 94.5,-316.05"/>
</g>
<!-- 4706&#45;&gt;1 -->
<g id="edge17" class="edge">
<title>4706&#45;&gt;1</title>
<path fill="none" stroke="green" stroke-width="0.12" d="M394.49,-258.3C388.65,-246.1 381.39,-230.96 375.54,-218.75"/>
<polygon fill="green" stroke="green" stroke-width="0.12" points="378.68,-217.2 371.21,-209.7 372.37,-220.23 378.68,-217.2"/>
</g>
<!-- 4837&#45;&gt;2 -->
<g id="edge24" class="edge">
<title>4837&#45;&gt;2</title>
<path fill="none" stroke="red" stroke-width="0.41" stroke-dasharray="1,5" d="M561.33,-344.24C567.84,-331.88 575.99,-316.41 582.53,-304.01"/>
<polygon fill="red" stroke="red" stroke-width="0.41" points="585.79,-305.32 587.36,-294.85 579.6,-302.06 585.79,-305.32"/>
</g>
<!-- 5232 -->
<g id="node35" class="node">
<title>5232</title>
<ellipse fill="white" stroke="black" cx="325" cy="-110.25" rx="25" ry="25"/>
<text text-anchor="middle" x="325" y="-108.05" font-family="Times New Roman,serif" font-size="9.00">5232</text>
</g>
<!-- 5232&#45;&gt;4017 -->
<g id="edge30" class="edge">
<title>5232&#45;&gt;4017</title>
<path fill="none" stroke="green" stroke-width="0.13" d="M305.76,-94.51C288.51,-81.3 263.01,-61.76 243.59,-46.88"/>
<polygon fill="green" stroke="green" stroke-width="0.13" points="245.48,-43.92 235.41,-40.62 241.22,-49.48 245.48,-43.92"/>
</g>
<!-- 5501&#45;&gt;2 -->
<g id="edge36" class="edge">
<title>5501&#45;&gt;2</title>
<path fill="none" stroke="green" stroke-width="0.45" d="M629.39,-428.09C621.58,-395.93 607.54,-338.04 599.69,-305.71"/>
<polygon fill="green" stroke="green" stroke-width="0.45" points="603.05,-304.69 597.29,-295.8 596.25,-306.34 603.05,-304.69"/>
</g>
</g>
</svg>
